<?xml version="1.0" encoding="UTF-8" standalone="no"?>
<svg
   xmlns:dc="http://purl.org/dc/elements/1.1/"
   xmlns:cc="http://creativecommons.org/ns#"
   xmlns:rdf="http://www.w3.org/1999/02/22-rdf-syntax-ns#"
   xmlns:svg="http://www.w3.org/2000/svg"
   xmlns="http://www.w3.org/2000/svg"
   xmlns:xlink="http://www.w3.org/1999/xlink"
   xmlns:sodipodi="http://sodipodi.sourceforge.net/DTD/sodipodi-0.dtd"
   xmlns:inkscape="http://www.inkscape.org/namespaces/inkscape"
   width="800.000"
   height="400.000"
   viewBox="0.0 0.0 800.000 400.000"
   id="svg4149"
   onload="init(evt)"
   ondrop="drop(evt)"
   ondragover="allowDrop(evt)"
   version="1.1"
   inkscape:version="0.48.4 r9939"
   sodipodi:docname="8B-Model.svg">
  <script
    xlink:href="init.js"
    id="script3184"
    language="JavaScript" />
  <script
     xlink:href="jquery-2.0.3.min.js"
     id="script3186"
     language="JavaScript" />
  <script
     xlink:href="cookie.js"
     id="script3188"
     language="JavaScript" />
  <metadata
     id="metadata5311">
    <rdf:RDF>
      <cc:Work
         rdf:about="">
        <dc:format>image/svg+xml</dc:format>
        <dc:type
           rdf:resource="http://purl.org/dc/dcmitype/StillImage" />
      </cc:Work>
    </rdf:RDF>
  </metadata>
  <defs
     id="defs5309" />
  <sodipodi:namedview
     pagecolor="#ffffff"
     bordercolor="#666666"
     borderopacity="1"
     objecttolerance="10"
     gridtolerance="10"
     guidetolerance="10"
     inkscape:pageopacity="0"
     inkscape:pageshadow="2"
     inkscape:window-width="1920"
     inkscape:window-height="1018"
     id="namedview5307"
     showgrid="false"
     inkscape:zoom="1.1125147"
     inkscape:cx="452.45115"
     inkscape:cy="183.10942"
     inkscape:window-x="1432"
     inkscape:window-y="-8"
     inkscape:window-maximized="1"
     inkscape:current-layer="svg4149" />
  <title
     id="title4151">Produce by DWG to SVG Converter 2013 MX</title>
  <desc
     id="desc4153">Produce by DWG to SVG Converter 2013 MX</desc>
  <path
     d="m 15.589966,306.56037 35.010458,-93.9001"
     id="path4179"
     inkscape:connector-curvature="0"
     style="fill:none;stroke:#000000;stroke-width:0.60602731" />
  <path
     d="M 50.600424,212.66027 104.99515,151.48865"
     id="path4181"
     inkscape:connector-curvature="0"
     style="fill:none;stroke:#000000;stroke-width:0.60602731" />
  <path
     d="M 104.99515,151.48865 209.51052,81.867075"
     id="path4183"
     inkscape:connector-curvature="0"
     style="fill:none;stroke:#000000;stroke-width:0.60602731" />
  <path
     d="m 209.51052,81.867075 26.69596,1.70508"
     id="path4185"
     inkscape:connector-curvature="0"
     style="fill:none;stroke:#000000;stroke-width:0.60602731" />
  <path
     d="m 236.20648,83.572155 20.27023,5.869699"
     id="path4187"
     inkscape:connector-curvature="0"
     style="fill:none;stroke:#000000;stroke-width:0.60602731" />
  <path
     d="m 256.47671,89.441854 52.49621,5.718808"
     id="path4189"
     inkscape:connector-curvature="0"
     style="fill:none;stroke:#000000;stroke-width:0.60602731" />
  <path
     d="M 308.97292,95.160662 404.94987,6.8133872"
     id="path4191"
     inkscape:connector-curvature="0"
     style="fill:none;stroke:#000000;stroke-width:0.60602731" />
  <path
     d="M 404.94987,6.8133872 512.12315,6.7530304"
     id="path4193"
     inkscape:connector-curvature="0"
     style="fill:none;stroke:#000000;stroke-width:0.60602731" />
  <path
     d="M 512.12315,6.7530304 649.69205,38.002766"
     id="path4195"
     inkscape:connector-curvature="0"
     style="fill:none;stroke:#000000;stroke-width:0.60602731" />
  <path
     d="m 649.69205,38.002766 31.17449,62.740904"
     id="path4197"
     inkscape:connector-curvature="0"
     style="fill:none;stroke:#000000;stroke-width:0.60602731" />
  <path
     d="m 680.86654,100.74367 46.71307,129.45026"
     id="path4199"
     inkscape:connector-curvature="0"
     style="fill:none;stroke:#000000;stroke-width:0.60602731" />
  <path
     d="m 727.57961,230.19393 53.80083,74.52556"
     id="path4201"
     inkscape:connector-curvature="0"
     style="fill:none;stroke:#000000;stroke-width:0.60602731" />
  <path
     d="m 781.38044,304.71949 1.17804,1.85597"
     id="path4203"
     inkscape:connector-curvature="0"
     style="fill:none;stroke:#000000;stroke-width:0.60602731" />
  <path
     d="M 782.55848,306.57546 15.589966,306.56037"
     id="path4205"
     inkscape:connector-curvature="0"
     style="fill:none;stroke:#000000;stroke-width:0.60602731" />
  <path
     d="M 727.15122,229.00188 45.450109,228.9717"
     id="path4207"
     inkscape:connector-curvature="0"
     style="fill:none;stroke:#000000;stroke-width:0.60602731" />
  <path
     d="m 699.51088,152.42418 -594.56441,-0.0151"
     id="path4209"
     inkscape:connector-curvature="0"
     style="fill:none;stroke:#000000;stroke-width:0.60602731" />
  <path
     d="m 667.87879,74.609169 -334.81914,0"
     id="path4211"
     inkscape:connector-curvature="0"
     style="fill:none;stroke:#000000;stroke-width:0.60602731" />
  <path
     d="m 24.58598,387.96662 -7.15592,0.19616 m -0.08763,-7.39371 4.858237,7.2579 m -1.732998,-2.59534 4.030681,-4.85872 m -7.253279,-8.78192 4.829028,5.16051 m 0,0 -0.08763,-7.92183 m -4.741405,2.76132 7.155919,-0.19616 m -6.269948,-11.43761 -0.671781,0.54321 m 0,0 -0.321286,1.58437 m 0,0 0.0097,1.05624 m 0,0 0.360231,1.58437 m 0,0 1.03201,1.02606 m 0,0 1.713526,0.48286 m 0,0 1.703791,-0.0453 m 0,0 1.353296,-0.57339 m 0,0 0.67178,-1.07133 m 0,0 0.321286,-1.59946 m 0,0 -0.0097,-0.52812 m 0,0 -0.350494,-1.56928 m 0,0 -0.700988,-1.04115 m 0,0 -1.022275,-0.49795 m 0,0 -0.340757,0.0151 m 0,0 -1.022274,0.5583 m 0,0 -0.662045,1.07134 m 0,0 -0.331022,1.58436 m 0,0 0.0097,0.52812 m 0,0 0.36023,1.58437 m 0,0 0.691252,1.04116 m 0,0 1.032011,0.49794 m -3.923587,-15.20992 6.133646,-0.16598 m -3.018143,4.82855 -0.107096,-9.5062 m -4.12804,-4.10426 -0.08762,-7.39371 m 0,0 7.214335,5.08506 m -5.549488,-8.82718 -0.340758,0 m 0,0 -0.691253,-0.49795 m 0,0 -0.350493,-0.52812 m 0,0 -0.350494,-1.04115 m 0,0 -0.01947,-2.11249 m 0,0 0.331022,-1.07134 m 0,0 0.331022,-0.52812 m 0,0 0.671781,-0.54321 m 0,0 0.681515,-0.0302 m 0,0 0.691252,0.51304 m 0,0 1.03201,1.02606 m 0,0 3.465997,5.19069 m 0,0 -0.07788,-7.39371 m -7.233807,-6.14131 0.36023,1.56928 m 0,0 1.03201,1.04115 m 0,0 1.713527,0.48286 m 0,0 1.022274,-0.0302 m 0,0 1.694054,-0.57339 m 0,0 1.012539,-1.08642 m 0,0 0.321285,-1.59946 m 0,0 -0.0097,-1.05624 m 0,0 -0.360231,-1.56928 m 0,0 -1.03201,-1.02606 m 0,0 -1.713526,-0.48286 m 0,0 -1.022274,0.0302 m 0,0 -1.694054,0.57339 m 0,0 -1.012538,1.08642 m 0,0 -0.321287,1.58437 m 0,0 0.0097,1.05624"
     id="path4213"
     inkscape:connector-curvature="0"
     style="fill:none;stroke:#000000;stroke-width:0.60602731" />
  <path
     d="m 163.77105,309.42732 0.58415,69.75738"
     id="path4215"
     inkscape:connector-curvature="0"
     style="fill:none;stroke:#000000;stroke-width:0.60602731" />
  <path
     d="m 174.13983,390.03384 -7.15592,0.19616 m -0.0876,-7.39371 4.85823,7.27299 m -1.73299,-2.59534 4.03068,-4.87381 m -7.25328,-8.78192 4.82902,5.16051 m 0,0 -0.0876,-7.92183 m -4.7414,2.76132 7.15591,-0.18107 m -6.26994,-11.4527 -0.67178,0.54321 m 0,0 -0.32128,1.59946 m 0,0 0.01,1.05624 m 0,0 0.36022,1.56928 m 0,0 1.03202,1.02606 m 0,0 1.71353,0.48286 m 0,0 1.70378,-0.0453 m 0,0 1.3533,-0.57339 m 0,0 0.67178,-1.07133 m 0,0 0.32128,-1.58437 m 0,0 -0.01,-0.52812 m 0,0 -0.36023,-1.58437 m 0,0 -0.69125,-1.02606 m 0,0 -1.02227,-0.51304 m 0,0 -0.34076,0.0151 m 0,0 -1.02228,0.5583 m 0,0 -0.66204,1.07134 m 0,0 -0.33102,1.59945 m 0,0 0.01,0.52812 m 0,0 0.36023,1.56928 m 0,0 0.69125,1.04116 m 0,0 1.03201,0.49794 m -3.92358,-15.20992 6.13364,-0.16598 m -3.01814,4.82855 -0.1071,-9.49111 m -4.12804,-4.11935 -0.0876,-7.39371 m 0,0 7.21434,5.08506 m -7.32144,-14.59126 0.0584,5.28122 m 0,0 3.07656,0.45268 m 0,0 -0.3505,-0.52812 m 0,0 -0.36022,-1.56928 m 0,0 -0.0195,-1.58437 m 0,0 0.32129,-1.59945 m 0,0 0.67178,-1.07134 m 0,0 1.02228,-0.5583 m 0,0 0.68151,-0.0151 m 0,0 1.02227,0.49794 m 0,0 0.69126,1.04115 m 0,0 0.36022,1.56928 m 0,0 0.0195,1.58437 m 0,0 -0.32129,1.59945 m 0,0 -0.34076,0.52812 m 0,0 -0.67178,0.5583 m -5.94865,-13.58028 0.36022,1.58437 m 0,0 1.03201,1.02607 m 0,0 1.71352,0.48285 m 0,0 1.02229,-0.0302 m 0,0 1.69405,-0.57339 m 0,0 1.01254,-1.08642 m 0,0 0.32128,-1.59946 m 0,0 -0.01,-1.05624 m 0,0 -0.36024,-1.56928 m 0,0 -1.032,-1.02606 m 0,0 -1.71353,-0.48286 m 0,0 -1.02227,0.0302 m 0,0 -1.69406,0.57339 m 0,0 -1.01253,1.08642 m 0,0 -0.3213,1.58437 m 0,0 0.01,1.05624"
     id="path4217"
     inkscape:connector-curvature="0"
     style="fill:none;stroke:#000000;stroke-width:0.60602731" />
  <path
     d="m 209.94863,309.47259 0.58416,69.75738"
     id="path4219"
     inkscape:connector-curvature="0"
     style="fill:none;stroke:#000000;stroke-width:0.60602731" />
  <path
     d="m 220.31741,390.07911 -7.15591,0.19615 m -0.0876,-7.3937 4.85824,7.27299 m -1.733,-2.59534 4.03068,-4.87381 m -7.25328,-8.78192 4.82903,5.16051 m 0,0 -0.0876,-7.92183 m -4.74141,2.76132 7.15592,-0.18107 m -6.26994,-11.4527 -0.67178,0.54321 m 0,0 -0.3213,1.59945 m 0,0 0.01,1.05625 m 0,0 0.36022,1.56927 m 0,0 1.03201,1.02607 m 0,0 1.71352,0.48285 m 0,0 1.7038,-0.0453 m 0,0 1.3533,-0.57339 m 0,0 0.67178,-1.07134 m 0,0 0.32128,-1.58436 m 0,0 -0.01,-0.52812 m 0,0 -0.36023,-1.58437 m 0,0 -0.69125,-1.02607 m 0,0 -1.02228,-0.51303 m 0,0 -0.34076,0.0151 m 0,0 -1.02227,0.5583 m 0,0 -0.67179,1.07133 m 0,0 -0.32128,1.59946 m 0,0 0.01,0.52812 m 0,0 0.36023,1.56928 m 0,0 0.69125,1.04115 m 0,0 1.03201,0.49795 m -3.92358,-15.20992 6.13364,-0.16598 m -3.01814,4.82855 -0.1071,-9.49111 m -4.13778,-4.11935 -0.0779,-7.39371 m 0,0 7.21433,5.08506 m -6.29916,-14.62144 -0.68151,0.5583 m 0,0 -0.32129,1.58437 m 0,0 0.0195,1.05624 m 0,0 0.35049,1.58437 m 0,0 1.04175,1.02606 m 0,0 1.7038,0.48286 m 0,0 1.70379,-0.0453 m 0,0 1.35329,-0.57339 m 0,0 0.67178,-1.07133 m 0,0 0.32128,-1.59946 m 0,0 0,-0.52812 m 0,0 -0.36022,-1.56928 m 0,0 -0.69126,-1.04115 m 0,0 -1.032,-0.49795 m 0,0 -0.34076,0.0151 m 0,0 -1.01254,0.54322 m 0,0 -0.67178,1.08642 m 0,0 -0.32129,1.58436 m 0,0 0,0.52813 m 0,0 0.36023,1.58436 m 0,0 0.69125,1.02607 m 0,0 1.03202,0.51303 m -4.9264,-13.61046 0.36024,1.58437 m 0,0 1.032,1.02606 m 0,0 1.71353,0.48286 m 0,0 1.02227,-0.0302 m 0,0 1.69406,-0.57339 m 0,0 1.01254,-1.08642 m 0,0 0.32129,-1.59946 m 0,0 -0.01,-1.05624 m 0,0 -0.36023,-1.56928 m 0,0 -1.03201,-1.02607 m 0,0 -1.71352,-0.48285 m 0,0 -1.02228,0.0302 m 0,0 -1.69406,0.57339 m 0,0 -1.01254,1.08642 m 0,0 -0.32128,1.58437 m 0,0 0.01,1.05624"
     id="path4221"
     inkscape:connector-curvature="0"
     style="fill:none;stroke:#000000;stroke-width:0.60602731" />
  <path
     d="m 307.18151,310.4383 0.58416,69.77247"
     id="path4223"
     inkscape:connector-curvature="0"
     style="fill:none;stroke:#000000;stroke-width:0.60602731" />
  <path
     d="m 317.5503,391.0599 -7.15593,0.18107 m -0.0779,-7.37862 4.84849,7.25791 m -1.73299,-2.59534 4.03068,-4.85873 m -7.25328,-8.78191 4.82903,5.14542 m 0,0 -0.0876,-7.92183 m -4.74141,2.77641 7.15592,-0.19616 m -6.26022,-11.4527 -0.68151,0.54321 m 0,0 -0.32128,1.59945 m 0,0 0.01,1.05625 m 0,0 0.36023,1.56927 m 0,0 1.03201,1.02607 m 0,0 1.71353,0.48285 m 0,0 1.70379,-0.0453 m 0,0 1.35329,-0.5583 m 0,0 0.67178,-1.07134 m 0,0 0.32129,-1.59945 m 0,0 -0.01,-0.52813 m 0,0 -0.35049,-1.56927 m 0,0 -0.70099,-1.04116 m 0,0 -1.02227,-0.49794 m 0,0 -0.34076,0 m 0,0 -1.01254,0.5583 m 0,0 -0.67178,1.07133 m 0,0 -0.32128,1.59946 m 0,0 0,0.52812 m 0,0 0.36022,1.56928 m 0,0 0.69126,1.04115 m 0,0 1.03201,0.49795 m -3.92359,-15.20992 6.13365,-0.16598 m -3.0084,4.84363 -0.10711,-9.50619 m -4.13777,-4.11936 -0.0876,-7.3937 m 0,0 7.21433,5.08506 m -7.28248,-10.89441 0.36022,1.58437 m 0,0 0.69126,0.51303 m 0,0 0.68152,-0.0302 m 0,0 0.67178,-0.54321 m 0,0 0.33101,-1.05624 m 0,0 0.31156,-2.12758 m 0,0 0.33101,-1.59945 m 0,0 0.66205,-1.07134 m 0,0 0.68152,-0.54321 m 0,0 1.02227,-0.0302 m 0,0 0.68151,0.51304 m 0,0 0.3505,0.51303 m 0,0 0.36023,1.58436 m 0,0 0.0195,2.11249 m 0,0 -0.32128,1.58437 m 0,0 -0.33102,0.54321 m 0,0 -0.68152,0.54321 m 0,0 -1.02228,0.0302 m 0,0 -0.68151,-0.51303 m 0,0 -0.69125,-1.04116 m 0,0 -0.36023,-1.56927 m 0,0 -0.36997,-2.0974 m 0,0 -0.35049,-1.05625 m 0,0 -0.69126,-0.51303 m 0,0 -0.68151,0.0302 m 0,0 -0.67179,0.54321 m 0,0 -0.32128,1.58436 m 0,0 0.0195,2.11249 m -0.11684,-11.07547 0.35049,1.56928 m 0,0 1.04175,1.02606 m 0,0 1.7038,0.48286 m 0,0 1.02227,-0.0302 m 0,0 1.69405,-0.57339 m 0,0 1.01254,-1.08642 m 0,0 0.32128,-1.58437 m 0,0 -0.01,-1.05624 m 0,0 -0.36023,-1.58437 m 0,0 -1.03201,-1.02607 m 0,0 -1.71353,-0.48285 m 0,0 -1.01254,0.0302 m 0,0 -1.70378,0.57339 m 0,0 -1.01254,1.08642 m 0,0 -0.32128,1.59946 m 0,0 0.0194,1.05624"
     id="path4225"
     inkscape:connector-curvature="0"
     style="fill:none;stroke:#000000;stroke-width:0.60602731" />
  <path
     d="m 405.45614,309.38206 0.57442,69.75737"
     id="path4227"
     inkscape:connector-curvature="0"
     style="fill:none;stroke:#000000;stroke-width:0.60602731" />
  <path
     d="m 415.81518,389.98857 -7.15592,0.19616 m -0.0779,-7.39371 4.84849,7.273 m -1.73299,-2.59535 4.04042,-4.87381 m -7.26302,-8.76682 4.82903,5.14541 m 0,0 -0.0876,-7.92183 m -4.74141,2.77642 7.15592,-0.19616 m -6.26022,-11.45271 -0.68151,0.54321 m 0,0 -0.32128,1.59946 m 0,0 0.01,1.05624 m 0,0 0.36023,1.56928 m 0,0 1.04175,1.02607 m 0,0 1.70379,0.48285 m 0,0 1.70379,-0.0453 m 0,0 1.35329,-0.5583 m 0,0 0.67178,-1.08642 m 0,0 0.32129,-1.58437 m 0,0 0,-0.52812 m 0,0 -0.36023,-1.58437 m 0,0 -0.69125,-1.02606 m 0,0 -1.03201,-0.49794 m 0,0 -0.34076,0 m 0,0 -1.01254,0.5583 m 0,0 -0.67178,1.07133 m 0,0 -0.32128,1.59945 m 0,0 0,0.52813 m 0,0 0.36022,1.56927 m 0,0 0.69126,1.04116 m 0,0 1.03201,0.49794 m -3.92359,-15.20991 6.13365,-0.16598 m -3.00841,4.82854 -0.1071,-9.49111 m -4.16698,-6.75996 0.36023,1.56928 m 0,0 0.68152,0.51303 m 0,0 0.68151,-0.0151 m 0,0 0.68151,-0.54321 m 0,0 0.3213,-1.07133 m 0,0 0.32128,-2.11249 m 0,0 0.32129,-1.59946 m 0,0 0.67178,-1.07133 m 0,0 0.67178,-0.54321 m 0,0 1.02227,-0.0302 m 0,0 0.69125,0.49794 m 0,0 0.34076,0.52813 m 0,0 0.36023,1.56927 m 0,0 0.0292,2.11249 m 0,0 -0.32129,1.59946 m 0,0 -0.34076,0.52812 m 0,0 -0.67178,0.5583 m 0,0 -1.02227,0.0151 m 0,0 -0.69125,-0.49795 m 0,0 -0.69126,-1.04115 m 0,0 -0.36022,-1.56928 m 0,0 -0.36023,-2.11249 m 0,0 -0.36024,-1.04115 m 0,0 -0.68151,-0.51303 m 0,0 -0.68152,0.0151 m 0,0 -0.67178,0.5583 m 0,0 -0.33102,1.58436 m 0,0 0.0292,2.11249 m -0.12656,-11.09056 0.36022,1.58436 m 0,0 1.03202,1.02607 m 0,0 1.71352,0.48285 m 0,0 1.02228,-0.0302 m 0,0 1.69405,-0.57338 m 0,0 1.01254,-1.08643 m 0,0 0.32128,-1.59945 m 0,0 -0.01,-1.05625 m 0,0 -0.36023,-1.56927 m 0,0 -1.03201,-1.02607 m 0,0 -1.71353,-0.48285 m 0,0 -1.02227,0.0302 m 0,0 -1.69405,0.57339 m 0,0 -1.01254,1.08643 m 0,0 -0.32129,1.58436 m 0,0 0.01,1.05625 m -0.11684,-10.56244 0.36023,1.58436 m 0,0 1.03201,1.02607 m 0,0 1.7038,0.48285 m 0,0 1.02227,-0.0302 m 0,0 1.70378,-0.57339 m 0,0 1.00281,-1.08642 m 0,0 0.33102,-1.58436 m 0,0 -0.0195,-1.05625 m 0,0 -0.36023,-1.58436 m 0,0 -1.03201,-1.02607 m 0,0 -1.70379,-0.48285 m 0,0 -1.02228,0.0302 m 0,0 -1.70379,0.57339 m 0,0 -1.0028,1.08643 m 0,0 -0.33102,1.58436 m 0,0 0.0194,1.05625"
     id="path4229"
     inkscape:connector-curvature="0"
     style="fill:none;stroke:#000000;stroke-width:0.60602731" />
  <path
     d="m 536.26829,308.35599 0.58416,69.75738"
     id="path4231"
     inkscape:connector-curvature="0"
     style="fill:none;stroke:#000000;stroke-width:0.60602731" />
  <path
     d="m 546.62734,388.9625 -7.14618,0.19616 m -0.0876,-7.3937 4.85824,7.27299 m -1.74274,-2.59534 4.04042,-4.87381 m -7.25328,-8.76683 4.82903,5.14542 m 0,0 -0.0973,-7.92183 m -4.73167,2.77641 7.14618,-0.19616 m -6.26021,-11.4527 -0.67177,0.54321 m 0,0 -0.3213,1.59945 m 0,0 0.01,1.05625 m 0,0 0.36023,1.56927 m 0,0 1.032,1.02607 m 0,0 1.7038,0.48285 m 0,0 1.70379,-0.0453 m 0,0 1.36303,-0.5583 m 0,0 0.66205,-1.08643 m 0,0 0.33102,-1.58436 m 0,0 -0.01,-0.52812 m 0,0 -0.36023,-1.58437 m 0,0 -0.69126,-1.02607 m 0,0 -1.03201,-0.49794 m 0,0 -0.34075,0 m 0,0 -1.01254,0.5583 m 0,0 -0.67179,1.07133 m 0,0 -0.32128,1.59946 m 0,0 0.01,0.52812 m 0,0 0.36024,1.56928 m 0,0 0.69125,1.04115 m 0,0 1.02227,0.49795 m -3.91385,-15.20992 6.1239,-0.16598 m -3.00839,4.82854 -0.10711,-9.4911 m -4.16698,-6.75997 0.36023,1.56928 m 0,0 0.69125,0.51303 m 0,0 0.68152,-0.0151 m 0,0 0.67178,-0.54321 m 0,0 0.33102,-1.07133 m 0,0 0.31155,-2.11249 m 0,0 0.32129,-1.59945 m 0,0 0.67178,-1.07134 m 0,0 0.68152,-0.54321 m 0,0 1.01254,-0.0302 m 0,0 0.69124,0.49795 m 0,0 0.3505,0.52812 m 0,0 0.36023,1.56928 m 0,0 0.0194,2.11248 m 0,0 -0.32129,1.59946 m 0,0 -0.34075,0.52812 m 0,0 -0.67179,0.5583 m 0,0 -1.02227,0.0151 m 0,0 -0.68151,-0.49794 m 0,0 -0.70099,-1.04116 m 0,0 -0.36023,-1.56927 m 0,0 -0.36023,-2.11249 m 0,0 -0.35049,-1.04116 m 0,0 -0.69126,-0.51303 m 0,0 -0.68151,0.0151 m 0,0 -0.67178,0.5583 m 0,0 -0.32129,1.58437 m 0,0 0.0194,2.11248 m 1.60644,-8.49522 -0.34076,0.0151 m 0,0 -0.68152,-0.51303 m 0,0 -0.3505,-0.51303 m 0,0 -0.35049,-1.05625 m 0,0 -0.0292,-2.11248 m 0,0 0.33102,-1.05625 m 0,0 0.34076,-0.54321 m 0,0 0.67178,-0.54321 m 0,0 0.68151,-0.0151 m 0,0 0.69125,0.49794 m 0,0 1.03202,1.04116 m 0,0 3.46599,5.17559 m 0,0 -0.0876,-7.3937 m -7.18513,-2.97258 -0.0876,-7.39371 m 0,0 7.21433,5.10015"
     id="path4233"
     inkscape:connector-curvature="0"
     style="fill:none;stroke:#000000;stroke-width:0.60602731" />
  <path
     d="m 649.80888,308.77849 0.58415,69.77247"
     id="path4235"
     inkscape:connector-curvature="0"
     style="fill:none;stroke:#000000;stroke-width:0.60602731" />
  <path
     d="m 660.17766,389.40009 -7.15592,0.19616 m -0.0876,-7.39371 4.85823,7.25791 m -1.73299,-2.58026 4.03068,-4.87381 m -7.25328,-8.78191 4.82902,5.1605 m 0,0 -0.0876,-7.92183 m -4.7414,2.76133 7.15591,-0.19616 m -6.26994,-11.43762 -0.67178,0.54321 m 0,0 -0.32128,1.58437 m 0,0 0.01,1.05624 m 0,0 0.36022,1.58437 m 0,0 1.03202,1.02607 m 0,0 1.71353,0.48285 m 0,0 1.69405,-0.0453 m 0,0 1.36303,-0.57339 m 0,0 0.67178,-1.07133 m 0,0 0.32128,-1.58437 m 0,0 -0.01,-0.52812 m 0,0 -0.36023,-1.58436 m 0,0 -0.69125,-1.04116 m 0,0 -1.02227,-0.49794 m 0,0 -0.34076,0.0151 m 0,0 -1.02228,0.5583 m 0,0 -0.67177,1.07133 m 0,0 -0.32129,1.59946 m 0,0 0.01,0.52812 m 0,0 0.36023,1.56927 m 0,0 0.69125,1.04116 m 0,0 1.02228,0.49794 m -3.91385,-15.20991 6.13364,-0.16598 m -3.01814,4.82854 -0.10709,-9.5062 m -4.16699,-6.74487 0.36023,1.56928 m 0,0 0.69125,0.51303 m 0,0 0.68152,-0.0151 m 0,0 0.67178,-0.54321 m 0,0 0.33102,-1.07133 m 0,0 0.31155,-2.12758 m 0,0 0.33103,-1.58437 m 0,0 0.66204,-1.07133 m 0,0 0.68151,-0.5583 m 0,0 1.02228,-0.0302 m 0,0 0.68152,0.51303 m 0,0 0.35049,0.52813 m 0,0 0.36023,1.56927 m 0,0 0.0194,2.11249 m 0,0 -0.32128,1.59946 m 0,0 -0.33103,0.52812 m 0,0 -0.68151,0.54321 m 0,0 -1.02228,0.0302 m 0,0 -0.68152,-0.51303 m 0,0 -0.70098,-1.02607 m 0,0 -0.3505,-1.58437 m 0,0 -0.36997,-2.0974 m 0,0 -0.35049,-1.04115 m 0,0 -0.69125,-0.51303 m 0,0 -0.68151,0.0151 m 0,0 -0.67178,0.54321 m 0,0 -0.32129,1.59945 m 0,0 0.0194,2.11249 m -0.15578,-14.25929 0.0584,5.28122 m 0,0 3.06683,0.43758 m 0,0 -0.34077,-0.51303 m 0,0 -0.36022,-1.56928 m 0,0 -0.0194,-1.58436 m 0,0 0.32129,-1.59946 m 0,0 0.67178,-1.07133 m 0,0 1.01253,-0.5583 m 0,0 0.68153,-0.0151 m 0,0 1.032,0.49794 m 0,0 0.69126,1.04116 m 0,0 0.36022,1.56927 m 0,0 0.0194,1.58437 m 0,0 -0.32129,1.59946 m 0,0 -0.34076,0.52812 m 0,0 -0.67178,0.5583 m -5.94865,-13.58028 0.36022,1.58436 m 0,0 1.03202,1.02607 m 0,0 1.71352,0.48285 m 0,0 1.02228,-0.0302 m 0,0 1.69405,-0.57338 m 0,0 1.01254,-1.08643 m 0,0 0.32128,-1.59945 m 0,0 -0.01,-1.05625 m 0,0 -0.36023,-1.56927 m 0,0 -1.03201,-1.02607 m 0,0 -1.71353,-0.48285 m 0,0 -1.02227,0.0302 m 0,0 -1.69405,0.57339 m 0,0 -1.01254,1.08643 m 0,0 -0.32129,1.58436 m 0,0 0.01,1.05625"
     id="path4237"
     inkscape:connector-curvature="0"
     style="fill:none;stroke:#000000;stroke-width:0.60602731" />
  <path
     d="m 727.48225,309.48768 0.58415,69.77247"
     id="path4239"
     inkscape:connector-curvature="0"
     style="fill:none;stroke:#000000;stroke-width:0.60602731" />
  <path
     d="m 737.85102,390.10928 -7.15591,0.19616 m -0.0876,-7.39371 4.85824,7.25791 m -1.733,-2.59534 4.03069,-4.85872 m -7.25329,-8.78192 4.82903,5.14542 m 0,0 -0.0973,-7.92183 m -4.73167,2.77641 7.14618,-0.19616 m -6.26021,-11.4527 -0.67177,0.54321 m 0,0 -0.32129,1.59945 m 0,0 0.01,1.05625 m 0,0 0.36023,1.56927 m 0,0 1.03201,1.04116 m 0,0 1.70379,0.46776 m 0,0 1.70379,-0.0453 m 0,0 1.36303,-0.5583 m 0,0 0.67178,-1.07134 m 0,0 0.32129,-1.59945 m 0,0 -0.01,-0.52812 m 0,0 -0.36022,-1.56928 m 0,0 -0.69126,-1.04116 m 0,0 -1.032,-0.49794 m 0,0 -0.34076,0.0151 m 0,0 -1.01254,0.54321 m 0,0 -0.67178,1.08642 m 0,0 -0.32128,1.58437 m 0,0 0.01,0.52812 m 0,0 0.36023,1.56928 m 0,0 0.69125,1.04115 m 0,0 1.02227,0.49795 m -3.91385,-15.20992 6.13365,-0.16598 m -3.01814,4.84363 -0.1071,-9.50619 m -4.16699,-6.75997 0.36024,1.58437 m 0,0 0.69124,0.51303 m 0,0 0.68152,-0.0302 m 0,0 0.67178,-0.54322 m 0,0 0.33103,-1.05624 m 0,0 0.31154,-2.12758 m 0,0 0.32129,-1.59945 m 0,0 0.67179,-1.07134 m 0,0 0.68151,-0.54321 m 0,0 1.02227,-0.0302 m 0,0 0.68152,0.51304 m 0,0 0.3505,0.51303 m 0,0 0.36022,1.58437 m 0,0 0.0194,2.11248 m 0,0 -0.32129,1.58437 m 0,0 -0.33103,0.54321 m 0,0 -0.68151,0.54321 m 0,0 -1.02227,0.0302 m 0,0 -0.68152,-0.51303 m 0,0 -0.70099,-1.04116 m 0,0 -0.35049,-1.56927 m 0,0 -0.36997,-2.0974 m 0,0 -0.35049,-1.05625 m 0,0 -0.69125,-0.51303 m 0,0 -0.68152,0.0302 m 0,0 -0.67178,0.54321 m 0,0 -0.32128,1.58437 m 0,0 0.0194,2.11248 m 0.86651,-14.27438 -0.68152,0.54321 m 0,0 -0.32129,1.59946 m 0,0 0.01,1.05624 m 0,0 0.36023,1.56928 m 0,0 1.03201,1.02606 m 0,0 1.71352,0.48286 m 0,0 1.7038,-0.0453 m 0,0 1.35329,-0.5583 m 0,0 0.67178,-1.08642 m 0,0 0.32129,-1.58437 m 0,0 0,-0.52812 m 0,0 -0.36024,-1.58437 m 0,0 -0.70098,-1.02606 m 0,0 -1.02228,-0.51304 m 0,0 -0.34076,0.0151 m 0,0 -1.01254,0.5583 m 0,0 -0.67177,1.07134 m 0,0 -0.32129,1.59945 m 0,0 0,0.52812 m 0,0 0.36024,1.56928 m 0,0 0.69124,1.04116 m 0,0 1.03202,0.49794 m -3.94306,-16.79428 -0.67179,0.54321 m 0,0 -0.32128,1.59946 m 0,0 0.01,1.05624 m 0,0 0.36024,1.56928 m 0,0 1.032,1.02606 m 0,0 1.71353,0.48286 m 0,0 1.70379,-0.0453 m 0,0 1.3533,-0.5583 m 0,0 0.67178,-1.07133 m 0,0 0.32129,-1.59946 m 0,0 -0.01,-0.52812 m 0,0 -0.36023,-1.56928 m 0,0 -0.69125,-1.04115 m 0,0 -1.02228,-0.49795 m 0,0 -0.34075,0 m 0,0 -1.02228,0.5583 m 0,0 -0.66204,1.07134 m 0,0 -0.33103,1.59945 m 0,0 0.01,0.52812 m 0,0 0.36023,1.56928 m 0,0 0.69125,1.04116 m 0,0 1.03201,0.49794"
     id="path4241"
     inkscape:connector-curvature="0"
     style="fill:none;stroke:#000000;stroke-width:0.60602731" />
  <path
     d="m 781.24414,308.83884 0.58415,69.75738"
     id="path4243"
     inkscape:connector-curvature="0"
     style="fill:none;stroke:#000000;stroke-width:0.60602731" />
  <path
     d="m 791.60318,389.44536 -7.14619,0.19616 m -0.0876,-7.39371 4.8485,7.25791 m -1.733,-2.58026 4.04042,-4.87381 m -7.25328,-8.78192 4.82903,5.16051 m 0,0 -0.0973,-7.92183 m -4.73167,2.76132 7.14618,-0.19615 m -6.26021,-11.43762 -0.67178,0.54321 m 0,0 -0.33102,1.59946 m 0,0 0.0194,1.04115 m 0,0 0.36023,1.58437 m 0,0 1.03201,1.02606 m 0,0 1.7038,0.48286 m 0,0 1.70378,-0.0453 m 0,0 1.36303,-0.57339 m 0,0 0.66205,-1.07133 m 0,0 0.32128,-1.58437 m 0,0 0,-0.52812 m 0,0 -0.36022,-1.58437 m 0,0 -0.69126,-1.02606 m 0,0 -1.03201,-0.51304 m 0,0 -0.34075,0.0151 m 0,0 -1.01254,0.5583 m 0,0 -0.67178,1.07134 m 0,0 -0.32129,1.59945 m 0,0 0.01,0.52813 m 0,0 0.35049,1.56927 m 0,0 0.70099,1.04116 m 0,0 1.02227,0.49794 m -3.91385,-15.20991 6.12391,-0.16599 m -3.00841,4.82855 -0.10709,-9.5062 m -4.16699,-6.74487 0.36024,1.56928 m 0,0 0.68151,0.51303 m 0,0 0.68152,-0.0151 m 0,0 0.68151,-0.54321 m 0,0 0.33102,-1.07134 m 0,0 0.31155,-2.12757 m 0,0 0.32129,-1.58437 m 0,0 0.67178,-1.07133 m 0,0 0.67178,-0.5583 m 0,0 1.02228,-0.0151 m 0,0 0.69125,0.49794 m 0,0 0.35049,0.52812 m 0,0 0.3505,1.56928 m 0,0 0.0292,2.11249 m 0,0 -0.32129,1.59945 m 0,0 -0.34076,0.52813 m 0,0 -0.67178,0.54321 m 0,0 -1.02228,0.0302 m 0,0 -0.69124,-0.51304 m 0,0 -0.69126,-1.02606 m 0,0 -0.36023,-1.58437 m 0,0 -0.36023,-2.0974 m 0,0 -0.3505,-1.04115 m 0,0 -0.69125,-0.51304 m 0,0 -0.68151,0.0151 m 0,0 -0.67178,0.54322 m 0,0 -0.32128,1.59945 m 0,0 0.0194,2.11249 m -0.0876,-7.92183 -0.0876,-7.39371 m 0,0 7.21433,5.08506 m -7.24354,-8.25379 -0.0876,-7.39371 m 0,0 7.21434,5.08506"
     id="path4245"
     inkscape:connector-curvature="0"
     style="fill:none;stroke:#000000;stroke-width:0.60602731" />
  <path
     d="m 325.85505,310.4383 0.58417,69.77247"
     id="path5295"
     inkscape:connector-curvature="0"
     style="fill:none;stroke:#000000;stroke-width:0.60602731" />
  <path
     d="m 336.2141,391.0599 -7.14619,0.18107 m -0.0876,-7.37862 4.85823,7.25791 m -1.74273,-2.59534 4.04041,-4.85873 m -7.25327,-8.78191 4.82903,5.14542 m 0,0 -0.0973,-7.92183 m -4.73167,2.77641 7.14618,-0.19616 m -6.26022,-11.4527 -0.67178,0.54321 m 0,0 -0.32128,1.59945 m 0,0 0.01,1.05625 m 0,0 0.36024,1.56927 m 0,0 1.032,1.02607 m 0,0 1.70379,0.48285 m 0,0 1.7038,-0.0453 m 0,0 1.36303,-0.5583 m 0,0 0.66204,-1.07134 m 0,0 0.33102,-1.59945 m 0,0 -0.01,-0.52813 m 0,0 -0.36024,-1.56927 m 0,0 -0.69124,-1.04116 m 0,0 -1.03201,-0.49794 m 0,0 -0.34077,0 m 0,0 -1.01253,0.5583 m 0,0 -0.67178,1.07133 m 0,0 -0.32129,1.59946 m 0,0 0.01,0.52812 m 0,0 0.36024,1.56928 m 0,0 0.69125,1.04115 m 0,0 1.02228,0.49795 m -3.91386,-15.20992 6.12391,-0.16598 m -3.00841,4.84363 -0.10709,-9.50619 m -4.13777,-4.11936 -0.0779,-7.3937 m 0,0 7.21435,5.08506 m -7.2825,-10.89441 0.36023,1.58437 m 0,0 0.68152,0.51303 m 0,0 0.68151,-0.0302 m 0,0 0.68152,-0.54321 m 0,0 0.32129,-1.05624 m 0,0 0.32128,-2.12758 m 0,0 0.32129,-1.59945 m 0,0 0.67178,-1.07134 m 0,0 0.67179,-0.54321 m 0,0 1.02227,-0.0302 m 0,0 0.69125,0.51304 m 0,0 0.34075,0.51303 m 0,0 0.36024,1.58436 m 0,0 0.0292,2.11249 m 0,0 -0.3213,1.58437 m 0,0 -0.34075,0.54321 m 0,0 -0.67179,0.54321 m 0,0 -1.02227,0.0302 m 0,0 -0.69125,-0.51303 m 0,0 -0.69125,-1.04116 m 0,0 -0.36023,-1.56927 m 0,0 -0.36023,-2.0974 m 0,0 -0.35049,-1.05625 m 0,0 -0.69126,-0.51303 m 0,0 -0.68151,0.0302 m 0,0 -0.67178,0.54321 m 0,0 -0.33102,1.58436 m 0,0 0.0292,2.11249 m -0.10709,-8.96298 -0.0584,-5.80935 m 0,0 2.75527,3.09329 m 0,0 -0.0195,-1.58437 m 0,0 0.33102,-1.07133 m 0,0 0.34076,-0.52812 m 0,0 1.01254,-0.5583 m 0,0 0.68152,-0.0302 m 0,0 1.03201,0.51303 m 0,0 0.69125,1.02607 m 0,0 0.36023,1.58437 m 0,0 0.01,1.58436 m 0,0 -0.32128,1.58437 m 0,0 -0.33102,0.54321 m 0,0 -0.67178,0.54321"
     id="path5297"
     inkscape:connector-curvature="0"
     style="fill:none;stroke:#000000;stroke-width:0.60602731" />
  <path
     d="m 453.10385,308.35599 0.58416,69.75738"
     id="path5299"
     inkscape:connector-curvature="0"
     style="fill:none;stroke:#000000;stroke-width:0.60602731" />
  <path
     d="m 463.47263,388.9625 -7.15591,0.19616 m -0.0876,-7.3937 4.85824,7.27299 m -1.733,-2.59534 4.03068,-4.87381 m -7.25328,-8.76683 4.82903,5.14542 m 0,0 -0.0876,-7.92183 m -4.74141,2.77641 7.15592,-0.19616 m -6.26994,-11.4527 -0.67179,0.54321 m 0,0 -0.32129,1.59945 m 0,0 0.01,1.05625 m 0,0 0.36023,1.56927 m 0,0 1.03201,1.02607 m 0,0 1.71352,0.48285 m 0,0 1.7038,-0.0453 m 0,0 1.3533,-0.5583 m 0,0 0.67178,-1.08643 m 0,0 0.32128,-1.58436 m 0,0 -0.01,-0.52812 m 0,0 -0.3505,-1.58437 m 0,0 -0.70098,-1.02607 m 0,0 -1.02229,-0.49794 m 0,0 -0.34075,0 m 0,0 -1.02228,0.5583 m 0,0 -0.66203,1.07133 m 0,0 -0.33103,1.59946 m 0,0 0.01,0.52812 m 0,0 0.36024,1.56928 m 0,0 0.69124,1.04115 m 0,0 1.03202,0.49795 m -3.92359,-15.20992 6.13365,-0.16598 m -3.01814,4.82854 -0.1071,-9.4911 m -4.15725,-6.75997 0.35049,1.56928 m 0,0 0.69126,0.51303 m 0,0 0.68151,-0.0151 m 0,0 0.67179,-0.54321 m 0,0 0.33101,-1.07133 m 0,0 0.32129,-2.11249 m 0,0 0.32128,-1.59945 m 0,0 0.67178,-1.07134 m 0,0 0.67179,-0.54321 m 0,0 1.02227,-0.0302 m 0,0 0.68151,0.49795 m 0,0 0.3505,0.52812 m 0,0 0.36023,1.56928 m 0,0 0.0195,2.11248 m 0,0 -0.32129,1.59946 m 0,0 -0.33101,0.52812 m 0,0 -0.68152,0.5583 m 0,0 -1.02228,0.0151 m 0,0 -0.68151,-0.49794 m 0,0 -0.69125,-1.04116 m 0,0 -0.36024,-1.56927 m 0,0 -0.36996,-2.11249 m 0,0 -0.35049,-1.04116 m 0,0 -0.68152,-0.51303 m 0,0 -0.68151,0.0151 m 0,0 -0.68153,0.5583 m 0,0 -0.32128,1.58437 m 0,0 0.0292,2.11248 m 1.26567,-7.952 -0.35049,-1.05625 m 0,0 -1.04175,-1.55419 m 0,0 7.15593,-0.19616 m -7.23381,-6.66942 -0.0584,-5.80935 m 0,0 2.75527,3.09329 m 0,0 -0.0194,-1.56928 m 0,0 0.33102,-1.07133 m 0,0 0.33102,-0.54321 m 0,0 1.02228,-0.5583 m 0,0 0.68151,-0.0151 m 0,0 1.02228,0.49794 m 0,0 0.70099,1.04116 m 0,0 0.35049,1.58436 m 0,0 0.0195,1.56928 m 0,0 -0.32129,1.59946 m 0,0 -0.33102,0.54321 m 0,0 -0.68152,0.54321"
     id="path5301"
     inkscape:connector-curvature="0"
     style="fill:none;stroke:#000000;stroke-width:0.60602731" />
  <path
     d="m 598.20837,308.35599 0.58416,69.75738"
     id="path5303"
     inkscape:connector-curvature="0"
     style="fill:none;stroke:#000000;stroke-width:0.60602731" />
  <path
     d="m 608.57716,388.9625 -7.15593,0.19616 m -0.0779,-7.3937 4.84849,7.27299 m -1.73299,-2.59534 4.03068,-4.87381 m -7.25328,-8.76683 4.82902,5.14542 m 0,0 -0.0876,-7.92183 m -4.74141,2.77641 7.15592,-0.19616 m -6.26021,-11.4527 -0.68152,0.54321 m 0,0 -0.32128,1.59945 m 0,0 0.01,1.05625 m 0,0 0.36022,1.56927 m 0,0 1.03202,1.02607 m 0,0 1.71353,0.48285 m 0,0 1.70379,-0.0453 m 0,0 1.35329,-0.5583 m 0,0 0.67178,-1.08643 m 0,0 0.32129,-1.58436 m 0,0 0,-0.52812 m 0,0 -0.36023,-1.58437 m 0,0 -0.69126,-1.02607 m 0,0 -1.032,-0.49794 m 0,0 -0.34076,0 m 0,0 -1.01254,0.5583 m 0,0 -0.67178,1.07133 m 0,0 -0.32129,1.59946 m 0,0 0,0.52812 m 0,0 0.36023,1.56928 m 0,0 0.69125,1.04115 m 0,0 1.03202,0.49795 m -3.92359,-15.20992 6.13364,-0.16598 m -3.00841,4.82854 -0.10709,-9.4911 m -4.16698,-6.75997 0.36023,1.56928 m 0,0 0.68152,0.51303 m 0,0 0.68151,-0.0151 m 0,0 0.68152,-0.54321 m 0,0 0.32129,-1.07133 m 0,0 0.32128,-2.11249 m 0,0 0.32129,-1.59945 m 0,0 0.67177,-1.07134 m 0,0 0.67178,-0.54321 m 0,0 1.02228,-0.0302 m 0,0 0.69125,0.49795 m 0,0 0.34076,0.52812 m 0,0 0.36023,1.56928 m 0,0 0.0292,2.11248 m 0,0 -0.33102,1.59946 m 0,0 -0.33103,0.52812 m 0,0 -0.67178,0.5583 m 0,0 -1.02227,0.0151 m 0,0 -0.69125,-0.49794 m 0,0 -0.69126,-1.04116 m 0,0 -0.36023,-1.56927 m 0,0 -0.36022,-2.11249 m 0,0 -0.36024,-1.04116 m 0,0 -0.68151,-0.51303 m 0,0 -0.68152,0.0151 m 0,0 -0.67178,0.5583 m 0,0 -0.33102,1.58437 m 0,0 0.0292,2.11248 m -0.15578,-13.20305 4.82903,5.16051 m 0,0 -0.0876,-7.92183 m -4.74141,2.76132 7.15592,-0.19616 m -7.28248,-11.42252 0.0584,5.28122 m 0,0 3.07656,0.45267 m 0,0 -0.35049,-0.52812 m 0,0 -0.36024,-1.56927 m 0,0 -0.0194,-1.58437 m 0,0 0.33102,-1.58437 m 0,0 0.66204,-1.08642 m 0,0 1.02227,-0.54321 m 0,0 0.68153,-0.0302 m 0,0 1.02227,0.49794 m 0,0 0.69125,1.04116 m 0,0 0.36023,1.58437 m 0,0 0.0194,1.58436 m 0,0 -0.32129,1.58437 m 0,0 -0.33102,0.54321 m 0,0 -0.68151,0.54321"
     id="path5305"
     inkscape:connector-curvature="0"
     style="fill:none;stroke:#000000;stroke-width:0.60602731" />
  <path
     d="m 313.05211,310.65257 0,-156.09823"
     id="path5939-7-3-4"
     inkscape:connector-curvature="0"
     style="fill:none;stroke:#000000;stroke-width:0.97797191" />
  <path
     d="m 299.77262,311.09142 0,-157.03489"
     id="path5939-7-3-1-4"
     inkscape:connector-curvature="0"
     style="fill:none;stroke:#000000;stroke-width:0.96559644" />
  <path
     style="fill:none;stroke:#000000;stroke-width:0.67394686px;stroke-linecap:butt;stroke-linejoin:miter;stroke-opacity:1"
     d="m 299.5221,310.72922 c 13.55669,0.0797 13.85987,0.0478 13.85987,0.0478"
     id="path8189-1-8"
     inkscape:connector-curvature="0" />
  <path
     d="m 541.46096,310.65257 0,-156.09823"
     id="path5939-7-3-4-1"
     inkscape:connector-curvature="0"
     style="fill:none;stroke:#000000;stroke-width:0.97797191" />
  <path
     d="m 528.1814,311.09142 0,-157.03489"
     id="path5939-7-3-1-4-7"
     inkscape:connector-curvature="0"
     style="fill:none;stroke:#000000;stroke-width:0.96559644" />
  <path
     style="fill:none;stroke:#000000;stroke-width:0.67394686px;stroke-linecap:butt;stroke-linejoin:miter;stroke-opacity:1"
     d="m 527.93092,310.72922 c 13.55669,0.0797 13.85991,0.0478 13.85991,0.0478"
     id="path8189-1-8-4"
     inkscape:connector-curvature="0" />
  <text
     xml:space="preserve"
     style="font-size:16.96876335px;font-style:normal;font-weight:normal;line-height:125%;letter-spacing:0px;word-spacing:0px;fill:#000000;fill-opacity:1;stroke:none;font-family:Sans"
     x="732.32086"
     y="53.35685"
     id="text5542"
     sodipodi:linespacing="125%"
     transform="scale(0.80325961,1.2449275)"><tspan
       sodipodi:role="line"
       id="tspan5544"
       x="732.32086"
       y="53.35685">第三级平台</tspan></text>
  <text
     xml:space="preserve"
     style="font-size:16.96876335px;font-style:normal;font-weight:normal;line-height:125%;letter-spacing:0px;word-spacing:0px;fill:#000000;fill-opacity:1;stroke:none;font-family:Sans"
     x="770.45239"
     y="114.36733"
     id="text5546"
     sodipodi:linespacing="125%"
     transform="scale(0.80325961,1.2449275)"><tspan
       sodipodi:role="line"
       id="tspan5548"
       x="770.45239"
       y="114.36733">第二级平台</tspan></text>
  <text
     xml:space="preserve"
     style="font-size:16.96876335px;font-style:normal;font-weight:normal;line-height:125%;letter-spacing:0px;word-spacing:0px;fill:#000000;fill-opacity:1;stroke:none;font-family:Sans"
     x="800.9577"
     y="174.28831"
     id="text5550"
     sodipodi:linespacing="125%"
     transform="scale(0.80325961,1.2449275)"><tspan
       sodipodi:role="line"
       id="tspan5552"
       x="800.9577"
       y="174.28831">第一级平台</tspan></text>
</svg>
