<?xml version="1.0" encoding="UTF-8" standalone="no"?>
<svg
   xmlns:dc="http://purl.org/dc/elements/1.1/"
   xmlns:cc="http://creativecommons.org/ns#"
   xmlns:rdf="http://www.w3.org/1999/02/22-rdf-syntax-ns#"
   xmlns:svg="http://www.w3.org/2000/svg"
   xmlns="http://www.w3.org/2000/svg"
   xmlns:sodipodi="http://sodipodi.sourceforge.net/DTD/sodipodi-0.dtd"
   xmlns:inkscape="http://www.inkscape.org/namespaces/inkscape"
   width="800.000"
   height="400.000"
   viewBox="0.0 0.0 800.000 400.000"
   id="svg6131"
   version="1.1"
   inkscape:version="0.48.4 r9939"
   sodipodi:docname="新闻中心建筑物沉降与倾斜监测点分布图2-Model.svg">
  <metadata
     id="metadata9245">
    <rdf:RDF>
      <cc:Work
         rdf:about="">
        <dc:format>image/svg+xml</dc:format>
        <dc:type
           rdf:resource="http://purl.org/dc/dcmitype/StillImage" />
      </cc:Work>
    </rdf:RDF>
  </metadata>
  <defs
     id="defs9243" />
  <sodipodi:namedview
     pagecolor="#ffffff"
     bordercolor="#666666"
     borderopacity="1"
     objecttolerance="10"
     gridtolerance="10"
     guidetolerance="10"
     inkscape:pageopacity="0"
     inkscape:pageshadow="2"
     inkscape:window-width="1440"
     inkscape:window-height="878"
     id="namedview9241"
     showgrid="false"
     inkscape:zoom="1.1125147"
     inkscape:cx="298.84253"
     inkscape:cy="260.10974"
     inkscape:window-x="-8"
     inkscape:window-y="108"
     inkscape:window-maximized="1"
     inkscape:current-layer="svg6131" />
  <title
     id="title6133">Produce by DWG to SVG Converter 2013 MX</title>
  <desc
     id="desc6135">Produce by DWG to SVG Converter 2013 MX</desc>
  <path
     d="m 766.95093,308.1021 0,0 0,0 0,0 0,0 0,0 0,0 0,0 0,0 0,0 0,0 0,0 0,0 0,0 0,0 0,0 0,0 0,0 0,0 0,0 0,0 0,0 0,0 0,0 0,0 0,0 0,0 0,0 0,0 0,0 0,0 0,0 0,0 0,0 0,0 0,0 0,0 0,0 z"
     id="path7055"
     inkscape:connector-curvature="0"
     style="fill:#000000;fill-rule:evenodd;stroke-width:1.5;stroke-miterlimit:4;stroke-dasharray:none" />
  <path
     d="m 766.95093,308.1021 0,0 0,0 0,0 0,0 0,0 0,0 0,0 0,0 0,0 0,0 0,0 0,0 0,0 0,0 0,0 0,0 0,0 0,0 0,0 0,0 0,0 0,0 0,0 z"
     id="path7057"
     inkscape:connector-curvature="0"
     style="fill:#000000;fill-rule:evenodd;stroke-width:1.5;stroke-miterlimit:4;stroke-dasharray:none" />
  <path
     d="m 766.95093,308.1021 0,0 0,0 0,0 0,0 0,0 0,0 0,0 0,0 0,0 0,0 0,0 0,0 0,0 0,0 0,0 0,0 0,0 0,0 0,0 0,0 0,0 z"
     id="path7059"
     inkscape:connector-curvature="0"
     style="fill:#000000;fill-rule:evenodd;stroke-width:1.5;stroke-miterlimit:4;stroke-dasharray:none" />
  <path
     d="m 766.95093,308.1021 0,0 0,0 0,0 0,0 0,0 0,0 0,0 0,0 0,0 0,0 0,0 0,0 0,0 0,0 0,0 0,0 0,0 0,0 0,0 0,0 0,0 z"
     id="path7061"
     inkscape:connector-curvature="0"
     style="fill:#000000;fill-rule:evenodd;stroke-width:1.5;stroke-miterlimit:4;stroke-dasharray:none" />
  <path
     d="m 766.95093,308.1021 0,0 0,0 0,0 0,0 0,0 0,0 0,0 0,0 0,0 0,0 0,0 0,0 0,0 z"
     id="path7063"
     inkscape:connector-curvature="0"
     style="fill:#000000;fill-rule:evenodd;stroke-width:1.5;stroke-miterlimit:4;stroke-dasharray:none" />
  <path
     d="m 766.95093,308.1021 0,0 0,0 0,0 0,0 0,0 0,0 0,0 0,0 0,0 0,0 0,0 0,0 0,0 0,0 0,0 0,0 0,0 0,0 0,0 0,0 0,0 0,0 0,0 0,0 0,0 0,0 0,0 0,0 0,0 0,0 0,0 0,0 0,0 0,0 0,0 0,0 0,0 0,0 0,0 0,0 0,0 0,0 0,0 0,0 0,0 0,0 z"
     id="path7065"
     inkscape:connector-curvature="0"
     style="fill:#000000;fill-rule:evenodd;stroke-width:1.5;stroke-miterlimit:4;stroke-dasharray:none" />
  <path
     d="m 766.95093,308.1021 0,0 0,0 0,0 0,0 0,0 0,0 0,0 0,0 0,0 0,0 0,0 0,0 0,0 0,0 0,0 z"
     id="path7067"
     inkscape:connector-curvature="0"
     style="fill:#000000;fill-rule:evenodd;stroke-width:1.5;stroke-miterlimit:4;stroke-dasharray:none" />
  <path
     d="m 766.95093,308.1021 0,0 0,0 0,0 0,0 0,0 0,0 0,0 0,0 0,0 0,0 0,0 z"
     id="path7069"
     inkscape:connector-curvature="0"
     style="fill:#000000;fill-rule:evenodd;stroke-width:1.5;stroke-miterlimit:4;stroke-dasharray:none" />
  <path
     d="m 766.95093,308.1021 0,0 0,0 0,0 0,0 0,0 0,0 0,0 0,0 z"
     id="path7071"
     inkscape:connector-curvature="0"
     style="fill:#000000;fill-rule:evenodd;stroke-width:1.5;stroke-miterlimit:4;stroke-dasharray:none" />
  <path
     d="m 766.95093,308.1021 0,0 0,0 0,0 0,0 0,0 0,0 0,0 0,0 z"
     id="path7073"
     inkscape:connector-curvature="0"
     style="fill:#000000;fill-rule:evenodd;stroke-width:1.5;stroke-miterlimit:4;stroke-dasharray:none" />
  <path
     d="m 766.95093,308.1021 0,0 0,0 0,0 0,0 0,0 0,0 0,0 0,0 z"
     id="path7075"
     inkscape:connector-curvature="0"
     style="fill:#000000;fill-rule:evenodd;stroke-width:1.5;stroke-miterlimit:4;stroke-dasharray:none" />
  <path
     d="m 766.95093,308.1021 0,0 0,0 0,0 0,0 0,0 0,0 0,0 0,0 0,0 0,0 0,0 0,0 0,0 0,0 0,0 0,0 0,0 0,0 z m 0,0 0,0 0,0 0,0 0,0 z m 0,0 0,0 0,0 0,0 0,0 z m 0,0 0,0 0,0 0,0 0,0 z"
     id="path7077"
     inkscape:connector-curvature="0"
     style="fill:#000000;fill-rule:evenodd;stroke-width:1.5;stroke-miterlimit:4;stroke-dasharray:none" />
  <path
     d="m 766.95093,308.1021 0,0 0,0 0,0 0,0 0,0 0,0 0,0 0,0 0,0 0,0 0,0 0,0 0,0 0,0 0,0 0,0 0,0 0,0 0,0 z"
     id="path7079"
     inkscape:connector-curvature="0"
     style="fill:#000000;fill-rule:evenodd;stroke-width:1.5;stroke-miterlimit:4;stroke-dasharray:none" />
  <path
     d="m 766.95093,308.1021 0,0 0,0 0,0 0,0 0,0 0,0 0,0 0,0 0,0 0,0 0,0 0,0 z"
     id="path7081"
     inkscape:connector-curvature="0"
     style="fill:#000000;fill-rule:evenodd;stroke-width:1.5;stroke-miterlimit:4;stroke-dasharray:none" />
  <path
     d="m 766.95093,308.1021 0,0 0,0 0,0 0,0 0,0 0,0 0,0 0,0 0,0 0,0 0,0 0,0 z"
     id="path7083"
     inkscape:connector-curvature="0"
     style="fill:#000000;fill-rule:evenodd;stroke-width:1.5;stroke-miterlimit:4;stroke-dasharray:none" />
  <path
     d="m 766.95093,308.1021 0,0 0,0 0,0 0,0 0,0 0,0 0,0 0,0 0,0 0,0 0,0 0,0 0,0 0,0 0,0 0,0 z"
     id="path7085"
     inkscape:connector-curvature="0"
     style="fill:#000000;fill-rule:evenodd;stroke-width:1.5;stroke-miterlimit:4;stroke-dasharray:none" />
  <path
     d="m 766.95093,308.1021 0,0 0,0 0,0 0,0 0,0 0,0 0,0 0,0 0,0 0,0 0,0 0,0 0,0 0,0 0,0 0,0 0,0 0,0 0,0 0,0 z"
     id="path7087"
     inkscape:connector-curvature="0"
     style="fill:#000000;fill-rule:evenodd;stroke-width:1.5;stroke-miterlimit:4;stroke-dasharray:none" />
  <path
     d="m 766.95093,308.1021 0,0 0,0 0,0 0,0 0,0 0,0 0,0 0,0 0,0 0,0 0,0 0,0 0,0 0,0 0,0 0,0 0,0 0,0 0,0 0,0 0,0 0,0 0,0 0,0 z"
     id="path7089"
     inkscape:connector-curvature="0"
     style="fill:#000000;fill-rule:evenodd;stroke-width:1.5;stroke-miterlimit:4;stroke-dasharray:none" />
  <path
     d="m 766.95093,308.1021 0,0 0,0 0,0 0,0 0,0 0,0 0,0 0,0 0,0 0,0 0,0 0,0 0,0 0,0 0,0 0,0 0,0 0,0 0,0 z"
     id="path7091"
     inkscape:connector-curvature="0"
     style="fill:#000000;fill-rule:evenodd;stroke-width:1.5;stroke-miterlimit:4;stroke-dasharray:none" />
  <path
     d="m 766.95093,308.1021 0,0 0,0 0,0 0,0 0,0 0,0 0,0 0,0 0,0 0,0 0,0 0,0 0,0 0,0 0,0 0,0 0,0 0,0 0,0 0,0 0,0 0,0 0,0 0,0 0,0 0,0 0,0 0,0 0,0 0,0 0,0 0,0 z"
     id="path7093"
     inkscape:connector-curvature="0"
     style="fill:#000000;fill-rule:evenodd;stroke-width:1.5;stroke-miterlimit:4;stroke-dasharray:none" />
  <path
     d="m 766.95093,308.1021 0,0 0,0 0,0 0,0 0,0 0,0 0,0 0,0 0,0 0,0 0,0 0,0 0,0 0,0 z"
     id="path7095"
     inkscape:connector-curvature="0"
     style="fill:#000000;fill-rule:evenodd;stroke-width:1.5;stroke-miterlimit:4;stroke-dasharray:none" />
  <path
     d="m 766.95093,308.1021 0,0 0,0 0,0 0,0 0,0 0,0 0,0 0,0 0,0 0,0 0,0 0,0 0,0 z"
     id="path7097"
     inkscape:connector-curvature="0"
     style="fill:#000000;fill-rule:evenodd;stroke-width:1.5;stroke-miterlimit:4;stroke-dasharray:none" />
  <path
     d="m 766.95093,308.1021 0,0 0,0 0,0 0,0 0,0 0,0 0,0 0,0 0,0 0,0 0,0 0,0 0,0 z"
     id="path7099"
     inkscape:connector-curvature="0"
     style="fill:#000000;fill-rule:evenodd;stroke-width:1.5;stroke-miterlimit:4;stroke-dasharray:none" />
  <path
     d="m 766.95093,308.1021 0,0 0,0 0,0 0,0 0,0 0,0 0,0 0,0 0,0 0,0 0,0 0,0 0,0 z"
     id="path7101"
     inkscape:connector-curvature="0"
     style="fill:#000000;fill-rule:evenodd;stroke-width:1.5;stroke-miterlimit:4;stroke-dasharray:none" />
  <path
     d="m 766.95093,308.1021 0,0 0,0 0,0 0,0 0,0 0,0 0,0 0,0 0,0 0,0 0,0 0,0 0,0 0,0 0,0 0,0 0,0 0,0 0,0 0,0 z m 0,0 0,0 0,0 0,0 0,0 z"
     id="path7103"
     inkscape:connector-curvature="0"
     style="fill:#000000;fill-rule:evenodd;stroke-width:1.5;stroke-miterlimit:4;stroke-dasharray:none" />
  <path
     d="m 766.95093,308.1021 0,0 0,0 0,0 0,0 0,0 0,0 0,0 0,0 z"
     id="path7105"
     inkscape:connector-curvature="0"
     style="fill:#000000;fill-rule:evenodd;stroke-width:1.5;stroke-miterlimit:4;stroke-dasharray:none" />
  <path
     d="m 766.95093,308.1021 0,0 0,0 0,0 0,0 0,0 0,0 0,0 0,0 z"
     id="path7107"
     inkscape:connector-curvature="0"
     style="fill:#000000;fill-rule:evenodd;stroke-width:1.5;stroke-miterlimit:4;stroke-dasharray:none" />
  <path
     d="m 766.95093,308.1021 0,0 0,0 0,0 0,0 0,0 0,0 0,0 0,0 z"
     id="path7109"
     inkscape:connector-curvature="0"
     style="fill:#000000;fill-rule:evenodd;stroke-width:1.5;stroke-miterlimit:4;stroke-dasharray:none" />
  <path
     d="m 766.95093,308.1021 0,0 0,0 0,0 0,0 0,0 0,0 0,0 0,0 z"
     id="path7111"
     inkscape:connector-curvature="0"
     style="fill:#000000;fill-rule:evenodd;stroke-width:1.5;stroke-miterlimit:4;stroke-dasharray:none" />
  <path
     d="m 766.95093,308.1021 0,0 m 0,0 0,0 m 0,0 0,0 m 0,0 0,0 m 0,0 0,0 m 0,0 0,0 m 0,0 0,0 m 0,0 0,0 m 0,0 0,0 m 0,0 0,0 m 0,0 0,0 m 0,0 0,0 m 0,0 0,0 m 0,0 0,0 m 0,0 0,0 m 0,0 0,0"
     id="path7113"
     inkscape:connector-curvature="0"
     style="fill:none;stroke:#000000;stroke-width:1.5;stroke-miterlimit:4;stroke-dasharray:none" />
  <path
     d="m 766.95093,308.1021 0,0 0,0 0,0 0,0 0,0 0,0 0,0 0,0 0,0 0,0 0,0 0,0 0,0 0,0 0,0 0,0 0,0 0,0 0,0 0,0 0,0 0,0 0,0 0,0 0,0 0,0 0,0 0,0 0,0 0,0 0,0 0,0 0,0 0,0 0,0 0,0 0,0 z"
     id="path7115"
     inkscape:connector-curvature="0"
     style="fill:#000000;fill-rule:evenodd;stroke-width:1.5;stroke-miterlimit:4;stroke-dasharray:none" />
  <path
     d="m 766.95093,308.1021 0,0 0,0 0,0 0,0 0,0 0,0 0,0 0,0 0,0 0,0 0,0 0,0 0,0 0,0 0,0 0,0 0,0 0,0 0,0 0,0 0,0 0,0 0,0 z"
     id="path7117"
     inkscape:connector-curvature="0"
     style="fill:#000000;fill-rule:evenodd;stroke-width:1.5;stroke-miterlimit:4;stroke-dasharray:none" />
  <path
     d="m 766.95093,308.1021 0,0 0,0 0,0 0,0 0,0 0,0 0,0 0,0 0,0 0,0 0,0 0,0 0,0 0,0 0,0 0,0 0,0 0,0 0,0 0,0 0,0 z"
     id="path7119"
     inkscape:connector-curvature="0"
     style="fill:#000000;fill-rule:evenodd;stroke-width:1.5;stroke-miterlimit:4;stroke-dasharray:none" />
  <path
     d="m 766.95093,308.1021 0,0 0,0 0,0 0,0 0,0 0,0 0,0 0,0 0,0 0,0 0,0 0,0 0,0 0,0 0,0 0,0 0,0 0,0 0,0 0,0 0,0 z"
     id="path7121"
     inkscape:connector-curvature="0"
     style="fill:#000000;fill-rule:evenodd;stroke-width:1.5;stroke-miterlimit:4;stroke-dasharray:none" />
  <path
     d="m 766.95093,308.1021 0,0 0,0 0,0 0,0 0,0 0,0 0,0 0,0 0,0 0,0 0,0 0,0 0,0 z"
     id="path7123"
     inkscape:connector-curvature="0"
     style="fill:#000000;fill-rule:evenodd;stroke-width:1.5;stroke-miterlimit:4;stroke-dasharray:none" />
  <path
     d="m 766.95093,308.1021 0,0 0,0 0,0 0,0 0,0 0,0 0,0 0,0 0,0 0,0 0,0 0,0 0,0 0,0 0,0 0,0 0,0 0,0 0,0 0,0 0,0 0,0 0,0 0,0 0,0 0,0 0,0 0,0 0,0 0,0 0,0 0,0 0,0 0,0 0,0 0,0 0,0 0,0 0,0 0,0 0,0 0,0 0,0 0,0 0,0 0,0 z"
     id="path7125"
     inkscape:connector-curvature="0"
     style="fill:#000000;fill-rule:evenodd;stroke-width:1.5;stroke-miterlimit:4;stroke-dasharray:none" />
  <path
     d="m 766.95093,308.1021 0,0 0,0 0,0 0,0 0,0 0,0 0,0 0,0 0,0 0,0 0,0 0,0 0,0 0,0 0,0 z"
     id="path7127"
     inkscape:connector-curvature="0"
     style="fill:#000000;fill-rule:evenodd;stroke-width:1.5;stroke-miterlimit:4;stroke-dasharray:none" />
  <path
     d="m 766.95093,308.1021 0,0 0,0 0,0 0,0 0,0 0,0 0,0 0,0 0,0 0,0 0,0 z"
     id="path7129"
     inkscape:connector-curvature="0"
     style="fill:#000000;fill-rule:evenodd;stroke-width:1.5;stroke-miterlimit:4;stroke-dasharray:none" />
  <path
     d="m 766.95093,308.1021 0,0 0,0 0,0 0,0 0,0 0,0 0,0 0,0 z"
     id="path7131"
     inkscape:connector-curvature="0"
     style="fill:#000000;fill-rule:evenodd;stroke-width:1.5;stroke-miterlimit:4;stroke-dasharray:none" />
  <path
     d="m 766.95093,308.1021 0,0 0,0 0,0 0,0 0,0 0,0 0,0 0,0 z"
     id="path7133"
     inkscape:connector-curvature="0"
     style="fill:#000000;fill-rule:evenodd;stroke-width:1.5;stroke-miterlimit:4;stroke-dasharray:none" />
  <path
     d="m 766.95093,308.1021 0,0 0,0 0,0 0,0 0,0 0,0 0,0 0,0 z"
     id="path7135"
     inkscape:connector-curvature="0"
     style="fill:#000000;fill-rule:evenodd;stroke-width:1.5;stroke-miterlimit:4;stroke-dasharray:none" />
  <path
     d="m 766.95093,308.1021 0,0 0,0 0,0 0,0 0,0 0,0 0,0 0,0 0,0 0,0 0,0 0,0 0,0 0,0 0,0 0,0 0,0 0,0 z m 0,0 0,0 0,0 0,0 0,0 z m 0,0 0,0 0,0 0,0 0,0 z m 0,0 0,0 0,0 0,0 0,0 z"
     id="path7137"
     inkscape:connector-curvature="0"
     style="fill:#000000;fill-rule:evenodd;stroke-width:1.5;stroke-miterlimit:4;stroke-dasharray:none" />
  <path
     d="m 766.95093,308.1021 0,0 0,0 0,0 0,0 0,0 0,0 0,0 0,0 0,0 0,0 0,0 0,0 0,0 0,0 0,0 0,0 0,0 0,0 0,0 z"
     id="path7139"
     inkscape:connector-curvature="0"
     style="fill:#000000;fill-rule:evenodd;stroke-width:1.5;stroke-miterlimit:4;stroke-dasharray:none" />
  <path
     d="m 766.95093,308.1021 0,0 0,0 0,0 0,0 0,0 0,0 0,0 0,0 0,0 0,0 0,0 0,0 z"
     id="path7141"
     inkscape:connector-curvature="0"
     style="fill:#000000;fill-rule:evenodd;stroke-width:1.5;stroke-miterlimit:4;stroke-dasharray:none" />
  <path
     d="m 766.95093,308.1021 0,0 0,0 0,0 0,0 0,0 0,0 0,0 0,0 0,0 0,0 0,0 0,0 z"
     id="path7143"
     inkscape:connector-curvature="0"
     style="fill:#000000;fill-rule:evenodd;stroke-width:1.5;stroke-miterlimit:4;stroke-dasharray:none" />
  <path
     d="m 766.95093,308.1021 0,0 0,0 0,0 0,0 0,0 0,0 0,0 0,0 0,0 0,0 0,0 0,0 0,0 0,0 0,0 0,0 z"
     id="path7145"
     inkscape:connector-curvature="0"
     style="fill:#000000;fill-rule:evenodd;stroke-width:1.5;stroke-miterlimit:4;stroke-dasharray:none" />
  <path
     d="m 766.95093,308.1021 0,0 0,0 0,0 0,0 0,0 0,0 0,0 0,0 0,0 0,0 0,0 0,0 0,0 0,0 0,0 0,0 0,0 0,0 0,0 0,0 z"
     id="path7147"
     inkscape:connector-curvature="0"
     style="fill:#000000;fill-rule:evenodd;stroke-width:1.5;stroke-miterlimit:4;stroke-dasharray:none" />
  <path
     d="m 766.95093,308.1021 0,0 0,0 0,0 0,0 0,0 0,0 0,0 0,0 0,0 0,0 0,0 0,0 0,0 0,0 0,0 0,0 0,0 0,0 0,0 0,0 0,0 0,0 0,0 0,0 z"
     id="path7149"
     inkscape:connector-curvature="0"
     style="fill:#000000;fill-rule:evenodd;stroke-width:1.5;stroke-miterlimit:4;stroke-dasharray:none" />
  <path
     d="m 766.95093,308.1021 0,0 0,0 0,0 0,0 0,0 0,0 0,0 0,0 0,0 0,0 0,0 0,0 0,0 0,0 0,0 0,0 0,0 0,0 0,0 z"
     id="path7151"
     inkscape:connector-curvature="0"
     style="fill:#000000;fill-rule:evenodd;stroke-width:1.5;stroke-miterlimit:4;stroke-dasharray:none" />
  <path
     d="m 766.95093,308.1021 0,0 0,0 0,0 0,0 0,0 0,0 0,0 0,0 0,0 0,0 0,0 0,0 0,0 0,0 0,0 0,0 0,0 0,0 0,0 0,0 0,0 0,0 0,0 0,0 0,0 0,0 0,0 0,0 0,0 0,0 0,0 0,0 z"
     id="path7153"
     inkscape:connector-curvature="0"
     style="fill:#000000;fill-rule:evenodd;stroke-width:1.5;stroke-miterlimit:4;stroke-dasharray:none" />
  <path
     d="m 766.95093,308.1021 0,0 0,0 0,0 0,0 0,0 0,0 0,0 0,0 0,0 0,0 0,0 0,0 0,0 0,0 z"
     id="path7155"
     inkscape:connector-curvature="0"
     style="fill:#000000;fill-rule:evenodd;stroke-width:1.5;stroke-miterlimit:4;stroke-dasharray:none" />
  <path
     d="m 766.95093,308.1021 0,0 0,0 0,0 0,0 0,0 0,0 0,0 0,0 0,0 0,0 0,0 0,0 0,0 z"
     id="path7157"
     inkscape:connector-curvature="0"
     style="fill:#000000;fill-rule:evenodd;stroke-width:1.5;stroke-miterlimit:4;stroke-dasharray:none" />
  <path
     d="m 766.95093,308.1021 0,0 0,0 0,0 0,0 0,0 0,0 0,0 0,0 0,0 0,0 0,0 0,0 0,0 z"
     id="path7159"
     inkscape:connector-curvature="0"
     style="fill:#000000;fill-rule:evenodd;stroke-width:1.5;stroke-miterlimit:4;stroke-dasharray:none" />
  <path
     d="m 766.95093,308.1021 0,0 0,0 0,0 0,0 0,0 0,0 0,0 0,0 0,0 0,0 0,0 0,0 0,0 z"
     id="path7161"
     inkscape:connector-curvature="0"
     style="fill:#000000;fill-rule:evenodd;stroke-width:1.5;stroke-miterlimit:4;stroke-dasharray:none" />
  <path
     d="m 766.95093,308.1021 0,0 0,0 0,0 0,0 0,0 0,0 0,0 0,0 0,0 0,0 0,0 0,0 0,0 0,0 0,0 0,0 0,0 0,0 0,0 0,0 z m 0,0 0,0 0,0 0,0 0,0 z"
     id="path7163"
     inkscape:connector-curvature="0"
     style="fill:#000000;fill-rule:evenodd;stroke-width:1.5;stroke-miterlimit:4;stroke-dasharray:none" />
  <path
     d="m 766.95093,308.1021 0,0 0,0 0,0 0,0 0,0 0,0 0,0 0,0 z"
     id="path7165"
     inkscape:connector-curvature="0"
     style="fill:#000000;fill-rule:evenodd;stroke-width:1.5;stroke-miterlimit:4;stroke-dasharray:none" />
  <path
     d="m 766.95093,308.1021 0,0 0,0 0,0 0,0 0,0 0,0 0,0 0,0 z"
     id="path7167"
     inkscape:connector-curvature="0"
     style="fill:#000000;fill-rule:evenodd;stroke-width:1.5;stroke-miterlimit:4;stroke-dasharray:none" />
  <path
     d="m 766.95093,308.1021 0,0 0,0 0,0 0,0 0,0 0,0 0,0 0,0 z"
     id="path7169"
     inkscape:connector-curvature="0"
     style="fill:#000000;fill-rule:evenodd;stroke-width:1.5;stroke-miterlimit:4;stroke-dasharray:none" />
  <path
     d="m 766.95093,308.1021 0,0 0,0 0,0 0,0 0,0 0,0 0,0 0,0 z"
     id="path7171"
     inkscape:connector-curvature="0"
     style="fill:#000000;fill-rule:evenodd;stroke-width:1.5;stroke-miterlimit:4;stroke-dasharray:none" />
  <path
     d="m 766.95093,308.1021 0,0 m 0,0 0,0 m 0,0 0,0 m 0,0 0,0 m 0,0 0,0 m 0,0 0,0 m 0,0 0,0 m 0,0 0,0 m 0,0 0,0 m 0,0 0,0 m 0,0 0,0 m 0,0 0,0 m 0,0 0,0 m 0,0 0,0 m 0,0 0,0 m 0,0 0,0"
     id="path7173"
     inkscape:connector-curvature="0"
     style="fill:none;stroke:#000000;stroke-width:1.5;stroke-miterlimit:4;stroke-dasharray:none" />
  <rect
     style="fill:none;stroke:#000000;stroke-width:1.5;stroke-miterlimit:4;stroke-opacity:1;stroke-dasharray:none;stroke-dashoffset:0"
     id="rect8347"
     width="105.68723"
     height="208.9747"
     x="32.323338"
     y="143.15511" />
  <path
     style="fill:none;stroke:#000000;stroke-width:1.51303053;stroke-linecap:butt;stroke-linejoin:miter;stroke-miterlimit:4;stroke-opacity:1;stroke-dasharray:none"
     d="m 750.39083,344.8697 -317.83437,0.031"
     id="path8371-1"
     inkscape:connector-curvature="0" />
  <path
     style="fill:none;stroke:#000000;stroke-width:1.50979471;stroke-linecap:butt;stroke-linejoin:miter;stroke-miterlimit:4;stroke-opacity:1;stroke-dasharray:none"
     d="M 749.61657,344.21472 749.56047,175.3603"
     id="path8371-1-7"
     inkscape:connector-curvature="0" />
  <path
     d="m 519.07043,176.37698 169.12796,0"
     id="path11707"
     inkscape:connector-curvature="0"
     style="fill:none;stroke:#000000;stroke-width:1.5;stroke-miterlimit:4;stroke-dasharray:none" />
  <path
     d="m 187.58946,65.224669 0,166.488211"
     id="path11709"
     inkscape:connector-curvature="0"
     style="fill:none;stroke:#000000;stroke-width:1.5;stroke-miterlimit:4;stroke-dasharray:none" />
  <path
     d="m 187.58946,231.71288 221.82411,0"
     id="path11711"
     inkscape:connector-curvature="0"
     style="fill:none;stroke:#000000;stroke-width:1.5;stroke-miterlimit:4;stroke-dasharray:none" />
  <path
     d="m 186.76859,120.40297 332.72581,0"
     id="path11713"
     inkscape:connector-curvature="0"
     style="fill:none;stroke:#000000;stroke-width:1.5;stroke-miterlimit:4;stroke-dasharray:none" />
  <path
     d="m 520.39289,120.71433 -1.19166,56.50835"
     id="path11715"
     inkscape:connector-curvature="0"
     style="fill:none;stroke:#000000;stroke-width:1.5;stroke-miterlimit:4;stroke-dasharray:none" />
  <path
     d="m 409.41357,231.71288 279.29349,0"
     id="path11717"
     inkscape:connector-curvature="0"
     style="fill:none;stroke:#000000;stroke-width:1.5;stroke-miterlimit:4;stroke-dasharray:none" />
  <path
     d="m 688.70706,231.71288 0,-55.3359"
     id="path11719"
     inkscape:connector-curvature="0"
     style="fill:none;stroke:#000000;stroke-width:1.5;stroke-miterlimit:4;stroke-dasharray:none" />
  <path
     d="m 462.42378,62.745219 0,168.967661"
     id="path11721"
     inkscape:connector-curvature="0"
     style="fill:none;stroke:#000000;stroke-width:1.5;stroke-miterlimit:4;stroke-dasharray:none" />
  <path
     d="m 404.45468,231.71288 1.80671,-110.17207"
     id="path11723"
     inkscape:connector-curvature="0"
     style="fill:none;stroke:#000000;stroke-width:1.5;stroke-miterlimit:4;stroke-dasharray:none" />
  <path
     d="m 519.22043,176.20399 0,55.50889"
     id="path11725"
     inkscape:connector-curvature="0"
     style="fill:none;stroke:#000000;stroke-width:1.5;stroke-miterlimit:4;stroke-dasharray:none" />
  <path
     d="m 573.42233,176.14415 0,55.58326"
     id="path11727"
     inkscape:connector-curvature="0"
     style="fill:none;stroke:#000000;stroke-width:1.5;stroke-miterlimit:4;stroke-dasharray:none" />
  <path
     d="m 628.912,176.58141 0,55.14909"
     id="path11729"
     inkscape:connector-curvature="0"
     style="fill:none;stroke:#000000;stroke-width:1.5;stroke-miterlimit:4;stroke-dasharray:none" />
  <path
     d="m 519.22043,176.68452 -331.63097,0"
     id="path11759"
     inkscape:connector-curvature="0"
     style="fill:none;stroke:#000000;stroke-width:1.5;stroke-miterlimit:4;stroke-dasharray:none" />
</svg>
