<?xml version="1.0" encoding="UTF-8" standalone="no"?>
<svg
   xmlns:dc="http://purl.org/dc/elements/1.1/"
   xmlns:cc="http://creativecommons.org/ns#"
   xmlns:rdf="http://www.w3.org/1999/02/22-rdf-syntax-ns#"
   xmlns:svg="http://www.w3.org/2000/svg"
   xmlns="http://www.w3.org/2000/svg"
   xmlns:xlink="http://www.w3.org/1999/xlink"
   xmlns:sodipodi="http://sodipodi.sourceforge.net/DTD/sodipodi-0.dtd"
   xmlns:inkscape="http://www.inkscape.org/namespaces/inkscape"
   width="800.000"
   height="400.000"
   viewBox="0.0 0.0 800.000 400.000"
   id="svg5001"
   onload="init(evt)"
   ondrop="drop(evt)"
   ondragover="allowDrop(evt)"
   version="1.1"
   inkscape:version="0.48.4 r9939"
   sodipodi:docname="xinxu.svg">
  <script
     xlink:href="init.js"
     language="JavaScript"
     id="script3184" />
  <script
     xlink:href="jquery-2.0.3.min.js"
     language="JavaScript"
     id="script3186" />
  <script
     xlink:href="cookie.js"
     language="JavaScript"
     id="script3188" />
  <metadata
     id="metadata7015">
    <rdf:RDF>
      <cc:Work
         rdf:about="">
        <dc:format>image/svg+xml</dc:format>
        <dc:type
           rdf:resource="http://purl.org/dc/dcmitype/StillImage" />
        <dc:title>Produce by DWG to SVG Converter 2013 MX</dc:title>
      </cc:Work>
    </rdf:RDF>
  </metadata>
  <defs
     id="defs7013" />
  <sodipodi:namedview
     pagecolor="#ffffff"
     bordercolor="#666666"
     borderopacity="1"
     objecttolerance="10"
     gridtolerance="10"
     guidetolerance="10"
     inkscape:pageopacity="0"
     inkscape:pageshadow="2"
     inkscape:window-width="1920"
     inkscape:window-height="1018"
     id="namedview7011"
     showgrid="false"
     inkscape:zoom="1.4142136"
     inkscape:cx="462.80079"
     inkscape:cy="181.55643"
     inkscape:window-x="1432"
     inkscape:window-y="-8"
     inkscape:window-maximized="1"
     inkscape:current-layer="svg5001" />
  <title
     id="title5003">Produce by DWG to SVG Converter 2013 MX</title>
  <desc
     id="desc5005">Produce by DWG to SVG Converter 2013 MX</desc>
  <path
     d="m 47.715366,324.74676 703.980244,0"
     id="path5031"
     inkscape:connector-curvature="0"
     style="fill:none;stroke:#000000;stroke-width:0.49509037" />
  <path
     d="m 47.715366,284.27027 705.417324,0"
     id="path5033"
     inkscape:connector-curvature="0"
     style="fill:none;stroke:#000000;stroke-width:0.49509037" />
  <path
     d="m 57.67377,240.80987 684.88319,0"
     id="path5035"
     inkscape:connector-curvature="0"
     style="fill:none;stroke:#000000;stroke-width:0.49509037" />
  <path
     d="m 72.540533,198.76396 654.269187,0"
     id="path5037"
     inkscape:connector-curvature="0"
     style="fill:none;stroke:#000000;stroke-width:0.49509037" />
  <path
     d="m 91.759039,158.27776 610.832711,0"
     id="path5039"
     inkscape:connector-curvature="0"
     style="fill:none;stroke:#000000;stroke-width:0.49509037" />
  <path
     d="m 134.54779,114.82708 534.50521,0"
     id="path5041"
     inkscape:connector-curvature="0"
     style="fill:none;stroke:#000000;stroke-width:0.49509037" />
  <path
     d="m 261.62878,72.325817 350.21398,0"
     id="path5043"
     inkscape:connector-curvature="0"
     style="fill:none;stroke:#000000;stroke-width:0.49509037" />
  <path
     d="m 364.85612,28.875114 140.06538,0"
     id="path5045"
     inkscape:connector-curvature="0"
     style="fill:none;stroke:#000000;stroke-width:0.49509037" />
  <path
     d="m 751.69561,324.74676 0,-40.47649"
     id="path5047"
     inkscape:connector-curvature="0"
     style="fill:none;stroke:#000000;stroke-width:0.49509037" />
  <path
     d="m 751.69561,284.27027 -1.1436,-18.50409"
     id="path5049"
     inkscape:connector-curvature="0"
     style="fill:none;stroke:#000000;stroke-width:0.49509037" />
  <path
     d="M 750.55201,265.76618 731.6877,206.92126"
     id="path5051"
     inkscape:connector-curvature="0"
     style="fill:none;stroke:#000000;stroke-width:0.49509037" />
  <path
     d="M 731.6877,206.92126 682.63449,124.92198"
     id="path5053"
     inkscape:connector-curvature="0"
     style="fill:none;stroke:#000000;stroke-width:0.49509037" />
  <path
     d="M 682.63449,124.92198 611.84276,72.325817"
     id="path5055"
     inkscape:connector-curvature="0"
     style="fill:none;stroke:#000000;stroke-width:0.49509037" />
  <path
     d="M 611.84276,72.325817 551.97091,36.983974"
     id="path5057"
     inkscape:connector-curvature="0"
     style="fill:none;stroke:#000000;stroke-width:0.49509037" />
  <path
     d="M 551.97091,36.983974 405.53985,11.746723"
     id="path5059"
     inkscape:connector-curvature="0"
     style="fill:none;stroke:#000000;stroke-width:0.49509037" />
  <path
     d="M 405.53985,11.746723 249.23136,77.54763"
     id="path5061"
     inkscape:connector-curvature="0"
     style="fill:none;stroke:#000000;stroke-width:0.49509037" />
  <path
     d="M 249.23136,77.54763 134.54779,114.82708"
     id="path5063"
     inkscape:connector-curvature="0"
     style="fill:none;stroke:#000000;stroke-width:0.49509037" />
  <path
     d="M 134.54779,114.82708 91.759039,158.27776"
     id="path5065"
     inkscape:connector-curvature="0"
     style="fill:none;stroke:#000000;stroke-width:0.49509037" />
  <path
     d="m 91.759039,158.27776 -19.218506,40.4862"
     id="path5067"
     inkscape:connector-curvature="0"
     style="fill:none;stroke:#000000;stroke-width:0.49509037" />
  <path
     d="M 72.540533,198.76396 57.67377,240.80987"
     id="path5069"
     inkscape:connector-curvature="0"
     style="fill:none;stroke:#000000;stroke-width:0.49509037" />
  <path
     d="m 57.67377,240.80987 -9.958404,43.4604"
     id="path5071"
     inkscape:connector-curvature="0"
     style="fill:none;stroke:#000000;stroke-width:0.49509037" />
  <path
     d="m 47.715366,284.27027 0,40.47649"
     id="path5073"
     inkscape:connector-curvature="0"
     style="fill:none;stroke:#000000;stroke-width:0.49509037" />
  <path
     d="m 139.14243,55.749634 22.52783,0 m 0,0 -22.52783,0"
     id="path5075"
     inkscape:connector-curvature="0"
     style="fill:none;stroke:#000000;stroke-width:0.49509037" />
  <path
     d="m 161.67026,55.749634 0,5.473716"
     id="path5077"
     inkscape:connector-curvature="0"
     style="fill:none;stroke:#000000;stroke-width:0.49509037" />
  <path
     d="m 139.14243,49.52025 -17.40697,11.7031"
     id="path5079"
     inkscape:connector-curvature="0"
     style="fill:none;stroke:#000000;stroke-width:0.49509037" />
  <path
     d="m 139.14243,55.749634 0,-6.229384"
     id="path5081"
     inkscape:connector-curvature="0"
     style="fill:none;stroke:#000000;stroke-width:0.49509037" />
  <path
     d="m 139.14243,66.706756 22.52783,0 m 0,0 -22.52783,0"
     id="path5083"
     inkscape:connector-curvature="0"
     style="fill:none;stroke:#000000;stroke-width:0.49509037" />
  <path
     d="m 161.67026,66.706756 0,-5.483406"
     id="path5085"
     inkscape:connector-curvature="0"
     style="fill:none;stroke:#000000;stroke-width:0.49509037" />
  <path
     d="M 139.14243,72.936149 121.73546,61.22335"
     id="path5087"
     inkscape:connector-curvature="0"
     style="fill:none;stroke:#000000;stroke-width:0.49509037" />
  <path
     d="m 139.14243,66.706756 0,6.229393"
     id="path5089"
     inkscape:connector-curvature="0"
     style="fill:none;stroke:#000000;stroke-width:0.49509037" />
  <path
     d="m 51.733137,51.448164 9.563711,0 1.082874,-1.327259 2.307435,1.918226 -1.23468,0.736286 -0.61734,4.795566 -2.307435,8.196051 -1.700215,3.390798 1.700215,3.022661 3.30935,3.54581 1.61925,0.513462 0,0.590972 -1.072755,0.22282 -1.315643,0.736289 -0.232767,0.52315 -1.386486,-1.404757 -2.540204,-3.836452 -1.153716,-2.441376 -2.317556,3.100149 -5.475094,4.427417 -3.157542,1.336969 -0.313731,-0.445654 3.167664,-1.918233 5.090522,-5.018397 1.922862,-3.100147 -1.082873,-3.54581 -1.305525,-8.331677 -0.232766,-4.805257 -1.082878,0.445646 -1.234677,-1.327253 z m 3.086701,0.881607 0.465531,4.727749 1.467449,7.382247 1.001913,2.654528 1.305524,-2.809537 1.85202,-7.372566 0.536376,-4.582421 -6.628813,0 z"
     id="path5091"
     inkscape:connector-curvature="0"
     style="fill:#000000;fill-rule:evenodd" />
  <path
     d="m 47.421878,47.611714 -1.234687,1.036613 1.922869,0.804101 2.550323,1.404767 0.61734,0.590969 0.617338,0.590967 0.303609,1.404762 -0.303609,0.804104 -0.313731,0.813788 -0.809626,-0.106565 -0.495893,-0.920362 -0.506021,-0.930045 -2.196107,-2.392939 -1.690101,-1.482269 -1.001913,2.141056 -2.317555,4.059276 -1.305522,1.918209 6.466896,0 1.700216,-1.763207 2.621162,2.654512 -5.090522,0 0,5.163699 2.621163,0 2.003823,-1.772905 2.469362,2.654513 -7.094348,0 0,10.191786 0,1.249759 -1.467449,1.7729 -1.457334,0.513463 -0.151805,-1.026932 -2.084786,-1.482252 -1.932985,-0.445647 0,-0.581291 1.315646,0.06777 1.922867,0.145312 0.617334,0.07754 0.617341,0.07752 0.617345,-0.523164 0,-0.590964 0,-9.4458 -2.003831,0 -1.001912,0 -1.852021,0.222816 -0.850109,0.222844 -1.386486,-1.327277 7.094359,0 0,-5.163697 -1.690102,0 -1.234679,0.290633 -0.931072,-0.881598 -0.769143,1.026927 -1.619252,1.772907 -0.850111,0.736287 -0.455411,-0.290635 1.386485,-1.840732 2.388398,-4.17552 1.001912,-2.325116 1.001911,-2.325123 1.082874,-3.28424 0.07082,-0.959112 3.086699,1.627589 z"
     id="path5093"
     inkscape:connector-curvature="0"
     style="fill:#000000;fill-rule:evenodd" />
  <path
     d="m 29.377326,68.712193 1.46745,0.154989 1.811541,-0.445633 0.344088,-0.590965 0.354215,-0.590971 2.661642,-7.973227 2.307435,-7.372577 0.61734,0.145322 -1.922862,7.450069 -2.044302,8.670781 -0.121448,1.220679 -0.11132,1.220684 -0.08096,3.022659 0.04046,1.811656 0.04053,1.80197 -0.728668,1.327254 -0.779267,-0.474714 -0.769143,-0.484403 -0.617342,-1.181936 0.151806,-0.697527 0.161925,-0.697529 0.263131,-1.550088 0.121441,-0.852561 0.111327,-0.842838 -0.344094,-1.181943 -0.465536,-0.339085 -0.455413,-0.32939 -1.234682,-0.4747 -0.779265,-0.155005 0,-0.590971 z"
     id="path5095"
     inkscape:connector-curvature="0"
     style="fill:#000000;fill-rule:evenodd" />
  <path
     d="m 42.331347,68.712193 -1.153716,2.073215 -2.934898,3.758957 -1.771056,1.6954 -0.455415,-0.290643 1.841897,-2.80952 2.3884,-4.940872 0.546498,-2.14106 3.086699,1.91824 -1.548409,0.736283 z"
     id="path5097"
     inkscape:connector-curvature="0"
     style="fill:#000000;fill-rule:evenodd" />
  <path
     d="m 48.191021,67.094295 0.313726,-0.445654 1.00192,0.445654 1.730572,0.920355 0.728664,0.484395 0.738782,0.474721 0.769146,0.920348 0.04047,0.445655 0.03036,0.445639 -0.34409,1.026933 -0.384573,0.590971 -0.38457,0.590958 -0.769147,-0.406885 -0.384574,-0.997865 -0.384573,-0.988176 -1.548412,-2.257303 -1.153718,-1.249746 0,0 z"
     id="path5099"
     inkscape:connector-curvature="0"
     style="fill:#000000;fill-rule:evenodd" />
  <path
     d="m 32.777757,46.575094 1.53829,0.73629 2.084789,1.298193 0.536375,0.552217 0.536376,0.552218 0,1.327254 -0.536376,0.77504 -0.536375,0.775043 -0.890587,-0.261578 -0.344095,-1.02693 -0.354207,-1.036614 -1.346008,-2.208867 -1.001911,-1.181934 0.313729,-0.300332 z"
     id="path5101"
     inkscape:connector-curvature="0"
     style="fill:#000000;fill-rule:evenodd" />
  <path
     d="m 29.691058,54.993966 2.003824,0.959116 2.236593,1.55009 0.232767,0.590958 0.232767,0.581282 -0.232767,1.181932 -0.465536,0.590975 -0.465535,0.590966 -0.809623,-0.435957 -0.344094,-1.036627 -0.344087,-1.036617 -1.356127,-2.14104 -1.001914,-1.104436 0.313732,-0.290642 z"
     id="path5103"
     inkscape:connector-curvature="0"
     style="fill:#000000;fill-rule:evenodd" />
  <path
     d="m 98.144966,79.339927 -0.08096,-1.026931 -2.236593,-1.482259 -2.155629,-0.435968 0,-0.590971 1.467445,0.06777 2.196114,0.116251 0.728663,0.03873 0.738785,0.02903 0.6477,-0.69755 -0.07082,-0.736274 0,-5.163707 -7.246154,0 0,8.55449 -2.003828,0.891309 0,-9.445799 -6.325203,0 0,9.000137 -2.155632,1.036641 0.08096,-1.550082 0.07083,-5.977519 0,-4.42741 0,-4.427419 -0.07083,-5.83218 -0.08096,-1.404754 2.155632,1.181939 6.325203,0 0,-4.136782 -6.011474,0 -1.001912,0 -1.852022,0.22283 -0.850107,0.222822 -1.386486,-1.327259 11.102001,0 0,-2.586701 -0.08096,-3.390796 -0.07083,-0.813797 3.542114,1.472577 -1.386484,1.036614 0,4.282103 7.71169,0 2.00383,-1.918225 2.45924,2.799832 -12.17476,0 0,4.136782 6.932426,0 1.082884,-1.47258 2.46936,1.918231 -1.23469,0.881592 0,16.973385 0.081,1.404764 -1.619251,1.986043 -1.700216,0.590978 0,0 z m -6.011473,-16.082092 0,5.309047 7.246154,0 0,-5.309047 -7.246154,0 z m -8.329032,0 0,5.309047 6.325204,0 0,-5.309047 -6.325204,0 z m 8.329032,-5.318709 0,4.42742 7.246154,0 0,-4.42742 -7.246154,0 z m -8.329032,0 0,4.42742 6.325204,0 0,-4.42742 -6.325204,0 z"
     id="path5105"
     inkscape:connector-curvature="0"
     style="fill:#000000;fill-rule:evenodd" />
  <path
     d="m 80.262345,54.102677 -2.388399,6.936608 -2.580685,7.78915 -0.202404,0.842866 -0.192285,0.852533 -0.222649,2.179801 -0.04047,1.327261 -0.04048,1.327247 0,1.879486 0.04048,0.552217 0.04047,0.55221 -0.89059,0.184073 -0.92095,-0.368152 -0.93107,-0.368131 -0.465535,-1.840724 0.465535,-1.472578 0.465536,-1.482274 0,-1.879464 -0.465536,-0.4069 -0.465535,-0.406885 -1.619255,-0.697548 -1.153716,-0.300309 0,-0.590971 1.386484,0.154989 1.740699,0.106584 0.344091,-0.03873 0.344091,-0.03873 0.769146,-0.658801 0.425053,-0.629706 0.425054,-0.629727 2.975375,-6.820356 2.540204,-6.200318 0.617341,0.145321 z"
     id="path5107"
     inkscape:connector-curvature="0"
     style="fill:#000000;fill-rule:evenodd" />
  <path
     d="m 69.312147,55.284608 2.621166,1.181938 2.661646,1.918218 0.04046,0.736301 0.04048,0.736279 -0.394693,1.220686 -0.414934,0.484417 -0.425054,0.474698 -0.809625,-0.552214 -0.384574,-1.036612 -0.38457,-1.02693 -1.619253,-2.363869 -1.234682,-1.327261 0.303611,-0.445651 z"
     id="path5109"
     inkscape:connector-curvature="0"
     style="fill:#000000;fill-rule:evenodd" />
  <path
     d="m 72.398849,47.020746 2.155631,1.036614 2.428878,1.579143 0.27325,0.552215 0.263127,0.561905 -0.222647,1.249756 -0.506016,0.697536 -0.495895,0.707223 -0.850109,-0.261578 -0.354211,-0.959108 -0.344091,-0.959111 -1.497811,-2.36388 -1.163837,-1.395067 0.313731,-0.445648 z"
     id="path5111"
     inkscape:connector-curvature="0"
     style="fill:#000000;fill-rule:evenodd" />
  <path
     d="m 95.058267,46.284458 2.236593,0.513457 2.550322,0.997872 0.303618,0.474706 0.31371,0.484405 0,1.104434 -0.31371,0.629718 -0.303618,0.62972 -0.61734,0.145319 L 98.914113,50.779686 98.610502,50.30498 97.9122,49.423368 97.527629,49.016472 97.143055,48.609577 95.75657,47.466394 94.754656,46.720413 95.058267,46.284458 z"
     id="path5113"
     inkscape:connector-curvature="0"
     style="fill:#000000;fill-rule:evenodd" />
  <path
     d="m 667.92457,67.234394 -22.51772,0 m 0,0 22.51772,0"
     id="path5115"
     inkscape:connector-curvature="0"
     style="fill:none;stroke:#000000;stroke-width:0.49509037" />
  <path
     d="m 645.40685,67.234394 0,-5.483403"
     id="path5117"
     inkscape:connector-curvature="0"
     style="fill:none;stroke:#000000;stroke-width:0.49509037" />
  <path
     d="m 667.92457,73.463781 17.40697,-11.71279"
     id="path5119"
     inkscape:connector-curvature="0"
     style="fill:none;stroke:#000000;stroke-width:0.49509037" />
  <path
     d="m 667.92457,67.234394 0,6.229387"
     id="path5121"
     inkscape:connector-curvature="0"
     style="fill:none;stroke:#000000;stroke-width:0.49509037" />
  <path
     d="m 667.92457,56.277262 -22.51772,0 m 0,0 22.51772,0"
     id="path5123"
     inkscape:connector-curvature="0"
     style="fill:none;stroke:#000000;stroke-width:0.49509037" />
  <path
     d="m 645.40685,56.277262 0,5.473729"
     id="path5125"
     inkscape:connector-curvature="0"
     style="fill:none;stroke:#000000;stroke-width:0.49509037" />
  <path
     d="m 667.92457,50.047875 17.40697,11.703116"
     id="path5127"
     inkscape:connector-curvature="0"
     style="fill:none;stroke:#000000;stroke-width:0.49509037" />
  <path
     d="m 667.92457,56.277262 0,-6.229387"
     id="path5129"
     inkscape:connector-curvature="0"
     style="fill:none;stroke:#000000;stroke-width:0.49509037" />
  <path
     d="m 744.90992,59.784323 0,13.572895 0,1.181929 0.081,2.732011 0.081,1.550095 -2.31754,1.026918 0.0809,-3.904261 0.0708,-10.03677 0,-6.122817 -4.92861,0 0.15182,4.79556 -1.27516,6.859101 -1.42699,2.063558 -1.42697,2.073217 -3.34981,3.167985 -1.92286,1.104427 -0.31374,-0.435945 1.54841,-1.259454 2.38841,-2.615769 0.85009,-1.365986 0.84,-1.366025 1.12334,-3.022652 0.26313,-1.666345 0.27326,-1.656631 0.27326,-4.165852 0,-2.509189 0,-2.509197 -0.0811,-5.686853 -0.081,-3.167979 2.16575,1.327257 3.2385,-0.736289 4.24042,-1.62759 1.00191,-0.881602 2.62117,2.654514 -1.08287,0 -2.08476,0.145321 -1.00195,0.145312 -1.00191,0.145323 -3.46113,0.523154 -2.46938,0.368145 0,8.409195 7.54977,0 2.00381,-1.91824 2.9349,2.809529 -5.55606,0 z"
     id="path5131"
     inkscape:connector-curvature="0"
     style="fill:#000000;fill-rule:evenodd" />
  <path
     d="m 719.3156,75.721097 1.3966,0.222813 1.88237,0.222842 0.50603,0 0.49591,0 0.50602,-0.590993 0,-0.590958 0,-9.300481 -5.55607,0 -1.38649,0.290635 -1.23468,-1.172251 8.17724,0 0,-5.173391 -4.47319,0 -1.00192,0 -1.85201,0.222821 -0.85012,0.222823 -1.38649,-1.327268 11.25382,0 0.8501,-2.06353 1.15371,-3.5458 0.31373,-1.472584 -7.24614,0 -1.00192,0 -1.85202,0.222823 -0.85011,0.213132 -1.38647,-1.327257 8.48083,0 -0.081,-1.026922 -1.07275,-2.44138 -1.00191,-1.395069 0.30362,-0.300333 1.38646,0.736289 1.77106,1.298196 0.38457,0.552217 0.39469,0.552217 -0.31373,1.288497 -0.68816,0.736288 3.84573,0 1.85201,-1.763211 2.77298,2.654513 -5.39415,0 2.62117,1.617897 -0.53638,0.222822 -1.04241,0.920361 -0.49588,0.707224 -0.50602,0.697538 -1.19419,1.811636 -0.6983,1.104436 4.01777,0 1.84189,-1.772895 2.78309,2.654519 -9.09818,0 0,5.173391 3.54209,0 1.85206,-1.772905 2.77295,2.654521 -8.1671,0 0,10.327407 0,1.114134 -1.46743,1.617883 -1.46746,0.523156 0,-0.891301 -1.92287,-1.472585 -1.93298,-0.590951 0,-0.590966 z"
     id="path5133"
     inkscape:connector-curvature="0"
     style="fill:#000000;fill-rule:evenodd" />
  <path
     d="m 719.62934,67.457215 2.92478,1.7729 -1.23468,0.590973 -1.6901,2.577027 -3.23852,3.836431 -1.53828,1.25946 -0.46554,-0.300344 1.61925,-1.918225 2.62117,-4.87305 1.00192,-2.945172 0,0 z"
     id="path5135"
     inkscape:connector-curvature="0"
     style="fill:#000000;fill-rule:evenodd" />
  <path
     d="m 727.79643,67.902876 1.46747,0.80409 2.0443,1.366015 0.57685,0.552219 0.57686,0.552216 0.12144,1.36601 -0.46553,0.813792 -0.46555,0.813799 -0.80962,-0.184094 -0.34409,-0.997851 -0.34408,-0.997871 -1.50794,-2.325118 -1.15372,-1.327262 0.30361,-0.435945 z"
     id="path5137"
     inkscape:connector-curvature="0"
     style="fill:#000000;fill-rule:evenodd" />
  <path
     d="m 719.3156,52.256744 1.08288,0.658785 1.65975,1.259439 0.57682,0.59096 0.57689,0.590973 0.0406,1.366012 -0.5364,0.76535 -0.5465,0.77505 -0.76912,-0.145329 -0.23277,-0.92036 -0.23279,-0.920362 -1.15371,-2.325123 -0.92093,-1.404753 0.4554,-0.290642 z"
     id="path5139"
     inkscape:connector-curvature="0"
     style="fill:#000000;fill-rule:evenodd" />
  <path
     d="m 773.43913,63.620764 0,-10.627726 0,-1.627596 -0.081,-3.758938 -0.081,-2.141057 3.55223,1.6179 -1.23469,1.181936 0,13.727898 1.08291,-0.959117 2.34789,-2.431687 1.27516,-1.482256 1.26505,-1.472579 1.81156,-2.36387 0.54646,-0.881606 2.77299,2.50919 -1.70024,0.445645 -2.23659,2.431695 -4.69583,4.504916 -2.46936,2.063548 0,9.300473 0,1.249759 1.30553,1.25946 1.31563,0 6.62882,0 0.61737,0 0.76911,-0.959124 0.15181,-0.95913 0.16194,-0.95911 0.15181,-2.954832 0,-1.995735 0.76914,0 0.1518,1.995735 0.38457,2.654516 0.23278,0.668461 0.23275,0.658793 0.8501,0.891302 0.61736,0.213133 -0.69831,1.336956 -2.23658,1.327239 -1.53828,0 -8.16714,0 -1.93297,0 -1.92286,-1.705078 0,-1.6954 0,-9.000158 -2.00381,1.472566 -4.62501,2.509197 -2.62116,1.036612 -0.16192,-0.590958 2.70213,-1.472565 4.70596,-3.245501 2.00381,-1.772907 0,0 z"
     id="path5141"
     inkscape:connector-curvature="0"
     style="fill:#000000;fill-rule:evenodd" />
  <path
     d="m 760.6369,79.70286 0.081,-2.354187 0.0708,-4.504925 0,-2.141053 0,-12.991601 -1.69009,2.441371 -3.2385,3.981765 -1.5383,1.55009 -0.46554,-0.445652 1.6901,-2.28637 3.16766,-5.309045 1.46746,-3.032322 1.45733,-3.022658 1.85201,-4.572737 0.38458,-1.550089 3.3903,1.918225 -1.53829,0.881611 -1.00191,2.141048 -1.85202,3.691135 -0.8501,1.550076 2.16576,1.181931 -1.2347,1.181938 0,16.082103 0,0.813778 0.0708,2.218569 0.081,1.395063 -2.46938,1.181936 z"
     id="path5143"
     inkscape:connector-curvature="0"
     style="fill:#000000;fill-rule:evenodd" />
  <path
     d="m 38.536228,386.3237 2.965253,-2.36388 m 0,0 -3.056335,-2.24761 m 3.056335,2.24761 3.319466,-0.058 m -0.07083,-3.45863 -6.325205,0.11627 m -0.08095,-4.03991 4.291016,3.96239 m -1.528168,-1.41445 3.562358,-2.6642 m -5.535826,-5.37684 -0.597099,0.30034 m 0,0 -0.283365,0.87191 m 0,0 0.01013,0.58128 m 0,0 0.323854,0.85255 m 0,0 0.910828,0.5619 m 0,0 1.518046,0.26157 m 0,0 1.497812,-0.0292 m 0,0 1.204315,-0.31001 m 0,0 0.586983,-0.59095 m 0,0 0.283368,-0.87193 m 0,0 0,-0.28096 m 0,0 -0.323855,-0.86221 m 0,0 -0.617338,-0.56192 m 0,0 -0.900708,-0.27128 m 0,0 -0.303607,0 m 0,0 -0.900717,0.31002 m 0,0 -0.586974,0.5813 m 0,0 -0.283368,0.87192 m 0,0 0,0.29064 m 0,0 0.323846,0.86224 m 0,0 0.607226,0.56189 m 0,0 0.910829,0.27125 m -2.297322,-9.47486 0.910835,0.27126 m 0,0 0.607217,0.56191 m 0,0 0.323855,0.86224 m 0,0 0.01012,0.29063 m 0,0 -0.293488,0.87191 m 0,0 -0.586983,0.5813 m 0,0 -0.900707,0.31 m 0,0 -0.293488,0 m 0,0 -0.910829,-0.27125 m 0,0 -0.61734,-0.5619 m 0,0 -0.313731,-0.86223 m 0,0 -0.01012,-0.28097 m 0,0 0.283373,-0.87191 m 0,0 0.586977,-0.59098 m 0,0 1.204322,-0.31001 m 0,0 1.507927,-0.0292 m 0,0 1.507934,0.26157 m 0,0 0.920947,0.56191 m 0,0 0.313731,0.85254 m 0,0 0.01013,0.58129 m 0,0 -0.283374,0.87191 m 0,0 -0.597098,0.30032 m -4.67559,-7.99257 5.414379,-0.0969 m -2.651528,2.64484 -0.111329,-5.19278 m -3.683796,-3.68144 0.313728,0.86225 m 0,0 0.607218,0.28095 m 0,0 0.607221,-0.0194 m 0,0 0.597104,-0.29065 m 0,0 0.283366,-0.59097 m 0,0 0.283367,-1.15287 m 0,0 0.283376,-0.87191 m 0,0 0.586976,-0.59097 m 0,0 0.597097,-0.30035 m 0,0 0.900715,-0.009 m 0,0 0.607219,0.27125 m 0,0 0.31373,0.28095 m 0,0 0.313731,0.86224 m 0,0 0.03039,1.15285 m 0,0 -0.283368,0.87194 m 0,0 -0.303608,0.29065 m 0,0 -0.597107,0.30032 m 0,0 -0.900708,0.0194 m 0,0 -0.607216,-0.28094 m 0,0 -0.61734,-0.56191 m 0,0 -0.313733,-0.86224 m 0,0 -0.32385,-1.14319 m 0,0 -0.313731,-0.57157 m 0,0 -0.607219,-0.28096 m 0,0 -0.607219,0.0194 m 0,0 -0.597104,0.29063 m 0,0 -0.283369,0.87192 m 0,0 0.03041,1.15287 m 0.738787,-7.79884 -0.597098,0.3003 m 0,0 -0.283374,0.87195 m 0,0 0.02025,0.57158 m 0,0 0.313723,0.86223 m 0,0 0.910835,0.56191 m 0,0 1.518049,0.26158 m 0,0 1.507932,-0.0291 m 0,0 1.194196,-0.31002 m 0,0 0.586981,-0.59097 m 0,0 0.283368,-0.87191 m 0,0 0,-0.28094 m 0,0 -0.32385,-0.86224 m 0,0 -0.60722,-0.56191 m 0,0 -0.910829,-0.27126 m 0,0 -0.303612,0 m 0,0 -0.900711,0.31 m 0,0 -0.586977,0.5813 m 0,0 -0.283373,0.8719 m 0,0 0.01012,0.29065 m 0,0 0.313731,0.86223 m 0,0 0.617342,0.5619 m 0,0 0.910828,0.27127 m -4.351744,-6.26814 -0.06071,-3.16798 m 0,0 2.439004,1.68573 m 0,0 -0.01012,-0.86224 m 0,0 0.283368,-0.58129 m 0,0 0.293488,-0.30032 m 0,0 0.900713,-0.30032 m 0,0 0.607218,-0.009 m 0,0 0.910829,0.27125 m 0,0 0.607218,0.5619 m 0,0 0.323854,0.86223 m 0,0 0.01013,0.86224 m 0,0 -0.283366,0.87193 m 0,0 -0.293494,0.29062 m 0,0 -0.597099,0.30035"
     id="path5145"
     inkscape:connector-curvature="0"
     style="fill:none;stroke:#000000;stroke-width:0.49509037" />
  <path
     d="m 47.715366,324.74676 0.35421,71.03243"
     id="path5147"
     inkscape:connector-curvature="0"
     style="fill:none;stroke:#000000;stroke-width:0.49509037" />
  <path
     d="m 399.71055,324.74676 -0.0201,57.30453"
     id="path5149"
     inkscape:connector-curvature="0"
     style="fill:none;stroke:#000000;stroke-width:0.49509037" />
  <path
     d="m 220.22651,324.74676 -0.21255,60.59844"
     id="path5151"
     inkscape:connector-curvature="0"
     style="fill:none;stroke:#000000;stroke-width:0.49509037" />
  <path
     d="m 581.86635,324.74676 0.44531,53.74905"
     id="path5153"
     inkscape:connector-curvature="0"
     style="fill:none;stroke:#000000;stroke-width:0.49509037" />
  <path
     d="m 751.69561,324.74676 -0.52625,65.72341"
     id="path5155"
     inkscape:connector-curvature="0"
     style="fill:none;stroke:#000000;stroke-width:0.49509037" />
  <path
     d="m 741.26153,385.28707 2.95516,-2.36386 m 0,0 -3.05633,-2.2476 m 3.05633,2.2476 3.31945,-0.058 m -0.0707,-3.45862 -6.3252,0.11625 m -0.0811,-4.0399 4.30112,3.96241 m -1.53828,-1.41446 3.56237,-2.6642 m -5.53585,-5.37682 -0.59709,0.30032 m 0,0 -0.28335,0.87191 m 0,0 0.0101,0.58128 m 0,0 0.32385,0.85253 m 0,0 0.91085,0.5619 m 0,0 1.51805,0.26158 m 0,0 1.49778,-0.029 m 0,0 1.20433,-0.31002 m 0,0 0.58698,-0.59097 m 0,0 0.28338,-0.87192 m 0,0 0,-0.28095 m 0,0 -0.32386,-0.86224 m 0,0 -0.61736,-0.5619 m 0,0 -0.90069,-0.27126 m 0,0 -0.30362,0 m 0,0 -0.90071,0.31001 m 0,0 -0.58698,0.58127 m 0,0 -0.28335,0.87193 m 0,0 0,0.29065 m 0,0 0.32385,0.86222 m 0,0 0.61733,0.56191 m 0,0 0.9007,0.27127 m -2.29731,-9.47488 0.91084,0.27128 m 0,0 0.61736,0.5716 m 0,0 0.31372,0.85251 m 0,0 0.0101,0.29066 m 0,0 -0.28338,0.87191 m 0,0 -0.5971,0.58127 m 0,0 -0.89062,0.31004 m 0,0 -0.30359,0.009 m 0,0 -0.91084,-0.27126 m 0,0 -0.61733,-0.5716 m 0,0 -0.31374,-0.86222 m 0,0 -0.0101,-0.28097 m 0,0 0.28338,-0.87192 m 0,0 0.59709,-0.59096 m 0,0 1.1942,-0.31002 m 0,0 1.50794,-0.029 m 0,0 1.50793,0.26158 m 0,0 0.92095,0.5619 m 0,0 0.31373,0.86223 m 0,0 0.0101,0.57159 m 0,0 -0.28337,0.87192 m 0,0 -0.59709,0.30034 m -4.67561,-7.99262 5.41438,-0.0968 m -2.6515,2.64482 -0.11134,-5.19275 m -3.65345,-2.23794 -0.081,-4.03022 m 0,0 6.37581,2.76109 m -4.91848,-4.81495 -0.29349,0.009 m 0,0 -0.61732,-0.28095 m 0,0 -0.30362,-0.28096 m 0,0 -0.31373,-0.57159 m 0,0 -0.0201,-1.15287 m 0,0 0.29351,-0.58129 m 0,0 0.29349,-0.29063 m 0,0 0.59709,-0.30033 m 0,0 0.59709,-0.009 m 0,0 0.60724,0.27129 m 0,0 0.92094,0.56188 m 0,0 3.06647,2.82891 m 0,0 -0.0811,-4.0399 m -5.15123,-1.62759 -0.31374,-0.57159 m 0,0 -0.92093,-0.85256 m 0,0 6.3252,-0.11624 m -0.67806,-3.44893 0.30361,0.28095 m 0,0 0.30358,-0.29063 m 0,0 -0.3137,-0.28096 m -6.08232,-2.77077 -0.0606,-3.17766 m 0,0 2.44914,1.68571 m 0,0 -0.0202,-0.86223 m 0,0 0.28336,-0.58128 m 0,0 0.30359,-0.29065 m 0,0 0.89061,-0.31 m 0,0 0.60721,-0.009 m 0,0 0.91083,0.27124 m 0,0 0.60722,0.56193 m 0,0 0.32385,0.86223 m 0,0 0.0201,0.86223 m 0,0 -0.29348,0.87192 m 0,0 -0.29351,0.30031 m 0,0 -0.59709,0.29065"
     id="path5157"
     inkscape:connector-curvature="0"
     style="fill:none;stroke:#000000;stroke-width:0.49509037" />
  <path
     d="m 389.39792,378.86391 2.96527,-2.36385 m 0,0 -3.05635,-2.24762 m 3.05635,2.24762 3.30934,-0.0581 m -0.0708,-3.4586 -6.31507,0.11625 m -0.0911,-4.0399 4.3011,3.96242 m -1.53828,-1.41447 3.56236,-2.6642 m -5.5257,-5.37684 -0.5971,0.30032 m 0,0 -0.28337,0.87193 m 0,0 0.0101,0.5716 m 0,0 0.31372,0.86221 m 0,0 0.92094,0.56192 m 0,0 1.50795,0.26158 m 0,0 1.50791,-0.029 m 0,0 1.1942,-0.31001 m 0,0 0.59711,-0.59096 m 0,0 0.28337,-0.87194 m 0,0 -0.0101,-0.28095 m 0,0 -0.31371,-0.86225 m 0,0 -0.61736,-0.56189 m 0,0 -0.91083,-0.27127 m 0,0 -0.30359,0 m 0,0 -0.89061,0.31002 m 0,0 -0.59709,0.58127 m 0,0 -0.28337,0.87194 m 0,0 0.0101,0.29065 m 0,0 0.31372,0.86221 m 0,0 0.61735,0.5619 m 0,0 0.91081,0.27128 m -2.29731,-9.47486 0.90071,0.27125 m 0,0 0.61734,0.56191 m 0,0 0.32387,0.86221 m 0,0 0,0.29067 m 0,0 -0.28337,0.87191 m 0,0 -0.58699,0.58129 m 0,0 -0.9007,0.31 m 0,0 -0.30361,0 m 0,0 -0.90072,-0.27125 m 0,0 -0.61734,-0.56192 m 0,0 -0.32386,-0.86224 m 0,0 0,-0.28092 m 0,0 0.28338,-0.87193 m 0,0 0.58697,-0.59097 m 0,0 1.20432,-0.31001 m 0,0 1.49782,-0.029 m 0,0 1.51806,0.26159 m 0,0 0.91083,0.56191 m 0,0 0.32385,0.85253 m 0,0 0.0101,0.58128 m 0,0 -0.28335,0.87192 m 0,0 -0.59712,0.30034 m -4.68569,-7.9926 5.42448,-0.0969 m -2.66164,2.64484 -0.1012,-5.19277 m -3.66354,-2.23795 -0.081,-4.03019 m 0,0 6.38595,2.76108 m -4.39224,-8.28324 0.91085,0.27126 m 0,0 0.61732,0.56191 m 0,0 0.31373,0.86223 m 0,0 0.0101,0.29064 m 0,0 -0.28337,0.87192 m 0,0 -0.58698,0.58129 m 0,0 -0.90069,0.30998 m 0,0 -0.30361,0.009 m 0,0 -0.91084,-0.28094 m 0,0 -0.60722,-0.56191 m 0,0 -0.32385,-0.86223 m 0,0 0,-0.28095 m 0,0 0.28337,-0.87192 m 0,0 0.58697,-0.59097 m 0,0 1.19421,-0.31001 m 0,0 1.50791,-0.0291 m 0,0 1.51805,0.26159 m 0,0 0.91083,0.56191 m 0,0 0.32387,0.86223 m 0,0 0.0101,0.57159 m 0,0 -0.28337,0.87192 m 0,0 -0.59712,0.30034 m -5.60667,-8.83548 0.0606,2.87735 m 0,0 2.71226,0.2422 m 0,0 -0.30361,-0.28096 m 0,0 -0.31376,-0.86222 m 0,0 -0.0201,-0.86222 m 0,0 0.28337,-0.87195 m 0,0 0.58697,-0.59095 m 0,0 0.90072,-0.30034 m 0,0 0.59709,-0.009 m 0,0 0.91083,0.27127 m 0,0 0.61734,0.56192 m 0,0 0.31375,0.86221 m 0,0 0.0201,0.86223 m 0,0 -0.28338,0.87194 m 0,0 -0.29348,0.29063 m 0,0 -0.59712,0.30035"
     id="path5159"
     inkscape:connector-curvature="0"
     style="fill:none;stroke:#000000;stroke-width:0.49509037" />
  <path
     d="m 573.09202,376.02534 2.96526,-2.36386 m 0,0 -3.05633,-2.24762 m 3.05633,2.24762 3.31945,-0.0581 m -0.0707,-3.45861 -6.32521,0.11626 m -0.0811,-4.0302 4.29103,3.9527 m -1.52817,-1.41445 3.56237,-2.66419 m -5.53583,-5.37686 -0.59712,0.30033 m 0,0 -0.28337,0.87192 m 0,0 0.0101,0.58128 m 0,0 0.32386,0.85256 m 0,0 0.91081,0.56189 m 0,0 1.50796,0.26159 m 0,0 1.50791,-0.0292 m 0,0 1.20432,-0.31001 m 0,0 0.58697,-0.59097 m 0,0 0.28338,-0.86223 m 0,0 0,-0.29063 m 0,0 -0.32386,-0.86225 m 0,0 -0.61733,-0.56189 m 0,0 -0.90072,-0.27126 m 0,0 -0.30361,0 m 0,0 -0.90071,0.31001 m 0,0 -0.58696,0.58129 m 0,0 -0.28338,0.87192 m 0,0 0,0.29061 m 0,0 0.32385,0.86225 m 0,0 0.60721,0.56191 m 0,0 0.91084,0.27125 m -2.29732,-9.47485 0.91084,0.27126 m 0,0 0.60722,0.57158 m 0,0 0.32386,0.85254 m 0,0 0,0.29065 m 0,0 -0.28338,0.87194 m 0,0 -0.58698,0.59095 m 0,0 -0.90071,0.30034 m 0,0 -0.2935,0.009 m 0,0 -0.91082,-0.27126 m 0,0 -0.61734,-0.57158 m 0,0 -0.31373,-0.85255 m 0,0 -0.0101,-0.29064 m 0,0 0.28336,-0.87192 m 0,0 0.58698,-0.59096 m 0,0 1.20431,-0.31002 m 0,0 1.50794,-0.029 m 0,0 1.50792,0.26156 m 0,0 0.91084,0.56191 m 0,0 0.32384,0.86222 m 0,0 0.0101,0.57159 m 0,0 -0.28335,0.87195 m 0,0 -0.59711,0.30031 m -4.67561,-7.99258 5.41439,-0.0969 m -2.65152,2.6448 -0.11132,-5.19273 m -3.65346,-2.23796 -0.0911,-4.03021 m 0,0 6.38592,2.76108 m -5.58643,-7.97323 -0.5971,0.30035 m 0,0 -0.28336,0.87192 m 0,0 0.0101,0.58128 m 0,0 0.32382,0.85255 m 0,0 0.91086,0.56189 m 0,0 1.51804,0.26156 m 0,0 1.50793,-0.029 m 0,0 1.19418,-0.31001 m 0,0 0.587,-0.59098 m 0,0 0.28337,-0.86223 m 0,0 0,-0.29065 m 0,0 -0.32384,-0.86222 m 0,0 -0.60724,-0.56191 m 0,0 -0.91081,-0.27126 m 0,0 -0.30363,0 m 0,0 -0.9007,0.31001 m 0,0 -0.58697,0.58128 m 0,0 -0.28335,0.87192 m 0,0 0.0101,0.29065 m 0,0 0.3137,0.86223 m 0,0 0.61734,0.56192 m 0,0 0.91083,0.27125 m -4.41246,-9.14548 0.0605,2.88704 m 0,0 2.72235,0.2325 m 0,0 -0.31372,-0.28095 m 0,0 -0.31373,-0.86223 m 0,0 -0.0201,-0.86225 m 0,0 0.28337,-0.87189 m 0,0 0.58697,-0.59098 m 0,0 0.9007,-0.30034 m 0,0 0.60724,-0.009 m 0,0 0.91082,0.27125 m 0,0 0.60723,0.56193 m 0,0 0.32386,0.86221 m 0,0 0.0101,0.86224 m 0,0 -0.28339,0.87192 m 0,0 -0.29348,0.29066 m 0,0 -0.59709,0.3003"
     id="path5161"
     inkscape:connector-curvature="0"
     style="fill:none;stroke:#000000;stroke-width:0.49509037" />
  <path
     d="m 207.81897,376.83914 2.96527,-2.36386 m 0,0 -3.05635,-2.24764 m 3.05635,2.24764 3.30934,-0.0581 m -0.0707,-3.45861 -6.32521,0.11626 m -0.0809,-4.03989 4.30113,3.96238 m -1.53828,-1.41446 3.56235,-2.6642 m -5.52569,-5.37682 -0.59709,0.3003 m 0,0 -0.28337,0.87193 m 0,0 0.0101,0.5716 m 0,0 0.31371,0.86223 m 0,0 0.92095,0.5619 m 0,0 1.50796,0.26156 m 0,0 1.50791,-0.029 m 0,0 1.1942,-0.31001 m 0,0 0.5971,-0.59097 m 0,0 0.28336,-0.87194 m 0,0 -0.0101,-0.29061 m 0,0 -0.31373,-0.85257 m 0,0 -0.61733,-0.57158 m 0,0 -0.91083,-0.27127 m 0,0 -0.30363,0.009 m 0,0 -0.89058,0.30034 m 0,0 -0.5971,0.59096 m 0,0 -0.28336,0.87194 m 0,0 0.0101,0.29064 m 0,0 0.31376,0.85254 m 0,0 0.61732,0.57158 m 0,0 0.91083,0.27126 m -2.30742,-9.47486 0.91083,0.27127 m 0,0 0.61732,0.56191 m 0,0 0.31374,0.86223 m 0,0 0.0101,0.29064 m 0,0 -0.28337,0.87192 m 0,0 -0.58698,0.58128 m 0,0 -0.90072,0.31 m 0,0 -0.30359,0 m 0,0 -0.91085,-0.27125 m 0,0 -0.60723,-0.56192 m 0,0 -0.32383,-0.86223 m 0,0 0,-0.29062 m 0,0 0.28335,-0.86225 m 0,0 0.587,-0.59097 m 0,0 1.1942,-0.31001 m 0,0 1.50793,-0.029 m 0,0 1.51805,0.26159 m 0,0 0.91082,0.56192 m 0,0 0.32386,0.85253 m 0,0 0.0101,0.58127 m 0,0 -0.28337,0.87192 m 0,0 -0.59712,0.30033 m -4.68569,-7.9926 5.42449,-0.0969 m -2.66164,2.64484 -0.1012,-5.19277 m -3.69391,-3.68143 0.32384,0.86223 m 0,0 0.60721,0.27125 m 0,0 0.59711,-0.009 m 0,0 0.59711,-0.30032 m 0,0 0.29347,-0.58129 m 0,0 0.27324,-1.15286 m 0,0 0.28338,-0.87193 m 0,0 0.59711,-0.59097 m 0,0 0.5971,-0.30032 m 0,0 0.90069,-0.009 m 0,0 0.60724,0.27127 m 0,0 0.3036,0.28094 m 0,0 0.32385,0.86223 m 0,0 0.0201,1.15288 m 0,0 -0.28335,0.87192 m 0,0 -0.2935,0.29064 m 0,0 -0.59709,0.30033 m 0,0 -0.90071,0.0194 m 0,0 -0.60723,-0.28094 m 0,0 -0.61734,-0.56191 m 0,0 -0.32385,-0.86224 m 0,0 -0.32385,-1.14317 m 0,0 -0.31371,-0.5716 m 0,0 -0.60724,-0.28096 m 0,0 -0.5971,0.009 m 0,0 -0.59709,0.30033 m 0,0 -0.28337,0.8719 m 0,0 0.0201,1.1529 m 1.41686,-4.64056 -0.30363,0.009 m 0,0 -0.60723,-0.28093 m 0,0 -0.3036,-0.28097 m 0,0 -0.31371,-0.57159 m 0,0 -0.0303,-1.15286 m 0,0 0.29351,-0.58128 m 0,0 0.29349,-0.29064 m 0,0 0.59709,-0.30033 m 0,0 0.60722,-0.009 m 0,0 0.60721,0.27124 m 0,0 0.91084,0.56192 m 0,0 3.06645,2.8289 m 0,0 -0.0811,-4.03992 m -6.42639,-5.0668 0.0606,2.87733 m 0,0 2.71223,0.24219 m 0,0 -0.30358,-0.28094 m 0,0 -0.32386,-0.86223 m 0,0 -0.0101,-0.86224 m 0,0 0.28337,-0.87191 m 0,0 0.58694,-0.59096 m 0,0 0.90073,-0.30035 m 0,0 0.59711,-0.0194 m 0,0 0.91084,0.28097 m 0,0 0.61731,0.5619 m 0,0 0.31374,0.86221 m 0,0 0.0201,0.86225 m 0,0 -0.28337,0.87191 m 0,0 -0.29347,0.29064 m 0,0 -0.5971,0.30033"
     id="path5163"
     inkscape:connector-curvature="0"
     style="fill:none;stroke:#000000;stroke-width:0.49509037" />
  <path
     d="m 682.08797,278.2734 0.17206,-0.50378 0.32384,-1.22068 0.1417,-0.71692 0.87033,0.55223 3.11706,0 0,-1.65666 -3.17778,0 -0.23276,0 -0.54649,0.0775 -0.32386,0.0872 -0.51613,-0.49408 8.6124,0 0.57685,-0.56191 0.80963,0.77502 -0.45541,0.28097 0,0.8041 0.0302,1.04631 0.0201,0.25187 -0.80962,0.32941 0,-0.60066 -3.23853,0 0,1.71477 4.23031,0 0.57686,-0.55222 0.80961,0.77505 -0.52622,0.32938 -0.11136,0.68787 -0.17203,0.93003 -0.0606,0.23252 -0.0606,0.23251 -0.15179,0.36814 -0.1012,0.11628 -0.10122,0.12593 -0.25302,0.19377 -0.14166,0.0677 -0.14168,0.0775 -0.40481,0.11625 -0.26314,0.0581 0,-0.35846 -0.74888,-0.66846 -0.75906,-0.30033 0,-0.22282 0.75906,0.19376 0.9108,0.18405 0.15181,-0.0194 0.1619,-0.009 0.23279,-0.16471 0.0708,-0.155 0.0707,-0.155 0.19229,-0.94943 0.11133,-0.80409 -4.28092,0 0,2.71262 0,0.3294 0.0303,0.69754 0.0303,0.35846 -0.87033,0.27126 0.0304,-0.52314 0.0303,-1.26916 0,-0.75564 0,-1.76323 -0.6072,0.77504 -1.44722,1.24007 -0.82987,0.4747 -0.83998,0.46505 -1.85202,0.77503 -1.01206,0.31002 -0.0606,-0.28095 0.77927,-0.27126 1.54841,-0.75567 0.76915,-0.46503 0.76915,-0.47471 1.28526,-1.16256 0.51613,-0.68784 -2.8944,0 -0.40481,0.49408 -0.86024,-0.6588 0.51613,-0.32938 z m 1.33589,-1.55009 -0.12144,0.30033 -0.26312,0.86223 -0.14168,0.55221 3.81534,0 0,-1.71477 -3.2891,0 z m 4.03802,-1.99572 0,1.65666 3.2385,0 0,-1.65666 -3.2385,0 z"
     id="path5165"
     inkscape:connector-curvature="0"
     style="fill:#000000;fill-rule:evenodd" />
  <path
     d="m 684.00073,272.23775 0.45541,0.22284 0.56673,0.43596 0.10119,0.22281 0.10123,0.22284 -0.10123,0.38752 -0.20237,0.1647 -0.20242,0.16469 -0.23277,0 -0.0304,-0.16469 -0.0201,-0.1647 -0.12144,-0.37783 -0.081,-0.20345 -0.0911,-0.20345 -0.2935,-0.45534 -0.2024,-0.2519 -0.68818,0 -0.23276,0.22284 -0.50603,0.465 -0.27324,0.25191 -0.27326,0.25189 -0.67804,0.49409 -0.40484,0.25189 -0.12144,-0.22282 0.40482,-0.35846 0.77925,-0.87192 0.37445,-0.51346 0.38459,-0.51347 0.5465,-1.03662 0.17203,-0.52314 1.15374,0.71691 -0.17205,0.0872 -0.54652,0.52316 -0.37444,0.44565 2.47948,0 0.69832,-0.66848 0.98167,0.99785 -3.34984,0 z"
     id="path5167"
     inkscape:connector-curvature="0"
     style="fill:#000000;fill-rule:evenodd" />
  <path
     d="m 688.62571,270.18393 1.15372,0.72658 -0.2024,0.0484 -0.5465,0.50376 -0.3542,0.44568 2.95513,0 0.68816,-0.6685 0.98168,0.99787 -3.69392,0 0.37445,0.19378 0.51615,0.36813 0.15181,0.18407 0.14169,0.18408 -0.0406,0.3972 -0.19228,0.22282 -0.18217,0.22282 -0.26314,0.0194 -0.0708,-0.19375 -0.0708,-0.19376 -0.13155,-0.35846 -0.0605,-0.16471 -0.0606,-0.16468 -0.253,-0.44565 -0.2024,-0.27127 -0.80965,0 -0.23276,0.2519 -0.40481,0.42626 -0.17206,0.17437 -0.18216,0.1841 -0.57685,0.48441 -0.4048,0.30031 -0.17205,-0.16469 0.54649,-0.58129 0.78937,-1.01723 0.22266,-0.44566 0.23276,-0.44565 0.37446,-0.83314 0.15181,-0.38754 0,0 z"
     id="path5169"
     inkscape:connector-curvature="0"
     style="fill:#000000;fill-rule:evenodd" />
  <path
     d="m 695.10272,275.83202 10.74779,0 1.15374,-0.88161 1.27515,1.21099 -11.10201,0 -0.4554,0 -0.78941,0.0873 -0.31372,0.0872 -0.51614,-0.50377 z"
     id="path5171"
     inkscape:connector-curvature="0"
     style="fill:#000000;fill-rule:evenodd" />
  <path
     d="m 721.1727,272.17964 -0.54651,1.07536 -0.74889,1.50165 -0.20241,0.41658 1.38647,0 0.57687,-0.56191 0.80963,0.77506 -0.52626,0.38749 -0.37445,1.24977 -0.98169,2.13135 -0.60721,0.88162 0.63759,0.69754 1.49779,0.93975 0.87036,0.25189 0,0.16468 -0.4048,-0.029 -0.57687,0.27127 -0.17203,0.31001 -0.66794,-0.38754 -1.1841,-1.02691 -0.51614,-0.63941 -0.90071,0.83317 -2.22647,1.19162 -1.32575,0.35846 -0.12144,-0.1647 1.27514,-0.52314 2.05443,-1.38539 0.77928,-0.86224 -0.57687,-0.85254 -0.83999,-2.16042 -0.26311,-1.2982 -0.11133,1.43385 -0.63759,2.21854 -0.51614,0.77504 -0.52624,0.77504 -1.58891,1.35632 -1.07275,0.58127 -0.11133,-0.1647 1.07278,-0.77503 1.41683,-1.51132 0.3441,-0.7363 0.34409,-0.73629 0.46552,-1.68571 0.11134,-0.94944 0.12145,-0.9591 0.14167,-2.22825 0.0303,-1.26912 0,0 -0.37447,0 -0.69828,0.0776 -0.31374,0.0872 -0.52627,-0.49409 5.49534,0 0.57686,-0.56189 0.93106,0.8913 -0.69829,0.32938 z m -3.64334,-0.3294 -0.0302,0.83316 -0.0507,1.62762 -0.0304,0.80408 0.43517,1.49196 1.01204,2.16042 0.57684,0.65877 0.51614,-0.7169 0.83999,-1.96666 0.31373,-1.24006 -1.61925,0 -0.28336,0.44563 -0.74891,-0.77503 0.22265,-0.0581 0.50602,-0.61033 0.28337,-0.55222 0.27327,-0.5522 0.47563,-1.05601 0.2024,-0.49407 -2.89441,0 z"
     id="path5173"
     inkscape:connector-curvature="0"
     style="fill:#000000;fill-rule:evenodd" />
  <path
     d="m 715.10049,278.05057 -1.85201,0.43596 -2.16576,0.7266 -0.31372,0.27126 -0.69829,-1.04631 0.29348,-0.0581 0.6072,-0.3972 0.31375,-0.34877 0.32383,-0.34877 1.01205,-1.25943 0.6882,-0.91069 -0.37449,0.0581 -0.77923,0.13562 -0.40483,0.0775 -0.4048,0.0872 -0.60724,0.25189 -0.20242,0.16468 -0.63757,-0.99785 0.2935,0 0.77925,-0.84285 0.48577,-0.84286 0.49591,-0.84286 0.63758,-1.4532 0.14168,-0.61033 1.21445,0.65876 -0.51613,0.33909 -0.55664,0.91068 -1.29539,1.80196 -0.75904,0.88161 2.66166,-0.058 0.37446,-0.52314 0.5566,-0.99787 0.17207,-0.46502 1.09299,0.82347 -0.57687,0.22284 -0.80962,1.05598 -1.90265,2.23795 -1.10308,1.19161 3.81535,-0.61035 0,0.28095 z"
     id="path5175"
     inkscape:connector-curvature="0"
     style="fill:#000000;fill-rule:evenodd" />
  <path
     d="m 709.89864,281.15073 0.77926,-0.14531 2.57058,-0.68786 1.80142,-0.55221 0,0.22281 -1.21443,0.49409 -1.63951,0.70724 -0.41492,0.20343 -0.42506,0.21315 -0.58698,0.39721 -0.17206,0.19375 -0.6983,-1.0463 z"
     id="path5177"
     inkscape:connector-curvature="0"
     style="fill:#000000;fill-rule:evenodd" />
  <path
     d="m 731.69784,280.03661 0,0.61035 0.0303,1.22069 0.0304,0.61034 -0.99177,0.38752 0.0302,-0.86223 0.0304,-1.55009 0,-0.68784 0,-3.21641 -4.50355,0 -0.38456,0 -0.68818,0.0872 -0.32387,0.0873 -0.51614,-0.50376 6.4163,0 0,-4.65025 -3.2385,0 -0.37445,0 -0.68819,0.0873 -0.32388,0.0775 -0.5161,-0.49408 9.42202,0 0.80965,-0.77506 1.1537,1.10443 -5.37391,0 0,4.65025 4.22021,0 0.87033,-0.83318 1.21444,1.16257 -6.30498,0 0,3.48768 z"
     id="path5179"
     inkscape:connector-curvature="0"
     style="fill:#000000;fill-rule:evenodd" />
  <path
     d="m 726.90082,272.40247 0.82984,0.58129 1.01205,0.83314 0.18216,0.24221 0.17205,0.25191 0.1012,0.45533 -0.0708,0.21313 -0.0811,0.20343 -0.22265,0.31972 -0.16194,0.10658 -0.16191,0.11624 -0.30363,-0.37784 -0.14167,-0.48439 -0.14168,-0.48441 -0.66795,-1.17223 -0.51615,-0.69756 0.17207,-0.10655 z"
     id="path5181"
     inkscape:connector-curvature="0"
     style="fill:#000000;fill-rule:evenodd" />
  <path
     d="m 734.87562,272.12152 1.21444,0.89128 -0.23278,0 -0.64769,0.4941 -0.42506,0.50377 -0.41491,0.4941 -0.91084,0.93974 -0.48577,0.44562 -0.18217,-0.11626 0.759,-0.96879 1.03229,-1.82132 0.29349,-0.86224 0,0 z"
     id="path5183"
     inkscape:connector-curvature="0"
     style="fill:#000000;fill-rule:evenodd" />
  <path
     d="m 742.10152,282.97207 0.0304,-0.58128 0.0304,-1.42411 0,-0.84288 0,-0.84285 -0.0304,-1.5404 -0.0304,-0.68784 0.93108,0.55223 6.01148,0 0.40482,-0.55223 1.04239,0.61033 -0.52626,0.43597 0,2.82889 0,0.30034 0.0303,0.77504 0.0303,0.47471 -0.87033,0.38752 0,-0.93972 -6.18352,0 0,0.65877 -0.87037,0.38751 z m 0.87037,-5.03776 0,3.65238 6.1835,0 0,-3.65238 -6.1835,0 z"
     id="path5185"
     inkscape:connector-curvature="0"
     style="fill:#000000;fill-rule:evenodd" />
  <path
     d="m 741.75743,275.22166 8.37964,-0.2228 -0.31373,-0.38754 -1.13348,-1.0463 -0.80963,-0.66847 0.18218,-0.16469 1.09298,0.58129 1.55854,0.90097 0.46556,0.31971 0.46553,0.3197 0.28336,0.71691 -0.17206,0.3972 -0.17203,0.4069 -0.33398,0.15502 -0.1518,-0.25189 -0.16192,-0.25188 -0.33396,-0.46504 -0.17206,-0.22284 -1.21444,0.0291 -2.69201,0.16471 -1.46746,0.13562 -1.47756,0.13564 -1.91274,0.41659 -0.43517,0.28094 -0.80962,-1.3854 0.26311,-0.0291 0.63756,-0.31968 0.3745,-0.29065 0.37442,-0.29065 1.01206,-1.01723 0.63757,-0.73628 0.63759,-0.7363 0.83997,-1.17223 0.20241,-0.44567 1.32575,0.93973 -0.31373,0.0581 -0.56674,0.29064 -0.24287,0.2325 -0.25302,0.23252 -1.91274,1.81164 -1.67998,1.57916 0,0 z"
     id="path5187"
     inkscape:connector-curvature="0"
     style="fill:#000000;fill-rule:evenodd" />
  <path
     d="m 660.55192,233.38888 0.17204,-0.49411 0.32387,-1.22068 0.14168,-0.7169 0.87034,0.55221 3.11705,0 0,-1.66634 -3.17777,0 -0.23277,0 -0.54649,0.0872 -0.32385,0.0872 -0.51614,-0.50378 8.6124,0 0.57687,-0.55221 0.8096,0.77505 -0.45541,0.28094 0,0.79442 0.0303,1.05601 0.0202,0.25187 -0.8096,0.3294 0,-0.61034 -3.22839,0 0,1.71478 4.22016,0 0.57687,-0.55221 0.80963,0.77503 -0.52625,0.3294 -0.11133,0.69752 -0.17205,0.92036 -0.0606,0.24221 -0.0606,0.23251 -0.1518,0.35845 -0.10121,0.12594 -0.1012,0.12595 -0.25302,0.19376 -0.14168,0.0677 -0.14168,0.0677 -0.40479,0.12594 -0.26314,0.0581 0,-0.35846 -0.74892,-0.66848 -0.75904,-0.30033 0,-0.2228 0.75904,0.19374 0.91083,0.17439 0.15182,-0.009 0.16193,-0.0194 0.23274,-0.16472 0.0708,-0.14531 0.0707,-0.15501 0.1923,-0.95912 0.11132,-0.80409 -4.27077,0 0,2.71265 0,0.33906 0.0202,0.68784 0.0303,0.35847 -0.86022,0.28095 0.0202,-0.52315 0.0303,-1.27883 0,-0.74597 0,-1.77291 -0.60721,0.77506 -1.44722,1.24974 -0.82986,0.46502 -0.83998,0.47471 -1.85203,0.77506 -1.01204,0.30032 -0.0606,-0.27126 0.77926,-0.28096 1.5484,-0.74598 0.76917,-0.47471 0.76914,-0.46501 1.28527,-1.16258 0.51613,-0.69752 -2.89441,0 -0.40481,0.50377 -0.86024,-0.66848 0.51615,-0.32938 z m 1.33589,-1.55008 -0.12145,0.30032 -0.26314,0.86225 -0.14167,0.55221 3.81535,0 0,-1.71478 -3.28909,0 z m 4.04813,-1.99574 0,1.66634 3.22841,0 0,-1.66634 -3.22841,0 z"
     id="path5189"
     inkscape:connector-curvature="0"
     style="fill:#000000;fill-rule:evenodd" />
  <path
     d="m 662.46467,227.35325 0.4554,0.22282 0.56674,0.44565 0.10121,0.22282 0.10119,0.22283 -0.10119,0.38751 -0.20239,0.1647 -0.20243,0.1647 -0.23277,0 -0.0304,-0.1647 -0.0202,-0.1647 -0.12143,-0.37784 -0.0809,-0.20344 -0.091,-0.21312 -0.2935,-0.45535 -0.20243,-0.25188 -0.68818,0 -0.23276,0.22282 -0.50602,0.47472 -0.27326,0.2422 -0.27324,0.25187 -0.67806,0.50379 -0.40481,0.2422 -0.12144,-0.22282 0.40482,-0.35846 0.77925,-0.87193 0.37446,-0.51345 0.38456,-0.50379 0.5465,-1.03662 0.17205,-0.53285 1.15373,0.72663 -0.17206,0.0775 -0.54649,0.52317 -0.37447,0.44564 2.47949,0 0.69831,-0.65878 0.98167,0.98817 -3.34982,0 z"
     id="path5191"
     inkscape:connector-curvature="0"
     style="fill:#000000;fill-rule:evenodd" />
  <path
     d="m 667.08966,225.30908 1.15371,0.7169 -0.2024,0.0581 -0.5465,0.49408 -0.35421,0.44566 2.95513,0 0.68818,-0.65877 0.99178,0.98816 -3.70402,0 0.37443,0.19377 0.51615,0.37783 0.1518,0.17438 0.14168,0.18407 -0.0406,0.39721 -0.19227,0.22283 -0.18218,0.22281 -0.26314,0.0291 -0.0708,-0.19376 -0.0708,-0.19375 -0.13157,-0.35847 -0.0606,-0.16468 -0.0605,-0.1647 -0.25302,-0.44565 -0.20241,-0.28095 -0.8096,0 -0.23278,0.25189 -0.40484,0.42627 -0.172,0.18407 -0.17206,0.17438 -0.58697,0.48441 -0.40481,0.31002 -0.17206,-0.16472 0.55663,-0.58127 0.77927,-1.02693 0.22261,-0.44564 0.23278,-0.43596 0.37447,-0.83318 0.15179,-0.38752 0,0 z"
     id="path5193"
     inkscape:connector-curvature="0"
     style="fill:#000000;fill-rule:evenodd" />
  <path
     d="m 673.56666,235.87868 10.74779,0 1.04241,-0.99785 1.38649,1.32726 -11.21334,0 -0.40481,0 -0.72868,0.0872 -0.31373,0.0872 -0.51613,-0.5038 z"
     id="path5195"
     inkscape:connector-curvature="0"
     style="fill:#000000;fill-rule:evenodd" />
  <path
     d="m 675.00375,228.18642 8.50107,0 0.80963,-0.77506 1.15371,1.10444 -8.61238,0 -0.34409,0 -0.66795,0.0872 -0.31373,0.0776 -0.52626,-0.49409 z"
     id="path5197"
     inkscape:connector-curvature="0"
     style="fill:#000000;fill-rule:evenodd" />
  <path
     d="m 699.63663,227.30481 -0.5465,1.07537 -0.7489,1.49195 -0.2024,0.41659 1.38648,0 0.57685,-0.55222 0.80964,0.77503 -0.52627,0.38752 -0.37444,1.24007 -0.98168,2.13136 -0.6072,0.89129 0.63757,0.68784 1.50793,0.93974 0.86023,0.25188 0,0.16471 -0.40482,-0.029 -0.57686,0.28095 -0.17205,0.30032 -0.66794,-0.38752 -1.18406,-1.01722 -0.51617,-0.63941 -0.90071,0.83315 -2.22645,1.19162 -1.32576,0.35848 -0.12146,-0.1744 1.27517,-0.52314 2.05443,-1.38539 0.77926,-0.85255 -0.57684,-0.86223 -0.84001,-2.16042 -0.26312,-1.2982 -0.11133,1.44353 -0.63758,2.20885 -0.51613,0.77502 -0.52628,0.77506 -1.58887,1.35633 -1.07276,0.58127 -0.11134,-0.1647 1.07277,-0.77505 1.41683,-1.51132 0.3441,-0.72659 0.3441,-0.73628 0.46554,-1.68574 0.11131,-0.95909 0.12145,-0.94943 0.14168,-2.22823 0.0302,-1.27882 0,0 -0.37446,0 -0.6983,0.0872 -0.31375,0.0777 -0.52624,-0.4941 5.49535,0 0.57685,-0.55221 0.93107,0.88161 -0.69831,0.33908 z m -3.64332,-0.33908 -0.0304,0.83315 -0.0506,1.63728 -0.0304,0.79442 0.43517,1.50163 1.01203,2.15075 0.57684,0.66847 0.51616,-0.71692 0.83998,-1.96663 0.31374,-1.24978 -1.61926,0 -0.28336,0.44565 -0.74894,-0.77503 0.22267,-0.0581 0.50602,-0.60064 0.28337,-0.56192 0.27324,-0.55221 0.47566,-1.0463 0.20242,-0.50378 -2.89442,0 z"
     id="path5199"
     inkscape:connector-curvature="0"
     style="fill:#000000;fill-rule:evenodd" />
  <path
     d="m 693.56442,233.16605 -1.85201,0.44565 -2.16573,0.71692 -0.31375,0.28095 -0.69828,-1.05599 0.29349,-0.0581 0.6072,-0.3972 0.31374,-0.34878 0.32385,-0.33908 1.01203,-1.25945 0.68818,-0.92036 -0.37445,0.0581 -0.77926,0.13561 -0.40484,0.0872 -0.40478,0.0872 -0.60725,0.2422 -0.2024,0.1647 -0.63757,-0.98819 0.29349,0 0.77926,-0.85253 0.48577,-0.84287 0.4959,-0.84283 0.63757,-1.45321 0.14168,-0.61035 1.21445,0.66848 -0.51612,0.32939 -0.55663,0.91067 -1.29541,1.80196 -0.7489,0.89129 2.65154,-0.0581 0.37443,-0.52313 0.55664,-0.99789 0.17204,-0.47469 1.09299,0.83317 -0.57687,0.22282 -0.8096,1.04628 -1.90263,2.24764 -1.10311,1.18194 3.81534,-0.60067 0,0.27127 z"
     id="path5201"
     inkscape:connector-curvature="0"
     style="fill:#000000;fill-rule:evenodd" />
  <path
     d="m 688.36259,236.26619 0.77925,-0.13563 2.57057,-0.69751 1.80142,-0.55222 0,0.22283 -1.21444,0.50377 -1.63949,0.69751 -0.41494,0.21315 -0.42504,0.20346 -0.58699,0.4069 -0.17205,0.19376 -0.69829,-1.05602 z"
     id="path5203"
     inkscape:connector-curvature="0"
     style="fill:#000000;fill-rule:evenodd" />
  <path
     d="m 710.16178,235.16177 0,0.61036 0.0303,1.211 0.0304,0.61033 -0.9918,0.38753 0.0303,-0.85254 0.0304,-1.55008 0,-0.69754 0,-3.20674 -4.50355,0 -0.38457,0 -0.68817,0.0872 -0.32385,0.0776 -0.51615,-0.49409 6.41629,0 0,-4.65026 -3.23852,0 -0.37445,0 -0.68816,0.0775 -0.32388,0.0872 -0.51612,-0.49407 9.42203,0 0.80961,-0.77505 1.15372,1.10443 -5.37387,0 0,4.65027 4.22015,0 0.87037,-0.83319 1.21443,1.16256 -6.30495,0 0,3.48768 z"
     id="path5205"
     inkscape:connector-curvature="0"
     style="fill:#000000;fill-rule:evenodd" />
  <path
     d="m 705.36474,227.51795 0.84,0.58128 1.012,0.83316 0.17206,0.25189 0.17205,0.25188 0.10121,0.45535 -0.0708,0.20344 -0.0811,0.21314 -0.22263,0.31001 -0.16196,0.11625 -0.16191,0.10658 -0.30361,-0.36815 -0.14169,-0.48441 -0.14168,-0.48438 -0.66796,-1.18195 -0.51612,-0.68785 0.17204,-0.11624 z"
     id="path5207"
     inkscape:connector-curvature="0"
     style="fill:#000000;fill-rule:evenodd" />
  <path
     d="m 713.33956,227.24666 1.21444,0.88162 -0.23278,0 -0.64768,0.50378 -0.41494,0.49409 -0.42507,0.50377 -0.91081,0.93975 -0.4858,0.43596 -0.18215,-0.10658 0.75904,-0.96879 1.04238,-1.83103 0.28337,-0.85257 0,0 z"
     id="path5209"
     inkscape:connector-curvature="0"
     style="fill:#000000;fill-rule:evenodd" />
  <path
     d="m 720.56546,238.09724 0.0304,-0.58128 0.0304,-1.42413 0,-0.85255 0,-0.84287 -0.0304,-1.5307 -0.0304,-0.69753 0.93109,0.55223 6.01148,0 0.4048,-0.55223 1.04241,0.61034 -0.52626,0.44566 0,2.81921 0,0.31001 0.0302,0.77505 0.0303,0.46501 -0.87034,0.38753 0,-0.93976 -6.18352,0 0,0.6685 -0.87037,0.38751 z m 0.87037,-5.03776 0,3.6524 6.18352,0 0,-3.6524 -6.18352,0 z"
     id="path5211"
     inkscape:connector-curvature="0"
     style="fill:#000000;fill-rule:evenodd" />
  <path
     d="m 720.22138,230.34684 8.37965,-0.22283 -0.31375,-0.38751 -1.13348,-1.056 -0.80962,-0.65878 0.18217,-0.1647 1.093,0.58127 1.55854,0.90098 0.46551,0.31003 0.46555,0.3197 0.28337,0.7266 -0.17205,0.39722 -0.17206,0.3972 -0.33397,0.15501 -0.15181,-0.25188 -0.16192,-0.24222 -0.33395,-0.47471 -0.17205,-0.22283 -1.21446,0.0291 -2.69199,0.16469 -1.46743,0.14532 -1.47758,0.13563 -1.91276,0.41658 -0.43516,0.27127 -0.7995,-1.3854 0.25299,-0.0194 0.63758,-0.3197 0.37446,-0.29065 0.37445,-0.29065 1.01204,-1.02692 0.63758,-0.73629 0.63757,-0.7266 0.84,-1.18193 0.2024,-0.43596 1.32577,0.93974 -0.31374,0.0484 -0.56674,0.29066 -0.2429,0.24219 -0.24287,0.23253 -1.92288,1.81165 -1.67996,1.57915 0,0 z"
     id="path5213"
     inkscape:connector-curvature="0"
     style="fill:#000000;fill-rule:evenodd" />
  <path
     d="m 637.52815,191.88546 0.17205,-0.50378 0.32386,-1.22068 0.14169,-0.71692 0.87036,0.55222 3.11704,0 0,-1.65664 -3.17778,0 -0.23275,0 -0.54649,0.0775 -0.32386,0.0872 -0.51616,-0.4941 8.61242,0 0.57684,-0.55221 0.80966,0.76534 -0.45543,0.28097 0,0.80407 0.0202,1.04634 0.0303,0.25187 -0.80962,0.3294 0,-0.60066 -3.23852,0 0,1.71478 4.22019,0 0.57687,-0.55221 0.80961,0.77504 -0.51611,0.32939 -0.11133,0.68784 -0.18217,0.93004 -0.0506,0.23253 -0.0606,0.23251 -0.16191,0.36814 -0.10121,0.11625 -0.10119,0.12594 -0.24288,0.19378 -0.1417,0.0677 -0.14167,0.0775 -0.40481,0.11629 -0.26314,0.0581 0,-0.35846 -0.74891,-0.66848 -0.75903,-0.30032 0,-0.22282 0.75903,0.19375 0.91083,0.18407 0.1518,-0.0194 0.16194,-0.009 0.23277,-0.1647 0.0707,-0.155 0.0708,-0.15502 0.19229,-0.94941 0.11132,-0.80411 -4.2809,0 0,2.71263 0,0.32939 0.0304,0.69755 0.0303,0.35845 -0.87033,0.27128 0.0303,-0.52317 0.0304,-1.26911 0,-0.75569 0,-1.76322 -0.60724,0.77507 -1.44721,1.24005 -0.84,0.47471 -0.82986,0.46504 -1.85201,0.77504 -1.01203,0.31 -0.0605,-0.28095 0.77926,-0.27126 1.54842,-0.75568 0.76915,-0.46502 0.759,-0.47471 1.2954,-1.16256 0.51615,-0.68784 -2.89441,0 -0.40481,0.49407 -0.86025,-0.65877 0.51614,-0.32938 z m 1.32578,-1.55008 -0.11131,0.30032 -0.26314,0.86225 -0.14168,0.55221 3.81535,0 0,-1.71478 -3.29922,0 z m 4.04812,-1.99572 0,1.65664 3.23852,0 0,-1.65664 -3.23852,0 z"
     id="path5215"
     inkscape:connector-curvature="0"
     style="fill:#000000;fill-rule:evenodd" />
  <path
     d="m 639.44091,185.84984 0.45542,0.22282 0.56672,0.43597 0.10125,0.22283 0.10116,0.2228 -0.10116,0.38753 -0.20244,0.1647 -0.20239,0.16471 -0.23277,0 -0.0303,-0.16471 -0.0303,-0.1647 -0.1113,-0.36816 -0.0911,-0.21312 -0.0811,-0.20345 -0.29347,-0.45534 -0.20242,-0.25188 -0.68817,0 -0.23278,0.22282 -0.50602,0.46502 -0.27326,0.25189 -0.27323,0.25189 -0.68818,0.49408 -0.40481,0.25189 -0.11133,-0.22282 0.40483,-0.35846 0.77924,-0.87192 0.37447,-0.51346 0.37444,-0.51346 0.55663,-1.03662 0.17204,-0.52315 1.1537,0.71691 -0.17204,0.0872 -0.54647,0.52316 -0.37448,0.44565 2.47948,0 0.69833,-0.66846 0.98166,0.99785 -3.34984,0 z"
     id="path5217"
     inkscape:connector-curvature="0"
     style="fill:#000000;fill-rule:evenodd" />
  <path
     d="m 644.06589,183.79597 1.15372,0.72661 -0.20242,0.0483 -0.54647,0.50379 -0.35422,0.44565 2.95514,0 0.68818,-0.66847 0.98168,0.99786 -3.69392,0 0.37446,0.19376 0.51612,0.36814 0.15181,0.18409 0.14167,0.18407 -0.0406,0.39719 -0.19231,0.22283 -0.19226,0.22282 -0.253,0.0194 -0.0707,-0.18406 -0.0811,-0.19376 -0.12143,-0.36816 -0.0606,-0.16468 -0.0605,-0.16471 -0.26313,-0.44565 -0.20241,-0.27126 -0.80962,0 -0.22265,0.25188 -0.40482,0.42628 -0.18215,0.17439 -0.17205,0.18406 -0.57684,0.48441 -0.40482,0.30032 -0.17208,-0.16469 0.54653,-0.58129 0.77926,-1.01723 0.23275,-0.44566 0.23277,-0.44564 0.37446,-0.83319 0.15179,-0.38751 0,0 z"
     id="path5219"
     inkscape:connector-curvature="0"
     style="fill:#000000;fill-rule:evenodd" />
  <path
     d="m 650.31015,194.92749 11.44611,0 0.92094,-0.8913 1.27514,1.22069 -11.8003,0 -0.34408,0 -0.66796,0.0872 -0.31372,0.0775 -0.51613,-0.49412 z"
     id="path5221"
     inkscape:connector-curvature="0"
     style="fill:#000000;fill-rule:evenodd" />
  <path
     d="m 651.46388,185.79171 9.53333,0 0.87036,-0.83317 1.21443,1.16258 -9.76611,0 -0.35422,0 -0.65782,0.0871 -0.32385,0.0872 -0.51612,-0.50376 z"
     id="path5223"
     inkscape:connector-curvature="0"
     style="fill:#000000;fill-rule:evenodd" />
  <path
     d="m 652.33421,190.21911 7.50928,0 0.87036,-0.83316 1.21443,1.16257 -7.75216,0 -0.3441,0 -0.66796,0.0872 -0.31372,0.0872 -0.51613,-0.50378 z"
     id="path5225"
     inkscape:connector-curvature="0"
     style="fill:#000000;fill-rule:evenodd" />
  <path
     d="m 676.61288,185.79171 -0.54651,1.08507 -0.75902,1.49194 -0.20238,0.41658 1.3966,0 0.57687,-0.5619 0.80961,0.77504 -0.52625,0.38751 -0.37446,1.24975 -0.98168,2.13138 -0.60722,0.88161 0.63758,0.69753 1.4978,0.93973 0.87036,0.2519 0,0.16467 -0.40482,-0.029 -0.57685,0.27127 -0.17203,0.31 -0.66797,-0.3875 -1.18407,-1.02692 -0.51615,-0.63942 -0.90069,0.83317 -2.22647,1.19161 -1.32576,0.35845 -0.12146,-0.16469 1.27517,-0.52314 2.05442,-1.38539 0.77927,-0.86223 -0.57686,-0.85255 -0.83998,-2.16043 -0.26311,-1.29819 -0.11135,1.43382 -0.63758,2.21856 -0.52626,0.77505 -0.51613,0.77503 -1.58888,1.35633 -1.07277,0.58128 -0.11133,-0.16469 1.07275,-0.77506 1.41686,-1.51134 0.34409,-0.73628 0.3441,-0.72659 0.46553,-1.69541 0.1113,-0.9494 0.12144,-0.95912 0.1417,-2.22823 0.0304,-1.26916 0,0 -0.37444,0 -0.6983,0.0775 -0.31375,0.0872 -0.52623,-0.49408 5.49532,0 0.57688,-0.5619 0.92095,0.89129 -0.68819,0.3294 z m -3.64331,-0.32941 -0.0304,0.83317 -0.0606,1.62761 -0.0202,0.80409 0.42507,1.49194 1.01202,2.16045 0.58697,0.66845 0.51614,-0.72659 0.84,-1.96665 0.3137,-1.24009 -1.61922,0 -0.28337,0.44567 -0.75904,-0.77505 0.23278,-0.0582 0.50603,-0.61036 0.27323,-0.5522 0.28337,-0.55222 0.47565,-1.05598 0.20242,-0.49411 -2.89443,0 z"
     id="path5227"
     inkscape:connector-curvature="0"
     style="fill:#000000;fill-rule:evenodd" />
  <path
     d="m 670.54069,191.66264 -1.85203,0.43596 -2.16574,0.7266 -0.31375,0.27127 -0.6983,-1.04631 0.29351,-0.0582 0.60719,-0.39722 0.31374,-0.34876 0.31374,-0.34877 1.01202,-1.25945 0.69831,-0.91067 -0.37445,0.0582 -0.77925,0.13563 -0.40483,0.0775 -0.40481,0.0872 -0.60721,0.2519 -0.20241,0.16471 -0.63759,-0.99786 0.28337,0 0.78937,-0.84285 0.48578,-0.84287 0.49591,-0.84285 0.63757,-1.45321 0.14169,-0.61035 1.21446,0.6588 -0.52627,0.33906 -0.54651,0.9107 -1.29538,1.80196 -0.75905,0.88161 2.66166,-0.0581 0.37448,-0.52316 0.55658,-0.99787 0.17206,-0.46503 1.09301,0.8235 -0.57687,0.22282 -0.80965,1.05599 -1.9026,2.23793 -1.10313,1.19163 3.81538,-0.61035 0,0.28095 z"
     id="path5229"
     inkscape:connector-curvature="0"
     style="fill:#000000;fill-rule:evenodd" />
  <path
     d="m 665.33883,194.76279 0.77927,-0.14531 2.57056,-0.68785 1.7913,-0.55223 0,0.22284 -1.21444,0.49408 -1.62936,0.70724 -0.41493,0.20345 -0.42507,0.21313 -0.58699,0.39721 -0.18215,0.19375 -0.68819,-1.04631 z"
     id="path5231"
     inkscape:connector-curvature="0"
     style="fill:#000000;fill-rule:evenodd" />
  <path
     d="m 687.13802,193.64869 0,0.61034 0.0304,1.22068 0.0202,0.61035 -0.98165,0.38752 0.0303,-0.86223 0.0303,-1.55009 0,-0.68786 0,-3.2164 -4.51369,0 -0.37444,0 -0.68819,0.0871 -0.32385,0.0872 -0.51615,-0.50378 6.41632,0 0,-4.65023 -3.2385,0 -0.37447,0 -0.6983,0.0872 -0.31373,0.0775 -0.51612,-0.49407 9.422,0 0.80962,-0.77504 1.15373,1.10443 -5.3739,0 0,4.65024 4.22017,0 0.86022,-0.83317 1.21446,1.16255 -6.29485,0 0,3.48769 z"
     id="path5233"
     inkscape:connector-curvature="0"
     style="fill:#000000;fill-rule:evenodd" />
  <path
     d="m 682.34098,186.01453 0.82988,0.5813 1.01204,0.83315 0.17203,0.24222 0.18217,0.25188 0.10121,0.45533 -0.081,0.21313 -0.0708,0.20345 -0.23279,0.31969 -0.15178,0.10658 -0.16193,0.11626 -0.30363,-0.37783 -0.14169,-0.4844 -0.1518,-0.48441 -0.6578,-1.17224 -0.52627,-0.69752 0.18216,-0.10659 z"
     id="path5235"
     inkscape:connector-curvature="0"
     style="fill:#000000;fill-rule:evenodd" />
  <path
     d="m 690.31582,185.73358 1.21443,0.89131 -0.23277,0 -0.64769,0.49407 -0.42505,0.50377 -0.41493,0.49411 -0.91087,0.93973 -0.49588,0.44564 -0.17205,-0.11626 0.74891,-0.96879 1.04239,-1.82133 0.29351,-0.86225 0,0 z"
     id="path5237"
     inkscape:connector-curvature="0"
     style="fill:#000000;fill-rule:evenodd" />
  <path
     d="m 697.54172,196.58414 0.0303,-0.58128 0.0303,-1.42413 0,-0.84285 0,-0.84287 -0.0303,-1.54038 -0.0303,-0.68786 0.92095,0.55223 6.02161,0 0.40479,-0.55223 1.03228,0.61035 -0.51612,0.43597 0,2.82888 0,0.30035 0.0304,0.77503 0.0303,0.47471 -0.87036,0.38752 0,-0.93973 -6.18349,0 0,0.65878 -0.87036,0.38751 z m 0.87037,-5.03775 0,3.65238 6.18349,0 0,-3.65238 -6.18349,0 z"
     id="path5239"
     inkscape:connector-curvature="0"
     style="fill:#000000;fill-rule:evenodd" />
  <path
     d="m 697.19762,188.83374 8.37965,-0.22282 -0.31373,-0.38752 -1.13349,-1.0463 -0.8096,-0.66847 0.17202,-0.1647 1.10311,0.58127 1.55855,0.90099 0.46553,0.31971 0.46553,0.31969 0.28337,0.71693 -0.17205,0.39719 -0.17204,0.40691 -0.33396,0.155 -0.16193,-0.25186 -0.15178,-0.25191 -0.33401,-0.46502 -0.17204,-0.22282 -1.21444,0.029 -2.69201,0.1647 -1.47757,0.13562 -1.46745,0.13564 -1.91274,0.41659 -0.43517,0.28095 -0.80963,-1.3854 0.26315,-0.029 0.63757,-0.31968 0.37443,-0.29065 0.37448,-0.29065 1.01203,-1.01723 0.63756,-0.73629 0.63761,-0.73629 0.83998,-1.17227 0.20238,-0.44563 1.32578,0.93975 -0.31372,0.058 -0.56676,0.29064 -0.24286,0.23251 -0.25302,0.23252 -1.92287,1.82135 -1.66986,1.56946 0,0 z"
     id="path5241"
     inkscape:connector-curvature="0"
     style="fill:#000000;fill-rule:evenodd" />
  <path
     d="m 605.56817,151.0699 0.17205,-0.50378 0.31373,-1.22068 0.14167,-0.71691 0.87037,0.55221 3.12717,0 0,-1.65665 -3.18791,0 -0.22264,0 -0.55661,0.0775 -0.31375,0.0872 -0.52626,-0.49409 8.62253,0 0.57687,-0.5619 0.80963,0.77504 -0.46554,0.28095 0,0.80411 0.0303,1.0463 0.0303,0.25189 -0.80964,0.3294 0,-0.60066 -3.23851,0 0,1.71478 4.22019,0 0.57684,-0.55221 0.80964,0.76535 -0.51615,0.33906 -0.12145,0.68785 -0.17204,0.93006 -0.0606,0.23252 -0.0507,0.23252 -0.16191,0.36813 -0.10118,0.11624 -0.10122,0.12595 -0.24288,0.19376 -0.15181,0.0677 -0.1417,0.0776 -0.4048,0.11626 -0.26312,0.0581 0,-0.35846 -0.74891,-0.66848 -0.74892,-0.30031 0,-0.22283 0.74892,0.19377 0.91082,0.18406 0.16192,-0.0194 0.15181,-0.009 0.23276,-0.1647 0.0708,-0.15499 0.0809,-0.15503 0.18216,-0.9494 0.12146,-0.80412 -4.28091,0 0,2.71264 0,0.32941 0.0304,0.69751 0.0303,0.35847 -0.87034,0.27127 0.0302,-0.52317 0.0303,-1.26911 0,-0.75568 0,-1.76321 -0.6072,0.77506 -1.44723,1.24004 -0.83997,0.47471 -0.84,0.46503 -1.85202,0.77505 -1.01203,0.31001 -0.0507,-0.28096 0.77926,-0.27126 1.54841,-0.75566 0.75903,-0.46503 0.76915,-0.47473 1.28528,-1.16254 0.51613,-0.68785 -2.88428,0 -0.40482,0.49409 -0.87036,-0.65878 0.52627,-0.32941 z m 1.32575,-1.55008 -0.11131,0.30033 -0.26313,0.86224 -0.14168,0.55221 3.81536,0 0,-1.71478 -3.29924,0 z m 4.04815,-1.99573 0,1.65665 3.23851,0 0,-1.65665 -3.23851,0 z"
     id="path5243"
     inkscape:connector-curvature="0"
     style="fill:#000000;fill-rule:evenodd" />
  <path
     d="m 607.4708,145.03429 0.46552,0.22283 0.55662,0.43594 0.10121,0.22284 0.10119,0.22282 -0.10119,0.38751 -0.20242,0.16469 -0.2024,0.16471 -0.22265,0 -0.0303,-0.16471 -0.0303,-0.16469 -0.12143,-0.37783 -0.081,-0.20345 -0.0911,-0.20345 -0.28336,-0.45533 -0.20241,-0.25188 -0.69828,0 -0.2328,0.22283 -0.506,0.465 -0.27326,0.2519 -0.27325,0.25187 -0.67804,0.4941 -0.40483,0.25189 -0.11132,-0.22283 0.4048,-0.35847 0.77927,-0.8719 0.37446,-0.51347 0.37445,-0.51346 0.54652,-1.03662 0.17201,-0.52315 1.16385,0.7169 -0.18217,0.0872 -0.5465,0.52315 -0.37446,0.44565 2.48961,0 0.68818,-0.66848 0.98169,0.99788 -3.34982,0 z"
     id="path5245"
     inkscape:connector-curvature="0"
     style="fill:#000000;fill-rule:evenodd" />
  <path
     d="m 612.09576,142.98041 1.15374,0.72663 -0.20241,0.0484 -0.54649,0.50376 -0.34411,0.44565 2.94503,0 0.6983,-0.66848 0.98167,0.99787 -3.70403,0 0.37444,0.19377 0.52627,0.36813 0.14168,0.18408 0.14169,0.1744 -0.0406,0.40689 -0.1923,0.22281 -0.18216,0.22282 -0.26313,0.0194 -0.0708,-0.19377 -0.0707,-0.19376 -0.13156,-0.35845 -0.0606,-0.16468 -0.0506,-0.1647 -0.26314,-0.44565 -0.20241,-0.27126 -0.80963,0 -0.23278,0.25188 -0.4048,0.42627 -0.17204,0.17439 -0.17205,0.18407 -0.57685,0.48439 -0.40484,0.30034 -0.17202,-0.16469 0.5465,-0.58129 0.77926,-1.01725 0.23277,-0.44563 0.23277,-0.44566 0.37445,-0.83317 0.14166,-0.38751 0,0 z"
     id="path5247"
     inkscape:connector-curvature="0"
     style="fill:#000000;fill-rule:evenodd" />
  <path
     d="m 630.54514,153.1722 0,0.27126 0.0201,1.1335 0.0304,0.86222 -0.86023,0.27128 0,-1.37569 -9.13866,0 0,1.04631 -0.87034,0.32938 0.0304,-0.93974 0.0303,-3.1486 0,-2.21856 0,-2.20886 -0.0303,-3.02265 -0.0304,-0.80412 0.87034,0.50378 9.01723,0 0.40482,-0.61033 0.98165,0.71689 -0.45542,0.38753 0,8.8064 z m -6.47702,-8.9711 0.0304,1.77292 -0.23277,2.75138 -0.26315,0.98818 -0.2631,0.97849 -1.49781,1.70511 -1.24481,0.71689 0,0.88161 9.13867,0 0,-9.79458 -2.72238,0 0,5.75469 -0.0304,0.53283 0.32383,0.49408 0.3441,-0.0289 0.57688,0 0.29347,-0.10656 0.44531,-0.0483 0.16189,0.0775 0.15181,0.0678 0.22266,0.2422 0.0506,0.18408 0.0606,0.17438 -0.51615,0.155 -0.57684,-0.029 -1.21445,0 -0.58697,0 -0.54651,-0.55222 0.0303,-0.55221 0,-6.36501 -2.13542,0 z m -3.47127,0 0,8.58357 0.95133,-0.77505 1.15369,-1.71475 0.20243,-0.94943 0.20243,-0.93974 0.18214,-2.56732 -0.0304,-1.63728 -2.66166,0 z"
     id="path5249"
     inkscape:connector-curvature="0"
     style="fill:#000000;fill-rule:evenodd" />
  <path
     d="m 644.64276,144.97615 -0.5465,1.07538 -0.74888,1.50162 -0.20243,0.41659 1.38648,0 0.57687,-0.5619 0.80962,0.77504 -0.51612,0.38752 -0.37446,1.24975 -0.99179,2.13138 -0.60725,0.8816 0.63759,0.69752 1.50796,0.93975 0.87034,0.25187 0,0.1647 -0.40483,-0.029 -0.58696,0.27127 -0.17206,0.31 -0.65781,-0.3875 -1.19423,-1.02694 -0.51614,-0.63941 -0.89056,0.83316 -2.22647,1.19163 -1.33588,0.35845 -0.11134,-0.16467 1.26504,-0.52316 2.05443,-1.38538 0.77928,-0.86224 -0.57689,-0.85254 -0.83998,-2.16043 -0.253,-1.2982 -0.12146,1.43383 -0.63755,2.21856 -0.51615,0.77503 -0.51613,0.77505 -1.59903,1.35632 -1.06261,0.58127 -0.12145,-0.1647 1.07274,-0.77503 1.41688,-1.51133 0.34408,-0.7363 0.35419,-0.73628 0.45543,-1.68572 0.12144,-0.94941 0.11133,-0.95912 0.14169,-2.22822 0.0304,-1.26915 0,0 -0.37445,0 -0.68823,0.0775 -0.32382,0.0872 -0.51614,-0.4941 5.48522,0 0.58699,-0.5619 0.92095,0.89129 -0.69832,0.3294 z m -3.63321,-0.32938 -0.0302,0.83315 -0.0606,1.6276 -0.0302,0.8041 0.43518,1.49194 1.01204,2.16043 0.57684,0.65878 0.51615,-0.7169 0.84001,-1.96666 0.32383,-1.24008 -1.61926,0 -0.29351,0.44566 -0.74888,-0.77505 0.23278,-0.0581 0.50598,-0.61037 0.27327,-0.5522 0.27326,-0.55222 0.47564,-1.05596 0.20241,-0.49412 -2.8843,0 z"
     id="path5251"
     inkscape:connector-curvature="0"
     style="fill:#000000;fill-rule:evenodd" />
  <path
     d="m 638.58068,150.8471 -1.85199,0.43595 -2.16578,0.72657 -0.32386,0.27129 -0.68816,-1.04631 0.28337,-0.0582 0.60722,-0.39721 0.32385,-0.34877 0.31372,-0.34876 1.01204,-1.25944 0.68819,-0.91066 -0.37447,0.0583 -0.77926,0.13561 -0.40482,0.0776 -0.40481,0.0872 -0.60722,0.25187 -0.20241,0.16471 -0.63755,-0.99785 0.29346,0 0.77928,-0.84286 0.49589,-0.84286 0.48578,-0.84285 0.63757,-1.45321 0.14169,-0.61033 1.21445,0.65879 -0.51615,0.33906 -0.54649,0.91066 -1.30554,1.80197 -0.7489,0.88163 2.66164,-0.0582 0.37446,-0.52315 0.54651,-0.99788 0.17204,-0.46501 1.10311,0.82348 -0.57686,0.22283 -0.80963,1.05599 -1.91273,2.23791 -1.09299,1.19163 3.81535,-0.61033 0,0.28095 z"
     id="path5253"
     inkscape:connector-curvature="0"
     style="fill:#000000;fill-rule:evenodd" />
  <path
     d="m 633.36874,153.94724 0.78936,-0.14533 2.57059,-0.68784 1.7913,-0.55221 0,0.22281 -1.21448,0.49411 -1.62936,0.7072 -0.42506,0.20345 -0.41493,0.21314 -0.59711,0.39721 -0.17204,0.19376 -0.69827,-1.0463 z"
     id="path5255"
     inkscape:connector-curvature="0"
     style="fill:#000000;fill-rule:evenodd" />
  <path
     d="m 655.16792,152.83313 0,0.61033 0.0303,1.22068 0.0302,0.61035 -0.98166,0.38752 0.0303,-0.86223 0.0302,-1.55008 0,-0.68784 0,-3.21642 -4.51363,0 -0.37446,0 -0.69831,0.0872 -0.31374,0.0872 -0.52623,-0.50378 6.42637,0 0,-4.65024 -3.23848,0 -0.38458,0 -0.68817,0.0872 -0.32386,0.0775 -0.51611,-0.49408 9.42201,0 0.80963,-0.77503 1.15372,1.1044 -5.37389,0 0,4.65026 4.22017,0 0.87033,-0.83316 1.21446,1.16256 -6.30496,0 0,3.48769 z"
     id="path5257"
     inkscape:connector-curvature="0"
     style="fill:#000000;fill-rule:evenodd" />
  <path
     d="m 650.37087,145.19898 0.83999,0.58127 1.01205,0.83316 0.17201,0.24222 0.17206,0.25189 0.10119,0.45534 -0.0708,0.21312 -0.0708,0.20345 -0.23277,0.3197 -0.16192,0.10657 -0.1518,0.11625 -0.3036,-0.37782 -0.15182,-0.48441 -0.14168,-0.4844 -0.66793,-1.17225 -0.51612,-0.69752 0.17202,-0.10657 z"
     id="path5259"
     inkscape:connector-curvature="0"
     style="fill:#000000;fill-rule:evenodd" />
  <path
     d="m 658.34568,144.918 1.21445,0.89132 -0.22264,0 -0.65783,0.4941 -0.41492,0.50376 -0.42506,0.49407 -0.91083,0.93976 -0.48578,0.44564 -0.17206,-0.11625 0.74891,-0.96879 1.04239,-1.82136 0.28337,-0.86225 0,0 z"
     id="path5261"
     inkscape:connector-curvature="0"
     style="fill:#000000;fill-rule:evenodd" />
  <path
     d="m 665.58173,155.76858 0.0201,-0.58127 0.0304,-1.42415 0,-0.84285 0,-0.84286 -0.0304,-1.54038 -0.0201,-0.68785 0.92095,0.55221 6.01148,0 0.40481,-0.55221 1.04238,0.61032 -0.52625,0.43598 0,2.8289 0,0.30032 0.0303,0.77504 0.0302,0.47471 -0.87033,0.38752 0,-0.93974 -6.18354,0 0,0.65881 -0.86021,0.3875 z m 0.86022,-5.03776 0,3.65239 6.18352,0 0,-3.65239 -6.18352,0 z"
     id="path5263"
     inkscape:connector-curvature="0"
     style="fill:#000000;fill-rule:evenodd" />
  <path
     d="m 665.2275,148.01818 8.38974,-0.22282 -0.32382,-0.38752 -1.12336,-1.0463 -0.80962,-0.66848 0.17203,-0.16468 1.093,0.58126 1.56866,0.90099 0.45541,0.3197 0.46554,0.31972 0.29349,0.71691 -0.17205,0.3972 -0.18216,0.40691 -0.32386,0.15499 -0.16192,-0.25189 -0.16193,-0.25189 -0.33396,-0.46502 -0.17206,-0.22283 -1.21443,0.029 -2.68191,0.16472 -1.47755,0.13562 -1.47757,0.13564 -1.90262,0.41658 -0.43518,0.28095 -0.80962,-1.38537 0.26313,-0.0291 0.62747,-0.31972 0.38455,-0.29064 0.37446,-0.29064 1.01203,-1.02691 0.62746,-0.7266 0.63759,-0.73631 0.83998,-1.17225 0.20242,-0.44565 1.33588,0.93974 -0.32387,0.0581 -0.5667,0.29064 -0.24291,0.23251 -0.2429,0.23253 -1.92286,1.81162 -1.67998,1.57915 0,0 z"
     id="path5265"
     inkscape:connector-curvature="0"
     style="fill:#000000;fill-rule:evenodd" />
  <path
     d="m 577.66644,109.99276 0.17202,-0.49408 0.31375,-1.22069 0.14166,-0.71693 0.87037,0.55222 3.12718,0 0,-1.65663 -3.18791,0 -0.22267,0 -0.5566,0.0775 -0.31372,0.0872 -0.52627,-0.50378 8.62253,0 0.57685,-0.55221 0.80965,0.77502 -0.46556,0.28097 0,0.8041 0.0304,1.04631 0.0303,0.25189 -0.80963,0.32938 0,-0.61034 -3.23852,0 0,1.72447 4.2202,0 0.57686,-0.56191 0.80962,0.77503 -0.51614,0.33911 -0.12144,0.68782 -0.17204,0.93006 -0.0605,0.23251 -0.0506,0.23251 -0.16192,0.35848 -0.10121,0.12594 -0.10122,0.12594 -0.24288,0.19376 -0.1518,0.0677 -0.14169,0.0678 -0.40479,0.12595 -0.26314,0.058 0,-0.35848 -0.74892,-0.66846 -0.74889,-0.30031 0,-0.22283 0.74889,0.19375 0.91083,0.18407 0.16194,-0.0194 0.1518,-0.009 0.23278,-0.16469 0.0708,-0.15499 0.081,-0.15502 0.18215,-0.94943 0.12146,-0.80411 -4.28091,0 0,2.71264 0,0.3294 0.0303,0.68785 0.0304,0.36815 -0.87035,0.27124 0.0304,-0.52315 0.0303,-1.27879 0,-0.74599 0,-1.77292 -0.60725,0.77505 -1.44718,1.24975 -0.84001,0.47474 -0.83997,0.46501 -1.85202,0.77504 -1.01203,0.31002 -0.0507,-0.28097 0.77925,-0.28093 1.54841,-0.74597 0.75903,-0.46505 0.76913,-0.47471 1.28527,-1.16255 0.51615,-0.68786 -2.8843,0 -0.4048,0.4941 -0.87036,-0.65878 0.52626,-0.3391 z m 1.32575,-1.55008 -0.11135,0.31002 -0.26311,0.85254 -0.14169,0.56192 3.81538,0 0,-1.72448 -3.29923,0 z m 4.04811,-1.98603 0,1.65663 3.23852,0 0,-1.65663 -3.23852,0 z"
     id="path5267"
     inkscape:connector-curvature="0"
     style="fill:#000000;fill-rule:evenodd" />
  <path
     d="m 579.56904,103.96683 0.46555,0.22282 0.5566,0.43597 0.10122,0.22282 0.10118,0.22282 -0.10118,0.38753 -0.20241,0.16469 -0.2024,0.1647 -0.22266,0 -0.0302,-0.1647 -0.0304,-0.16469 -0.12145,-0.37784 -0.081,-0.20345 -0.0911,-0.21312 -0.28336,-0.45536 -0.2024,-0.24219 -0.6983,0 -0.23279,0.22282 -0.50602,0.46503 -0.27323,0.25189 -0.27326,0.24219 -0.67806,0.50378 -0.40482,0.25188 -0.11132,-0.22282 0.40482,-0.35843 0.77926,-0.87194 0.37445,-0.51346 0.37445,-0.51348 0.54652,-1.0366 0.17204,-0.52316 1.16383,0.71691 -0.17205,0.0776 -0.5566,0.53284 -0.37446,0.43597 2.4896,0 0.68819,-0.65879 0.98165,0.99786 -3.34982,0 z"
     id="path5269"
     inkscape:connector-curvature="0"
     style="fill:#000000;fill-rule:evenodd" />
  <path
     d="m 584.19403,101.91296 1.1537,0.72661 -0.20238,0.0483 -0.54651,0.50377 -0.34407,0.43597 2.945,0 0.6983,-0.6588 0.98168,0.99787 -3.70407,0 0.37447,0.19376 0.52627,0.36815 0.14168,0.18406 0.14169,0.1744 -0.0406,0.40688 -0.19228,0.22283 -0.18215,0.21313 -0.26314,0.0291 -0.0707,-0.19375 -0.0708,-0.19376 -0.13157,-0.35846 -0.0606,-0.1647 -0.0507,-0.16469 -0.26312,-0.44566 -0.20241,-0.27125 -0.80962,0 -0.23277,0.2422 -0.40482,0.43595 -0.17204,0.1744 -0.17206,0.18407 -0.57684,0.48438 -0.40481,0.30034 -0.17205,-0.16469 0.54651,-0.5813 0.77925,-1.02691 0.23277,-0.43597 0.23277,-0.44565 0.37445,-0.83316 0.14169,-0.38752 0,0 z"
     id="path5271"
     inkscape:connector-curvature="0"
     style="fill:#000000;fill-rule:evenodd" />
  <path
     d="m 600.96342,108.00671 -0.23279,5.58999 1.10313,0 0.92096,-0.89129 1.27517,1.22068 -11.45622,0 -0.37445,0 -0.68817,0.0872 -0.32386,0.0775 -0.51614,-0.49409 4.10884,0 0.92096,-5.75466 -1.73057,0 -0.38458,0 -0.68818,0.0775 -0.32385,0.0872 -0.51613,-0.50377 3.70405,0 0.57684,-3.98177 -3.00574,0 -0.37445,0 -0.6983,0.0872 -0.31373,0.0777 -0.52626,-0.4941 9.71552,0 0.80963,-0.77504 1.1537,1.10443 -5.89003,0 -0.63758,3.98178 3.46114,0 0.52627,-0.61034 0.92096,0.7266 -0.51614,0.38751 z m -1.0424,5.58999 0.23276,-5.75467 -3.64332,0 -0.92093,5.75467 4.33149,0 z"
     id="path5273"
     inkscape:connector-curvature="0"
     style="fill:#000000;fill-rule:evenodd" />
  <path
     d="m 616.74101,103.90871 -0.54649,1.07535 -0.7489,1.50165 -0.20241,0.4069 1.38648,0 0.57687,-0.55223 0.80961,0.77505 -0.51612,0.38752 -0.37447,1.24975 -0.99178,2.13136 -0.60724,0.88161 0.63759,0.69753 1.50795,0.93973 0.87033,0.24222 0,0.17439 -0.40482,-0.029 -0.58696,0.27127 -0.17205,0.31 -0.65782,-0.38751 -1.19422,-1.02691 -0.51612,-0.63941 -0.89059,0.83316 -2.22648,1.19162 -1.33588,0.35846 -0.11133,-0.16471 1.26503,-0.52313 2.05444,-1.38539 0.77927,-0.86224 -0.57686,-0.85256 -0.83997,-2.16042 -0.25302,-1.2982 -0.12146,1.43383 -0.63757,2.21855 -0.51612,0.77506 -0.51615,0.77502 -1.59899,1.35635 -1.06266,0.58128 -0.12143,-0.17439 1.07275,-0.77504 1.41686,-1.50165 0.34408,-0.7363 0.35421,-0.73628 0.45542,-1.68569 0.12143,-0.94945 0.11131,-0.95909 0.14169,-2.22825 0.0304,-1.26911 0,0 -0.37447,0 -0.68817,0.0775 -0.32386,0.0872 -0.51615,-0.50377 5.48523,0 0.58699,-0.5522 0.92094,0.8913 -0.69831,0.32939 z m -3.63319,-0.3294 -0.0303,0.82348 -0.0606,1.63727 -0.0302,0.80412 0.43516,1.49195 1.01202,2.16042 0.57688,0.65877 0.51612,-0.71691 0.83999,-1.96666 0.32385,-1.24007 -1.61926,0 -0.29349,0.43597 -0.74891,-0.77504 0.23279,-0.0484 0.506,-0.61035 0.27328,-0.55223 0.27323,-0.5522 0.47566,-1.05599 0.20239,-0.49409 -2.88427,0 z"
     id="path5275"
     inkscape:connector-curvature="0"
     style="fill:#000000;fill-rule:evenodd" />
  <path
     d="m 610.67894,109.77962 -1.85202,0.43597 -2.16577,0.7169 -0.32383,0.28096 -0.68818,-1.04629 0.28336,-0.0582 0.60722,-0.4069 0.32386,-0.33909 0.31371,-0.34876 1.01204,-1.25945 0.69829,-0.91065 -0.38456,0.0484 -0.77925,0.14531 -0.40483,0.0775 -0.40481,0.0872 -0.6072,0.25187 -0.20243,0.16472 -0.63758,-0.99787 0.29349,0 0.77927,-0.84285 0.49591,-0.84286 0.48578,-0.84286 0.63756,-1.4532 0.1417,-0.61035 1.21444,0.65879 -0.51614,0.33908 -0.54651,0.91067 -1.30552,1.79229 -0.7489,0.89129 2.66162,-0.0581 0.37447,-0.52317 0.54649,-0.99786 0.17206,-0.47471 1.10312,0.83318 -0.57686,0.22283 -0.80963,1.05599 -1.91274,2.23791 -1.09299,1.19164 3.81536,-0.61034 0,0.28094 z"
     id="path5277"
     inkscape:connector-curvature="0"
     style="fill:#000000;fill-rule:evenodd" />
  <path
     d="m 605.46696,112.87012 0.7894,-0.13566 2.57056,-0.68784 1.79129,-0.5522 0,0.21313 -1.21443,0.50377 -1.62937,0.70722 -0.42507,0.20345 -0.41494,0.21314 -0.59708,0.39722 -0.17204,0.19374 -0.69832,-1.05597 z"
     id="path5279"
     inkscape:connector-curvature="0"
     style="fill:#000000;fill-rule:evenodd" />
  <path
     d="m 627.26614,111.76567 0,0.61034 0.0304,1.22069 0.0304,0.61033 -0.98168,0.38753 0.0304,-0.86221 0.0303,-1.55009 0,-0.68784 0,-3.21643 -4.51366,0 -0.37447,0 -0.69829,0.0872 -0.31373,0.0775 -0.52626,-0.49409 6.42641,0 0,-4.65023 -3.2385,0 -0.38458,0 -0.68818,0.0872 -0.32386,0.0777 -0.51612,-0.4941 9.42201,0 0.80963,-0.77504 1.16384,1.10444 -5.38403,0 0,4.65023 4.22019,0 0.87037,-0.83316 1.21442,1.16256 -6.30498,0 0,3.48767 z"
     id="path5281"
     inkscape:connector-curvature="0"
     style="fill:#000000;fill-rule:evenodd" />
  <path
     d="m 622.46913,104.13152 0.83999,0.58128 1.01202,0.82349 0.17205,0.25189 0.17206,0.25188 0.10118,0.45534 -0.0708,0.20345 -0.0707,0.21314 -0.23275,0.31969 -0.16193,0.10657 -0.15182,0.11625 -0.30362,-0.37781 -0.15179,-0.48442 -0.14169,-0.48439 -0.66793,-1.17225 -0.51615,-0.69755 0.17206,-0.10656 z"
     id="path5283"
     inkscape:connector-curvature="0"
     style="fill:#000000;fill-rule:evenodd" />
  <path
     d="m 630.44394,103.85058 1.21444,0.89128 -0.22265,0 -0.65781,0.49409 -0.41495,0.49411 -0.42504,0.50377 -0.91084,0.93973 -0.48576,0.44566 -0.17206,-0.11627 0.74889,-0.96881 1.04241,-1.82134 0.28337,-0.86222 0,0 z"
     id="path5285"
     inkscape:connector-curvature="0"
     style="fill:#000000;fill-rule:evenodd" />
  <path
     d="m 637.67996,114.70114 0.0201,-0.58128 0.0303,-1.42414 0,-0.84286 0,-0.84285 -0.0303,-1.54038 -0.0201,-0.68787 0.92098,0.55222 6.01147,0 0.40478,-0.55222 1.04241,0.61036 -0.52625,0.43594 0,2.82889 0,0.30035 0.0304,0.77505 0.0304,0.47468 -0.86024,0.38753 0,-0.94941 -6.19363,0 0,0.66846 -0.86025,0.38753 z m 0.86025,-5.03776 0,3.65237 6.19363,0 0,-3.65237 -6.19363,0 z"
     id="path5287"
     inkscape:connector-curvature="0"
     style="fill:#000000;fill-rule:evenodd" />
  <path
     d="m 637.32575,106.95074 8.38977,-0.22282 -0.32386,-0.38754 -1.12334,-1.04629 -0.80965,-0.66847 0.17207,-0.1647 1.1031,0.58127 1.55855,0.90099 0.45539,0.3197 0.46555,0.31971 0.29347,0.71692 -0.17203,0.39721 -0.18216,0.40688 -0.32386,0.14532 -0.16192,-0.24221 -0.16193,-0.25187 -0.33398,-0.47471 -0.17205,-0.21313 -1.21443,0.0194 -2.68186,0.17438 -1.47759,0.13563 -1.47757,0.13562 -1.90261,0.4166 -0.43518,0.28094 -0.80962,-1.38537 0.26311,-0.029 0.62746,-0.31973 0.38457,-0.29061 0.37445,-0.29065 1.01206,-1.02693 0.62746,-0.72661 0.63758,-0.73629 0.83997,-1.17222 0.2024,-0.44566 1.33591,0.93974 -0.32385,0.0582 -0.56676,0.29063 -0.2429,0.23252 -0.24288,0.23249 -1.92284,1.81167 -1.68,1.57914 0,0 z"
     id="path5289"
     inkscape:connector-curvature="0"
     style="fill:#000000;fill-rule:evenodd" />
  <path
     d="m 518.74585,66.542071 0.17206,-0.494088 0.31372,-1.220689 0.15182,-0.716912 0.86022,0.552215 3.12717,0 0,-1.666342 -3.17776,0 -0.23279,0 -0.55661,0.08719 -0.31374,0.08719 -0.51613,-0.503762 8.61242,0 0.57684,-0.552231 0.80962,0.775046 -0.46552,0.280947 0,0.794414 0.0303,1.055984 0.0304,0.251894 -0.80962,0.329399 0,-0.610348 -3.23852,0 0,1.714766 4.2202,0 0.57684,-0.552218 0.80965,0.775051 -0.51615,0.329399 -0.12145,0.697534 -0.17205,0.920354 -0.0507,0.242201 -0.0605,0.232507 -0.16192,0.358466 -0.10121,0.125944 -0.1012,0.125928 -0.24288,0.193781 -0.14168,0.06777 -0.15181,0.06777 -0.40482,0.125944 -0.25299,0.05814 0,-0.358443 -0.75905,-0.668461 -0.74891,-0.300344 0,-0.222827 0.74891,0.193767 0.91084,0.174386 0.16191,-0.0097 0.16195,-0.0194 0.23276,-0.164706 0.0707,-0.145318 0.0708,-0.155018 0.18217,-0.95911 0.12143,-0.794411 -4.28089,0 0,2.702958 0,0.339084 0.0304,0.687847 0.0303,0.358451 -0.87037,0.280948 0.0303,-0.523148 0.0303,-1.27882 0,-0.745977 0,-1.772894 -0.60721,0.775036 -1.44723,1.249739 -0.83998,0.465034 -0.83998,0.474716 -1.8419,0.775037 -1.01205,0.300329 -0.0605,-0.271255 0.77925,-0.280962 1.54841,-0.745984 0.75903,-0.474707 0.76915,-0.465014 1.28528,-1.162569 0.52625,-0.687849 -2.8944,0 -0.40483,0.494089 -0.87033,-0.668475 0.52625,-0.329396 z m 1.32578,-1.550081 -0.11134,0.310018 -0.26313,0.85253 -0.14167,0.552218 3.81535,0 0,-1.714766 -3.29921,0 z m 4.04813,-1.995735 0,1.666342 3.23852,0 0,-1.666342 -3.23852,0 z"
     id="path5291"
     inkscape:connector-curvature="0"
     style="fill:#000000;fill-rule:evenodd" />
  <path
     d="m 520.6485,60.506439 0.46551,0.222828 0.56674,0.445646 0.10122,0.222829 0.10118,0.222822 -0.10118,0.387526 -0.20242,0.164682 -0.20241,0.164704 -0.23276,0 -0.0303,-0.164704 -0.0304,-0.164682 -0.11131,-0.377845 -0.0911,-0.203441 -0.081,-0.213142 -0.29347,-0.455339 -0.20243,-0.251884 -0.6983,0 -0.22263,0.222828 -0.50604,0.474708 -0.28337,0.251885 -0.27325,0.242205 -0.67805,0.503786 -0.40482,0.242196 -0.11131,-0.213143 0.40479,-0.368143 0.77928,-0.871914 0.37446,-0.503776 0.37444,-0.513471 0.5465,-1.03661 0.18215,-0.532846 1.15373,0.726612 -0.17204,0.07751 -0.55663,0.52317 -0.37446,0.445637 2.48963,0 0.69829,-0.658776 0.98168,0.988171 -3.35995,0 z"
     id="path5293"
     inkscape:connector-curvature="0"
     style="fill:#000000;fill-rule:evenodd" />
  <path
     d="m 525.27348,58.462272 1.16381,0.716913 -0.20238,0.05814 -0.55661,0.494091 -0.3441,0.445637 2.94502,0 0.69829,-0.658777 0.98167,0.988172 -3.70402,0 0.38455,0.193761 0.51614,0.377831 0.14169,0.184071 0.1518,0.174392 -0.0506,0.406888 -0.18218,0.213133 -0.1923,0.222824 -0.26312,0.02903 -0.0707,-0.193751 -0.0708,-0.193769 -0.13157,-0.358447 -0.0506,-0.164705 -0.0606,-0.164702 -0.26311,-0.445638 -0.20241,-0.280957 -0.80964,0 -0.23278,0.251887 -0.40478,0.426268 -0.17206,0.184088 -0.17205,0.184063 -0.57686,0.484396 -0.40482,0.300331 -0.17203,-0.164706 0.5465,-0.58127 0.77926,-1.026938 0.23276,-0.445643 0.23276,-0.435946 0.37447,-0.833178 0.14167,-0.387516 0,0 z"
     id="path5295"
     inkscape:connector-curvature="0"
     style="fill:#000000;fill-rule:evenodd" />
  <path
     d="m 537.01306,65.050116 -1.07276,1.937602 -2.6313,3.012973 -1.55851,1.085061 -0.11134,-0.174393 0.95132,-0.939742 1.4877,-1.792268 0.53635,-0.862241 0.53639,-0.852539 0.81977,-1.772902 0.29348,-0.920368 1.38649,0.949423 -0.63759,0.329394 z"
     id="path5297"
     inkscape:connector-curvature="0"
     style="fill:#000000;fill-rule:evenodd" />
  <path
     d="m 539.38122,64.216953 0.17205,-0.164697 2.02406,1.801968 2.17587,2.276683 0.1417,0.484402 0.14165,0.484402 -0.0606,0.804098 -0.2024,0.319711 -0.20241,0.319695 -0.4048,-0.232508 -0.20241,-0.561896 -0.20242,-0.552239 -0.64771,-1.259417 -0.44529,-0.697542 -0.44528,-0.707236 -1.14361,-1.511332 -0.69829,-0.804092 0,0 z"
     id="path5299"
     inkscape:connector-curvature="0"
     style="fill:#000000;fill-rule:evenodd" />
  <path
     d="m 531.63915,62.444047 11.27407,0 0.92092,-0.8816 1.27517,1.220674 -11.56753,0 -0.43517,0 -0.68819,0.07752 -0.26313,0.08719 -0.51614,-0.503771 z"
     id="path5301"
     inkscape:connector-curvature="0"
     style="fill:#000000;fill-rule:evenodd" />
  <path
     d="m 536.90172,58.462272 0.95133,0.581276 1.1132,0.871932 0.16194,0.290648 0.15183,0.290637 -0.081,0.649099 -0.25301,0.358434 -0.2429,0.358463 -0.41491,-0.203446 -0.17205,-0.571598 -0.18218,-0.561904 -0.68817,-1.23037 -0.52627,-0.668469 0.18216,-0.164702 z"
     id="path5303"
     inkscape:connector-curvature="0"
     style="fill:#000000;fill-rule:evenodd" />
  <path
     d="m 557.83057,60.458015 -0.55662,1.07536 -0.7489,1.49195 -0.20239,0.41659 1.38647,0 0.57687,-0.552215 0.80961,0.775029 -0.51612,0.387527 -0.37447,1.249752 -0.98168,2.131365 -0.60721,0.881599 0.63758,0.687841 1.49782,0.939742 0.87034,0.251896 0,0.164692 -0.40481,-0.02897 -0.57686,0.280969 -0.17205,0.300316 -0.66793,-0.387526 -1.18409,-1.017231 -0.52625,-0.639421 -0.89058,0.833188 -2.22648,1.191616 -1.33588,0.358465 -0.11132,-0.164706 1.27516,-0.53285 2.0443,-1.385377 0.78937,-0.852538 -0.58696,-0.862234 -0.82987,-2.150737 -0.26314,-1.307878 -0.12143,1.443511 -0.62746,2.208857 -0.52628,0.775051 -0.51611,0.775023 -1.5889,1.356322 -1.07275,0.581291 -0.11133,-0.16469 1.06262,-0.775045 1.41686,-1.511334 0.35421,-0.726595 0.34408,-0.736298 0.46555,-1.685705 0.11133,-0.959111 0.11131,-0.949421 0.15183,-2.228251 0.0201,-1.278813 0,0 -0.37445,0 -0.68821,0.08719 -0.32386,0.08717 -0.51611,-0.503761 5.49533,0 0.57686,-0.552226 0.92095,0.881607 -0.68819,0.339085 z m -3.6433,-0.339094 -0.0304,0.833168 -0.0605,1.637265 -0.0303,0.79442 0.43519,1.501638 1.01202,2.160442 0.57686,0.65878 0.52626,-0.716916 0.84,-1.966673 0.31373,-1.249746 -1.61928,0 -0.29348,0.445654 -0.74888,-0.775038 0.23276,-0.05813 0.506,-0.600662 0.27326,-0.552206 0.27326,-0.561904 0.47563,-1.046306 0.20242,-0.503784 -2.8843,0 z"
     id="path5305"
     inkscape:connector-curvature="0"
     style="fill:#000000;fill-rule:evenodd" />
  <path
     d="m 551.75838,66.31925 -1.85203,0.445648 -2.16573,0.716909 -0.32386,0.280956 -0.68819,-1.056007 0.28337,-0.04836 0.60723,-0.406886 0.32383,-0.34877 0.31375,-0.339091 1.01202,-1.259439 0.69832,-0.920366 -0.37447,0.05812 -0.78937,0.135635 -0.40482,0.08717 -0.40481,0.08719 -0.60722,0.242207 -0.19229,0.164697 -0.63758,-0.988174 0.28337,0 0.77927,-0.852568 0.49588,-0.842843 0.48577,-0.842851 0.63759,-1.453205 0.15181,-0.61034 1.21445,0.668474 -0.52628,0.329389 -0.54648,0.92036 -1.30553,1.792273 -0.74888,0.891311 2.66162,-0.05812 0.37445,-0.523167 0.54651,-0.997853 0.17203,-0.474714 1.10313,0.83317 -0.57686,0.222815 -0.80962,1.046321 -1.91275,2.247613 -1.09301,1.191621 3.81538,-0.610345 0,0.271267 z"
     id="path5307"
     inkscape:connector-curvature="0"
     style="fill:#000000;fill-rule:evenodd" />
  <path
     d="m 546.55653,69.4194 0.77926,-0.135617 2.57056,-0.697541 1.7913,-0.552219 0,0.222813 -1.21444,0.503791 -1.62936,0.697542 -0.42505,0.213132 -0.41495,0.203439 -0.59709,0.406893 -0.17204,0.193759 -0.68819,-1.055992 z"
     id="path5309"
     inkscape:connector-curvature="0"
     style="fill:#000000;fill-rule:evenodd" />
  <path
     d="m 568.34559,68.314972 0,0.610345 0.0302,1.210998 0.0304,0.610339 -0.98167,0.387532 0.0303,-0.852553 0.0303,-1.550074 0,-0.697536 0,-3.206729 -4.51365,0 -0.37445,0 -0.6983,0.08721 -0.31375,0.07751 -0.51613,-0.494091 6.41628,0 0,-4.650238 -3.2385,0 -0.37444,0 -0.69828,0.07753 -0.31375,0.08718 -0.52626,-0.49409 9.42203,0 0.80963,-0.775041 1.16382,1.10443 -5.38402,0 0,4.650238 4.2202,0 0.87033,-0.833164 1.21446,1.162557 -6.30499,0 0,3.487683 z"
     id="path5311"
     inkscape:connector-curvature="0"
     style="fill:#000000;fill-rule:evenodd" />
  <path
     d="m 563.54856,60.680823 0.83999,0.581286 1.01203,0.823482 0.17206,0.251885 0.17202,0.251878 0.10121,0.455347 -0.0708,0.203447 -0.0707,0.213141 -0.23279,0.31001 -0.1619,0.116254 -0.15181,0.106577 -0.30361,-0.368151 -0.14169,-0.484394 -0.1518,-0.484396 -0.65784,-1.181947 -0.52625,-0.687848 0.17206,-0.106571 z"
     id="path5313"
     inkscape:connector-curvature="0"
     style="fill:#000000;fill-rule:evenodd" />
  <path
     d="m 571.5335,60.399881 1.21444,0.881603 -0.23276,0 -0.65782,0.503777 -0.41493,0.494083 -0.41493,0.503777 -0.91085,0.939741 -0.49591,0.435957 -0.17205,-0.106563 0.74894,-0.968805 1.04237,-1.821342 0.2935,-0.862228 0,0 z"
     id="path5315"
     inkscape:connector-curvature="0"
     style="fill:#000000;fill-rule:evenodd" />
  <path
     d="m 578.75942,71.250444 0.0304,-0.581292 0.0201,-1.424131 0,-0.852539 0,-0.842874 -0.0201,-1.530694 -0.0304,-0.697523 0.92095,0.561892 6.01145,0 0.40486,-0.561892 1.04238,0.610335 -0.51615,0.445654 0,2.819192 0,0.310046 0.0303,0.775015 0.0201,0.465021 -0.86023,0.387532 0,-0.939735 -6.19365,0 0,0.668488 -0.86022,0.387505 z m 0.86022,-5.037763 0,3.652366 6.19366,0 0,-3.652366 -6.19366,0 z"
     id="path5317"
     inkscape:connector-curvature="0"
     style="fill:#000000;fill-rule:evenodd" />
  <path
     d="m 578.40521,63.500034 8.38975,-0.222823 -0.32386,-0.387511 -1.12337,-1.046305 -0.8096,-0.668482 0.17202,-0.164691 1.10315,0.58128 1.55851,0.900991 0.46555,0.310003 0.45541,0.319707 0.29349,0.726598 -0.17205,0.397222 -0.17204,0.397206 -0.33397,0.155009 -0.16193,-0.251884 -0.16193,-0.242214 -0.32386,-0.474714 -0.18215,-0.222814 -1.21444,0.02903 -2.68189,0.164689 -1.47758,0.145321 -1.47756,0.135634 -1.90262,0.416581 -0.43517,0.271276 -0.80963,-1.385409 0.26313,-0.01938 0.63757,-0.319699 0.37446,-0.290643 0.37448,-0.290635 1.01201,-1.026937 0.63759,-0.736288 0.63757,-0.726599 0.82987,-1.181947 0.2024,-0.435951 1.33588,0.939734 -0.32386,0.04842 -0.55659,0.290641 -0.25301,0.242197 -0.24287,0.232513 -1.9229,1.811658 -1.67996,1.579146 0,0 z"
     id="path5319"
     inkscape:connector-curvature="0"
     style="fill:#000000;fill-rule:evenodd" />
  <path
     d="m 398.80984,22.277582 0.17203,-0.494088 0.31374,-1.220688 0.14169,-0.716913 0.87033,0.552216 3.1272,0 0,-1.656649 -3.18791,0 -0.22263,0 -0.55663,0.0775 -0.31373,0.08718 -0.52626,-0.503777 8.62253,0 0.57685,-0.552216 0.80962,0.77504 -0.46552,0.280953 0,0.804104 0.0304,1.046304 0.0303,0.251888 -0.80964,0.329392 0,-0.610343 -3.23848,0 0,1.714776 4.22016,0 0.57686,-0.552216 0.80964,0.77504 -0.51614,0.329392 -0.12145,0.697535 -0.17205,0.93005 -0.0605,0.232514 -0.0507,0.232512 -0.16192,0.358453 -0.1012,0.125946 -0.10119,0.125945 -0.24291,0.19376 -0.1518,0.06782 -0.14169,0.06781 -0.40481,0.125943 -0.26313,0.05812 0,-0.358455 -0.7489,-0.668473 -0.74892,-0.300329 0,-0.222822 0.74892,0.19376 0.91083,0.174384 0.16192,-0.0097 0.15181,-0.0097 0.23275,-0.174384 0.0708,-0.145323 0.081,-0.155007 0.18216,-0.95911 0.12145,-0.794418 -4.28089,0 0,2.712643 0,0.32939 0.0304,0.687849 0.0304,0.358457 -0.87034,0.280951 0.0303,-0.523153 0.0304,-1.278817 0,-0.745976 0,-1.772904 -0.60721,0.77504 -1.44722,1.249754 -0.83998,0.465024 -0.83998,0.474712 -1.85204,0.77504 -1.012,0.300329 -0.0507,-0.271266 0.77925,-0.280951 1.5484,-0.745977 0.75904,-0.465025 0.76914,-0.474712 1.28529,-1.162559 0.51613,-0.687849 -2.88429,0 -0.4048,0.494088 -0.87035,-0.668473 0.52625,-0.329392 z m 1.32576,-1.550081 -0.11131,0.310018 -0.26314,0.852543 -0.14168,0.552217 3.81536,0 0,-1.714778 -3.29923,0 z m 4.04815,-1.986041 0,1.656649 3.23848,0 0,-1.656649 -3.23848,0 z"
     id="path5321"
     inkscape:connector-curvature="0"
     style="fill:#000000;fill-rule:evenodd" />
  <path
     d="m 400.71248,16.251643 0.46551,0.213139 0.55663,0.445645 0.10121,0.222826 0.10119,0.222823 -0.10119,0.387521 -0.20242,0.164695 -0.20242,0.164696 -0.22265,0 -0.0304,-0.164696 -0.0303,-0.164695 -0.12144,-0.377833 -0.0809,-0.203448 -0.0911,-0.213135 -0.28337,-0.455338 -0.20242,-0.2422 -0.69829,0 -0.23277,0.213139 -0.506,0.474709 -0.27326,0.25189 -0.27324,0.242199 -0.67808,0.503778 -0.40482,0.242198 -0.11131,-0.213135 0.4048,-0.368145 0.77928,-0.87192 0.37445,-0.503776 0.37444,-0.513463 0.54651,-1.036616 0.17204,-0.532841 1.16384,0.726599 -0.18217,0.0775 -0.54647,0.532841 -0.37448,0.43596 2.48961,0 0.68819,-0.658784 0.98168,0.997865 -3.34983,0 z"
     id="path5323"
     inkscape:connector-curvature="0"
     style="fill:#000000;fill-rule:evenodd" />
  <path
     d="m 405.33745,14.197787 1.15374,0.716912 -0.20242,0.05812 -0.54652,0.503775 -0.34408,0.435961 2.94502,0 0.6983,-0.658786 0.98167,0.997866 -3.70403,0 0.37446,0.19376 0.52624,0.368145 0.14167,0.184071 0.14169,0.174384 -0.0406,0.406897 -0.19229,0.213136 -0.18218,0.222824 -0.26311,0.02906 -0.0708,-0.19376 -0.0707,-0.19376 -0.13158,-0.358455 -0.0606,-0.164697 -0.0506,-0.164696 -0.26314,-0.445648 -0.20243,-0.271265 -0.8096,0 -0.23277,0.242199 -0.4048,0.426273 -0.17206,0.184072 -0.17204,0.184072 -0.57688,0.484402 -0.4048,0.300325 -0.17206,-0.164694 0.5465,-0.581282 0.77928,-1.026925 0.23276,-0.43596 0.23277,-0.44565 0.37446,-0.833167 0.14168,-0.387522 0,0 z"
     id="path5325"
     inkscape:connector-curvature="0"
     style="fill:#000000;fill-rule:evenodd" />
  <path
     d="m 417.2491,19.564941 0,-2.044169 -0.0304,-2.654513 -0.0304,-0.610344 1.44721,0.610344 -0.51615,0.38752 0,4.088338 4.73633,-1.162561 0.63759,-0.881607 1.32575,0.775039 -6.69967,1.60821 0,4.921505 -0.0304,0.445647 0.57685,0.44565 0.6072,0 3.75465,0 0.32386,0.01938 0.37445,-0.53284 0.0606,-0.571593 0.0507,-0.561904 0.0911,-1.065682 0.0304,-0.503776 0.28335,0 0.0304,0.668474 0.0911,1.075368 0.0506,0.416584 0.0606,0.416584 0.37446,0.465025 0.32383,0.05813 -0.18214,0.44565 -1.01206,0.416585 -0.82986,-0.02906 -4.28089,0 -0.83998,-0.02906 -0.80964,-0.639408 0.0304,-0.610344 0,-5.028075 -3.75463,0.881609 -0.3846,0.08718 -0.60721,0.242202 -0.22263,0.164695 -0.75905,-0.387522 5.72812,-1.327256 z"
     id="path5327"
     inkscape:connector-curvature="0"
     style="fill:#000000;fill-rule:evenodd" />
  <path
     d="m 437.88443,16.193516 -0.54649,1.075369 -0.74892,1.491952 -0.20241,0.416584 1.38649,0 0.57686,-0.552216 0.80964,0.775039 -0.51616,0.387523 -0.37444,1.249752 -0.99179,2.13136 -0.60721,0.881608 0.63758,0.687848 1.50791,0.949423 0.87035,0.242202 0,0.164696 -0.40481,-0.01938 -0.58697,0.271265 -0.17205,0.310016 -0.65783,-0.387519 -1.19418,-1.026927 -0.51614,-0.63941 -0.89059,0.833167 -2.22648,1.191625 -1.33589,0.358456 -0.1113,-0.164694 1.26502,-0.532841 2.05443,-1.375698 0.77928,-0.862232 -0.57686,-0.862232 -0.84,-2.150736 -0.25301,-1.307881 -0.12144,1.443512 -0.63758,2.208864 -0.51614,0.775042 -0.51614,0.77504 -1.59901,1.356321 -1.06263,0.58128 -0.12144,-0.164696 1.07276,-0.775042 1.41681,-1.50164 0.34412,-0.736289 0.35422,-0.736287 0.45539,-1.685712 0.12144,-0.959114 0.11135,-0.949422 0.14167,-2.228241 0.0304,-1.269129 0,0 -0.37448,0 -0.68816,0.0775 -0.32385,0.08719 -0.51613,-0.503776 5.48521,0 0.58699,-0.552214 0.92092,0.891294 -0.69828,0.329394 z m -3.6332,-0.329392 -0.0304,0.823481 -0.0606,1.637271 -0.0304,0.804106 0.43516,1.491951 1.01205,2.160426 0.57685,0.658784 0.51614,-0.716914 0.83998,-1.966664 0.32385,-1.240064 -1.61926,0 -0.29348,0.435962 -0.7489,-0.775042 0.23277,-0.04844 0.50601,-0.610346 0.27322,-0.552214 0.27326,-0.561905 0.47567,-1.046304 0.20243,-0.494089 -2.88432,0 z"
     id="path5329"
     inkscape:connector-curvature="0"
     style="fill:#000000;fill-rule:evenodd" />
  <path
     d="m 431.82235,22.054758 -1.85202,0.445647 -2.16573,0.716913 -0.32385,0.280952 -0.68822,-1.055991 0.28339,-0.04844 0.60724,-0.406895 0.32382,-0.339078 0.31374,-0.348769 1.01203,-1.25944 0.68818,-0.910671 -0.37446,0.04844 -0.77926,0.14532 -0.40481,0.0775 -0.40481,0.08719 -0.60723,0.242199 -0.2024,0.174384 -0.63758,-0.997864 0.29351,0 0.77927,-0.842856 0.49587,-0.852545 0.48579,-0.842856 0.63758,-1.453202 0.14168,-0.600654 1.21441,0.658784 -0.51613,0.329392 -0.54649,0.920359 -1.30552,1.792281 -0.74889,0.891297 2.66165,-0.05812 0.37443,-0.523152 0.54651,-0.997867 0.17204,-0.474708 1.10312,0.833166 -0.57686,0.222822 -0.80963,1.046307 -1.91274,2.247618 -1.093,1.191622 3.81537,-0.610344 0,0.271265 z"
     id="path5331"
     inkscape:connector-curvature="0"
     style="fill:#000000;fill-rule:evenodd" />
  <path
     d="m 426.61038,25.154918 0.78941,-0.135632 2.57054,-0.687847 1.79132,-0.561904 0,0.222824 -1.21446,0.503776 -1.62937,0.707224 -0.42506,0.203449 -0.41494,0.203446 -0.59707,0.406898 -0.17209,0.193759 -0.69828,-1.055993 z"
     id="path5333"
     inkscape:connector-curvature="0"
     style="fill:#000000;fill-rule:evenodd" />
  <path
     d="m 448.40956,24.050487 0,0.610344 0.0304,1.220688 0.0303,0.600656 -0.98169,0.387523 0.0303,-0.852546 0.0201,-1.550082 0,-0.697535 0,-3.206729 -4.50355,0 -0.37445,0 -0.69832,0.08718 -0.31372,0.0775 -0.52625,-0.494088 6.41629,0 0,-4.650241 -3.22838,0 -0.38458,0 -0.6882,0.08718 -0.32383,0.0775 -0.51615,-0.49409 9.42203,0 0.80962,-0.775038 1.15374,1.104433 -5.37391,0 0,4.650242 4.22017,0 0.87035,-0.833169 1.21447,1.162562 -6.30499,0 0,3.48768 z"
     id="path5335"
     inkscape:connector-curvature="0"
     style="fill:#000000;fill-rule:evenodd" />
  <path
     d="m 443.61252,16.416338 0.84,0.581283 1.01202,0.823478 0.17207,0.251889 0.17205,0.251888 0.10119,0.455337 -0.0708,0.203449 -0.0708,0.213136 -0.23277,0.319703 -0.16191,0.106569 -0.15182,0.106568 -0.30362,-0.368145 -0.1518,-0.4844 -0.14169,-0.484401 -0.66794,-1.181936 -0.51612,-0.687849 0.17201,-0.106569 z"
     id="path5337"
     inkscape:connector-curvature="0"
     style="fill:#000000;fill-rule:evenodd" />
  <path
     d="m 451.58733,16.135388 1.21447,0.881609 -0.22265,0 -0.65782,0.503775 -0.41496,0.494088 -0.42504,0.503777 -0.91084,0.939736 -0.48576,0.445648 -0.17204,-0.116254 0.74889,-0.968803 1.04239,-1.821343 0.28336,-0.862233 0,0 z"
     id="path5339"
     inkscape:connector-curvature="0"
     style="fill:#000000;fill-rule:evenodd" />
  <path
     d="m 458.8234,26.985951 0.0201,-0.581279 0.0304,-1.424136 0,-0.842858 0,-0.852544 -0.0304,-1.530702 -0.0201,-0.687851 0.92095,0.552217 6.01148,0 0.40481,-0.552217 1.04238,0.600657 -0.52625,0.445648 0,2.819209 0,0.310017 0.0304,0.77504 0.0303,0.465023 -0.87034,0.387523 0,-0.939738 -6.18353,0 0,0.668471 -0.86023,0.38752 z m 0.86022,-5.037759 0,3.652376 6.18352,0 0,-3.652376 -6.18352,0 z"
     id="path5341"
     inkscape:connector-curvature="0"
     style="fill:#000000;fill-rule:evenodd" />
  <path
     d="m 458.46919,19.235549 8.38974,-0.222824 -0.32382,-0.38752 -1.12339,-1.046304 -0.80962,-0.668474 0.17203,-0.164694 1.09301,0.581277 1.56866,0.900986 0.4554,0.319706 0.46554,0.310015 0.29347,0.7266 -0.17203,0.397208 -0.18214,0.406896 -0.32386,0.14532 -0.16193,-0.242198 -0.16193,-0.251889 -0.33396,-0.474713 -0.17207,-0.222824 -1.21443,0.02906 -2.6819,0.164693 -1.47755,0.145322 -1.47758,0.13563 -1.90262,0.416585 -0.43517,0.271264 -0.80963,-1.375696 0.26313,-0.02906 0.62747,-0.319703 0.38457,-0.290641 0.37445,-0.290639 1.01204,-1.026928 0.62744,-0.7266 0.63757,-0.736289 0.84002,-1.181938 0.20239,-0.43596 1.33589,0.939738 -0.32385,0.05811 -0.56674,0.290642 -0.24289,0.23251 -0.24288,0.232514 -1.92288,1.811655 -1.67995,1.579145 0,0 z"
     id="path5343"
     inkscape:connector-curvature="0"
     style="fill:#000000;fill-rule:evenodd" />
  <path
     d="m 200.83284,198.94068 -0.3075,-92.72121"
     id="path5397"
     inkscape:connector-curvature="0"
     style="fill:none;stroke:#000000;stroke-width:0.42408583" />
  <path
     d="m 378.49834,283.03989 0,41.70687"
     id="path5505"
     inkscape:connector-curvature="0"
     style="fill:none;stroke:#000000;stroke-width:0.49509037" />
  <path
     d="M 378.49468,283.66133 378.26924,106.2567"
     id="path5557"
     inkscape:connector-curvature="0"
     style="fill:none;stroke:#000000;stroke-width:0.50226402" />
  <path
     d="m 557.21015,198.88842 -0.30757,-92.66895"
     id="path5713"
     inkscape:connector-curvature="0"
     style="fill:none;stroke:#000000;stroke-width:0.42402652" />
  <path
     d="m 568.3907,312.11847 0,-113.19476"
     id="path5939-7-3"
     inkscape:connector-curvature="0"
     style="fill:none;stroke:#000000;stroke-width:0.98306" />
  <path
     d="m 549.88685,312.43669 0,-113.87395"
     id="path5939-7-3-1"
     inkscape:connector-curvature="0"
     style="fill:none;stroke:#000000;stroke-width:0.97061974" />
  <path
     style="fill:none;stroke:#000000;stroke-width:0.68020195px;stroke-linecap:butt;stroke-linejoin:miter;stroke-opacity:1"
     d="m 548.82175,313.00609 c 20.29079,0.0541 20.74466,0.0326 20.74466,0.0326"
     id="path8189-1"
     inkscape:connector-curvature="0" />
  <path
     d="m 209.77288,312.71129 0,-113.19474"
     id="path5939-7-3-4"
     inkscape:connector-curvature="0"
     style="fill:none;stroke:#000000;stroke-width:0.98305994" />
  <path
     d="m 191.26903,313.02951 0,-113.87394"
     id="path5939-7-3-1-4"
     inkscape:connector-curvature="0"
     style="fill:none;stroke:#000000;stroke-width:0.97061974" />
  <path
     style="fill:none;stroke:#000000;stroke-width:0.68020195px;stroke-linecap:butt;stroke-linejoin:miter;stroke-opacity:1"
     d="m 190.20395,313.59892 c 20.29078,0.0541 20.74465,0.0326 20.74465,0.0326"
     id="path8189-1-8"
     inkscape:connector-curvature="0" />
</svg>
