<?xml version="1.0" encoding="UTF-8" standalone="no"?>
<svg
   xmlns:dc="http://purl.org/dc/elements/1.1/"
   xmlns:cc="http://creativecommons.org/ns#"
   xmlns:rdf="http://www.w3.org/1999/02/22-rdf-syntax-ns#"
   xmlns:svg="http://www.w3.org/2000/svg"
   xmlns="http://www.w3.org/2000/svg"
   xmlns:xlink="http://www.w3.org/1999/xlink"
   xmlns:sodipodi="http://sodipodi.sourceforge.net/DTD/sodipodi-0.dtd"
   xmlns:inkscape="http://www.inkscape.org/namespaces/inkscape"
   width="800.000"
   height="400.000"
   viewBox="0.0 0.0 800.000 400.000"
   id="svg3889"
   onload="init(evt)"
   ondrop="drop(evt)"
   ondragover="allowDrop(evt)"
   version="1.1"
   inkscape:version="0.48.4 r9939"
   sodipodi:docname="xinxu_11.svg">
  <script
     xlink:href="init.js"
     id="script3184"
     language="JavaScript" />
  <script
     xlink:href="jquery-2.0.3.min.js"
     id="script3186"
     language="JavaScript" />
  <script
     xlink:href="cookie.js"
     id="script3188"
     language="JavaScript" />
  <metadata
     id="metadata4791">
    <rdf:RDF>
      <cc:Work
         rdf:about="">
        <dc:format>image/svg+xml</dc:format>
        <dc:type
           rdf:resource="http://purl.org/dc/dcmitype/StillImage" />
      </cc:Work>
    </rdf:RDF>
  </metadata>
  <defs
     id="defs4789" />
  <sodipodi:namedview
     pagecolor="#ffffff"
     bordercolor="#666666"
     borderopacity="1"
     objecttolerance="10"
     gridtolerance="10"
     guidetolerance="10"
     inkscape:pageopacity="0"
     inkscape:pageshadow="2"
     inkscape:window-width="1920"
     inkscape:window-height="1018"
     id="namedview4787"
     showgrid="false"
     inkscape:zoom="1.1125147"
     inkscape:cx="439.59726"
     inkscape:cy="86.545613"
     inkscape:window-x="1432"
     inkscape:window-y="-8"
     inkscape:window-maximized="1"
     inkscape:current-layer="svg3889" />
  <title
     id="title3891">Produce by DWG to SVG Converter 2013 MX</title>
  <desc
     id="desc3893">Produce by DWG to SVG Converter 2013 MX</desc>
  <path
     d="m 95.852808,387.92245 -0.720841,0.0694 m 0,0 -0.695547,0.0496 m 0,0 -0.695546,0.0396 m 0,0 -0.695546,0.0396 m 0,0 -0.682902,0.009 m 0,0 -0.6829,0.009 m 0,0 -1.340509,-0.0198 m 0,0 -1.315214,-0.0694 m 0,0 -1.289925,-0.10894 m 0,0 -1.264631,-0.15846 m 0,0 -1.239336,-0.19806 m 0,0 -1.214048,-0.24758 m 0,0 -1.201396,-0.2872 m 0,0 -1.163461,-0.32681 m 0,0 -1.150813,-0.36643 m 0,0 -1.125524,-0.40603 m 0,0 -1.100227,-0.44566 m 0,0 -1.087582,-0.48524 m 0,0 -1.06229,-0.52488 m 0,0 -1.036998,-0.56449 m 0,0 -1.011705,-0.59421 m 0,0 -0.999058,-0.63381 m 0,0 -0.973763,-0.66353 m 0,0 -0.96112,-0.70313 m 0,0 -0.935828,-0.73286 m 0,0 -0.910533,-0.76255 m 0,0 -0.897889,-0.79226 m 0,0 -0.885241,-0.83188 m 0,0 -0.859949,-0.85169 m 0,0 -0.834655,-0.8814 m 0,0 -0.82201,-0.9111 m 0,0 -0.796718,-0.94081 m 0,0 -0.78407,-0.97055 m 0,0 -0.771425,-0.99032 m 0,0 -0.758778,-1.02004 m 0,0 -0.72084,-1.03986 m 0,0 -0.72084,-1.06955 m 0,0 -0.708194,-1.08937 m 0,0 -0.682899,-1.10917 m 0,0 -0.657609,-1.12898 m 0,0 -0.657607,-1.14879 m 0,0 -0.632313,-1.1686 m 0,0 -0.632317,-1.18839 m 0,0 -0.607022,-1.20821 m 0,0 -0.581731,-1.22802 m 0,0 -0.581731,-1.23792 m 0,0 -0.569084,-1.25772 m 0,0 -0.54379,-1.26763 m 0,0 -0.543791,-1.28742 m 0,0 -0.518499,-1.29734 m 0,0 -0.518497,-1.30724 m 0,0 -0.493208,-1.32705 m 0,0 -0.480557,-1.32705 m 0,0 -0.480561,-1.34685 m 0,0 -0.467914,-1.35676 m 0,0 -0.885241,-2.72342 m 0,0 -0.847302,-2.76302 m 0,0 -0.796718,-2.77294 m 0,0 -0.771425,-2.79274 m 0,0 -0.720838,-2.80264 m 0,0 -0.695548,-2.80265 m 0,0 -0.657607,-2.80265 m 0,0 -0.632317,-2.79273 m 0,0 -0.60702,-2.77294 m 0,0 -0.569086,-2.75313 m 0,0 -0.556438,-2.72342 m 0,0 -0.518497,-2.6838 m 0,0 -0.518499,-2.64417 m 0,0 -0.240281,-1.30725 m 0,0 -0.240279,-1.28744 m 0,0 -0.240279,-1.28744 m 0,0 -0.240279,-1.25771 m 0,0 -0.227634,-1.25772 m 0,0 -0.24028,-1.22801 m 0,0 -0.227634,-1.22803 m 0,0 -0.214989,-1.2082 m 0,0 -0.442619,-2.3867 m 0,0 -0.417328,-2.33719 m 0,0 -0.417328,-2.29758 m 0,0 -0.392035,-2.26786 m 0,0 -0.392037,-2.22824 m 0,0 -0.366741,-2.19854 m 0,0 -0.366744,-2.18865 m 0,0 -0.354096,-2.15893 m 0,0 -0.341451,-2.14902 m 0,0 -0.657608,-4.27824 m 0,0 -0.607023,-4.26834 m 0,0 -0.290864,-2.14903 m 0,0 -0.278219,-2.15891 m 0,0 -0.27822,-2.17875 m 0,0 -0.265572,-2.18863 m 0,0 -0.252925,-2.21834 m 0,0 -0.24028,-2.22825 m 0,0 -0.240281,-2.24806 m 0,0 -0.227632,-2.26786 m 0,0 -0.214987,-2.27778 m 0,0 -0.202341,-2.29757 m 0,0 -0.202342,-2.30747 m 0,0 -0.177048,-2.32729 m 0,0 -0.177049,-2.33719 m 0,0 -0.1644,-2.35698 m 0,0 -0.139109,-2.36691 m 0,0 -0.139112,-2.37678 m 0,0 -0.126468,-2.39662 m 0,0 -0.11382,-2.39661 m 0,0 -0.101172,-2.41642 m 0,0 -0.08852,-2.4164 m 0,0 -0.07588,-2.43622 m 0,0 -0.06323,-2.43622 m 0,0 -0.05058,-2.45604 m 0,0 -0.03795,-2.45602 m 0,0 -0.0253,-2.46593 m 0,0 -0.01264,-2.47584 m 0,0 0.01264,-2.47583 m 0,0 0.0253,-2.48574 m 0,0 0.0253,-2.49563 m 0,0 0.05058,-2.49564 m 0,0 0.07588,-2.50555 m 0,0 0.07588,-2.50554 m 0,0 0.101172,-2.50555 m 0,0 0.113821,-2.50554 m 0,0 0.126468,-2.51545 m 0,0 0.13911,-2.51543 m 0,0 0.164401,-2.51545 m 0,0 0.17705,-2.52536 m 0,0 0.20234,-2.51545 m 0,0 0.214987,-2.51544 m 0,0 0.227632,-2.51544 m 0,0 0.252929,-2.51546 m 0,0 0.265572,-2.51544 m 0,0 0.278218,-2.51545 m 0,0 0.303511,-2.50555 m 0,0 0.328804,-2.50553 m 0,0 0.34145,-2.49565 m 0,0 0.354097,-2.49566 m 0,0 0.379389,-2.49561 m 0,0 0.404683,-2.48574 m 0,0 0.417326,-2.47585 m 0,0 0.429975,-2.47583 m 0,0 0.467914,-2.46593 m 0,0 0.480559,-2.45602 m 0,0 0.493206,-2.44613 m 0,0 0.531144,-2.44613 m 0,0 0.531146,-2.4362 m 0,0 0.569083,-2.41642 m 0,0 0.58173,-2.41641 m 0,0 0.607023,-2.39661 m 0,0 0.632316,-2.38671 m 0,0 0.657608,-2.3768 m 0,0 0.670254,-2.3669 m 0,0 0.695546,-2.35699 m 0,0 0.720841,-2.33719 m 0,0 0.746133,-2.32728 m 0,0 0.771424,-2.30749 m 0,0 0.796716,-2.29757 m 0,0 0.809365,-2.27776 m 0,0 0.834655,-2.26786 m 0,0 0.872595,-2.23815 m 0,0 0.885242,-2.238151 m 0,0 0.910533,-2.208442 m 0,0 0.948473,-2.188645 m 0,0 0.96112,-2.178733 m 0,0 0.986413,-2.158928 m 0,0 1.011703,-2.12922 m 0,0 1.049643,-2.119308 m 0,0 1.062289,-2.089607 m 0,0 1.100231,-2.079696 m 0,0 1.125519,-2.049992 m 0,0 1.138168,-2.030181 m 0,0 1.176107,-2.000477 m 0,0 1.201399,-1.980667 m 0,0 1.239338,-1.960863 m 0,0 1.251984,-1.931152 m 0,0 1.289924,-1.911343 m 0,0 1.315216,-1.88163 m 0,0 1.340506,-1.861828 m 0,0 1.378448,-1.822213 m 0,0 1.40374,-1.802405 m 0,0 1.429033,-1.782604 m 0,0 1.454325,-1.742989 m 0,0 1.492265,-1.723175 m 0,0 1.517556,-1.683562 m 0,0 1.555496,-1.663769 m 0,0 1.580788,-1.62415 m 0,0 1.618727,-1.594432 m 0,0 1.631372,-1.564728 m 0,0 1.681962,-1.535017 m 0,0 1.70725,-1.505305 m 0,0 1.732544,-1.465694 m 0,0 1.770483,-1.435983 m 0,0 1.795775,-1.406273 m 0,0 1.833714,-1.36666 m 0,0 1.871652,-1.327047 m 0,0 1.896947,-1.297337 m 0,0 1.922239,-1.257724 m 0,0 1.972829,-1.21811 m 0,0 1.99811,-1.1884 m 0,0 2.02342,-1.158691 m 0,0 2.06134,-1.109172 m 0,0 2.0993,-1.089367 m 0,0 2.11192,-1.049753 m 0,0 2.16253,-1.010142 m 0,0 2.18781,-0.980428 m 0,0 2.2131,-0.950722 m 0,0 2.2384,-0.921008 m 0,0 2.27633,-0.891302 m 0,0 2.30162,-0.851687 m 0,0 2.32693,-0.821977 m 0,0 2.36486,-0.802168 m 0,0 2.39015,-0.762558 m 0,0 2.41544,-0.732847 m 0,0 2.44072,-0.713041 m 0,0 2.46604,-0.683329 m 0,0 2.49131,-0.65362 m 0,0 2.51664,-0.623911 m 0,0 2.55455,-0.594199 m 0,0 2.56719,-0.574393 m 0,0 2.5925,-0.544684 m 0,0 2.63045,-0.524876 m 0,0 2.64306,-0.495166 m 0,0 2.66838,-0.475362 m 0,0 2.69365,-0.445649 m 0,0 2.70632,-0.425844 m 0,0 2.74424,-0.406035 m 0,0 2.75689,-0.386231 m 0,0 2.78219,-0.35652 m 0,0 2.80749,-0.336714 m 0,0 2.82012,-0.316907 m 0,0 2.84541,-0.297099 m 0,0 2.85808,-0.277294 m 0,0 2.896,-0.257487 m 0,0 2.896,-0.237679 m 0,0 2.93394,-0.2277777 m 0,0 2.93394,-0.1980666 m 0,0 2.97189,-0.1881628 m 0,0 2.97187,-0.1683571 m 0,0 3.00983,-0.1485505 m 0,0 3.00982,-0.1386466 m 0,0 3.03511,-0.11884 m 0,0 3.04777,-0.1089361 m 0,0 3.0604,-0.089125 m 0,0 3.0857,-0.079233 m 0,0 3.09835,-0.059428 m 0,0 3.11099,-0.049514 m 0,0 3.13629,-0.039612 m 0,0 3.13628,-0.029709 m 0,0 3.16157,-0.00993 m 0,0 3.16158,0 m 0,0 3.18688,0.00993 m 0,0 3.1995,0.00993 m 0,0 3.21216,0.029719 m 0,0 3.2248,0.039611 m 0,0 3.22482,0.039612 m 0,0 6.51284,0.1188411 m 0,0 6.53813,0.1485483 m 0,0 6.58875,0.1683571 m 0,0 6.62664,0.1881639 m 0,0 6.65197,0.2079705 m 0,0 6.6899,0.2277761 m 0,0 6.72784,0.2277771 m 0,0 6.74047,0.2376803 m 0,0 6.76577,0.237679 m 0,0 6.79108,0.237682 m 0,0 6.80372,0.237678 m 0,0 13.64535,0.465458 m 0,0 13.70859,0.455552 m 0,0 13.72125,0.465458 m 0,0 13.74654,0.485264 m 0,0 13.74652,0.495166 m 0,0 13.72123,0.53478 m 0,0 6.85432,0.287197 m 0,0 6.84164,0.287196 m 0,0 6.82902,0.307004 m 0,0 6.81634,0.316906 m 0,0 6.80373,0.32681 m 0,0 6.77841,0.346616 m 0,0 6.76578,0.366423 m 0,0 6.74049,0.376328 m 0,0 6.71518,0.406037 m 0,0 6.68989,0.41594 m 0,0 6.66461,0.435747 m 0,0 6.6393,0.465456 m 0,0 6.60138,0.47536 m 0,0 6.57609,0.514974 m 0,0 6.53813,0.524876 m 0,0 6.48756,0.554587 m 0,0 6.46226,0.584295 m 0,0 6.42432,0.614008 m 0,0 6.37373,0.643717 m 0,0 6.32316,0.673427 m 0,0 6.28521,0.703136 m 0,0 3.12364,0.35652 m 0,0 3.111,0.376327 m 0,0 3.09833,0.376327 m 0,0 3.07306,0.38623 m 0,0 3.07305,0.396133 m 0,0 3.06041,0.406037 m 0,0 3.04776,0.415941 m 0,0 3.02246,0.425843 m 0,0 3.02249,0.425843 m 0,0 2.99715,0.44565 m 0,0 2.98453,0.445651 m 0,0 2.98454,0.465456 m 0,0 2.94656,0.465457 m 0,0 2.94661,0.485264 m 0,0 2.92129,0.485262 m 0,0 2.90865,0.505072 m 0,0 2.89601,0.505069 m 0,0 2.88337,0.524876 m 0,0 2.85805,0.524877 m 0,0 2.84542,0.544684 m 0,0 2.82011,0.544683 m 0,0 2.80749,0.564491 m 0,0 2.79483,0.574392 m 0,0 2.78219,0.584297 m 0,0 2.74424,0.5942 m 0,0 2.74426,0.614007 m 0,0 2.71894,0.614007 m 0,0 2.69367,0.633813 m 0,0 2.68102,0.633815 m 0,0 2.66837,0.653619 m 0,0 2.64308,0.673427 m 0,0 2.61778,0.673426 m 0,0 2.60514,0.693234 m 0,0 2.57985,0.703136 m 0,0 2.5672,0.71304 m 0,0 2.5419,0.722944 m 0,0 2.51662,0.742749 m 0,0 2.49133,0.752655 m 0,0 2.47868,0.772458 m 0,0 2.45337,0.772461 m 0,0 2.44074,0.802168 m 0,0 2.41545,0.802175 m 0,0 2.37751,0.821974 m 0,0 2.36484,0.831877 m 0,0 2.35223,0.851693 m 0,0 2.31426,0.861587 m 0,0 2.30163,0.871499 m 0,0 2.26369,0.891298 m 0,0 2.25105,0.9012 m 0,0 2.22575,0.921015 m 0,0 2.20045,0.930911 m 0,0 2.17517,0.95072 m 0,0 2.14987,0.960621 m 0,0 2.12457,0.980436 m 0,0 2.0993,1.000227 m 0,0 2.07398,1.000243 m 0,0 2.0487,1.029947 m 0,0 2.02343,1.03986 m 0,0 1.9981,1.049746 m 0,0 1.97283,1.079464 m 0,0 1.93488,1.079459 m 0,0 1.92224,1.109176 m 0,0 1.8843,1.119079 m 0,0 1.85902,1.138881 m 0,0 1.8337,1.148781 m 0,0 1.80842,1.168608 m 0,0 1.77049,1.188396 m 0,0 1.74518,1.198303 m 0,0 1.71992,1.228003 m 0,0 1.69458,1.237924 m 0,0 1.65667,1.24782 m 0,0 1.63139,1.277524 m 0,0 1.60607,1.28744 m 0,0 1.56813,1.307242 m 0,0 1.54286,1.32704 m 0,0 1.50491,1.33696 m 0,0 1.47961,1.366658 m 0,0 1.45434,1.376554 m 0,0 1.41638,1.396385 m 0,0 1.37844,1.416166 m 0,0 1.35317,1.435981 m 0,0 1.32785,1.455797 m 0,0 1.28994,1.475602 m 0,0 1.25197,1.485494 m 0,0 1.22672,1.515214 m 0,0 1.20138,1.525105 m 0,0 1.15082,1.544922 m 0,0 1.12552,1.574639 m 0,0 1.10024,1.58453 m 0,0 1.06227,1.60435 m 0,0 1.037,1.62414 m 0,0 1.01172,1.63405 m 0,0 0.97376,1.66376 m 0,0 0.93581,1.67367 m 0,0 0.91054,1.69347 m 0,0 0.88524,1.71327 m 0,0 0.85997,1.72318 m 0,0 0.82199,1.74299 m 0,0 0.79671,1.76278 m 0,0 0.75879,1.78261 m 0,0 0.74612,1.79251 m 0,0 0.70821,1.8123 m 0,0 0.68291,1.82223 m 0,0 0.65758,1.85192 m 0,0 0.63232,1.85191 m 0,0 0.59438,1.88164 m 0,0 0.58174,1.89154 m 0,0 0.54379,1.90144 m 0,0 0.53116,1.92124 m 0,0 0.49318,1.94106 m 0,0 0.46791,1.95096 m 0,0 0.44264,1.96086 m 0,0 0.42997,1.98067 m 0,0 0.39205,2.00047 m 0,0 0.37936,2.01038 m 0,0 0.34147,2.02027 m 0,0 0.3288,2.04009 m 0,0 0.29086,2.04999 m 0,0 0.27823,2.0698 m 0,0 0.26555,2.07971 m 0,0 0.22765,2.08959 m 0,0 0.20235,2.10942 m 0,0 0.18968,2.10941 m 0,0 0.1644,2.13912 m 0,0 0.15175,2.13912 m 0,0 0.11384,2.15891 m 0,0 0.10119,2.16884 m 0,0 0.0885,2.17873 m 0,0 0.0506,2.18864 m 0,0 0.0506,2.20845 m 0,0 0.0127,2.21834 m 0,0 0,2.22825 m 0,0 -0.0127,2.23814 m 0,0 -0.0506,2.24808 m 0,0 -0.0506,2.25795 m 0,0 -0.0759,2.27777 m 0,0 -0.10119,2.27778 m 0,0 -0.1012,2.29756 m 0,0 -0.13911,2.30749 m 0,0 -0.13911,2.30748 m 0,0 -0.16439,2.32727 m 0,0 -0.1897,2.33719 m 0,0 -0.18969,2.33718 m 0,0 -0.21501,2.357 m 0,0 -0.24026,2.36689 m 0,0 -0.24028,2.36691 m 0,0 -0.26558,2.3867 m 0,0 -0.27822,2.38669 m 0,0 -0.29086,2.39661 m 0,0 -0.3035,2.40652 m 0,0 -0.32882,2.41641 m 0,0 -0.3288,2.42631 m 0,0 -0.35409,2.43623 m 0,0 -0.3541,2.43621 m 0,0 -0.37939,2.44613 m 0,0 -0.39204,2.45602 m 0,0 -0.80936,4.93187 m 0,0 -0.87259,4.97147 m 0,0 -0.91053,4.98137 m 0,0 -0.96113,5.021 m 0,0 -0.99905,5.04079 m 0,0 -1.03701,5.0606 m 0,0 -1.07493,5.09034 m 0,0 -1.11288,5.1002 m 0,0 -1.13816,5.12992 m 0,0 -1.17612,5.13984 m 0,0 -1.20138,5.15964 m 0,0 -1.23935,5.17946 m 0,0 -1.25197,5.18933 m 0,0 -1.27729,5.20915 m 0,0 -1.30256,5.20915 m 0,0 -1.31522,5.22896 m 0,0 -1.32787,5.23886 m 0,0 -2.69366,10.48763 m 0,0 -2.74424,10.51735 m 0,0 -2.74425,10.51735"
     id="path4079"
     inkscape:connector-curvature="0"
     style="fill:none;stroke:#000000;stroke-width:0.55955476" />
  <path
     d="m 42.738322,118.09619 717.273178,0"
     id="path4081"
     inkscape:connector-curvature="0"
     style="fill:none;stroke:#000000;stroke-width:0.55955476" />
  <path
     d="m 32.823618,250.81079 734.902122,0"
     id="path4083"
     inkscape:connector-curvature="0"
     style="fill:none;stroke:#000000;stroke-width:0.55955476" />
  <path
     d="m 143.01088,326.65051 0.0253,-1.48549 m 0,0 0.0759,-1.4855 m 0,0 0.12648,-1.4855 m 0,0 0.17705,-1.4855 m 0,0 0.21499,-1.47559 m 0,0 0.27822,-1.4657 m 0,0 0.32879,-1.46569 m 0,0 0.37939,-1.4558 m 0,0 0.41735,-1.45578 m 0,0 0.48056,-1.43599 m 0,0 0.51848,-1.43597 m 0,0 0.56909,-1.41619 m 0,0 0.61968,-1.40627 m 0,0 0.6576,-1.38645 m 0,0 0.72084,-1.37659 m 0,0 0.75877,-1.36666 m 0,0 0.79673,-1.34684 m 0,0 0.8473,-1.32706 m 0,0 0.89789,-1.31715 m 0,0 0.93583,-1.28742 m 0,0 0.98639,-1.27752 m 0,0 1.02437,-1.24783 m 0,0 1.06229,-1.22802 m 0,0 1.11286,-1.2082 m 0,0 1.15082,-1.18839 m 0,0 1.18876,-1.1587 m 0,0 1.22669,-1.13888 m 0,0 1.26463,-1.10917 m 0,0 1.30256,-1.07946 m 0,0 1.32786,-1.04976 m 0,0 1.37846,-1.02994 m 0,0 1.40374,-1.00026 m 0,0 1.44167,-0.97051 m 0,0 1.47962,-0.93092 m 0,0 1.50492,-0.9111 m 0,0 1.53021,-0.8715 m 0,0 1.56811,-0.84179 m 0,0 1.59345,-0.81205 m 0,0 1.60608,-0.78237 m 0,0 1.65666,-0.74275 m 0,0 1.65669,-0.70315 m 0,0 1.69459,-0.67342 m 0,0 1.7199,-0.64372 m 0,0 1.73254,-0.6041 m 0,0 1.75784,-0.56448 m 0,0 1.77049,-0.53479 m 0,0 1.79577,-0.48527 m 0,0 1.8084,-0.45554 m 0,0 1.82109,-0.42584 m 0,0 1.83371,-0.37635 m 0,0 1.84635,-0.3367 m 0,0 1.859,-0.307 m 0,0 1.87167,-0.2674 m 0,0 1.87166,-0.22777 m 0,0 1.8843,-0.18817 m 0,0 1.8843,-0.13864 m 0,0 1.89693,-0.10894 m 0,0 1.89696,-0.0694 m 0,0 1.89694,-0.0297 m 0,0 1.89695,0.009 m 0,0 1.89695,0.0496 m 0,0 1.89694,0.0891 m 0,0 1.89693,0.12874 m 0,0 1.88431,0.15844 m 0,0 1.8843,0.20798 m 0,0 1.87164,0.24758 m 0,0 1.85903,0.28721 m 0,0 1.859,0.31691 m 0,0 1.83372,0.36641 m 0,0 1.83371,0.39613 m 0,0 1.80841,0.43575 m 0,0 1.80844,0.47537 m 0,0 1.78312,0.51497 m 0,0 1.75784,0.54468 m 0,0 1.74519,0.58429 m 0,0 1.73253,0.62391 m 0,0 1.69461,0.65361 m 0,0 1.68197,0.69326 m 0,0 1.65665,0.72293 m 0,0 1.63138,0.76255 m 0,0 1.60608,0.79228 m 0,0 1.58078,0.83188 m 0,0 1.55551,0.86159 m 0,0 1.51756,0.89129 m 0,0 1.4796,0.92101 m 0,0 1.46699,0.95073 m 0,0 1.41639,0.98042 m 0,0 1.39109,1.01014 m 0,0 1.35315,1.04976 m 0,0 1.32786,1.05965 m 0,0 1.27728,1.09927 m 0,0 1.25197,1.11908 m 0,0 1.20142,1.14879 m 0,0 1.17609,1.17849 m 0,0 1.12554,1.1884 m 0,0 1.08757,1.21812 m 0,0 1.04964,1.24781 m 0,0 0.99906,1.25772 m 0,0 0.96113,1.28745 m 0,0 0.91052,1.29734 m 0,0 0.87261,1.32704 m 0,0 0.83465,1.33694 m 0,0 0.77142,1.35676 m 0,0 0.74613,1.36666 m 0,0 0.6829,1.38646 m 0,0 0.64497,1.39638 m 0,0 0.59438,1.41618 m 0,0 0.54378,1.42608 m 0,0 0.49321,1.42608 m 0,0 0.45527,1.44588 m 0,0 0.39202,1.4558 m 0,0 0.35411,1.46568 m 0,0 0.3035,1.4657 m 0,0 0.25293,1.47559 m 0,0 0.20235,1.47561 m 0,0 0.13911,1.48549 m 0,0 0.10119,1.4855 m 0,0 0.0506,1.48551 m 0,0 0,1.4855 m 0,0 -0.0506,1.48551 m 0,0 -0.10119,1.48548 m 0,0 -0.13911,1.4756 m 0,0 -0.20235,1.4855 m 0,0 -0.25293,1.47561 m 0,0 -0.3035,1.4657 m 0,0 -0.35411,1.45577 m 0,0 -0.39202,1.4558 m 0,0 -0.45527,1.44589 m 0,0 -0.49321,1.43598 m 0,0 -0.54378,1.42607 m 0,0 -0.59438,1.40628 m 0,0 -0.64497,1.40628 m 0,0 -0.6829,1.37655 m 0,0 -0.74613,1.37657 m 0,0 -0.77142,1.35676 m 0,0 -0.83465,1.33694 m 0,0 -0.87261,1.31715 m 0,0 -0.91052,1.30725 m 0,0 -0.96113,1.27752 m 0,0 -0.99906,1.26762 m 0,0 -1.04964,1.23793 m 0,0 -1.08757,1.2181 m 0,0 -1.12554,1.19832 m 0,0 -1.17609,1.16858 m 0,0 -1.20142,1.14879 m 0,0 -1.25197,1.11908 m 0,0 -1.27728,1.09927 m 0,0 -1.32786,1.06956 m 0,0 -1.35315,1.03984 m 0,0 -1.39109,1.01015 m 0,0 -1.41639,0.98042 m 0,0 -1.46699,0.96063 m 0,0 -1.4796,0.92101 m 0,0 -1.51756,0.8913 m 0,0 -1.55551,0.8616 m 0,0 -1.58078,0.82197 m 0,0 -1.60608,0.79226 m 0,0 -1.63138,0.76256 m 0,0 -1.65665,0.72295 m 0,0 -1.68197,0.69323 m 0,0 -1.69461,0.66353 m 0,0 -1.73253,0.61399 m 0,0 -1.74519,0.58431 m 0,0 -1.75784,0.55459 m 0,0 -1.78312,0.50507 m 0,0 -1.80844,0.47535 m 0,0 -1.80841,0.43574 m 0,0 -1.83371,0.40604 m 0,0 -1.83372,0.35652 m 0,0 -1.859,0.32682 m 0,0 -1.85903,0.27729 m 0,0 -1.87164,0.24759 m 0,0 -1.8843,0.20796 m 0,0 -1.88431,0.16835 m 0,0 -1.89693,0.12875 m 0,0 -1.89694,0.0891 m 0,0 -1.89695,0.0496 m 0,0 -1.89695,0.009 m 0,0 -1.89694,-0.0297 m 0,0 -1.89696,-0.0694 m 0,0 -1.89693,-0.10893 m 0,0 -1.8843,-0.14856 m 0,0 -1.8843,-0.18815 m 0,0 -1.87166,-0.22779 m 0,0 -1.87167,-0.26738 m 0,0 -1.859,-0.29711 m 0,0 -1.84635,-0.34661 m 0,0 -1.83371,-0.37632 m 0,0 -1.82109,-0.41594 m 0,0 -1.8084,-0.45555 m 0,0 -1.79577,-0.49517 m 0,0 -1.77049,-0.53479 m 0,0 -1.75784,-0.56449 m 0,0 -1.73254,-0.6041 m 0,0 -1.7199,-0.63381 m 0,0 -1.69459,-0.67343 m 0,0 -1.65669,-0.71304 m 0,0 -1.65666,-0.74274 m 0,0 -1.60608,-0.77248 m 0,0 -1.59345,-0.81206 m 0,0 -1.56811,-0.84179 m 0,0 -1.53021,-0.8814 m 0,0 -1.50492,-0.90121 m 0,0 -1.47962,-0.94081 m 0,0 -1.44167,-0.97052 m 0,0 -1.40374,-1.00024 m 0,0 -1.37846,-1.02005 m 0,0 -1.32786,-1.05964 m 0,0 -1.30256,-1.07947 m 0,0 -1.26463,-1.10918 m 0,0 -1.22669,-1.13887 m 0,0 -1.18876,-1.1587 m 0,0 -1.15082,-1.17849 m 0,0 -1.11286,-1.20821 m 0,0 -1.06229,-1.22802 m 0,0 -1.02437,-1.25772 m 0,0 -0.98639,-1.26762 m 0,0 -0.93583,-1.29734 m 0,0 -0.89789,-1.30725 m 0,0 -0.8473,-1.33694 m 0,0 -0.79673,-1.34685 m 0,0 -0.75877,-1.35676 m 0,0 -0.72084,-1.37657 m 0,0 -0.6576,-1.39637 m 0,0 -0.61968,-1.40628 m 0,0 -0.56909,-1.41617 m 0,0 -0.51848,-1.42608 m 0,0 -0.48056,-1.44589 m 0,0 -0.41735,-1.44587 m 0,0 -0.37939,-1.45581 m 0,0 -0.32879,-1.46569 m 0,0 -0.27822,-1.47559 m 0,0 -0.21499,-1.4756 m 0,0 -0.17705,-1.4756 m 0,0 -0.12648,-1.48549 m 0,0 -0.0759,-1.48552 m 0,0 -0.0253,-1.48549"
     id="path4085"
     inkscape:connector-curvature="0"
     style="fill:none;stroke:#000000;stroke-width:0.55955476" />
  <path
     d="m 429.42442,327.82903 0.0253,-1.4756 m 0,0 0.0759,-1.46569 m 0,0 0.1265,-1.4756 m 0,0 0.17704,-1.46569 m 0,0 0.22764,-1.46569 m 0,0 0.26558,-1.45581 m 0,0 0.3288,-1.45579 m 0,0 0.37939,-1.44588 m 0,0 0.41732,-1.436 m 0,0 0.48057,-1.42607 m 0,0 0.51849,-1.41618 m 0,0 0.56907,-1.40627 m 0,0 0.61969,-1.39636 m 0,0 0.65761,-1.37657 m 0,0 0.72083,-1.36666 m 0,0 0.75877,-1.34684 m 0,0 0.79672,-1.33697 m 0,0 0.84731,-1.31715 m 0,0 0.8979,-1.29732 m 0,0 0.93581,-1.27753 m 0,0 0.98643,-1.25772 m 0,0 1.02434,-1.23792 m 0,0 1.06228,-1.21812 m 0,0 1.11288,-1.18839 m 0,0 1.13817,-1.16859 m 0,0 1.18875,-1.14879 m 0,0 1.22669,-1.11909 m 0,0 1.26464,-1.08935 m 0,0 1.30256,-1.06957 m 0,0 1.32786,-1.03985 m 0,0 1.37845,-1.01014 m 0,0 1.40376,-0.98044 m 0,0 1.44166,-0.95071 m 0,0 1.46698,-0.92101 m 0,0 1.5049,-0.89129 m 0,0 1.5302,-0.8616 m 0,0 1.55549,-0.83188 m 0,0 1.58079,-0.79227 m 0,0 1.61873,-0.75265 m 0,0 1.64402,-0.73284 m 0,0 1.65667,-0.69324 m 0,0 1.68197,-0.65362 m 0,0 1.71989,-0.614 m 0,0 1.71989,-0.59421 m 0,0 1.7452,-0.54467 m 0,0 1.77049,-0.51499 m 0,0 1.78313,-0.46546 m 0,0 1.79576,-0.44563 m 0,0 1.82107,-0.39615 m 0,0 1.82107,-0.35652 m 0,0 1.83371,-0.32681 m 0,0 1.84637,-0.28718 m 0,0 1.859,-0.23769 m 0,0 1.87165,-0.20797 m 0,0 1.87165,-0.16836 m 0,0 1.87167,-0.12873 m 0,0 1.88429,-0.0891 m 0,0 1.87165,-0.0496 m 0,0 1.88431,-0.009 m 0,0 1.8843,0.0297 m 0,0 1.8843,0.0694 m 0,0 1.87166,0.10894 m 0,0 1.88428,0.14855 m 0,0 1.859,0.18816 m 0,0 1.85902,0.22777 m 0,0 1.85899,0.2575 m 0,0 1.84639,0.30698 m 0,0 1.83371,0.33673 m 0,0 1.80841,0.38622 m 0,0 1.80843,0.41595 m 0,0 1.79578,0.45555 m 0,0 1.77046,0.49516 m 0,0 1.75785,0.52487 m 0,0 1.74519,0.57441 m 0,0 1.70725,0.59419 m 0,0 1.70724,0.64374 m 0,0 1.66932,0.67341 m 0,0 1.65668,0.71303 m 0,0 1.61871,0.74276 m 0,0 1.60608,0.77245 m 0,0 1.56816,0.81209 m 0,0 1.55549,0.84179 m 0,0 1.5049,0.87148 m 0,0 1.49226,0.91112 m 0,0 1.45434,0.9309 m 0,0 1.41639,0.97053 m 0,0 1.39108,1.00025 m 0,0 1.35316,1.02002 m 0,0 1.31521,1.04976 m 0,0 1.28993,1.07947 m 0,0 1.23935,1.10917 m 0,0 1.20139,1.13889 m 0,0 1.17611,1.14878 m 0,0 1.12552,1.1884 m 0,0 1.08758,1.19831 m 0,0 1.03698,1.22802 m 0,0 1.01172,1.2478 m 0,0 0.96111,1.26762 m 0,0 0.91054,1.28745 m 0,0 0.8726,1.30724 m 0,0 0.82201,1.32704 m 0,0 0.78407,1.34687 m 0,0 0.73348,1.35676 m 0,0 0.69555,1.36665 m 0,0 0.63231,1.38646 m 0,0 0.59439,1.40627 m 0,0 0.54379,1.40628 m 0,0 0.50584,1.42608 m 0,0 0.44262,1.42608 m 0,0 0.40469,1.44589 m 0,0 0.35409,1.44588 m 0,0 0.29086,1.45579 m 0,0 0.25293,1.46569 m 0,0 0.20234,1.4657 m 0,0 0.15176,1.46569 m 0,0 0.10117,1.4756 m 0,0 0.0506,1.47559 m 0,0 0,1.4756 m 0,0 -0.0506,1.47559 m 0,0 -0.10117,1.46569 m 0,0 -0.15176,1.4756 m 0,0 -0.20234,1.46569 m 0,0 -0.25293,1.4558 m 0,0 -0.29086,1.4558 m 0,0 -0.35409,1.45579 m 0,0 -0.40469,1.43598 m 0,0 -0.44262,1.43598 m 0,0 -0.50584,1.41618 m 0,0 -0.54379,1.41617 m 0,0 -0.59439,1.39639 m 0,0 -0.63231,1.38645 m 0,0 -0.69555,1.37658 m 0,0 -0.73348,1.35674 m 0,0 -0.78407,1.33695 m 0,0 -0.82201,1.32705 m 0,0 -0.8726,1.30724 m 0,0 -0.91054,1.28743 m 0,0 -0.96111,1.26763 m 0,0 -1.01172,1.24782 m 0,0 -1.03698,1.22803 m 0,0 -1.08758,1.2082 m 0,0 -1.12552,1.17848 m 0,0 -1.17611,1.15871 m 0,0 -1.20139,1.12896 m 0,0 -1.23935,1.10918 m 0,0 -1.28993,1.07947 m 0,0 -1.31521,1.05965 m 0,0 -1.35316,1.02005 m 0,0 -1.39108,1.00022 m 0,0 -1.41639,0.96064 m 0,0 -1.45434,0.94082 m 0,0 -1.49226,0.9012 m 0,0 -1.5049,0.8814 m 0,0 -1.55549,0.84179 m 0,0 -1.56816,0.81205 m 0,0 -1.60608,0.77248 m 0,0 -1.61871,0.74274 m 0,0 -1.65668,0.71305 m 0,0 -1.66932,0.67341 m 0,0 -1.70724,0.63383 m 0,0 -1.70725,0.6041 m 0,0 -1.74519,0.56449 m 0,0 -1.75785,0.53477 m 0,0 -1.77046,0.49517 m 0,0 -1.79578,0.45555 m 0,0 -1.80843,0.41594 m 0,0 -1.80841,0.37633 m 0,0 -1.83371,0.34662 m 0,0 -1.84639,0.2971 m 0,0 -1.85899,0.26739 m 0,0 -1.85902,0.22777 m 0,0 -1.859,0.18816 m 0,0 -1.88428,0.14855 m 0,0 -1.87166,0.10894 m 0,0 -1.8843,0.0694 m 0,0 -1.8843,0.0297 m 0,0 -1.88431,-0.009 m 0,0 -1.87165,-0.0496 m 0,0 -1.88429,-0.0891 m 0,0 -1.87167,-0.12875 m 0,0 -1.87165,-0.16836 m 0,0 -1.87165,-0.20798 m 0,0 -1.859,-0.24757 m 0,0 -1.84637,-0.2872 m 0,0 -1.83371,-0.3169 m 0,0 -1.82107,-0.36642 m 0,0 -1.82107,-0.39614 m 0,0 -1.79576,-0.43574 m 0,0 -1.78313,-0.47537 m 0,0 -1.77049,-0.51498 m 0,0 -1.7452,-0.54468 m 0,0 -1.71989,-0.58428 m 0,0 -1.71989,-0.62392 m 0,0 -1.68197,-0.65363 m 0,0 -1.65667,-0.69321 m 0,0 -1.64402,-0.72297 m 0,0 -1.61873,-0.76254 m 0,0 -1.58079,-0.79227 m 0,0 -1.55549,-0.82198 m 0,0 -1.5302,-0.86158 m 0,0 -1.5049,-0.89131 m 0,0 -1.46698,-0.92101 m 0,0 -1.44166,-0.95072 m 0,0 -1.40376,-0.98044 m 0,0 -1.37845,-1.01013 m 0,0 -1.32786,-1.03985 m 0,0 -1.30256,-1.06955 m 0,0 -1.26464,-1.08937 m 0,0 -1.22669,-1.11908 m 0,0 -1.18875,-1.14879 m 0,0 -1.13817,-1.16859 m 0,0 -1.11288,-1.1983 m 0,0 -1.06228,-1.2082 m 0,0 -1.02434,-1.23792 m 0,0 -0.98643,-1.25773 m 0,0 -0.93581,-1.28744 m 0,0 -0.8979,-1.29734 m 0,0 -0.84731,-1.31713 m 0,0 -0.79672,-1.32705 m 0,0 -0.75877,-1.34685 m 0,0 -0.72083,-1.36666 m 0,0 -0.65761,-1.38647 m 0,0 -0.61969,-1.38647 m 0,0 -0.56907,-1.40628 m 0,0 -0.51849,-1.41617 m 0,0 -0.48057,-1.42609 m 0,0 -0.41732,-1.43597 m 0,0 -0.37939,-1.44589 m 0,0 -0.3288,-1.4558 m 0,0 -0.26558,-1.45578 m 0,0 -0.22764,-1.4657 m 0,0 -0.17704,-1.46569 m 0,0 -0.1265,-1.4756 m 0,0 -0.0759,-1.47559 m 0,0 -0.0253,-1.4756"
     id="path4087"
     inkscape:connector-curvature="0"
     style="fill:none;stroke:#000000;stroke-width:0.55955476" />
  <path
     d="m 392.3954,260.9003 0,-140.22067"
     id="path5939-7-3"
     inkscape:connector-curvature="0"
     style="fill:none;stroke:#000000;stroke-width:1.30485797" />
  <path
     d="m 366.07802,261.29448 0,-141.06201"
     id="path5939-7-3-1"
     inkscape:connector-curvature="0"
     style="fill:none;stroke:#000000;stroke-width:1.28834593" />
  <path
     style="fill:none;stroke:#000000;stroke-width:0.90286154px;stroke-linecap:butt;stroke-linejoin:miter;stroke-opacity:1"
     d="m 364.56316,261.99985 c 28.8589,0.0671 29.50445,0.0405 29.50445,0.0405"
     id="path8189-1"
     inkscape:connector-curvature="0" />
  <path
     d="m 669.31202,260.58725 0,-140.22065"
     id="path5939-7-3-4"
     inkscape:connector-curvature="0"
     style="fill:none;stroke:#000000;stroke-width:1.30485797" />
  <path
     d="m 642.99463,260.98144 0,-141.06199"
     id="path5939-7-3-1-4"
     inkscape:connector-curvature="0"
     style="fill:none;stroke:#000000;stroke-width:1.28834593" />
  <path
     style="fill:none;stroke:#000000;stroke-width:0.90286154px;stroke-linecap:butt;stroke-linejoin:miter;stroke-opacity:1"
     d="m 641.47978,261.6868 c 28.8589,0.0671 29.50445,0.0405 29.50445,0.0405"
     id="path8189-1-8"
     inkscape:connector-curvature="0" />
</svg>
