<?xml version="1.0" encoding="UTF-8" standalone="no"?>
<svg
   xmlns:dc="http://purl.org/dc/elements/1.1/"
   xmlns:cc="http://creativecommons.org/ns#"
   xmlns:rdf="http://www.w3.org/1999/02/22-rdf-syntax-ns#"
   xmlns:svg="http://www.w3.org/2000/svg"
   xmlns="http://www.w3.org/2000/svg"
   xmlns:sodipodi="http://sodipodi.sourceforge.net/DTD/sodipodi-0.dtd"
   xmlns:inkscape="http://www.inkscape.org/namespaces/inkscape"
   width="800.000"
   height="400.000"
   viewBox="0.0 0.0 800.000 400.000"
   id="svg7805"
   onload="init(evt)"
   ondrop="drop(evt)"
   ondragover="allowDrop(evt)"
   version="1.1"
   inkscape:version="0.48.4 r9939"
   sodipodi:docname="溆怀高速6标高边坡预警监控示范站-Model.svg">
  <script
     href="init.js"
     id="script3184"
     language="JavaScript" />
  <script
     href="jquery-2.0.3.min.js"
     id="script3186"
     language="JavaScript" />
  <script
     href="cookie.js"
     id="script3188"
     language="JavaScript" />
  <metadata
     id="metadata12623">
    <rdf:RDF>
      <cc:Work
         rdf:about="">
        <dc:format>image/svg+xml</dc:format>
        <dc:type
           rdf:resource="http://purl.org/dc/dcmitype/StillImage" />
      </cc:Work>
    </rdf:RDF>
  </metadata>
  <defs
     id="defs12621" />
  <sodipodi:namedview
     pagecolor="#ffffff"
     bordercolor="#666666"
     borderopacity="1"
     objecttolerance="10"
     gridtolerance="10"
     guidetolerance="10"
     inkscape:pageopacity="0"
     inkscape:pageshadow="2"
     inkscape:window-width="1920"
     inkscape:window-height="1018"
     id="namedview12619"
     showgrid="false"
     inkscape:zoom="1.3233333"
     inkscape:cx="373.63513"
     inkscape:cy="228.2259"
     inkscape:window-x="1432"
     inkscape:window-y="-8"
     inkscape:window-maximized="1"
     inkscape:current-layer="svg7805" />
  <title
     id="title7807">Produce by DWG to SVG Converter MX</title>
  <desc
     id="desc7809">Produce by DWG to SVG Converter MX</desc>
  <path
     d="m 4.4890896,6.3747428 775.9084704,0 m 0,0 0,372.6409472 m 0,0 -775.9084704,0 m 0,0 0,-372.6409472"
     id="path8565"
     inkscape:connector-curvature="0"
     style="fill:none;stroke:#000000;stroke-width:0.08013306" />
  <path
     d="m 4.4890896,362.94562 775.9084704,0"
     id="path8567"
     inkscape:connector-curvature="0"
     style="fill:none;stroke:#000000;stroke-width:0.08013306" />
  <path
     d="m 159.98994,281.18806 3.81493,-13.87358 m 0,0 1.94269,-6.92335 m 0,0 1.97082,-6.90539 m 0,0 0.99948,-3.44375 m 0,0 1.01358,-3.43477 m 0,0 1.04171,-3.43474 m 0,0 1.0417,-3.41686 m 0,0 1.06988,-3.41683 m 0,0 1.09802,-3.40784 m 0,0 1.09803,-3.3989 m 0,0 1.14029,-3.38992 m 0,0 1.15432,-3.37198 m 0,0 1.1825,-3.36302 m 0,0 1.21063,-3.35406 m 0,0 1.23882,-3.33612 m 0,0 1.26692,-3.32714 m 0,0 1.30921,-3.30921 m 0,0 1.33733,-3.30024 m 0,0 1.3655,-3.27335 m 0,0 1.40773,-3.26437 m 0,0 1.44998,-3.24644 m 0,0 1.49216,-3.2285 m 0,0 1.52036,-3.21058 m 0,0 1.57666,-3.1926 m 0,0 1.60481,-3.16572 m 0,0 1.66109,-3.15678 m 0,0 0.85871,-1.56041 m 0,0 0.85872,-1.56044 m 0,0 0.87281,-1.56046 m 0,0 0.88688,-1.55149 m 0,0 0.88687,-1.54247 m 0,0 0.91501,-1.54252 m 0,0 0.92911,-1.53353 m 0,0 0.9291,-1.52457 m 0,0 0.95724,-1.52457 m 0,0 0.95726,-1.51561 m 0,0 0.97136,-1.50664 m 0,0 0.99946,-1.49765 m 0,0 0.99949,-1.49766 m 0,0 1.02764,-1.48871 m 0,0 1.02766,-1.4887 m 0,0 1.05579,-1.47972 m 0,0 1.05581,-1.46179 m 0,0 1.08393,-1.47077 m 0,0 1.09803,-1.45282 m 0,0 1.09802,-1.45283 m 0,0 1.12619,-1.44385 m 0,0 1.14024,-1.4349 m 0,0 1.16843,-1.4259 m 0,0 1.1684,-1.41696 m 0,0 1.19659,-1.41694 m 0,0 1.19655,-1.408 m 0,0 1.22471,-1.39901 m 0,0 1.23882,-1.39005 m 0,0 1.26695,-1.38108 m 0,0 1.26696,-1.37211 m 0,0 1.29511,-1.37212 m 0,0 1.30918,-1.3542 m 0,0 1.33736,-1.35416 m 0,0 1.33733,-1.3452 m 0,0 1.3655,-1.33625 m 0,0 1.39365,-1.32726 m 0,0 1.39367,-1.3183 m 0,0 1.4218,-1.30933 m 0,0 1.44995,-1.30038 m 0,0 1.44997,-1.2914 m 0,0 1.47811,-1.28245 m 0,0 1.50626,-1.27345 m 0,0 1.52033,-1.26447 m 0,0 1.53443,-1.25555 m 0,0 1.56257,-1.25553 m 0,0 1.57669,-1.23758 m 0,0 1.60477,-1.22864 m 0,0 1.61889,-1.21964 m 0,0 1.64706,-1.21069 m 0,0 1.66111,-1.20172 m 0,0 1.68926,-1.19275 m 0,0 1.70336,-1.17482 m 0,0 1.73151,-1.17481 m 0,0 1.7456,-1.16585 m 0,0 1.77374,-1.14791 m 0,0 1.78781,-1.13894 m 0,0 1.83005,-1.138945 m 0,0 1.83003,-1.121006 m 0,0 1.87227,-1.112038 m 0,0 1.88638,-1.094104 m 0,0 1.90041,-1.094103 m 0,0 1.94268,-1.076167 m 0,0 1.95673,-1.076163 m 0,0 1.97082,-1.058233 m 0,0 2.01307,-1.049262 m 0,0 2.02712,-1.031327 m 0,0 1.59073,-0.798156 m 0,0 1.59072,-0.78022 m 0,0 1.6189,-0.780221 m 0,0 1.61889,-0.771254 m 0,0 1.64702,-0.771252 m 0,0 1.64702,-0.753316 m 0,0 1.66114,-0.744349 m 0,0 1.67522,-0.74435 m 0,0 1.70333,-0.735378 m 0,0 1.68929,-0.726412 m 0,0 1.71744,-0.708476 m 0,0 1.73149,-0.708476 m 0,0 1.7315,-0.69951 m 0,0 1.74558,-0.681571 m 0,0 1.75967,-0.681573 m 0,0 1.77374,-0.672603 m 0,0 1.77374,-0.654668 m 0,0 1.80188,-0.6457 m 0,0 1.78781,-0.636731 m 0,0 1.81596,-0.627765 m 0,0 1.81597,-0.618795 m 0,0 1.81597,-0.60086 m 0,0 1.84414,-0.591892 m 0,0 1.84412,-0.582922 m 0,0 1.84414,-0.564988 m 0,0 1.8582,-0.556022 m 0,0 1.87227,-0.54705 m 0,0 1.87227,-0.529114 m 0,0 1.87229,-0.520147 m 0,0 1.88636,-0.51118 m 0,0 1.88635,-0.493243 m 0,0 1.90043,-0.475306 m 0,0 1.90041,-0.466339 m 0,0 1.9145,-0.448404 m 0,0 1.91453,-0.439432 m 0,0 1.9145,-0.421499 m 0,0 1.9286,-0.412531 m 0,0 1.92858,-0.394596 m 0,0 1.92861,-0.376656 m 0,0 1.92856,-0.367692 m 0,0 1.94268,-0.349753 m 0,0 1.94269,-0.331818 m 0,0 1.94264,-0.313884 m 0,0 1.95677,-0.304912 m 0,0 1.94262,-0.278009 m 0,0 1.95676,-0.269042 m 0,0 1.94265,-0.251105 m 0,0 1.95675,-0.233169 m 0,0 1.95676,-0.215237 m 0,0 1.95673,-0.197296 m 0,0 1.95672,-0.188327 m 0,0 1.95676,-0.161425 m 0,0 1.95673,-0.143497 m 0,0 1.95677,-0.125554 m 0,0 1.9708,-0.107608 m 0,0 1.94267,-0.08968 m 0,0 1.95674,-0.07176 m 0,0 1.95672,-0.0538 m 0,0 1.95677,-0.03586 m 0,0 1.94266,-0.009 m 0,0 1.95675,0.009 m 0,0 1.94267,0.0269 m 0,0 1.94265,0.04483 m 0,0 1.94266,0.07176 m 0,0 2.12567,0.09865 m 0,0 2.12567,0.125553 m 0,0 2.12569,0.152457 m 0,0 2.11159,0.17039 m 0,0 2.11159,0.197296 m 0,0 2.11155,0.224204 m 0,0 2.1116,0.242137 m 0,0 2.09753,0.269043 m 0,0 2.08344,0.286976 m 0,0 2.09752,0.313882 m 0,0 2.06936,0.33182 m 0,0 2.08345,0.358721 m 0,0 2.06936,0.376657 m 0,0 2.06933,0.394595 m 0,0 2.05531,0.421499 m 0,0 2.05527,0.439436 m 0,0 2.04121,0.457371 m 0,0 2.0412,0.475303 m 0,0 2.02713,0.502213 m 0,0 2.02712,0.511178 m 0,0 2.01306,0.538085 m 0,0 2.01304,0.556018 m 0,0 1.999,0.573958 m 0,0 1.99894,0.591891 m 0,0 1.98492,0.609826 m 0,0 1.9708,0.618796 m 0,0 1.97083,0.645701 m 0,0 1.97083,0.654669 m 0,0 1.95674,0.672602 m 0,0 1.94266,0.699508 m 0,0 1.92859,0.699508 m 0,0 1.92856,0.726414 m 0,0 1.9286,0.735378 m 0,0 1.90044,0.753318 m 0,0 1.90044,0.762284 m 0,0 1.90043,0.78022 m 0,0 1.87227,0.789192 m 0,0 1.87229,0.807121 m 0,0 1.8582,0.825062 m 0,0 1.85818,0.825063 m 0,0 1.84414,0.851963 m 0,0 1.83004,0.851966 m 0,0 1.81596,0.869899 m 0,0 1.80188,0.878871 m 0,0 1.8019,0.887836 m 0,0 1.78783,0.905775 m 0,0 1.77375,0.914742 m 0,0 1.75967,0.914741 m 0,0 1.75965,0.932677 m 0,0 1.7315,0.941645 m 0,0 1.7315,0.950614 m 0,0 1.71743,0.959584 m 0,0 1.70335,0.968547 m 0,0 1.68927,0.97752 m 0,0 1.67521,0.986484 m 0,0 1.67519,0.995455 m 0,0 1.64702,0.995455 m 0,0 1.64705,1.004422 m 0,0 1.61889,1.013391 m 0,0 1.61887,1.022361 m 0,0 1.60481,1.02235 m 0,0 1.57667,1.03133 m 0,0 1.57666,1.0403 m 0,0 1.5626,1.04029 m 0,0 1.59072,1.07616 m 0,0 1.57667,1.08514 m 0,0 1.56256,1.0941 m 0,0 1.56256,1.09411 m 0,0 1.53443,1.10307 m 0,0 1.52037,1.10306 m 0,0 1.50627,1.11203 m 0,0 1.49219,1.11204 m 0,0 1.4781,1.121 m 0,0 1.46403,1.12997 m 0,0 1.44995,1.12999 m 0,0 1.43587,1.13 m 0,0 1.42183,1.13893 m 0,0 1.40773,1.13894 m 0,0 1.39366,1.14789 m 0,0 1.37954,1.15688 m 0,0 1.37959,1.15689 m 0,0 1.35141,1.15689 m 0,0 1.33736,1.16584 m 0,0 1.33733,1.16585 m 0,0 1.32326,1.1748 m 0,0 1.29512,1.17481 m 0,0 2.57616,2.36758 m 0,0 2.51984,2.3855 m 0,0 2.47756,2.40345 m 0,0 2.42129,2.41239 m 0,0 2.37908,2.43036 m 0,0 2.33684,2.44826 m 0,0 2.29458,2.45724 m 0,0 2.25239,2.47519 m 0,0 2.19605,2.49314 m 0,0 2.16789,2.50207 m 0,0 2.12565,2.52004 m 0,0 2.08345,2.52898 m 0,0 2.04122,2.54691 m 0,0 1.99894,2.55591 m 0,0 1.97084,2.56485 m 0,0 1.92858,2.5828 m 0,0 1.90044,2.59177 m 0,0 1.8723,2.60075 m 0,0 1.83004,2.6097 m 0,0 1.78779,2.62764 m 0,0 1.77376,2.63659 m 0,0 1.7315,2.64561 m 0,0 1.71743,2.65453 m 0,0 1.67519,2.66352 m 0,0 1.64704,2.67249 m 0,0 1.63298,2.68144 m 0,0 1.59073,2.6904 m 0,0 1.57663,2.69937 m 0,0 1.56258,2.70837 m 0,0 1.52036,2.70836 m 0,0 1.50625,2.72628 m 0,0 1.49218,2.7263 m 0,0 1.46405,2.73523 m 0,0 1.44997,2.74425 m 0,0 1.42183,2.74421 m 0,0 1.42178,2.75319 m 0,0 1.39366,2.76217 m 0,0 1.37958,2.76217 m 0,0 1.36549,2.76215 m 0,0 2.68876,5.55121 m 0,0 2.6606,5.56023 m 0,0 2.60428,5.5781 m 0,0 2.59024,5.58709 m 0,0 2.54797,5.59607 m 0,0 5.08191,11.20111"
     id="path8603"
     inkscape:connector-curvature="0"
     style="fill:none;stroke:#000000;stroke-width:0.513;stroke-miterlimit:4;stroke-dasharray:none;stroke-opacity:1" />
  <path
     d="m 219.29002,273.71595 3.09091,-10.17919 m 0,0 1.57075,-5.08432 m 0,0 1.58769,-5.06344 m 0,0 1.62149,-5.05296 m 0,0 1.68899,-5.0425 m 0,0 1.72281,-5.01103 m 0,0 0.89518,-2.50033 m 0,0 0.91205,-2.48988 m 0,0 0.9121,-2.47941 m 0,0 0.94585,-2.47941 m 0,0 0.97963,-2.46894 m 0,0 0.97962,-2.45846 m 0,0 1.0134,-2.448 m 0,0 1.03033,-2.43758 m 0,0 1.06406,-2.43757 m 0,0 1.08099,-2.41663 m 0,0 1.11473,-2.40618 m 0,0 1.14855,-2.3957 m 0,0 1.18233,-2.38528 m 0,0 1.19917,-2.37476 m 0,0 1.23298,-2.36433 m 0,0 1.28368,-2.34339 m 0,0 1.30053,-2.33295 m 0,0 1.33435,-2.32249 m 0,0 1.38497,-2.30157 m 0,0 1.41877,-2.29108 m 0,0 1.4526,-2.28064 m 0,0 1.50319,-2.24925 m 0,0 1.53703,-2.24922 m 0,0 1.57079,-2.21787 m 0,0 1.63835,-2.20742 m 0,0 1.67213,-2.19694 m 0,0 1.70589,-2.16552 m 0,0 1.77349,-2.15512 m 0,0 1.80722,-2.13417 m 0,0 1.85795,-2.11326 m 0,0 1.90859,-2.09233 m 0,0 1.9761,-2.07142 m 0,0 2.00998,-2.05046 m 0,0 2.0775,-2.02954 m 0,0 2.12817,-2.00862 m 0,0 1.08093,-1.00432 m 0,0 1.09791,-0.9834 m 0,0 1.11471,-0.9834 m 0,0 1.13163,-0.9834 m 0,0 1.14861,-0.97293 m 0,0 1.14849,-0.96248 m 0,0 1.18229,-0.96246 m 0,0 1.18236,-0.96245 m 0,0 1.19915,-0.94156 m 0,0 1.23304,-0.94156 m 0,0 1.233,-0.94153 m 0,0 1.24988,-0.93109 m 0,0 1.26674,-0.92064 m 0,0 1.28364,-0.92059 m 0,0 1.30053,-0.91015 m 0,0 1.30058,-0.91016 m 0,0 1.33433,-0.89965 m 0,0 1.35116,-0.88923 m 0,0 1.36811,-0.88924 m 0,0 1.385,-0.87877 m 0,0 1.385,-0.86831 m 0,0 1.4188,-0.8683 m 0,0 1.43569,-0.85786 m 0,0 1.45254,-0.8474 m 0,0 1.46946,-0.84741 m 0,0 1.48632,-0.83691 m 0,0 1.50323,-0.8265 m 0,0 1.52009,-0.82644 m 0,0 1.53706,-0.81602 m 0,0 1.57075,-0.80554 m 0,0 2.26331,-1.15078 m 0,0 2.29707,-1.12987 m 0,0 2.33078,-1.1089 m 0,0 2.36467,-1.08803 m 0,0 2.39839,-1.06708 m 0,0 2.43223,-1.04618 m 0,0 2.46596,-1.0252 m 0,0 2.48286,-1.00434 m 0,0 2.51662,-0.97293 m 0,0 2.53352,-0.94154 m 0,0 2.56733,-0.92063 m 0,0 2.58418,-0.87876 m 0,0 2.60111,-0.8474 m 0,0 2.61797,-0.82646 m 0,0 2.63485,-0.77417 m 0,0 2.66866,-0.75323 m 0,0 2.66865,-0.70094 m 0,0 2.66867,-0.66953 m 0,0 2.70245,-0.62771 m 0,0 1.35122,-0.29293 m 0,0 1.35118,-0.29293 m 0,0 1.35123,-0.27201 m 0,0 1.36809,-0.26152 m 0,0 1.35122,-0.25111 m 0,0 1.36815,-0.24058 m 0,0 1.35115,-0.23015 m 0,0 1.36813,-0.21972 m 0,0 1.36809,-0.20923 m 0,0 1.35125,-0.18831 m 0,0 1.36809,-0.17785 m 0,0 1.36809,-0.16725 m 0,0 1.36812,-0.15686 m 0,0 1.36811,-0.14646 m 0,0 1.36811,-0.12548 m 0,0 1.35123,-0.11508 m 0,0 1.36809,-0.10452 m 0,0 1.36811,-0.0837 m 0,0 1.36809,-0.073 m 0,0 1.35125,-0.0629 m 0,0 1.3681,-0.0418 m 0,0 1.36809,-0.0315 m 0,0 1.35119,-0.0208 m 0,0 1.35123,0 m 0,0 1.35123,0.0102 m 0,0 1.36809,0.0314 m 0,0 1.53701,0.0523 m 0,0 1.53703,0.073 m 0,0 1.537,0.0941 m 0,0 1.53696,0.10451 m 0,0 1.53708,0.13589 m 0,0 1.52008,0.14662 m 0,0 1.52015,0.16726 m 0,0 1.52012,0.17784 m 0,0 1.52011,0.20925 m 0,0 1.50319,0.21968 m 0,0 1.52012,0.24061 m 0,0 1.50326,0.25112 m 0,0 1.50318,0.27199 m 0,0 1.48634,0.28244 m 0,0 1.50326,0.31385 m 0,0 1.48634,0.31387 m 0,0 1.48632,0.33476 m 0,0 1.46948,0.35571 m 0,0 1.48632,0.36614 m 0,0 1.46943,0.3766 m 0,0 1.46946,0.39756 m 0,0 1.45253,0.40802 m 0,0 1.4526,0.42893 m 0,0 1.45252,0.43937 m 0,0 1.45257,0.44986 m 0,0 1.45255,0.46031 m 0,0 1.43568,0.48124 m 0,0 1.41875,0.48124 m 0,0 1.4357,0.50216 m 0,0 1.4188,0.52308 m 0,0 1.41873,0.52306 m 0,0 1.40191,0.53356 m 0,0 1.41873,0.54402 m 0,0 1.40191,0.56492 m 0,0 1.38503,0.5649 m 0,0 1.38499,0.58589 m 0,0 2.76998,1.18213 m 0,0 2.73622,1.23445 m 0,0 2.70241,1.26588 m 0,0 2.68554,1.29723 m 0,0 2.65175,1.31817 m 0,0 2.6349,1.36 m 0,0 2.61798,1.38097 m 0,0 2.56731,1.41231 m 0,0 2.5504,1.43323 m 0,0 2.53353,1.44371 m 0,0 2.48289,1.47511 m 0,0 2.46596,1.48552 m 0,0 2.43217,1.49603 m 0,0 2.39842,1.50646 m 0,0 2.73621,1.75752 m 0,0 2.70243,1.76797 m 0,0 2.65176,1.77848 m 0,0 2.61798,1.78896 m 0,0 2.56731,1.79937 m 0,0 2.53354,1.82033 m 0,0 2.49974,1.82034 m 0,0 2.44907,1.83076 m 0,0 2.41534,1.8517 m 0,0 2.38149,1.85175 m 0,0 2.34773,1.86215 m 0,0 2.31394,1.87262 m 0,0 2.28021,1.88308 m 0,0 2.22951,1.89358 m 0,0 2.21257,1.904 m 0,0 2.17886,1.91448 m 0,0 2.14505,1.91449 m 0,0 2.11128,1.93541 m 0,0 2.07752,1.93538 m 0,0 2.04368,1.94586 m 0,0 2.02682,1.94586 m 0,0 1.99306,1.9668 m 0,0 1.95925,1.96677 m 0,0 1.9424,1.97725 m 0,0 1.90857,1.9877 m 0,0 1.89167,1.98772 m 0,0 1.85795,1.99817 m 0,0 1.82417,2.00864 m 0,0 1.80722,2.0086 m 0,0 1.79035,2.01909 m 0,0 1.75659,2.01913 m 0,0 1.75657,2.02956 m 0,0 1.70595,2.03999 m 0,0 1.70589,2.04003 m 0,0 1.67211,2.05048 m 0,0 1.67214,2.05047 m 0,0 1.63835,2.06093 m 0,0 1.62146,2.06093 m 0,0 1.60458,2.07142 m 0,0 1.58771,2.0714 m 0,0 3.12467,4.15328 m 0,0 3.07398,4.17417 m 0,0 3.00645,4.18465 m 0,0 2.97269,4.20557 m 0,0 2.92202,4.21604 m 0,0 2.88823,4.21596 m 0,0 2.85442,4.23696 m 0,0 2.83751,4.23696 m 0,0 2.80378,4.24743 m 0,0 2.78696,4.2474 m 0,0 5.55684,8.50529"
     id="path8605"
     inkscape:connector-curvature="0"
     style="fill:none;stroke:#000000;stroke-width:0.433;stroke-miterlimit:4;stroke-dasharray:none" />
  <path
     d="m 59.177059,295.45412 c 221.327721,0 479.406801,-3.9929 659.963221,-3.9929"
     id="path8625"
     inkscape:connector-curvature="0"
     style="fill:none;stroke:#000000;stroke-width:0.387;stroke-miterlimit:4;stroke-dasharray:none"
     sodipodi:nodetypes="cc" />
  <path
     d="m 47.425958,335.58366 675.483442,0"
     id="path8627"
     inkscape:connector-curvature="0"
     style="fill:none;stroke:#000000;stroke-width:0.595;stroke-miterlimit:4;stroke-dasharray:none" />
  <path
     d="m 173.58158,308.55686 0.95946,1.24157 m -1.75351,0.94597 1.27378,1.14304 m -0.79405,4.00064 1.27378,-4.00064 m 1.75355,-2.8576 1.77007,1.05436 m 0,0.85726 -2.3987,0.37446 m -0.47975,1.52732 3.02733,-0.38427 m -1.43922,-1.23174 0,5.23238 m 0,0 -1.10836,-1.14301 m 0.14886,-1.61603 -1.4392,1.90177 m 3.04387,-2.00033 0.95947,0.57153 m 2.71299,-4.37511 -0.47973,1.51749 m 0,0 -0.95947,2.28609 m 0,0 -2.3987,2.8576 m 1.60464,-4.95646 1.91896,4.38493 m 0,0 1.1249,0 m -0.95946,-5.80388 -2.24982,0.28575 m -1.91895,-2.28608 -1.75355,3.14336 m -1.75351,4.7594 -0.64517,-1.05435 m 11.66261,-6.08967 1.29036,1.24159 m -0.95949,1.99048 -1.29034,-1.23174 m 0,3.80357 1.29034,1.14306 m 0,0 1.2738,-4.47365 m 0.3143,-1.14305 6.08772,-0.57152 m -1.29035,-0.47298 -0.95946,-0.85727 m -0.95948,-0.38432 0,8.47431 m 0.64516,-0.85727 1.43923,1.05435 m 0,0 0,-6.09953 m 0,0.3843 -4.00336,0.38429 m 0.47977,2.66055 2.87842,-0.28577 m 0,-1.33026 -2.87842,0.28574 m -0.47977,-2.00031 0,5.80391 m 11.82807,-0.66023 -2.06786,-3.62618 m 0,0 2.06786,-3.61634 m 1.77007,7.24252 -2.08439,-3.62618 m 0,0 2.08439,-3.61634 m 3.19277,3.81341 9.74366,0 m 0.79404,0 9.7602,0 m 175.96509,-3.71489 0.95947,1.24157 m -1.75353,0.94597 1.2738,1.14304 m -0.79406,4.00064 1.27379,-4.00064 m 1.77008,-2.8576 1.75353,1.05436 m 0,0.85726 -2.3987,0.37446 m -0.47974,1.52732 3.04388,-0.38427 m -1.43922,-1.23174 0,5.23238 m 0,0 -1.12492,-1.14301 m 0.16541,-1.61603 -1.43922,1.90177 m 3.02731,-2.00033 0.95949,0.57153 m 2.71302,-4.37511 -0.47973,1.51749 m 0,0 -0.95949,2.28609 m 0,0 -2.38217,2.8576 m 1.58813,-4.95646 1.91896,4.38493 m 0,0 1.1249,0 m -0.9595,-5.80388 -2.23326,0.28575 m -1.91895,-2.28608 -1.77007,3.14336 m -1.75354,4.7594 -0.64517,-1.05435 m 16.31113,-4.3751 0,5.80391 m 0.47974,-7.23272 -0.64517,1.61603 m 0,0 -0.62863,0.95583 m 0,0 -2.24981,2.75905 m -1.58809,-4.18787 -0.81058,2.57183 m 1.77005,-4.8579 0,8.37575 m 1.43923,-5.61669 -1.43923,-0.85728 m 1.58811,-0.6602 4.79738,-0.38431 m -1.4392,2.75906 2.08437,2.0989 m 7.5104,-0.6701 -0.3143,1.61604 m -2.72953,-1.61604 0,2.28613 m 5.11167,-3.61637 -0.79405,4.66086 m 0,0 -1.43921,-1.04449 m -4.79738,-3.52769 0,4.48349 m 5.27711,-6.47397 -0.31431,1.51749 m -3.52359,-1.51749 0,2.18755 m -1.75355,-2.57186 7.34498,-0.47295 m -4.15221,-1.05439 0.64515,0.85731 m -2.08437,2.75906 4.00334,-0.18723 m -4.00334,-1.04451 3.68903,-0.18721 m -3.20927,4.84808 3.04383,-0.18722 m -3.04383,-1.24158 2.87841,-0.18722 m -4.79738,-0.75877 6.88176,-0.38428 m 6.55096,-1.51747 3.67248,-0.38433 m -3.67248,1.71457 3.8379,-0.38431 m -3.5236,1.90181 1.43923,-1.04451 m 0.64515,0.28574 1.91895,1.33029 m -4.00333,-0.57152 -1.58812,0.9558 m 3.19277,-6.47394 0,7.14401 m -2.08439,-4.7594 0.16542,1.99048 m -0.47975,-2.75908 4.79739,-0.37443 m -7.03068,-0.0984 0.79406,0.95583 m -1.91894,4.84808 1.43921,0 m 0,0 2.39871,0.38432 m 0,0 4.46652,1.0445 m 0,0 0.81059,-0.18724 m -6.55092,-5.14371 -0.95948,1.90181 m 0,0 0.31431,0.95583 m 0,0 -0.47973,1.04449 m -1.43921,-3.14337 2.39867,-0.56168 m 4.94629,0.37445 0.33087,-1.4288 m 190.78736,2.09887 9.74366,0 m 0.79404,0 9.76021,0 m 3.50706,3.42911 2.08441,-3.62618 m -0.16544,3.62618 2.08439,-3.62618 m -4.00334,-3.61636 2.08441,3.61636 m -0.16544,-3.61636 2.08439,3.61636 m 9.90909,-1.5175 0,5.80392 m 0.47974,-7.23273 -0.64517,1.61603 m 0,0 -0.64514,0.95583 m 0,0 -2.23329,2.75906 m -1.58809,-4.18788 -0.81061,2.57185 m 1.77009,-4.85792 0,8.37576 m 1.42267,-5.6167 -1.42267,-0.85728 m 1.58811,-0.6602 4.79739,-0.38429 m -1.43922,2.75905 2.08439,2.09889 m 5.59141,-5.528 -4.00332,4.09918 m 2.3987,-2.38463 0,6.5725 m 2.71301,-8.28705 0,7.42977 m 0,0 0.64517,0.38429 m 0,0 3.19273,0 m 0,0 -0.31432,-2.1974 m -0.31429,-3.70503 -4.7974,3.23206"
     id="path8629"
     inkscape:connector-curvature="0"
     style="fill:none;stroke:#000000;stroke-width:0.428;stroke-miterlimit:4;stroke-dasharray:none" />
  <path
     style="fill:none;stroke:#000000;stroke-width:1px;stroke-linecap:butt;stroke-linejoin:miter;stroke-opacity:1"
     d="m 125.44081,119.64735 c 0,66.49874 0,66.49874 0,66.49874 l 13.60201,-0.75567 0,-64.23174 0,-3.02267 0,0"
     id="path3825"
     inkscape:connector-curvature="0" />
  <path
     style="fill:none;stroke:#000000;stroke-width:1px;stroke-linecap:butt;stroke-linejoin:miter;stroke-opacity:1"
     d="m 379.3451,10.831224 c 0.75567,43.828717 0.75567,44.584384 0.75567,44.584384 l 13.60201,-0.755667 -1.51133,-43.828717 0,0"
     id="path3827"
     inkscape:connector-curvature="0" />
  <path
     style="fill:none;stroke:#000000;stroke-width:1px;stroke-linecap:butt;stroke-linejoin:miter;stroke-opacity:1"
     d="m 628.71538,121.91435 c 0,2.267 -0.75567,55.9194 -0.75567,55.9194 l 15.86902,0 -1.51133,-61.96474 -1.51134,-0.75567"
     id="path3829"
     inkscape:connector-curvature="0" />
  <path
     style="fill:none;stroke:#000000;stroke-width:1px;stroke-linecap:butt;stroke-linejoin:miter;stroke-opacity:1"
     d="m 628.71538,114.35768 0,8.31234 0,3.02267 0,6.80101 0,0"
     id="path3831"
     inkscape:connector-curvature="0" />
  <path
     style="fill:none;stroke:#000000;stroke-width:1px;stroke-linecap:butt;stroke-linejoin:miter;stroke-opacity:1"
     d="M 854.65997,168.01007 z"
     id="path3833"
     inkscape:connector-curvature="0" />
</svg>
