<?xml version="1.0" encoding="UTF-8" standalone="no"?>
<svg
   xmlns:dc="http://purl.org/dc/elements/1.1/"
   xmlns:cc="http://creativecommons.org/ns#"
   xmlns:rdf="http://www.w3.org/1999/02/22-rdf-syntax-ns#"
   xmlns:svg="http://www.w3.org/2000/svg"
   xmlns="http://www.w3.org/2000/svg"
   xmlns:xlink="http://www.w3.org/1999/xlink"
   xmlns:sodipodi="http://sodipodi.sourceforge.net/DTD/sodipodi-0.dtd"
   xmlns:inkscape="http://www.inkscape.org/namespaces/inkscape"
   width="800.000"
   height="400.000"
   viewBox="0.0 0.0 800.000 400.000"
   id="svg4967"
   onload="init(evt)"
   ondrop="drop(evt)"
   ondragover="allowDrop(evt)"
   version="1.1"
   inkscape:version="0.48.4 r9939"
   sodipodi:docname="xxhd_K71.svg">
  <script
     xlink:href="init.js"
     id="script3184"
     language="JavaScript" />
  <script
     xlink:href="jquery-2.0.3.min.js"
     id="script3186"
     language="JavaScript" />
  <script
     xlink:href="cookie.js"
     id="script3188"
     language="JavaScript" />
  <metadata
     id="metadata6947">
    <rdf:RDF>
      <cc:Work
         rdf:about="">
        <dc:format>image/svg+xml</dc:format>
        <dc:type
           rdf:resource="http://purl.org/dc/dcmitype/StillImage" />
      </cc:Work>
    </rdf:RDF>
  </metadata>
  <defs
     id="defs6945" />
  <sodipodi:namedview
     pagecolor="#ffffff"
     bordercolor="#666666"
     borderopacity="1"
     objecttolerance="10"
     gridtolerance="10"
     guidetolerance="10"
     inkscape:pageopacity="0"
     inkscape:pageshadow="2"
     inkscape:window-width="1920"
     inkscape:window-height="1018"
     id="namedview6943"
     showgrid="false"
     inkscape:zoom="1.1125147"
     inkscape:cx="532.61331"
     inkscape:cy="136.42766"
     inkscape:window-x="1432"
     inkscape:window-y="-8"
     inkscape:window-maximized="1"
     inkscape:current-layer="svg4967" />
  <title
     id="title4969">Produce by DWG to SVG Converter 2013 MX</title>
  <desc
     id="desc4971">Produce by DWG to SVG Converter 2013 MX</desc>
  <path
     d="m 109.67254,154.56368 0,155.6181"
     id="path4997"
     inkscape:connector-curvature="0"
     style="fill:none;stroke:#000000;stroke-width:0.45951375" />
  <path
     d="m 18.645148,131.47283 0,189.74832"
     id="path4999"
     inkscape:connector-curvature="0"
     style="fill:none;stroke:#000000;stroke-width:0.45951375" />
  <path
     d="M 18.645148,321.22115 109.67254,310.18178"
     id="path5001"
     inkscape:connector-curvature="0"
     style="fill:none;stroke:#000000;stroke-width:0.45951375" />
  <path
     d="m 109.67254,154.56368 0,-11.03936"
     id="path5003"
     inkscape:connector-curvature="0"
     style="fill:none;stroke:#000000;stroke-width:0.45951375" />
  <path
     d="M 109.67254,143.52432 18.645148,131.47283"
     id="path5005"
     inkscape:connector-curvature="0"
     style="fill:none;stroke:#000000;stroke-width:0.45951375" />
  <path
     d="M 109.29579,157.34901 17.89161,146.25474"
     id="path5007"
     inkscape:connector-curvature="0"
     style="fill:none;stroke:#000000;stroke-width:0.45951375" />
  <path
     d="m 109.29579,166.21504 556.04655,0"
     id="path5009"
     inkscape:connector-curvature="0"
     style="fill:none;stroke:#000000;stroke-width:0.45951375" />
  <path
     d="M 109.92014,294.92911 18.483674,306.87077"
     id="path5011"
     inkscape:connector-curvature="0"
     style="fill:none;stroke:#000000;stroke-width:0.45951375" />
  <path
     d="m 110.23233,288.63659 554.67941,0"
     id="path5013"
     inkscape:connector-curvature="0"
     style="fill:none;stroke:#000000;stroke-width:0.45951375" />
  <path
     d="m 403.67083,128.42072 0,203.20426"
     id="path5015"
     inkscape:connector-curvature="0"
     style="fill:none;stroke:#000000;stroke-width:0.45951375" />
  <path
     d="m 110.23233,228.71648 554.67941,0"
     id="path5025"
     inkscape:connector-curvature="0"
     style="fill:none;stroke:#000000;stroke-width:0.45951375" />
  <path
     d="m 110.23233,200.06279 69.83146,0 m 59.03431,0 118.0579,0 m 59.03434,0 118.06864,0 m 59.02357,0 69.83146,0"
     id="path5039"
     inkscape:connector-curvature="0"
     style="fill:none;stroke:#000000;stroke-width:0.45951375" />
  <path
     d="m 110.23233,261.28534 70.72493,0 m 59.03432,0 118.0579,0 m 59.03433,0 118.06865,0 m 59.02358,0 70.7357,0"
     id="path5041"
     inkscape:connector-curvature="0"
     style="fill:none;stroke:#000000;stroke-width:0.45951375" />
  <path
     d="m 46.181584,104.78849 -7.320084,0.5963 m 7.050965,4.15054 -2.712739,2.96581 m 0,0 2.981858,2.37733 m 0.549007,4.34671 0.538241,-9.886 m -8.956339,9.68985 8.138212,-0.59631 m 0,0 0.279886,0.59631 m -8.138212,-9.29754 0.269121,9.10138 m 4.338226,-6.52789 -3.530865,2.57349 m 0.279887,-5.14698 1.89461,1.97719 m 0.53824,-3.55424 0.818128,2.76965 m 0,0 0,4.73899 m 0,0 -0.538242,1.38875 m 0,0 -1.087247,-1.5849 m 5.156354,-11.07075 -4.069107,4.15056 m -8.418098,8.50509 1.087249,1.57704 m 0.269121,-14.23269 2.174495,2.36951 m -4.338226,2.57349 2.712738,2.3695 m -0.818128,7.5165 1.905376,-9.28969 m 18.720039,-0.9886 -2.992622,10.47443 m 0,0 -1.356368,-1.97719 m 0,-9.09355 1.905374,2.57351 m -0.549006,-6.92021 2.174496,2.56565 m 2.174494,-3.3581 0,16.01375 m 5.14559,-2.36949 2.443617,2.76178 m 0,0 0.269119,-16.40604 m 0,0.79245 -7.858326,0.78461 m 1.62549,3.36595 4.876469,-0.5963 m -1.076484,2.37735 -0.279885,3.95438 m 0.549007,0 -3.261744,0.39232 m 0,0.98859 0,-5.33529 m 0,0.9886 2.992622,-0.40016 m 12.476438,-5.93159 6.51273,14.03653 m 0,0 2.432839,0 m -7.050957,-9.68198 -2.443618,4.94298 m 0,0 -1.89461,3.55426 m 0,0 -4.069105,2.37734 m 21.163649,-13.44808 0.53825,10.4823 m -0.53825,-9.29755 8.676449,-0.58846 m -0.818122,7.90879 1.087242,-8.70124 m -8.407319,9.2897 8.138199,-0.58846 m -8.407329,-7.32033 8.407329,-0.58846"
     id="path5043"
     inkscape:connector-curvature="0"
     style="fill:none;stroke:#000000;stroke-width:0.45951375" />
  <path
     d="m 695.45155,108.57027 -7.32009,0.5963 m 7.05098,4.15054 -2.71274,2.96581 m 0,0 2.98185,2.3695 m 0.54901,4.35454 0.53824,-9.88599 m -8.95633,9.68984 8.13821,-0.5963 m 0,0 0.27988,0.5963 m -8.13821,-9.29754 0.26911,9.09353 m 4.33824,-6.52004 -3.53086,2.56566 m 0.27988,-5.13915 1.8946,1.97718 m 0.53825,-3.55422 0.81813,2.76179 m 0,0 0,4.74683 m 0,0 -0.53823,1.38876 m 0,0 -1.08726,-1.58489 m 5.15635,-11.07075 -4.06909,4.15055 m -8.41811,8.50509 1.08724,1.57704 m 0.26912,-14.23268 2.17451,2.3695 m -4.33823,2.5735 2.71273,2.36948 m -0.81813,7.51651 1.90539,-9.29754 m 18.70927,-0.9886 -2.98187,10.48229 m 0,0 -1.35635,-1.9772 m 0,-9.09355 1.90535,2.56566 m -0.549,-6.9202 2.17451,2.5735 m 2.16373,-3.36594 0,16.02158 m 5.15635,-2.37736 2.44362,2.76965 m 0,0 0.26911,-16.41387 m 0,0.79244 -7.86908,0.79245 m 1.63624,3.36596 4.87648,-0.59631 m -1.08725,2.3695 -0.26912,3.95439 m 0.54901,0 -3.26176,0.40016 m 0,0.98859 0,-5.34314 m 0,0.9886 2.98187,-0.39231 m 9.22547,-4.55069 0,6.5279 m 0,-0.5963 8.68721,-0.3923 m 0.53824,-5.5393 -0.26912,6.33174 m -4.60736,-9.29754 0,15.81758 m -4.88722,0.59631 9.7637,-0.59631 m 0.26912,-4.73898 -0.26912,6.12774 m -9.7637,0 0,-5.73545 m 18.45093,-8.10494 0.53824,10.47443 m -0.53824,-9.28968 8.67645,-0.5963 m -0.81814,7.9088 1.08725,-8.6934 m -8.40732,9.2897 8.13821,-0.5963 m -8.40734,-7.3125 8.40734,-0.5963"
     id="path5209"
     inkscape:connector-curvature="0"
     style="fill:none;stroke:#000000;stroke-width:0.45951375" />
  <path
     d="m 391.68958,98.213522 0,17.888918"
     id="path5211"
     inkscape:connector-curvature="0"
     style="fill:none;stroke:#000000;stroke-width:0.45951375" />
  <path
     d="m 391.68958,116.10244 25.38346,0"
     id="path5213"
     inkscape:connector-curvature="0"
     style="fill:none;stroke:#000000;stroke-width:0.45951375" />
  <path
     d="m 417.07304,116.10244 0,-17.983071"
     id="path5215"
     inkscape:connector-curvature="0"
     style="fill:none;stroke:#000000;stroke-width:0.45951375" />
  <path
     d="m 417.04075,97.954583 1.56089,0"
     id="path5217"
     inkscape:connector-curvature="0"
     style="fill:none;stroke:#000000;stroke-width:0.45951375" />
  <path
     d="m 391.66804,98.252756 -1.99148,0"
     id="path5219"
     inkscape:connector-curvature="0"
     style="fill:none;stroke:#000000;stroke-width:0.45951375" />
  <path
     d="m 389.61197,98.26844 14.01581,-8.081411"
     id="path5221"
     inkscape:connector-curvature="0"
     style="fill:none;stroke:#000000;stroke-width:0.45951375" />
  <path
     d="m 403.62778,90.187029 14.92005,7.822483"
     id="path5223"
     inkscape:connector-curvature="0"
     style="fill:none;stroke:#000000;stroke-width:0.45951375" />
  <path
     d="m 393.20742,358.37993 0,-17.88894"
     id="path5225"
     inkscape:connector-curvature="0"
     style="fill:none;stroke:#000000;stroke-width:0.45951375" />
  <path
     d="m 393.20742,340.49099 25.39422,0"
     id="path5227"
     inkscape:connector-curvature="0"
     style="fill:none;stroke:#000000;stroke-width:0.45951375" />
  <path
     d="m 418.60164,340.49099 0,17.99093"
     id="path5229"
     inkscape:connector-curvature="0"
     style="fill:none;stroke:#000000;stroke-width:0.45951375" />
  <path
     d="m 418.56935,358.63885 1.56091,0"
     id="path5231"
     inkscape:connector-curvature="0"
     style="fill:none;stroke:#000000;stroke-width:0.45951375" />
  <path
     d="m 393.1859,358.3407 -1.98074,0"
     id="path5233"
     inkscape:connector-curvature="0"
     style="fill:none;stroke:#000000;stroke-width:0.45951375" />
  <path
     d="m 391.14056,358.32501 14.00505,8.08142"
     id="path5235"
     inkscape:connector-curvature="0"
     style="fill:none;stroke:#000000;stroke-width:0.45951375" />
  <path
     d="m 405.14561,366.40643 14.93082,-7.82251"
     id="path5237"
     inkscape:connector-curvature="0"
     style="fill:none;stroke:#000000;stroke-width:0.45951375" />
  <path
     d="m 387.52359,58.34786 1.63626,2.573496 m -2.99262,1.977194 2.17448,2.369499 m -1.35636,8.308942 2.1745,-8.308942 m 2.98186,-5.931592 2.98184,2.181178 m 0,1.77322 -4.0691,0.792439 m -0.81813,3.161961 5.15636,-0.784612 m -2.44362,-2.573496 0,10.874588 m 0,0 -1.89461,-2.3695 m 0.26912,-3.365946 -2.44361,3.954399 m 5.15634,-4.150546 1.6255,1.184756 m 4.6181,-9.093542 -0.81812,3.161938 m 0,0 -1.62547,4.746848 m 0,0 -4.06913,5.931593 m 2.71275,-10.278297 3.25097,9.093553 m 0,0 1.90538,0 m -1.62549,-12.059356 -3.79999,0.588464 m -3.26174,-4.746836 -2.98186,6.527884 m -2.98185,9.885991 -1.08726,-2.173341 m 19.80729,-12.655646 2.16373,2.573484 m -1.6255,4.150569 -2.16372,-2.573507 m 0,7.908797 2.16372,2.377349 m 0,0 2.1745,-9.297549 m 0.53826,-2.3695 10.31269,-1.184756 m -2.17449,-0.988596 -1.62547,-1.781046 m -1.62551,-0.792451 0,17.598642 m 1.08726,-1.781046 2.43284,2.173352 m 0,0 0,-12.655635 m 0,0.792439 -6.78184,0.79245 m 0.81813,5.539298 4.88723,-0.596303 m 0,-2.769643 -4.88723,0.596302 m -0.81813,-4.150569 0,12.059355"
     id="path5239"
     inkscape:connector-curvature="0"
     style="fill:none;stroke:#000000;stroke-width:0.45951375" />
  <path
     d="m 403.39095,381.78464 0,10.8746 m -3.26174,-10.67846 5.70535,-0.58845 m -5.42547,-4.55069 -0.54901,9.49369 m 0,0 -0.53823,2.36951 m 0,0 -1.08725,2.96578 m 6.5127,-15.81757 -4.33821,2.76963 m -3.79999,7.9088 2.16373,2.17336 m -4.60734,-2.17336 -2.98187,3.55425 m 4.06911,-7.7048 0,9.48585 m 0,0 -1.62548,-1.78105 m -1.35638,-4.54286 6.23285,-0.79243 m -7.3201,-1.97719 7.86909,-0.79247 m -2.44361,-3.75824 -0.54901,3.75824 m -2.43284,-2.76964 0.80735,2.18119 m -2.16373,-2.9658 6.23285,-0.59629 m -4.06912,-2.5735 1.08725,1.78105 m 20.07641,-1.57705 -6.78184,8.49724 m 4.0691,-4.943 0,13.64426 m 4.60736,-17.1985 0,15.41744 m 0,0 1.08724,0.79244 m 0,0 5.42548,0 m 0,0 -0.53824,-4.55068 m -0.54901,-7.7048 -8.13822,6.71619"
     id="path5241"
     inkscape:connector-curvature="0"
     style="fill:none;stroke:#000000;stroke-width:0.45951375" />
  <path
     d="m 17.331839,159.31838 92.631371,26.98248"
     id="path5243"
     inkscape:connector-curvature="0"
     style="fill:none;stroke:#000000;stroke-width:0.45951375" />
  <path
     d="m 19.18339,186.30086 90.77982,22.9261"
     id="path5245"
     inkscape:connector-curvature="0"
     style="fill:none;stroke:#000000;stroke-width:0.45951375" />
  <path
     d="m 19.18339,294.19943 90.77982,-20.22706"
     id="path5247"
     inkscape:connector-curvature="0"
     style="fill:none;stroke:#000000;stroke-width:0.45951375" />
  <path
     d="M 109.96321,252.38795 19.18339,268.5743"
     id="path5249"
     inkscape:connector-curvature="0"
     style="fill:none;stroke:#000000;stroke-width:0.45951375" />
  <path
     d="m 109.58642,228.83417 -91.188862,0"
     id="path5251"
     inkscape:connector-curvature="0"
     style="fill:none;stroke:#000000;stroke-width:0.45951375" />
  <path
     d="m 697.41075,158.17286 -3.59544,155.58671"
     id="path5253"
     inkscape:connector-curvature="0"
     style="fill:none;stroke:#000000;stroke-width:0.45951375" />
  <path
     d="m 788.95487,136.19613 -4.38129,189.72478"
     id="path5255"
     inkscape:connector-curvature="0"
     style="fill:none;stroke:#000000;stroke-width:0.45951375" />
  <path
     d="M 784.57358,325.92091 693.81531,313.75957"
     id="path5257"
     inkscape:connector-curvature="0"
     style="fill:none;stroke:#000000;stroke-width:0.45951375" />
  <path
     d="m 697.41075,158.17286 0.25836,-11.04721"
     id="path5259"
     inkscape:connector-curvature="0"
     style="fill:none;stroke:#000000;stroke-width:0.45951375" />
  <path
     d="m 697.66911,147.12565 91.28576,-10.92952"
     id="path5261"
     inkscape:connector-curvature="0"
     style="fill:none;stroke:#000000;stroke-width:0.45951375" />
  <path
     d="m 697.72294,160.9582 91.64101,-9.97231"
     id="path5263"
     inkscape:connector-curvature="0"
     style="fill:none;stroke:#000000;stroke-width:0.45951375" />
  <path
     d="m 693.92294,298.5069 91.14584,13.07148"
     id="path5265"
     inkscape:connector-curvature="0"
     style="fill:none;stroke:#000000;stroke-width:0.45951375" />
  <path
     d="m 789.63307,164.05738 -93.25575,25.83696"
     id="path5267"
     inkscape:connector-curvature="0"
     style="fill:none;stroke:#000000;stroke-width:0.45951375" />
  <path
     d="m 787.15714,191.00849 -91.30729,21.81193"
     id="path5269"
     inkscape:connector-curvature="0"
     style="fill:none;stroke:#000000;stroke-width:0.45951375" />
  <path
     d="M 784.6597,298.89919 694.35354,277.55801"
     id="path5271"
     inkscape:connector-curvature="0"
     style="fill:none;stroke:#000000;stroke-width:0.45951375" />
  <path
     d="m 694.84873,255.97358 90.40305,17.30049"
     id="path5273"
     inkscape:connector-curvature="0"
     style="fill:none;stroke:#000000;stroke-width:0.45951375" />
  <path
     d="m 695.78528,232.42766 91.16734,1.11414"
     id="path5275"
     inkscape:connector-curvature="0"
     style="fill:none;stroke:#000000;stroke-width:0.45951375" />
  <path
     d="m 665.34234,166.21504 31.88541,0"
     id="path5277"
     inkscape:connector-curvature="0"
     style="fill:none;stroke:#000000;stroke-width:0.45951375" />
  <path
     d="m 664.91174,228.71648 30.75511,0"
     id="path5279"
     inkscape:connector-curvature="0"
     style="fill:none;stroke:#000000;stroke-width:0.45951375" />
  <path
     d="m 664.91174,288.63659 29.35568,0"
     id="path5281"
     inkscape:connector-curvature="0"
     style="fill:none;stroke:#000000;stroke-width:0.45951375" />
  <path
     d="m 663.11401,200.06279 33.18796,0"
     id="path5283"
     inkscape:connector-curvature="0"
     style="fill:none;stroke:#000000;stroke-width:0.45951375" />
  <path
     d="m 664.91174,261.28534 30.0231,0"
     id="path5285"
     inkscape:connector-curvature="0"
     style="fill:none;stroke:#000000;stroke-width:0.45951375" />
  <path
     d="m 345.97055,39.769518 124.59386,0"
     id="path5287"
     inkscape:connector-curvature="0"
     style="fill:none;stroke:#000000;stroke-width:0.44894391" />
  <path
     d="m 346.31504,46.344968 124.59385,0"
     id="path5289"
     inkscape:connector-curvature="0"
     style="fill:none;stroke:#000000;stroke-width:0.44894391" />
  <path
     d="m 370.92377,11.243446 17.36391,-1.512804 m 3.47709,10.574644 -24.30732,2.111932 m 5.64085,-8.155657 2.16376,5.13754 m 8.24597,0.59913 3.47709,-6.942418 m -6.94342,-2.418987 0,24.459477 m 26.4711,-17.50957 1.74391,-6.642853 m 8.24597,6.036233 -16.49194,1.20575 m 9.54853,3.025605 -4.33828,0.59913 m 0,4.231355 4.33828,-0.606619 m 1.73316,-7.848601 -0.4306,13.585271 m -5.64084,-13.285705 0,13.58527 m 10.40974,2.418986 1.30255,-18.423244 m -16.49195,16.610876 15.1894,-1.205749 m -15.61999,-15.098073 0.43059,18.415755 m 19.09707,-23.852859 -22.57415,1.512804 m 49.056,-0.906185 -18.23587,1.205749 m 0,20.535178 16.93331,-0.906185 m 0.8612,1.505315 0.44136,-23.553295 m -0.44136,24.459478 0,-0.906183 m 0,0 -0.8612,-1.505315 m -16.93331,-22.04798 0,23.860348 m 0,-24.159913 0,25.365662 m 9.54855,-21.441361 -6.94342,6.949908 m 3.90768,-2.119423 8.68734,6.343289 m 0,0 2.16377,-0.299566 m -9.54854,0 3.03573,2.411498 m -4.3383,0.906183 4.3383,3.325171 m -3.9077,-14.498944 5.65162,-0.599129 m -5.65162,6.642853 2.60514,-2.418987 m 0,0 4.34905,-5.437103 m -13.02563,11.480825 6.07144,-3.624735"
     id="path5291"
     inkscape:connector-curvature="0"
     style="fill:none;stroke:#000000;stroke-width:0.44894391" />
</svg>
