<?xml version="1.0" encoding="UTF-8" standalone="no"?>
<svg
   xmlns:dc="http://purl.org/dc/elements/1.1/"
   xmlns:cc="http://creativecommons.org/ns#"
   xmlns:rdf="http://www.w3.org/1999/02/22-rdf-syntax-ns#"
   xmlns:svg="http://www.w3.org/2000/svg"
   xmlns="http://www.w3.org/2000/svg"
   xmlns:sodipodi="http://sodipodi.sourceforge.net/DTD/sodipodi-0.dtd"
   xmlns:inkscape="http://www.inkscape.org/namespaces/inkscape"
   width="800.000"
   height="400.000"
   viewBox="0.0 0.0 800.000 400.000"
   id="svg18257"
   version="1.1"
   inkscape:version="0.48.4 r9939"
   sodipodi:docname="2#停车场热点图.svg">
  <metadata
     id="metadata21177">
    <rdf:RDF>
      <cc:Work
         rdf:about="">
        <dc:format>image/svg+xml</dc:format>
        <dc:type
           rdf:resource="http://purl.org/dc/dcmitype/StillImage" />
        <dc:title>Produce by DWG to SVG Converter 2013 MX</dc:title>
      </cc:Work>
    </rdf:RDF>
  </metadata>
  <defs
     id="defs21175" />
  <sodipodi:namedview
     pagecolor="#ffffff"
     bordercolor="#666666"
     borderopacity="1"
     objecttolerance="10"
     gridtolerance="10"
     guidetolerance="10"
     inkscape:pageopacity="0"
     inkscape:pageshadow="2"
     inkscape:window-width="1440"
     inkscape:window-height="878"
     id="namedview21173"
     showgrid="false"
     inkscape:zoom="0.40305087"
     inkscape:cx="-24.717753"
     inkscape:cy="297.29501"
     inkscape:window-x="-8"
     inkscape:window-y="-8"
     inkscape:window-maximized="1"
     inkscape:current-layer="svg18257" />
  <title
     id="title18259">Produce by DWG to SVG Converter 2013 MX</title>
  <desc
     id="desc18261">Produce by DWG to SVG Converter 2013 MX</desc>
  <path
     d="m 259.49082,248.55873 0,-1.87481 1.79822,-3.12467 1.57343,-1.24988 1.57345,-1.45817 4.04598,-4.37456 2.69731,-2.91633 2.47254,-2.91637 3.14688,-4.58286 0.67432,-1.45818 0.89912,-1.66649 0.44953,-2.70805 -0.22477,-1.24987 -0.22476,-1.04155 -1.1239,-2.08312 -0.8991,-0.62494 -1.12388,-0.83325 -2.24777,-0.62492 -1.34866,0.2083 -1.34866,0 -2.47255,1.04156 -1.12387,0.83325 -1.12388,0.62494 -1.79823,2.49973 -0.67431,1.66649 -4.72032,-0.62494 1.12388,-2.70804 2.47255,-3.95792 1.57343,-1.24985 1.57345,-1.04156 3.59642,-1.45819 2.02299,0 1.34866,-0.20831 2.24776,0 0.89911,0.20831 1.12388,0.20831 2.023,0.83325 1.12387,0.62494 0.8991,0.62493 1.79821,1.8748 0.67433,1.24986 0.67434,1.24987 0.44956,3.12467 -0.2248,1.87481 0,1.66649 -2.02299,4.37455 -1.79818,2.29142 -1.57344,2.49974 -6.74331,7.91583 -4.94508,5.20779 17.75736,0 0,4.16623 -24.95022,0 0,-0.83324 z"
     id="path18601"
     style="fill:#550000;fill-rule:evenodd;stroke-width:6.27099991;stroke-miterlimit:4;stroke-dasharray:none"
     inkscape:connector-curvature="0" />
  <path
     d="m 317.93274,238.9764 -7.41764,0 -1.34865,10.62388 -4.04599,0 1.57344,-10.62388 -8.31671,0 -1.34869,10.62388 -4.04597,0 1.34867,-10.62388 -4.94508,0 0,-4.37455 5.61941,0 1.34866,-9.58232 -6.96807,0 0,-4.37455 7.64238,0 1.34869,-10.41557 4.04596,0 -1.57344,10.41557 8.31674,0 1.34865,-10.41557 4.04598,0 -1.57343,10.41557 4.94509,0 0,4.37455 -5.39465,0 -1.34865,9.58232 6.7433,0 0,4.37455 z m -9.44062,-13.95687 -8.09195,0 -1.57345,9.58232 8.31674,0 1.34866,-9.58232 z"
     id="path18603"
     style="fill:#550000;fill-rule:evenodd;stroke-width:6.27099991;stroke-miterlimit:4;stroke-dasharray:none"
     inkscape:connector-curvature="0" />
  <path
     d="m 373.67731,214.81226 0,1.45818 -0.22476,3.12467 0,1.66649 0,1.6665 0.22476,2.49974 0,0.83324 -28.54661,0 0.22477,-1.24987 0,-2.70804 0,-1.45819 0,-1.45818 0,-2.91636 -0.22477,-1.45818 28.54661,0 0,0 z m -4.49551,7.91584 0,-4.37454 -19.55556,0 0,4.37454 19.55556,0 z"
     id="path18605"
     style="fill:#550000;fill-rule:evenodd;stroke-width:6.27099991;stroke-miterlimit:4;stroke-dasharray:none"
     inkscape:connector-curvature="0" />
  <path
     d="m 339.06174,203.98007 -0.67434,0.83325 -2.02299,4.58285 -1.12387,3.7496 0,32.28828 0,2.49973 0,5.2078 0.22477,2.49972 -4.72031,0 0,-2.49972 0.22477,-4.99949 0,-2.49973 0,-24.78907 -0.8991,1.6665 -2.47254,4.37454 -1.57345,2.70805 -1.12387,-1.24986 -2.02299,-1.66651 -0.89911,-0.62493 1.12389,-1.24987 3.14687,-5.20779 2.02299,-3.54128 2.02299,-3.74962 2.69731,-6.87427 0.44956,-3.12467 5.61942,1.66649 0,0 z"
     id="path18607"
     style="fill:#550000;fill-rule:evenodd;stroke-width:6.27099991;stroke-miterlimit:4;stroke-dasharray:none"
     inkscape:connector-curvature="0" />
  <path
     d="m 367.38358,237.10158 1.79822,0 3.59642,-0.20831 1.57344,-0.20831 0,4.16624 -1.57344,0 -3.37164,-0.20832 -1.57345,0 -5.16986,0 0,10.6239 0,1.66648 -1.34867,2.08312 -1.34865,0.41661 -1.12387,0.20831 -3.37165,0.62494 -2.24777,0.20831 0,-1.24985 -1.12389,-2.70806 -0.67432,-1.24986 2.02298,0 2.69732,0 0.89912,0 0.67431,-0.20832 0.67434,-0.83325 0,-0.83324 0,-8.74909 -5.8442,0 -1.79821,0 -3.59642,0.20832 -1.79822,0 0,-4.16624 1.79822,0.20831 3.59642,0.20831 2.02299,0 14.61048,0 z"
     id="path18609"
     style="fill:#550000;fill-rule:evenodd;stroke-width:6.27099991;stroke-miterlimit:4;stroke-dasharray:none"
     inkscape:connector-curvature="0" />
  <path
     d="m 380.64539,229.18576 0,0.83325 -0.22476,2.08311 0.22476,1.04156 0,1.04154 0,1.87481 0,0.62493 -4.27074,0 0,-4.16621 -33.26694,0 0,4.16621 -4.49552,0 0.22476,-1.04156 0,-1.87478 0,-1.04156 0,-1.04156 0,-1.66649 -0.22476,-0.83325 42.0332,0 0,0 z"
     id="path18611"
     style="fill:#550000;fill-rule:evenodd;stroke-width:6.27099991;stroke-miterlimit:4;stroke-dasharray:none"
     inkscape:connector-curvature="0" />
  <path
     d="m 361.3146,201.89696 0.44956,1.24986 0.89911,2.91637 0.67433,1.66649 7.19285,0 2.69733,0 4.7203,-0.20831 1.79821,0 0,3.95792 -2.023,-0.20831 -4.72029,0 -2.47255,0 -21.35377,0 -2.02299,0 -4.04598,0 -2.02298,0.20831 0,-3.95792 2.02298,0 3.82119,0.20831 2.24778,0 8.5415,0 -0.22477,-1.24987 -0.89911,-2.29143 -0.44955,-0.83325 1.12389,-0.20831 2.69731,-0.83324 1.34865,-0.41662 0,0 z"
     id="path18613"
     style="fill:#550000;fill-rule:evenodd;stroke-width:6.27099991;stroke-miterlimit:4;stroke-dasharray:none"
     inkscape:connector-curvature="0" />
  <path
     d="m 394.80633,232.72706 -0.67434,-1.45819 -1.12389,-2.70804 -0.44954,-1.04157 1.57343,-0.62493 3.37165,-2.49973 1.57343,-1.87481 1.79822,-1.87481 2.69733,-3.54129 1.12388,-1.87481 -4.49554,0 -7.41762,0.20831 -2.9221,0.20832 0,-4.79115 2.69732,0.20831 8.54151,0.20831 6.06897,0 1.57343,-2.91637 2.023,-4.37454 0.44954,-1.8748 1.57344,0.83325 2.69732,1.04155 1.34867,0.41663 -1.1239,1.66649 -2.24776,3.33298 -0.89912,1.87481 16.85825,0 1.34867,0 4.72031,-0.20831 3.14686,-0.20831 0,4.79115 -2.47254,-0.20832 -4.72031,-0.20831 -2.02299,0 -19.106,0 -1.34868,2.08312 -4.72029,6.04103 -3.37165,3.95793 13.93616,0 0,-2.29143 -0.2248,-4.37455 -0.22477,-2.29142 5.61942,0 -0.22478,1.8748 0,4.58285 0,2.49975 8.31674,0 2.47254,0 4.94509,-0.20831 2.24775,0 0,4.58285 -2.24775,-0.20831 -4.94509,0 -2.47254,0 -8.31674,0 0,8.74907 13.93614,0 2.24777,0 5.16987,-0.20831 2.9221,0 0,4.79117 -2.9221,-0.20832 -5.16987,0 -2.24777,0 -13.93614,0 0,3.54129 0,6.04105 0.22478,2.0831 -5.61942,0 0.22477,-2.29142 0.2248,-5.83273 0,-3.54129 -17.30781,0 -2.69731,0 -5.16986,0 -2.47255,0.20832 0,-4.79117 2.47255,0 5.16986,0.20831 2.69731,0 17.30781,0 0,-8.74907 -4.49554,0 -6.29375,0 -1.7982,0.20831 -1.57345,0 -3.82119,0.62493 -2.02299,0.41663 0,0 z"
     id="path18615"
     style="fill:#550000;fill-rule:evenodd;stroke-width:6.27099991;stroke-miterlimit:4;stroke-dasharray:none"
     inkscape:connector-curvature="0" />
  <path
     d="m 503.14863,204.81332 0,3.54129 -1.79821,0.41662 -3.59643,2.08313 -2.24777,1.66647 -2.02297,1.6665 -5.39466,4.99947 -3.59643,3.12468 22.47767,0 -0.22476,0.62493 -0.22479,3.7496 -0.22478,2.91637 -0.8991,17.28985 0,2.91637 -1.34867,3.54129 -1.34864,0.62493 -1.1239,0.62495 -4.04598,1.04153 -3.14686,0.20831 -0.22477,-1.45816 -1.12389,-2.70806 -0.89912,-1.45818 2.69732,0.41663 3.37166,-0.20831 0.67432,-0.41662 0.89912,-0.20831 0.89911,-1.66651 0,-1.04155 0.89909,-21.03946 -4.72031,0 -0.44956,3.5413 -1.57343,5.83272 -0.8991,2.29142 -0.8991,2.29143 -2.02299,3.95792 -1.12388,1.66649 -1.12388,1.66649 -2.69733,2.91636 -1.57345,1.04157 -1.34865,1.24986 -3.82119,2.49974 -2.24777,1.24986 -0.67433,-1.04154 -1.57344,-2.08312 -1.12388,-0.83325 2.02298,-1.04155 3.8212,-2.29143 1.79822,-1.45819 1.79821,-1.24987 2.69734,-3.33298 1.12387,-1.8748 1.12387,-1.8748 1.79823,-3.74961 0.44955,-2.0831 0.67433,-2.08313 0.67433,-3.54128 0.22479,-1.66651 -4.9451,0 -0.22478,1.87482 -1.12389,3.54129 -0.67432,1.66649 -0.89911,1.87478 -2.24775,3.54131 -1.57345,1.66649 -1.34866,1.66649 -3.8212,3.33299 -2.47255,1.66649 -0.44954,-0.83325 -1.79821,-1.66649 -1.34866,-1.04155 2.92209,-1.45819 4.7203,-3.95791 1.57343,-2.49974 1.57344,-2.70804 2.02301,-4.58286 0.22476,-2.08312 -1.34865,0.20831 -1.79822,0.20832 -0.44956,0.2083 -0.67431,0 -1.57344,0.41664 -1.12389,0.41661 -0.22478,-1.45818 -0.89909,-2.29142 -0.22479,-0.83325 2.02298,-0.20831 4.9451,-2.70806 2.69732,-2.29142 2.92211,-2.29143 4.94507,-4.58283 2.24777,-2.29143 -9.44063,0 -2.69732,0 -5.16985,0.2083 -2.24776,0 0,-4.37453 2.24776,0.2083 4.94508,0.20832 2.69733,0 19.33077,0 z"
     id="path18617"
     style="fill:#550000;fill-rule:evenodd;stroke-width:6.27099991;stroke-miterlimit:4;stroke-dasharray:none"
     inkscape:connector-curvature="0" />
  <path
     d="m 459.09243,210.43773 0,-1.24988 0,-3.12466 -0.22479,-2.08312 5.39463,0 -0.22476,2.08312 -0.22478,3.33298 0,1.04156 0,8.54076 2.02299,0 3.8212,0 2.02299,-0.20831 0,4.16623 -2.24776,-0.20831 -3.8212,0 -1.79822,0 0,16.66492 1.57344,-0.41662 4.04598,-1.45819 2.69732,-1.24987 0,1.04156 0,2.08312 0.22479,1.04155 -2.023,0.83325 -5.16986,2.08312 -2.92211,1.04155 -3.14686,1.24987 -4.94509,2.08311 -2.02299,1.04157 -0.44956,-1.04157 -1.34864,-2.29142 -1.12389,-1.24987 2.24776,-0.62493 4.94509,-1.45819 2.69732,-1.04155 0,-18.33141 -2.69732,0 -4.27076,0 -1.57343,0.20831 0,-4.16623 2.02298,0.20831 4.27075,0 2.24778,0 0,-8.54076 z"
     id="path18619"
     style="fill:#550000;fill-rule:evenodd;stroke-width:6.27099991;stroke-miterlimit:4;stroke-dasharray:none"
     inkscape:connector-curvature="0" />
  <path
     d="m 63.28882,134.40405 0,-76.866918 m 0,0 684.26028,0 m 0,0 0,305.176258 m 0,0 -684.26028,0 m 0,0 0,-119.77908"
     id="path18763"
     style="fill:#550000;stroke:#000000;stroke-width:4.40907192;stroke-miterlimit:4;stroke-dasharray:none"
     inkscape:connector-curvature="0" />
  <path
     d="m 63.28882,362.71339 0,-119.77908"
     id="path18765"
     style="fill:#550000;stroke:#000000;stroke-width:4.40907192;stroke-miterlimit:4;stroke-dasharray:none"
     inkscape:connector-curvature="0" />
  <path
     d="m 63.28882,242.93431 55.01441,0"
     id="path18767"
     style="fill:#550000;stroke:#000000;stroke-width:4.40907192;stroke-miterlimit:4;stroke-dasharray:none"
     inkscape:connector-curvature="0" />
  <path
     d="m 118.30323,242.93431 0,-38.53761"
     id="path18769"
     style="fill:#550000;stroke:#000000;stroke-width:4.40907192;stroke-miterlimit:4;stroke-dasharray:none"
     inkscape:connector-curvature="0" />
  <path
     d="M 118.30323,204.3967 277.39895,141.27833"
     id="path18771"
     style="fill:#550000;stroke:#000000;stroke-width:4.40907192;stroke-miterlimit:4;stroke-dasharray:none"
     inkscape:connector-curvature="0" />
  <path
     d="m 63.28882,57.537132 0,76.866918"
     id="path18773"
     style="fill:#550000;stroke:#000000;stroke-width:4.40907192;stroke-miterlimit:4;stroke-dasharray:none"
     inkscape:connector-curvature="0" />
  <path
     d="M 63.28882,134.40405 272.34357,87.533978"
     id="path18775"
     style="fill:#550000;stroke:#000000;stroke-width:4.40907192;stroke-miterlimit:4;stroke-dasharray:none"
     inkscape:connector-curvature="0" />
  <path
     d="m 57.93608,312.71864 0.594735,-2.49974 -0.594735,-2.70805 0,5.20779 z"
     id="path19467"
     style="fill:#550000;fill-rule:evenodd;stroke-width:6.27099991;stroke-miterlimit:4;stroke-dasharray:none"
     inkscape:connector-curvature="0" />
  <path
     d="m 57.638696,258.55766 0.594752,-2.70805 -0.594752,-2.49972 0,5.20777 z"
     id="path20809"
     style="fill:#550000;fill-rule:evenodd;stroke-width:6.27099991;stroke-miterlimit:4;stroke-dasharray:none"
     inkscape:connector-curvature="0" />
  <path
     d="m 57.638696,257.72441 0.594752,-2.49971 -0.594752,-2.49974 0,4.99945 z"
     id="path20847"
     style="fill:#550000;fill-rule:evenodd;stroke-width:6.27099991;stroke-miterlimit:4;stroke-dasharray:none"
     inkscape:connector-curvature="0" />
</svg>
