<?xml version="1.0" encoding="UTF-8" standalone="no"?>
<svg
   xmlns:dc="http://purl.org/dc/elements/1.1/"
   xmlns:cc="http://creativecommons.org/ns#"
   xmlns:rdf="http://www.w3.org/1999/02/22-rdf-syntax-ns#"
   xmlns:svg="http://www.w3.org/2000/svg"
   xmlns="http://www.w3.org/2000/svg"
   xmlns:sodipodi="http://sodipodi.sourceforge.net/DTD/sodipodi-0.dtd"
   xmlns:inkscape="http://www.inkscape.org/namespaces/inkscape"
   width="800.000"
   height="600.000"
   viewBox="0.0 0.0 800.000 600.000"
   id="svg4977"
   version="1.1"
   inkscape:version="0.48.4 r9939"
   sodipodi:docname="16标K76+872涵洞图-Model.svg">
  <metadata
     id="metadata6967">
    <rdf:RDF>
      <cc:Work
         rdf:about="">
        <dc:format>image/svg+xml</dc:format>
        <dc:type
           rdf:resource="http://purl.org/dc/dcmitype/StillImage" />
      </cc:Work>
    </rdf:RDF>
  </metadata>
  <defs
     id="defs6965" />
  <sodipodi:namedview
     pagecolor="#ffffff"
     bordercolor="#666666"
     borderopacity="1"
     objecttolerance="10"
     gridtolerance="10"
     guidetolerance="10"
     inkscape:pageopacity="0"
     inkscape:pageshadow="2"
     inkscape:window-width="1920"
     inkscape:window-height="1018"
     id="namedview6963"
     showgrid="false"
     inkscape:zoom="1.3733333"
     inkscape:cx="400"
     inkscape:cy="300"
     inkscape:window-x="1432"
     inkscape:window-y="-8"
     inkscape:window-maximized="1"
     inkscape:current-layer="svg4977" />
  <title
     id="title4979">Produce by DWG to SVG Converter MX</title>
  <desc
     id="desc4981">Produce by DWG to SVG Converter MX</desc>
  <path
     d="M88.56 251.64L88.56 453.01"
     fill="none"
     stroke="black"
     stroke-width="0.5"
     id="path5007" />
  <path
     d="M2.71 221.76L2.71 467.3"
     fill="none"
     stroke="black"
     stroke-width="0.5"
     id="path5009" />
  <path
     d="M2.71 467.3L88.56 453.01"
     fill="none"
     stroke="black"
     stroke-width="0.5"
     id="path5011" />
  <path
     d="M88.56 251.64L88.56 237.35"
     fill="none"
     stroke="black"
     stroke-width="0.5"
     id="path5013" />
  <path
     d="M88.56 237.35L2.71 221.76"
     fill="none"
     stroke="black"
     stroke-width="0.5"
     id="path5015" />
  <path
     d="M88.21 255.24L2 240.89"
     fill="none"
     stroke="black"
     stroke-width="0.5"
     id="path5017" />
  <path
     d="M88.21 266.72L612.66 266.72"
     fill="none"
     stroke="black"
     stroke-width="0.5"
     id="path5019" />
  <path
     d="M88.79 433.28L2.56 448.74"
     fill="none"
     stroke="black"
     stroke-width="0.5"
     id="path5021" />
  <path
     d="M89.09 425.13L612.25 425.13"
     fill="none"
     stroke="black"
     stroke-width="0.5"
     id="path5023" />
  <path
     d="M365.86 217.81L365.86 480.76"
     fill="none"
     stroke="black"
     stroke-width="0.5"
     id="path5025" />
  <path
     d="M89.09 347.6L612.25 347.6"
     fill="none"
     stroke="black"
     stroke-width="0.5"
     id="path5035" />
  <path
     d="M89.09 310.51L154.96 310.51M210.63 310.51L321.99 310.51M377.67 310.51L489.02 310.51M544.7 310.51L610.56 310.51"
     fill="none"
     stroke="black"
     stroke-width="0.5"
     id="path5049" />
  <path
     d="M89.09 389.74L155.8 389.74M211.48 389.74L322.83 389.74M378.51 389.74L489.87 389.74M545.54 389.74L612.25 389.74"
     fill="none"
     stroke="black"
     stroke-width="0.5"
     id="path5051" />
  <path
     d="M354.56 178.72L354.56 201.86"
     fill="none"
     stroke="black"
     stroke-width="0.5"
     id="path5221" />
  <path
     d="M354.56 201.86L378.5 201.86"
     fill="none"
     stroke="black"
     stroke-width="0.5"
     id="path5223" />
  <path
     d="M378.5 201.86L378.5 178.59"
     fill="none"
     stroke="black"
     stroke-width="0.5"
     id="path5225" />
  <path
     d="M378.47 178.39L379.94 178.39"
     fill="none"
     stroke="black"
     stroke-width="0.5"
     id="path5227" />
  <path
     d="M354.54 178.77L352.66 178.77"
     fill="none"
     stroke="black"
     stroke-width="0.5"
     id="path5229" />
  <path
     d="M352.6 178.79L365.82 168.33"
     fill="none"
     stroke="black"
     stroke-width="0.5"
     id="path5231" />
  <path
     d="M365.82 168.33L379.89 178.45"
     fill="none"
     stroke="black"
     stroke-width="0.5"
     id="path5233" />
  <path
     d="M355.99 515.39L355.99 492.24"
     fill="none"
     stroke="black"
     stroke-width="0.5"
     id="path5235" />
  <path
     d="M355.99 492.24L379.94 492.24"
     fill="none"
     stroke="black"
     stroke-width="0.5"
     id="path5237" />
  <path
     d="M379.94 492.24L379.94 515.52"
     fill="none"
     stroke="black"
     stroke-width="0.5"
     id="path5239" />
  <path
     d="M379.91 515.72L381.38 515.72"
     fill="none"
     stroke="black"
     stroke-width="0.5"
     id="path5241" />
  <path
     d="M355.97 515.34L354.1 515.34"
     fill="none"
     stroke="black"
     stroke-width="0.5"
     id="path5243" />
  <path
     d="M354.04 515.31L367.25 525.77"
     fill="none"
     stroke="black"
     stroke-width="0.5"
     id="path5245" />
  <path
     d="M367.25 525.77L381.33 515.66"
     fill="none"
     stroke="black"
     stroke-width="0.5"
     id="path5247" />
  <path
     d="M1.47 257.8L88.84 292.7"
     fill="none"
     stroke="black"
     stroke-width="0.5"
     id="path5253" />
  <path
     d="M3.21 292.7L88.84 322.38"
     fill="none"
     stroke="black"
     stroke-width="0.5"
     id="path5255" />
  <path
     d="M3.21 432.34L88.84 406.16"
     fill="none"
     stroke="black"
     stroke-width="0.5"
     id="path5257" />
  <path
     d="M88.84 378.23L3.21 399.18"
     fill="none"
     stroke="black"
     stroke-width="0.5"
     id="path5259" />
  <path
     d="M88.48 347.75L2.48 347.75"
     fill="none"
     stroke="black"
     stroke-width="0.5"
     id="path5261" />
  <path
     d="M642.91 256.31L639.52 457.65"
     fill="none"
     stroke="black"
     stroke-width="0.5"
     id="path5263" />
  <path
     d="M729.25 227.87L725.12 473.38"
     fill="none"
     stroke="black"
     stroke-width="0.5"
     id="path5265" />
  <path
     d="M725.12 473.38L639.52 457.65"
     fill="none"
     stroke="black"
     stroke-width="0.5"
     id="path5267" />
  <path
     d="M642.91 256.31L643.15 242.02"
     fill="none"
     stroke="black"
     stroke-width="0.5"
     id="path5269" />
  <path
     d="M643.15 242.02L729.25 227.87"
     fill="none"
     stroke="black"
     stroke-width="0.5"
     id="path5271" />
  <path
     d="M643.2 259.91L729.64 247.01"
     fill="none"
     stroke="black"
     stroke-width="0.5"
     id="path5273" />
  <path
     d="M639.62 437.91L725.59 454.82"
     fill="none"
     stroke="black"
     stroke-width="0.5"
     id="path5275" />
  <path
     d="M729.89 263.92L641.94 297.36"
     fill="none"
     stroke="black"
     stroke-width="0.5"
     id="path5277" />
  <path
     d="M727.55 298.8L641.44 327.03"
     fill="none"
     stroke="black"
     stroke-width="0.5"
     id="path5279" />
  <path
     d="M725.2 438.41L640.03 410.79"
     fill="none"
     stroke="black"
     stroke-width="0.5"
     id="path5281" />
  <path
     d="M640.5 382.87L725.76 405.25"
     id="path5283"
     stroke-width="0.5"
     stroke="black"
     fill="none" />
  <path
     d="M641.37 352.4L727.36 353.84"
     fill="none"
     stroke="black"
     stroke-width="0.5"
     id="path5285" />
  <path
     d="M612.66 266.72L642.73 266.72"
     fill="none"
     stroke="black"
     stroke-width="0.5"
     id="path5287" />
  <path
     d="M612.25 347.6L641.26 347.6"
     fill="none"
     stroke="black"
     stroke-width="0.5"
     id="path5289" />
  <path
     d="M612.25 425.13L639.94 425.13"
     fill="none"
     stroke="black"
     stroke-width="0.5"
     id="path5291" />
  <path
     d="M610.56 310.51L641.86 310.51"
     fill="none"
     stroke="black"
     stroke-width="0.5"
     id="path5293" />
  <path
     d="M612.25 389.74L640.57 389.74"
     fill="none"
     stroke="black"
     stroke-width="0.5"
     id="path5295" />
  <path
     d="M185.99 397.44L184.99 429.33"
     fill="none"
     stroke="black"
     stroke-width="0.5"
     id="path5303" />
  <path
     d="M162.68 455.29L172.62 455.29M172.62 455.29L175.94 451.98M175.94 451.98L175.94 448.66M175.94 448.66L172.62 445.35M172.62 445.35L165.99 445.35M172.62 445.35L175.94 442.04M175.94 442.04L175.94 438.72M175.94 438.72L172.62 435.41M172.62 435.41L162.68 435.41M165.99 435.41L165.99 455.29M182.56 455.29L182.56 435.41M182.56 435.41L189.19 448.66M189.19 448.66L195.82 435.41M195.82 435.41L195.82 455.29M215.71 448.66L202.45 448.66M202.45 448.66L212.39 435.41M212.39 435.41L212.39 455.29"
     fill="none"
     stroke="black"
     stroke-width="0.5"
     id="path5305" />
  <path
     d="M297.15 397.81L296.16 429.7"
     fill="none"
     stroke="black"
     stroke-width="0.5"
     id="path5307" />
  <path
     d="M273.85 455.66L283.79 455.66M283.79 455.66L287.1 452.35M287.1 452.35L287.1 449.03M287.1 449.03L283.79 445.72M283.79 445.72L277.16 445.72M283.79 445.72L287.1 442.4M287.1 442.4L287.1 439.09M287.1 439.09L283.79 435.78M283.79 435.78L273.85 435.78M277.16 435.78L277.16 455.66M293.73 455.66L293.73 435.78M293.73 435.78L300.36 449.03M300.36 449.03L306.99 435.78M306.99 435.78L306.99 455.66M313.62 439.09L316.93 435.78M316.93 435.78L323.56 435.78M323.56 435.78L326.87 439.09M326.87 439.09L326.87 442.4M326.87 442.4L323.56 445.72M323.56 445.72L320.25 445.72M323.56 445.72L326.87 449.03M326.87 449.03L326.87 452.35M326.87 452.35L323.56 455.66M323.56 455.66L316.93 455.66M316.93 455.66L313.62 452.35"
     fill="none"
     stroke="black"
     stroke-width="0.5"
     id="path5309" />
  <path
     d="M425.17 399.09L424.17 430.97"
     fill="none"
     stroke="black"
     stroke-width="0.5"
     id="path5311" />
  <path
     d="M401.86 456.94L411.8 456.94M411.8 456.94L415.12 453.63M415.12 453.63L415.12 450.31M415.12 450.31L411.8 447M411.8 447L405.17 447M411.8 447L415.12 443.68M415.12 443.68L415.12 440.37M415.12 440.37L411.8 437.05M411.8 437.05L401.86 437.05M405.17 437.05L405.17 456.94M421.75 456.94L421.75 437.05M421.75 437.05L428.37 450.31M428.37 450.31L435 437.05M435 437.05L435 456.94M441.63 440.37L444.94 437.05M444.94 437.05L451.57 437.05M451.57 437.05L454.89 440.37M454.89 440.37L454.89 443.68M454.89 443.68L451.57 447M451.57 447L444.94 447M444.94 447L441.63 450.31M441.63 450.31L441.63 456.94M441.63 456.94L454.89 456.94"
     fill="none"
     stroke="black"
     stroke-width="0.5"
     id="path5313" />
  <path
     d="M525.02 400.36L524.02 432.25"
     fill="none"
     stroke="black"
     stroke-width="0.5"
     id="path5315" />
  <path
     d="M501.71 458.22L511.65 458.22M511.65 458.22L514.97 454.9M514.97 454.9L514.97 451.59M514.97 451.59L511.65 448.28M511.65 448.28L505.02 448.28M511.65 448.28L514.97 444.96M514.97 444.96L514.97 441.65M514.97 441.65L511.65 438.33M511.65 438.33L501.71 438.33M505.02 438.33L505.02 458.22M521.6 458.22L521.6 438.33M521.6 438.33L528.22 451.59M528.22 451.59L534.85 438.33M534.85 438.33L534.85 458.22M541.48 441.65L544.79 438.33M544.79 438.33L544.79 458.22M541.48 458.22L548.11 458.22"
     fill="none"
     stroke="black"
     stroke-width="0.5"
     id="path5317" />
  <path
     d="M185.99 296.52L184.99 264.63"
     fill="none"
     stroke="black"
     stroke-width="0.5"
     id="path5319" />
  <path
     d="M162.68 261.86L172.62 261.86M172.62 261.86L175.94 258.55M175.94 258.55L175.94 255.24M175.94 255.24L172.62 251.92M172.62 251.92L165.99 251.92M172.62 251.92L175.94 248.61M175.94 248.61L175.94 245.29M175.94 245.29L172.62 241.98M172.62 241.98L162.68 241.98M165.99 241.98L165.99 261.86M182.56 261.86L182.56 241.98M182.56 241.98L189.19 255.24M189.19 255.24L195.82 241.98M195.82 241.98L195.82 261.86M205.76 261.86L202.45 258.55M202.45 258.55L202.45 255.24M202.45 255.24L205.76 251.92M205.76 251.92L212.39 251.92M212.39 251.92L215.71 248.61M215.71 248.61L215.71 245.29M215.71 245.29L212.39 241.98M212.39 241.98L205.76 241.98M205.76 241.98L202.45 245.29M202.45 245.29L202.45 248.61M202.45 248.61L205.76 251.92M212.39 251.92L215.71 255.24M215.71 255.24L215.71 258.55M215.71 258.55L212.39 261.86M212.39 261.86L205.76 261.86"
     fill="none"
     stroke="black"
     stroke-width="0.5"
     id="path5321" />
  <path
     d="M297.15 296.15L296.16 264.26"
     fill="none"
     stroke="black"
     stroke-width="0.5"
     id="path5323" />
  <path
     d="M273.85 261.5L283.79 261.5M283.79 261.5L287.1 258.18M287.1 258.18L287.1 254.87M287.1 254.87L283.79 251.55M283.79 251.55L277.16 251.55M283.79 251.55L287.1 248.24M287.1 248.24L287.1 244.93M287.1 244.93L283.79 241.61M283.79 241.61L273.85 241.61M277.16 241.61L277.16 261.5M293.73 261.5L293.73 241.61M293.73 241.61L300.36 254.87M300.36 254.87L306.99 241.61M306.99 241.61L306.99 261.5M313.62 241.61L326.87 241.61M326.87 241.61L316.93 261.5"
     fill="none"
     stroke="black"
     stroke-width="0.5"
     id="path5325" />
  <path
     d="M425.17 294.87L424.17 262.98"
     fill="none"
     stroke="black"
     stroke-width="0.5"
     id="path5327" />
  <path
     d="M401.86 260.22L411.8 260.22M411.8 260.22L415.12 256.9M415.12 256.9L415.12 253.59M415.12 253.59L411.8 250.28M411.8 250.28L405.17 250.28M411.8 250.28L415.12 246.96M415.12 246.96L415.12 243.65M415.12 243.65L411.8 240.33M411.8 240.33L401.86 240.33M405.17 240.33L405.17 260.22M421.75 260.22L421.75 240.33M421.75 240.33L428.37 253.59M428.37 253.59L435 240.33M435 240.33L435 260.22M441.63 250.28L451.57 250.28M451.57 250.28L454.89 253.59M454.89 253.59L454.89 256.9M454.89 256.9L451.57 260.22M451.57 260.22L444.94 260.22M444.94 260.22L441.63 256.9M441.63 256.9L441.63 246.96M441.63 246.96L448.26 240.33M448.26 240.33L451.57 240.33"
     fill="none"
     stroke="black"
     stroke-width="0.5"
     id="path5329" />
  <path
     d="M525.02 293.6L524.02 261.71"
     fill="none"
     stroke="black"
     stroke-width="0.5"
     id="path5331" />
  <path
     d="M501.71 258.94L511.65 258.94M511.65 258.94L514.97 255.63M514.97 255.63L514.97 252.31M514.97 252.31L511.65 249M511.65 249L505.02 249M511.65 249L514.97 245.68M514.97 245.68L514.97 242.37M514.97 242.37L511.65 239.06M511.65 239.06L501.71 239.06M505.02 239.06L505.02 258.94M521.6 258.94L521.6 239.06M521.6 239.06L528.22 252.31M528.22 252.31L534.85 239.06M534.85 239.06L534.85 258.94M541.48 255.63L544.79 258.94M544.79 258.94L551.42 258.94M551.42 258.94L554.74 255.63M554.74 255.63L554.74 249M554.74 249L551.42 245.68M551.42 245.68L541.48 245.68M541.48 245.68L541.48 239.06M541.48 239.06L554.74 239.06"
     fill="none"
     stroke="black"
     stroke-width="0.5"
     id="path5333" />
</svg>
