<?xml version="1.0" encoding="UTF-8" standalone="no"?>
<svg
   xmlns:dc="http://purl.org/dc/elements/1.1/"
   xmlns:cc="http://creativecommons.org/ns#"
   xmlns:rdf="http://www.w3.org/1999/02/22-rdf-syntax-ns#"
   xmlns:svg="http://www.w3.org/2000/svg"
   xmlns="http://www.w3.org/2000/svg"
   xmlns:sodipodi="http://sodipodi.sourceforge.net/DTD/sodipodi-0.dtd"
   xmlns:inkscape="http://www.inkscape.org/namespaces/inkscape"
   width="800.000"
   height="400.000"
   viewBox="0.0 0.0 800.000 400.000"
   id="svg9061"
   onload="init(evt)"
   ondrop="drop(evt)"
   ondragover="allowDrop(evt)"
   version="1.1"
   inkscape:version="0.48.4 r9939"
   sodipodi:docname="15标K71+275涵洞图-Model.svg">
  <script
     href="init.js"
     id="script3184"
     language="JavaScript" />
  <script
     href="jquery-2.0.3.min.js"
     id="script3186"
     language="JavaScript" />
  <script
     href="cookie.js"
     id="script3188"
     language="JavaScript" />
  <metadata
     id="metadata11041">
    <rdf:RDF>
      <cc:Work
         rdf:about="">
        <dc:format>image/svg+xml</dc:format>
        <dc:type
           rdf:resource="http://purl.org/dc/dcmitype/StillImage" />
        <dc:title>Produce by DWG to SVG Converter MX</dc:title>
      </cc:Work>
    </rdf:RDF>
  </metadata>
  <defs
     id="defs11039" />
  <sodipodi:namedview
     pagecolor="#ffffff"
     bordercolor="#666666"
     borderopacity="1"
     objecttolerance="10"
     gridtolerance="10"
     guidetolerance="10"
     inkscape:pageopacity="0"
     inkscape:pageshadow="2"
     inkscape:window-width="1920"
     inkscape:window-height="1018"
     id="namedview11037"
     showgrid="false"
     inkscape:zoom="0.78666669"
     inkscape:cx="514.0204"
     inkscape:cy="319.08437"
     inkscape:window-x="-8"
     inkscape:window-y="-8"
     inkscape:window-maximized="1"
     inkscape:current-layer="svg9061" />
  <title
     id="title9063">Produce by DWG to SVG Converter MX</title>
  <desc
     id="desc9065">Produce by DWG to SVG Converter MX</desc>
  <path
     d="m 103.64785,170.92328 0,135.28187"
     id="path9091"
     inkscape:connector-curvature="0"
     style="fill:none;stroke:#000000;stroke-width:0.08553529" />
  <path
     d="m 12.943875,150.84995 0,164.95193"
     id="path9093"
     inkscape:connector-curvature="0"
     style="fill:none;stroke:#000000;stroke-width:0.08553529" />
  <path
     d="m 12.943875,315.80188 90.703975,-9.59673"
     id="path9095"
     inkscape:connector-curvature="0"
     style="fill:none;stroke:#000000;stroke-width:0.08553529" />
  <path
     d="m 103.64785,170.92328 0,-9.59674"
     id="path9097"
     inkscape:connector-curvature="0"
     style="fill:none;stroke:#000000;stroke-width:0.08553529" />
  <path
     d="M 103.64785,161.32654 12.943875,150.84995"
     id="path9099"
     inkscape:connector-curvature="0"
     style="fill:none;stroke:#000000;stroke-width:0.08553529" />
  <path
     d="M 103.27242,173.34463 12.193014,163.70015"
     id="path9101"
     inkscape:connector-curvature="0"
     style="fill:none;stroke:#000000;stroke-width:0.08553529" />
  <path
     d="m 103.27242,181.05202 554.07087,0"
     id="path9103"
     inkscape:connector-curvature="0"
     style="fill:none;stroke:#000000;stroke-width:0.08553529" />
  <path
     d="M 103.89456,292.94569 12.782976,303.32681"
     id="path9105"
     inkscape:connector-curvature="0"
     style="fill:none;stroke:#000000;stroke-width:0.08553529" />
  <path
     d="m 104.20563,287.47549 552.70859,0"
     id="path9107"
     inkscape:connector-curvature="0"
     style="fill:none;stroke:#000000;stroke-width:0.08553529" />
  <path
     d="m 396.60153,148.19668 0,176.64946"
     id="path9109"
     inkscape:connector-curvature="0"
     style="fill:none;stroke:#000000;stroke-width:0.08553529" />
  <path
     d="m 104.20563,235.38576 552.70859,0"
     id="path9119"
     inkscape:connector-curvature="0"
     style="fill:none;stroke:#000000;stroke-width:0.08553529" />
  <path
     d="m 104.20563,210.47655 69.58334,0 m 58.82457,0 117.63843,0 m 58.82458,0 117.64915,0 m 58.81383,0 69.58334,0"
     id="path9133"
     inkscape:connector-curvature="0"
     style="fill:none;stroke:#000000;stroke-width:0.08553529" />
  <path
     d="m 104.20563,263.69851 70.47365,0 m 58.82457,0 117.63841,0 m 58.82459,0 117.64916,0 m 58.81383,0 70.48438,0"
     id="path9135"
     inkscape:connector-curvature="0"
     style="fill:none;stroke:#000000;stroke-width:0.08553529" />
  <path
     d="m 40.382472,127.65273 -7.294076,0.51837 m 7.025911,3.60814 -2.703098,2.57823 m 0,0 2.971263,2.06667 m 0.547055,3.77868 0.536329,-8.5941 m -8.924516,8.42359 8.109297,-0.51838 m 0,0 0.27889,0.51838 m -8.109296,-8.08255 0.268165,7.91203 m 4.322813,-5.67484 -3.518319,2.23719 m 0.27889,-4.47438 1.887879,1.71882 m 0.536329,-3.08978 0.815221,2.40772 m 0,0 0,4.11969 m 0,0 -0.536329,1.20728 m 0,0 -1.083386,-1.3778 m 5.138033,-9.624 -4.054647,3.60815 m -8.388188,7.39365 1.083385,1.37095 m 0.268164,-12.37275 2.16677,2.05984 m -4.322813,2.23719 2.7031,2.05986 m -0.815221,6.53424 1.898605,-8.07571 m 18.653526,-0.85942 -2.981989,9.10565 m 0,0 -1.35155,-1.71882 m 0,-7.9052 1.898604,2.2372 m -0.547054,-6.01586 2.166768,2.23036 m 2.16677,-2.91926 0,13.92106 m 5.127306,-2.05986 2.434935,2.4009 m 0,0 0.268164,-14.2621 m 0,0.6889 -7.830405,0.68207 m 1.619714,2.92607 4.859141,-0.51837 m -1.072657,2.06668 -0.278892,3.43763 m 0.547057,0 -3.250155,0.34103 m 0,0.85941 0,-4.63807 m 0,0.85941 2.98199,-0.34786 m 12.432107,-5.15645 6.489582,12.20223 m 0,0 2.424207,0 m -7.025911,-8.41675 -2.434933,4.29705 m 0,0 -1.887878,3.08978 m 0,0 -4.054649,2.06667 m 21.08846,-11.69069 0.536329,9.11246 m -0.536329,-8.08253 8.645626,-0.51155 m -0.815221,6.87526 1.083385,-7.56416 m -8.377461,8.07571 8.109297,-0.51155 m -8.377461,-6.36371 8.377461,-0.51155"
     id="path9137"
     inkscape:connector-curvature="0"
     style="fill:none;stroke:#000000;stroke-width:0.08553529" />
  <path
     d="m 687.34554,130.9403 -7.29409,0.51837 m 7.02592,3.60816 -2.7031,2.57822 m 0,0 2.97127,2.05986 m 0.54705,3.78549 0.53632,-8.59408 m -8.92452,8.42356 8.1093,-0.51837 m 0,0 0.2789,0.51837 m -8.1093,-8.08253 0.26816,7.90519 m 4.32282,-5.668 -3.51833,2.23037 m 0.2789,-4.46756 1.88787,1.71881 m 0.53634,-3.08978 0.81522,2.40089 m 0,0 0,4.12653 m 0,0 -0.53633,1.20726 m 0,0 -1.08338,-1.37777 m 5.13803,-9.62403 -4.05465,3.60816 m -8.38819,7.39364 1.08338,1.37097 m 0.26816,-12.37277 2.16678,2.05987 m -4.32281,2.23719 2.70309,2.05984 m -0.81522,6.53424 1.89862,-8.08253 m 18.64278,-0.85942 -2.97126,9.11246 m 0,0 -1.35155,-1.71882 m 0,-7.90519 1.89861,2.23037 m -0.54706,-6.01586 2.16677,2.2372 m 2.15604,-2.92609 0,13.92788 m 5.13804,-2.06667 2.43493,2.4077 m 0,0 0.26817,-14.26891 m 0,0.68889 -7.84114,0.68889 m 1.63045,2.92608 4.85914,-0.51837 m -1.08338,2.05986 -0.26817,3.43763 m 0.54706,0 -3.25016,0.34786 m 0,0.85941 0,-4.6449 m 0,0.8594 2.97127,-0.34103 m 9.19267,-3.95602 0,5.67483 m 0,-0.51838 8.65636,-0.34103 m 0.53633,-4.81542 -0.26817,5.50432 m -4.59098,-8.08254 0,13.75054 m -4.86986,0.51837 9.72901,-0.51837 m 0.26816,-4.1197 -0.26816,5.32696 m -9.72901,0 0,-4.98593 m 18.38536,-7.04578 0.53632,9.10564 m -0.53632,-8.07572 8.64562,-0.51837 m -0.81522,6.87527 1.08339,-7.55733 m -8.37747,8.07571 8.1093,-0.51838 m -8.37745,-6.3569 8.37745,-0.51837"
     id="path9303"
     inkscape:connector-curvature="0"
     style="fill:none;stroke:#000000;stroke-width:0.08553529" />
  <path
     d="m 384.66284,121.93698 0,15.55119"
     id="path9305"
     inkscape:connector-curvature="0"
     style="fill:none;stroke:#000000;stroke-width:0.08553529" />
  <path
     d="m 384.66284,137.48817 25.29329,0"
     id="path9307"
     inkscape:connector-curvature="0"
     style="fill:none;stroke:#000000;stroke-width:0.08553529" />
  <path
     d="m 409.95613,137.48817 0,-15.63305"
     id="path9309"
     inkscape:connector-curvature="0"
     style="fill:none;stroke:#000000;stroke-width:0.08553529" />
  <path
     d="m 409.92395,121.71188 1.55535,0"
     id="path9311"
     inkscape:connector-curvature="0"
     style="fill:none;stroke:#000000;stroke-width:0.08553529" />
  <path
     d="m 384.64139,121.97107 -1.98441,0"
     id="path9313"
     inkscape:connector-curvature="0"
     style="fill:none;stroke:#000000;stroke-width:0.08553529" />
  <path
     d="m 382.59261,121.98472 13.96601,-7.02533"
     id="path9315"
     inkscape:connector-curvature="0"
     style="fill:none;stroke:#000000;stroke-width:0.08553529" />
  <path
     d="m 396.55862,114.95939 14.86705,6.80024"
     id="path9317"
     inkscape:connector-curvature="0"
     style="fill:none;stroke:#000000;stroke-width:0.08553529" />
  <path
     d="m 386.17529,348.10473 0,-15.55119"
     id="path9319"
     inkscape:connector-curvature="0"
     style="fill:none;stroke:#000000;stroke-width:0.08553529" />
  <path
     d="m 386.17529,332.55354 25.30401,0"
     id="path9321"
     inkscape:connector-curvature="0"
     style="fill:none;stroke:#000000;stroke-width:0.08553529" />
  <path
     d="m 411.4793,332.55354 0,15.63987"
     id="path9323"
     inkscape:connector-curvature="0"
     style="fill:none;stroke:#000000;stroke-width:0.08553529" />
  <path
     d="m 411.44712,348.32981 1.55535,0"
     id="path9325"
     inkscape:connector-curvature="0"
     style="fill:none;stroke:#000000;stroke-width:0.08553529" />
  <path
     d="m 386.15384,348.07063 -1.9737,0"
     id="path9327"
     inkscape:connector-curvature="0"
     style="fill:none;stroke:#000000;stroke-width:0.08553529" />
  <path
     d="m 384.11578,348.05699 13.95529,7.02532"
     id="path9329"
     inkscape:connector-curvature="0"
     style="fill:none;stroke:#000000;stroke-width:0.08553529" />
  <path
     d="m 398.07107,355.08231 14.87776,-6.80024"
     id="path9331"
     inkscape:connector-curvature="0"
     style="fill:none;stroke:#000000;stroke-width:0.08553529" />
  <path
     d="m 380.51166,87.280966 1.63043,2.237196 m -2.98199,1.718811 2.16677,2.059856 m -1.35154,7.223121 2.16676,-7.223121 m 2.97127,-5.156453 2.97127,1.896157 m 0,1.541476 -4.05465,0.688898 m -0.81523,2.748743 5.13804,-0.68207 m -2.43494,-2.237192 0,9.453492 m 0,0 -1.88787,-2.059847 m 0.26816,-2.926089 -2.43493,3.437636 m 5.13803,-3.608154 1.61972,1.029933 m 4.6017,-7.905197 -0.81522,2.748745 m 0,0 -1.61972,4.126519 m 0,0 -4.05465,5.156454 m 2.7031,-8.935121 3.23943,7.905191 m 0,0 1.8986,0 m -1.61971,-10.483417 -3.78648,0.511552 m -3.25016,-4.126528 -2.97127,5.674831 m -2.97125,8.594082 -1.08339,-1.889335 m 19.73691,-11.001793 2.15605,2.237191 m -1.61972,3.608149 -2.15604,-2.237192 m 0,6.875274 2.15604,2.066666 m 0,0 2.16677,-8.082523 m 0.53633,-2.059857 10.27606,-1.029933 m -2.16676,-0.859406 -1.61973,-1.548297 m -1.6197,-0.688892 0,15.298848 m 1.08338,-1.548302 2.42421,1.889332 m 0,0 0,-11.001797 m 0,0.688887 -6.75775,0.688898 m 0.81522,4.815418 4.86986,-0.51838 m 0,-2.407709 -4.86986,0.51838 m -0.81522,-3.608158 0,10.483431"
     id="path9333"
     inkscape:connector-curvature="0"
     style="fill:none;stroke:#000000;stroke-width:0.08553529" />
  <path
     d="m 396.32264,368.45091 0,9.45349 m -3.25015,-9.28297 5.68508,-0.51156 m -5.40619,-3.95601 -0.54706,8.25305 m 0,0 -0.53632,2.05986 m 0,0 -1.0834,2.57822 m 6.48959,-13.75054 -4.32281,2.40771 m -3.78649,6.87527 2.15604,1.88934 m -4.59098,-1.88934 -2.97125,3.08979 m 4.05464,-6.69794 0,8.24623 m 0,0 -1.61972,-1.54829 m -1.35154,-3.9492 6.21069,-0.68889 m -7.29407,-1.71882 7.84113,-0.68888 m -2.43494,-3.26712 -0.54706,3.26712 m -2.42421,-2.40772 0.8045,1.89616 m -2.15604,-2.57823 6.21069,-0.51838 m -4.05465,-2.23719 1.08339,1.5483 m 20.00506,-1.37095 -6.75773,7.38682 m 4.05464,-4.29705 0,11.86121 m 4.59098,-14.95098 0,13.40268 m 0,0 1.08338,0.68889 m 0,0 5.4062,0 m 0,0 -0.53633,-3.95601 m -0.54706,-6.69793 -8.10929,5.83852"
     id="path9335"
     inkscape:connector-curvature="0"
     style="fill:none;stroke:#000000;stroke-width:0.08553529" />
  <path
     d="m 11.635232,175.05662 92.302238,23.45641"
     id="path9337"
     inkscape:connector-curvature="0"
     style="fill:none;stroke:#000000;stroke-width:0.08553529" />
  <path
     d="m 13.480204,198.51303 90.457266,19.93009"
     id="path9339"
     inkscape:connector-curvature="0"
     style="fill:none;stroke:#000000;stroke-width:0.08553529" />
  <path
     d="M 13.480204,292.31137 103.93747,274.7276"
     id="path9341"
     inkscape:connector-curvature="0"
     style="fill:none;stroke:#000000;stroke-width:0.08553529" />
  <path
     d="M 103.93747,255.96382 13.480204,270.03495"
     id="path9343"
     inkscape:connector-curvature="0"
     style="fill:none;stroke:#000000;stroke-width:0.08553529" />
  <path
     d="m 103.56204,235.48807 -90.864876,0"
     id="path9345"
     inkscape:connector-curvature="0"
     style="fill:none;stroke:#000000;stroke-width:0.08553529" />
  <path
     d="m 689.29776,174.0608 -3.58267,135.25459"
     id="path9347"
     inkscape:connector-curvature="0"
     style="fill:none;stroke:#000000;stroke-width:0.08553529" />
  <path
     d="M 780.51661,154.956 776.1509,319.88748"
     id="path9349"
     inkscape:connector-curvature="0"
     style="fill:none;stroke:#000000;stroke-width:0.08553529" />
  <path
     d="M 776.1509,319.88748 685.71509,309.31539"
     id="path9351"
     inkscape:connector-curvature="0"
     style="fill:none;stroke:#000000;stroke-width:0.08553529" />
  <path
     d="m 689.29776,174.0608 0.25745,-9.60355"
     id="path9353"
     inkscape:connector-curvature="0"
     style="fill:none;stroke:#000000;stroke-width:0.08553529" />
  <path
     d="m 689.55521,164.45725 90.9614,-9.50125"
     id="path9355"
     inkscape:connector-curvature="0"
     style="fill:none;stroke:#000000;stroke-width:0.08553529" />
  <path
     d="m 689.60884,176.48216 91.31539,-8.66913"
     id="path9357"
     inkscape:connector-curvature="0"
     style="fill:none;stroke:#000000;stroke-width:0.08553529" />
  <path
     d="m 685.82235,296.05594 90.82197,11.36329"
     id="path9359"
     inkscape:connector-curvature="0"
     style="fill:none;stroke:#000000;stroke-width:0.08553529" />
  <path
     d="m 781.1924,179.17632 -92.92439,22.46059"
     id="path9361"
     inkscape:connector-curvature="0"
     style="fill:none;stroke:#000000;stroke-width:0.08553529" />
  <path
     d="m 778.72527,202.60545 -90.98286,18.96157"
     id="path9363"
     inkscape:connector-curvature="0"
     style="fill:none;stroke:#000000;stroke-width:0.08553529" />
  <path
     d="M 776.23671,296.39697 686.25142,277.84465"
     id="path9365"
     inkscape:connector-curvature="0"
     style="fill:none;stroke:#000000;stroke-width:0.08553529" />
  <path
     d="m 686.74484,259.08089 90.08184,15.03966"
     id="path9367"
     inkscape:connector-curvature="0"
     style="fill:none;stroke:#000000;stroke-width:0.08553529" />
  <path
     d="m 687.67805,238.61196 90.84343,0.96853"
     id="path9369"
     inkscape:connector-curvature="0"
     style="fill:none;stroke:#000000;stroke-width:0.08553529" />
  <path
     d="m 657.34329,181.05202 31.77212,0"
     id="path9371"
     inkscape:connector-curvature="0"
     style="fill:none;stroke:#000000;stroke-width:0.08553529" />
  <path
     d="m 656.91422,235.38576 30.64584,0"
     id="path9373"
     inkscape:connector-curvature="0"
     style="fill:none;stroke:#000000;stroke-width:0.08553529" />
  <path
     d="m 656.91422,287.47549 29.25139,0"
     id="path9375"
     inkscape:connector-curvature="0"
     style="fill:none;stroke:#000000;stroke-width:0.08553529" />
  <path
     d="m 655.12287,210.47655 33.07005,0"
     id="path9377"
     inkscape:connector-curvature="0"
     style="fill:none;stroke:#000000;stroke-width:0.08553529" />
  <path
     d="m 656.91422,263.69851 29.91643,0"
     id="path9379"
     inkscape:connector-curvature="0"
     style="fill:none;stroke:#000000;stroke-width:0.08553529" />
  <path
     d="m 339.10705,56.505944 124.14946,0"
     id="path9381"
     inkscape:connector-curvature="0"
     style="fill:none;stroke:#000000;stroke-width:0.08553529" />
  <path
     d="m 339.4503,62.494523 124.14945,0"
     id="path9383"
     inkscape:connector-curvature="0"
     style="fill:none;stroke:#000000;stroke-width:0.08553529" />
  <path
     d="m 363.97127,30.525877 17.30197,-1.377782 m 3.46468,9.630835 -24.22061,1.92344 m 5.62072,-7.427749 2.15605,4.679004 m 8.21656,0.545656 3.46469,-6.322793 m -6.91865,-2.203089 0,22.276424 m 26.37667,-15.946809 1.73771,-6.049965 m 8.21655,5.497489 -16.43312,1.098132 m 9.51448,2.755565 -4.32281,0.545658 m 0,3.853697 4.32281,-0.552477 m 1.72698,-7.148099 -0.42906,12.37276 m -5.62073,-12.099931 0,12.372759 m 10.3726,2.203087 1.29792,-16.778935 m -16.43313,15.128325 15.13521,-1.098133 m -15.56427,-13.750542 0.42906,16.772114 m 19.02896,-21.723946 -22.49364,1.377782 m 48.88103,-0.825305 -18.17083,1.098132 m 0,18.702375 16.87291,-0.825305 m 0.85812,1.370961 0.4398,-21.451117 m -0.4398,22.276423 0,-0.825306 m 0,0 -0.85812,-1.370961 m -16.87291,-20.080156 0,21.730767 m 0,-22.003597 0,23.10173 m 9.51448,-19.52768 -6.91865,6.329615 m 3.89375,-1.93026 8.65635,5.777139 m 0,0 2.15605,-0.272829 m -9.51449,0 3.0249,2.196267 m -4.32281,0.825305 4.32281,3.028394 m -3.89374,-13.204886 5.63145,-0.545656 m -5.63145,6.049966 2.59583,-2.203089 m 0,0 4.33354,-4.951831 m -12.97917,10.45614 6.0498,-3.30122"
     id="path9385"
     inkscape:connector-curvature="0"
     style="fill:none;stroke:#000000;stroke-width:0.08553529" />
</svg>
