<?xml version="1.0" encoding="UTF-8" standalone="no"?>
<svg
   xmlns:dc="http://purl.org/dc/elements/1.1/"
   xmlns:cc="http://creativecommons.org/ns#"
   xmlns:rdf="http://www.w3.org/1999/02/22-rdf-syntax-ns#"
   xmlns:svg="http://www.w3.org/2000/svg"
   xmlns="http://www.w3.org/2000/svg"
   xmlns:sodipodi="http://sodipodi.sourceforge.net/DTD/sodipodi-0.dtd"
   xmlns:inkscape="http://www.inkscape.org/namespaces/inkscape"
   width="800.000"
   height="600.000"
   viewBox="0.0 0.0 800.000 600.000"
   id="svg9115"
   version="1.1"
   inkscape:version="0.48.4 r9939"
   sodipodi:docname="16标K77+228涵洞图-Model.svg">
  <metadata
     id="metadata11259">
    <rdf:RDF>
      <cc:Work
         rdf:about="">
        <dc:format>image/svg+xml</dc:format>
        <dc:type
           rdf:resource="http://purl.org/dc/dcmitype/StillImage" />
      </cc:Work>
    </rdf:RDF>
  </metadata>
  <defs
     id="defs11257" />
  <sodipodi:namedview
     pagecolor="#ffffff"
     bordercolor="#666666"
     borderopacity="1"
     objecttolerance="10"
     gridtolerance="10"
     guidetolerance="10"
     inkscape:pageopacity="0"
     inkscape:pageshadow="2"
     inkscape:window-width="1920"
     inkscape:window-height="1018"
     id="namedview11255"
     showgrid="false"
     inkscape:zoom="1.1125147"
     inkscape:cx="531.6147"
     inkscape:cy="364.44989"
     inkscape:window-x="1432"
     inkscape:window-y="-8"
     inkscape:window-maximized="1"
     inkscape:current-layer="svg9115" />
  <title
     id="title9117">Produce by DWG to SVG Converter MX</title>
  <desc
     id="desc9119">Produce by DWG to SVG Converter MX</desc>
  <path
     d="M148.77 251L148.77 455.03"
     fill="none"
     stroke="black"
     stroke-width="0.5"
     id="path9145" />
  <path
     d="M61.79 220.73L61.79 469.51"
     fill="none"
     stroke="black"
     stroke-width="0.5"
     id="path9147" />
  <path
     d="M61.79 469.51L148.77 455.03"
     fill="none"
     stroke="black"
     stroke-width="0.5"
     id="path9149" />
  <path
     d="M148.77 251L148.77 236.53"
     fill="none"
     stroke="black"
     stroke-width="0.5"
     id="path9151" />
  <path
     d="M148.77 236.53L61.79 220.73"
     fill="none"
     stroke="black"
     stroke-width="0.5"
     id="path9153" />
  <path
     d="M148.41 254.65L61.07 240.11"
     fill="none"
     stroke="black"
     stroke-width="0.5"
     id="path9155" />
  <path
     d="M148.41 266.28L679.77 266.28"
     fill="none"
     stroke="black"
     stroke-width="0.5"
     id="path9157" />
  <path
     d="M149 435.03L61.63 450.69"
     fill="none"
     stroke="black"
     stroke-width="0.5"
     id="path9159" />
  <path
     d="M149.31 426.78L679.35 426.78"
     fill="none"
     stroke="black"
     stroke-width="0.5"
     id="path9161" />
  <path
     d="M429.72 216.72L429.72 483.14"
     fill="none"
     stroke="black"
     stroke-width="0.5"
     id="path9163" />
  <path
     d="M149.31 310.65L216.04 310.65M272.45 310.65L385.27 310.65M441.68 310.65L554.5 310.65M610.91 310.65L677.64 310.65"
     fill="none"
     stroke="black"
     stroke-width="0.5"
     id="path9165" />
  <path
     d="M418.26 177.13L418.26 200.57"
     fill="none"
     stroke="black"
     stroke-width="0.5"
     id="path9171" />
  <path
     d="M418.26 200.57L442.52 200.57"
     fill="none"
     stroke="black"
     stroke-width="0.5"
     id="path9173" />
  <path
     d="M442.52 200.57L442.52 176.99"
     fill="none"
     stroke="black"
     stroke-width="0.5"
     id="path9175" />
  <path
     d="M442.49 176.79L443.98 176.79"
     fill="none"
     stroke="black"
     stroke-width="0.5"
     id="path9177" />
  <path
     d="M418.24 177.17L416.35 177.17"
     fill="none"
     stroke="black"
     stroke-width="0.5"
     id="path9179" />
  <path
     d="M416.28 177.2L429.67 166.6"
     fill="none"
     stroke="black"
     stroke-width="0.5"
     id="path9181" />
  <path
     d="M429.67 166.6L443.93 176.85"
     fill="none"
     stroke="black"
     stroke-width="0.5"
     id="path9183" />
  <path
     d="M419.72 518.22L419.72 494.77"
     fill="none"
     stroke="black"
     stroke-width="0.5"
     id="path9185" />
  <path
     d="M419.72 494.77L443.98 494.77"
     fill="none"
     stroke="black"
     stroke-width="0.5"
     id="path9187" />
  <path
     d="M443.98 494.77L443.98 518.35"
     fill="none"
     stroke="black"
     stroke-width="0.5"
     id="path9189" />
  <path
     d="M443.95 518.56L445.44 518.56"
     fill="none"
     stroke="black"
     stroke-width="0.5"
     id="path9191" />
  <path
     d="M419.7 518.17L417.8 518.17"
     fill="none"
     stroke="black"
     stroke-width="0.5"
     id="path9193" />
  <path
     d="M417.74 518.15L431.13 528.74"
     fill="none"
     stroke="black"
     stroke-width="0.5"
     id="path9195" />
  <path
     d="M431.13 528.74L445.39 518.49"
     fill="none"
     stroke="black"
     stroke-width="0.5"
     id="path9197" />
  <path
     d="M60.53 257.24L149.05 292.61"
     fill="none"
     stroke="black"
     stroke-width="0.5"
     id="path9203" />
  <path
     d="M62.3 292.61L149.05 322.67"
     fill="none"
     stroke="black"
     stroke-width="0.5"
     id="path9205" />
  <path
     d="M62.3 434.08L149.05 407.55"
     fill="none"
     stroke="black"
     stroke-width="0.5"
     id="path9207" />
  <path
     d="M149.05 379.26L62.3 400.48"
     fill="none"
     stroke="black"
     stroke-width="0.5"
     id="path9209" />
  <path
     d="M148.69 348.37L61.55 348.37"
     fill="none"
     stroke="black"
     stroke-width="0.5"
     id="path9211" />
  <path
     d="M710.41 255.73L706.98 459.72"
     fill="none"
     stroke="black"
     stroke-width="0.5"
     id="path9213" />
  <path
     d="M797.89 226.92L793.7 475.66"
     fill="none"
     stroke="black"
     stroke-width="0.5"
     id="path9215" />
  <path
     d="M793.7 475.66L706.98 459.72"
     fill="none"
     stroke="black"
     stroke-width="0.5"
     id="path9217" />
  <path
     d="M710.41 255.73L710.66 241.25"
     fill="none"
     stroke="black"
     stroke-width="0.5"
     id="path9219" />
  <path
     d="M710.66 241.25L797.89 226.92"
     fill="none"
     stroke="black"
     stroke-width="0.5"
     id="path9221" />
  <path
     d="M710.71 259.38L798.28 246.31"
     fill="none"
     stroke="black"
     stroke-width="0.5"
     id="path9223" />
  <path
     d="M707.08 439.72L794.18 456.86"
     fill="none"
     stroke="black"
     stroke-width="0.5"
     id="path9225" />
  <path
     d="M798.53 263.45L709.42 297.32"
     fill="none"
     stroke="black"
     stroke-width="0.5"
     id="path9227" />
  <path
     d="M796.17 298.78L708.92 327.38"
     fill="none"
     stroke="black"
     stroke-width="0.5"
     id="path9229" />
  <path
     d="M793.79 440.23L707.49 412.25"
     fill="none"
     stroke="black"
     stroke-width="0.5"
     id="path9231" />
  <path
     d="M707.97 383.96L794.35 406.64"
     fill="none"
     stroke="black"
     stroke-width="0.5"
     id="path9233" />
  <path
     d="M679.77 266.28L710.23 266.28"
     fill="none"
     stroke="black"
     stroke-width="0.5"
     id="path9235" />
  <path
     d="M679.35 426.78L707.4 426.78"
     fill="none"
     stroke="black"
     stroke-width="0.5"
     id="path9237" />
  <path
     d="M677.64 310.65L709.35 310.65"
     fill="none"
     stroke="black"
     stroke-width="0.5"
     id="path9239" />
  <path
     d="M149.31 385.79L216.04 385.79M272.45 385.79L385.27 385.79M441.68 385.79L554.5 385.79M610.91 385.79L677.64 385.79"
     fill="none"
     stroke="black"
     stroke-width="0.5"
     id="path9367" />
  <path
     d="M677.64 385.79L709.35 385.79"
     fill="none"
     stroke="black"
     stroke-width="0.5"
     id="path9369" />
  <path
     d="M224.78 385.79L224.78 385.79"
     fill="none"
     stroke="black"
     stroke-width="0.5"
     id="path9371" />
  <path
     d="M795.84 348.37L708.85 348.37"
     fill="none"
     stroke="black"
     stroke-width="0.5"
     id="path9491" />
  <path
     d="M708.85 348.37L148.77 348.37"
     id="path9493"
     stroke-width="0.5"
     stroke="black"
     fill="none" />
  <path
     d="M148.77 348.37L61.55 348.37"
     fill="none"
     stroke="black"
     stroke-width="0.5"
     id="path9495" />
  <path
     d="M628.84 348.37L628.84 348.37"
     fill="none"
     stroke="black"
     stroke-width="0.5"
     id="path9497" />
  <path
     d="M230.58 290.04L229.57 257.73"
     fill="none"
     stroke="black"
     stroke-width="0.5"
     id="path9557" />
  <path
     d="M206.96 254.93L217.04 254.93M217.04 254.93L220.4 251.57M220.4 251.57L220.4 248.21M220.4 248.21L217.04 244.85M217.04 244.85L210.32 244.85M217.04 244.85L220.4 241.49M220.4 241.49L220.4 238.14M220.4 238.14L217.04 234.78M217.04 234.78L206.96 234.78M210.32 234.78L210.32 254.93M227.11 254.93L227.11 234.78M227.11 234.78L233.83 248.21M233.83 248.21L240.54 234.78M240.54 234.78L240.54 254.93M247.26 234.78L260.69 234.78M260.69 234.78L250.61 254.93"
     fill="none"
     stroke="black"
     stroke-width="0.5"
     id="path9559" />
  <path
     d="M303.11 292.45L302.1 260.14"
     fill="none"
     stroke="black"
     stroke-width="0.5"
     id="path9561" />
  <path
     d="M279.5 257.34L289.57 257.34M289.57 257.34L292.93 253.98M292.93 253.98L292.93 250.63M292.93 250.63L289.57 247.27M289.57 247.27L282.85 247.27M289.57 247.27L292.93 243.91M292.93 243.91L292.93 240.55M292.93 240.55L289.57 237.19M289.57 237.19L279.5 237.19M282.85 237.19L282.85 257.34M299.64 257.34L299.64 237.19M299.64 237.19L306.36 250.63M306.36 250.63L313.07 237.19M313.07 237.19L313.07 257.34M323.15 257.34L319.79 253.98M319.79 253.98L319.79 250.63M319.79 250.63L323.15 247.27M323.15 247.27L329.86 247.27M329.86 247.27L333.22 243.91M333.22 243.91L333.22 240.55M333.22 240.55L329.86 237.19M329.86 237.19L323.15 237.19M323.15 237.19L319.79 240.55M319.79 240.55L319.79 243.91M319.79 243.91L323.15 247.27M329.86 247.27L333.22 250.63M333.22 250.63L333.22 253.98M333.22 253.98L329.86 257.34M329.86 257.34L323.15 257.34"
     fill="none"
     stroke="black"
     stroke-width="0.5"
     id="path9563" />
  <path
     d="M370.8 290.04L369.79 257.73"
     fill="none"
     stroke="black"
     stroke-width="0.5"
     id="path9565" />
  <path
     d="M347.19 254.93L357.26 254.93M357.26 254.93L360.62 251.57M360.62 251.57L360.62 248.21M360.62 248.21L357.26 244.85M357.26 244.85L350.55 244.85M357.26 244.85L360.62 241.49M360.62 241.49L360.62 238.14M360.62 238.14L357.26 234.78M357.26 234.78L347.19 234.78M350.55 234.78L350.55 254.93M367.34 254.93L367.34 234.78M367.34 234.78L374.05 248.21M374.05 248.21L380.77 234.78M380.77 234.78L380.77 254.93M390.84 254.93L394.2 254.93M394.2 254.93L400.91 248.21M400.91 248.21L400.91 238.14M400.91 238.14L397.56 234.78M397.56 234.78L390.84 234.78M390.84 234.78L387.48 238.14M387.48 238.14L387.48 241.49M387.48 241.49L390.84 244.85M390.84 244.85L400.91 244.85"
     fill="none"
     stroke="black"
     stroke-width="0.5"
     id="path9567" />
  <path
     d="M457.84 287.62L456.83 255.31"
     fill="none"
     stroke="black"
     stroke-width="0.5"
     id="path9569" />
  <path
     d="M434.23 252.51L444.3 252.51M444.3 252.51L447.66 249.15M447.66 249.15L447.66 245.8M447.66 245.8L444.3 242.44M444.3 242.44L437.59 242.44M444.3 242.44L447.66 239.08M447.66 239.08L447.66 235.72M447.66 235.72L444.3 232.36M444.3 232.36L434.23 232.36M437.59 232.36L437.59 252.51M454.37 252.51L454.37 232.36M454.37 232.36L461.09 245.8M461.09 245.8L467.81 232.36M467.81 232.36L467.81 252.51M474.52 235.72L477.88 232.36M477.88 232.36L477.88 252.51M474.52 252.51L481.24 252.51M491.31 252.51L487.95 249.15M487.95 249.15L487.95 235.72M487.95 235.72L491.31 232.36M491.31 232.36L494.67 232.36M494.67 232.36L498.03 235.72M498.03 235.72L498.03 249.15M498.03 249.15L494.67 252.51M494.67 252.51L491.31 252.51"
     fill="none"
     stroke="black"
     stroke-width="0.5"
     id="path9571" />
  <path
     d="M531.58 290.04L530.57 257.73"
     fill="none"
     stroke="black"
     stroke-width="0.5"
     id="path9573" />
  <path
     d="M507.97 254.93L512 254.93M512 254.93L513.34 253.58M513.34 253.58L513.34 252.24M513.34 252.24L512 250.9M512 250.9L509.31 250.9M512 250.9L513.34 249.55M513.34 249.55L513.34 248.21M513.34 248.21L512 246.87M512 246.87L507.97 246.87M509.31 246.87L509.31 254.93M516.03 254.93L516.03 246.87M516.03 246.87L518.71 252.24M518.71 252.24L521.4 246.87M521.4 246.87L521.4 254.93M524.08 238.14L527.44 234.78M527.44 234.78L527.44 254.93M524.08 254.93L530.8 254.93M537.52 238.14L540.87 234.78M540.87 234.78L540.87 254.93M537.52 254.93L544.23 254.93"
     fill="none"
     stroke="black"
     stroke-width="0.5"
     id="path9575" />
  <path
     d="M601.69 288.83L600.68 256.52"
     fill="none"
     stroke="black"
     stroke-width="0.5"
     id="path9577" />
  <path
     d="M578.08 253.72L588.15 253.72M588.15 253.72L591.51 250.36M591.51 250.36L591.51 247M591.51 247L588.15 243.64M588.15 243.64L581.44 243.64M588.15 243.64L591.51 240.29M591.51 240.29L591.51 236.93M591.51 236.93L588.15 233.57M588.15 233.57L578.08 233.57M581.44 233.57L581.44 253.72M598.23 253.72L598.23 233.57M598.23 233.57L604.94 247M604.94 247L611.66 233.57M611.66 233.57L611.66 253.72M618.37 236.93L621.73 233.57M621.73 233.57L621.73 253.72M618.37 253.72L625.09 253.72M631.8 236.93L635.16 233.57M635.16 233.57L641.88 233.57M641.88 233.57L645.24 236.93M645.24 236.93L645.24 240.29M645.24 240.29L641.88 243.64M641.88 243.64L635.16 243.64M635.16 243.64L631.8 247M631.8 247L631.8 253.72M631.8 253.72L645.24 253.72"
     fill="none"
     stroke="black"
     stroke-width="0.5"
     id="path9579" />
  <path
     d="M230.94 408.7L229.93 441.01"
     fill="none"
     stroke="black"
     stroke-width="0.5"
     id="path9581" />
  <path
     d="M207.32 467.32L217.4 467.32M217.4 467.32L220.75 463.96M220.75 463.96L220.75 460.6M220.75 460.6L217.4 457.24M217.4 457.24L210.68 457.24M217.4 457.24L220.75 453.89M220.75 453.89L220.75 450.53M220.75 450.53L217.4 447.17M217.4 447.17L207.32 447.17M210.68 447.17L210.68 467.32M227.47 467.32L227.47 447.17M227.47 447.17L234.19 460.6M234.19 460.6L240.9 447.17M240.9 447.17L240.9 467.32M247.62 450.53L250.97 447.17M250.97 447.17L250.97 467.32M247.62 467.32L254.33 467.32"
     fill="none"
     stroke="black"
     stroke-width="0.5"
     id="path9583" />
  <path
     d="M302.26 408.7L301.25 441.01"
     fill="none"
     stroke="black"
     stroke-width="0.5"
     id="path9585" />
  <path
     d="M278.65 467.32L288.72 467.32M288.72 467.32L292.08 463.96M292.08 463.96L292.08 460.6M292.08 460.6L288.72 457.24M288.72 457.24L282 457.24M288.72 457.24L292.08 453.89M292.08 453.89L292.08 450.53M292.08 450.53L288.72 447.17M288.72 447.17L278.65 447.17M282 447.17L282 467.32M298.79 467.32L298.79 447.17M298.79 447.17L305.51 460.6M305.51 460.6L312.22 447.17M312.22 447.17L312.22 467.32M318.94 450.53L322.3 447.17M322.3 447.17L329.01 447.17M329.01 447.17L332.37 450.53M332.37 450.53L332.37 453.89M332.37 453.89L329.01 457.24M329.01 457.24L322.3 457.24M322.3 457.24L318.94 460.6M318.94 460.6L318.94 467.32M318.94 467.32L332.37 467.32"
     fill="none"
     stroke="black"
     stroke-width="0.5"
     id="path9587" />
  <path
     d="M369.95 413.53L368.94 445.84"
     fill="none"
     stroke="black"
     stroke-width="0.5"
     id="path9589" />
  <path
     d="M346.34 472.15L356.41 472.15M356.41 472.15L359.77 468.79M359.77 468.79L359.77 465.43M359.77 465.43L356.41 462.07M356.41 462.07L349.7 462.07M356.41 462.07L359.77 458.72M359.77 458.72L359.77 455.36M359.77 455.36L356.41 452M356.41 452L346.34 452M349.7 452L349.7 472.15M366.49 472.15L366.49 452M366.49 452L373.2 465.43M373.2 465.43L379.92 452M379.92 452L379.92 472.15M386.63 455.36L389.99 452M389.99 452L396.71 452M396.71 452L400.06 455.36M400.06 455.36L400.06 458.72M400.06 458.72L396.71 462.07M396.71 462.07L393.35 462.07M396.71 462.07L400.06 465.43M400.06 465.43L400.06 468.79M400.06 468.79L396.71 472.15M396.71 472.15L389.99 472.15M389.99 472.15L386.63 468.79"
     fill="none"
     stroke="black"
     stroke-width="0.5"
     id="path9591" />
  <path
     d="M460.62 412.32L459.61 444.63"
     fill="none"
     stroke="black"
     stroke-width="0.5"
     id="path9593" />
  <path
     d="M437 470.94L447.08 470.94M447.08 470.94L450.44 467.58M450.44 467.58L450.44 464.22M450.44 464.22L447.08 460.87M447.08 460.87L440.36 460.87M447.08 460.87L450.44 457.51M450.44 457.51L450.44 454.15M450.44 454.15L447.08 450.79M447.08 450.79L437 450.79M440.36 450.79L440.36 470.94M457.15 470.94L457.15 450.79M457.15 450.79L463.87 464.22M463.87 464.22L470.58 450.79M470.58 450.79L470.58 470.94M490.73 464.22L477.3 464.22M477.3 464.22L487.37 450.79M487.37 450.79L487.37 470.94"
     fill="none"
     stroke="black"
     stroke-width="0.5"
     id="path9595" />
  <path
     d="M535.57 412.32L534.56 444.63"
     fill="none"
     stroke="black"
     stroke-width="0.5"
     id="path9597" />
  <path
     d="M511.95 470.94L522.03 470.94M522.03 470.94L525.38 467.58M525.38 467.58L525.38 464.22M525.38 464.22L522.03 460.87M522.03 460.87L515.31 460.87M522.03 460.87L525.38 457.51M525.38 457.51L525.38 454.15M525.38 454.15L522.03 450.79M522.03 450.79L511.95 450.79M515.31 450.79L515.31 470.94M532.1 470.94L532.1 450.79M532.1 450.79L538.81 464.22M538.81 464.22L545.53 450.79M545.53 450.79L545.53 470.94M552.25 467.58L555.6 470.94M555.6 470.94L562.32 470.94M562.32 470.94L565.68 467.58M565.68 467.58L565.68 460.87M565.68 460.87L562.32 457.51M562.32 457.51L552.25 457.51M552.25 457.51L552.25 450.79M552.25 450.79L565.68 450.79"
     fill="none"
     stroke="black"
     stroke-width="0.5"
     id="path9599" />
  <path
     d="M603.26 412.32L602.25 444.63"
     fill="none"
     stroke="black"
     stroke-width="0.5"
     id="path9601" />
  <path
     d="M579.65 470.94L589.72 470.94M589.72 470.94L593.08 467.58M593.08 467.58L593.08 464.22M593.08 464.22L589.72 460.87M589.72 460.87L583.01 460.87M589.72 460.87L593.08 457.51M593.08 457.51L593.08 454.15M593.08 454.15L589.72 450.79M589.72 450.79L579.65 450.79M583.01 450.79L583.01 470.94M599.79 470.94L599.79 450.79M599.79 450.79L606.51 464.22M606.51 464.22L613.23 450.79M613.23 450.79L613.23 470.94M619.94 460.87L630.01 460.87M630.01 460.87L633.37 464.22M633.37 464.22L633.37 467.58M633.37 467.58L630.01 470.94M630.01 470.94L623.3 470.94M623.3 470.94L619.94 467.58M619.94 467.58L619.94 457.51M619.94 457.51L626.66 450.79M626.66 450.79L630.01 450.79"
     fill="none"
     stroke="black"
     stroke-width="0.5"
     id="path9603" />
</svg>
