<?xml version="1.0" encoding="UTF-8" standalone="no"?>
<svg
   xmlns:dc="http://purl.org/dc/elements/1.1/"
   xmlns:cc="http://creativecommons.org/ns#"
   xmlns:rdf="http://www.w3.org/1999/02/22-rdf-syntax-ns#"
   xmlns:svg="http://www.w3.org/2000/svg"
   xmlns="http://www.w3.org/2000/svg"
   xmlns:xlink="http://www.w3.org/1999/xlink"
   xmlns:sodipodi="http://sodipodi.sourceforge.net/DTD/sodipodi-0.dtd"
   xmlns:inkscape="http://www.inkscape.org/namespaces/inkscape"
   width="800.000"
   height="400.000"
   viewBox="0.0 0.0 800.000 400.000"
   id="svg4397"
   onload="init(evt)"
   ondrop="drop(evt)"
   ondragover="allowDrop(evt)"
   version="1.1"
   inkscape:version="0.48.4 r9939"
   sodipodi:docname="xinxu_K44.svg">
  <script
     xlink:href="init.js"
     id="script3184"
     language="JavaScript" />
  <script
     xlink:href="jquery-2.0.3.min.js"
     id="script3186"
     language="JavaScript" />
  <script
     xlink:href="cookie.js"
     id="script3188"
     language="JavaScript" />
  <metadata
     id="metadata5807">
    <rdf:RDF>
      <cc:Work
         rdf:about="">
        <dc:format>image/svg+xml</dc:format>
        <dc:type
           rdf:resource="http://purl.org/dc/dcmitype/StillImage" />
      </cc:Work>
    </rdf:RDF>
  </metadata>
  <defs
     id="defs5805" />
  <sodipodi:namedview
     pagecolor="#ffffff"
     bordercolor="#666666"
     borderopacity="1"
     objecttolerance="10"
     gridtolerance="10"
     guidetolerance="10"
     inkscape:pageopacity="0"
     inkscape:pageshadow="2"
     inkscape:window-width="1920"
     inkscape:window-height="1018"
     id="namedview5803"
     showgrid="false"
     inkscape:zoom="1.1125147"
     inkscape:cx="437.49014"
     inkscape:cy="166.3347"
     inkscape:window-x="1432"
     inkscape:window-y="-8"
     inkscape:window-maximized="1"
     inkscape:current-layer="svg4397" />
  <title
     id="title4399">Produce by DWG to SVG Converter 2013 MX</title>
  <desc
     id="desc4401">Produce by DWG to SVG Converter 2013 MX</desc>
  <path
     d="M 22.598752,259.23365 70.307625,235.75164"
     id="path4427"
     inkscape:connector-curvature="0"
     style="fill:none;stroke:#000000;stroke-width:0.61842608" />
  <path
     d="M 70.307625,235.75164 93.758408,205.53802"
     id="path4429"
     inkscape:connector-curvature="0"
     style="fill:none;stroke:#000000;stroke-width:0.61842608" />
  <path
     d="M 93.758408,205.53802 193.91301,123.62623"
     id="path4431"
     inkscape:connector-curvature="0"
     style="fill:none;stroke:#000000;stroke-width:0.61842608" />
  <path
     d="M 193.91301,123.62623 290.33257,72.572921"
     id="path4433"
     inkscape:connector-curvature="0"
     style="fill:none;stroke:#000000;stroke-width:0.61842608" />
  <path
     d="m 290.33257,72.572921 82.5106,-14.438378"
     id="path4435"
     inkscape:connector-curvature="0"
     style="fill:none;stroke:#000000;stroke-width:0.61842608" />
  <path
     d="m 372.84317,58.134543 23.16871,7.046171"
     id="path4437"
     inkscape:connector-curvature="0"
     style="fill:none;stroke:#000000;stroke-width:0.61842608" />
  <path
     d="M 396.01188,65.180714 422.28336,79.21016"
     id="path4439"
     inkscape:connector-curvature="0"
     style="fill:none;stroke:#000000;stroke-width:0.61842608" />
  <path
     d="m 422.28336,79.21016 6.6919,3.979192"
     id="path4441"
     inkscape:connector-curvature="0"
     style="fill:none;stroke:#000000;stroke-width:0.61842608" />
  <path
     d="m 428.97526,83.189352 70.31345,-1.38405"
     id="path4443"
     inkscape:connector-curvature="0"
     style="fill:none;stroke:#000000;stroke-width:0.61842608" />
  <path
     d="M 499.28871,81.805302 608.72244,13.734201"
     id="path4445"
     inkscape:connector-curvature="0"
     style="fill:none;stroke:#000000;stroke-width:0.61842608" />
  <path
     d="M 608.72244,13.734201 679.70703,9.9437383"
     id="path4447"
     inkscape:connector-curvature="0"
     style="fill:none;stroke:#000000;stroke-width:0.61842608" />
  <path
     d="M 679.70703,9.9437383 710.6862,55.224852"
     id="path4449"
     inkscape:connector-curvature="0"
     style="fill:none;stroke:#000000;stroke-width:0.61842608" />
  <path
     d="M 710.6862,55.224852 751.37248,166.17067"
     id="path4451"
     inkscape:connector-curvature="0"
     style="fill:none;stroke:#000000;stroke-width:0.61842608" />
  <path
     d="m 751.37248,166.17067 34.53908,92.85852"
     id="path4453"
     inkscape:connector-curvature="0"
     style="fill:none;stroke:#000000;stroke-width:0.61842608" />
  <path
     d="M 785.91156,259.02919 22.268048,259.72125"
     id="path4455"
     inkscape:connector-curvature="0"
     style="fill:none;stroke:#000000;stroke-width:0.61842608" />
  <path
     d="m 753.1038,170.81045 -617.56974,0.55049"
     id="path4457"
     inkscape:connector-curvature="0"
     style="fill:none;stroke:#000000;stroke-width:0.61842608" />
  <path
     d="M 717.09601,72.730196 513.58677,72.903211"
     id="path4459"
     inkscape:connector-curvature="0"
     style="fill:none;stroke:#000000;stroke-width:0.61842608" />
  <path
     d="m 22.608478,308.3367 0.04864,2.24911 -0.262619,0.0158 0,-0.15729 -0.0098,-0.15726 -0.08756,-0.18874 -0.08756,-0.0158 -0.08756,-0.0158 -0.233437,0.0786 -0.145898,0.11002 -3.122233,1.93454 1.011564,0.80214 2.460827,-0.12582 0.08756,0 0.126446,-0.0786 0.03893,-0.0629 0.03893,-0.0629 0.04863,-0.17302 -0.0098,-0.11014 0,-0.31455 0.252891,-0.0158 0.04864,2.40641 -0.262617,0.0158 0,-0.31457 -0.0098,-0.12581 -0.03893,-0.18874 -0.04863,-0.0471 -0.03892,-0.0472 -0.136173,-0.0471 -0.08756,0 -6.176377,0.29883 -0.08755,0 -0.126447,0.0629 -0.03891,0.0471 -0.04864,0.0629 -0.03891,0.18874 0.0097,0.12583 0,0.31456 -0.25289,0.0158 -0.04864,-2.40642 0.262617,-0.0158 0,0.31458 0.0097,0.0944 0.03891,0.17301 0.04864,0.0629 0.03891,0.0629 0.136173,0.0629 0.08755,0 3.151411,-0.15728 -2.937427,-2.32775 -0.155624,-0.11015 -0.223713,-0.0786 -0.07782,0.0629 -0.07783,0.0471 -0.06809,0.25166 0,0.17301 0.0097,0.22019 -0.262619,0 -0.03891,-2.24911 0.252891,-0.0158 0.0097,0.11015 0,0.12584 0.06809,0.26736 0.06809,0.12581 0.06809,0.12582 0.194532,0.25166 0.136171,0.12584 1.925863,1.58853 3.939264,-2.43786 0.126446,-0.0943 0.175077,-0.17302 0.05836,-0.0943 0.04863,-0.0944 0.04864,-0.14156 0,-0.0629 0,-0.25165 0.252891,-0.0158 z"
     id="path4461"
     inkscape:connector-curvature="0"
     style="fill:#000000;fill-rule:evenodd" />
  <path
     d="m 21.703906,303.28799 0.145897,0 0.213986,-0.12582 0.06809,-0.0944 0.05836,-0.11015 0.05835,-0.29883 0,-0.17301 -0.0098,-0.47182 0.262618,-0.0158 0.05836,3.46015 -0.262619,0 -0.0098,-0.56619 0,-0.22018 -0.06809,-0.28313 -0.06809,-0.0944 -0.06809,-0.0943 -0.213985,-0.0785 -0.155624,0.0158 -1.420082,0.0629 0.05837,3.50735 -0.213986,0.0158 -5.077273,-3.58598 -0.0097,-0.53478 4.960556,-0.23591 -0.01945,-1.41553 0.252891,0 0.02919,1.41553 1.429809,-0.0786 z m -5.563605,1.16387 3.948993,2.7996 -0.05836,-3.03551 -3.890632,0.173 0,0.0629 z"
     id="path4463"
     inkscape:connector-curvature="0"
     style="fill:#000000;fill-rule:evenodd" />
  <path
     d="m 21.57746,296.58783 0.155625,0 0.213986,-0.12582 0.05835,-0.11015 0.05835,-0.11014 0.06809,-0.28312 -0.0098,-0.18872 -0.0098,-0.47185 0.262621,0 0.05835,3.44444 -0.25289,0.0158 -0.0098,-0.5662 -0.0098,-0.22021 -0.06809,-0.2988 -0.06809,-0.0787 -0.06809,-0.0943 -0.213986,-0.0786 -0.145899,0 -1.429805,0.0786 0.06809,3.50736 -0.223711,0 -5.077275,-3.58601 -0.0097,-0.51903 4.970283,-0.23591 -0.02919,-1.41554 0.262618,-0.0158 0.01945,1.41553 1.429808,-0.0629 z m -5.553878,1.14815 3.939267,2.81532 -0.05836,-3.05125 -3.880906,0.18874 0,0.0471 z"
     id="path4465"
     inkscape:connector-curvature="0"
     style="fill:#000000;fill-rule:evenodd" />
  <path
     d="m 18.241243,291.66494 -2.460825,0.11003 -0.0097,-0.47182 2.470551,-0.11016 -0.04864,-2.6266 0.389065,-0.0158 0.04864,2.62661 2.460825,-0.12584 0.0098,0.47185 -2.470553,0.12583 0.04864,2.61085 -0.389062,0.0158 -0.04864,-2.61084 z"
     id="path4467"
     inkscape:connector-curvature="0"
     style="fill:#000000;fill-rule:evenodd" />
  <path
     d="m 20.274098,282.13374 0.408517,-0.0314 0.700314,0.34602 0.291796,0.34602 0.282071,0.36175 0.301526,0.94368 0.0098,0.61339 0.0098,0.55049 -0.26262,0.94369 -0.272342,0.40891 -0.272344,0.40894 -0.641955,0.42465 -0.36961,0.0158 -0.369609,0.0158 -0.622502,-0.18875 -0.262617,-0.20445 -0.272345,-0.22018 -0.457149,-0.61343 -0.204257,-0.40892 -0.1459,0.36176 -0.369609,0.58193 -0.223712,0.22019 -0.223712,0.20446 -0.496056,0.22022 -0.282069,0.0158 -0.369612,0.0158 -0.632226,-0.31455 -0.26262,-0.33029 -0.272343,-0.33028 -0.272344,-0.92795 -0.0097,-0.59768 -0.0097,-0.55049 0.243164,-0.91222 0.252891,-0.34602 0.252892,-0.346 0.6225,-0.37749 0.359884,-0.0158 0.262617,-0.0158 0.486329,0.17301 0.233439,0.18873 0.233436,0.18876 0.408518,0.59766 0.175079,0.40892 0.213985,-0.45612 0.457149,-0.6763 0.262618,-0.22019 0.252891,-0.22019 0.554415,-0.23593 0.301522,-0.0158 0,0 z m 0.175079,4.59257 0.340431,-0.0158 0.564141,-0.29881 0.204256,-0.28311 0.213986,-0.28311 0.204258,-0.70776 -0.0098,-0.40893 -0.0098,-0.5033 -0.223712,-0.70777 -0.223711,-0.2202 -0.223712,-0.20445 -0.544687,-0.20446 -0.320978,0.0158 -0.28207,0.0158 -0.534963,0.34604 -0.252891,0.31454 -0.252891,0.3303 -0.457149,0.97513 -0.204258,0.62914 0.175079,0.31456 0.447422,0.45612 0.262618,0.15726 0.262617,0.15729 0.564141,0.14156 0.301525,-0.0158 0,0 z m -3.958717,-3.58598 -0.301524,0.0158 -0.525238,0.23592 -0.22371,0.22019 -0.22371,0.22021 -0.213986,0.6763 0.0097,0.44037 0.0097,0.50331 0.223711,0.69203 0.22371,0.20447 0.223712,0.18873 0.45715,0.18874 0.233437,-0.0158 0.233438,0 0.466876,-0.33029 0.213985,-0.31455 0.22371,-0.31456 0.389065,-0.86506 0.155623,-0.55047 -0.136171,-0.31458 -0.330704,-0.45611 -0.194532,-0.14153 -0.194531,-0.15728 -0.45715,-0.12583 -0.262616,0 0,0 z"
     id="path4469"
     inkscape:connector-curvature="0"
     style="fill:#000000;fill-rule:evenodd" />
  <path
     d="m 14.924479,275.66951 0.748947,0.519 1.449261,0.80215 0.71004,0.29881 0.710041,0.29886 1.225548,0.26736 0.51551,-0.0314 0.08755,0 0.252891,-0.0315 0.155626,-0.0158 0.165351,-0.0158 0.379338,-0.0314 0.213983,-0.0158 0.175079,0 0.23344,0.0471 0.06809,0.0629 0.06809,0.0629 0.06809,0.22019 0,0.15726 0,0.12585 -0.06809,0.23592 -0.07782,0.0944 -0.06809,0.0943 -0.272344,0.0944 -0.194533,0.0158 -0.408515,0.0158 -1.021291,-0.17301 -0.603048,-0.18876 -0.612774,-0.18873 -2.071763,-1.10097 -1.468713,-0.89649 0.04864,2.61086 0.0097,0.29884 0.155624,0.44039 0.155625,0.173 0.155626,0.15727 0.457149,0.22021 0.301524,0.0786 -0.03891,0.31457 -1.81887,-0.28311 -0.08755,-4.71841 0.301523,-0.0158 z"
     id="path4471"
     inkscape:connector-curvature="0"
     style="fill:#000000;fill-rule:evenodd" />
  <path
     d="m 20.030934,268.71768 0.408517,-0.0158 0.700313,0.33031 0.291797,0.36174 0.282071,0.34602 0.301522,0.9594 0.0098,0.59767 0.0098,0.55048 -0.262617,0.95942 -0.272344,0.40891 -0.272343,0.39321 -0.641956,0.42467 -0.369611,0.0314 -0.369607,0.0158 -0.622503,-0.20447 -0.272342,-0.20445 -0.26262,-0.20446 -0.457148,-0.62914 -0.204259,-0.40893 -0.145899,0.37748 -0.369608,0.58194 -0.223714,0.20446 -0.22371,0.20446 -0.505781,0.2202 -0.272344,0.0158 -0.369611,0.0158 -0.632228,-0.31456 -0.262617,-0.31457 -0.272343,-0.33027 -0.272346,-0.92795 -0.0097,-0.6134 -0.0097,-0.5505 0.243165,-0.89651 0.252891,-0.36174 0.252892,-0.34599 0.612773,-0.37749 0.369612,-0.0158 0.262616,0 0.486328,0.17302 0.23344,0.17301 0.22371,0.18873 0.418244,0.59766 0.175078,0.40895 0.213985,-0.45613 0.45715,-0.67629 0.262616,-0.2202 0.252892,-0.2202 0.554414,-0.23592 0.301524,-0.0158 0,0 z m 0.17508,4.60832 0.340428,-0.0158 0.554416,-0.29881 0.213985,-0.28312 0.213983,-0.29883 0.204259,-0.69204 -0.0098,-0.42465 -0.0098,-0.5033 -0.233439,-0.70777 -0.213985,-0.20446 -0.223711,-0.22019 -0.544689,-0.18875 -0.320976,0.0158 -0.28207,0 -0.534964,0.34601 -0.252891,0.33028 -0.252889,0.3303 -0.45715,0.95941 -0.204258,0.64483 0.175077,0.29885 0.447425,0.47185 0.262616,0.15727 0.262617,0.15729 0.564141,0.14154 0.301526,-0.0158 0,0 z m -3.958719,-3.58598 -0.301525,0.0158 -0.525234,0.23591 -0.223713,0.2202 -0.22371,0.2202 -0.213986,0.66056 0.0097,0.4404 0.0097,0.5033 0.223711,0.69203 0.22371,0.20448 0.213984,0.20445 0.457152,0.18874 0.243163,-0.0158 0.233438,-0.0158 0.45715,-0.31456 0.223711,-0.31457 0.223712,-0.31456 0.379335,-0.86505 0.165353,-0.56621 -0.136172,-0.31455 -0.330704,-0.44039 -0.194532,-0.15729 -0.194531,-0.14154 -0.45715,-0.14156 -0.262617,0.0158 0,0 z"
     id="path4473"
     inkscape:connector-curvature="0"
     style="fill:#000000;fill-rule:evenodd" />
  <path
     d="m 256.95095,315.44579 0.039,2.26483 -0.26263,0 0,-0.15728 0,-0.15727 -0.0876,-0.173 -0.0876,-0.0158 -0.0876,-0.0315 -0.24318,0.0944 -0.14588,0.11015 -3.12225,1.93456 1.01157,0.7864 2.46084,-0.11014 0.0876,-0.0158 0.1264,-0.0629 0.039,-0.0629 0.0486,-0.0786 0.0389,-0.173 0,-0.0944 -0.01,-0.31454 0.26263,-0.0158 0.039,2.4064 -0.25288,0.0158 -0.01,-0.31457 0,-0.12583 -0.0486,-0.18873 -0.0486,-0.0471 -0.039,-0.0471 -0.13614,-0.0471 -0.0778,0 -6.17639,0.29882 -0.0876,0 -0.12644,0.0629 -0.0486,0.0471 -0.0389,0.0629 -0.039,0.17301 0,0.14155 0.01,0.31457 -0.26261,0 -0.0486,-2.4064 0.2626,-0.0158 0.01,0.31457 0,0.11015 0.0486,0.17301 0.0389,0.0629 0.0486,0.0629 0.12645,0.0629 0.0876,-0.0158 3.15143,-0.14156 -2.93742,-2.32776 -0.15565,-0.12582 -0.2237,-0.0629 -0.0778,0.0471 -0.0778,0.0629 -0.0682,0.23593 0.01,0.18874 0,0.20447 -0.26262,0.0158 -0.039,-2.24913 0.26262,-0.0158 0,0.11014 0,0.12582 0.0682,0.25166 0.068,0.14155 0.068,0.12582 0.20426,0.25165 0.12645,0.12584 1.9356,1.58852 3.92951,-2.45357 0.12648,-0.0786 0.18478,-0.17303 0.0486,-0.0943 0.0486,-0.0944 0.0584,-0.15728 0,-0.0471 -0.01,-0.26738 0.26261,-0.0158 z"
     id="path4475"
     inkscape:connector-curvature="0"
     style="fill:#000000;fill-rule:evenodd" />
  <path
     d="m 256.03665,310.41281 0.14592,-0.0158 0.21399,-0.11014 0.0682,-0.11014 0.0584,-0.11015 0.0584,-0.28311 0,-0.18873 -0.01,-0.47185 0.26262,-0.0158 0.0584,3.46017 -0.25292,0.0158 -0.01,-0.58194 -0.01,-0.20445 -0.0682,-0.29884 -0.068,-0.0786 -0.0681,-0.0943 -0.214,-0.0785 -0.15563,0 -1.42007,0.0629 0.0584,3.5231 -0.21398,0 -5.07728,-3.58602 -0.01,-0.51903 4.97027,-0.23592 -0.0292,-1.41553 0.26263,-0.0158 0.0194,1.41554 1.4298,-0.0629 z m -5.55385,1.14813 3.93927,2.79961 -0.0584,-3.03551 -3.8809,0.18872 0,0.0472 z"
     id="path4477"
     inkscape:connector-curvature="0"
     style="fill:#000000;fill-rule:evenodd" />
  <path
     d="m 255.91022,303.71264 0.15562,-0.0158 0.21398,-0.11003 0.0584,-0.11016 0.0681,-0.11014 0.0584,-0.2831 0,-0.18873 -0.01,-0.47185 0.25288,-0.0158 0.0682,3.46018 -0.26261,0.0158 -0.01,-0.58194 0,-0.20447 -0.0778,-0.29883 -0.0584,-0.0943 -0.0681,-0.0786 -0.22371,-0.0943 -0.1459,0.0158 -1.42979,0.0629 0.0681,3.50736 -0.21399,0.0158 -5.08699,-3.58598 0,-0.51902 4.96054,-0.23593 -0.0194,-1.41553 0.2529,-0.0158 0.0292,1.41553 1.42006,-0.0629 z m -5.55388,1.14816 3.93927,2.79958 -0.0486,-3.03552 -3.89064,0.18875 0,0.0471 z"
     id="path4479"
     inkscape:connector-curvature="0"
     style="fill:#000000;fill-rule:evenodd" />
  <path
     d="m 252.58375,298.77403 -2.46083,0.12581 -0.01,-0.47183 2.46083,-0.12582 -0.0486,-2.61087 0.38907,-0.0158 0.0486,2.61087 2.46081,-0.11015 0.01,0.47185 -2.46083,0.11013 0.0486,2.62659 -0.38906,0.0158 -0.0486,-2.62658 z"
     id="path4481"
     inkscape:connector-curvature="0"
     style="fill:#000000;fill-rule:evenodd" />
  <path
     d="m 253.76064,292.32553 0.01,0.51901 -0.25289,0.86506 -0.26261,0.31455 -0.26263,0.33029 -0.87539,0.36175 -0.60305,0.0314 -0.5155,0.0158 -0.87538,-0.29884 -0.35017,-0.31455 -0.35017,-0.3303 -0.35989,-0.9594 -0.0194,-0.62911 -0.01,-0.64486 0.41825,-1.03805 0.41824,-0.3932 0.42797,-0.39321 1.245,-0.42466 0.82678,-0.0315 0.90457,-0.0471 1.50761,0.36176 0.60305,0.40892 0.60304,0.3932 0.61279,1.16387 0.01,0.77068 0.01,0.33028 -0.11669,0.59767 -0.12647,0.25165 -0.12644,0.25165 -0.34043,0.2674 -0.214,0.0158 -0.0876,0 -0.17509,-0.0471 -0.0876,-0.0629 -0.0876,-0.0629 -0.0876,-0.22018 0,-0.15727 -0.01,-0.15729 0.0972,-0.22018 0.0972,-0.0471 0.0972,-0.0629 0.22372,-0.0629 0.12644,0 0.0876,-0.0158 0.13617,-0.0314 0.0584,-0.0314 0.0486,-0.0158 0.0778,-0.0629 0.0194,-0.0314 0.0194,-0.0158 0.039,-0.0944 0.01,-0.0786 0.01,-0.0629 0,-0.14155 0,-0.0785 -0.01,-0.47184 -0.4377,-0.73923 -0.4377,-0.26739 -0.43769,-0.26735 -1.45898,-0.2674 -1.01158,0 0.26264,0.11017 0.43769,0.37746 0.17507,0.25166 0.17508,0.25165 0.1848,0.64485 0.01,0.3932 0,0 z m -2.30518,1.52562 0.47657,-0.0158 0.71979,-0.26738 0.24316,-0.2359 0.24317,-0.2202 0.23344,-0.58195 0,-0.346 -0.01,-0.39322 -0.31125,-0.66059 -0.31123,-0.26737 -0.31127,-0.2831 -0.56413,-0.25165 -0.25291,0 -0.52523,0.0314 -0.82677,0.25166 -0.31123,0.22019 -0.30152,0.22019 -0.30153,0.70776 0.01,0.47185 0,0.44038 0.31126,0.64486 0.29179,0.18873 0.29179,0.18874 0.74896,0.173 0.45716,-0.0158 0,0 z"
     id="path4483"
     inkscape:connector-curvature="0"
     style="fill:#000000;fill-rule:evenodd" />
  <path
     d="m 250.79404,283.76946 -0.38907,0.0158 -0.58359,0.23591 -0.20426,0.2202 -0.20425,0.22019 -0.19452,0.64487 0.01,0.40891 0.01,0.31456 0.14592,0.53475 0.14589,0.2202 0.14589,0.20446 0.35989,0.20447 0.21398,0 0.12645,-0.0158 0.21399,-0.0943 0.0876,-0.0944 0.0876,-0.0943 0.16535,-0.11014 0.0876,0 0.10698,0 0.16537,0.0471 0.0584,0.0629 0.0486,0.0629 0.0584,0.20447 0.01,0.12583 0,0.15728 -0.0681,0.25165 -0.0778,0.0944 -0.0778,0.0943 -0.24317,0.11014 -0.17507,0 -0.44743,0.0315 -0.70032,-0.36175 -0.24317,-0.37749 -0.24316,-0.39319 -0.25288,-0.81787 -0.01,-0.45611 -0.01,-0.61338 0.23344,-0.94369 0.26261,-0.31456 0.2529,-0.31457 0.64193,-0.33029 0.38906,-0.0314 0.25292,0 0.52523,0.11013 0.26262,0.14155 0.2626,0.12583 0.50579,0.44038 0.24319,0.29885 0.61275,0.72349 1.00184,1.11669 0.38906,0.39319 0.38905,0.39321 0.51553,0.45612 0.12643,0.0786 -0.0584,-3.09845 0,-0.23591 -0.15561,-0.37746 -0.15563,-0.1573 -0.15562,-0.14155 -0.45716,-0.18872 -0.3015,-0.0471 -0.01,-0.31456 1.86748,0.23591 0.0876,4.85998 -0.56413,0.0314 -0.19453,-0.12581 -0.50578,-0.40894 -0.31126,-0.2831 -0.30152,-0.28312 -0.7295,-0.77065 -0.41825,-0.47184 -0.37933,-0.42468 -0.70031,-0.62912 -0.33073,-0.18873 -0.32094,-0.20447 -0.61279,-0.17301 -0.28207,0.0158 0,0 z"
     id="path4485"
     inkscape:connector-curvature="0"
     style="fill:#000000;fill-rule:evenodd" />
  <path
     d="m 253.51749,278.9252 0.01,0.51903 -0.2529,0.84932 -0.26262,0.33029 -0.27233,0.33028 -0.86567,0.34603 -0.60305,0.0314 -0.5155,0.0314 -0.8754,-0.29885 -0.35016,-0.33028 -0.35015,-0.33029 -0.3599,-0.94368 -0.0194,-0.62912 -0.01,-0.66059 0.41825,-1.03805 0.41824,-0.3932 0.42797,-0.37748 1.245,-0.42466 0.82675,-0.0472 0.90458,-0.0471 1.50763,0.36175 0.60303,0.40893 0.60305,0.40893 0.6128,1.16388 0.01,0.75495 0.01,0.34601 -0.11671,0.58195 -0.12645,0.26739 -0.12645,0.25162 -0.34042,0.26739 -0.214,0 -0.0876,0.0158 -0.17508,-0.0629 -0.0876,-0.0629 -0.0876,-0.0629 -0.0876,-0.22019 -0.01,-0.15729 0,-0.15727 0.0972,-0.20447 0.0972,-0.0629 0.0876,-0.0629 0.23344,-0.0629 0.12645,0 0.0876,0 0.13616,-0.0314 0.0584,-0.0314 0.0486,-0.0315 0.0778,-0.0471 0.0194,-0.0314 0.0194,-0.0314 0.0292,-0.0943 0.01,-0.0629 0.01,-0.0629 0.01,-0.14154 0,-0.0785 -0.01,-0.47186 -0.44741,-0.73921 -0.4377,-0.26738 -0.42797,-0.26738 -1.45899,-0.28311 -1.01156,0 0.26262,0.12583 0.43769,0.36174 0.17508,0.25166 0.17506,0.26738 0.18482,0.64484 0.01,0.39321 0,0 z m -2.30521,1.52564 0.47661,-0.0314 0.71975,-0.25164 0.24318,-0.23592 0.24316,-0.23593 0.23345,-0.58194 0,-0.33028 -0.01,-0.39323 -0.31124,-0.67628 -0.31123,-0.26738 -0.31126,-0.26737 -0.56414,-0.26739 -0.26261,0.0158 -0.51553,0.0158 -0.82676,0.25167 -0.31124,0.22019 -0.31125,0.23592 -0.29181,0.69204 0,0.47184 0.01,0.44038 0.30154,0.64485 0.30152,0.18874 0.29179,0.20447 0.74896,0.17301 0.45714,-0.0158 0,0 z"
     id="path4487"
     inkscape:connector-curvature="0"
     style="fill:#000000;fill-rule:evenodd" />
  <path
     d="m 290.18667,387.8893 0.039,2.24909 -0.26261,0.0158 0,-0.15726 0,-0.15728 -0.0876,-0.18874 -0.0876,-0.0158 -0.0876,-0.0314 -0.24317,0.0943 -0.14588,0.11015 -3.12224,1.93457 1.01155,0.7864 2.46086,-0.11005 0.0876,0 0.12644,-0.0785 0.0486,-0.0629 0.0389,-0.0786 0.039,-0.17301 0,-0.0943 -0.01,-0.31457 0.26263,-0.0158 0.039,2.40637 -0.25288,0.0158 -0.01,-0.31457 0,-0.12582 -0.0486,-0.18872 -0.0389,-0.0471 -0.0486,-0.0471 -0.12644,-0.0471 -0.0876,0 -6.17638,0.29881 -0.0876,0 -0.12646,0.0629 -0.0486,0.0471 -0.0389,0.0629 -0.0389,0.17303 0,0.14154 0.01,0.31458 -0.2626,0.0158 -0.039,-2.42214 0.2529,0 0.01,0.31455 0,0.0943 0.0486,0.17299 0.039,0.0629 0.0486,0.0629 0.12644,0.0629 0.0876,0 3.15142,-0.15727 -2.93741,-2.32776 -0.15565,-0.12582 -0.22368,-0.0629 -0.0778,0.0629 -0.068,0.0471 -0.0778,0.23594 0.01,0.18873 0,0.20445 -0.26262,0.0158 -0.039,-2.2491 0.26261,-0.0158 0,0.11015 0,0.12582 0.0682,0.26737 0.068,0.12583 0.0681,0.12582 0.20424,0.25166 0.12646,0.1258 1.9356,1.58854 3.92952,-2.45357 0.12646,-0.0786 0.18478,-0.17302 0.0486,-0.0943 0.0584,-0.0944 0.0486,-0.15728 0,-0.0471 -0.01,-0.26737 0.26262,0 z"
     id="path4489"
     inkscape:connector-curvature="0"
     style="fill:#000000;fill-rule:evenodd" />
  <path
     d="m 289.2724,382.84056 0.1556,0 0.21402,-0.12581 0.0584,-0.11014 0.0584,-0.0944 0.068,-0.29885 -0.01,-0.18873 -0.01,-0.47185 0.26263,0 0.0584,3.44444 -0.25291,0.0158 -0.01,-0.56621 -0.01,-0.2202 -0.0681,-0.29883 -0.0682,-0.0786 -0.0682,-0.0943 -0.21402,-0.0786 -0.14587,0 -1.42981,0.0786 0.068,3.50735 -0.2237,0 -5.07728,-3.586 -0.01,-0.51902 4.97027,-0.23592 -0.0292,-1.41553 0.26264,-0.0158 0.0194,1.41554 1.42981,-0.0629 z m -5.55388,1.16388 3.93925,2.7996 -0.0584,-3.05123 -3.8809,0.18873 0,0.0629 z"
     id="path4491"
     inkscape:connector-curvature="0"
     style="fill:#000000;fill-rule:evenodd" />
  <path
     d="m 289.14594,376.14042 0.15565,-0.0158 0.21397,-0.11014 0.0584,-0.11004 0.0682,-0.11013 0.0584,-0.2831 0,-0.18874 -0.01,-0.47185 0.25288,-0.0158 0.0682,3.46018 -0.26261,0.0158 -0.01,-0.58194 0,-0.20447 -0.0682,-0.29882 -0.0681,-0.0944 -0.0682,-0.0785 -0.21399,-0.0785 -0.15563,0 -1.42979,0.0629 0.0681,3.50736 -0.21399,0.0158 -5.07725,-3.58599 -0.01,-0.51903 4.96056,-0.23592 -0.0194,-1.41554 0.25289,-0.0158 0.0292,1.41552 1.42007,-0.0629 z m -5.55387,1.14816 3.94898,2.79958 -0.0584,-3.03552 -3.89063,0.18875 0,0.0471 z"
     id="path4493"
     inkscape:connector-curvature="0"
     style="fill:#000000;fill-rule:evenodd" />
  <path
     d="m 285.81945,371.21753 -2.46082,0.11014 -0.01,-0.47184 2.46082,-0.11015 -0.0486,-2.62659 0.38907,-0.0158 0.0486,2.61087 2.46083,-0.11016 0.01,0.47187 -2.46082,0.11014 0.0486,2.62657 -0.38905,0.0158 -0.0486,-2.61085 z"
     id="path4495"
     inkscape:connector-curvature="0"
     style="fill:#000000;fill-rule:evenodd" />
  <path
     d="m 286.99637,364.75329 0.01,0.53474 -0.25287,0.84932 -0.26262,0.3303 -0.26263,0.31456 -0.87539,0.36173 -0.60305,0.0314 -0.5155,0.0158 -0.87539,-0.29885 -0.35014,-0.31454 -0.3502,-0.33029 -0.35987,-0.94369 -0.01,-0.62911 -0.0194,-0.66058 0.41825,-1.03805 0.42797,-0.39321 0.41824,-0.39321 1.24502,-0.42466 0.82676,-0.0315 0.90457,-0.0472 1.50761,0.36178 0.60305,0.40893 0.60306,0.39321 0.61275,1.16385 0.0194,0.7707 0,0.33027 -0.11669,0.59768 -0.12645,0.25164 -0.12648,0.26738 -0.34042,0.25166 -0.21398,0.0158 -0.0876,0 -0.17509,-0.0472 -0.0876,-0.0629 -0.0876,-0.0629 -0.0876,-0.2202 0,-0.15729 -0.01,-0.15726 0.0972,-0.2202 0.0972,-0.0471 0.0972,-0.0629 0.2237,-0.0629 0.12646,0 0.0876,0 0.13618,-0.0471 0.0584,-0.0158 0.0486,-0.0315 0.0778,-0.0629 0.0194,-0.0314 0.0194,-0.0158 0.039,-0.0943 0.01,-0.0629 0.01,-0.0785 0,-0.14154 0,-0.0786 -0.01,-0.47185 -0.43771,-0.73922 -0.43768,-0.26739 -0.4377,-0.26737 -1.45898,-0.26738 -1.01157,0 0.26261,0.11016 0.43771,0.37747 0.17507,0.25163 0.17508,0.25166 0.1848,0.64485 0.01,0.39321 0,0 z m -2.3052,1.52563 0.4766,-0.0158 0.71976,-0.26736 0.24318,-0.2202 0.24314,-0.23591 0.24317,-0.58193 -0.01,-0.34603 -0.01,-0.37748 -0.31126,-0.67632 -0.31126,-0.26736 -0.30152,-0.28311 -0.57388,-0.25164 -0.25289,0 -0.52523,0.0315 -0.82676,0.25165 -0.31125,0.22019 -0.30152,0.22019 -0.30152,0.70776 0.01,0.47185 0,0.44039 0.31127,0.64485 0.29178,0.18872 0.29179,0.20447 0.74895,0.17302 0.45715,-0.0314 0,0 z"
     id="path4497"
     inkscape:connector-curvature="0"
     style="fill:#000000;fill-rule:evenodd" />
  <path
     d="m 287.59942,355.03335 0.40852,-0.0158 0.7295,0.3303 0.32096,0.34601 0.32096,0.34603 0.33075,1.00659 0.01,0.66057 0.01,0.47184 -0.20427,0.81785 -0.20427,0.36177 -0.21399,0.346 -0.48632,0.36175 -0.28206,0.0158 -0.12645,0 -0.23345,-0.0944 -0.0972,-0.0944 -0.0972,-0.0943 -0.107,-0.20446 0,-0.11015 0,-0.15727 0.0972,-0.23593 0.0876,-0.0629 0.0972,-0.0629 0.16535,-0.0785 0.0584,0 0.11672,-0.0158 0.1848,0.0471 0.0681,0.0471 0.0778,0.0472 0.1459,0.0471 0.0584,0 0.13617,0 0.21398,-0.20447 0.0778,-0.20445 0.0876,-0.20446 0.0778,-0.4404 -0.01,-0.23592 -0.01,-0.47185 -0.23343,-0.69202 -0.23343,-0.22019 -0.23343,-0.23593 -0.70033,-0.18872 -0.47659,0.0158 -0.38906,0.0158 -0.6225,0.2831 -0.23345,0.25166 -0.23345,0.26738 -0.22369,0.94368 0.0194,0.67631 -0.30153,0.0158 -0.01,-0.51904 -0.22372,-0.77067 -0.21399,-0.23591 -0.20426,-0.23592 -0.57386,-0.22021 -0.36962,0.0158 -0.30152,0.0158 -0.52523,0.22021 -0.2237,0.20445 -0.22373,0.20447 -0.21398,0.62911 0,0.42466 0.01,0.17303 0.0778,0.39318 0.0778,0.20446 0.0876,0.20448 0.25291,0.20447 0.16536,-0.0158 0.17507,0 0.21399,-0.0629 0.0486,-0.0629 0.0388,-0.0472 0.10701,-0.0629 0.0681,0 0.10698,0 0.17509,0.0471 0.0584,0.0472 0.0681,0.0471 0.0682,0.173 0,0.14157 0,0.0944 -0.0584,0.20446 -0.0584,0.0943 -0.0681,0.0944 -0.23346,0.11015 -0.17506,0 -0.32098,0.0158 -0.53497,-0.31458 -0.21397,-0.33028 -0.214,-0.33028 -0.21398,-0.77067 -0.01,-0.45614 -0.01,-0.51902 0.2529,-0.8493 0.26259,-0.33031 0.27238,-0.33028 0.56412,-0.3303 0.30154,-0.0158 0.32097,-0.0158 0.55441,0.15727 0.23344,0.18874 0.23343,0.18873 0.34044,0.59766 0.11672,0.42467 0.16535,-0.59767 0.4377,-0.80213 0.27233,-0.22021 0.28208,-0.22019 0.55441,-0.23592 0.28207,-0.0158 0,0 z"
     id="path4499"
     inkscape:connector-curvature="0"
     style="fill:#000000;fill-rule:evenodd" />
  <path
     d="m 288.65961,349.32404 0.15565,-0.0158 0.21397,-0.11014 0.0584,-0.11015 0.0682,-0.11015 0.0584,-0.28309 -0.01,-0.18875 0,-0.47184 0.25288,-0.0158 0.0681,3.46017 -0.26261,0.0158 -0.01,-0.58196 0,-0.20446 -0.0778,-0.29881 -0.0584,-0.0943 -0.0681,-0.0786 -0.22371,-0.0944 -0.14591,0.0158 -1.4298,0.0629 0.0681,3.50736 -0.21398,0.0158 -5.08699,-3.58598 -0.01,-0.51901 4.97027,-0.23594 -0.0292,-1.41551 0.26261,-0.0158 0.0292,1.41553 1.42009,-0.0629 z m -5.55386,1.14817 3.93926,2.79959 -0.0486,-3.03552 -3.89062,0.18874 0,0.0471 z"
     id="path4501"
     inkscape:connector-curvature="0"
     style="fill:#000000;fill-rule:evenodd" />
  <path
     d="m 340.13268,317.50617 0.0389,2.24912 -0.26264,0.0158 0,-0.15728 0,-0.15727 -0.0876,-0.17301 -0.0876,-0.0314 -0.0876,-0.0158 -0.24317,0.0944 -0.14588,0.11014 -3.12223,1.93455 1.01156,0.7864 2.46082,-0.12581 0.0876,0 0.12645,-0.0629 0.0388,-0.0786 0.0486,-0.0629 0.039,-0.17301 0,-0.11015 -0.01,-0.31455 0.26262,0 0.0389,2.40637 -0.25288,0.0158 -0.01,-0.31455 0,-0.14157 -0.0486,-0.173 -0.0486,-0.0471 -0.0389,-0.0629 -0.12644,-0.0471 -0.0876,0.0158 -6.17636,0.2831 -0.0876,0.0158 -0.12643,0.0471 -0.0486,0.0629 -0.0389,0.0471 -0.039,0.18874 0,0.12581 0.01,0.31457 -0.26261,0.0158 -0.0486,-2.40639 0.2626,-0.0158 0.01,0.31456 0,0.11002 0.0486,0.173 0.039,0.0629 0.0486,0.0629 0.12646,0.0471 0.0876,0 3.15138,-0.14156 -2.93742,-2.32774 -0.15565,-0.12582 -0.22368,-0.0629 -0.0778,0.0471 -0.0682,0.0629 -0.0778,0.23594 0.01,0.18872 0,0.20446 -0.26262,0.0158 -0.0388,-2.24908 0.2626,-0.0158 0,0.0943 0,0.14156 0.0682,0.25164 0.0682,0.12582 0.0682,0.12584 0.20427,0.26737 0.12641,0.11015 1.9356,1.58853 3.92955,-2.43785 0.12645,-0.0786 0.1848,-0.18874 0.0486,-0.0944 0.0486,-0.0944 0.0584,-0.14155 0,-0.0471 -0.01,-0.26736 0.2626,-0.0158 z"
     id="path4503"
     inkscape:connector-curvature="0"
     style="fill:#000000;fill-rule:evenodd" />
  <path
     d="m 339.21839,312.4732 0.14589,-0.0158 0.21399,-0.11015 0.068,-0.11014 0.0584,-0.11015 0.0682,-0.2831 -0.01,-0.18874 -0.01,-0.47185 0.26262,-0.0158 0.0584,3.46015 -0.25289,0.0158 -0.01,-0.58194 -0.01,-0.20447 -0.0681,-0.29883 -0.0681,-0.0944 -0.0682,-0.0786 -0.21397,-0.0943 -0.15563,0.0158 -1.42008,0.0629 0.0681,3.50736 -0.22373,0.0158 -5.07729,-3.58601 -0.01,-0.51901 4.97028,-0.23592 -0.0292,-1.41554 0.26262,-0.0158 0.0194,1.41552 1.42983,-0.0629 z m -5.55389,1.14813 3.93926,2.79961 -0.0584,-3.03553 -3.88091,0.18872 0,0.0471 z"
     id="path4505"
     inkscape:connector-curvature="0"
     style="fill:#000000;fill-rule:evenodd" />
  <path
     d="m 339.09194,305.75729 0.15561,0 0.21399,-0.11014 0.0584,-0.11015 0.068,-0.11002 0.0584,-0.29885 0,-0.173 -0.01,-0.47184 0.25288,-0.0158 0.0681,3.46016 -0.26262,0.0158 -0.01,-0.5819 0,-0.2045 -0.0681,-0.29882 -0.0682,-0.0944 -0.0681,-0.0944 -0.22371,-0.0786 -0.1459,0.0158 -1.42981,0.0629 0.0681,3.50737 -0.21398,0.0158 -5.07727,-3.586 -0.01,-0.51904 4.96053,-0.25164 -0.0194,-1.3998 0.25291,-0.0158 0.0292,1.41551 1.42008,-0.0786 z m -5.5539,1.16388 3.93928,2.79958 -0.0486,-3.03549 -3.89065,0.18873 0,0.0471 z"
     id="path4507"
     inkscape:connector-curvature="0"
     style="fill:#000000;fill-rule:evenodd" />
  <path
     d="m 335.76545,300.83441 -2.46084,0.12581 -0.01,-0.47183 2.46082,-0.12581 -0.0486,-2.61086 0.38908,-0.0314 0.0486,2.62659 2.46082,-0.11014 0.01,0.47184 -2.46081,0.11015 0.0486,2.61084 -0.38907,0.0314 -0.0486,-2.62658 z"
     id="path4509"
     inkscape:connector-curvature="0"
     style="fill:#000000;fill-rule:evenodd" />
  <path
     d="m 336.94236,294.3859 0.01,0.51904 -0.25289,0.84931 -0.26261,0.33028 -0.26264,0.33029 -0.8754,0.36174 -0.60303,0.0158 -0.51551,0.0314 -0.87539,-0.29885 -0.35015,-0.33028 -0.35018,-0.31456 -0.35986,-0.95943 -0.0194,-0.62912 -0.01,-0.64485 0.41823,-1.05378 0.41825,-0.37746 0.42796,-0.3932 1.24502,-0.42465 0.82677,-0.0314 0.90457,-0.0472 1.50763,0.36175 0.60303,0.39319 0.60305,0.40894 0.61277,1.16387 0.01,0.75495 0.01,0.34601 -0.11671,0.59766 -0.12645,0.25167 -0.12646,0.25164 -0.34042,0.26738 -0.21398,0.0158 -0.0876,0 -0.17508,-0.0629 -0.0876,-0.0629 -0.0876,-0.0471 -0.0876,-0.22019 0,-0.15727 -0.01,-0.1573 0.0972,-0.22019 0.0972,-0.0629 0.0972,-0.0471 0.22371,-0.0629 0.12644,-0.0158 0.0876,0 0.13617,-0.0314 0.0584,-0.0314 0.0486,-0.0315 0.0778,-0.0471 0.0194,-0.0315 0.0194,-0.0314 0.0389,-0.0943 0.01,-0.0629 0.01,-0.0629 0,-0.14156 0,-0.0786 -0.01,-0.47182 -0.43769,-0.73923 -0.4377,-0.26739 -0.4377,-0.26738 -1.45899,-0.26737 -1.01155,-0.0158 0.26262,0.12581 0.4377,0.37747 0.17508,0.25166 0.17508,0.25164 0.1848,0.64485 0.01,0.39321 0,0 z m -2.3052,1.52562 0.47662,-0.0315 0.71975,-0.25165 0.24315,-0.23593 0.24317,-0.23591 0.23343,-0.56621 0,-0.34601 -0.01,-0.39322 -0.31125,-0.66057 -0.31124,-0.28312 -0.31125,-0.26736 -0.56415,-0.26738 -0.25288,0.0158 -0.52523,0.0315 -0.82676,0.25164 -0.31126,0.22019 -0.30151,0.2202 -0.30154,0.69203 0.01,0.47183 0,0.45612 0.31125,0.62912 0.29181,0.20447 0.29181,0.18876 0.74891,0.173 0.45716,-0.0158 0,0 z"
     id="path4511"
     inkscape:connector-curvature="0"
     style="fill:#000000;fill-rule:evenodd" />
  <path
     d="m 338.73205,285.65681 0.14591,-0.0158 0.21398,-0.11015 0.0681,-0.11016 0.0584,-0.11012 0.0584,-0.2831 0,-0.18874 -0.01,-0.47184 0.26262,-0.0158 0.0584,3.46018 -0.25289,0.0158 -0.0194,-0.58193 0,-0.20446 -0.0682,-0.29883 -0.068,-0.0943 -0.0681,-0.0786 -0.21399,-0.0944 -0.15563,0.0158 -1.42008,0.0629 0.0584,3.50737 -0.21396,0.0158 -5.07727,-3.586 -0.01,-0.51902 4.97028,-0.23593 -0.0292,-1.41552 0.26261,-0.0158 0.0194,1.41552 1.42983,-0.0629 z m -5.55389,1.14816 3.93928,2.7996 -0.0584,-3.03552 -3.89065,0.18873 0.01,0.0471 z"
     id="path4513"
     inkscape:connector-curvature="0"
     style="fill:#000000;fill-rule:evenodd" />
  <path
     d="m 338.60561,278.94093 0.15562,0 0.21398,-0.11015 0.0584,-0.11014 0.0682,-0.11014 0.0584,-0.29884 -0.01,-0.17301 0,-0.47184 0.25288,-0.0158 0.0681,3.46019 -0.26262,0 -0.01,-0.56623 0,-0.22018 -0.0778,-0.2831 -0.0682,-0.0943 -0.0584,-0.0944 -0.2237,-0.0786 -0.14591,0.0158 -1.42981,0.0629 0.0682,3.50736 -0.21398,0.0158 -5.08702,-3.58598 -0.01,-0.53477 4.97027,-0.23591 -0.0292,-1.41554 0.26263,0 0.0292,1.41554 1.42007,-0.0786 z m -5.55389,1.16388 3.93926,2.7996 -0.0486,-3.03552 -3.89064,0.173 0,0.0629 z"
     id="path4515"
     inkscape:connector-curvature="0"
     style="fill:#000000;fill-rule:evenodd" />
  <path
     d="m 415.10515,316.46811 0.039,2.24911 -0.26261,0.0158 0,-0.15729 0,-0.15727 -0.0972,-0.18873 -0.0778,-0.0158 -0.0876,-0.0158 -0.24316,0.0786 -0.14591,0.11014 -3.12223,1.93455 1.01157,0.78641 2.46081,-0.11013 0.0876,0 0.12645,-0.0786 0.039,-0.0629 0.0486,-0.0629 0.0389,-0.17303 0,-0.11014 -0.01,-0.31455 0.26262,-0.0158 0.0389,2.40642 -0.25286,0.0158 -0.01,-0.31459 0,-0.12582 -0.0486,-0.18873 -0.0486,-0.0471 -0.039,-0.0471 -0.13618,-0.0472 -0.0778,0 -6.17638,0.29884 -0.0876,0 -0.13616,0.0629 -0.0389,0.0471 -0.0389,0.0629 -0.039,0.18875 0,0.12583 0,0.31455 -0.2529,0.0158 -0.0486,-2.40641 0.26262,-0.0158 0.01,0.31457 0,0.0943 0.0486,0.17299 0.0389,0.0629 0.0486,0.0629 0.12644,0.0629 0.0876,0 3.1514,-0.15727 -2.93743,-2.32777 -0.1556,-0.12584 -0.22373,-0.0629 -0.0778,0.0629 -0.0778,0.0472 -0.0681,0.25167 0,0.17298 0.01,0.20448 -0.26261,0.0158 -0.039,-2.24913 0.26263,-0.0158 0,0.11015 0,0.12583 0.0682,0.26737 0.068,0.12582 0.0681,0.12583 0.19453,0.25164 0.13615,0.12583 1.9356,1.58855 3.92954,-2.43787 0.12646,-0.0944 0.1848,-0.17301 0.0486,-0.0944 0.0486,-0.0943 0.0584,-0.14156 0,-0.0629 -0.01,-0.25165 0.26262,-0.0158 z"
     id="path4517"
     inkscape:connector-curvature="0"
     style="fill:#000000;fill-rule:evenodd" />
  <path
     d="m 414.19084,311.4194 0.1459,0 0.214,-0.12582 0.0682,-0.0943 0.0584,-0.11013 0.0584,-0.29882 0,-0.17303 -0.01,-0.47182 0.26264,-0.0158 0.0584,3.46017 -0.25287,0 -0.01,-0.56623 -0.01,-0.22017 -0.0682,-0.29885 -0.068,-0.0785 -0.0682,-0.0944 -0.21398,-0.0786 -0.15563,0 -1.42008,0.0786 0.0584,3.50737 -0.21399,0.0158 -5.07726,-3.586 -0.01,-0.53477 4.97029,-0.23592 -0.0292,-1.41551 0.26264,0 0.0194,1.39979 1.42979,-0.0629 z m -5.55386,1.16387 3.93926,2.79962 -0.0584,-3.03553 -3.88089,0.173 0,0.0629 z"
     id="path4519"
     inkscape:connector-curvature="0"
     style="fill:#000000;fill-rule:evenodd" />
  <path
     d="m 414.06441,304.71924 0.15562,-0.0158 0.21398,-0.11016 0.0584,-0.11013 0.068,-0.11016 0.0584,-0.28309 0,-0.18873 -0.01,-0.47185 0.25291,-0.0158 0.0682,3.46019 -0.26263,0.0158 -0.01,-0.58194 0,-0.20447 -0.0778,-0.29883 -0.0584,-0.0786 -0.0681,-0.0943 -0.22373,-0.0786 -0.14588,0 -1.4298,0.0629 0.0681,3.52307 -0.214,0 -5.087,-3.58598 -0.01,-0.51904 4.97029,-0.23592 -0.0292,-1.41553 0.2626,-0.0158 0.0292,1.41553 1.42009,-0.0629 z m -5.55389,1.14815 3.93928,2.7996 -0.0486,-3.03552 -3.89066,0.18872 0,0.0472 z"
     id="path4521"
     inkscape:connector-curvature="0"
     style="fill:#000000;fill-rule:evenodd" />
  <path
     d="m 410.73792,299.79636 -2.46083,0.11015 -0.01,-0.47184 2.46084,-0.11015 -0.0486,-2.62658 0.38906,-0.0158 0.0486,2.6266 2.46083,-0.12585 0.01,0.47185 -2.46084,0.11015 0.0486,2.62659 -0.38908,0.0158 -0.0486,-2.61084 z"
     id="path4523"
     inkscape:connector-curvature="0"
     style="fill:#000000;fill-rule:evenodd" />
  <path
     d="m 411.91484,293.33213 0.01,0.53474 -0.2529,0.84932 -0.26262,0.3303 -0.27233,0.31455 -0.86566,0.36174 -0.60306,0.0314 -0.51551,0.0158 -0.87539,-0.29883 -0.35017,-0.31457 -0.35014,-0.33029 -0.35988,-0.94368 -0.0194,-0.62913 -0.01,-0.66058 0.41823,-1.03804 0.41824,-0.3932 0.42798,-0.37749 1.245,-0.44037 0.82674,-0.0314 0.9046,-0.0471 1.50762,0.36174 0.60304,0.40893 0.60303,0.40893 0.61281,1.16388 0.01,0.75493 0.01,0.33032 -0.11673,0.59765 -0.12643,0.26737 -0.12646,0.25166 -0.34042,0.26737 -0.21399,0 -0.0876,0.0158 -0.17506,-0.0629 -0.0876,-0.0629 -0.0876,-0.0629 -0.0876,-0.22019 -0.01,-0.15728 0,-0.15729 0.0972,-0.20445 0.0972,-0.0629 0.0876,-0.0629 0.23343,-0.0629 0.12645,0 0.0876,0 0.13617,-0.0314 0.0584,-0.0315 0.0486,-0.0314 0.0778,-0.0629 0.0194,-0.0158 0.0194,-0.0314 0.0292,-0.0943 0.01,-0.0629 0.01,-0.0629 0.01,-0.15727 0,-0.0785 -0.01,-0.47184 -0.44742,-0.73923 -0.43769,-0.26735 -0.42797,-0.26739 -1.45899,-0.26738 -1.01157,0 0.26262,0.11004 0.43769,0.37746 0.17507,0.25166 0.17508,0.25165 0.18482,0.64484 0.01,0.39322 0,0 z m -2.30521,1.52562 0.4766,-0.0158 0.71977,-0.25165 0.24317,-0.23592 0.24315,-0.23593 0.23346,-0.58194 0,-0.33028 -0.01,-0.39321 -0.31124,-0.6763 -0.31124,-0.26738 -0.31126,-0.2831 -0.56414,-0.25164 -0.26262,0.0158 -0.51551,0.0158 -0.82676,0.25164 -0.31125,0.22021 -0.31126,0.23591 -0.2918,0.69204 0,0.47184 0.01,0.44039 0.30153,0.64484 0.30153,0.18875 0.2918,0.20446 0.74894,0.17301 0.45715,-0.0314 0,0 z"
     id="path4525"
     inkscape:connector-curvature="0"
     style="fill:#000000;fill-rule:evenodd" />
  <path
     d="m 409.79443,286.00285 -0.01,-0.50331 0.30153,-0.83359 0.30152,-0.33028 0.31126,-0.33029 0.82676,-0.34603 0.51549,-0.0314 0.5836,-0.0158 0.93376,0.28312 0.35017,0.29883 0.35013,0.31454 0.3696,0.99089 0.01,0.69203 0.01,0.47184 -0.21398,0.84931 -0.22371,0.37748 -0.21397,0.37748 -0.54471,0.37746 -0.32095,0.0158 -0.13618,0.0158 -0.22371,-0.0786 -0.0972,-0.0943 -0.10702,-0.0786 -0.0972,-0.25166 0,-0.15728 -0.01,-0.15726 0.0876,-0.20448 0.0876,-0.0629 0.0778,-0.0629 0.15563,-0.0471 0.0681,-0.0158 0.12646,0 0.20424,0.0629 0.0778,0.0786 0.0778,0.0786 0.16537,0.0629 0.0876,0 0.16535,0 0.26262,-0.26736 0.0778,-0.25166 0.0778,-0.25165 0.0778,-0.55049 0,-0.2831 -0.01,-0.40892 -0.29179,-0.62912 -0.28209,-0.22019 -0.29179,-0.2045 -0.79757,-0.18872 -0.52523,0.0314 -0.42799,0.0158 -0.70031,0.23591 -0.26261,0.20447 -0.27235,0.20447 -0.25288,0.6134 0.01,0.39319 0,0.28311 0.0972,0.48758 0.0876,0.20446 0.0876,0.20447 0.37936,0.37746 0.28207,0.17302 -0.0292,0.47184 -3.93926,-0.0786 -0.0778,-4.29376 0.65169,0.12583 0.0681,3.77473 2.8499,0.0786 -0.30154,-0.25166 -0.37932,-0.48757 -0.0682,-0.25163 -0.0682,-0.25166 -0.0778,-0.50329 0,-0.25166 0,0 z"
     id="path4527"
     inkscape:connector-curvature="0"
     style="fill:#000000;fill-rule:evenodd" />
  <path
     d="m 411.67167,279.93181 0.01,0.51903 -0.2529,0.84931 -0.27233,0.33028 -0.26262,0.33029 -0.86567,0.36174 -0.60305,0.0158 -0.51551,0.0314 -0.87538,-0.29882 -0.35018,-0.33031 -0.35014,-0.31454 -0.36962,-0.95943 -0.01,-0.62912 -0.01,-0.64486 0.41825,-1.05377 0.41826,-0.37749 0.42796,-0.39319 1.24501,-0.42466 0.81704,-0.0471 0.91431,-0.0314 1.50762,0.36176 0.60303,0.3932 0.60306,0.40893 0.61278,1.16385 0.01,0.75497 0.01,0.34602 -0.11674,0.59766 -0.12643,0.25165 -0.12646,0.25165 -0.34043,0.26738 -0.21396,0.0158 -0.0876,0 -0.17511,-0.0629 -0.0876,-0.0629 -0.0876,-0.0471 -0.0876,-0.22019 -0.01,-0.15729 0,-0.15727 0.0972,-0.2202 0.0972,-0.0629 0.0876,-0.0471 0.23345,-0.0629 0.12643,-0.0158 0.0876,0 0.13619,-0.0314 0.0584,-0.0315 0.0486,-0.0314 0.0778,-0.0471 0.0194,-0.0314 0.0194,-0.0314 0.0292,-0.0944 0.01,-0.0629 0.01,-0.0629 0.01,-0.14156 0,-0.0786 -0.01,-0.47184 -0.44742,-0.73921 -0.4377,-0.26737 -0.4377,-0.26738 -1.44926,-0.26737 -1.01156,-0.0158 0.26262,0.12584 0.4377,0.37746 0.17506,0.25165 0.17509,0.25165 0.1848,0.64485 0.01,0.3932 0,0 z m -2.3052,1.52562 0.4766,-0.0314 0.71977,-0.25165 0.24316,-0.23592 0.24317,-0.23592 0.23343,-0.5662 0,-0.34603 -0.01,-0.39319 -0.31124,-0.66059 -0.31124,-0.2831 -0.31125,-0.26738 -0.56414,-0.26738 -0.26263,0.0158 -0.51549,0.0315 -0.82677,0.2359 -0.31125,0.23594 -0.31124,0.22019 -0.30152,0.69203 0.01,0.47186 0.01,0.4561 0.30152,0.62913 0.30152,0.20447 0.29182,0.18873 0.74893,0.17302 0.45715,-0.0158 0,0 z"
     id="path4529"
     inkscape:connector-curvature="0"
     style="fill:#000000;fill-rule:evenodd" />
  <path
     d="m 503.11123,317.28597 0.039,2.24912 -0.25291,0.0158 -0.01,-0.15728 0,-0.15726 -0.0876,-0.18874 -0.0876,-0.0158 -0.0876,-0.0314 -0.23342,0.0944 -0.15564,0.11003 -3.12222,1.93455 1.01156,0.78642 2.46082,-0.11015 0.0876,0 0.12645,-0.0786 0.0486,-0.0629 0.0389,-0.0786 0.0389,-0.17303 0,-0.0943 -0.01,-0.31455 0.26263,-0.0158 0.039,2.40639 -0.2529,0.0158 -0.01,-0.31455 0,-0.12584 -0.0486,-0.18873 -0.0389,-0.0471 -0.0486,-0.0471 -0.12646,-0.0471 -0.0876,0 -6.17638,0.29883 -0.0876,0 -0.12644,0.0629 -0.0486,0.0472 -0.0389,0.0629 -0.0389,0.17301 0,0.14157 0.01,0.31455 -0.2626,0.0158 -0.0389,-2.42214 0.25291,0 0.01,0.31457 0,0.0944 0.0486,0.173 0.0389,0.0629 0.0486,0.0629 0.12646,0.0629 0.0876,0 3.15141,-0.15727 -2.93742,-2.32776 -0.14588,-0.12582 -0.23346,-0.0629 -0.0778,0.0629 -0.0681,0.0471 -0.0778,0.23591 0.01,0.18875 0,0.20446 -0.2529,0.0158 -0.0486,-2.24912 0.26262,-0.0158 0,0.11014 0,0.12583 0.0778,0.26738 0.0584,0.12582 0.068,0.12583 0.20426,0.25163 0.12646,0.12585 1.9356,1.58853 3.92953,-2.45358 0.12643,-0.0786 0.18482,-0.17301 0.0486,-0.0944 0.0584,-0.0943 0.0486,-0.15728 0,-0.0471 -0.01,-0.26736 0.2626,0 z"
     id="path4531"
     inkscape:connector-curvature="0"
     style="fill:#000000;fill-rule:evenodd" />
  <path
     d="m 502.19694,312.23727 0.15564,0 0.21398,-0.12584 0.0584,-0.11015 0.0682,-0.0944 0.0584,-0.29881 -0.01,-0.18875 0,-0.47182 0.25289,0 0.068,3.44443 -0.26262,0.0158 -0.01,-0.5662 0,-0.22019 -0.0778,-0.29886 -0.0682,-0.0785 -0.0584,-0.0944 -0.22371,-0.0786 -0.1459,0 -1.42981,0.0786 0.0681,3.50737 -0.21398,0 -5.087,-3.58601 -0.01,-0.51901 4.97028,-0.23593 -0.0292,-1.41553 0.26262,-0.0158 0.0292,1.41552 1.42009,-0.0629 z m -5.55386,1.16387 3.93927,2.7996 -0.0486,-3.05126 -3.89062,0.18874 0,0.0629 z"
     id="path4533"
     inkscape:connector-curvature="0"
     style="fill:#000000;fill-rule:evenodd" />
  <path
     d="m 502.08024,305.53709 0.1459,-0.0158 0.21396,-0.11012 0.0682,-0.11016 0.0584,-0.11015 0.0584,-0.2831 0,-0.18874 -0.01,-0.47185 0.26262,-0.0158 0.0584,3.46016 -0.26262,0.0158 -0.01,-0.58193 0,-0.20449 -0.0682,-0.29881 -0.0682,-0.0943 -0.0681,-0.0786 -0.21399,-0.0786 -0.15561,0 -1.42009,0.0629 0.0584,3.50737 -0.21398,0.0158 -5.07726,-3.58602 -0.01,-0.51902 4.96055,-0.2359 -0.0194,-1.41555 0.25289,-0.0158 0.0292,1.41554 1.42983,-0.0629 z m -5.5636,1.14817 3.94897,2.79959 -0.0584,-3.03552 -3.89062,0.18874 0,0.0471 z"
     id="path4535"
     inkscape:connector-curvature="0"
     style="fill:#000000;fill-rule:evenodd" />
  <path
     d="m 498.74401,300.61422 -2.46082,0.11015 -0.01,-0.47183 2.46081,-0.11016 -0.0486,-2.62659 0.38907,-0.0158 0.0486,2.61085 2.46083,-0.11013 0.01,0.47184 -2.46085,0.11014 0.0486,2.62659 -0.38906,0.0158 -0.0486,-2.61086 z"
     id="path4537"
     inkscape:connector-curvature="0"
     style="fill:#000000;fill-rule:evenodd" />
  <path
     d="m 499.92093,294.14998 0.01,0.53475 -0.25287,0.84933 -0.26261,0.33027 -0.26264,0.31457 -0.87539,0.36175 -0.60305,0.0314 -0.51551,0.0158 -0.86566,-0.2988 -0.35988,-0.31458 -0.35016,-0.33029 -0.35989,-0.94369 -0.01,-0.62911 -0.0194,-0.66059 0.41825,-1.03804 0.42798,-0.39322 0.41823,-0.39319 1.25473,-0.42466 0.81702,-0.0315 0.90459,-0.0471 1.50762,0.36174 0.60304,0.40894 0.60304,0.3932 0.6128,1.16388 0.0194,0.77067 0,0.3303 -0.11671,0.59766 -0.12648,0.25164 -0.12643,0.26739 -0.34042,0.25164 -0.21399,0.0158 -0.0876,0 -0.17507,-0.0471 -0.0876,-0.0629 -0.0876,-0.0629 -0.0876,-0.22021 0,-0.15728 -0.01,-0.15726 0.0972,-0.2202 0.0972,-0.0471 0.0972,-0.0629 0.22373,-0.0629 0.12644,0 0.0876,0 0.14591,-0.0471 0.0486,-0.0158 0.0584,-0.0314 0.0681,-0.0629 0.0194,-0.0315 0.0292,-0.0158 0.0292,-0.0944 0.01,-0.0629 0.01,-0.0785 0.01,-0.14156 -0.01,-0.0785 0,-0.47185 -0.44742,-0.73922 -0.43769,-0.26739 -0.43769,-0.26736 -1.44926,-0.26739 -1.0213,0 0.26261,0.11015 0.43772,0.37747 0.17506,0.25165 0.1848,0.25166 0.18482,0.64485 0,0.3932 0,0 z m -2.30521,1.52561 0.47661,-0.0158 0.71975,-0.26737 0.2432,-0.22019 0.24314,-0.23593 0.24316,-0.58193 -0.01,-0.34603 -0.01,-0.37747 -0.31123,-0.6763 -0.31125,-0.26738 -0.30153,-0.2831 -0.57387,-0.25165 -0.25287,0 -0.51552,0.0314 -0.83648,0.25164 -0.30154,0.22019 -0.31125,0.2202 -0.30152,0.70776 0.01,0.47185 0.01,0.44038 0.30151,0.64485 0.29179,0.18873 0.30155,0.20448 0.74893,0.173 0.44742,-0.0314 0,0 z"
     id="path4539"
     inkscape:connector-curvature="0"
     style="fill:#000000;fill-rule:evenodd" />
  <path
     d="m 495.42726,284.61878 0.74894,0.51901 1.44924,0.80214 0.71005,0.29882 0.70032,0.28311 1.22555,0.28311 0.52522,-0.0314 0.0876,0 0.24316,-0.0315 0.16536,-0.0158 0.15562,-0.0158 0.37935,-0.0314 0.21398,-0.0158 0.17508,-0.0158 0.24316,0.0629 0.0584,0.0629 0.068,0.0629 0.0682,0.2202 0.01,0.15727 0,0.12583 -0.0682,0.22018 -0.0778,0.0944 -0.0778,0.11014 -0.2626,0.0943 -0.19455,0.0158 -0.40853,0.0158 -1.02128,-0.173 -0.61278,-0.18874 -0.60303,-0.20445 -2.08149,-1.08526 -1.459,-0.8965 0.0486,2.61088 0,0.28311 0.16536,0.4561 0.15563,0.15728 0.1459,0.17301 0.46687,0.22018 0.30152,0.0629 -0.0388,0.31458 -1.81887,-0.26739 -0.0876,-4.71842 0.30153,-0.0158 z"
     id="path4541"
     inkscape:connector-curvature="0"
     style="fill:#000000;fill-rule:evenodd" />
  <path
     d="m 501.58417,278.72075 0.15564,-0.0158 0.21396,-0.11016 0.0584,-0.11014 0.0682,-0.11014 0.0584,-0.28311 0,-0.18873 -0.01,-0.47183 0.25289,-0.0158 0.0682,3.46017 -0.26262,0.0158 -0.01,-0.58194 0,-0.20447 -0.0682,-0.29883 -0.0682,-0.0943 -0.0681,-0.0785 -0.21398,-0.0943 -0.15564,0.0158 -1.42979,0.0629 0.0681,3.50737 -0.214,0.0158 -5.07728,-3.58601 -0.01,-0.51902 4.96055,-0.23591 -0.0194,-1.41554 0.25289,-0.0158 0.0292,1.41552 1.42008,-0.0629 z m -5.55386,1.14814 3.93926,2.79959 -0.0486,-3.03551 -3.89062,0.18874 0,0.0471 z"
     id="path4543"
     inkscape:connector-curvature="0"
     style="fill:#000000;fill-rule:evenodd" />
  <path
     d="m 528.80887,315.44579 0.039,2.2491 -0.26262,0.0158 0,-0.15729 0,-0.15727 -0.0972,-0.18874 -0.0876,-0.0158 -0.0778,-0.0315 -0.24316,0.0944 -0.14589,0.11003 -3.12225,1.93456 1.01157,0.78642 2.46082,-0.11016 0.0876,0 0.12647,-0.0786 0.039,-0.0629 0.0486,-0.0785 0.0389,-0.17302 0,-0.0943 -0.01,-0.31455 0.26262,-0.0158 0.0389,2.40639 -0.2626,0.0158 0,-0.31457 0,-0.12582 -0.0486,-0.18873 -0.0486,-0.0471 -0.039,-0.0471 -0.13619,-0.0471 -0.0876,0 -6.17638,0.29883 -0.0778,0 -0.13617,0.0629 -0.039,0.0471 -0.0389,0.0629 -0.039,0.173 0,0.14156 0,0.31457 -0.25288,0.0158 -0.0486,-2.42213 0.26262,0 0.01,0.31458 0,0.0944 0.0389,0.17301 0.0486,0.0629 0.0486,0.0629 0.12644,0.0629 0.0876,0 3.15141,-0.15726 -2.93742,-2.32778 -0.15561,-0.12582 -0.22372,-0.0629 -0.0778,0.0629 -0.0778,0.0471 -0.068,0.23594 0,0.18874 0.01,0.20445 -0.26261,0.0158 -0.039,-2.24911 0.26263,-0.0158 0,0.11016 0,0.12581 0.068,0.26738 0.0681,0.12582 0.068,0.12583 0.19451,0.25164 0.1362,0.12583 1.93558,1.58855 3.92952,-2.4536 0.12646,-0.0785 0.1848,-0.17301 0.0486,-0.0943 0.0486,-0.0944 0.0584,-0.15727 -0.01,-0.0471 0,-0.26735 0.26263,0 z"
     id="path4545"
     inkscape:connector-curvature="0"
     style="fill:#000000;fill-rule:evenodd" />
  <path
     d="m 527.89458,310.39708 0.14587,0 0.214,-0.12583 0.068,-0.11015 0.0584,-0.0944 0.0584,-0.29882 0,-0.18874 -0.01,-0.47185 0.26262,0 0.0584,3.44446 -0.25289,0.0158 -0.01,-0.56622 -0.01,-0.22019 -0.0681,-0.29883 -0.068,-0.0786 -0.0681,-0.0944 -0.21399,-0.0785 -0.1556,0 -1.4201,0.0785 0.0584,3.50736 -0.21399,0 -5.07727,-3.58601 -0.01,-0.51902 4.9703,-0.23591 -0.0292,-1.41555 0.2626,-0.0158 0.0194,1.41552 1.42983,-0.0629 z m -5.55388,1.16386 3.93925,2.79961 -0.0584,-3.05124 -3.8809,0.18872 0,0.0629 z"
     id="path4547"
     inkscape:connector-curvature="0"
     style="fill:#000000;fill-rule:evenodd" />
  <path
     d="m 527.76812,303.69691 0.15565,-0.0158 0.21395,-0.11012 0.0584,-0.11016 0.0682,-0.11015 0.0584,-0.28311 -0.01,-0.18872 0,-0.47185 0.25287,-0.0158 0.068,3.46017 -0.26263,0.0158 -0.01,-0.58193 0,-0.20449 -0.0778,-0.29881 -0.0584,-0.0943 -0.0681,-0.0786 -0.22369,-0.0786 -0.14591,0 -1.42981,0.0629 0.0681,3.50737 -0.21396,0.0158 -5.08699,-3.58601 -0.01,-0.51901 4.97027,-0.23592 -0.0292,-1.41552 0.26261,-0.0158 0.0292,1.41554 1.42008,-0.0629 z m -5.55386,1.14817 3.93926,2.79959 -0.0486,-3.03551 -3.89062,0.18873 0,0.0471 z"
     id="path4549"
     inkscape:connector-curvature="0"
     style="fill:#000000;fill-rule:evenodd" />
  <path
     d="m 524.44163,298.77403 -2.46081,0.11015 -0.01,-0.47183 2.46081,-0.11016 -0.0486,-2.6266 0.38906,-0.0158 0.0486,2.61087 2.46081,-0.11014 0.01,0.47184 -2.46082,0.11015 0.0486,2.62659 -0.38906,0.0158 -0.0486,-2.61085 z"
     id="path4551"
     inkscape:connector-curvature="0"
     style="fill:#000000;fill-rule:evenodd" />
  <path
     d="m 525.61855,292.3098 0.01,0.53474 -0.25288,0.84933 -0.26262,0.33028 -0.27235,0.31456 -0.86565,0.36175 -0.60307,0.0314 -0.5155,0.0158 -0.87538,-0.29883 -0.35018,-0.31456 -0.35014,-0.33029 -0.36963,-0.94368 -0.01,-0.62911 -0.01,-0.66059 0.41827,-1.03805 0.41825,-0.39322 0.42796,-0.3932 1.245,-0.42464 0.81703,-0.0314 0.91431,-0.0471 1.50763,0.36174 0.60303,0.40894 0.60306,0.39319 0.61277,1.16388 0.01,0.77067 0.01,0.33029 -0.11672,0.59767 -0.12645,0.25165 -0.12645,0.26737 -0.34042,0.25166 -0.21399,0.0158 -0.0876,0 -0.1751,-0.0471 -0.0876,-0.0629 -0.0876,-0.0629 -0.0876,-0.22021 -0.01,-0.15727 0,-0.15729 0.0972,-0.22018 0.0972,-0.0471 0.0876,-0.0629 0.23346,-0.0629 0.12643,0 0.0876,0 0.13618,-0.0471 0.0584,-0.0158 0.0486,-0.0314 0.0778,-0.0629 0.0194,-0.0314 0.0194,-0.0158 0.0292,-0.0944 0.01,-0.0629 0.01,-0.0786 0.01,-0.14153 0,-0.0786 -0.01,-0.47185 -0.44741,-0.73923 -0.4377,-0.26738 -0.43769,-0.26736 -1.44926,-0.26738 -1.01157,0 0.26261,0.11003 0.43771,0.37748 0.17506,0.25164 0.17507,0.25167 0.18482,0.64484 0.01,0.39321 0,0 z m -2.30521,1.52562 0.47661,-0.0158 0.71976,-0.26738 0.24318,-0.22017 0.24316,-0.23593 0.23344,-0.58195 0,-0.34601 -0.01,-0.37749 -0.31123,-0.67628 -0.31126,-0.2674 -0.31125,-0.28311 -0.56414,-0.25164 -0.26261,0 -0.51551,0.0314 -0.82677,0.25165 -0.31125,0.2202 -0.31126,0.2202 -0.29178,0.70775 0,0.47184 0.01,0.44038 0.30153,0.64486 0.3015,0.18873 0.29181,0.20447 0.74895,0.17301 0.45714,-0.0314 0,0 z"
     id="path4553"
     inkscape:connector-curvature="0"
     style="fill:#000000;fill-rule:evenodd" />
  <path
     d="m 521.12489,282.77859 0.7392,0.51903 1.44925,0.80212 0.71005,0.29883 0.71005,0.29884 1.22555,0.26737 0.5155,-0.0315 0.0876,0 0.25289,-0.0314 0.15563,-0.0158 0.16534,-0.0158 0.37937,-0.0315 0.21396,-0.0158 0.1751,-0.0158 0.2334,0.0629 0.068,0.0629 0.0681,0.0629 0.0681,0.2202 0,0.15727 0,0.12584 -0.0681,0.22016 -0.0681,0.11016 -0.0778,0.0944 -0.27232,0.0944 -0.19455,0.0158 -0.40852,0.0158 -1.02128,-0.17301 -0.60306,-0.18873 -0.61277,-0.20446 -2.07176,-1.08523 -1.45899,-0.8965 0.0389,2.61086 0.01,0.28311 0.15564,0.45611 0.15561,0.15727 0.15563,0.17301 0.45713,0.2202 0.30155,0.0629 -0.0292,0.31457 -1.82863,-0.26738 -0.0778,-4.71842 0.30153,-0.0158 z"
     id="path4555"
     inkscape:connector-curvature="0"
     style="fill:#000000;fill-rule:evenodd" />
  <path
     d="m 525.3754,278.90948 0.01,0.51903 -0.2529,0.84931 -0.27235,0.33028 -0.26262,0.3303 -0.86566,0.34601 -0.60304,0.0315 -0.52524,0.0314 -0.86566,-0.29883 -0.35017,-0.33028 -0.35014,-0.31457 -0.36961,-0.9594 -0.01,-0.62911 -0.01,-0.66059 0.40853,-1.03806 0.42795,-0.37748 0.42797,-0.39321 1.24501,-0.42466 0.81704,-0.0471 0.9143,-0.0314 1.5076,0.34601 0.60307,0.40893 0.59331,0.40893 0.6225,1.16388 0.01,0.75495 0.01,0.34602 -0.11671,0.59765 -0.12646,0.25168 -0.12642,0.25163 -0.34044,0.26737 -0.21399,0.0158 -0.0876,0 -0.17507,-0.0629 -0.0876,-0.0629 -0.0876,-0.0629 -0.0876,-0.2202 -0.01,-0.15729 0,-0.15726 0.0972,-0.20448 0.0876,-0.0629 0.0972,-0.0471 0.23343,-0.0629 0.12647,-0.0158 0.0876,0 0.13614,-0.0314 0.0584,-0.0314 0.0486,-0.0315 0.0778,-0.0472 0.0194,-0.0315 0.0194,-0.0314 0.0292,-0.0943 0.01,-0.0629 0.01,-0.0629 0.01,-0.14156 0,-0.0786 -0.01,-0.47184 -0.44743,-0.73923 -0.43771,-0.26736 -0.43767,-0.26738 -1.44929,-0.2831 -1.01157,0 0.25292,0.12583 0.44741,0.36174 0.17507,0.26737 0.17507,0.25164 0.18482,0.64487 0.01,0.3932 0,0 z m -2.30519,1.52562 0.47658,-0.0314 0.71004,-0.25166 0.25288,-0.23592 0.24318,-0.23592 0.23344,-0.56621 0,-0.34601 -0.01,-0.3932 -0.32097,-0.66058 -0.30152,-0.28311 -0.31125,-0.26737 -0.56413,-0.2674 -0.26264,0.0158 -0.5155,0.0314 -0.82676,0.23595 -0.31124,0.2359 -0.31126,0.22019 -0.30153,0.69204 0.01,0.47184 0.01,0.44039 0.30154,0.64485 0.30151,0.20445 0.2918,0.18874 0.74895,0.17302 0.45717,-0.0158 0,0 z"
     id="path4557"
     inkscape:connector-curvature="0"
     style="fill:#000000;fill-rule:evenodd" />
  <path
     d="m 611.03737,386.39512 0.039,2.24913 -0.26262,0.0158 0,-0.15729 0,-0.15728 -0.0972,-0.17298 -0.0876,-0.0315 -0.0778,-0.0158 -0.24317,0.0786 -0.14589,0.12583 -3.12223,1.91881 1.01156,0.80214 2.46084,-0.12583 0.0876,0 0.12644,-0.0786 0.039,-0.0629 0.0486,-0.0629 0.0389,-0.17301 0,-0.11014 -0.01,-0.31456 0.26262,-0.0158 0.039,2.42212 -0.26261,0 0,-0.31455 0,-0.12585 -0.0486,-0.17298 -0.0486,-0.0629 -0.039,-0.0471 -0.13615,-0.0471 -0.0876,0 -6.16666,0.29881 -0.0876,0 -0.13617,0.0629 -0.039,0.0629 -0.0388,0.0471 -0.039,0.18873 0,0.12581 0,0.31457 -0.25287,0.0158 -0.0486,-2.40642 0.2626,-0.0158 0.01,0.31458 0,0.11015 0.0389,0.15726 0.0486,0.0629 0.0486,0.0629 0.12645,0.0629 0.0876,0 3.15141,-0.15728 -2.93742,-2.31202 -0.15563,-0.12582 -0.22371,-0.0786 -0.0778,0.0629 -0.0778,0.0629 -0.068,0.23593 0,0.173 0.01,0.22018 -0.2626,0 -0.039,-2.24909 0.26261,0 0,0.0944 0,0.1258 0.0681,0.26737 0.068,0.12581 0.0682,0.12586 0.19453,0.25164 0.13616,0.12582 1.93559,1.58853 3.92953,-2.43785 0.12647,-0.0944 0.18479,-0.173 0.0486,-0.0943 0.0486,-0.0944 0.0584,-0.14158 0,-0.0629 -0.01,-0.25164 0.26262,-0.0158 z"
     id="path4559"
     inkscape:connector-curvature="0"
     style="fill:#000000;fill-rule:evenodd" />
  <path
     d="m 610.12309,381.3464 0.1459,0 0.21397,-0.11015 0.068,-0.11014 0.0584,-0.11014 0.0584,-0.29884 0,-0.17299 -0.01,-0.47185 0.26262,-0.0158 0.0584,3.46016 -0.2529,0.0158 -0.01,-0.58194 -0.01,-0.20448 -0.0681,-0.29883 -0.0681,-0.0944 -0.068,-0.0943 -0.21399,-0.0786 -0.15562,0.0158 -1.42009,0.0629 0.0584,3.50736 -0.21396,0.0158 -5.07728,-3.58601 -0.01,-0.51901 4.97027,-0.25164 -0.0292,-1.3998 0.26262,-0.0158 0.0194,1.41553 1.42981,-0.0786 z m -5.55389,1.16388 3.93927,2.7996 -0.0584,-3.03552 -3.88092,0.18872 0,0.0472 z"
     id="path4561"
     inkscape:connector-curvature="0"
     style="fill:#000000;fill-rule:evenodd" />
  <path
     d="m 609.99661,374.64626 0.15565,0 0.21399,-0.12584 0.0584,-0.11003 0.0682,-0.0944 0.0584,-0.29885 -0.01,-0.18873 0,-0.47184 0.25287,0 0.0681,3.46018 -0.26263,0 -0.01,-0.5662 0,-0.22021 -0.0778,-0.29883 -0.0584,-0.0786 -0.068,-0.0944 -0.22371,-0.0786 -0.1459,0 -1.4298,0.0786 0.068,3.50735 -0.21398,0.0158 -5.087,-3.586 -0.01,-0.53476 4.97028,-0.2359 -0.0292,-1.41555 0.26264,0 0.0292,1.39981 1.42005,-0.0629 z m -5.55385,1.16386 3.93925,2.7996 -0.0486,-3.03551 -3.89062,0.17299 0,0.0629 z"
     id="path4563"
     inkscape:connector-curvature="0"
     style="fill:#000000;fill-rule:evenodd" />
  <path
     d="m 606.67014,369.72335 -2.46082,0.11015 -0.01,-0.47184 2.46083,-0.11002 -0.0486,-2.62659 0.38907,-0.0158 0.0486,2.62659 2.46082,-0.12583 0.01,0.47183 -2.46083,0.12583 0.0486,2.61084 -0.38908,0.0158 -0.0486,-2.61086 z"
     id="path4565"
     inkscape:connector-curvature="0"
     style="fill:#000000;fill-rule:evenodd" />
  <path
     d="m 607.84705,363.27485 0.01,0.51904 -0.25288,0.8493 -0.26262,0.3303 -0.27234,0.33027 -0.86568,0.34604 -0.60304,0.0315 -0.51551,0.0314 -0.87539,-0.29885 -0.35017,-0.33028 -0.35014,-0.33028 -0.3599,-0.94369 -0.0194,-0.62914 -0.01,-0.66058 0.41825,-1.03803 0.41825,-0.39321 0.42796,-0.37748 1.24503,-0.42465 0.82676,-0.0471 0.90457,-0.0471 1.50761,0.36175 0.60305,0.40891 0.60305,0.40894 0.61276,1.16386 0.01,0.75497 0.01,0.34601 -0.11674,0.59767 -0.12641,0.25166 -0.12647,0.25164 -0.34044,0.26739 -0.21397,0 -0.0876,0.0158 -0.17507,-0.0629 -0.0876,-0.0629 -0.0876,-0.0629 -0.0876,-0.22018 -0.01,-0.15729 0,-0.15728 0.0972,-0.20448 0.0972,-0.0629 0.0876,-0.0471 0.23344,-0.0629 0.12642,-0.0158 0.0876,0 0.13617,-0.0315 0.0584,-0.0314 0.0486,-0.0314 0.0778,-0.0471 0.0194,-0.0314 0.0194,-0.0315 0.0292,-0.0944 0.01,-0.0629 0.01,-0.0629 0.01,-0.14155 0,-0.0786 -0.01,-0.47184 -0.44741,-0.7392 -0.4377,-0.26739 -0.42798,-0.26739 -1.45898,-0.2831 -1.01156,0 0.26262,0.12583 0.43769,0.36174 0.17508,0.25166 0.17509,0.26738 0.18478,0.64485 0.01,0.39319 0,0 z m -2.30519,1.52563 0.4766,-0.0315 0.71976,-0.25164 0.24315,-0.23594 0.24318,-0.23591 0.23345,-0.56622 0,-0.34601 -0.01,-0.3932 -0.31125,-0.66057 -0.31125,-0.28312 -0.31125,-0.26737 -0.56414,-0.26739 -0.26264,0.0158 -0.51549,0.0158 -0.82676,0.25164 -0.31126,0.23591 -0.31123,0.2202 -0.29181,0.69204 0,0.47184 0.01,0.4404 0.30154,0.64485 0.3015,0.20444 0.2918,0.18875 0.74895,0.17301 0.45715,-0.0158 0,0 z"
     id="path4567"
     inkscape:connector-curvature="0"
     style="fill:#000000;fill-rule:evenodd" />
  <path
     d="m 607.72062,356.55898 0.01,0.53473 -0.25289,0.84932 -0.26262,0.33029 -0.26263,0.31456 -0.86567,0.36174 -0.61276,0.0314 -0.5155,0.0158 -0.86568,-0.29882 -0.35987,-0.31456 -0.35017,-0.3303 -0.35988,-0.94369 -0.01,-0.62912 -0.01,-0.66057 0.40854,-1.03805 0.42796,-0.39322 0.42797,-0.37746 1.24501,-0.44039 0.81702,-0.0314 0.90458,-0.0471 1.5076,0.36176 0.60308,0.40893 0.60303,0.39321 0.61278,1.16387 0.0194,0.77067 0,0.3303 -0.11669,0.59767 -0.12647,0.25164 -0.12644,0.26737 -0.34043,0.26738 -0.21399,0 -0.0876,0 -0.17507,-0.0471 -0.0876,-0.0629 -0.0876,-0.0629 -0.0876,-0.2202 0,-0.15726 0,-0.15727 0.0876,-0.20448 0.0972,-0.0629 0.0972,-0.0629 0.2237,-0.0629 0.12645,0 0.0876,0 0.14588,-0.0314 0.0486,-0.0315 0.0584,-0.0314 0.068,-0.0629 0.0292,-0.0158 0.0194,-0.0314 0.0292,-0.0944 0.01,-0.0629 0.01,-0.0629 0.01,-0.15729 0,-0.0785 -0.01,-0.47186 -0.44744,-0.73922 -0.4377,-0.26737 -0.43768,-0.26736 -1.44927,-0.26741 -1.02129,0 0.26261,0.11016 0.4377,0.37748 0.17509,0.25164 0.18479,0.25165 0.18482,0.64484 0,0.39322 0,0 z m -2.3052,1.52559 0.47658,-0.0158 0.71977,-0.25164 0.24319,-0.23592 0.24314,-0.23593 0.24318,-0.58193 -0.01,-0.33031 -0.01,-0.39317 -0.31127,-0.67632 -0.31125,-0.26738 -0.30152,-0.28309 -0.56414,-0.25166 -0.26262,0.0158 -0.5155,0.0158 -0.82677,0.25167 -0.31125,0.22019 -0.31126,0.23591 -0.30151,0.69205 0.01,0.47184 0.01,0.44038 0.30152,0.64486 0.29179,0.18873 0.30154,0.20446 0.74893,0.17301 0.44744,-0.0314 0,0 z"
     id="path4569"
     inkscape:connector-curvature="0"
     style="fill:#000000;fill-rule:evenodd" />
  <path
     d="m 608.32365,346.83902 0.40851,-0.0158 0.7295,0.33029 0.32099,0.34601 0.32097,0.36175 0.33071,1.00659 0.0194,0.64486 0,0.47184 -0.19454,0.81785 -0.21399,0.36176 -0.20425,0.34601 -0.49604,0.36174 -0.2821,0.0158 -0.12642,0 -0.23346,-0.0944 -0.0972,-0.0943 -0.0972,-0.0944 -0.0972,-0.20445 0,-0.11016 -0.01,-0.15726 0.0972,-0.22022 0.0972,-0.0786 0.0972,-0.0629 0.15562,-0.0786 0.068,0 0.10701,-0.0158 0.18478,0.0472 0.0778,0.0471 0.0778,0.0471 0.13615,0.0471 0.0681,0 0.12644,0 0.21399,-0.20446 0.0778,-0.20447 0.0876,-0.20447 0.0778,-0.44038 0,-0.23591 -0.01,-0.47185 -0.24317,-0.69204 -0.23344,-0.2202 -0.22369,-0.22018 -0.71006,-0.20447 -0.47658,0.0158 -0.38909,0.0158 -0.62248,0.28309 -0.23345,0.26738 -0.23345,0.25165 -0.21396,0.94369 0.01,0.67631 -0.30152,0.0158 -0.01,-0.51903 -0.22373,-0.77068 -0.20425,-0.23591 -0.21398,-0.23589 -0.57387,-0.22022 -0.36961,0.0158 -0.30154,0.0158 -0.52522,0.2202 -0.22371,0.20445 -0.22371,0.20447 -0.21399,0.62911 0.01,0.42465 0,0.17301 0.0876,0.39321 0.0778,0.20447 0.0778,0.20445 0.25289,0.20449 0.17506,-0.0158 0.16536,0 0.214,-0.0629 0.0486,-0.0629 0.0389,-0.0471 0.10699,-0.0629 0.0681,0 0.10701,0 0.17506,0.0471 0.0681,0.0471 0.0584,0.0471 0.0681,0.17303 0.01,0.14154 0,0.0944 -0.0681,0.20446 -0.0584,0.0944 -0.068,0.0943 -0.23343,0.11014 -0.17509,0 -0.32097,0.0158 -0.53497,-0.31456 -0.21398,-0.33027 -0.20427,-0.33031 -0.22369,-0.77065 -0.01,-0.45614 -0.01,-0.51903 0.25288,-0.84931 0.27236,-0.33028 0.26261,-0.33029 0.56414,-0.33029 0.30153,-0.0158 0.32096,-0.0158 0.55443,0.17303 0.23344,0.17299 0.23343,0.18874 0.34043,0.59767 0.11672,0.42466 0.16535,-0.59768 0.43769,-0.80211 0.28208,-0.22021 0.27234,-0.22019 0.55442,-0.23591 0.28206,-0.0158 0,0 z"
     id="path4571"
     inkscape:connector-curvature="0"
     style="fill:#000000;fill-rule:evenodd" />
  <path
     d="m 686.64208,315.66599 0.0486,2.24909 -0.26263,0.0158 0,-0.15728 -0.01,-0.15726 -0.0876,-0.18875 -0.0876,-0.0158 -0.0876,-0.0158 -0.23347,0.0785 -0.14587,0.11015 -3.12225,1.93455 1.01157,0.80212 2.46083,-0.12582 0.0876,0 0.12644,-0.0785 0.0389,-0.0629 0.039,-0.0629 0.0486,-0.173 -0.01,-0.11015 0,-0.31457 0.2529,-0.0158 0.0486,2.40639 -0.26261,0.0158 0,-0.31454 -0.01,-0.12584 -0.0389,-0.18873 -0.0486,-0.0471 -0.0389,-0.0471 -0.13619,-0.0471 -0.0876,0 -6.1764,0.29882 -0.0876,0 -0.12644,0.0629 -0.039,0.0471 -0.0389,0.0629 -0.0486,0.18876 0.01,0.12581 0,0.31455 -0.25287,0.0158 -0.0486,-2.40639 0.26262,-0.0158 0,0.31457 0.01,0.0944 0.039,0.17301 0.0486,0.0629 0.0389,0.0629 0.13618,0.0629 0.0876,0 3.15143,-0.15727 -2.93743,-2.32776 -0.15563,-0.11002 -0.22369,-0.0786 -0.0778,0.0629 -0.0778,0.0471 -0.068,0.25167 0,0.17301 0.01,0.22017 -0.26262,0 -0.039,-2.24909 0.25288,-0.0158 0.01,0.11013 0,0.12584 0.0682,0.26737 0.068,0.12582 0.0681,0.12583 0.19451,0.25166 0.13618,0.12582 1.92586,1.58853 3.93926,-2.43785 0.12645,-0.0944 0.17507,-0.17299 0.0584,-0.0944 0.0486,-0.0943 0.0486,-0.14157 0,-0.0629 0,-0.25163 0.25289,-0.0158 z"
     id="path4573"
     inkscape:connector-curvature="0"
     style="fill:#000000;fill-rule:evenodd" />
  <path
     d="m 685.73752,310.61726 0.1459,0 0.21398,-0.12581 0.068,-0.0943 0.0584,-0.11014 0.0584,-0.29884 0,-0.173 -0.01,-0.47184 0.26262,-0.0158 0.0584,3.46017 -0.26264,0 -0.01,-0.56622 0,-0.22019 -0.0681,-0.28309 -0.068,-0.0943 -0.068,-0.0944 -0.214,-0.0786 -0.15562,0.0158 -1.42008,0.0629 0.0584,3.50737 -0.21398,0.0158 -5.0773,-3.586 -0.01,-0.53474 4.96055,-0.23593 -0.0194,-1.41553 0.2529,0 0.0292,1.41553 1.42981,-0.0786 z m -5.56362,1.1639 3.94899,2.7996 -0.0584,-3.03554 -3.89064,0.17302 0,0.0629 z"
     id="path4575"
     inkscape:connector-curvature="0"
     style="fill:#000000;fill-rule:evenodd" />
  <path
     d="m 681.70095,305.30119 -0.01,-0.48758 0.30153,-0.83359 0.31123,-0.33028 0.30154,-0.33031 0.82677,-0.34601 0.5155,-0.0314 0.58359,-0.0158 0.93375,0.28309 0.35016,0.29882 0.35991,0.31458 0.35986,0.99086 0.01,0.67631 0.01,0.47183 -0.21399,0.84933 -0.21397,0.37748 -0.22372,0.37747 -0.54467,0.39319 -0.32099,0.0158 -0.12644,0.0158 -0.23344,-0.0786 -0.0972,-0.0944 -0.0972,-0.0785 -0.107,-0.25165 0,-0.15728 0,-0.15727 0.0778,-0.22019 0.0876,-0.0472 0.0876,-0.0629 0.14592,-0.0629 0.0681,0 0.12645,0 0.21399,0.0629 0.068,0.0786 0.0778,0.0786 0.16534,0.0629 0.0876,0 0.17507,0 0.2529,-0.26736 0.0778,-0.25166 0.0876,-0.25166 0.0778,-0.55046 -0.01,-0.28311 -0.01,-0.42466 -0.29179,-0.62912 -0.28207,-0.20447 -0.28207,-0.20447 -0.80731,-0.18872 -0.5155,0.0314 -0.43771,0.0158 -0.69057,0.23591 -0.27237,0.20446 -0.26258,0.20447 -0.26263,0.61338 0.01,0.37749 0.01,0.29883 0.0876,0.48755 0.0972,0.20449 0.0876,0.20446 0.36961,0.37746 0.2918,0.17303 -0.039,0.47183 -3.93927,-0.0786 -0.0778,-4.29378 0.65169,0.12584 0.068,3.77474 2.85959,0.0785 -0.31125,-0.25164 -0.36962,-0.48757 -0.0778,-0.25165 -0.0681,-0.25165 -0.068,-0.50328 -0.01,-0.26738 0,0 z"
     id="path4577"
     inkscape:connector-curvature="0"
     style="fill:#000000;fill-rule:evenodd" />
  <path
     d="m 682.27484,298.99423 -2.46081,0.11013 -0.01,-0.47184 2.47054,-0.11013 -0.0486,-2.62659 0.38904,-0.0158 0.0486,2.6266 2.46083,-0.12585 0.01,0.47185 -2.47056,0.12582 0.0486,2.61087 -0.38906,0.0158 -0.0486,-2.61084 z"
     id="path4579"
     inkscape:connector-curvature="0"
     style="fill:#000000;fill-rule:evenodd" />
  <path
     d="m 686.30165,291.93232 0.01,0.58193 -0.47661,0.99087 -0.49605,0.40894 -0.48632,0.42465 -1.39091,0.45612 -0.9143,0.0471 -0.8365,0.0314 -1.37143,-0.31457 -0.52523,-0.346 -0.52524,-0.36176 -0.53497,-0.9594 -0.01,-0.59767 -0.01,-0.58194 0.4766,-0.97514 0.48634,-0.40894 0.49606,-0.39321 1.37145,-0.45611 0.88511,-0.0314 0.88513,-0.0471 1.4006,0.31457 0.51554,0.34602 0.5155,0.36174 0.52522,0.92796 0.01,0.58193 0,0 z m -7.21712,0.34602 0.01,0.36174 0.47661,0.59768 0.46688,0.22018 0.46687,0.23593 1.245,0.18873 0.77813,-0.0471 0.82676,-0.0315 1.26443,-0.31456 0.44745,-0.26737 0.45715,-0.26737 0.43769,-0.64485 -0.01,-0.36176 0,-0.39319 -0.46687,-0.59767 -0.45715,-0.20448 -0.45713,-0.18873 -1.2839,-0.17301 -0.81703,0.0472 -0.77814,0.0315 -1.23528,0.26737 -0.46687,0.23592 -0.45716,0.23592 -0.44741,0.64487 0,0.42464 0,0 z"
     id="path4581"
     inkscape:connector-curvature="0"
     style="fill:#000000;fill-rule:evenodd" />
  <path
     d="m 686.17523,285.23216 0.01,0.56621 -0.47663,0.99086 -0.48633,0.42467 -0.48634,0.40893 -1.4006,0.47183 -0.90459,0.0314 -0.84618,0.0471 -1.36175,-0.31455 -0.52522,-0.36174 -0.52526,-0.34603 -0.54466,-0.9594 -0.01,-0.59768 -0.01,-0.58192 0.47661,-0.97515 0.49604,-0.40893 0.48634,-0.40894 1.38118,-0.44038 0.88512,-0.0471 0.88511,-0.0314 1.40061,0.31455 0.5058,0.34603 0.51551,0.36175 0.52525,0.92797 0.01,0.58191 0,0 z m -7.20741,0.33031 0,0.37746 0.47661,0.59766 0.47657,0.22019 0.46688,0.2202 1.24503,0.18873 0.77812,-0.0314 0.81701,-0.0314 1.27421,-0.31457 0.4474,-0.26738 0.44745,-0.26739 0.4474,-0.64483 -0.01,-0.36176 -0.01,-0.3932 -0.46687,-0.59766 -0.45715,-0.20447 -0.45716,-0.20446 -1.27418,-0.15729 -0.82675,0.0471 -0.76838,0.0314 -1.24502,0.26738 -0.45716,0.23592 -0.45714,0.22019 -0.45715,0.66058 0.01,0.40894 0,0 z"
     id="path4583"
     inkscape:connector-curvature="0"
     style="fill:#000000;fill-rule:evenodd" />
  <path
     d="m 681.25355,278.43764 -0.01,-0.62913 0.33071,-0.92795 0.34041,-0.28309 0.34042,-0.29886 0.76841,-0.29882 0.4377,-0.0315 0.64197,-0.0314 0.97264,0.34601 0.321,0.36175 0.32097,0.36174 0.33069,0.86505 0.01,0.48757 0.01,0.70776 -0.42798,1.10097 -0.42795,0.3932 -0.4377,0.37748 -1.28391,0.42465 -0.8365,0.0471 -0.9921,0.0471 -1.53681,-0.37748 -0.53496,-0.40893 -0.53495,-0.42466 -0.55441,-1.17962 -0.01,-0.75494 -0.01,-0.37748 0.16535,-0.59765 0.16534,-0.2202 0.16536,-0.23592 0.30152,-0.23593 0.12645,-0.0158 0.13615,0 0.19455,0.0629 0.068,0.0629 0.0584,0.0629 0.068,0.22019 0.01,0.15727 0,0.12584 -0.0486,0.20448 -0.0584,0.0629 -0.0486,0.0629 -0.16535,0.0786 -0.10701,0 -0.0389,0 -0.0876,0 -0.0486,-0.0158 -0.0388,-0.0158 -0.0876,0 -0.039,0 -0.0876,0 -0.1459,0.0944 -0.0486,0.0785 -0.0486,0.0786 -0.0486,0.2831 0,0.2202 0.01,0.44039 0.35015,0.73922 0.34043,0.29883 0.34044,0.29883 1.45899,0.25165 1.12828,-0.0629 -0.2918,-0.14154 -0.42799,-0.40895 -0.14587,-0.26738 -0.14591,-0.26736 -0.1459,-0.58194 -0.01,-0.31455 0,0 z m 1.80913,1.95028 0.65169,-0.0315 1.00183,-0.31457 0.35017,-0.29883 0.35016,-0.2831 0.34042,-0.69204 -0.01,-0.39321 0,-0.39319 -0.2529,-0.58195 -0.24314,-0.20446 -0.23346,-0.18874 -0.89485,-0.17302 -0.65168,0.0314 -0.42796,0.0158 -0.6614,0.25166 -0.23344,0.23593 -0.23345,0.23592 -0.23343,0.55047 0.01,0.31457 0,0.2831 0.15562,0.53477 0.1459,0.2359 0.1459,0.25167 0.53495,0.42465 0.38906,0.18874 0,0 z"
     id="path4585"
     inkscape:connector-curvature="0"
     style="fill:#000000;fill-rule:evenodd" />
  <path
     d="m 785.97964,318.13529 0.039,2.24912 -0.26262,0.0158 0,-0.1573 0,-0.15728 -0.0972,-0.17301 -0.0876,-0.0315 -0.0876,-0.0158 -0.23344,0.0944 -0.1459,0.11015 -3.12222,1.93455 1.01156,0.7864 2.46083,-0.12582 0.0876,0 0.12648,-0.0629 0.0388,-0.0786 0.0486,-0.0629 0.039,-0.17302 -0.01,-0.11013 0,-0.31456 0.2529,0 0.0486,2.40639 -0.26262,0.0158 0,-0.31454 0,-0.14158 -0.0486,-0.173 -0.0486,-0.0471 -0.0389,-0.0629 -0.13616,-0.0471 -0.0876,0.0158 -6.17635,0.28312 -0.0876,0.0158 -0.12646,0.0471 -0.0388,0.0629 -0.039,0.0471 -0.0486,0.18873 0.01,0.12581 0,0.31456 -0.25289,0.0158 -0.0486,-2.40643 0.26263,-0.0158 0,0.31457 0.01,0.11015 0.0389,0.15726 0.0486,0.0629 0.0389,0.0786 0.13619,0.0471 0.0876,0 3.1514,-0.15729 -2.93743,-2.31202 -0.15562,-0.12583 -0.2237,-0.0629 -0.0778,0.0471 -0.0778,0.0629 -0.068,0.23594 0,0.18874 0.01,0.20445 -0.26262,0.0158 -0.0389,-2.26484 0.25289,0 0.01,0.0943 0,0.14155 0.068,0.25164 0.0682,0.12582 0.068,0.12582 0.19455,0.25165 0.13615,0.12585 1.92587,1.58852 3.93925,-2.43785 0.12646,-0.0785 0.17508,-0.18873 0.0584,-0.0944 0.0486,-0.0944 0.0486,-0.14156 0,-0.0471 0,-0.26738 0.26261,-0.0158 z"
     id="path4587"
     inkscape:connector-curvature="0"
     style="fill:#000000;fill-rule:evenodd" />
  <path
     d="m 785.06536,313.1023 0.14588,-0.0158 0.21398,-0.11015 0.068,-0.11014 0.0584,-0.11015 0.0584,-0.2831 0,-0.18874 -0.01,-0.47182 0.26261,-0.0158 0.0584,3.46016 -0.26261,0.0158 -0.01,-0.58194 0,-0.20445 -0.0681,-0.29886 -0.0681,-0.0944 -0.068,-0.0786 -0.21397,-0.0944 -0.15563,0.0158 -1.4201,0.0629 0.0584,3.50735 -0.21397,0.0158 -5.07727,-3.58599 -0.01,-0.51904 4.96055,-0.23591 -0.0194,-1.41553 0.25288,-0.0158 0.0292,1.41554 1.42983,-0.0629 z m -5.5539,1.14814 3.93927,2.79962 -0.0584,-3.03552 -3.89063,0.18872 0.01,0.0471 z"
     id="path4589"
     inkscape:connector-curvature="0"
     style="fill:#000000;fill-rule:evenodd" />
  <path
     d="m 781.02882,307.78622 -0.01,-0.50329 0.30153,-0.81788 0.31126,-0.33028 0.30152,-0.3303 0.82674,-0.36175 0.51551,-0.0158 0.58361,-0.0314 0.93377,0.28311 0.35986,0.31456 0.35017,0.29882 0.35987,0.99088 0.01,0.69203 0.01,0.47185 -0.20426,0.84931 -0.2237,0.37747 -0.22371,0.37749 -0.54469,0.39318 -0.32098,0.0158 -0.12644,0 -0.23346,-0.0786 -0.0972,-0.0943 -0.0972,-0.0785 -0.10701,-0.25167 0,-0.15727 0,-0.15728 0.0778,-0.20447 0.0876,-0.0629 0.0876,-0.0471 0.1459,-0.0629 0.0681,0 0.12646,-0.0158 0.21396,0.0786 0.0681,0.0629 0.0778,0.0786 0.16535,0.0786 0.0876,-0.0158 0.17508,0 0.25288,-0.26737 0.0778,-0.25165 0.0876,-0.25166 0.0778,-0.53476 -0.01,-0.29882 -0.01,-0.40892 -0.29181,-0.62913 -0.28206,-0.22019 -0.28205,-0.20447 -0.80732,-0.18874 -0.51552,0.0314 -0.42795,0.0158 -0.70033,0.23592 -0.27234,0.20446 -0.26261,0.22018 -0.26264,0.59767 0.01,0.39321 0.01,0.2831 0.0876,0.48758 0.0972,0.22018 0.0876,0.20449 0.36963,0.36173 0.29177,0.173 -0.0389,0.47185 -3.92953,-0.0629 -0.0876,-4.29377 0.65166,0.12583 0.0681,3.759 2.85963,0.0786 -0.31125,-0.25165 -0.36961,-0.48758 -0.0681,-0.25165 -0.0778,-0.23591 -0.0681,-0.51903 -0.01,-0.25165 0,0 z"
     id="path4591"
     inkscape:connector-curvature="0"
     style="fill:#000000;fill-rule:evenodd" />
  <path
     d="m 781.61241,301.46353 -2.47056,0.11004 0,-0.45612 2.46082,-0.12581 -0.0486,-2.61087 0.38907,-0.0314 0.0486,2.6266 2.46083,-0.12583 0.01,0.47185 -2.46081,0.12584 0.0389,2.61084 -0.38908,0.0314 -0.0389,-2.62657 z"
     id="path4593"
     inkscape:connector-curvature="0"
     style="fill:#000000;fill-rule:evenodd" />
  <path
     d="m 785.62949,294.40163 0.01,0.58194 -0.47661,0.99086 -0.49605,0.40894 -0.48634,0.42466 -1.3909,0.45611 -0.9143,0.0471 -0.83646,0.0315 -1.37148,-0.31453 -0.52522,-0.34603 -0.52523,-0.36174 -0.53497,-0.95942 -0.01,-0.59766 -0.01,-0.58195 0.4766,-0.97514 0.48633,-0.39319 0.49606,-0.40893 1.37144,-0.4404 0.88512,-0.0471 0.88513,-0.0471 1.40062,0.31457 0.51552,0.36173 0.5155,0.34602 0.52525,0.94369 0.01,0.56621 0,0 z m -7.21712,0.34601 0.01,0.36174 0.4766,0.59767 0.46688,0.23593 0.46687,0.22019 1.25474,0.18874 0.76838,-0.0315 0.82676,-0.0472 1.26448,-0.31454 0.45712,-0.2674 0.44744,-0.26737 0.43769,-0.62912 -0.01,-0.37749 0,-0.39318 -0.46688,-0.58196 -0.45715,-0.20445 -0.45713,-0.20446 -1.28392,-0.15728 -0.81704,0.0314 -0.77813,0.0471 -1.23528,0.26737 -0.45714,0.2202 -0.46688,0.23591 -0.44741,0.64485 0,0.42466 0,0 z"
     id="path4595"
     inkscape:connector-curvature="0"
     style="fill:#000000;fill-rule:evenodd" />
  <path
     d="m 784.56927,286.27022 0.15565,0 0.21398,-0.11016 0.0584,-0.11013 0.0681,-0.11003 0.0584,-0.29884 0,-0.173 -0.01,-0.47185 0.25288,-0.0158 0.0682,3.46018 -0.26262,0.0158 -0.01,-0.58193 0,-0.20447 -0.0681,-0.29883 -0.0681,-0.0944 -0.068,-0.0943 -0.21396,-0.0785 -0.15566,0.0158 -1.42982,0.0629 0.0682,3.50736 -0.21398,0.0158 -5.07727,-3.586 -0.01,-0.51903 4.96054,-0.23592 -0.0194,-1.41552 0.2529,-0.0158 0.0292,1.41552 1.42008,-0.0786 z m -5.55386,1.16388 3.94899,2.79958 -0.0584,-3.03552 -3.89063,0.18876 0,0.0471 z"
     id="path4597"
     inkscape:connector-curvature="0"
     style="fill:#000000;fill-rule:evenodd" />
  <path
     d="m 782.54617,281.59898 0.01,0.53476 -0.25289,0.84931 -0.27233,0.31457 -0.26264,0.33028 -0.86567,0.36174 -0.60303,0.0314 -0.52524,0.0158 -0.86567,-0.29881 -0.35017,-0.31457 -0.35014,-0.33029 -0.36962,-0.95941 -0.01,-0.61339 -0.01,-0.66059 0.4085,-1.03806 0.42798,-0.3932 0.42797,-0.3932 1.24502,-0.42465 0.81702,-0.0314 0.9143,-0.0472 1.50761,0.36174 0.59333,0.40895 0.60305,0.39318 0.6225,1.16389 0.01,0.77066 0.01,0.33029 -0.12646,0.59767 -0.11672,0.25165 -0.12643,0.26738 -0.34043,0.25165 -0.21399,0.0158 -0.0876,0 -0.17508,-0.0471 -0.0876,-0.0629 -0.0876,-0.0629 -0.0972,-0.22019 0,-0.15729 0,-0.1573 0.0876,-0.22016 0.0972,-0.0472 0.0972,-0.0629 0.22371,-0.0629 0.13617,0 0.0876,-0.0158 0.13617,-0.0314 0.0584,-0.0158 0.0486,-0.0314 0.0778,-0.0629 0.0194,-0.0314 0.0194,-0.0158 0.0292,-0.0944 0.01,-0.0629 0.01,-0.0786 0.01,-0.14153 0,-0.0786 -0.01,-0.47184 -0.44741,-0.73924 -0.43772,-0.26737 -0.43769,-0.26737 -1.44926,-0.26739 -1.0213,0 0.26262,0.11005 0.4377,0.37746 0.18481,0.25167 0.17507,0.25164 0.18483,0.64485 0.01,0.3932 0,0 z m -2.30522,1.52562 0.46688,-0.0158 0.71977,-0.26737 0.24316,-0.22019 0.25289,-0.23592 0.23344,-0.58195 -0.01,-0.34601 0,-0.39319 -0.32099,-0.66058 -0.30152,-0.26738 -0.31125,-0.28311 -0.56416,-0.25166 -0.26261,0 -0.51549,0.0315 -0.82677,0.25165 -0.31126,0.22019 -0.31124,0.22017 -0.30153,0.70778 0.01,0.47185 0.01,0.44039 0.30153,0.64484 0.30152,0.18874 0.29179,0.20447 0.74896,0.173 0.45715,-0.0314 0,0 z"
     id="path4599"
     inkscape:connector-curvature="0"
     style="fill:#000000;fill-rule:evenodd" />
  <path
     d="m 22.598752,259.23365 0,56.40087"
     id="path4601"
     inkscape:connector-curvature="0"
     style="fill:none;stroke:#000000;stroke-width:0.61842608" />
  <path
     d="m 257.06768,258.88763 0,56.4166"
     id="path4603"
     inkscape:connector-curvature="0"
     style="fill:none;stroke:#000000;stroke-width:0.61842608" />
  <path
     d="m 290.14781,326.86438 0,56.41658"
     id="path4605"
     inkscape:connector-curvature="0"
     style="fill:none;stroke:#000000;stroke-width:0.61842608" />
  <path
     d="m 339.92841,258.88763 0,56.40088"
     id="path4607"
     inkscape:connector-curvature="0"
     style="fill:none;stroke:#000000;stroke-width:0.61842608" />
  <path
     d="m 414.90091,261.23113 0,56.40085"
     id="path4609"
     inkscape:connector-curvature="0"
     style="fill:none;stroke:#000000;stroke-width:0.61842608" />
  <path
     d="m 502.73191,259.23365 0,56.40087"
     id="path4611"
     inkscape:connector-curvature="0"
     style="fill:none;stroke:#000000;stroke-width:0.61842608" />
  <path
     d="m 528.59488,259.23365 0,56.40087"
     id="path4613"
     inkscape:connector-curvature="0"
     style="fill:none;stroke:#000000;stroke-width:0.61842608" />
  <path
     d="m 610.82338,327.11602 0,56.40087"
     id="path4615"
     inkscape:connector-curvature="0"
     style="fill:none;stroke:#000000;stroke-width:0.61842608" />
  <path
     d="m 686.43781,259.23365 0,56.40087"
     id="path4617"
     inkscape:connector-curvature="0"
     style="fill:none;stroke:#000000;stroke-width:0.61842608" />
  <path
     d="m 785.91156,258.54162 0,56.40087"
     id="path4619"
     inkscape:connector-curvature="0"
     style="fill:none;stroke:#000000;stroke-width:0.61842608" />
  <path
     d="m 589.02612,316.65684 0.039,2.26485 -0.25291,0 -0.01,-0.15728 0,-0.15728 -0.0876,-0.17301 -0.0876,-0.0158 -0.0876,-0.0314 -0.23343,0.0943 -0.15562,0.11015 -3.11251,1.93456 1.00185,0.78641 2.46081,-0.11015 0.0876,-0.0158 0.12644,-0.0629 0.0486,-0.0629 0.0389,-0.0785 0.0389,-0.17302 0,-0.0944 -0.01,-0.31455 0.2626,-0.0158 0.0486,2.4064 -0.26261,0.0158 -0.01,-0.31456 0,-0.12582 -0.0486,-0.18875 -0.0389,-0.0472 -0.0486,-0.0471 -0.12645,-0.0471 -0.0876,0 -6.17637,0.29884 -0.0876,0 -0.12644,0.0629 -0.0486,0.0471 -0.0389,0.0629 -0.0389,0.173 0,0.14155 0.01,0.31455 -0.26261,0 -0.0389,-2.40637 0.25289,-0.0158 0.01,0.31456 0,0.11014 0.0486,0.17301 0.0389,0.0629 0.0486,0.0629 0.12645,0.0629 0.0876,-0.0158 3.1514,-0.14155 -2.9374,-2.32774 -0.1459,-0.12584 -0.23346,-0.0629 -0.0778,0.0471 -0.068,0.0629 -0.0778,0.23593 0.01,0.18872 0,0.20449 -0.25289,0.0158 -0.0486,-2.2491 0.26261,-0.0158 0,0.11014 0,0.12582 0.0778,0.25164 0.0584,0.14156 0.0681,0.12585 0.20425,0.25163 0.12646,0.12583 1.9356,1.58852 3.92953,-2.45357 0.12645,-0.0786 0.18479,-0.17301 0.0486,-0.0943 0.0584,-0.0944 0.0486,-0.15729 0,-0.0471 -0.01,-0.26737 0.26262,-0.0158 z"
     id="path5163"
     inkscape:connector-curvature="0"
     style="fill:#000000;fill-rule:evenodd" />
  <path
     d="m 588.11181,311.62387 0.15564,-0.0158 0.214,-0.11016 0.0584,-0.11013 0.0682,-0.11016 0.0584,-0.28311 -0.01,-0.18873 0,-0.47183 0.25286,-0.0158 0.068,3.46017 -0.26263,0.0158 -0.01,-0.58195 0,-0.20445 -0.0778,-0.29882 -0.0681,-0.0786 -0.0584,-0.0944 -0.2237,-0.0786 -0.1459,0 -1.42981,0.0629 0.0681,3.52309 -0.21399,0 -5.08702,-3.586 -0.01,-0.51902 4.97031,-0.23593 -0.0292,-1.41552 0.26262,-0.0158 0.0292,1.41553 1.42008,-0.0629 z m -5.55385,1.14815 3.93926,2.7996 -0.0486,-3.03553 -3.89063,0.18875 0,0.0471 z"
     id="path5165"
     inkscape:connector-curvature="0"
     style="fill:#000000;fill-rule:evenodd" />
  <path
     d="m 587.99511,304.92371 0.14591,-0.0158 0.21397,-0.11015 0.0682,-0.11003 0.0584,-0.11015 0.0584,-0.2831 0,-0.18874 -0.01,-0.47185 0.26262,-0.0158 0.0584,3.46019 -0.26262,0.0158 -0.01,-0.58195 0,-0.20447 -0.0681,-0.29884 -0.068,-0.0944 -0.0681,-0.0786 -0.21399,-0.0944 -0.15564,0.0158 -1.42006,0.0629 0.0584,3.50737 -0.214,0.0158 -5.07727,-3.58599 -0.01,-0.51903 4.96054,-0.23593 -0.0194,-1.41551 0.2529,-0.0158 0.0292,1.41553 1.42981,-0.0629 z m -5.5636,1.14815 3.94899,2.79958 -0.0584,-3.03551 -3.89063,0.18873 0,0.0471 z"
     id="path5167"
     inkscape:connector-curvature="0"
     style="fill:#000000;fill-rule:evenodd" />
  <path
     d="m 584.65889,299.9851 -2.46083,0.12581 -0.01,-0.47185 2.46083,-0.1258 -0.0486,-2.61088 0.38905,-0.0158 0.0486,2.61087 2.46082,-0.11016 0.01,0.47185 -2.46084,0.11014 0.0486,2.62658 -0.38905,0.0158 -0.0486,-2.62657 z"
     id="path5169"
     inkscape:connector-curvature="0"
     style="fill:#000000;fill-rule:evenodd" />
  <path
     d="m 585.8358,293.53657 0.01,0.51904 -0.25287,0.86504 -0.26264,0.31457 -0.26261,0.33027 -0.87539,0.36176 -0.60305,0.0314 -0.51552,0.0158 -0.86567,-0.29884 -0.35985,-0.31456 -0.35018,-0.33029 -0.35988,-0.9594 -0.01,-0.62913 -0.01,-0.64486 0.40853,-1.03804 0.42796,-0.39321 0.41823,-0.3932 1.25475,-0.42465 0.81703,-0.0315 0.90457,-0.0471 1.50763,0.36173 0.60305,0.40893 0.60304,0.39319 0.61278,1.16389 0.0194,0.77066 0,0.33031 -0.1167,0.59766 -0.12645,0.25165 -0.12646,0.25165 -0.34041,0.26737 -0.21399,0.0158 -0.0876,0 -0.17508,-0.0471 -0.0876,-0.0629 -0.0876,-0.0629 -0.0876,-0.22019 0,-0.15729 -0.01,-0.15727 0.0972,-0.2202 0.0972,-0.0471 0.0972,-0.0629 0.2237,-0.0629 0.12647,0 0.0876,-0.0158 0.14589,-0.0314 0.0486,-0.0314 0.0584,-0.0158 0.068,-0.0629 0.0292,-0.0314 0.0194,-0.0158 0.0292,-0.0944 0.01,-0.0785 0.01,-0.0629 0.01,-0.14154 0,-0.0786 -0.01,-0.47185 -0.44744,-0.73921 -0.43769,-0.26738 -0.43769,-0.26738 -1.44926,-0.26739 -1.02131,0 0.26263,0.11015 0.4377,0.37749 0.17508,0.25164 0.1848,0.25166 0.18479,0.64484 0,0.39319 0,0 z m -2.30518,1.52564 0.47657,-0.0158 0.71979,-0.26737 0.24315,-0.23591 0.24318,-0.2202 0.24317,-0.58194 -0.01,-0.34602 -0.01,-0.39321 -0.31125,-0.66058 -0.31123,-0.26738 -0.30154,-0.2831 -0.57387,-0.25164 -0.25289,0 -0.51553,0.0314 -0.83646,0.25165 -0.30151,0.2202 -0.31127,0.22018 -0.30152,0.70778 0.01,0.47182 0.01,0.44039 0.30152,0.64486 0.2918,0.18873 0.30152,0.18874 0.74891,0.173 0.44746,-0.0158 0,0 z"
     id="path5171"
     inkscape:connector-curvature="0"
     style="fill:#000000;fill-rule:evenodd" />
  <path
     d="m 585.7191,286.83643 0.01,0.51902 -0.2529,0.84933 -0.27232,0.33028 -0.26264,0.33028 -0.86567,0.36175 -0.60304,0.0158 -0.52521,0.0314 -0.86568,-0.29885 -0.35015,-0.3303 -0.35018,-0.31454 -0.36959,-0.95942 -0.01,-0.62911 -0.01,-0.64487 0.4085,-1.05377 0.42798,-0.37748 0.42797,-0.3932 1.245,-0.42466 0.81702,-0.0471 0.91431,-0.0315 1.50762,0.36175 0.60305,0.39318 0.59331,0.40895 0.62251,1.16388 0.01,0.75495 0.01,0.34601 -0.1167,0.59767 -0.12647,0.25165 -0.12644,0.25164 -0.34043,0.26738 -0.21398,0.0158 -0.0876,0 -0.17509,-0.0629 -0.0876,-0.0629 -0.0876,-0.0629 -0.0876,-0.20447 -0.01,-0.15728 0,-0.15727 0.0972,-0.22019 0.0876,-0.0629 0.0972,-0.0471 0.23346,-0.0629 0.12644,-0.0158 0.0876,0 0.13618,-0.0314 0.0584,-0.0315 0.0486,-0.0314 0.0778,-0.0471 0.0194,-0.0314 0.0194,-0.0314 0.0292,-0.0943 0.01,-0.0629 0.01,-0.0629 0.01,-0.14156 0,-0.0786 -0.01,-0.47184 -0.44742,-0.7392 -0.43768,-0.26739 -0.4377,-0.26737 -1.44928,-0.26737 -1.01156,-0.0158 0.25291,0.12582 0.4474,0.37748 0.17509,0.25165 0.17509,0.25165 0.18479,0.64486 0.01,0.39319 0,0 z m -2.30521,1.5256 0.47662,-0.0314 0.71002,-0.25166 0.25289,-0.23592 0.24316,-0.23592 0.23343,-0.56621 0,-0.34601 -0.01,-0.39322 -0.32097,-0.66057 -0.3015,-0.2831 -0.31126,-0.2674 -0.56414,-0.26735 -0.26262,0.0158 -0.51552,0.0314 -0.82676,0.23593 -0.31124,0.23591 -0.31125,0.22021 -0.30153,0.692 0.01,0.47185 0.01,0.45612 0.30152,0.62912 0.30152,0.20446 0.29178,0.18875 0.74897,0.173 0.45715,-0.0158 0,0 z"
     id="path5173"
     inkscape:connector-curvature="0"
     style="fill:#000000;fill-rule:evenodd" />
  <path
     d="m 580.82662,279.41277 6.56544,-0.31457 0.17509,0 0.25286,-0.14155 0.0876,-0.14152 0.0778,-0.14158 0.0876,-0.36173 -0.01,-0.23593 -0.01,-0.53475 0.26262,0 0.0682,3.82192 -0.26264,0.0158 -0.01,-0.47184 0,-0.26738 -0.0972,-0.37749 -0.0876,-0.11013 -0.0876,-0.11016 -0.26261,-0.11013 -0.16536,0 -5.2329,0.25164 -0.0876,0.0158 -0.13618,0.0629 -0.0486,0.0629 -0.0584,0.0785 -0.0486,0.18874 0,0.14153 0.0194,0.9437 -0.26261,0 0,-0.47185 -0.01,-0.29884 -0.0972,-0.51901 -0.0876,-0.18875 -0.0876,-0.18874 -0.27233,-0.29883 -0.17509,-0.0944 0,-0.20446 z"
     id="path5175"
     inkscape:connector-curvature="0"
     style="fill:#000000;fill-rule:evenodd" />
  <path
     d="m 588.82188,260.46045 0,56.40086"
     id="path5177"
     inkscape:connector-curvature="0"
     style="fill:none;stroke:#000000;stroke-width:0.61842608" />
  <path
     d="m 299.71242,317.34992 0,-145.35899"
     id="path5939-7-3-4-5"
     inkscape:connector-curvature="0"
     style="fill:none;stroke:#000000;stroke-width:1.15590155" />
  <path
     d="m 279.79062,317.75857 0,-146.23121"
     id="path5939-7-3-1-4-7"
     inkscape:connector-curvature="0"
     style="fill:none;stroke:#000000;stroke-width:1.14127421" />
  <path
     style="fill:none;stroke:#000000;stroke-width:0.79656285px;stroke-linecap:butt;stroke-linejoin:miter;stroke-opacity:1"
     d="m 279.41485,317.42133 c 20.33753,0.074 20.79246,0.0447 20.79246,0.0447"
     id="path8189-1-8-1"
     inkscape:connector-curvature="0" />
  <path
     d="m 620.74335,316.90552 0,-145.35899"
     id="path5939-7-3-4-5-4"
     inkscape:connector-curvature="0"
     style="fill:none;stroke:#000000;stroke-width:1.15590155" />
  <path
     d="m 600.82156,317.31418 0,-146.23122"
     id="path5939-7-3-1-4-7-4"
     inkscape:connector-curvature="0"
     style="fill:none;stroke:#000000;stroke-width:1.14127421" />
  <path
     style="fill:none;stroke:#000000;stroke-width:0.79656285px;stroke-linecap:butt;stroke-linejoin:miter;stroke-opacity:1"
     d="m 600.44579,316.97694 c 20.33753,0.074 20.79245,0.0447 20.79245,0.0447"
     id="path8189-1-8-1-8"
     inkscape:connector-curvature="0" />
</svg>
