<?xml version="1.0" encoding="UTF-8" standalone="no"?>
<svg
   xmlns:dc="http://purl.org/dc/elements/1.1/"
   xmlns:cc="http://creativecommons.org/ns#"
   xmlns:rdf="http://www.w3.org/1999/02/22-rdf-syntax-ns#"
   xmlns:svg="http://www.w3.org/2000/svg"
   xmlns="http://www.w3.org/2000/svg"
   xmlns:sodipodi="http://sodipodi.sourceforge.net/DTD/sodipodi-0.dtd"
   xmlns:inkscape="http://www.inkscape.org/namespaces/inkscape"
   width="800.000"
   height="600.000"
   viewBox="0.0 0.0 800.000 600.000"
   id="svg4199"
   version="1.1"
   inkscape:version="0.48.4 r9939"
   sodipodi:docname="10标边坡设备布置图-Model.svg">
  <metadata
     id="metadata5411">
    <rdf:RDF>
      <cc:Work
         rdf:about="">
        <dc:format>image/svg+xml</dc:format>
        <dc:type
           rdf:resource="http://purl.org/dc/dcmitype/StillImage" />
      </cc:Work>
    </rdf:RDF>
  </metadata>
  <defs
     id="defs5409" />
  <sodipodi:namedview
     pagecolor="#ffffff"
     bordercolor="#666666"
     borderopacity="1"
     objecttolerance="10"
     gridtolerance="10"
     guidetolerance="10"
     inkscape:pageopacity="0"
     inkscape:pageshadow="2"
     inkscape:window-width="1920"
     inkscape:window-height="1018"
     id="namedview5407"
     showgrid="false"
     inkscape:zoom="1.1125147"
     inkscape:cx="529.70086"
     inkscape:cy="387.53384"
     inkscape:window-x="1432"
     inkscape:window-y="-8"
     inkscape:window-maximized="1"
     inkscape:current-layer="svg4199" />
  <title
     id="title4201">Produce by DWG to SVG Converter MX</title>
  <desc
     id="desc4203">Produce by DWG to SVG Converter MX</desc>
  <path
     d="M1.47 385.49L13.41 371.26M13.41 371.26L25.36 357.05M25.36 357.05L31.33 349.97M31.33 349.97L37.31 342.9M37.31 342.9L43.28 335.85M43.28 335.85L49.25 328.83M49.25 328.83L55.23 321.83M55.23 321.83L61.2 314.87M61.2 314.87L67.17 307.94M67.17 307.94L73.14 301.05M73.14 301.05L79.11 294.19M79.11 294.19L85.09 287.39M85.09 287.39L91.06 280.63M91.06 280.63L97.03 273.92M97.03 273.92L103 267.27M103 267.27L108.97 260.68M108.97 260.68L111.96 257.4M111.96 257.4L114.94 254.14M114.94 254.14L117.93 250.9M117.93 250.9L120.91 247.68M120.91 247.68L123.9 244.47M123.9 244.47L126.88 241.28M126.88 241.28L129.87 238.11M129.87 238.11L132.85 234.95M132.85 234.95L135.84 231.82M135.84 231.82L138.82 228.7M138.82 228.7L141.81 225.6M141.81 225.6L144.79 222.53M144.79 222.53L147.78 219.47M147.78 219.47L150.76 216.44M150.76 216.44L153.74 213.43M153.74 213.43L156.73 210.44M156.73 210.44L159.71 207.47M159.71 207.47L162.7 204.52M162.7 204.52L165.68 201.6M165.68 201.6L168.66 198.7M168.66 198.7L171.65 195.82M171.65 195.82L174.63 192.97M174.63 192.97L177.61 190.15M177.61 190.15L180.6 187.35M180.6 187.35L183.58 184.57M183.58 184.57L186.56 181.82M186.56 181.82L189.55 179.1M189.55 179.1L192.53 176.41M192.53 176.41L195.51 173.74M195.51 173.74L198.49 171.1M198.49 171.1L201.48 168.49M201.48 168.49L204.46 165.91M204.46 165.91L207.44 163.35M207.44 163.35L210.42 160.83M210.42 160.83L213.4 158.34M213.4 158.34L216.38 155.87M216.38 155.87L219.37 153.44M219.37 153.44L222.35 151.04M222.35 151.04L225.33 148.67M225.33 148.67L228.31 146.33M228.31 146.33L231.29 144.03M231.29 144.03L234.27 141.76M234.27 141.76L237.25 139.52M237.25 139.52L240.23 137.31M240.23 137.31L243.21 135.14M243.21 135.14L246.19 133.01M246.19 133.01L249.17 130.91M249.17 130.91L252.15 128.84M252.15 128.84L255.13 126.82M255.13 126.82L258.11 124.82M258.11 124.82L261.09 122.87M261.09 122.87L264.07 120.95M264.07 120.95L267.05 119.07M267.05 119.07L270.03 117.23M270.03 117.23L273 115.43M273 115.43L275.98 113.66M275.98 113.66L278.96 111.94M278.96 111.94L281.94 110.25M281.94 110.25L284.92 108.61M284.92 108.61L287.89 107.01M287.89 107.01L290.87 105.44M290.87 105.44L293.85 103.92M293.85 103.92L296.83 102.44M296.83 102.44L299.8 101.01M299.8 101.01L302.78 99.61M302.78 99.61L305.76 98.26M305.76 98.26L308.73 96.96M308.73 96.96L311.71 95.7M311.71 95.7L314.68 94.48M314.68 94.48L317.66 93.31M317.66 93.31L320.63 92.18M320.63 92.18L323.61 91.1M323.61 91.1L326.59 90.06M326.59 90.06L329.56 89.07M329.56 89.07L332.53 88.13M332.53 88.13L335.51 87.24M335.51 87.24L338.48 86.39M338.48 86.39L341.46 85.6M341.46 85.6L344.43 84.85M344.43 84.85L347.4 84.15M347.4 84.15L350.38 83.5M350.38 83.5L353.35 82.9M353.35 82.9L356.32 82.36M356.32 82.36L359.29 81.86M359.29 81.86L362.27 81.41M362.27 81.41L365.24 81.02M365.24 81.02L368.21 80.68M368.21 80.68L371.18 80.39M371.18 80.39L374.15 80.16M374.15 80.16L377.12 79.97M377.12 79.97L380.09 79.85M380.09 79.85L383.06 79.77M383.06 79.77L386.04 79.76M386.04 79.76L389.01 79.79M389.01 79.79L391.97 79.88M391.97 79.88L394.94 80.03M394.94 80.03L397.91 80.23M397.91 80.23L400.88 80.49M400.88 80.49L403.85 80.8M403.85 80.8L406.82 81.16M406.82 81.16L409.79 81.58M409.79 81.58L412.76 82.05M412.76 82.05L415.72 82.57M415.72 82.57L418.69 83.14M418.69 83.14L421.66 83.76M421.66 83.76L424.62 84.44M424.62 84.44L427.59 85.16M427.59 85.16L430.56 85.93M430.56 85.93L433.52 86.76M433.52 86.76L436.49 87.63M436.49 87.63L439.46 88.55M439.46 88.55L442.42 89.51M442.42 89.51L445.39 90.53M445.39 90.53L448.35 91.59M448.35 91.59L451.32 92.7M451.32 92.7L454.28 93.86M454.28 93.86L457.25 95.06M457.25 95.06L460.21 96.3M460.21 96.3L463.17 97.59M463.17 97.59L466.14 98.93M466.14 98.93L469.1 100.31M469.1 100.31L472.07 101.73M472.07 101.73L475.03 103.2M475.03 103.2L477.99 104.71M477.99 104.71L480.95 106.26M480.95 106.26L483.92 107.85M483.92 107.85L486.88 109.48M486.88 109.48L489.84 111.16M489.84 111.16L492.8 112.88M492.8 112.88L495.77 114.63M495.77 114.63L498.73 116.43M498.73 116.43L501.69 118.26M501.69 118.26L504.65 120.13M504.65 120.13L507.61 122.05M507.61 122.05L510.57 123.99M510.57 123.99L513.53 125.98M513.53 125.98L516.49 128M516.49 128L519.46 130.06M519.46 130.06L522.42 132.16M522.42 132.16L525.38 134.29M525.38 134.29L528.34 136.46M528.34 136.46L531.3 138.66M531.3 138.66L534.26 140.9M534.26 140.9L537.21 143.17M537.21 143.17L540.17 145.47M540.17 145.47L543.13 147.81M543.13 147.81L546.09 150.18M546.09 150.18L549.05 152.58M549.05 152.58L552.01 155.01M552.01 155.01L554.97 157.47M554.97 157.47L557.93 159.97M557.93 159.97L560.89 162.49M560.89 162.49L563.84 165.05M563.84 165.05L566.8 167.63M566.8 167.63L569.76 170.25M569.76 170.25L572.72 172.89M572.72 172.89L575.67 175.56M575.67 175.56L578.63 178.26M578.63 178.26L581.59 180.98M581.59 180.98L584.55 183.74M584.55 183.74L587.5 186.51M587.5 186.51L590.46 189.32M590.46 189.32L593.42 192.15M593.42 192.15L596.37 195M596.37 195L599.33 197.88M599.33 197.88L602.29 200.79M602.29 200.79L605.24 203.72M605.24 203.72L608.2 206.67M608.2 206.67L611.16 209.64M611.16 209.64L614.11 212.64M614.11 212.64L617.07 215.66M617.07 215.66L620.03 218.7M620.03 218.7L622.98 221.76M622.98 221.76L625.94 224.84M625.94 224.84L628.89 227.94M628.89 227.94L631.85 231.06M631.85 231.06L634.8 234.2M634.8 234.2L637.76 237.36M637.76 237.36L640.71 240.54M640.71 240.54L643.67 243.74M643.67 243.74L646.62 246.95M646.62 246.95L649.58 250.18M649.58 250.18L652.53 253.43M652.53 253.43L655.49 256.7M655.49 256.7L658.44 259.98M658.44 259.98L661.4 263.27M661.4 263.27L667.31 269.91M667.31 269.91L673.22 276.6M673.22 276.6L679.13 283.34M679.13 283.34L685.03 290.14M685.03 290.14L690.94 296.98M690.94 296.98L696.85 303.86M696.85 303.86L702.76 310.78M702.76 310.78L708.67 317.74M708.67 317.74L714.57 324.72M714.57 324.72L720.48 331.74M720.48 331.74L726.39 338.78M726.39 338.78L732.3 345.84M732.3 345.84L738.2 352.92M738.2 352.92L750.02 367.12M750.02 367.12L761.83 381.34"
     fill="none"
     stroke="black"
     stroke-width="0.5"
     id="path4299" />
  <path
     d="M761.83 381.34L761.83 381.34"
     fill="none"
     stroke="black"
     stroke-width="0.5"
     id="path4301" />
  <path
     d="M509.81 123.49L260.14 123.49"
     fill="none"
     stroke="black"
     stroke-width="0.5"
     id="path4303" />
  <path
     d="M566.26 167.16L203.01 167.16"
     fill="none"
     stroke="black"
     stroke-width="0.5"
     id="path4305" />
  <path
     d="M612.33 210.82L156.34 210.82"
     id="path4307"
     stroke-width="0.5"
     stroke="black"
     fill="none" />
  <path
     d="M653.5 254.49L114.62 254.49"
     fill="none"
     stroke="black"
     stroke-width="0.5"
     id="path4309" />
  <path
     d="M691.96 298.16L75.65 298.16"
     fill="none"
     stroke="black"
     stroke-width="0.5"
     id="path4315" />
  <path
     d="M728.94 341.83L38.21 341.83"
     fill="none"
     stroke="black"
     stroke-width="0.5"
     id="path4317" />
  <path
     d="M761.83 381.34L765.37 385.49"
     fill="none"
     stroke="black"
     stroke-width="0.5"
     id="path4319" />
  <path
     d="M1.47 385.49L765.37 385.49"
     fill="none"
     stroke="black"
     stroke-width="0.5"
     id="path4321" />
  <path
     d="M765.37 385.49L765.37 452.76"
     fill="none"
     stroke="black"
     stroke-width="0.5"
     id="path4323" />
  <path
     d="M1.56 385.82L1.56 453.09"
     fill="none"
     stroke="black"
     stroke-width="0.5"
     id="path4325" />
  <path
     d="M776.25 444.92L780.33 442.95 780.47 442.87 780.66 442.73 780.71 442.67 780.76 442.6 780.82 442.46 780.82 442.38 780.82 442.17 781.23 442.17 781.23 444.3 780.82 444.3 780.82 444.14 780.82 444.01 780.76 443.83 780.71 443.78 780.66 443.73 780.47 443.75 780.33 443.83 776.94 445.44 778.39 446.48 780.26 446.48 780.4 446.48 780.61 446.41 780.68 446.35 780.75 446.28 780.82 446.12 780.82 446.01 780.82 445.75 781.23 445.75 781.23 447.93 780.82 447.93 780.82 447.67 780.82 447.54 780.75 447.36 780.68 447.31 780.61 447.26 780.4 447.2 780.26 447.2 770.37 447.2 770.23 447.2 770.02 447.26 769.95 447.31 769.89 447.36 769.82 447.54 769.82 447.67 769.82 447.98 769.4 447.98 769.4 447.52 769.4 447.36 769.33 447.09 769.26 446.97 769.19 446.85 768.99 446.66 768.85 446.58 768.85 446.48 777.63 446.48 774.52 444.3 774.38 444.25 774.16 444.21 774.07 444.22 773.98 444.23 773.9 444.35 773.9 444.45 773.9 444.77 773.48 444.77 773.48 442.59 773.9 442.59 773.9 442.85 773.9 442.92 773.95 443.12 774 443.24 774.05 443.35 774.24 443.57 774.38 443.68 776.25 444.92Z"
     fill-rule="evenodd"
     fill="black"
     id="path4327" />
  <path
     d="M773.62 438.18L773.62 437.68 774.12 436.88 774.62 436.57 775.13 436.26 776.46 435.95 777.29 435.95 778.22 435.95 779.71 436.27 780.26 436.59 780.82 436.92 781.37 437.92 781.37 438.59 781.37 439.06 781.01 439.89 780.64 440.25 780.28 440.62 779.4 440.98 778.88 440.98 778.67 440.98 778.31 440.89 778.15 440.8 778 440.71 777.84 440.46 777.84 440.3 777.84 440.15 777.98 439.94 778.12 439.89 778.26 439.84 778.5 439.79 778.6 439.79 778.81 439.79 779.14 439.86 779.26 439.94 779.38 440.02 779.64 440.1 779.78 440.1 780.05 440.1 780.47 439.85 780.61 439.6 780.75 439.36 780.88 438.83 780.88 438.54 780.88 438.13 780.43 437.49 779.98 437.27 779.54 437.05 778.26 436.83 777.43 436.83 776.73 436.83 775.61 437.02 775.18 437.22 774.74 437.41 774.31 438 774.31 438.38 774.31 438.67 774.45 439.16 774.59 439.37 774.73 439.58 775.32 439.97 775.77 440.15 775.7 440.62 769.4 440.36 769.4 436.1 770.44 436.26 770.44 439.99 775 440.2 774.52 439.94 773.93 439.44 773.83 439.19 773.72 438.94 773.62 438.44 773.62 438.18 773.62 438.18Z"
     fill-rule="evenodd"
     fill="black"
     id="path4329" />
  <path
     d="M773.62 431.54L773.62 431.04 774.12 430.24 774.62 429.93 775.13 429.62 776.46 429.31 777.29 429.31 778.22 429.31 779.71 429.63 780.26 429.95 780.82 430.28 781.37 431.28 781.37 431.95 781.37 432.42 781.01 433.25 780.64 433.61 780.28 433.97 779.4 434.34 778.88 434.34 778.67 434.34 778.31 434.25 778.15 434.16 778 434.07 777.84 433.82 777.84 433.66 777.84 433.51 777.98 433.3 778.12 433.25 778.26 433.2 778.5 433.14 778.6 433.14 778.81 433.14 779.14 433.22 779.26 433.3 779.38 433.38 779.64 433.46 779.78 433.46 780.05 433.46 780.47 433.21 780.61 432.96 780.75 432.72 780.88 432.18 780.88 431.9 780.88 431.48 780.43 430.85 779.98 430.63 779.54 430.41 778.26 430.19 777.43 430.19 776.73 430.19 775.61 430.38 775.18 430.58 774.74 430.77 774.31 431.35 774.31 431.74 774.31 432.03 774.45 432.52 774.59 432.73 774.73 432.94 775.32 433.33 775.77 433.51 775.7 433.97 769.4 433.72 769.4 429.46 770.44 429.62 770.44 433.35 775 433.56 774.52 433.3 773.93 432.79 773.83 432.55 773.72 432.3 773.62 431.8 773.62 431.54 773.62 431.54Z"
     fill-rule="evenodd"
     fill="black"
     id="path4331" />
  <path
     d="M774.73 425.31L770.78 425.31 770.78 424.84 774.73 424.84 774.73 422.25 775.35 422.25 775.35 424.84 779.29 424.84 779.29 425.31 775.35 425.31 775.35 427.9 774.73 427.9 774.73 425.31Z"
     fill-rule="evenodd"
     fill="black"
     id="path4333" />
  <path
     d="M778.26 415.97L778.91 415.97 780.02 416.33 780.47 416.7 780.92 417.06 781.37 418.02 781.37 418.62 781.37 419.16 780.92 420.1 780.47 420.49 780.02 420.87 778.98 421.26 778.39 421.26 777.81 421.26 776.8 421.04 776.39 420.82 775.97 420.6 775.25 419.97 774.93 419.55 774.69 419.91 774.09 420.47 773.72 420.67 773.36 420.86 772.55 421.06 772.1 421.06 771.51 421.06 770.51 420.72 770.09 420.38 769.68 420.04 769.26 419.11 769.26 418.51 769.26 417.97 769.68 417.09 770.09 416.75 770.51 416.41 771.51 416.08 772.1 416.08 772.51 416.08 773.29 416.27 773.66 416.46 774.02 416.66 774.66 417.27 774.93 417.68 775.28 417.24 776.04 416.59 776.46 416.39 776.87 416.18 777.77 415.97 778.26 415.97 778.26 415.97Z M778.39 420.54L778.95 420.54 779.85 420.26 780.19 419.99 780.54 419.72 780.88 419.03 780.88 418.62 780.88 418.12 780.54 417.41 780.19 417.19 779.85 416.97 778.98 416.75 778.46 416.75 778.01 416.75 777.15 417.06 776.73 417.37 776.32 417.68 775.56 418.62 775.21 419.24 775.49 419.55 776.18 420.03 776.6 420.2 777.01 420.37 777.91 420.54 778.39 420.54 778.39 420.54Z M772.17 416.8L771.68 416.8 770.84 417.01 770.47 417.22 770.11 417.42 769.75 418.07 769.75 418.51 769.75 419.01 770.09 419.71 770.44 419.91 770.78 420.12 771.51 420.33 771.89 420.33 772.27 420.33 773.02 420.03 773.38 419.73 773.74 419.43 774.38 418.59 774.66 418.05 774.45 417.74 773.93 417.27 773.62 417.11 773.31 416.96 772.58 416.8 772.17 416.8 772.17 416.8Z"
     fill-rule="evenodd"
     fill="black"
     id="path4335" />
  <path
     d="M773.69 411.56L773.69 410.94 774.24 410.04 774.8 409.77 775.35 409.5 776.6 409.23 777.29 409.23 778.32 409.23 779.86 409.6 780.37 409.98 780.87 410.36 781.37 411.22 781.37 411.72 781.37 412.42 780.66 413.48 779.95 413.84 779.24 414.21 777.18 414.57 775.83 414.57 774.24 414.57 771.8 414.13 770.96 413.69 770.11 413.25 769.26 412.05 769.26 411.3 769.26 410.94 769.54 410.36 769.82 410.13 770.09 409.91 770.58 409.69 770.78 409.69 770.99 409.69 771.3 409.76 771.41 409.82 771.51 409.89 771.61 410.11 771.61 410.26 771.61 410.39 771.53 410.59 771.44 410.65 771.36 410.72 771.1 410.78 770.92 410.78 770.85 410.78 770.72 410.77 770.65 410.76 770.58 410.74 770.44 410.73 770.37 410.73 770.23 410.73 770.01 410.81 769.92 410.89 769.83 410.96 769.75 411.25 769.75 411.46 769.75 411.9 770.28 412.65 770.82 412.96 771.36 413.27 773.69 413.58 775.49 413.58 775.04 413.43 774.36 413 774.14 412.73 773.91 412.46 773.69 411.87 773.69 411.56 773.69 411.56Z M776.53 413.58L777.56 413.58 779.17 413.31 779.74 413.04 780.31 412.77 780.88 412.11 780.88 411.72 780.88 411.33 780.5 410.73 780.12 410.52 779.74 410.32 778.32 410.11 777.29 410.11 776.6 410.11 775.52 410.33 775.14 410.55 774.76 410.77 774.38 411.3 774.38 411.61 774.38 411.9 774.61 412.43 774.83 412.68 775.06 412.92 775.9 413.38 776.53 413.58 776.53 413.58Z"
     fill-rule="evenodd"
     fill="black"
     id="path4337" />
  <path
     d="M778.26 402.69L778.91 402.69 780.02 403.05 780.47 403.42 780.92 403.78 781.37 404.74 781.37 405.34 781.37 405.88 780.92 406.81 780.47 407.2 780.02 407.59 778.98 407.98 778.39 407.98 777.81 407.98 776.8 407.76 776.39 407.54 775.97 407.32 775.25 406.68 774.93 406.27 774.69 406.63 774.09 407.19 773.72 407.38 773.36 407.58 772.55 407.77 772.1 407.77 771.51 407.77 770.51 407.44 770.09 407.1 769.68 406.76 769.26 405.83 769.26 405.23 769.26 404.69 769.68 403.81 770.09 403.47 770.51 403.13 771.51 402.79 772.1 402.79 772.51 402.79 773.29 402.99 773.66 403.18 774.02 403.38 774.66 403.99 774.93 404.4 775.28 403.96 776.04 403.31 776.46 403.1 776.87 402.9 777.77 402.69 778.26 402.69 778.26 402.69Z M778.39 407.26L778.95 407.26 779.85 406.98 780.19 406.71 780.54 406.44 780.88 405.75 780.88 405.34 780.88 404.84 780.54 404.13 780.19 403.91 779.85 403.69 778.98 403.47 778.46 403.47 778.01 403.47 777.15 403.78 776.73 404.09 776.32 404.4 775.56 405.34 775.21 405.96 775.49 406.27 776.18 406.75 776.6 406.92 777.01 407.09 777.91 407.26 778.39 407.26 778.39 407.26Z M772.17 403.52L771.68 403.52 770.84 403.73 770.47 403.93 770.11 404.14 769.75 404.79 769.75 405.23 769.75 405.72 770.09 406.43 770.44 406.63 770.78 406.84 771.51 407.05 771.89 407.05 772.27 407.05 773.02 406.75 773.38 406.45 773.74 406.15 774.38 405.31 774.66 404.76 774.45 404.45 773.93 403.99 773.62 403.83 773.31 403.68 772.58 403.52 772.17 403.52 772.17 403.52Z"
     fill-rule="evenodd"
     fill="black"
     id="path4339" />
  <path
     d="M14.27 445.68L18.35 443.7 18.49 443.63 18.68 443.48 18.73 443.42 18.78 443.35 18.84 443.21 18.84 443.13 18.84 442.93 19.25 442.93 19.25 445.05 18.84 445.05 18.84 444.9 18.84 444.77 18.78 444.59 18.73 444.53 18.68 444.48 18.49 444.51 18.35 444.59 14.96 446.19 16.41 447.23 18.28 447.23 18.42 447.23 18.63 447.17 18.7 447.1 18.77 447.04 18.84 446.87 18.84 446.77 18.84 446.51 19.25 446.51 19.25 448.68 18.84 448.68 18.84 448.43 18.84 448.3 18.77 448.11 18.7 448.06 18.63 448.01 18.42 447.96 18.28 447.96 8.39 447.96 8.25 447.96 8.04 448.01 7.97 448.06 7.91 448.11 7.84 448.3 7.84 448.43 7.84 448.74 7.42 448.74 7.42 448.27 7.42 448.11 7.35 447.84 7.28 447.73 7.21 447.61 7.01 447.41 6.87 447.34 6.87 447.23 15.65 447.23 12.54 445.05 12.4 445 12.18 444.96 12.09 444.98 12 444.99 11.92 445.11 11.92 445.21 11.92 445.52 11.5 445.52 11.5 443.34 11.92 443.34 11.92 443.6 11.92 443.68 11.97 443.87 12.02 443.99 12.07 444.11 12.26 444.33 12.4 444.43 14.27 445.68Z"
     fill-rule="evenodd"
     fill="black"
     id="path4341" />
  <path
     d="M11.64 438.93L11.64 438.44 12.14 437.63 12.64 437.32 13.15 437.01 14.48 436.7 15.31 436.7 16.24 436.7 17.73 437.02 18.28 437.35 18.84 437.67 19.39 438.67 19.39 439.35 19.39 439.81 19.03 440.64 18.66 441.01 18.3 441.37 17.42 441.73 16.9 441.73 16.69 441.73 16.33 441.64 16.17 441.55 16.02 441.46 15.86 441.21 15.86 441.06 15.86 440.9 16 440.69 16.14 440.64 16.28 440.59 16.52 440.54 16.62 440.54 16.83 440.54 17.16 440.62 17.28 440.69 17.4 440.77 17.66 440.85 17.8 440.85 18.07 440.85 18.49 440.6 18.63 440.36 18.77 440.11 18.9 439.58 18.9 439.29 18.9 438.88 18.45 438.24 18 438.02 17.56 437.8 16.28 437.58 15.45 437.58 14.75 437.58 13.63 437.78 13.2 437.97 12.76 438.17 12.33 438.75 12.33 439.14 12.33 439.42 12.47 439.92 12.61 440.12 12.75 440.33 13.34 440.72 13.79 440.9 13.72 441.37 7.42 441.11 7.42 436.86 8.46 437.01 8.46 440.75 13.02 440.95 12.54 440.69 11.95 440.19 11.85 439.94 11.74 439.7 11.64 439.19 11.64 438.93 11.64 438.93Z"
     fill-rule="evenodd"
     fill="black"
     id="path4343" />
  <path
     d="M11.64 432.29L11.64 431.8 12.14 430.99 12.64 430.68 13.15 430.37 14.48 430.06 15.31 430.06 16.24 430.06 17.73 430.38 18.28 430.71 18.84 431.03 19.39 432.03 19.39 432.71 19.39 433.17 19.03 434 18.66 434.37 18.3 434.73 17.42 435.09 16.9 435.09 16.69 435.09 16.33 435 16.17 434.91 16.02 434.82 15.86 434.57 15.86 434.42 15.86 434.26 16 434.05 16.14 434 16.28 433.95 16.52 433.9 16.62 433.9 16.83 433.9 17.16 433.98 17.28 434.05 17.4 434.13 17.66 434.21 17.8 434.21 18.07 434.21 18.49 433.96 18.63 433.72 18.77 433.47 18.9 432.94 18.9 432.65 18.9 432.24 18.45 431.6 18 431.38 17.56 431.16 16.28 430.94 15.45 430.94 14.75 430.94 13.63 431.14 13.2 431.33 12.76 431.52 12.33 432.11 12.33 432.5 12.33 432.78 12.47 433.28 12.61 433.48 12.75 433.69 13.34 434.08 13.79 434.26 13.72 434.73 7.42 434.47 7.42 430.21 8.46 430.37 8.46 434.11 13.02 434.31 12.54 434.05 11.95 433.55 11.85 433.3 11.74 433.06 11.64 432.55 11.64 432.29 11.64 432.29Z"
     fill-rule="evenodd"
     fill="black"
     id="path4345" />
  <path
     d="M12.75 426.06L8.8 426.06 8.8 425.6 12.75 425.6 12.75 423 13.37 423 13.37 425.6 17.31 425.6 17.31 426.06 13.37 426.06 13.37 428.66 12.75 428.66 12.75 426.06Z"
     fill-rule="evenodd"
     fill="black"
     id="path4347" />
  <path
     d="M7.91 416.73L9.08 417.27 11.38 418.14 12.51 418.46 13.63 418.79 15.58 419.11 16.41 419.11 16.55 419.11 16.95 419.1 17.21 419.09 17.47 419.07 18.07 419.06 18.42 419.06 18.7 419.06 19.08 419.12 19.18 419.19 19.28 419.25 19.39 419.48 19.39 419.63 19.39 419.76 19.27 419.98 19.15 420.07 19.03 420.16 18.59 420.25 18.28 420.25 17.62 420.25 16 420.03 15.03 419.81 14.06 419.59 10.78 418.41 8.46 417.45 8.46 420.05 8.46 420.33 8.7 420.79 8.94 420.95 9.19 421.12 9.91 421.37 10.4 421.45 10.33 421.76 7.42 421.39 7.42 416.73 7.91 416.73Z"
     fill-rule="evenodd"
     fill="black"
     id="path4349" />
  <path
     d="M16.07 410.14L16.73 410.14 17.88 410.5 18.39 410.86 18.89 411.23 19.39 412.24 19.39 412.89 19.39 413.35 19.04 414.16 18.7 414.49 18.35 414.83 17.56 415.17 17.11 415.17 16.9 415.17 16.53 415.07 16.38 414.96 16.22 414.86 16.07 414.65 16.07 414.55 16.07 414.39 16.22 414.17 16.38 414.11 16.53 414.04 16.79 413.98 16.9 413.98 17.07 413.98 17.37 414.03 17.49 414.08 17.61 414.13 17.83 414.18 17.94 414.18 18.14 414.18 18.49 413.99 18.63 413.79 18.77 413.6 18.9 413.17 18.9 412.94 18.9 412.47 18.54 411.77 18.18 411.54 17.81 411.3 16.69 411.07 15.93 411.07 15.31 411.07 14.3 411.32 13.92 411.56 13.54 411.81 13.16 412.73 13.16 413.4 12.68 413.4 12.68 412.89 12.35 412.12 12.02 411.87 11.69 411.63 10.78 411.38 10.19 411.38 9.7 411.38 8.86 411.58 8.49 411.77 8.13 411.97 7.77 412.57 7.77 412.99 7.77 413.17 7.89 413.56 8.01 413.77 8.13 413.98 8.53 414.18 8.8 414.18 9.08 414.18 9.43 414.13 9.5 414.08 9.57 414.03 9.74 413.98 9.84 413.98 10.02 413.98 10.29 414.03 10.4 414.08 10.5 414.13 10.6 414.31 10.6 414.44 10.6 414.55 10.5 414.74 10.4 414.83 10.29 414.92 9.91 415.01 9.63 415.01 9.12 415.01 8.27 414.68 7.94 414.34 7.61 414 7.28 413.22 7.28 412.78 7.28 412.26 7.71 411.43 8.15 411.12 8.58 410.81 9.5 410.5 9.98 410.5 10.5 410.5 11.38 410.69 11.74 410.89 12.11 411.08 12.64 411.69 12.82 412.11 13.09 411.54 13.82 410.76 14.27 410.55 14.72 410.34 15.62 410.14 16.07 410.14 16.07 410.14Z"
     fill-rule="evenodd"
     fill="black"
     id="path4351" />
  <path
     d="M17.94 404.53L18.18 404.53 18.52 404.43 18.63 404.33 18.73 404.22 18.84 403.94 18.84 403.75 18.84 403.29 19.25 403.29 19.25 406.71 18.84 406.71 18.84 406.14 18.84 405.93 18.73 405.64 18.63 405.54 18.52 405.45 18.18 405.36 17.94 405.36 15.65 405.36 15.65 408.84 15.31 408.84 7.28 405.05 7.28 404.53 15.24 404.53 15.24 403.13 15.65 403.13 15.65 404.53 17.94 404.53Z M9.01 405.41L15.24 408.37 15.24 405.36 9.01 405.36 9.01 405.41Z"
     fill-rule="evenodd"
     fill="black"
     id="path4353" />
  <path
     d="M383.51 385.82L383.51 426.77"
     fill="none"
     stroke="black"
     stroke-width="0.5"
     id="path4355" />
  <path
     d="M249.54 416.14L249.54 483.4"
     fill="none"
     stroke="black"
     stroke-width="0.5"
     id="path4357" />
  <path
     d="M262.26 475.99L266.34 474.02 266.48 473.94 266.67 473.8 266.72 473.73 266.77 473.67 266.82 473.53 266.82 473.45 266.82 473.24 267.24 473.24 267.24 475.37 266.82 475.37 266.82 475.21 266.82 475.08 266.77 474.9 266.72 474.85 266.67 474.8 266.48 474.82 266.34 474.9 262.95 476.51 264.4 477.55 266.27 477.55 266.41 477.55 266.62 477.48 266.69 477.42 266.75 477.35 266.82 477.18 266.82 477.08 266.82 476.82 267.24 476.82 267.24 479 266.82 479 266.82 478.74 266.82 478.61 266.75 478.43 266.69 478.38 266.62 478.32 266.41 478.27 266.27 478.27 256.38 478.27 256.24 478.27 256.03 478.32 255.96 478.38 255.89 478.43 255.82 478.61 255.82 478.74 255.82 479.05 255.41 479.05 255.41 478.58 255.41 478.43 255.34 478.16 255.27 478.04 255.2 477.92 254.99 477.73 254.86 477.65 254.86 477.55 263.64 477.55 260.53 475.37 260.39 475.32 260.17 475.28 260.08 475.29 259.99 475.3 259.91 475.42 259.91 475.52 259.91 475.83 259.49 475.83 259.49 473.66 259.91 473.66 259.91 473.91 259.91 473.99 259.96 474.19 260.01 474.3 260.06 474.42 260.25 474.64 260.39 474.75 262.26 475.99Z"
     fill-rule="evenodd"
     fill="black"
     id="path4359" />
  <path
     d="M259.63 469.25L259.63 468.75 260.13 467.95 260.63 467.64 261.13 467.33 262.47 467.01 263.3 467.01 264.23 467.01 265.72 467.34 266.27 467.66 266.82 467.99 267.38 468.99 267.38 469.66 267.38 470.13 267.01 470.96 266.65 471.32 266.29 471.68 265.41 472.05 264.89 472.05 264.68 472.05 264.32 471.96 264.16 471.87 264.01 471.77 263.85 471.53 263.85 471.37 263.85 471.22 263.99 471.01 264.13 470.96 264.26 470.91 264.51 470.85 264.61 470.85 264.82 470.85 265.15 470.93 265.27 471.01 265.39 471.09 265.65 471.17 265.79 471.17 266.06 471.17 266.48 470.92 266.62 470.67 266.75 470.43 266.89 469.89 266.89 469.61 266.89 469.19 266.44 468.56 265.99 468.34 265.54 468.12 264.26 467.9 263.43 467.9 262.74 467.9 261.62 468.09 261.19 468.29 260.75 468.48 260.32 469.06 260.32 469.45 260.32 469.74 260.46 470.23 260.6 470.44 260.74 470.65 261.32 471.04 261.77 471.22 261.71 471.68 255.41 471.42 255.41 467.17 256.45 467.33 256.45 471.06 261.01 471.27 260.53 471.01 259.94 470.5 259.84 470.26 259.73 470.01 259.63 469.5 259.63 469.25 259.63 469.25Z"
     fill-rule="evenodd"
     fill="black"
     id="path4361" />
  <path
     d="M259.63 462.6L259.63 462.11 260.13 461.31 260.63 461 261.13 460.68 262.47 460.37 263.3 460.37 264.23 460.37 265.72 460.7 266.27 461.02 266.82 461.35 267.38 462.35 267.38 463.02 267.38 463.49 267.01 464.32 266.65 464.68 266.29 465.04 265.41 465.41 264.89 465.41 264.68 465.41 264.32 465.32 264.16 465.22 264.01 465.13 263.85 464.89 263.85 464.73 263.85 464.58 263.99 464.37 264.13 464.32 264.26 464.26 264.51 464.21 264.61 464.21 264.82 464.21 265.15 464.29 265.27 464.37 265.39 464.45 265.65 464.52 265.79 464.52 266.06 464.52 266.48 464.28 266.62 464.03 266.75 463.78 266.89 463.25 266.89 462.97 266.89 462.55 266.44 461.92 265.99 461.7 265.54 461.48 264.26 461.26 263.43 461.26 262.74 461.26 261.62 461.45 261.19 461.64 260.75 461.84 260.32 462.42 260.32 462.81 260.32 463.1 260.46 463.59 260.6 463.8 260.74 464.01 261.32 464.39 261.77 464.58 261.71 465.04 255.41 464.78 255.41 460.53 256.45 460.68 256.45 464.42 261.01 464.63 260.53 464.37 259.94 463.86 259.84 463.62 259.73 463.37 259.63 462.86 259.63 462.6 259.63 462.6Z"
     fill-rule="evenodd"
     fill="black"
     id="path4363" />
  <path
     d="M260.74 456.38L256.79 456.38 256.79 455.91 260.74 455.91 260.74 453.32 261.36 453.32 261.36 455.91 265.3 455.91 265.3 456.38 261.36 456.38 261.36 458.97 260.74 458.97 260.74 456.38Z"
     fill-rule="evenodd"
     fill="black"
     id="path4365" />
  <path
     d="M255.89 447.04L257.07 447.58 259.37 448.45 260.49 448.78 261.62 449.1 263.57 449.43 264.4 449.43 264.54 449.43 264.94 449.41 265.2 449.4 265.46 449.39 266.06 449.37 266.41 449.37 266.69 449.37 267.07 449.44 267.17 449.5 267.27 449.57 267.38 449.79 267.38 449.95 267.38 450.07 267.26 450.3 267.14 450.39 267.01 450.48 266.58 450.57 266.27 450.57 265.61 450.57 263.99 450.35 263.02 450.13 262.05 449.91 258.76 448.73 256.45 447.77 256.45 450.36 256.45 450.65 256.69 451.1 256.93 451.27 257.17 451.44 257.9 451.68 258.38 451.76 258.32 452.07 255.41 451.71 255.41 447.04 255.89 447.04Z"
     fill-rule="evenodd"
     fill="black"
     id="path4367" />
  <path
     d="M255.89 440.4L257.07 440.94 259.37 441.81 260.49 442.14 261.62 442.46 263.57 442.79 264.4 442.79 264.54 442.79 264.94 442.77 265.2 442.76 265.46 442.75 266.06 442.73 266.41 442.73 266.69 442.73 267.07 442.8 267.17 442.86 267.27 442.93 267.38 443.15 267.38 443.3 267.38 443.43 267.26 443.65 267.14 443.75 267.01 443.84 266.58 443.93 266.27 443.93 265.61 443.93 263.99 443.71 263.02 443.49 262.05 443.27 258.76 442.09 256.45 441.13 256.45 443.72 256.45 444 256.69 444.46 256.93 444.63 257.17 444.8 257.9 445.04 258.38 445.12 258.32 445.43 255.41 445.07 255.41 440.4 255.89 440.4Z"
     fill-rule="evenodd"
     fill="black"
     id="path4369" />
  <path
     d="M259.7 435.99L259.7 435.37 260.25 434.47 260.81 434.2 261.36 433.93 262.6 433.65 263.3 433.65 264.33 433.65 265.87 434.03 266.37 434.41 266.88 434.78 267.38 435.65 267.38 436.14 267.38 436.84 266.67 437.91 265.96 438.27 265.25 438.63 263.19 439 261.84 439 260.25 439 257.81 438.56 256.97 438.12 256.12 437.67 255.27 436.48 255.27 435.73 255.27 435.37 255.55 434.78 255.82 434.56 256.1 434.34 256.59 434.12 256.79 434.12 257 434.12 257.31 434.19 257.42 434.25 257.52 434.32 257.62 434.54 257.62 434.69 257.62 434.82 257.54 435.02 257.45 435.08 257.36 435.15 257.1 435.21 256.93 435.21 256.86 435.21 256.72 435.2 256.66 435.18 256.59 435.17 256.45 435.16 256.38 435.16 256.24 435.16 256.02 435.24 255.93 435.31 255.84 435.39 255.76 435.68 255.76 435.89 255.76 436.33 256.29 437.08 256.83 437.39 257.36 437.7 259.7 438.01 261.5 438.01 261.05 437.86 260.37 437.43 260.15 437.16 259.92 436.88 259.7 436.3 259.7 435.99 259.7 435.99Z M262.54 438.01L263.57 438.01 265.18 437.74 265.75 437.47 266.32 437.2 266.89 436.53 266.89 436.14 266.89 435.76 266.51 435.16 266.13 434.95 265.75 434.74 264.33 434.54 263.3 434.54 262.6 434.54 261.53 434.76 261.15 434.98 260.77 435.2 260.39 435.73 260.39 436.04 260.39 436.33 260.62 436.86 260.84 437.1 261.07 437.35 261.91 437.8 262.54 438.01 262.54 438.01Z"
     fill-rule="evenodd"
     fill="black"
     id="path4371" />
  <path
     d="M518.64 418.32L518.64 485.58"
     fill="none"
     stroke="black"
     stroke-width="0.5"
     id="path4373" />
  <path
     d="M531.35 478.18L535.43 476.2 535.57 476.13 535.76 475.98 535.81 475.92 535.87 475.85 535.92 475.71 535.92 475.63 535.92 475.43 536.33 475.43 536.33 477.55 535.92 477.55 535.92 477.4 535.92 477.27 535.87 477.09 535.81 477.03 535.76 476.98 535.57 477.01 535.43 477.09 532.04 478.69 533.5 479.73 535.36 479.73 535.5 479.73 535.71 479.67 535.78 479.6 535.85 479.54 535.92 479.37 535.92 479.26 535.92 479.01 536.33 479.01 536.33 481.18 535.92 481.18 535.92 480.92 535.92 480.8 535.85 480.61 535.78 480.56 535.71 480.51 535.5 480.46 535.36 480.46 525.47 480.46 525.33 480.46 525.13 480.51 525.06 480.56 524.99 480.61 524.92 480.8 524.92 480.92 524.92 481.24 524.5 481.24 524.5 480.77 524.5 480.61 524.43 480.34 524.37 480.22 524.3 480.11 524.09 479.91 523.95 479.84 523.95 479.73 532.74 479.73 529.62 477.55 529.48 477.5 529.26 477.46 529.17 477.47 529.09 477.49 529 477.6 529 477.71 529 478.02 528.59 478.02 528.59 475.84 529 475.84 529 476.1 529 476.18 529.05 476.37 529.1 476.49 529.16 476.61 529.35 476.83 529.48 476.93 531.35 478.18Z"
     fill-rule="evenodd"
     fill="black"
     id="path4375" />
  <path
     d="M528.72 471.43L528.72 470.94 529.22 470.13 529.73 469.82 530.23 469.51 531.56 469.2 532.39 469.2 533.32 469.2 534.81 469.52 535.36 469.85 535.92 470.17 536.47 471.17 536.47 471.85 536.47 472.31 536.11 473.14 535.74 473.51 535.38 473.87 534.5 474.23 533.98 474.23 533.77 474.23 533.41 474.14 533.25 474.05 533.1 473.96 532.94 473.71 532.94 473.56 532.94 473.4 533.08 473.19 533.22 473.14 533.36 473.09 533.6 473.04 533.7 473.04 533.91 473.04 534.24 473.12 534.36 473.19 534.48 473.27 534.74 473.35 534.88 473.35 535.16 473.35 535.57 473.1 535.71 472.86 535.85 472.61 535.99 472.08 535.99 471.79 535.99 471.38 535.54 470.74 535.09 470.52 534.64 470.3 533.36 470.08 532.53 470.08 531.84 470.08 530.71 470.28 530.28 470.47 529.85 470.67 529.42 471.25 529.42 471.64 529.42 471.92 529.55 472.42 529.69 472.62 529.83 472.83 530.42 473.22 530.87 473.4 530.8 473.87 524.5 473.61 524.5 469.36 525.54 469.51 525.54 473.25 530.11 473.45 529.62 473.19 529.03 472.69 528.93 472.44 528.83 472.2 528.72 471.69 528.72 471.43 528.72 471.43Z"
     fill-rule="evenodd"
     fill="black"
     id="path4377" />
  <path
     d="M528.72 464.79L528.72 464.3 529.22 463.49 529.73 463.18 530.23 462.87 531.56 462.56 532.39 462.56 533.32 462.56 534.81 462.88 535.36 463.21 535.92 463.53 536.47 464.53 536.47 465.2 536.47 465.67 536.11 466.5 535.74 466.86 535.38 467.23 534.5 467.59 533.98 467.59 533.77 467.59 533.41 467.5 533.25 467.41 533.1 467.32 532.94 467.07 532.94 466.92 532.94 466.76 533.08 466.55 533.22 466.5 533.36 466.45 533.6 466.4 533.7 466.4 533.91 466.4 534.24 466.48 534.36 466.55 534.48 466.63 534.74 466.71 534.88 466.71 535.16 466.71 535.57 466.46 535.71 466.22 535.85 465.97 535.99 465.44 535.99 465.15 535.99 464.74 535.54 464.1 535.09 463.88 534.64 463.66 533.36 463.44 532.53 463.44 531.84 463.44 530.71 463.64 530.28 463.83 529.85 464.02 529.42 464.61 529.42 465 529.42 465.28 529.55 465.78 529.69 465.98 529.83 466.19 530.42 466.58 530.87 466.76 530.8 467.23 524.5 466.97 524.5 462.71 525.54 462.87 525.54 466.61 530.11 466.81 529.62 466.55 529.03 466.05 528.93 465.8 528.83 465.55 528.72 465.05 528.72 464.79 528.72 464.79Z"
     fill-rule="evenodd"
     fill="black"
     id="path4379" />
  <path
     d="M529.83 458.56L525.89 458.56 525.89 458.1 529.83 458.1 529.83 455.5 530.45 455.5 530.45 458.1 534.4 458.1 534.4 458.56 530.45 458.56 530.45 461.16 529.83 461.16 529.83 458.56Z"
     fill-rule="evenodd"
     fill="black"
     id="path4381" />
  <path
     d="M533.36 449.22L534.02 449.22 535.12 449.59 535.57 449.95 536.02 450.31 536.47 451.27 536.47 451.87 536.47 452.42 536.02 453.35 535.57 453.74 535.12 454.13 534.08 454.52 533.5 454.52 532.91 454.52 531.91 454.3 531.49 454.08 531.08 453.86 530.35 453.22 530.04 452.8 529.8 453.17 529.19 453.73 528.83 453.92 528.46 454.11 527.65 454.31 527.2 454.31 526.61 454.31 525.61 453.97 525.2 453.63 524.78 453.3 524.37 452.36 524.37 451.77 524.37 451.22 524.78 450.34 525.2 450 525.61 449.67 526.61 449.33 527.2 449.33 527.62 449.33 528.39 449.52 528.76 449.72 529.12 449.91 529.76 450.52 530.04 450.94 530.38 450.5 531.14 449.85 531.56 449.64 531.97 449.43 532.87 449.22 533.36 449.22 533.36 449.22Z M533.5 453.79L534.05 453.79 534.95 453.52 535.3 453.25 535.64 452.97 535.99 452.29 535.99 451.87 535.99 451.38 535.64 450.66 535.3 450.44 534.95 450.22 534.08 450 533.57 450 533.12 450 532.25 450.31 531.84 450.63 531.42 450.94 530.66 451.87 530.31 452.49 530.59 452.8 531.28 453.28 531.7 453.45 532.11 453.62 533.01 453.79 533.5 453.79 533.5 453.79Z M527.27 450.05L526.79 450.05 525.94 450.26 525.58 450.47 525.21 450.68 524.85 451.33 524.85 451.77 524.85 452.26 525.2 452.96 525.54 453.17 525.89 453.38 526.61 453.58 526.99 453.58 527.37 453.58 528.12 453.28 528.48 452.99 528.84 452.69 529.48 451.84 529.76 451.3 529.55 450.99 529.03 450.52 528.72 450.37 528.41 450.21 527.69 450.05 527.27 450.05 527.27 450.05Z"
     fill-rule="evenodd"
     fill="black"
     id="path4383" />
  <path
     d="M527.41 443.62L526.79 443.62 525.84 443.83 525.51 444.04 525.18 444.24 524.85 444.87 524.85 445.28 524.85 445.59 525.07 446.12 525.3 446.35 525.52 446.57 526.09 446.79 526.44 446.79 526.65 446.79 526.99 446.7 527.13 446.6 527.27 446.51 527.55 446.42 527.69 446.42 527.86 446.42 528.12 446.49 528.2 446.55 528.29 446.62 528.38 446.81 528.38 446.94 528.38 447.1 528.26 447.34 528.14 447.43 528.01 447.53 527.62 447.62 527.34 447.62 526.61 447.62 525.51 447.23 525.13 446.84 524.75 446.45 524.37 445.62 524.37 445.18 524.37 444.56 524.78 443.63 525.2 443.34 525.61 443.04 526.65 442.74 527.27 442.74 527.69 442.74 528.52 442.88 528.93 443.02 529.35 443.17 530.14 443.62 530.52 443.93 531.49 444.69 533.06 445.84 533.67 446.24 534.27 446.64 535.09 447.12 535.3 447.2 535.3 444.14 535.3 443.91 535.05 443.52 534.81 443.36 534.57 443.21 533.84 443 533.36 442.95 533.36 442.64 536.33 442.95 536.33 447.77 535.43 447.77 535.12 447.64 534.33 447.21 533.84 446.92 533.36 446.62 532.22 445.83 531.56 445.33 530.97 444.89 529.86 444.24 529.35 444.04 528.83 443.83 527.86 443.62 527.41 443.62 527.41 443.62Z"
     fill-rule="evenodd"
     fill="black"
     id="path4385" />
  <path
     d="M528.79 438.17L528.79 437.55 529.35 436.66 529.9 436.38 530.45 436.11 531.7 435.84 532.39 435.84 533.43 435.84 534.97 436.22 535.47 436.59 535.97 436.97 536.47 437.84 536.47 438.33 536.47 439.03 535.76 440.09 535.05 440.46 534.34 440.82 532.29 441.18 530.94 441.18 529.35 441.18 526.91 440.74 526.06 440.3 525.21 439.86 524.37 438.67 524.37 437.91 524.37 437.55 524.64 436.97 524.92 436.75 525.2 436.53 525.68 436.31 525.89 436.31 526.09 436.31 526.41 436.37 526.51 436.44 526.61 436.5 526.72 436.72 526.72 436.88 526.72 437.01 526.63 437.2 526.54 437.27 526.46 437.33 526.2 437.4 526.03 437.4 525.96 437.4 525.82 437.38 525.75 437.37 525.68 437.36 525.54 437.34 525.47 437.34 525.33 437.34 525.11 437.42 525.02 437.5 524.94 437.58 524.85 437.86 524.85 438.07 524.85 438.51 525.39 439.26 525.92 439.57 526.46 439.89 528.79 440.2 530.59 440.2 530.14 440.04 529.47 439.61 529.24 439.34 529.02 439.07 528.79 438.49 528.79 438.17 528.79 438.17Z M531.63 440.2L532.67 440.2 534.27 439.92 534.85 439.65 535.42 439.38 535.99 438.72 535.99 438.33 535.99 437.94 535.61 437.34 535.23 437.14 534.85 436.93 533.43 436.72 532.39 436.72 531.7 436.72 530.63 436.94 530.25 437.16 529.86 437.38 529.48 437.91 529.48 438.23 529.48 438.51 529.71 439.04 529.93 439.29 530.16 439.54 531.01 439.99 531.63 440.2 531.63 440.2Z"
     fill-rule="evenodd"
     fill="black"
     id="path4387" />
  <path
     d="M383.51 385.82L383.51 453.09"
     fill="none"
     stroke="black"
     stroke-width="0.5"
     id="path4603" />
  <path
     d="M394.4 445.25L398.48 443.28 398.62 443.2 398.81 443.06 398.86 442.99 398.91 442.93 398.96 442.79 398.96 442.71 398.96 442.5 399.38 442.5 399.38 444.63 398.96 444.63 398.96 444.47 398.96 444.34 398.91 444.16 398.86 444.11 398.81 444.06 398.62 444.08 398.48 444.16 395.09 445.77 396.54 446.81 398.41 446.81 398.55 446.81 398.75 446.74 398.82 446.68 398.89 446.61 398.96 446.44 398.96 446.34 398.96 446.08 399.38 446.08 399.38 448.26 398.96 448.26 398.96 448 398.96 447.87 398.89 447.69 398.82 447.64 398.75 447.59 398.55 447.53 398.41 447.53 388.52 447.53 388.38 447.53 388.17 447.59 388.1 447.64 388.03 447.69 387.96 447.87 387.96 448 387.96 448.31 387.55 448.31 387.55 447.85 387.55 447.69 387.48 447.42 387.41 447.3 387.34 447.18 387.13 446.99 386.99 446.91 386.99 446.81 395.78 446.81 392.67 444.63 392.53 444.58 392.3 444.54 392.22 444.55 392.13 444.56 392.04 444.68 392.04 444.78 392.04 445.1 391.63 445.1 391.63 442.92 392.04 442.92 392.04 443.18 392.04 443.25 392.1 443.45 392.15 443.57 392.2 443.68 392.39 443.9 392.53 444.01 394.4 445.25Z"
     fill-rule="evenodd"
     fill="black"
     id="path4605" />
  <path
     d="M391.77 438.51L391.77 438.01 392.27 437.21 392.77 436.9 393.27 436.59 394.6 436.28 395.43 436.28 396.37 436.28 397.85 436.6 398.41 436.92 398.96 437.25 399.51 438.25 399.51 438.92 399.51 439.39 399.15 440.22 398.79 440.58 398.43 440.95 397.54 441.31 397.02 441.31 396.82 441.31 396.45 441.22 396.3 441.13 396.14 441.04 395.99 440.79 395.99 440.63 395.99 440.48 396.13 440.27 396.26 440.22 396.4 440.17 396.64 440.12 396.75 440.12 396.96 440.12 397.28 440.19 397.4 440.27 397.53 440.35 397.79 440.43 397.92 440.43 398.2 440.43 398.62 440.18 398.75 439.93 398.89 439.69 399.03 439.16 399.03 438.87 399.03 438.45 398.58 437.82 398.13 437.6 397.68 437.38 396.4 437.16 395.57 437.16 394.88 437.16 393.76 437.35 393.32 437.55 392.89 437.74 392.46 438.33 392.46 438.71 392.46 439 392.6 439.49 392.74 439.7 392.87 439.91 393.46 440.3 393.91 440.48 393.84 440.95 387.55 440.69 387.55 436.43 388.58 436.59 388.58 440.32 393.15 440.53 392.67 440.27 392.08 439.76 391.97 439.52 391.87 439.27 391.77 438.77 391.77 438.51 391.77 438.51Z"
     fill-rule="evenodd"
     fill="black"
     id="path4607" />
  <path
     d="M391.77 431.87L391.77 431.37 392.27 430.57 392.77 430.26 393.27 429.95 394.6 429.63 395.43 429.63 396.37 429.63 397.85 429.96 398.41 430.28 398.96 430.61 399.51 431.61 399.51 432.28 399.51 432.75 399.15 433.58 398.79 433.94 398.43 434.3 397.54 434.67 397.02 434.67 396.82 434.67 396.45 434.58 396.3 434.49 396.14 434.4 395.99 434.15 395.99 433.99 395.99 433.84 396.13 433.63 396.26 433.58 396.4 433.53 396.64 433.47 396.75 433.47 396.96 433.47 397.28 433.55 397.4 433.63 397.53 433.71 397.79 433.79 397.92 433.79 398.2 433.79 398.62 433.54 398.75 433.29 398.89 433.05 399.03 432.51 399.03 432.23 399.03 431.81 398.58 431.18 398.13 430.96 397.68 430.74 396.4 430.52 395.57 430.52 394.88 430.52 393.76 430.71 393.32 430.91 392.89 431.1 392.46 431.68 392.46 432.07 392.46 432.36 392.6 432.85 392.74 433.06 392.87 433.27 393.46 433.66 393.91 433.84 393.84 434.3 387.55 434.04 387.55 429.79 388.58 429.95 388.58 433.68 393.15 433.89 392.67 433.63 392.08 433.12 391.97 432.88 391.87 432.63 391.77 432.13 391.77 431.87 391.77 431.87Z"
     fill-rule="evenodd"
     fill="black"
     id="path4609" />
  <path
     d="M392.87 425.64L388.93 425.64 388.93 425.17 392.87 425.17 392.87 422.58 393.5 422.58 393.5 425.17 397.44 425.17 397.44 425.64 393.5 425.64 393.5 428.23 392.87 428.23 392.87 425.64Z"
     fill-rule="evenodd"
     fill="black"
     id="path4611" />
  <path
     d="M396.4 416.3L397.06 416.3 398.17 416.66 398.62 417.03 399.07 417.39 399.51 418.35 399.51 418.95 399.51 419.49 399.07 420.43 398.62 420.81 398.17 421.2 397.13 421.59 396.54 421.59 395.95 421.59 394.95 421.37 394.53 421.15 394.12 420.93 393.39 420.3 393.08 419.88 392.84 420.24 392.23 420.8 391.87 421 391.51 421.19 390.69 421.39 390.25 421.39 389.66 421.39 388.65 421.05 388.24 420.71 387.82 420.37 387.41 419.44 387.41 418.84 387.41 418.3 387.82 417.42 388.24 417.08 388.65 416.74 389.66 416.4 390.25 416.4 390.66 416.4 391.44 416.6 391.8 416.79 392.16 416.99 392.8 417.6 393.08 418.01 393.43 417.57 394.19 416.92 394.6 416.72 395.02 416.51 395.92 416.3 396.4 416.3 396.4 416.3Z M396.54 420.87L397.09 420.87 397.99 420.59 398.34 420.32 398.68 420.05 399.03 419.36 399.03 418.95 399.03 418.45 398.68 417.74 398.34 417.52 397.99 417.3 397.13 417.08 396.61 417.08 396.16 417.08 395.29 417.39 394.88 417.7 394.46 418.01 393.7 418.95 393.36 419.57 393.63 419.88 394.33 420.36 394.74 420.53 395.16 420.7 396.06 420.87 396.54 420.87 396.54 420.87Z M390.31 417.13L389.83 417.13 388.98 417.34 388.62 417.55 388.26 417.75 387.89 418.4 387.89 418.84 387.89 419.34 388.24 420.04 388.58 420.24 388.93 420.45 389.66 420.66 390.04 420.66 390.42 420.66 391.16 420.36 391.52 420.06 391.89 419.76 392.53 418.92 392.8 418.38 392.6 418.07 392.08 417.6 391.77 417.44 391.46 417.29 390.73 417.13 390.31 417.13 390.31 417.13Z"
     fill-rule="evenodd"
     fill="black"
     id="path4613" />
  <path
     d="M399.51 412.2L399.51 412.77 398.72 413.73 397.92 414.12 397.13 414.51 394.88 414.9 393.43 414.9 392.08 414.9 389.9 414.52 389.07 414.15 388.24 413.77 387.41 412.8 387.41 412.2 387.41 411.63 388.2 410.68 389 410.31 389.8 409.93 392.01 409.56 393.43 409.56 394.85 409.56 397.08 409.93 397.89 410.31 398.7 410.68 399.51 411.63 399.51 412.2 399.51 412.2Z M387.96 412.2L387.96 412.57 388.71 413.18 389.45 413.42 390.19 413.67 392.18 413.91 393.43 413.91 394.74 413.91 396.78 413.67 397.51 413.42 398.24 413.18 398.96 412.57 398.96 412.2 398.96 411.81 398.24 411.2 397.51 410.98 396.78 410.76 394.74 410.54 393.43 410.54 392.18 410.54 390.19 410.75 389.45 410.96 388.71 411.16 387.96 411.79 387.96 412.2 387.96 412.2Z"
     fill-rule="evenodd"
     fill="black"
     id="path4615" />
  <path
     d="M390.45 404.06L389.83 404.06 388.88 404.26 388.55 404.47 388.22 404.68 387.89 405.3 387.89 405.72 387.89 406.03 388.12 406.56 388.34 406.78 388.57 407 389.14 407.22 389.48 407.22 389.69 407.22 390.04 407.13 390.18 407.04 390.31 406.95 390.59 406.86 390.73 406.86 390.9 406.86 391.16 406.92 391.25 406.99 391.33 407.05 391.42 407.25 391.42 407.38 391.42 407.53 391.3 407.78 391.18 407.87 391.06 407.96 390.66 408.05 390.38 408.05 389.66 408.05 388.55 407.66 388.17 407.27 387.79 406.88 387.41 406.05 387.41 405.61 387.41 404.99 387.82 404.07 388.24 403.77 388.65 403.47 389.69 403.17 390.31 403.17 390.73 403.17 391.56 403.32 391.97 403.46 392.39 403.6 393.19 404.06 393.57 404.37 394.53 405.12 396.11 406.27 396.71 406.68 397.32 407.08 398.13 407.56 398.34 407.64 398.34 404.58 398.34 404.34 398.1 403.95 397.85 403.8 397.61 403.64 396.89 403.43 396.4 403.38 396.4 403.07 399.38 403.38 399.38 408.21 398.48 408.21 398.17 408.08 397.37 407.65 396.89 407.35 396.4 407.05 395.26 406.26 394.6 405.77 394.02 405.33 392.91 404.68 392.39 404.47 391.87 404.26 390.9 404.06 390.45 404.06 390.45 404.06Z"
     fill-rule="evenodd"
     fill="black"
     id="path4617" />
  <path
     d="M551.17 385.49L551.17 452.76"
     fill="none"
     stroke="black"
     stroke-width="0.5"
     id="path4619" />
  <path
     d="M562.06 444.92L566.14 442.95 566.28 442.87 566.47 442.73 566.52 442.67 566.57 442.6 566.62 442.46 566.62 442.38 566.62 442.17 567.04 442.17 567.04 444.3 566.62 444.3 566.62 444.14 566.62 444.01 566.57 443.83 566.52 443.78 566.47 443.73 566.28 443.75 566.14 443.83 562.75 445.44 564.2 446.48 566.07 446.48 566.21 446.48 566.41 446.41 566.48 446.35 566.55 446.28 566.62 446.12 566.62 446.01 566.62 445.75 567.04 445.75 567.04 447.93 566.62 447.93 566.62 447.67 566.62 447.54 566.55 447.36 566.48 447.31 566.41 447.26 566.21 447.2 566.07 447.2 556.18 447.2 556.04 447.2 555.83 447.26 555.76 447.31 555.69 447.36 555.62 447.54 555.62 447.67 555.62 447.98 555.21 447.98 555.21 447.52 555.21 447.36 555.14 447.09 555.07 446.97 555 446.85 554.79 446.66 554.65 446.58 554.65 446.48 563.44 446.48 560.33 444.3 560.19 444.25 559.96 444.21 559.88 444.22 559.79 444.23 559.7 444.35 559.7 444.45 559.7 444.77 559.29 444.77 559.29 442.59 559.7 442.59 559.7 442.85 559.7 442.92 559.76 443.12 559.81 443.24 559.86 443.35 560.05 443.57 560.19 443.68 562.06 444.92Z"
     fill-rule="evenodd"
     fill="black"
     id="path4621" />
  <path
     d="M559.43 438.18L559.43 437.68 559.93 436.88 560.43 436.57 560.93 436.26 562.26 435.95 563.09 435.95 564.03 435.95 565.52 436.27 566.07 436.59 566.62 436.92 567.18 437.92 567.18 438.59 567.18 439.06 566.81 439.89 566.45 440.25 566.09 440.62 565.2 440.98 564.69 440.98 564.48 440.98 564.11 440.89 563.96 440.8 563.8 440.71 563.65 440.46 563.65 440.3 563.65 440.15 563.79 439.94 563.92 439.89 564.06 439.84 564.3 439.79 564.41 439.79 564.62 439.79 564.94 439.86 565.07 439.94 565.19 440.02 565.45 440.1 565.58 440.1 565.86 440.1 566.28 439.85 566.41 439.6 566.55 439.36 566.69 438.83 566.69 438.54 566.69 438.13 566.24 437.49 565.79 437.27 565.34 437.05 564.06 436.83 563.23 436.83 562.54 436.83 561.42 437.02 560.98 437.22 560.55 437.41 560.12 438 560.12 438.38 560.12 438.67 560.26 439.16 560.4 439.37 560.53 439.58 561.12 439.97 561.57 440.15 561.5 440.62 555.21 440.36 555.21 436.1 556.25 436.26 556.25 439.99 560.81 440.2 560.33 439.94 559.74 439.44 559.64 439.19 559.53 438.94 559.43 438.44 559.43 438.18 559.43 438.18Z"
     fill-rule="evenodd"
     fill="black"
     id="path4623" />
  <path
     d="M559.43 431.54L559.43 431.04 559.93 430.24 560.43 429.93 560.93 429.62 562.26 429.31 563.09 429.31 564.03 429.31 565.52 429.63 566.07 429.95 566.62 430.28 567.18 431.28 567.18 431.95 567.18 432.42 566.81 433.25 566.45 433.61 566.09 433.97 565.2 434.34 564.69 434.34 564.48 434.34 564.11 434.25 563.96 434.16 563.8 434.07 563.65 433.82 563.65 433.66 563.65 433.51 563.79 433.3 563.92 433.25 564.06 433.2 564.3 433.14 564.41 433.14 564.62 433.14 564.94 433.22 565.07 433.3 565.19 433.38 565.45 433.46 565.58 433.46 565.86 433.46 566.28 433.21 566.41 432.96 566.55 432.72 566.69 432.18 566.69 431.9 566.69 431.48 566.24 430.85 565.79 430.63 565.34 430.41 564.06 430.19 563.23 430.19 562.54 430.19 561.42 430.38 560.98 430.58 560.55 430.77 560.12 431.35 560.12 431.74 560.12 432.03 560.26 432.52 560.4 432.73 560.53 432.94 561.12 433.33 561.57 433.51 561.5 433.97 555.21 433.72 555.21 429.46 556.25 429.62 556.25 433.35 560.81 433.56 560.33 433.3 559.74 432.79 559.64 432.55 559.53 432.3 559.43 431.8 559.43 431.54 559.43 431.54Z"
     fill-rule="evenodd"
     fill="black"
     id="path4625" />
  <path
     d="M560.53 425.31L556.59 425.31 556.59 424.84 560.53 424.84 560.53 422.25 561.16 422.25 561.16 424.84 565.1 424.84 565.1 425.31 561.16 425.31 561.16 427.9 560.53 427.9 560.53 425.31Z"
     fill-rule="evenodd"
     fill="black"
     id="path4627" />
  <path
     d="M564.06 415.97L564.72 415.97 565.83 416.33 566.28 416.7 566.73 417.06 567.18 418.02 567.18 418.62 567.18 419.16 566.73 420.1 566.28 420.49 565.83 420.87 564.79 421.26 564.2 421.26 563.61 421.26 562.61 421.04 562.19 420.82 561.78 420.6 561.05 419.97 560.74 419.55 560.5 419.91 559.89 420.47 559.53 420.67 559.17 420.86 558.36 421.06 557.91 421.06 557.32 421.06 556.31 420.72 555.9 420.38 555.48 420.04 555.07 419.11 555.07 418.51 555.07 417.97 555.48 417.09 555.9 416.75 556.31 416.41 557.32 416.08 557.91 416.08 558.32 416.08 559.1 416.27 559.46 416.46 559.83 416.66 560.47 417.27 560.74 417.68 561.09 417.24 561.85 416.59 562.26 416.39 562.68 416.18 563.58 415.97 564.06 415.97 564.06 415.97Z M564.2 420.54L564.75 420.54 565.65 420.26 566 419.99 566.35 419.72 566.69 419.03 566.69 418.62 566.69 418.12 566.35 417.41 566 417.19 565.65 416.97 564.79 416.75 564.27 416.75 563.82 416.75 562.96 417.06 562.54 417.37 562.13 417.68 561.36 418.62 561.02 419.24 561.3 419.55 561.99 420.03 562.4 420.2 562.82 420.37 563.72 420.54 564.2 420.54 564.2 420.54Z M557.97 416.8L557.49 416.8 556.64 417.01 556.28 417.22 555.92 417.42 555.55 418.07 555.55 418.51 555.55 419.01 555.9 419.71 556.25 419.91 556.59 420.12 557.32 420.33 557.7 420.33 558.08 420.33 558.82 420.03 559.19 419.73 559.55 419.43 560.19 418.59 560.47 418.05 560.26 417.74 559.74 417.27 559.43 417.11 559.12 416.96 558.39 416.8 557.97 416.8 557.97 416.8Z"
     fill-rule="evenodd"
     fill="black"
     id="path4629" />
  <path
     d="M563.86 409.38L564.51 409.38 565.67 409.75 566.17 410.11 566.67 410.47 567.18 411.48 567.18 412.13 567.18 412.6 566.83 413.4 566.48 413.74 566.14 414.08 565.34 414.42 564.89 414.42 564.69 414.42 564.32 414.31 564.17 414.21 564.01 414.1 563.86 413.9 563.86 413.79 563.86 413.64 564.01 413.42 564.17 413.35 564.32 413.29 564.58 413.22 564.69 413.22 564.86 413.22 565.15 413.27 565.27 413.33 565.39 413.38 565.62 413.43 565.72 413.43 565.93 413.43 566.28 413.23 566.41 413.04 566.55 412.85 566.69 412.42 566.69 412.18 566.69 411.72 566.33 411.02 565.96 410.78 565.6 410.55 564.48 410.32 563.72 410.32 563.09 410.32 562.09 410.56 561.71 410.81 561.33 411.06 560.95 411.98 560.95 412.65 560.47 412.65 560.47 412.13 560.14 411.37 559.81 411.12 559.48 410.87 558.56 410.63 557.97 410.63 557.49 410.63 556.64 410.82 556.28 411.02 555.92 411.21 555.55 411.82 555.55 412.24 555.55 412.42 555.67 412.81 555.8 413.01 555.92 413.22 556.31 413.43 556.59 413.43 556.87 413.43 557.21 413.38 557.28 413.33 557.35 413.27 557.53 413.22 557.63 413.22 557.8 413.22 558.08 413.27 558.18 413.33 558.29 413.38 558.39 413.56 558.39 413.69 558.39 413.79 558.29 413.99 558.18 414.08 558.08 414.17 557.7 414.26 557.42 414.26 556.9 414.26 556.06 413.92 555.73 413.58 555.4 413.25 555.07 412.47 555.07 412.03 555.07 411.51 555.5 410.68 555.93 410.37 556.37 410.06 557.28 409.75 557.77 409.75 558.29 409.75 559.17 409.94 559.53 410.13 559.89 410.33 560.43 410.94 560.6 411.35 560.88 410.78 561.61 410.01 562.06 409.8 562.51 409.59 563.41 409.38 563.86 409.38 563.86 409.38Z"
     fill-rule="evenodd"
     fill="black"
     id="path4631" />
  <path
     d="M558.11 403.73L557.49 403.73 556.54 403.93 556.21 404.14 555.88 404.35 555.55 404.97 555.55 405.39 555.55 405.7 555.78 406.23 556 406.45 556.23 406.67 556.8 406.89 557.14 406.89 557.35 406.89 557.7 406.8 557.84 406.71 557.97 406.62 558.25 406.53 558.39 406.53 558.56 406.53 558.82 406.59 558.91 406.66 559 406.72 559.08 406.92 559.08 407.05 559.08 407.2 558.96 407.45 558.84 407.54 558.72 407.63 558.32 407.72 558.04 407.72 557.32 407.72 556.21 407.33 555.83 406.94 555.45 406.55 555.07 405.72 555.07 405.28 555.07 404.66 555.48 403.74 555.9 403.44 556.31 403.14 557.35 402.85 557.97 402.85 558.39 402.85 559.22 402.99 559.64 403.13 560.05 403.27 560.85 403.73 561.23 404.04 562.19 404.79 563.77 405.95 564.37 406.35 564.98 406.75 565.79 407.23 566 407.31 566 404.25 566 404.01 565.76 403.62 565.52 403.47 565.27 403.31 564.55 403.1 564.06 403.05 564.06 402.74 567.04 403.05 567.04 407.88 566.14 407.88 565.83 407.75 565.03 407.32 564.55 407.02 564.06 406.72 562.92 405.93 562.26 405.44 561.68 405 560.57 404.35 560.05 404.14 559.53 403.93 558.56 403.73 558.11 403.73 558.11 403.73Z"
     fill-rule="evenodd"
     fill="black"
     id="path4633" />
  <path
     d="M211.98 385.49L211.98 452.76"
     fill="none"
     stroke="black"
     stroke-width="0.5"
     id="path4635" />
  <path
     d="M222.86 444.92L226.95 442.95 227.08 442.87 227.27 442.73 227.33 442.67 227.38 442.6 227.43 442.46 227.43 442.38 227.43 442.17 227.85 442.17 227.85 444.3 227.43 444.3 227.43 444.14 227.43 444.01 227.38 443.83 227.33 443.78 227.27 443.73 227.08 443.75 226.95 443.83 223.56 445.44 225.01 446.48 226.88 446.48 227.01 446.48 227.22 446.41 227.29 446.35 227.36 446.28 227.43 446.12 227.43 446.01 227.43 445.75 227.85 445.75 227.85 447.93 227.43 447.93 227.43 447.67 227.43 447.54 227.36 447.36 227.29 447.31 227.22 447.26 227.01 447.2 226.88 447.2 216.98 447.2 216.85 447.2 216.64 447.26 216.57 447.31 216.5 447.36 216.43 447.54 216.43 447.67 216.43 447.98 216.02 447.98 216.02 447.52 216.02 447.36 215.95 447.09 215.88 446.97 215.81 446.85 215.6 446.66 215.46 446.58 215.46 446.48 224.25 446.48 221.13 444.3 221 444.25 220.77 444.21 220.69 444.22 220.6 444.23 220.51 444.35 220.51 444.45 220.51 444.77 220.1 444.77 220.1 442.59 220.51 442.59 220.51 442.85 220.51 442.92 220.56 443.12 220.62 443.24 220.67 443.35 220.86 443.57 221 443.68 222.86 444.92Z"
     fill-rule="evenodd"
     fill="black"
     id="path4637" />
  <path
     d="M220.24 438.18L220.24 437.68 220.74 436.88 221.24 436.57 221.74 436.26 223.07 435.95 223.9 435.95 224.84 435.95 226.32 436.27 226.88 436.59 227.43 436.92 227.98 437.92 227.98 438.59 227.98 439.06 227.62 439.89 227.26 440.25 226.89 440.62 226.01 440.98 225.49 440.98 225.29 440.98 224.92 440.89 224.77 440.8 224.61 440.71 224.46 440.46 224.46 440.3 224.46 440.15 224.59 439.94 224.73 439.89 224.87 439.84 225.11 439.79 225.22 439.79 225.42 439.79 225.75 439.86 225.87 439.94 225.99 440.02 226.25 440.1 226.39 440.1 226.67 440.1 227.08 439.85 227.22 439.6 227.36 439.36 227.5 438.83 227.5 438.54 227.5 438.13 227.05 437.49 226.6 437.27 226.15 437.05 224.87 436.83 224.04 436.83 223.35 436.83 222.22 437.02 221.79 437.22 221.36 437.41 220.93 438 220.93 438.38 220.93 438.67 221.07 439.16 221.2 439.37 221.34 439.58 221.93 439.97 222.38 440.15 222.31 440.62 216.02 440.36 216.02 436.1 217.05 436.26 217.05 439.99 221.62 440.2 221.13 439.94 220.55 439.44 220.44 439.19 220.34 438.94 220.24 438.44 220.24 438.18 220.24 438.18Z"
     fill-rule="evenodd"
     fill="black"
     id="path4639" />
  <path
     d="M220.24 431.54L220.24 431.04 220.74 430.24 221.24 429.93 221.74 429.62 223.07 429.31 223.9 429.31 224.84 429.31 226.32 429.63 226.88 429.95 227.43 430.28 227.98 431.28 227.98 431.95 227.98 432.42 227.62 433.25 227.26 433.61 226.89 433.97 226.01 434.34 225.49 434.34 225.29 434.34 224.92 434.25 224.77 434.16 224.61 434.07 224.46 433.82 224.46 433.66 224.46 433.51 224.59 433.3 224.73 433.25 224.87 433.2 225.11 433.14 225.22 433.14 225.42 433.14 225.75 433.22 225.87 433.3 225.99 433.38 226.25 433.46 226.39 433.46 226.67 433.46 227.08 433.21 227.22 432.96 227.36 432.72 227.5 432.18 227.5 431.9 227.5 431.48 227.05 430.85 226.6 430.63 226.15 430.41 224.87 430.19 224.04 430.19 223.35 430.19 222.22 430.38 221.79 430.58 221.36 430.77 220.93 431.35 220.93 431.74 220.93 432.03 221.07 432.52 221.2 432.73 221.34 432.94 221.93 433.33 222.38 433.51 222.31 433.97 216.02 433.72 216.02 429.46 217.05 429.62 217.05 433.35 221.62 433.56 221.13 433.3 220.55 432.79 220.44 432.55 220.34 432.3 220.24 431.8 220.24 431.54 220.24 431.54Z"
     fill-rule="evenodd"
     fill="black"
     id="path4641" />
  <path
     d="M221.34 425.31L217.4 425.31 217.4 424.84 221.34 424.84 221.34 422.25 221.96 422.25 221.96 424.84 225.91 424.84 225.91 425.31 221.96 425.31 221.96 427.9 221.34 427.9 221.34 425.31Z"
     fill-rule="evenodd"
     fill="black"
     id="path4643" />
  <path
     d="M224.87 415.97L225.53 415.97 226.63 416.33 227.08 416.7 227.53 417.06 227.98 418.02 227.98 418.62 227.98 419.16 227.53 420.1 227.08 420.49 226.63 420.87 225.6 421.26 225.01 421.26 224.42 421.26 223.42 421.04 223 420.82 222.59 420.6 221.86 419.97 221.55 419.55 221.31 419.91 220.7 420.47 220.34 420.67 219.98 420.86 219.16 421.06 218.71 421.06 218.13 421.06 217.12 420.72 216.71 420.38 216.29 420.04 215.88 419.11 215.88 418.51 215.88 417.97 216.29 417.09 216.71 416.75 217.12 416.41 218.13 416.08 218.71 416.08 219.13 416.08 219.91 416.27 220.27 416.46 220.63 416.66 221.27 417.27 221.55 417.68 221.9 417.24 222.66 416.59 223.07 416.39 223.49 416.18 224.39 415.97 224.87 415.97 224.87 415.97Z M225.01 420.54L225.56 420.54 226.46 420.26 226.81 419.99 227.15 419.72 227.5 419.03 227.5 418.62 227.5 418.12 227.15 417.41 226.81 417.19 226.46 416.97 225.6 416.75 225.08 416.75 224.63 416.75 223.76 417.06 223.35 417.37 222.93 417.68 222.17 418.62 221.83 419.24 222.1 419.55 222.8 420.03 223.21 420.2 223.63 420.37 224.52 420.54 225.01 420.54 225.01 420.54Z M218.78 416.8L218.3 416.8 217.45 417.01 217.09 417.22 216.72 417.42 216.36 418.07 216.36 418.51 216.36 419.01 216.71 419.71 217.05 419.91 217.4 420.12 218.13 420.33 218.51 420.33 218.89 420.33 219.63 420.03 219.99 419.73 220.36 419.43 221 418.59 221.27 418.05 221.07 417.74 220.55 417.27 220.24 417.11 219.92 416.96 219.2 416.8 218.78 416.8 218.78 416.8Z"
     fill-rule="evenodd"
     fill="black"
     id="path4645" />
  <path
     d="M216.5 409.33L217.68 409.88 219.98 410.74 221.1 411.07 222.22 411.39 224.18 411.72 225.01 411.72 225.15 411.72 225.54 411.7 225.8 411.69 226.06 411.68 226.67 411.67 227.01 411.67 227.29 411.67 227.67 411.73 227.78 411.8 227.88 411.86 227.98 412.08 227.98 412.24 227.98 412.37 227.86 412.59 227.74 412.68 227.62 412.77 227.19 412.86 226.88 412.86 226.22 412.86 224.59 412.64 223.63 412.42 222.66 412.2 219.37 411.02 217.05 410.06 217.05 412.65 217.05 412.94 217.3 413.39 217.54 413.56 217.78 413.73 218.51 413.97 218.99 414.05 218.92 414.36 216.02 414 216.02 409.33 216.5 409.33Z"
     fill-rule="evenodd"
     fill="black"
     id="path4647" />
  <path
     d="M218.92 403.73L218.3 403.73 217.35 403.93 217.02 404.14 216.69 404.35 216.36 404.97 216.36 405.39 216.36 405.7 216.59 406.23 216.81 406.45 217.04 406.67 217.61 406.89 217.95 406.89 218.16 406.89 218.51 406.8 218.64 406.71 218.78 406.62 219.06 406.53 219.2 406.53 219.37 406.53 219.63 406.59 219.72 406.66 219.8 406.72 219.89 406.92 219.89 407.05 219.89 407.2 219.77 407.45 219.65 407.54 219.53 407.63 219.13 407.72 218.85 407.72 218.13 407.72 217.02 407.33 216.64 406.94 216.26 406.55 215.88 405.72 215.88 405.28 215.88 404.66 216.29 403.74 216.71 403.44 217.12 403.14 218.16 402.85 218.78 402.85 219.2 402.85 220.03 402.99 220.44 403.13 220.86 403.27 221.65 403.73 222.03 404.04 223 404.79 224.58 405.95 225.18 406.35 225.79 406.75 226.6 407.23 226.81 407.31 226.81 404.25 226.81 404.01 226.57 403.62 226.32 403.47 226.08 403.31 225.35 403.1 224.87 403.05 224.87 402.74 227.85 403.05 227.85 407.88 226.95 407.88 226.63 407.75 225.84 407.32 225.35 407.02 224.87 406.72 223.73 405.93 223.07 405.44 222.48 405 221.38 404.35 220.86 404.14 220.34 403.93 219.37 403.73 218.92 403.73 218.92 403.73Z"
     fill-rule="evenodd"
     fill="black"
     id="path4649" />
  <path
     d="M320.13 385.49L320.13 452.76"
     fill="none"
     stroke="black"
     stroke-width="0.5"
     id="path4651" />
  <path
     d="M331.01 444.92L335.09 442.95 335.23 442.87 335.42 442.73 335.47 442.67 335.53 442.6 335.58 442.46 335.58 442.38 335.58 442.17 335.99 442.17 335.99 444.3 335.58 444.3 335.58 444.14 335.58 444.01 335.53 443.83 335.47 443.78 335.42 443.73 335.23 443.75 335.09 443.83 331.7 445.44 333.16 446.48 335.02 446.48 335.16 446.48 335.37 446.41 335.44 446.35 335.51 446.28 335.58 446.12 335.58 446.01 335.58 445.75 335.99 445.75 335.99 447.93 335.58 447.93 335.58 447.67 335.58 447.54 335.51 447.36 335.44 447.31 335.37 447.26 335.16 447.2 335.02 447.2 325.13 447.2 324.99 447.2 324.79 447.26 324.72 447.31 324.65 447.36 324.58 447.54 324.58 447.67 324.58 447.98 324.16 447.98 324.16 447.52 324.16 447.36 324.09 447.09 324.03 446.97 323.96 446.85 323.75 446.66 323.61 446.58 323.61 446.48 332.4 446.48 329.28 444.3 329.14 444.25 328.92 444.21 328.83 444.22 328.75 444.23 328.66 444.35 328.66 444.45 328.66 444.77 328.25 444.77 328.25 442.59 328.66 442.59 328.66 442.85 328.66 442.92 328.71 443.12 328.76 443.24 328.82 443.35 329.01 443.57 329.14 443.68 331.01 444.92Z"
     fill-rule="evenodd"
     fill="black"
     id="path4653" />
  <path
     d="M328.38 438.18L328.38 437.68 328.89 436.88 329.39 436.57 329.89 436.26 331.22 435.95 332.05 435.95 332.98 435.95 334.47 436.27 335.02 436.59 335.58 436.92 336.13 437.92 336.13 438.59 336.13 439.06 335.77 439.89 335.41 440.25 335.04 440.62 334.16 440.98 333.64 440.98 333.43 440.98 333.07 440.89 332.91 440.8 332.76 440.71 332.6 440.46 332.6 440.3 332.6 440.15 332.74 439.94 332.88 439.89 333.02 439.84 333.26 439.79 333.36 439.79 333.57 439.79 333.9 439.86 334.02 439.94 334.14 440.02 334.4 440.1 334.54 440.1 334.82 440.1 335.23 439.85 335.37 439.6 335.51 439.36 335.65 438.83 335.65 438.54 335.65 438.13 335.2 437.49 334.75 437.27 334.3 437.05 333.02 436.83 332.19 436.83 331.5 436.83 330.37 437.02 329.94 437.22 329.51 437.41 329.08 438 329.08 438.38 329.08 438.67 329.21 439.16 329.35 439.37 329.49 439.58 330.08 439.97 330.53 440.15 330.46 440.62 324.16 440.36 324.16 436.1 325.2 436.26 325.2 439.99 329.77 440.2 329.28 439.94 328.7 439.44 328.59 439.19 328.49 438.94 328.38 438.44 328.38 438.18 328.38 438.18Z"
     fill-rule="evenodd"
     fill="black"
     id="path4655" />
  <path
     d="M328.38 431.54L328.38 431.04 328.89 430.24 329.39 429.93 329.89 429.62 331.22 429.31 332.05 429.31 332.98 429.31 334.47 429.63 335.02 429.95 335.58 430.28 336.13 431.28 336.13 431.95 336.13 432.42 335.77 433.25 335.41 433.61 335.04 433.97 334.16 434.34 333.64 434.34 333.43 434.34 333.07 434.25 332.91 434.16 332.76 434.07 332.6 433.82 332.6 433.66 332.6 433.51 332.74 433.3 332.88 433.25 333.02 433.2 333.26 433.14 333.36 433.14 333.57 433.14 333.9 433.22 334.02 433.3 334.14 433.38 334.4 433.46 334.54 433.46 334.82 433.46 335.23 433.21 335.37 432.96 335.51 432.72 335.65 432.18 335.65 431.9 335.65 431.48 335.2 430.85 334.75 430.63 334.3 430.41 333.02 430.19 332.19 430.19 331.5 430.19 330.37 430.38 329.94 430.58 329.51 430.77 329.08 431.35 329.08 431.74 329.08 432.03 329.21 432.52 329.35 432.73 329.49 432.94 330.08 433.33 330.53 433.51 330.46 433.97 324.16 433.72 324.16 429.46 325.2 429.62 325.2 433.35 329.77 433.56 329.28 433.3 328.7 432.79 328.59 432.55 328.49 432.3 328.38 431.8 328.38 431.54 328.38 431.54Z"
     fill-rule="evenodd"
     fill="black"
     id="path4657" />
  <path
     d="M329.49 425.31L325.55 425.31 325.55 424.84 329.49 424.84 329.49 422.25 330.11 422.25 330.11 424.84 334.06 424.84 334.06 425.31 330.11 425.31 330.11 427.9 329.49 427.9 329.49 425.31Z"
     fill-rule="evenodd"
     fill="black"
     id="path4659" />
  <path
     d="M324.65 415.97L325.82 416.52 328.12 417.39 329.25 417.71 330.37 418.03 332.33 418.36 333.16 418.36 333.3 418.36 333.69 418.35 333.95 418.33 334.21 418.32 334.82 418.31 335.16 418.31 335.44 418.31 335.82 418.37 335.92 418.44 336.03 418.5 336.13 418.72 336.13 418.88 336.13 419.01 336.01 419.23 335.89 419.32 335.77 419.41 335.34 419.5 335.02 419.5 334.37 419.5 332.74 419.28 331.77 419.06 330.8 418.84 327.52 417.66 325.2 416.7 325.2 419.29 325.2 419.58 325.44 420.03 325.69 420.2 325.93 420.37 326.65 420.62 327.14 420.69 327.07 421 324.16 420.64 324.16 415.97 324.65 415.97Z"
     fill-rule="evenodd"
     fill="black"
     id="path4661" />
  <path
     d="M333.02 409.33L333.68 409.33 334.78 409.69 335.23 410.06 335.68 410.42 336.13 411.38 336.13 411.98 336.13 412.52 335.68 413.46 335.23 413.84 334.78 414.23 333.74 414.62 333.16 414.62 332.57 414.62 331.57 414.4 331.15 414.18 330.74 413.96 330.01 413.33 329.7 412.91 329.46 413.27 328.85 413.83 328.49 414.03 328.12 414.22 327.31 414.42 326.86 414.42 326.27 414.42 325.27 414.08 324.86 413.74 324.44 413.4 324.03 412.47 324.03 411.87 324.03 411.33 324.44 410.45 324.86 410.11 325.27 409.77 326.27 409.43 326.86 409.43 327.28 409.43 328.06 409.63 328.42 409.82 328.78 410.02 329.42 410.63 329.7 411.04 330.04 410.6 330.8 409.95 331.22 409.75 331.63 409.54 332.53 409.33 333.02 409.33 333.02 409.33Z M333.16 413.9L333.71 413.9 334.61 413.62 334.96 413.35 335.3 413.08 335.65 412.39 335.65 411.98 335.65 411.48 335.3 410.77 334.96 410.55 334.61 410.33 333.74 410.11 333.23 410.11 332.78 410.11 331.91 410.42 331.5 410.73 331.08 411.04 330.32 411.98 329.97 412.6 330.25 412.91 330.94 413.39 331.36 413.56 331.77 413.73 332.67 413.9 333.16 413.9 333.16 413.9Z M326.93 410.16L326.45 410.16 325.6 410.37 325.24 410.58 324.87 410.78 324.51 411.43 324.51 411.87 324.51 412.37 324.86 413.07 325.2 413.27 325.55 413.48 326.27 413.69 326.65 413.69 327.03 413.69 327.78 413.39 328.14 413.09 328.5 412.79 329.14 411.95 329.42 411.41 329.21 411.09 328.69 410.63 328.38 410.47 328.07 410.32 327.35 410.16 326.93 410.16 326.93 410.16Z"
     fill-rule="evenodd"
     fill="black"
     id="path4663" />
  <path
     d="M331.57 405.7L331.57 406.22 331.13 407.05 330.7 407.36 330.27 407.67 328.87 407.98 327.9 407.98 327.07 407.98 325.69 407.64 325.13 407.31 324.58 406.97 324.03 406.01 324.03 405.39 324.03 404.74 324.72 403.73 325.41 403.36 326.1 403 328.11 402.64 329.42 402.64 330.87 402.64 333.28 403.07 334.23 403.49 335.18 403.92 336.13 405.1 336.13 405.85 336.13 406.19 335.92 406.78 335.72 407.02 335.51 407.27 334.96 407.51 334.61 407.51 334.47 407.51 334.19 407.45 334.06 407.38 333.92 407.32 333.78 407.1 333.78 406.94 333.78 406.79 333.94 406.58 334.09 406.53 334.25 406.48 334.61 406.43 334.82 406.43 334.96 406.43 335.18 406.4 335.27 406.37 335.35 406.35 335.47 406.3 335.51 406.27 335.54 406.24 335.6 406.15 335.61 406.09 335.63 406.02 335.65 405.88 335.65 405.8 335.65 405.34 334.96 404.58 334.26 404.3 333.57 404.01 331.25 403.68 329.63 403.62 330.04 403.75 330.74 404.14 331.01 404.4 331.29 404.66 331.57 405.31 331.57 405.7 331.57 405.7Z M327.83 407.1L328.59 407.1 329.75 406.88 330.15 406.66 330.55 406.44 330.94 405.88 330.94 405.54 330.94 405.15 330.46 404.48 329.97 404.19 329.49 403.91 328.59 403.62 328.18 403.62 327.35 403.62 326.01 403.83 325.51 404.04 325.01 404.25 324.51 404.92 324.51 405.39 324.51 405.83 324.98 406.48 325.44 406.68 325.91 406.89 327.1 407.1 327.83 407.1 327.83 407.1Z"
     fill-rule="evenodd"
     fill="black"
     id="path4665" />
  <path
     d="M238.59 384.12L238.59 254.52"
     fill="none"
     stroke="black"
     stroke-width="0.5"
     id="path4701" />
  <path
     d="M259.5 254.57L259.5 384.69"
     fill="none"
     stroke="black"
     stroke-width="0.5"
     id="path4705" />
  <path
     d="M512.23 384.12L512.23 254.52"
     fill="none"
     stroke="black"
     stroke-width="0.5"
     id="path4707" />
  <path
     d="M533.96 254.57L533.96 384.69"
     fill="none"
     stroke="black"
     stroke-width="0.5"
     id="path4709" />
  <path
     d="M651.18 64.03L651.18 73.24 651.18 74.04 651.23 75.89 651.28 76.94 649.78 77.64 649.83 74.99 649.88 68.18 649.88 64.03 646.68 64.03 646.78 67.28 645.95 71.94 645.02 73.34 644.1 74.74 641.92 76.89 640.67 77.64 640.47 77.34 641.47 76.49 643.02 74.71 643.57 73.79 644.12 72.86 644.85 70.81 645.02 69.69 645.2 68.56 645.37 65.73 645.37 64.03 645.37 62.33 645.32 58.48 645.27 56.32 646.68 57.23 648.78 56.72 651.53 55.62 652.18 55.02 653.88 56.82 653.18 56.82 651.83 56.93 651.18 57.03 650.53 57.13 648.28 57.48 646.68 57.73 646.68 63.43 651.58 63.43 652.88 62.13 654.78 64.03 651.18 64.03Z"
     fill-rule="evenodd"
     fill="black"
     id="path5369" />
  <path
     d="M634.57 74.84L635.47 74.99 636.69 75.14 637.02 75.14 637.34 75.14 637.67 74.74 637.67 74.34 637.67 68.03 634.07 68.03 633.16 68.23 632.36 67.43 637.67 67.43 637.67 63.93 634.77 63.93 634.12 63.93 632.91 64.08 632.36 64.23 631.46 63.33 638.77 63.33 639.32 61.93 640.07 59.53 640.27 58.53 635.57 58.53 634.92 58.53 633.72 58.68 633.16 58.83 632.26 57.93 637.77 57.93 637.72 57.23 637.02 55.57 636.37 54.62 636.57 54.42 637.47 54.92 638.62 55.8 638.87 56.17 639.12 56.55 638.92 57.43 638.47 57.93 640.97 57.93 642.17 56.73 643.97 58.53 640.47 58.53 642.17 59.63 641.82 59.78 641.15 60.4 640.82 60.88 640.5 61.35 639.72 62.58 639.27 63.33 641.87 63.33 643.07 62.13 644.87 63.93 638.97 63.93 638.97 67.43 641.27 67.43 642.47 66.23 644.27 68.03 638.97 68.03 638.97 75.04 638.97 75.79 638.02 76.89 637.07 77.24 637.07 76.64 635.82 75.64 634.57 75.24 634.57 74.84Z"
     fill-rule="evenodd"
     fill="black"
     id="path5371" />
  <path
     d="M634.77 69.23L636.67 70.44 635.87 70.84 634.77 72.59 632.66 75.19 631.66 76.04 631.36 75.84 632.41 74.54 634.12 71.24 634.77 69.23 634.77 69.23Z"
     fill-rule="evenodd"
     fill="black"
     id="path5373" />
  <path
     d="M640.07 69.54L641.02 70.09 642.35 71.01 642.72 71.39 643.1 71.76 643.17 72.69 642.87 73.24 642.57 73.79 642.05 73.66 641.82 72.99 641.6 72.31 640.62 70.74 639.87 69.84 640.07 69.54Z"
     fill-rule="evenodd"
     fill="black"
     id="path5375" />
  <path
     d="M634.57 58.93L635.27 59.38 636.34 60.23 636.72 60.63 637.09 61.03 637.12 61.95 636.77 62.48 636.42 63.01 635.92 62.9 635.77 62.28 635.62 61.65 634.87 60.08 634.27 59.13 634.57 58.93Z"
     fill-rule="evenodd"
     fill="black"
     id="path5377" />
  <path
     d="M644.07 99.39L644.07 92.19 644.07 91.09 644.02 88.54 643.97 87.08 646.28 88.19 645.47 88.99 645.47 98.29 646.18 97.64 647.7 95.99 648.53 94.99 649.35 93.99 650.53 92.39 650.88 91.79 652.68 93.49 651.58 93.79 650.13 95.44 647.08 98.49 645.47 99.89 645.47 106.2 645.47 107.05 646.33 107.9 647.18 107.9 651.48 107.9 651.88 107.9 652.38 107.25 652.48 106.6 652.58 105.95 652.68 103.95 652.68 102.6 653.18 102.6 653.28 103.95 653.53 105.75 653.68 106.2 653.83 106.65 654.38 107.25 654.78 107.4 654.33 108.3 652.88 109.2 651.88 109.2 646.58 109.2 645.32 109.2 644.07 108.05 644.07 106.9 644.07 100.8 642.77 101.8 639.77 103.5 638.07 104.2 637.97 103.8 639.72 102.8 642.77 100.6 644.07 99.39 644.07 99.39Z"
     fill-rule="evenodd"
     fill="black"
     id="path5379" />
  <path
     d="M635.77 110.3L635.82 108.7 635.87 105.65 635.87 104.2 635.87 95.39 634.77 97.04 632.66 99.74 631.66 100.8 631.36 100.5 632.46 98.94 634.52 95.34 635.47 93.29 636.42 91.24 637.62 88.14 637.87 87.08 640.07 88.39 639.07 88.99 638.42 90.44 637.22 92.94 636.67 93.99 638.07 94.79 637.27 95.59 637.27 106.5 637.27 107.05 637.32 108.55 637.37 109.5 635.77 110.3Z"
     fill-rule="evenodd"
     fill="black"
     id="path5381" />
  <path
     d="M38.49 66.53L44.69 66.53 45.39 65.63 46.89 66.93 46.09 67.43 45.69 70.69 44.19 76.24 43.09 78.54 44.19 80.59 46.34 83 47.39 83.35 47.39 83.75 46.69 83.9 45.84 84.4 45.69 84.75 44.79 83.8 43.14 81.2 42.39 79.54 40.89 81.65 37.34 84.65 35.29 85.55 35.08 85.25 37.14 83.95 40.44 80.54 41.69 78.44 40.99 76.04 40.14 70.39 39.99 67.13 39.29 67.43 38.49 66.53Z M40.49 67.13L40.79 70.34 41.74 75.34 42.39 77.14 43.24 75.24 44.44 70.24 44.79 67.13 40.49 67.13Z"
     fill-rule="evenodd"
     fill="black"
     id="path5383" />
  <path
     d="M35.69 63.93L34.88 64.63 36.14 65.18 37.79 66.13 38.19 66.53 38.59 66.93 38.79 67.88 38.59 68.44 38.39 68.99 37.86 68.91 37.54 68.28 37.21 67.66 35.79 66.03 34.68 65.03 34.03 66.48 32.53 69.24 31.68 70.54 35.89 70.54 36.99 69.34 38.69 71.14 35.39 71.14 35.39 74.64 37.09 74.64 38.39 73.44 39.99 75.24 35.39 75.24 35.39 82.15 35.39 83 34.43 84.2 33.48 84.55 33.38 83.85 32.03 82.85 30.78 82.55 30.78 82.15 31.63 82.2 32.88 82.3 33.28 82.35 33.68 82.4 34.08 82.05 34.08 81.65 34.08 75.24 32.78 75.24 32.13 75.24 30.93 75.39 30.38 75.54 29.48 74.64 34.08 74.64 34.08 71.14 32.98 71.14 32.18 71.34 31.58 70.74 31.08 71.44 30.03 72.64 29.48 73.14 29.18 72.94 30.08 71.69 31.63 68.86 32.28 67.28 32.93 65.71 33.63 63.48 33.68 62.83 35.69 63.93Z"
     fill-rule="evenodd"
     fill="black"
     id="path5385" />
  <path
     d="M23.98 78.24L24.93 78.34 26.1 78.04 26.33 77.64 26.55 77.24 28.28 71.84 29.78 66.83 30.18 66.93 28.93 71.99 27.6 77.87 27.53 78.69 27.45 79.52 27.4 81.57 27.43 82.8 27.45 84.02 26.98 84.92 26.48 84.6 25.98 84.27 25.58 83.47 25.68 83 25.78 82.52 25.95 81.47 26.03 80.9 26.1 80.32 25.88 79.52 25.58 79.29 25.28 79.07 24.48 78.74 23.98 78.64 23.98 78.24Z"
     fill-rule="evenodd"
     fill="black"
     id="path5387" />
  <path
     d="M32.38 78.24L31.63 79.64 29.73 82.2 28.58 83.35 28.28 83.15 29.48 81.25 31.03 77.89 31.38 76.44 33.38 77.74 32.38 78.24Z"
     fill-rule="evenodd"
     fill="black"
     id="path5389" />
  <path
     d="M36.19 77.14L36.39 76.84 37.04 77.14 38.16 77.77 38.64 78.09 39.11 78.42 39.61 79.04 39.64 79.34 39.66 79.64 39.44 80.34 39.19 80.75 38.94 81.15 38.44 80.87 38.19 80.19 37.94 79.52 36.94 77.99 36.19 77.14 36.19 77.14Z"
     fill-rule="evenodd"
     fill="black"
     id="path5391" />
  <path
     d="M26.18 63.23L27.18 63.73 28.53 64.61 28.88 64.98 29.23 65.36 29.23 66.26 28.88 66.78 28.53 67.31 27.95 67.13 27.73 66.43 27.5 65.73 26.63 64.23 25.98 63.43 26.18 63.23Z"
     fill-rule="evenodd"
     fill="black"
     id="path5393" />
  <path
     d="M24.18 68.94L25.48 69.59 26.93 70.64 27.08 71.04 27.23 71.44 27.08 72.24 26.78 72.64 26.48 73.04 25.95 72.74 25.73 72.04 25.5 71.34 24.63 69.89 23.98 69.14 24.18 68.94Z"
     fill-rule="evenodd"
     fill="black"
     id="path5395" />
  <path
     d="M43.1 118.21L43.05 117.51 41.6 116.51 40.2 116.21 40.2 115.81 41.15 115.86 42.57 115.93 43.05 115.96 43.52 115.98 43.95 115.51 43.9 115.01 43.9 111.5 39.2 111.5 39.2 117.31 37.9 117.91 37.9 111.5 33.79 111.5 33.79 117.61 32.39 118.31 32.44 117.26 32.49 113.21 32.49 110.2 32.49 107.2 32.44 103.25 32.39 102.3 33.79 103.1 37.9 103.1 37.9 100.3 33.99 100.3 33.34 100.3 32.14 100.45 31.59 100.6 30.69 99.7 37.9 99.7 37.9 97.94 37.85 95.64 37.8 95.09 40.1 96.09 39.2 96.79 39.2 99.7 44.2 99.7 45.5 98.39 47.1 100.3 39.2 100.3 39.2 103.1 43.7 103.1 44.4 102.1 46 103.4 45.2 104 45.2 115.51 45.25 116.46 44.2 117.81 43.1 118.21 43.1 118.21Z M39.2 107.3L39.2 110.9 43.9 110.9 43.9 107.3 39.2 107.3Z M33.79 107.3L33.79 110.9 37.9 110.9 37.9 107.3 33.79 107.3Z M39.2 103.7L39.2 106.7 43.9 106.7 43.9 103.7 39.2 103.7Z M33.79 103.7L33.79 106.7 37.9 106.7 37.9 103.7 33.79 103.7Z"
     fill-rule="evenodd"
     fill="black"
     id="path5397" />
  <path
     d="M31.49 101.1L29.94 105.8 28.26 111.08 28.14 111.66 28.01 112.23 27.86 113.71 27.84 114.61 27.81 115.51 27.81 116.78 27.84 117.16 27.86 117.53 27.29 117.66 26.69 117.41 26.09 117.16 25.79 115.91 26.09 114.91 26.39 113.91 26.39 112.63 26.09 112.36 25.79 112.08 24.73 111.6 23.98 111.4 23.98 111 24.88 111.1 26.01 111.18 26.24 111.15 26.46 111.13 26.96 110.68 27.24 110.25 27.51 109.83 29.44 105.2 31.09 101 31.49 101.1Z"
     fill-rule="evenodd"
     fill="black"
     id="path5399" />
  <path
     d="M24.38 101.9L26.09 102.7 27.81 104 27.84 104.5 27.86 105 27.61 105.83 27.34 106.15 27.06 106.48 26.54 106.1 26.29 105.4 26.04 104.7 24.98 103.1 24.18 102.2 24.38 101.9Z"
     fill-rule="evenodd"
     fill="black"
     id="path5401" />
  <path
     d="M26.39 96.29L27.79 96.99 29.36 98.07 29.54 98.44 29.71 98.82 29.56 99.67 29.24 100.15 28.91 100.62 28.36 100.45 28.14 99.8 27.91 99.15 26.94 97.54 26.19 96.59 26.39 96.29Z"
     fill-rule="evenodd"
     fill="black"
     id="path5403" />
  <path
     d="M41.1 95.79L42.55 96.14 44.2 96.82 44.4 97.14 44.6 97.47 44.6 98.22 44.4 98.64 44.2 99.07 43.8 99.17 43.6 98.84 43.4 98.52 42.95 97.92 42.7 97.64 42.45 97.37 41.55 96.59 40.9 96.09 41.1 95.79Z"
     fill-rule="evenodd"
     fill="black"
     id="path5405" />
</svg>
