<?xml version="1.0" encoding="UTF-8" standalone="no"?>
<svg
   xmlns:dc="http://purl.org/dc/elements/1.1/"
   xmlns:cc="http://creativecommons.org/ns#"
   xmlns:rdf="http://www.w3.org/1999/02/22-rdf-syntax-ns#"
   xmlns:svg="http://www.w3.org/2000/svg"
   xmlns="http://www.w3.org/2000/svg"
   xmlns:xlink="http://www.w3.org/1999/xlink"
   xmlns:sodipodi="http://sodipodi.sourceforge.net/DTD/sodipodi-0.dtd"
   xmlns:inkscape="http://www.inkscape.org/namespaces/inkscape"
   width="800.000"
   height="400.000"
   viewBox="0.0 0.0 800.000 400.000"
   id="svg4285"
   onload="init(evt)"
   ondrop="drop(evt)"
   ondragover="allowDrop(evt)"
   version="1.1"
   inkscape:version="0.48.4 r9939"
   sodipodi:docname="2标边坡布置图-Model.svg">
  <script
    xlink:href="init.js"
    id="script3184"
    language="JavaScript" />
  <script
     xlink:href="jquery-2.0.3.min.js"
     id="script3186"
     language="JavaScript" />
  <script
     xlink:href="cookie.js"
     id="script3188"
     language="JavaScript" />
  <metadata
     id="metadata5583">
    <rdf:RDF>
      <cc:Work
         rdf:about="">
        <dc:format>image/svg+xml</dc:format>
        <dc:type
           rdf:resource="http://purl.org/dc/dcmitype/StillImage" />
      </cc:Work>
    </rdf:RDF>
  </metadata>
  <defs
     id="defs5581" />
  <sodipodi:namedview
     pagecolor="#ffffff"
     bordercolor="#666666"
     borderopacity="1"
     objecttolerance="10"
     gridtolerance="10"
     guidetolerance="10"
     inkscape:pageopacity="0"
     inkscape:pageshadow="2"
     inkscape:window-width="1920"
     inkscape:window-height="1018"
     id="namedview5579"
     showgrid="false"
     inkscape:zoom="1.1125147"
     inkscape:cx="408.4839"
     inkscape:cy="160.77978"
     inkscape:window-x="1432"
     inkscape:window-y="-8"
     inkscape:window-maximized="1"
     inkscape:current-layer="svg4285" />
  <title
     id="title4287">Produce by DWG to SVG Converter 2013 MX</title>
  <desc
     id="desc4289">Produce by DWG to SVG Converter 2013 MX</desc>
  <path
     d="m 80.119333,269.30078 2.957237,-2.64355 m -2.901228,21.00823 23.501078,-21.00823 m -23.44507,39.36289 44.04491,-39.36289 m -23.56828,39.48305 44.15693,-39.48305 m -23.55709,39.48305 13.16195,-11.77583 m 9.499,-8.48139 21.49598,-19.22583 m -23.56828,39.48305 4.22303,-3.76507 m 6.81059,-6.08817 15.72713,-14.0689 m 10.57436,-9.44269 6.83301,-6.11822 m -23.56828,39.48305 6.16091,-5.5074 m 10.57436,-9.4527 27.43287,-24.52295 m -23.56829,39.48305 44.16813,-39.48305 m -23.56829,39.48305 44.16813,-39.48305 m -23.56828,39.48305 44.15693,-39.48305 m -23.55709,39.48305 44.15693,-39.48305 m -23.56828,39.48305 44.16812,-39.48305 m -23.56828,39.48305 44.16814,-39.48305 m -23.5683,39.48305 44.16814,-39.48305 m -23.56828,39.48305 44.16812,-39.48305 m -23.56828,39.48305 44.16812,-39.48305 m -23.56828,39.48305 44.15693,-39.48305 m -23.55708,39.48305 44.15692,-39.48305 m -23.56828,39.48305 44.16813,-39.48305 m -23.56829,39.48305 44.16814,-39.48305 m -23.56828,39.48305 44.16812,-39.48305 m -23.56828,39.48305 44.16812,-39.48305 m -23.56828,39.48305 44.15693,-39.48305 m -23.55708,39.48305 44.15692,-39.48305 m -23.56828,39.48305 44.16813,-39.48305 m -23.56829,39.48305 44.16814,-39.48305 m -23.56828,39.48305 44.16812,-39.48305 m -23.56828,39.48305 44.16812,-39.48305 m -23.56828,39.48305 44.16814,-39.48305 m -23.56829,39.48305 31.99192,-28.59843 m 10.57438,-9.4527 1.59063,-1.43192 m -23.55708,39.48305 11.39207,-10.18369 m 10.57438,-9.4527 22.19047,-19.84666 m -22.19047,38.2614 42.79032,-38.2614 m -23.56828,39.48305 8.1212,-7.24975 m 12.62426,-11.29517 23.42266,-20.93813 m -23.56828,39.48305 44.16813,-39.48305 m -23.56829,39.48305 44.16814,-39.48305 m -23.5683,39.48305 26.58154,-23.76193 m -5.98168,23.76193 5.98168,-5.3572"
     id="path4315"
     inkscape:connector-curvature="0"
     style="fill:none;stroke:#000000;stroke-width:0.52954519" />
  <path
     d="m 31.459339,306.14028 754.969211,0"
     id="path4317"
     inkscape:connector-curvature="0"
     style="fill:none;stroke:#000000;stroke-width:0.52954519" />
  <path
     d="m 776.97435,231.97063 -3.49491,3.46465 m -35.35244,-3.46465 -3.49491,3.46465 m -35.34122,-3.47467 -3.49492,3.47467 m -35.34122,-3.47467 -3.49492,3.47467 m -35.34123,-3.47467 -3.49491,3.47467 m -35.34122,-3.47467 -3.49493,3.47467 m -35.35242,-3.47467 -3.49491,3.46466 m -35.34124,-3.47467 -3.49491,3.47467 m -35.34122,-3.47467 -3.49492,3.47467 m -35.34122,-3.47467 -3.49492,3.47467 m -35.34123,-3.47467 -3.49491,3.47467 m -35.34122,-3.47467 -3.50613,3.47467 m -35.34122,-3.47467 -3.49491,3.46465 m -35.34123,-3.47466 -3.49492,3.47466 m -35.34122,-3.47466 -3.49492,3.47466 m -35.34122,-3.47466 -3.49491,3.47466 m -35.34124,-3.47466 -3.49491,3.47466 m 621.46787,-0.01 -8.92772,0.70094 m -29.90841,-0.70094 -8.93893,0.70094 m -29.90842,-0.70094 -8.92772,0.70094 m -29.90843,-0.70094 -8.93891,0.70094 m -29.90842,-0.70094 -8.92773,0.70094 m -29.90842,-0.70094 -8.93891,0.70094 m -29.90843,-0.69093 -8.92772,0.69093 m -29.90842,-0.69093 -8.93893,0.69093 m -29.90841,-0.69093 -8.93893,0.69093 m -29.90842,-0.69093 -8.92772,0.69093 m -29.90842,-0.69093 -8.93892,0.69093 m -29.90842,-0.69093 -8.92772,0.69093 m -29.90842,-0.69093 -8.93892,0.69093 m -29.90842,-0.69093 -8.92772,0.69093 m -29.90843,-0.69093 -8.93892,0.69093 m -29.90841,-0.69093 -8.92773,0.69093 m -29.90842,-0.69093 -8.93893,0.69093 m 0,0 -4.26782,-4.1656 m 43.10397,4.1656 -2.73321,-2.67359 m 37.30152,33.22464 0,0 m 4.26783,-30.56106 -4.26783,-4.16559 m 38.84735,34.72665 -0.0114,0 m 4.26782,-30.56106 -4.26782,-4.16559 m 38.84734,34.72665 -0.0114,-0.01 m 4.26783,-30.55104 -4.26783,-4.1656 m 38.84735,34.72666 -0.0114,-0.01 m 4.26783,-30.56106 -4.26783,-4.1656 m 38.85854,34.73667 -0.0224,-0.02 m 4.26783,-30.55105 -4.26783,-4.16559 m 38.85854,34.73667 -0.0224,-0.02 m 4.26782,-30.55106 -4.26782,-4.17561 m 38.86974,34.74669 -0.0336,-0.02 m 4.27904,-30.56106 -4.27904,-4.1656 m 38.86974,34.74669 -0.0336,-0.0301 m 4.27903,-30.55104 -4.27903,-4.1656 m 38.86975,34.74669 -0.0225,-0.0301 m 4.26784,-30.56106 -4.27903,-4.16559 m 38.88094,34.75669 -0.0336,-0.0301 m 4.26784,-30.56106 -4.27904,-4.16559 m 38.88095,34.75669 -0.0336,-0.0401 m 4.26784,-30.55105 -4.27904,-4.1656 m 38.89216,34.7567 -0.0448,-0.0401 m 38.88094,0.0401 -0.0448,-0.0401 m -34.5683,-30.56107 -4.27903,-4.1656 m 43.11517,4.1656 -4.27903,-4.1656 m 38.89215,34.76672 -0.0448,-0.0501 m 4.26784,-30.55104 -4.26784,-4.1656 m 38.89216,34.76671 -0.056,-0.0501 m 4.26782,-30.56107 -4.26782,-4.16559 m -10.8208,12.81722 -0.39206,7.2998 m -116.12757,-7.27978 -0.39206,7.2898 m -38.45527,-7.27978 -0.38086,7.2898 m -38.45529,-7.2898 -0.22403,4.10551 m -38.62332,-4.09549 -0.38085,7.28979 m -38.45528,-7.28979 -0.39206,7.28979 m -38.44409,-7.27978 -0.39206,7.28979 m -38.45528,-7.28979 -0.38085,7.28979 m -38.45529,-7.27978 -0.10087,1.79241 m -38.73533,-1.79241 -0.39205,7.28979 m -38.45529,-7.27978 -0.38086,7.2898 m -38.45528,-7.2898 -0.39207,7.2898 m -38.45528,-7.27978 -0.38085,7.28979 m -38.45528,-7.28979 -0.39207,7.28979 m -38.44408,-7.27978 -0.39206,7.2898 m 621.37827,-0.13018 0.0672,0.14019 m -35.9349,6.14826 0.14562,0.31042 m -80.78634,-6.57884 3.11405,6.59887 m -41.9502,-6.58886 3.11407,6.59887 m -39.58666,-1.58213 0.75051,1.59214 m -41.95019,-6.58886 3.11405,6.58886 m -41.9502,-6.57884 3.11406,6.58885 m -41.9502,-6.58885 3.11406,6.59887 m -41.95021,-6.58885 3.11407,6.59886 m -80.78634,-6.57884 3.11406,6.59887 m -41.95021,-6.58886 3.11407,6.58886 m -41.9502,-6.58886 3.10285,6.59887 m -41.939,-6.58885 3.10286,6.59886 m -41.939,-6.58885 2.22913,4.73636 m -41.06528,-4.72634 3.10286,6.59886 m 629.15221,-34.39621 0.43687,0.02 m -39.28421,-0.02 0.44807,0.02 m -39.28421,-0.02 0.44807,0.02 m -39.2842,-0.02 0.43685,0.02 m -39.2842,-0.02 0.44806,0.02 m -39.28421,-0.02 0.44808,0.02 m -39.28421,-0.02 0.43686,0.02 m -39.28421,-0.02 0.44807,0.02 m -39.2842,-0.02 0.44806,0.02 m -39.29541,-0.02 0.44806,0.02 m -39.28421,-0.02 0.44808,0.02 m -39.28421,-0.02 0.44806,0.02 m -39.29541,-0.02 0.44806,0.02 m -39.2842,-0.02 0.44807,0.02 m -39.28421,-0.02 0.44807,0.02 m -78.13155,-0.02 0.44806,0.02 m 574.44333,34.37618 8.166,0.34046 m -42.6335,-0.16021 3.78616,0.16021 m -46.99095,-0.34046 8.15481,0.34046 m -47.00215,-0.34046 8.166,0.34046 m -47.00214,-0.34046 8.15481,0.34046 m -46.99096,-0.34046 8.15481,0.34046 m -47.00215,-0.34046 8.16601,0.34046 m -47.00215,-0.34046 8.15481,0.34046 m -46.99094,-0.34046 8.1548,0.34046 m -39.17219,-0.01 0.33604,0.01 m -47.00215,-0.34046 8.15481,0.34046 m -46.99094,-0.34046 8.1548,0.34046 m -47.00215,-0.34046 8.16602,0.34046 m -47.00216,-0.34046 8.15481,0.34046 m -85.8383,-0.34046 8.16602,0.34046 m -0.0114,-34.71664 0.0336,-0.02 m -0.0223,34.73667 4.41344,-3.04409 m 73.25883,-31.67256 0.0336,-0.02 m -37.33512,33.68526 7.01223,-4.84651 m 69.13663,-28.81872 0.0223,-0.02 m -38.85855,34.73667 8.54687,-5.89792 m 69.13662,-28.81873 0.0224,-0.02 m -38.86974,34.73667 8.54687,-5.89792 m 69.13662,-28.81872 0.0223,-0.02 m -38.85854,34.73668 8.54686,-5.90794 m 69.13662,-28.81872 0.0224,-0.01 m -38.85855,34.73667 8.53567,-5.90794 m 69.13662,-28.81871 0.0224,-0.01 m -38.85854,34.73667 8.54686,-5.90794 m 69.13662,-28.81872 0.0114,-0.01 m -38.84734,34.72666 8.54687,-5.89792 m 69.13661,-28.81872 0.0114,-0.01 m -38.85855,34.72665 8.54686,-5.89792 m 69.13663,-28.81871 0.0114,-0.01 m -38.84734,34.72665 8.54687,-5.89792 m 69.13662,-28.81872 0.0114,-0.01 m -38.84734,34.72666 8.53566,-5.89792 m 69.13662,-28.81872 0.0114,-0.01 m -38.84734,34.72665 8.54687,-5.90793 m 69.13662,-28.81872 0,0 m -38.83615,34.72665 8.54688,-5.90793 m 30.28927,5.90793 8.54686,-5.90793 m 30.30049,-28.81872 0,0 m 38.83613,0 0,0 m -38.83613,34.72665 8.54686,-5.90793 m 30.28927,5.89792 8.54686,-5.89792 m -543.79559,0.02 3.10286,-8.68167 m 35.73329,8.67165 3.11406,-8.68167 m 35.73328,8.68167 3.10285,-8.68167 m 35.73329,8.67166 3.11406,-8.67166 m 35.73329,8.67166 3.10286,-8.68167 m 35.73327,8.68167 3.11406,-8.68167 m 35.73329,8.67165 3.10286,-8.68166 m 35.73328,8.68166 3.11406,-8.68166 m 35.73328,8.67165 3.10286,-8.67165 m 35.73329,8.67165 3.11405,-8.68166 m 35.73328,8.68166 3.10286,-8.68166 m 35.73329,8.67164 3.11406,-8.68166 m 35.73328,8.68166 3.10286,-8.68166 m 35.73328,8.67166 3.11406,-8.67166 m 35.73329,8.67166 3.10286,-8.68167 m 36.08053,7.71036 2.76681,-7.71036 m -624.60435,-4.51607 -1.14256,-1.67225 m 43.11517,6.2484 -4.26782,-6.2484 m 43.11517,6.2484 -4.27904,-6.2484 m 43.11517,6.2484 -4.26782,-6.2484 m 43.11517,6.2484 -4.27904,-6.2484 m 43.11519,6.2484 -4.26784,-6.2484 m 43.10397,6.2484 -4.26782,-6.2484 m 43.11517,6.2484 -4.27904,-6.2484 m 43.11518,6.2484 -4.26783,-6.2484 m 43.11517,6.2484 -4.27903,-6.2484 m 43.11518,6.25841 -4.26784,-6.25841 m 43.11517,6.25841 -4.27902,-6.25841 m 43.11517,6.25841 -4.26784,-6.25841 m 43.10398,6.25841 -4.26783,-6.25841 m 43.11517,6.25841 -4.27903,-6.24839 m 43.11517,6.24839 -4.26783,-6.24839 m 43.11517,6.24839 -4.27903,-6.24839 m -621.45667,-0.01 -9.31977,-0.69092 m 48.16712,0.69092 -5.84727,-0.43058 m 44.6834,0.43058 -9.31977,-0.69092 m 48.15592,0.69092 -9.31978,-0.69092 m 48.16711,0.69092 -9.31977,-0.69092 m 48.15592,0.69092 -9.31978,-0.69092 m 48.15592,0.69092 -9.31977,-0.69092 m 48.16711,0.69092 -9.31977,-0.69092 m 48.15591,0.69092 -9.31977,-0.69092 m 48.16712,0.69092 -9.33099,-0.69092 m 48.16713,0.69092 -9.31978,-0.69092 m 48.15592,0.69092 -9.31977,-0.69092 m 48.16711,0.69092 -9.33098,-0.69092 m 48.16712,0.69092 -9.31977,-0.69092 m 48.15592,0.69092 -9.31978,-0.69092 m 48.16712,0.69092 -9.33098,-0.69092 m 48.16712,0.69092 -9.31977,-0.69092 m 0.14562,-0.12017 -8.93893,7.2898 m -29.90842,-7.27979 -5.21997,4.24571 m -33.62737,-4.24571 -1.98269,1.62218 m -36.87586,-1.61217 -8.92771,7.2898 m -29.91963,-7.27978 -8.92772,7.28979 m -29.91963,-7.27978 -8.92771,7.2898 m -29.91962,-7.2898 -8.93893,7.2898 m -29.90841,-7.27978 -8.93893,7.28979 m -29.90842,-7.27978 -8.93893,7.2898 m -29.91961,-7.2898 -8.92772,7.29981 m -29.91963,-7.2898 -8.92771,7.2898 m -29.91963,-7.27978 -8.92772,7.28979 m -29.91963,-7.27978 -8.93891,7.2898 m -29.90843,-7.2898 -8.93892,7.29981 m -29.90843,-7.28979 -8.93891,7.28979 m -37.02147,-1.48199 -1.82588,1.49201 m -29.91961,-7.27978 -8.92773,7.28978 m -0.39206,0.35047 0,0 m 38.83614,0 -3.10286,-2.43326 m 41.93901,2.42325 -3.10286,-2.43327 m 41.939,2.43327 -3.10286,-2.43327 m 41.939,2.42326 -3.10286,-2.42326 m 41.939,2.42326 -3.10286,-2.43327 m 41.93901,2.43327 -3.10286,-2.43327 m 41.93899,2.42326 -3.10285,-2.42326 m 41.93899,2.42326 -3.10286,-2.43328 m 41.93901,2.43328 -3.10286,-2.43328 m 41.939,2.42326 -3.10286,-2.42326 m 41.939,2.42326 -3.10286,-2.43327 m 41.939,2.43327 -3.10286,-2.43327 m 41.93901,2.42326 -3.10287,-2.42326 m 38.89215,0.0401 -0.056,-0.0501 m 39.2394,0.32044 -0.40326,-0.32044 m 41.939,2.42326 -3.10286,-2.42326 m 40.56119,1.35183 -1.72504,-1.36184 m -621.37827,0.0601 -7.76275,-1.0414 m 46.59889,1.0414 -7.76274,-1.0414 m 46.61008,1.0414 -7.77394,-1.0414 m 46.61009,1.0414 -7.76275,-1.0414 m 46.61009,1.0414 -7.77395,-1.0414 m 46.61009,1.0414 -7.76275,-1.0414 m 46.6101,1.0414 -7.77396,-1.0414 m 46.6101,1.0414 -7.76276,-1.0414 m 46.6101,1.0414 -7.77395,-1.0414 m 46.61009,1.0414 -7.76274,-1.0414 m 46.61008,1.0414 -7.77395,-1.0414 m 46.6101,1.0414 -7.76275,-1.0414 m 46.59889,1.0414 -7.76275,-1.0414 m 46.59888,1.0414 -7.76274,-1.0414 m 46.61009,1.0414 -7.76275,-1.0414 m 46.61009,1.0414 -7.77395,-1.0414 m 46.61009,1.0414 -7.76274,-1.0414 m -0.0225,0 -3.87577,3.47467 m -34.96036,-3.47467 -3.88698,3.47467 m -34.94917,-3.47467 -3.88697,3.47467 m -34.96036,-3.47467 -3.87579,3.47467 m -34.96036,-3.47467 -3.88697,3.47467 m -34.94917,-3.47467 -3.88698,3.47467 m -34.96036,-3.47467 -3.88698,3.47467 m -34.94916,-3.47467 -3.88698,3.47467 m -34.96037,-3.47467 -3.87577,3.47467 m -34.96037,-3.47467 -3.88697,3.47467 m -34.94917,-3.47467 -3.88698,3.47467 m -34.96036,-3.47467 -3.87578,3.47467 m -34.96036,-3.47467 -3.88698,3.47467 m -34.94917,-3.47467 -3.88697,3.47467 m -34.96037,-3.47467 -3.87577,3.47467 m -34.96037,-3.47467 -3.88698,3.47467 m -34.94916,-3.47467 -3.06925,2.73368 m 621.82632,-6.9193 -2.7108,1.0414 m -36.12534,-1.0414 -2.722,1.0414 m -36.12534,-1.0414 -2.7108,1.0414 m -36.12535,-1.0414 -2.722,1.0414 m -36.12534,-1.0414 -2.722,1.0414 m -36.12533,-1.0414 -2.71081,1.05141 m -36.12534,-1.0414 -2.722,1.0414 m -36.12535,-1.0414 -2.71079,1.0414 m -36.12534,-1.0414 -2.722,1.0414 m -36.12535,-1.0414 -2.722,1.0414 m -36.12534,-1.0414 -2.71081,1.0414 m -36.12533,-1.0414 -2.722,1.0414 m -36.12534,-1.0414 -2.71081,1.0414 m -36.12533,-1.0414 -2.72201,1.0414 m -36.12534,-1.0414 -2.722,1.0414 m -36.12534,-1.03138 -2.7108,1.0414 m -36.12535,-1.0414 -2.722,1.0414 m 621.45668,0.02 1.54582,3.47467 m -40.39317,-3.47467 1.55704,3.47467 m -40.39317,-3.47467 1.55702,3.47467 m -40.39317,-3.47467 1.54582,3.46466 m -40.39317,-3.46466 1.55704,3.46466 m -40.39317,-3.47468 1.54582,3.47468 m -40.39317,-3.47468 1.55703,3.47468 m -40.39317,-3.47468 1.55703,3.47468 m -40.40437,-3.47468 1.55703,3.47468 m -40.39318,-3.47468 1.55704,3.46466 m -40.39317,-3.46466 1.54582,3.46466 m -40.39317,-3.47467 1.55703,3.47467 m -40.39317,-3.47467 1.54583,3.47467 m -40.39317,-3.47467 1.55703,3.47467 m -40.39317,-3.47467 1.55703,3.47467 m -40.39317,-3.47467 1.54582,3.47467 m -40.39317,-3.47467 1.55703,3.46466 m 0,0 5.82486,-3.1242 m 33.01128,3.1242 5.82487,-3.1242 m 33.02248,3.1242 5.82485,-3.1242 m 33.01129,3.1242 5.82486,-3.1242 m 33.01128,3.1242 5.82486,-3.1242 m 33.02248,3.1242 5.82486,-3.1242 m 33.01128,3.1242 5.82486,-3.1242 m 33.02249,3.1242 5.82486,-3.1242 m 33.01128,3.1242 5.82486,-3.1242 m 33.01128,3.1242 5.82486,-3.1242 m 33.02248,3.1242 5.82486,-3.1242 m 33.01128,3.1242 5.82486,-3.1242 m 33.01129,3.1242 5.83606,-3.1242 m 33.01127,3.1242 5.82487,-3.1242 m 33.01128,3.1242 5.82486,-3.1242 m 33.02249,3.1242 5.82486,-3.1242 m 33.01127,3.1242 5.82486,-3.1242 m -621.44547,0 -4.65989,-1.38185 m 43.49604,1.38185 -4.65989,-1.38185 m 43.50722,1.38185 -4.65988,-1.38185 m 43.49603,1.38185 -4.65989,-1.38185 m 43.49603,1.38185 -4.65988,-1.38185 m 43.50722,1.38185 -4.65989,-1.38185 m 43.49603,1.38185 -4.65988,-1.38185 m 43.49603,1.38185 -4.65989,-1.38185 m 43.50723,1.38185 -4.65989,-1.38185 m 43.49603,1.38185 -4.65989,-1.38185 m 43.50723,1.38185 -4.65989,-1.38185 m 43.49603,1.38185 -4.65988,-1.38185 m 43.49603,1.38185 -4.65989,-1.38185 m 43.50723,1.38185 -4.65989,-1.38185 m 43.49603,1.38185 -4.65989,-1.38185 m 43.49603,1.38185 -4.65988,-1.38185 m 43.50722,1.38185 -4.65988,-1.38185 m -646.69401,1.04139 6.60898,-1.74234 m 32.22716,1.74234 2.22914,-0.59079 m 36.60701,0.59079 6.60897,-1.74234 m 32.23837,1.74234 6.59778,-1.74234 m 32.23836,1.74234 6.59777,-1.73232 m 32.23837,1.73232 6.60898,-1.73232 m 32.22716,1.73232 6.60897,-1.73232 m 32.22717,1.73232 6.60898,-1.73232 m 32.23837,1.73232 6.59777,-1.73232 m 32.23836,1.73232 6.59779,-1.73232 m 32.23836,1.73232 6.60898,-1.73232 m 32.22716,1.73232 6.60898,-1.73232 m 32.22716,1.73232 6.60897,-1.73232 m 32.23838,1.73232 6.59777,-1.73232 m 71.0745,1.73232 6.60898,-1.73232 m 32.22717,1.73232 6.60897,-1.73232 m -621.41186,-0.01 1.93789,-4.85652 m 75.73439,4.87655 1.93789,-4.86653 m 36.89826,4.86653 1.93788,-4.85652 m 36.89825,4.86654 1.93789,-4.86654 m 36.89826,4.86654 1.94909,-4.85652 m 36.88705,4.86653 1.94909,-4.85653 m 36.88704,4.86655 1.94909,-4.86655 m 36.89826,4.86655 1.93789,-4.85653 m 36.89826,4.86653 1.93788,-4.86653 m 36.89825,4.86653 1.93789,-4.85652 m 36.89826,4.86654 1.93788,-4.85652 m 36.89826,4.86653 1.93789,-4.86653 m 36.89824,4.86653 1.94909,-4.85652 m 37.7944,2.61351 1.04175,-2.60349 m 36.88705,4.86653 1.94909,-4.86653 m 36.89825,4.86653 1.93789,-4.85653 m 21.37276,-0.1502 2.32995,4.85653 m -41.16609,-4.85653 2.32995,4.86654 m 36.50619,29.85011 0.0336,0.0501 m -38.86975,-0.0401 0.0225,0.0401 M 701.24,231.89065 l 2.32994,4.86654 m -2.32994,29.86012 0.0223,0.0401 m -38.85854,-34.7567 2.32994,4.85652 m -2.32994,29.86012 0.0114,0.0401 m -38.84735,-34.7567 2.32995,4.86654 m -2.32995,29.86011 0.0114,0.0301 m -38.85854,-34.7567 2.32993,4.86654 m -2.32993,29.86012 0.0223,0.0301 m -38.85855,-34.74669 2.32995,4.85653 m -2.32995,29.86012 0.0114,0.0301 m -38.84735,-34.74669 2.32995,4.85653 m -2.32995,29.87014 0.0114,0.02 m -38.84734,-34.74669 2.32994,4.86654 m -2.32994,29.86012 0.0114,0.02 m -38.85854,-34.73667 2.32995,4.85652 m -2.31875,29.86013 0,0.02 m -38.84735,-34.73667 2.32995,4.85652 m -2.32995,29.87013 0.0114,0.01 m -38.84733,-34.73667 2.32993,4.86654 m -2.32993,29.86011 0.0114,0.01 m -38.84733,-34.72666 2.32995,4.85652 m -2.32995,29.86012 0,0.01 m -38.83615,-34.72666 2.32995,4.85653 m -2.32995,29.86011 0,0.01 m -38.84734,-34.72665 2.32994,4.86653 m -2.32994,29.86012 0.0114,0 m -38.84734,-34.71664 2.32995,4.85652 m -2.32995,29.86012 0,0 m -38.83614,-34.71664 2.32995,4.85652 m 621.41187,0 5.18636,1.36183 m -44.02251,-1.36183 6.59778,1.73233 m -45.43392,-1.73233 6.59777,1.73233 m -45.43392,-1.73233 3.51733,0.92124 m -42.36466,-0.92124 6.60897,1.73233 m -45.44512,-1.73233 6.60898,1.73233 m -45.44511,-1.73233 6.59777,1.73233 m -45.43392,-1.73233 6.59778,1.73233 m -45.43392,-1.73233 6.59777,1.73233 m -45.44511,-1.73233 6.60898,1.73233 m -45.44512,-1.73233 6.60898,1.73233 m -45.44513,-1.73233 6.59778,1.73233 m -45.43391,-1.73233 6.59777,1.74235 m -45.43391,-1.74235 6.59777,1.74235 m -45.44512,-1.74235 6.60897,1.74235 m -45.44511,-1.74235 6.60898,1.74235 m -45.44512,-1.74235 6.59777,1.74235 m -38.83614,0 0,0 m 621.41187,-13.20775 6.21692,2.0828 m -45.05307,-2.0828 6.21693,2.0828 m -83.88921,-2.0828 6.20572,2.0828 m -45.05306,-2.0828 6.21692,2.0828 m 110.3027,32.64385 6.21693,2.0828 m -161.57269,-36.80945 6.21692,2.0828 m 71.46656,32.64385 6.21692,2.0828 m -122.73654,-36.80945 6.21692,2.09281 m 71.46656,32.63384 6.21692,2.0828 m -122.73655,-36.79944 6.21693,2.0828 m 71.79141,32.74399 5.88087,1.97265 m -122.72534,-36.79944 6.20571,2.0828 m 71.46657,32.63384 6.21692,2.0828 m -122.73655,-36.79944 6.21693,2.0828 m 71.46655,32.63384 6.21693,2.0828 m -122.73655,-36.79944 6.21692,2.0828 m 71.46657,32.63384 6.21691,2.0828 m -122.73654,-36.7995 6.21692,2.0828 m 71.46657,32.63384 6.20572,2.0828 m -122.72535,-36.79944 6.20572,2.0828 m -45.05306,-2.0828 6.21691,2.0828 m 71.46657,32.63384 6.21692,2.0828 m -122.73654,-36.79944 6.21691,2.0828 m 71.46657,32.63384 6.21692,2.0828 m -122.73655,-36.79944 2.22913,0.75101 m 75.45435,33.96563 6.21693,2.0828 m -122.73655,-36.79944 6.20572,2.0828 m 71.47777,32.63384 6.20571,2.0828 m -45.05306,-2.0828 2.22913,0.75101 m -41.06527,-0.75101 6.21692,2.09282 m 621.47908,-34.64655 2.32994,4.51606 m -0.30245,34.13587 0.26884,0.50067 m -41.13248,-39.1526 2.32995,4.50605 m -2.32995,30.21059 2.28514,4.43596 m -39.91149,-36.79944 1.10896,2.15289 m -1.10896,32.56376 1.07535,2.08279 m -41.14369,-39.16262 2.34116,4.50606 m -2.34116,30.21059 2.30756,4.44597 m -41.14369,-39.17263 2.32994,4.51607 m -2.32994,30.20057 2.29634,4.45599 m -41.14369,-39.17263 2.32995,4.50606 m -2.32995,30.21058 2.30754,4.45599 m -41.14367,-39.18264 2.32994,4.51607 m -2.32994,30.20057 2.29633,4.466 m -41.14368,-39.18264 2.32995,4.50605 m -2.32995,30.21059 2.30754,4.466 m -41.14368,-39.19265 2.32994,4.51606 m -2.34114,30.20057 2.31874,4.47602 m -41.15488,-39.19265 2.32995,4.50605 m -2.32995,30.21058 2.30754,4.47602 m -41.15489,-39.20267 2.32995,4.51607 m -2.21793,30.42087 2.20672,4.26573 m -41.15487,-39.20267 2.32993,4.51607 m -2.32993,30.20057 2.31874,4.48603 m -41.16609,-39.21268 2.32995,4.51606 m -2.32995,30.20058 2.31874,4.49604 m -41.15488,-39.21268 2.32994,4.51606 m -2.32994,30.20058 2.31874,4.49604 m -41.16609,-39.2227 2.32995,4.51607 m -2.32995,30.20058 2.32995,4.50605 m -80.01343,-39.23271 2.32995,4.51607 m -2.32995,30.21059 2.32995,4.50605 m 21.75361,-34.71664 2.32994,-4.86654 m -2.32994,39.58318 2.32994,-4.85652 m 36.50621,-29.86012 2.32994,-4.85653 m -2.32994,39.57317 2.32994,-4.85652 m 36.50619,-29.86012 2.32995,-4.85653 m -2.32995,39.57317 2.32995,-4.85652 m 36.5062,-29.85011 2.32994,-4.86654 m -2.31874,39.57317 2.31874,-4.84651 m 36.51739,-29.86012 2.32995,-4.85653 m -2.32995,39.56316 2.32995,-4.84651 m 36.5062,-29.86012 2.32995,-4.85653 m -2.32995,39.56316 2.32995,-4.84651 m 36.50619,-29.85011 2.32994,-4.86654 m -2.31873,39.56316 2.31873,-4.83649 m 36.50621,-29.86013 2.32993,-4.85652 m -2.31874,39.55314 2.31874,-4.83649 m 36.5062,-29.86013 2.32995,-4.85652 m -2.31875,39.55314 2.31875,-4.83649 m 36.5174,-29.85011 2.32994,-4.86654 m -2.31874,39.55314 2.31874,-4.82649 m 36.50619,-29.86011 2.32995,-4.86654 m -2.31874,39.55314 1.78107,-3.71499 m 37.04387,-30.97161 2.32995,-4.85653 m -2.31875,39.54313 2.31875,-4.82649 m 36.50619,-29.8501 2.32994,-4.86654 m -2.30754,39.54313 2.30754,-4.81647 m 36.50621,-29.86012 2.34114,-4.86654 m -2.31875,39.54313 2.30754,-4.81647 m 36.5174,-29.86012 2.32995,-4.85652 m -2.30754,39.53311 2.30754,-4.81647 m 36.5062,-29.86012 2.32994,-4.85652 m -2.30754,39.53311 2.30754,-4.80646 m 36.50619,-29.86011 2.32995,-4.86654 m -2.30754,39.53311 0.24644,-0.50067 m -651.98119,-40.81484 0.0114,0 m 32.61922,1.73233 6.21692,-1.73233 m 32.61922,1.73233 6.21692,-1.73233 m 32.63043,1.73233 6.20571,-1.73233 m -116.51963,34.71664 0,0 m 32.63043,1.74235 6.20572,-1.74235 m 110.3139,-32.98431 6.21693,-1.73233 m 32.61922,1.74234 6.21692,-1.74234 m -122.73655,36.45899 6.21692,-1.73233 m 149.13885,-32.98432 6.21691,-1.74234 m -122.73654,36.45899 6.21692,-1.73233 m 149.13884,-32.98432 6.21693,-1.74234 m -122.73654,36.45899 6.21691,-1.73233 m 149.15005,-32.98432 6.20572,-1.74234 m -122.72534,36.45899 6.20572,-1.73233 m 149.15005,-32.98432 6.21691,-1.74234 m -122.73654,36.45899 3.11405,-0.87118 m 152.24171,-33.84547 6.21693,-1.74234 m -122.73656,36.45899 6.21693,-1.73233 m 149.13885,-32.98432 6.21692,-1.74234 m -122.73655,36.45899 6.21692,-1.73233 m 149.15005,-32.98432 6.20571,-1.74234 m -122.73654,36.45899 6.21692,-1.73233 m 149.15005,-32.98432 6.21692,-1.73232 m -122.73655,36.44897 6.20572,-1.73233 m 149.15005,-32.98432 3.12526,-0.87116 m -80.80874,35.58781 6.21691,-1.73233 m 32.61922,1.73233 6.21693,-1.73233 m 71.46657,-32.98432 6.21691,-1.73232 m 32.61922,1.73232 6.21692,-1.73232 m 32.63043,1.73232 4.7831,-1.33178 m -121.30273,36.04843 3.12526,-0.87118 m 35.71089,0.88119 6.21691,-1.74234 m 32.61922,1.74234 2.08351,-0.5908 m 40.03472,-0.33044 1.51222,-0.42057 m -647.56772,-28.52832 1.16496,-2.78375 m -1.16496,37.50039 1.16496,-2.77372 m 76.50731,-31.94292 1.16498,-2.77373 m -1.16498,37.49037 1.16498,-2.77372 m 37.67117,-31.94292 1.17617,-2.77373 m -1.16497,37.49037 1.15377,-2.77372 m 37.68237,-31.93291 1.16497,-2.78374 m -1.16497,37.49037 1.16497,-2.76371 m 37.67117,-31.94292 1.16498,-2.78374 m -1.16498,37.49037 1.16498,-2.76371 m 37.67117,-31.94292 1.16496,-2.77372 m -1.15377,37.48035 1.15377,-2.76371 m 37.68237,-31.94292 1.16498,-2.77372 m -1.16498,37.48035 1.16498,-2.76371 m 37.67117,-31.94292 1.16497,-2.77372 m -1.16497,37.48035 1.16497,-2.76371 m 37.67117,-31.94292 1.16497,-2.77372 m -1.15378,37.48035 1.15378,-2.76371 m 37.68237,-31.93291 1.16497,-2.78373 m -1.16497,37.48035 1.16497,-2.7537 m 37.67117,-31.94292 1.16498,-2.78373 m -1.15378,37.48035 1.15378,-2.7537 m 37.67116,-31.94292 1.16497,-2.77372 m -1.15377,37.47034 1.15377,-2.7537 m 37.67117,-31.94292 1.16498,-2.77372 m -1.15377,37.47034 1.15377,-2.7537 m 37.68237,-31.94292 1.16496,-2.77372 m -1.15377,37.47034 1.15377,-2.7537 m 37.67117,-31.9329 1.16498,-2.78374 m -1.15377,37.47034 1.15377,-2.74369 m 37.68237,2.74369 0.21283,-0.50067 m -0.22403,-34.18593 1.16497,-2.78374 m -605.88637,37.47034 -0.39205,-1.73233 m 0.39205,-32.98431 -0.39205,-1.74234 m 39.22819,36.45898 -0.39206,-1.73233 m 0.39206,-32.98431 -0.39206,-1.74234 m 39.22821,36.45898 -0.38086,-1.74234 m 0.38086,-32.98431 -0.38086,-1.73233 m 39.22819,36.44897 -0.39205,-1.73233 m 0.38085,-32.98431 -0.38085,-1.73233 m 39.2282,36.44897 -0.39206,-1.73233 m 0.39206,-32.98431 -0.39206,-1.74235 m 39.2282,36.45899 -0.39206,-1.73233 m 0.39206,-32.98431 -0.39206,-1.74235 m 39.2282,36.45899 -0.38085,-1.74234 m 0.38085,-32.98432 -0.38085,-1.73233 m 39.2282,36.44898 -0.39207,-1.73233 m 0.39207,-32.98432 -0.39207,-1.73233 m 39.2282,36.44898 -0.39205,-1.73233 m 0.39205,-32.98432 -0.39205,-1.74234 m 39.22819,36.45899 -0.38086,-1.73233 m 0.38086,-32.98432 -0.38086,-1.74234 m 39.22821,36.45899 -0.39206,-1.74235 m 0.39206,-32.98432 -0.39206,-1.73232 m 39.2282,36.44897 -0.39206,-1.73233 m 0.39206,-32.98432 -0.39206,-1.73232 m 39.2282,36.44897 -0.38086,-1.73233 m 0.38086,-32.98432 -0.38086,-1.74233 m 39.22821,36.45898 -0.39206,-1.73233 m 0.39206,-32.99433 -0.39206,-1.73232 m 39.22819,36.45898 -0.39205,-1.74234 m 0.39205,-32.98432 -0.39205,-1.73232 m 39.2282,36.44897 -0.38086,-1.73233 m 0.38086,-32.98432 -0.38086,-1.73232 m 39.22819,36.44897 -0.11204,-0.46062 m 0.11204,-34.25603 -0.39205,-1.74234 m -621.43426,34.76671 -7.77396,-1.73232 m 46.61009,1.73232 -7.76275,-1.73232 m 46.6101,1.73232 -7.77395,-1.73232 m 46.61009,1.73232 -7.77395,-1.73232 m 46.61009,1.73232 -7.76275,-1.73232 m 46.61009,1.73232 -7.77395,-1.73232 M 194.0082,230.20844 186.24545,228.4661 m -31.07338,1.74234 -7.77396,-1.74234 m 240.81321,36.45898 -7.76276,-1.74234 m -147.59301,-32.9743 -7.77395,-1.74234 m 201.96585,36.45898 -7.76274,-1.74234 m -147.59493,-32.9743 -7.77395,-1.74234 m 201.97706,36.45898 -7.77395,-1.74234 m -147.59303,-32.98431 -7.76275,-1.73233 m 201.96586,36.45898 -7.76275,-1.74234 m -147.59301,-32.98431 -7.77395,-1.73233 m 201.96585,36.45898 -7.76274,-1.74234 M 388.2094,230.19843 380.44665,228.4661 m 201.96586,36.45898 -7.77395,-1.74234 m -147.59302,-32.98431 -7.76275,-1.73233 m 201.96586,36.45898 -7.76275,-1.74234 m -147.59301,-32.98431 -7.77395,-1.73233 m 201.96585,36.45898 -7.76275,-1.74234 M 504.7293,230.19843 496.96655,228.4661 m 201.96586,36.45898 -7.77394,-1.74234 m 46.61008,1.74234 -7.76274,-1.74234 M 543.56544,230.19843 535.8027,228.4661 m 46.61009,1.73233 -7.77395,-1.73233 m 46.61009,1.73233 -7.76275,-1.73233 m 46.59889,1.73233 -7.76275,-1.73233 m 46.61009,1.73233 -7.77394,-1.73233 m 46.61008,1.73233 -7.76274,-1.73233 m 46.61009,1.73233 -7.77395,-1.73233 m -38.85854,34.72666 -7.3819,0.69093 m -31.46545,-0.69093 -7.37068,0.69093 m -31.46546,-0.69093 -7.38189,0.69093 m -31.45425,-0.69093 -7.3819,0.69093 m -31.45424,-0.69093 -7.38189,0.69093 m -31.45426,-0.69093 -7.38189,0.69093 m -31.46544,-0.69093 -7.3707,0.69093 m -31.46545,-0.69093 -7.38189,0.69093 m -31.45425,-0.69093 -7.38189,0.69093 m 356.94077,-35.41759 -7.38189,0.70094 m -381.01313,34.02572 -7.3819,0.69093 m 356.94077,-35.41759 -7.38189,0.70094 m -381.02433,34.02572 -7.37068,0.69093 m 356.94077,-35.41759 -7.3819,0.70094 m -381.02432,34.02572 -7.3819,0.69093 m 356.95197,-35.41759 -7.38188,0.70094 m -381.02433,34.02572 -7.38189,0.69093 m 356.94076,-35.41759 -7.37069,0.70094 m -381.02433,34.02572 -7.38189,0.69093 m 356.94077,-35.41759 -7.38189,0.70094 m -381.01313,34.02572 -7.01224,0.65087 m 356.57112,-35.37753 -7.38189,0.70094 m -31.45426,-0.70094 -7.38189,0.70094 m -31.45424,-0.70094 -7.3819,0.69092 m -303.35204,34.03574 -7.3707,0.69093 m 279.25729,-35.41759 -7.37068,0.69092 m -31.46546,-0.69092 -7.38189,0.69092 m -31.45425,-0.69092 -7.3819,0.69092 m -31.45424,-0.69092 -7.38189,0.69092 m -31.45426,-0.69092 -7.38188,0.69092 m -31.46545,-0.69092 -7.3707,0.69092 m -31.46545,-0.69092 -7.02344,0.66089 m -31.8127,-0.66089 -7.38189,0.69092 m 633.08399,15.98148 3.10286,4.1656 m -41.9502,-4.1656 3.11405,4.1656 m -41.95019,-4.1656 3.11406,4.1656 m -41.95021,-4.1656 3.10286,4.1656 m -41.9502,-4.1656 3.11407,4.1656 m -41.95021,-4.1656 3.10286,4.1656 m -41.939,-4.1656 2.18432,2.93394 m -41.03166,-2.93394 3.11406,4.1656 m -41.95021,-4.1656 3.10286,4.1656 m -41.95019,-4.1656 3.11405,4.1656 m -41.9502,-4.1656 3.10286,4.1656 m -41.939,-4.1656 3.10286,4.1656 m -41.9502,-4.1656 3.11406,4.1656 m -41.95021,-4.1656 3.10286,4.1656 m -41.93899,-4.1656 3.10285,4.1656 m -41.9502,-4.1656 3.11407,4.1656 m -40.42679,-2.13287 1.57944,2.13287 m 621.46788,0 9.71183,1.0414 m -48.55918,-1.0414 9.71184,1.0414 m -48.54799,-1.0414 4.80551,0.51068 m -43.65284,-0.51068 8.53565,0.91122 m -47.3718,-0.91122 9.71184,1.0414 m -48.55918,-1.0414 9.71184,1.0414 m -87.39532,-1.0414 9.71184,1.0414 m -48.54798,-1.0414 9.71183,1.0414 m -48.54798,-1.0414 9.70064,1.0414 m -48.54797,-1.0414 9.71183,1.0414 m -48.54798,-1.0414 6.7546,0.72096 m -45.60194,-0.72096 9.71183,1.0414 m -48.54797,-1.0414 9.70063,1.0414 m -48.54798,-1.0414 9.71184,1.0414 m -48.54797,-1.0414 9.71183,1.0414 m -48.55918,-1.0414 9.71183,1.0414 m -36.89825,-3.12421 0,-0.01 m 36.89825,3.13422 1.93789,-3.12421 m 36.89826,3.12421 1.93789,-3.12421 m 36.89824,3.13421 1.94909,-3.12419 m 36.88706,3.12419 1.94909,-3.12419 m 36.88705,3.13421 1.94909,-3.12419 m 75.72319,3.1342 1.94909,-3.12419 m 36.88705,3.13421 1.94909,-3.1242 m 36.88706,3.1242 1.94909,-3.1242 m 36.89825,3.13421 1.93788,-3.1242 m 38.27606,0.91122 0.56009,-0.91122 m 36.89826,3.13421 1.93788,-3.12419 m 36.89825,3.1342 1.93788,-3.12419 m 114.57055,3.13421 1.93789,-3.12419 m 36.89825,3.1342 0.54888,-0.88118 m -620.00046,-2.33314 0,-2.0828 m 38.84735,2.0828 0,-2.0828 m 38.83613,2.0828 0,-2.0828 m 38.84735,2.0828 0,-2.0828 m 38.83615,2.0828 0,-2.0828 m 38.83613,1.49201 0,-1.49201 m 38.84735,2.0828 0,-2.0828 m 38.83613,2.0828 0,-2.0828 m 38.83615,2.0828 0,-2.0828 m 38.84735,2.0828 0,-2.0828 m 38.83613,2.0828 0,-2.0828 m 38.83614,2.0828 0,-2.0828 m 38.84734,2.0828 0,-2.0828 m 116.51963,2.0828 0,-2.0828 m -602.41385,17.01287 -2.722,-4.17561 m 2.722,-30.55105 -2.04991,-3.14423 m 40.88604,37.86087 -2.7108,-4.16559 m 2.7108,-30.55105 -2.04989,-3.14423 m 40.89724,37.86087 -2.722,-4.16559 m 2.722,-30.55105 -2.04991,-3.14423 m 40.88606,37.86087 -2.72202,-4.16559 m 2.72202,-30.55105 -2.04991,-3.14423 m 40.88604,37.86087 -2.7108,-4.16559 m 2.7108,-30.55105 -2.0499,-3.14423 m 40.89725,37.86087 -2.722,-4.16559 m 2.722,-30.55105 -2.04991,-3.14423 m 40.88604,37.86087 -2.722,-4.16559 m 2.722,-30.55105 -2.0499,-3.14423 m 40.88605,37.86087 -2.7108,-4.16559 m 2.7108,-30.55105 -2.03871,-3.14423 m 40.88605,37.86087 -2.722,-4.16559 m 2.722,-30.56107 -2.0499,-3.13421 m 40.88604,37.86087 -2.722,-4.16559 m 2.722,-30.56107 -2.0499,-3.13421 m 40.88604,37.86087 -2.71079,-4.16559 m 2.71079,-30.56107 -2.0387,-3.13421 m 40.88605,37.86087 -2.72201,-4.16559 m 2.72201,-30.56107 -2.04991,-3.13421 m 40.88604,37.86087 -2.722,-4.17561 m 2.722,-30.55105 -2.04989,-3.13421 m 40.88604,37.85086 -2.7108,-4.1656 m 2.7108,-30.55105 -2.0387,-3.13421 m 40.88604,37.85086 -2.72201,-4.1656 m 2.72201,-30.55105 -2.0499,-3.13421 m 40.88604,37.85086 -2.722,-4.1656 m 2.722,-30.55105 -2.0387,-3.13421 m 40.87485,3.13421 -2.03871,-3.13421 m -622.11756,33.69528 2.28513,-2.26305 m 36.5622,2.26305 6.98984,-6.93933 m 31.84631,6.93933 6.98982,-6.93933 m 31.84631,6.93933 7.00104,-6.93933 m 31.84631,6.93933 6.98984,-6.93933 m 31.84631,6.93933 6.98982,-6.93933 m 31.85751,6.93933 6.98984,-6.93933 m 31.84631,6.93933 6.98983,-6.93933 m 31.84631,6.93933 6.98983,-6.93933 m 31.85751,6.93933 6.98984,-6.93933 m 31.84631,6.93933 6.98982,-6.93933 m 31.84631,6.93933 7.00104,-6.93933 m 31.84631,6.93933 6.98983,-6.93933 m 31.84631,6.93933 6.98983,-6.93933 m 31.85751,6.93933 6.98984,-6.93933 m 31.8463,6.93933 6.98984,-6.93933 m 37.77198,1.05141 1.06415,-1.05141 m -619.94444,0 8.60287,0 m 28.74345,0 10.09269,0 m 28.74344,0 10.1039,0 m 28.74345,0 10.0927,0 m 28.74345,0 10.09268,0 m 28.74345,0 10.02548,0 m 28.82187,0 10.09268,0 m 28.74346,0 10.10389,0 m 28.73225,0 10.1039,0 m 28.74345,0 10.09268,0 m 28.74345,0 0.40327,0 m 38.43287,0 10.1039,0 m 28.74345,0 10.09269,0 m 28.74345,0 10.1039,0 m 28.74345,0 8.7933,0 m 30.04284,0 10.09268,0 m 28.74345,0 10.1039,0 m 0.0448,0.02 1.65784,1.03138 m 0.77291,0.48064 1.51222,0.93125 m -42.79032,-2.44327 1.66905,1.03138 m -79.35253,-1.03138 2.29633,1.4219 m -41.14367,-1.4219 5.05194,3.12419 m -43.88808,-3.12419 5.04074,3.12419 m -82.73543,-3.13421 5.05195,3.12419 m -43.8881,-3.12419 5.05195,3.12419 m -43.89928,-3.12419 5.05194,3.12419 m -43.88809,-3.12419 5.04075,3.12419 m -82.73543,-3.12419 5.05195,3.12419 m -43.8881,-3.1342 5.05195,3.1242 m -43.89929,-3.1242 5.05195,3.1242 m -43.88809,-3.1242 5.04074,3.1242 m -43.88808,-3.1242 5.05194,3.1242 m 620.38131,3.31445 -0.49287,1.54207 m 0.0114,-34.73667 -0.0114,0.02 m -38.83614,-0.02 0,0.02 m -38.34326,33.14453 -0.50408,1.57211 m 0.0114,-34.73667 -0.0114,0.02 m -76.12645,29.86013 -1.54584,4.85652 m 0,-34.73667 0,0.02 m -37.29031,29.86012 -1.55702,4.85653 m 0.0114,-34.73668 -0.0114,0.02 m -38.83615,-0.02 0,0.02 m -37.29031,29.86012 -1.54582,4.85652 m 0,-34.73667 0,0.02 m -37.29032,29.86012 -1.55703,4.85653 m 0.0114,-34.73668 -0.0114,0.02 m -37.29031,29.86012 -1.54584,4.85652 m 0,-34.73667 0,0.02 m -37.29031,29.86012 -1.55702,4.85653 m 0.0114,-34.73668 -0.0114,0.02 m -38.83615,-0.02 0,0.02 m -37.29031,29.86012 -1.54583,4.85652 m 0,-34.73667 0,0.02 m -37.29031,29.86012 -1.55703,4.85653 m 0.0114,-34.73667 -0.0114,0.02 m -37.27911,29.86012 -1.55703,4.85652 m 0,-34.73667 0,0.02 m -37.29032,29.86013 -1.55702,4.85652 m 0.0114,-34.73667 -0.0114,0.02 m -37.27912,29.86012 -1.55703,4.85652 m 0.0114,-34.73667 -0.0114,0.02 m 621.53509,34.6766 -1.10897,0.5207 m -40.03472,0.56075 -5.85846,2.73367 m 46.94614,-38.51174 -8.11,3.7951 m -69.52868,30.90152 -8.1548,3.82513 m 46.95734,-38.52175 -8.12121,3.80511 m -30.72614,-3.80511 -8.12119,3.80511 m -31.91353,31.47229 -6.92262,3.24435 m -30.68133,-3.81512 -8.15481,3.81512 m 45.75876,-37.961 -6.93382,3.24436 m -69.51748,30.90152 -8.1548,3.82514 m 46.96855,-38.53177 -8.13241,3.80511 m -77.1346,34.4663 -0.54889,0.26036 m 46.96855,-38.53177 -8.1324,3.81512 m -69.52868,30.90152 -8.15481,3.81513 m 46.97974,-38.53177 -8.14359,3.81512 m -69.52868,30.90152 -8.1548,3.81513 m 46.99094,-38.53177 -8.15481,3.81512 m -69.52867,30.90152 -8.15481,3.82514 m 46.99094,-38.54178 -8.1548,3.82514 m -69.52868,30.90151 -8.1548,3.81513 m 46.99094,-38.53177 -8.15481,3.81513 m -71.7242,31.9329 -5.95928,2.78374 m 46.99094,-38.53177 -8.15479,3.81513 m -69.51748,30.90151 -8.16601,3.82514 m 46.99095,-38.54178 -8.15481,3.82514 m -69.51748,30.90152 -8.1548,3.81512 m 46.99094,-38.54178 -8.166,3.82514 m -69.51748,30.90152 -8.15481,3.81512 m 46.99095,-38.53177 -8.15481,3.81513 m -69.52867,30.90152 -8.15481,3.82514 m 46.99095,-38.54179 -8.1548,3.81513 m -69.52869,30.90152 -8.1548,3.82514 m 46.99095,-38.54179 -8.15481,3.82515 m -30.69254,-3.81513 -8.1548,3.81513 m 38.84734,34.71664 -9.70064,-0.69093 m 48.54799,0.69093 -9.71184,-0.69093 m -67.97165,0.69093 -9.71183,-0.69093 m 126.23145,0.69093 -9.71183,-0.69093 m 48.55918,0.69093 -9.71184,-0.69093 m 48.54798,0.69093 -9.71183,-0.69093 m 48.55917,0.69093 -9.71184,-0.69093 m 48.54799,0.69093 -9.71184,-0.69093 m 48.54797,0.69093 -9.70063,-0.69093 m 48.54798,0.69093 -9.71184,-0.69093 m 48.54798,0.69093 -9.70063,-0.69093 m 48.54797,0.69093 -9.71184,-0.69093 m 48.54798,0.69093 -9.71183,-0.69093 m -456.36667,-34.02571 -9.71184,-0.70094 m 514.63768,35.41758 -9.71184,-0.69093 m -456.37786,-34.02556 -9.70063,-0.70094 m 514.62648,35.41759 -9.71184,-0.69093 m -456.36667,-34.02572 -9.71183,-0.70094 m 514.63767,35.41759 -9.71182,-0.69093 m -456.37788,-34.02572 -9.71183,-0.70094 m 48.55918,0.70094 -9.71183,-0.70094 m 48.54797,0.70094 -9.71184,-0.70094 m 48.55919,0.70094 -9.71184,-0.70094 m 48.54798,0.70094 -9.71184,-0.70094 m 48.55918,0.70094 -9.71184,-0.70094 m 48.54798,0.70094 -9.71184,-0.70094 m 203.91495,0.70094 -9.71184,-0.70094 m -145.65513,0.70094 -9.70064,-0.70094 m 48.54798,0.70094 -9.71183,-0.70094 m 48.54798,0.70094 -9.71184,-0.70094 m 48.55918,0.70094 -9.71184,-0.70094 m 87.39532,0.70094 -9.71184,-0.70094 m 48.54798,0.70094 -9.71183,-0.70094 m -572.9199,35.41759 -9.70064,-0.69093 m 48.54799,0.69093 -9.71184,-0.69093 m -67.97165,0.69093 -9.71183,-0.69093 m 126.23145,0.69093 -9.71183,-0.69093 m 48.55918,0.69093 -9.71184,-0.69093 m 48.54798,0.69093 -9.71183,-0.69093 m 48.55917,0.69093 -9.71184,-0.69093 m 48.54799,0.69093 -9.71184,-0.69093 m 48.54797,0.69093 -9.70063,-0.69093 m 48.54798,0.69093 -9.71184,-0.69093 m 48.54798,0.69093 -9.70063,-0.69093 m 48.54797,0.69093 -9.71184,-0.69093 m 48.54798,0.69093 -9.71183,-0.69093 m -456.36667,-34.02572 -9.71184,-0.70094 m 514.63768,35.41759 -9.71184,-0.69093 m -456.37786,-34.02572 -9.70063,-0.70094 m 514.62648,35.41759 -9.71184,-0.69093 m -456.36667,-34.02572 -9.71183,-0.70094 m 514.63767,35.41759 -9.71182,-0.69093 m -456.37788,-34.02572 -9.71183,-0.70094 m 48.55918,0.70094 -9.71183,-0.70094 m 48.54797,0.70094 -9.71184,-0.70094 m 48.55919,0.70094 -9.71184,-0.70094 m 48.54798,0.70094 -9.71184,-0.70094 m 48.55918,0.70094 -9.71184,-0.70094 m 48.54798,0.70094 -9.71184,-0.70094 m 203.91495,0.70094 -9.71184,-0.70094 m -145.65513,0.70094 -9.70064,-0.70094 m 48.54798,0.70094 -9.71183,-0.70094 m 48.54798,0.70094 -9.71184,-0.70094 m 48.55918,0.70094 -9.71184,-0.70094 m 87.39532,0.70094 -9.71184,-0.70094 m 48.54798,0.70094 -9.71183,-0.70094"
     id="path4319"
     inkscape:connector-curvature="0"
     style="fill:none;stroke:#000000;stroke-width:0.52954519" />
  <path
     d="m 51.207858,266.65723 735.220692,0"
     id="path4321"
     inkscape:connector-curvature="0"
     style="fill:none;stroke:#000000;stroke-width:0.52954519" />
  <path
     d="m 186.01979,187.45081 4.68229,-4.17561 m -4.68229,22.59035 25.28213,-22.59035 m -25.28213,41.00509 45.87078,-41.00509 m -25.27093,41.00509 45.87077,-41.00509 m -25.27093,41.00509 45.87078,-41.00509 m -25.28214,41.00509 45.88199,-41.00509 m -25.28214,41.00509 45.88198,-41.00509 m -25.28214,41.00509 45.88198,-41.00509 m -25.28213,41.00509 45.87078,-41.00509 m -25.27094,41.00509 45.87079,-41.00509 m -25.27094,41.00509 45.87078,-41.00509 m -25.28214,41.00509 45.88199,-41.00509 m -25.28214,41.00509 45.88198,-41.00509 m -25.28213,41.00509 45.88198,-41.00509 m -25.28214,41.00509 45.88198,-41.00509 m -25.28214,41.00509 8.0764,-7.2197 m 0.95214,-0.85114 9.31977,-8.33119 m 3.18128,-2.84382 24.3412,-21.75924 M 474.39522,224.28029 520.266,183.2752 m -25.27093,41.00509 45.87078,-41.00509 m -25.28214,41.00509 45.88198,-41.00509 m -25.28213,41.00509 45.88198,-41.00509 m -25.28214,41.00509 45.88198,-41.00509 m -25.28214,41.00509 45.88199,-41.00509 m -25.28214,41.00509 45.87078,-41.00509 m -25.27093,41.00509 45.87077,-41.00509 m -25.28212,41.00509 45.88198,-41.00509 m -25.28214,41.00509 45.88198,-41.00509 m -25.28214,41.00509 24.12837,-21.56898 m -3.52853,21.56898 3.52853,-3.15423 m 5.57842,-23.39143 16.17519,-14.45943 m 4.42466,14.45943 16.17519,-14.45943 m -25.28214,41.00509 0.56009,-0.50067 m 29.1355,-26.04499 9.17416,-8.20102 m -18.2699,34.74668 0.56008,-0.50067 m -536.11125,0.50067 -20.59985,-18.41474 m 41.19969,18.41474 -41.19969,-36.82948 m 61.78833,36.82948 -45.87078,-41.00509 m 66.47063,41.00509 -45.87078,-41.00509 m 66.47062,41.00509 -45.88198,-41.00509 m 66.48183,41.00509 -45.88198,-41.00509 m 66.48182,41.00509 -45.88198,-41.00509 m 66.48183,41.00509 -45.88198,-41.00509 m 66.47062,41.00509 -45.87078,-41.00509 m 66.47063,41.00509 -45.87078,-41.00509 m 66.47063,41.00509 -45.87079,-41.00509 m 66.47063,41.00509 -45.88198,-41.00509 m 66.48182,41.00509 -45.88198,-41.00509 m 66.48183,41.00509 -5.86966,-5.23703 m -3.62935,-3.25438 -1.445,-1.29173 m -4.99594,-4.45598 -29.94204,-26.76597 m 66.48184,41.00509 -17.73222,-15.84128 m -0.43687,-0.39053 -0.19043,-0.17022 m -6.30653,-5.64759 -21.21593,-18.95547 m 66.47062,41.00509 -45.87078,-41.00509 m 66.47063,41.00509 -45.87079,-41.00509 m 66.47063,41.00509 -45.88198,-41.00509 m 66.48182,41.00509 -45.88198,-41.00509 m 66.48183,41.00509 -45.88199,-41.00509 m 66.48184,41.00509 -45.88198,-41.00509 m 66.47063,41.00509 -45.87079,-41.00509 m 66.47063,41.00509 -45.87079,-41.00509 m 66.47063,41.00509 -45.87078,-41.00509 m 66.47062,41.00509 -45.88198,-41.00509 m 66.48183,41.00509 -0.56008,-0.50067 M 704.49964,209.01979 675.68897,183.2752 m 66.48184,41.00509 -0.56009,-0.50067 m -29.1467,-26.04499 -16.17519,-14.45943 m 36.77503,14.45943 -16.17519,-14.45943 m 36.77503,14.45943 -16.17519,-14.45943 m -18.43792,-16.48214 -4.22302,-3.77507 m 45.61314,22.36004 -2.35235,-2.10283"
     id="path4323"
     inkscape:connector-curvature="0"
     style="fill:none;stroke:#000000;stroke-width:0.52954519" />
  <path
     d="m 127.59195,224.28029 658.8366,0"
     id="path4325"
     inkscape:connector-curvature="0"
     style="fill:none;stroke:#000000;stroke-width:0.52954519" />
  <path
     d="m 186.01979,183.2752 574.42092,0"
     id="path4327"
     inkscape:connector-curvature="0"
     style="fill:none;stroke:#000000;stroke-width:0.52954519" />
  <path
     d="m 306.91926,101.41523 352.16887,0"
     id="path4329"
     inkscape:connector-curvature="0"
     style="fill:none;stroke:#000000;stroke-width:0.52954519" />
  <path
     d="m 786.42855,306.14028 0,-39.48305"
     id="path4331"
     inkscape:connector-curvature="0"
     style="fill:none;stroke:#000000;stroke-width:0.52954519" />
  <path
     d="M 577.84251,25.493221 472.23331,8.5003906"
     id="path4333"
     inkscape:connector-curvature="0"
     style="fill:none;stroke:#000000;stroke-width:0.52954519" />
  <path
     d="m 192.83504,53.685324 23.52348,0 m 0,0 -23.52348,0"
     id="path4335"
     inkscape:connector-curvature="0"
     style="fill:none;stroke:#000000;stroke-width:0.52954519" />
  <path
     d="m 216.35852,53.685324 0,5.33717"
     id="path4337"
     inkscape:connector-curvature="0"
     style="fill:none;stroke:#000000;stroke-width:0.52954519" />
  <path
     d="M 192.83504,47.607158 174.65476,59.022494"
     id="path4339"
     inkscape:connector-curvature="0"
     style="fill:none;stroke:#000000;stroke-width:0.52954519" />
  <path
     d="m 192.83504,53.685324 0,-6.078166"
     id="path4341"
     inkscape:connector-curvature="0"
     style="fill:none;stroke:#000000;stroke-width:0.52954519" />
  <path
     d="m 192.83504,64.369678 23.52348,0 m 0,0 -23.52348,0"
     id="path4343"
     inkscape:connector-curvature="0"
     style="fill:none;stroke:#000000;stroke-width:0.52954519" />
  <path
     d="m 216.35852,64.369678 0,-5.347184"
     id="path4345"
     inkscape:connector-curvature="0"
     style="fill:none;stroke:#000000;stroke-width:0.52954519" />
  <path
     d="M 192.83504,70.447844 174.65476,59.022494"
     id="path4347"
     inkscape:connector-curvature="0"
     style="fill:none;stroke:#000000;stroke-width:0.52954519" />
  <path
     d="m 192.83504,64.369678 0,6.078166"
     id="path4349"
     inkscape:connector-curvature="0"
     style="fill:none;stroke:#000000;stroke-width:0.52954519" />
  <path
     d="m 101.55274,49.489686 9.98068,0 1.12017,-1.291735 2.41956,1.862502 -1.28819,0.720969 -0.6385,4.676283 -2.41955,7.990735 -1.76987,3.314453 1.76987,2.953969 3.46131,3.454642 1.69144,0.500672 0,0.570767 -1.13136,0.220296 -1.36661,0.720969 -0.23523,0.500673 -1.45621,-1.36183 -2.6548,-3.745032 -1.20977,-2.373188 -2.40836,3.014049 -5.724041,4.325812 -3.29329,1.291736 -0.32485,-0.430579 3.30448,-1.872516 5.309591,-4.896579 2.0163,-3.024062 -1.13137,-3.444629 -1.3666,-8.140937 -0.24644,-4.676283 -1.12017,0.430579 -1.28819,-1.291736 z m 3.21489,0.861157 0.48166,4.606189 1.53463,7.199673 1.04176,2.593484 1.3666,-2.733673 1.93788,-7.199672 0.56009,-4.466001 -6.92262,0 z"
     id="path4351"
     inkscape:connector-curvature="0"
     style="fill:#000000;fill-rule:evenodd" />
  <path
     d="m 97.038479,45.744655 -1.28819,1.011359 2.01629,0.791062 2.654801,1.36183 0.63849,0.58078 0.6497,0.570767 0.32485,1.371844 -0.32485,0.791062 -0.32485,0.791063 -0.84012,-0.110148 -0.52647,-0.901211 -0.526491,-0.891197 -2.29633,-2.343148 -1.76987,-1.441937 -1.04176,2.092812 -2.41955,3.955313 -1.36661,1.872516 6.76581,0 1.76986,-1.732327 2.733211,2.593484 -5.309601,0 0,5.036767 2.73321,0 2.094711,-1.722314 2.57638,2.593484 -7.404301,0 0,9.923333 0,1.231655 -1.53461,1.722314 -1.52343,0.500672 -0.16803,-1.001345 -2.17312,-1.441938 -2.00509,-0.430578 0,-0.58078 1.3666,0.08011 2.01629,0.140188 0.6385,0.0701 0.6497,0.0701 0.63849,-0.500673 0,-0.58078 0,-9.202364 -2.09471,0 -1.04175,0 -1.93789,0.210283 -0.88493,0.220296 -1.44501,-1.301749 7.40429,0 0,-5.036767 -1.76986,0 -1.28819,0.290391 -0.96334,-0.861158 -0.80653,1.001345 -1.69144,1.732328 -0.88493,0.720969 -0.48168,-0.290391 1.44502,-1.802421 2.49797,-4.065462 1.04176,-2.26304 1.05295,-2.273055 1.12017,-3.194291 0.0896,-0.941264 3.21487,1.582125 z"
     id="path4353"
     inkscape:connector-curvature="0"
     style="fill:#000000;fill-rule:evenodd" />
  <path
     d="m 78.197299,66.332315 1.53462,0.140188 1.89309,-0.430578 0.35845,-0.570767 0.35845,-0.58078 2.77801,-7.77044 2.41956,-7.199673 0.63849,0.140188 -2.0051,7.269767 -2.13952,8.461369 -0.11204,1.181587 -0.12323,1.191601 -0.0784,2.953969 0.0336,1.762367 0.0448,1.762368 -0.77291,1.291736 -0.79532,-0.46062 -0.80651,-0.470632 -0.6497,-1.151547 0.16802,-0.680914 0.15683,-0.690929 0.28004,-1.512031 0.12322,-0.821104 0.12322,-0.831116 -0.36965,-1.151547 -0.48168,-0.32043 -0.48167,-0.330445 -1.28819,-0.460618 -0.80652,-0.150202 0,-0.570767 z"
     id="path4355"
     inkscape:connector-curvature="0"
     style="fill:#000000;fill-rule:evenodd" />
  <path
     d="m 91.728899,66.332315 -1.20978,2.012704 -3.05806,3.674938 -1.85948,1.652219 -0.48166,-0.29039 1.93789,-2.733673 2.49796,-4.826484 0.56009,-2.082798 3.21487,1.872515 -1.60183,0.720969 z"
     id="path4357"
     inkscape:connector-curvature="0"
     style="fill:#000000;fill-rule:evenodd" />
  <path
     d="m 97.844999,64.750189 0.32485,-0.430578 1.04175,0.430578 1.814671,0.891198 0.76171,0.470632 0.76172,0.470632 0.80651,0.901211 0.0448,0.430579 0.0336,0.430578 -0.35846,1.011359 -0.40326,0.570767 -0.40325,0.58078 -0.80653,-0.400538 -0.40326,-0.971305 -0.40325,-0.971305 -1.601851,-2.192947 -1.20977,-1.221641 0,0 z"
     id="path4359"
     inkscape:connector-curvature="0"
     style="fill:#000000;fill-rule:evenodd" />
  <path
     d="m 81.737019,44.743309 1.61303,0.710956 2.17313,1.261695 0.57128,0.540727 0.56009,0.540726 0,1.291735 -0.56009,0.761023 -0.57128,0.751009 -0.91854,-0.250337 -0.36965,-1.001345 -0.35845,-1.011359 -1.41142,-2.162906 -1.04175,-1.151547 0.31365,-0.280377 z"
     id="path4361"
     inkscape:connector-curvature="0"
     style="fill:#000000;fill-rule:evenodd" />
  <path
     d="m 78.522149,52.944328 2.0947,0.931251 2.32995,1.512031 0.24644,0.580781 0.23522,0.570766 -0.23522,1.151547 -0.48168,0.580781 -0.48167,0.570767 -0.85132,-0.430578 -0.35845,-1.001346 -0.36966,-1.011358 -1.40021,-2.092812 -1.05295,-1.07144 0.32485,-0.29039 z"
     id="path4363"
     inkscape:connector-curvature="0"
     style="fill:#000000;fill-rule:evenodd" />
  <path
     d="m 150.01111,76.696239 -0.0784,-1.011358 -2.32995,-1.441938 -2.26273,-0.430579 0,-0.570766 1.53463,0.0701 2.29634,0.110148 0.76171,0.03004 0.76171,0.04005 0.6833,-0.680916 -0.0784,-0.720968 0,-5.036767 -7.56111,0 0,8.341207 -2.09472,0.87117 0,-9.212377 -6.60897,0 0,8.771785 -2.25153,1.011359 0.0784,-1.512031 0.0896,-5.827831 0,-4.315798 0,-4.315798 -0.0896,-5.687642 -0.0784,-1.371843 2.25153,1.151548 6.60897,0 0,-4.025408 -6.28413,0 -1.04176,0 -1.93788,0.210282 -0.88493,0.220296 -1.44501,-1.301749 11.59371,0 0,-2.513377 -0.0784,-3.314453 -0.0896,-0.791062 3.70774,1.441936 -1.445,1.011359 0,4.165597 8.04279,0 2.0947,-1.862503 2.57638,2.733674 -12.71387,0 0,4.025408 7.24747,0 1.12016,-1.441938 2.57638,1.872516 -1.28819,0.871171 0,16.552237 0.0784,1.361831 -1.69144,1.942609 -1.76987,0.580781 0,0 z m -6.27292,-15.691082 0,5.176956 7.56111,0 0,-5.176956 -7.56111,0 z m -8.70369,0 0,5.176956 6.60898,0 0,-5.176956 -6.60898,0 z m 8.70369,-5.186968 0,4.325812 7.56111,0 0,-4.325812 -7.56111,0 z m -8.70369,0 0,4.325812 6.60898,0 0,-4.325812 -6.60898,0 z"
     id="path4365"
     inkscape:connector-curvature="0"
     style="fill:#000000;fill-rule:evenodd" />
  <path
     d="m 131.33795,52.083171 -2.49797,6.759081 -2.6996,7.600211 -0.20162,0.821103 -0.20164,0.831117 -0.23523,2.122852 -0.0448,1.291736 -0.0336,1.301748 0,1.832462 0.0336,0.540727 0.0448,0.540726 -0.92974,0.180242 -0.96334,-0.360484 -0.96334,-0.360484 -0.49287,-1.802422 0.49287,-1.441937 0.48167,-1.431924 0,-1.842475 -0.48167,-0.390525 -0.49287,-0.400538 -1.68026,-0.680915 -1.20978,-0.29039 0,-0.570767 1.44502,0.140188 1.81467,0.110148 0.35845,-0.04005 0.36966,-0.03004 0.79532,-0.650875 0.44806,-0.61082 0.43687,-0.610821 3.10285,-6.658946 2.6548,-6.048126 0.64969,0.150202 z"
     id="path4367"
     inkscape:connector-curvature="0"
     style="fill:#000000;fill-rule:evenodd" />
  <path
     d="m 119.90106,53.234718 2.74441,1.151548 2.77801,1.872515 0.0336,0.710955 0.0448,0.720968 -0.40326,1.191602 -0.44806,0.470632 -0.43687,0.460619 -0.85133,-0.540727 -0.40326,-1.001345 -0.40325,-1.011359 -1.68026,-2.303094 -1.28819,-1.291736 0.31365,-0.430578 z"
     id="path4369"
     inkscape:connector-curvature="0"
     style="fill:#000000;fill-rule:evenodd" />
  <path
     d="m 123.12714,45.173888 2.25153,1.001345 2.53157,1.552086 0.29125,0.540726 0.28004,0.540726 -0.24644,1.221642 -0.52648,0.680915 -0.51527,0.680915 -0.88493,-0.250337 -0.36965,-0.931251 -0.35847,-0.941264 -1.56823,-2.303095 -1.20977,-1.361829 0.32485,-0.430579 z"
     id="path4371"
     inkscape:connector-curvature="0"
     style="fill:#000000;fill-rule:evenodd" />
  <path
     d="m 146.79623,44.45292 2.32995,0.500672 2.6548,0.971305 0.32485,0.470632 0.32484,0.470633 0,1.071439 -0.32484,0.610821 -0.32485,0.620834 -0.63851,0.140188 -0.32484,-0.470632 -0.32485,-0.460619 -0.7169,-0.87117 -0.40326,-0.390525 -0.40327,-0.400538 -1.45621,-1.111493 -1.04176,-0.720969 0.32485,-0.430578 z"
     id="path4373"
     inkscape:connector-curvature="0"
     style="fill:#000000;fill-rule:evenodd" />
  <path
     d="m 662.85653,58.747899 -23.52348,0 m 0,0 23.52348,0"
     id="path4375"
     inkscape:connector-curvature="0"
     style="fill:none;stroke:#000000;stroke-width:0.52954519" />
  <path
     d="m 639.33305,58.747899 0,-5.33717"
     id="path4377"
     inkscape:connector-curvature="0"
     style="fill:none;stroke:#000000;stroke-width:0.52954519" />
  <path
     d="M 662.85653,64.826065 681.03682,53.410729"
     id="path4379"
     inkscape:connector-curvature="0"
     style="fill:none;stroke:#000000;stroke-width:0.52954519" />
  <path
     d="m 662.85653,58.747899 0,6.078166"
     id="path4381"
     inkscape:connector-curvature="0"
     style="fill:none;stroke:#000000;stroke-width:0.52954519" />
  <path
     d="m 662.85653,48.073558 -23.52348,0 m 0,0 23.52348,0"
     id="path4383"
     inkscape:connector-curvature="0"
     style="fill:none;stroke:#000000;stroke-width:0.52954519" />
  <path
     d="m 639.33305,48.073558 0,5.337171"
     id="path4385"
     inkscape:connector-curvature="0"
     style="fill:none;stroke:#000000;stroke-width:0.52954519" />
  <path
     d="m 662.85653,41.995392 18.18029,11.415337"
     id="path4387"
     inkscape:connector-curvature="0"
     style="fill:none;stroke:#000000;stroke-width:0.52954519" />
  <path
     d="m 662.85653,48.073558 0,-6.078166"
     id="path4389"
     inkscape:connector-curvature="0"
     style="fill:none;stroke:#000000;stroke-width:0.52954519" />
  <path
     d="m 743.26201,51.488146 0,13.237784 0,1.151548 0.0784,2.663578 0.0784,1.512032 -2.41956,1.011359 0.0896,-3.815126 0.0784,-9.793157 0,-5.968018 -5.15277,0 0.15683,4.676282 -1.3218,6.688987 -1.48983,2.012704 -1.48981,2.022717 -3.50611,3.094158 -2.01631,1.081453 -0.31364,-0.440592 1.60183,-1.221642 2.49797,-2.55343 0.88493,-1.33179 0.88494,-1.331788 1.17617,-2.953969 0.28003,-1.612166 0.28005,-1.62218 0.28004,-4.065462 0,-2.443282 0,-2.453296 -0.0784,-5.53744 -0.0784,-3.094157 2.25153,1.291735 3.3829,-0.720969 4.42465,-1.582125 1.04176,-0.861157 2.7444,2.593484 -1.13136,0 -2.17312,0.140189 -1.04176,0.140188 -1.05295,0.150202 -3.61814,0.500673 -2.57638,0.360484 0,8.201018 7.88596,0 2.09471,-1.872516 3.05806,2.743687 -5.79126,0 z"
     id="path4391"
     inkscape:connector-curvature="0"
     style="fill:#000000;fill-rule:evenodd" />
  <path
     d="m 716.53487,67.029025 1.44501,0.220296 1.97149,0.210283 0.52647,0 0.51528,0 0.52649,-0.570768 0,-0.580779 0,-9.062176 -5.79126,0 -1.45623,0.280377 -1.28818,-1.151547 8.53567,0 0,-5.036767 -4.6711,0 -1.04176,0 -1.93788,0.220296 -0.88493,0.210282 -1.44501,-1.291735 11.75053,0 0.88493,-2.012705 1.20978,-3.45464 0.32485,-1.441938 -7.57232,0 -1.04176,0 -1.93788,0.220296 -0.88494,0.210283 -1.445,-1.291736 8.86051,0 -0.0896,-1.011359 -1.12017,-2.373189 -1.05296,-1.371842 0.32485,-0.280377 1.44502,0.710955 1.85947,1.261695 0.40326,0.540727 0.40326,0.540726 -0.32485,1.261695 -0.7281,0.720969 4.02139,0 1.93789,-1.732328 2.90122,2.593485 -5.63443,0 2.73321,1.582125 -0.56009,0.220297 -1.08656,0.891197 -0.52647,0.690928 -0.52649,0.680915 -1.24338,1.762368 -0.7281,1.081453 4.18941,0 1.92669,-1.732328 2.90123,2.593485 -9.49901,0 0,5.036767 3.70775,0 1.92668,-1.722314 2.90124,2.593484 -8.53567,0 0,10.073534 0,1.081454 -1.53462,1.582125 -1.52343,0.500672 0,-0.861156 -2.0163,-1.441938 -2.00509,-0.570767 0,-0.58078 z"
     id="path4393"
     inkscape:connector-curvature="0"
     style="fill:#000000;fill-rule:evenodd" />
  <path
     d="m 716.84851,58.968195 3.05806,1.732327 -1.2882,0.570768 -1.76986,2.52339 -3.3829,3.735018 -1.60183,1.231655 -0.48168,-0.290391 1.68026,-1.872515 2.74439,-4.746377 1.04176,-2.883875 0,0 z"
     id="path4395"
     inkscape:connector-curvature="0"
     style="fill:#000000;fill-rule:evenodd" />
  <path
     d="m 725.38417,59.398773 1.53463,0.791063 2.12832,1.33179 0.60489,0.540726 0.60489,0.540727 0.12321,1.331789 -0.48167,0.791062 -0.49287,0.791063 -0.84013,-0.180241 -0.35845,-0.971306 -0.36965,-0.971304 -1.56824,-2.263041 -1.20978,-1.301749 0.32485,-0.430579 z"
     id="path4397"
     inkscape:connector-curvature="0"
     style="fill:#000000;fill-rule:evenodd" />
  <path
     d="m 716.53487,44.138271 1.12016,0.650874 1.73626,1.221642 0.60489,0.58078 0.59369,0.570767 0.0448,1.331789 -0.56008,0.761022 -0.57129,0.751009 -0.79532,-0.140188 -0.24643,-0.901211 -0.24644,-0.90121 -1.19858,-2.263041 -0.97454,-1.371843 0.49288,-0.29039 z"
     id="path4399"
     inkscape:connector-curvature="0"
     style="fill:#000000;fill-rule:evenodd" />
  <path
     d="m 773.04722,55.223164 0,-10.363924 0,-1.582126 -0.0784,-3.664924 -0.0784,-2.092811 3.69655,1.582125 -1.28819,1.151547 0,13.387987 1.13137,-0.931251 2.45315,-2.373188 1.33301,-1.441938 1.32179,-1.441937 1.89308,-2.303095 0.56009,-0.861157 2.90122,2.443283 -1.76986,0.430579 -2.32994,2.383202 -4.91753,4.385892 -2.57638,2.012704 0,9.072189 0,1.221641 1.3666,1.221642 1.37781,0 6.92262,0 0.63849,0 0.80653,-0.931252 0.15681,-0.941265 0.16804,-0.93125 0.15681,-2.883875 0,-1.94261 0.80653,0 0.15681,1.94261 0.40327,2.593484 0.24643,0.650875 0.24644,0.640861 0.88493,0.87117 0.63849,0.210283 -0.7281,1.301749 -2.32995,1.291735 -1.61304,0 -8.53566,0 -2.0051,0 -2.01629,-1.65222 0,-1.662233 0,-8.771785 -2.09471,1.431924 -4.82791,2.453296 -2.73321,1.001346 -0.16803,-0.570768 2.82282,-1.441936 4.90633,-3.164252 2.09471,-1.732327 0,0 z"
     id="path4401"
     inkscape:connector-curvature="0"
     style="fill:#000000;fill-rule:evenodd" />
  <path
     d="m 759.68364,70.914245 0.0784,-2.303094 0.0784,-4.385893 0,-2.092811 0,-12.667019 -1.76986,2.383202 -3.3829,3.88522 -1.60184,1.512031 -0.49288,-0.440591 1.78107,-2.222988 3.29329,-5.186968 1.53462,-2.953969 1.52342,-2.943955 1.93789,-4.466 0.40327,-1.512031 3.53972,1.872515 -1.61304,0.861157 -1.04175,2.092812 -1.9379,3.594829 -0.88492,1.512032 2.26274,1.151547 -1.28819,1.151547 0,15.691082 0,0.791062 0.0784,2.162907 0.0784,1.361829 -2.57638,1.151547 z"
     id="path4403"
     inkscape:connector-curvature="0"
     style="fill:#000000;fill-rule:evenodd" />
  <path
     d="m 29.29742,395.38018 -13.766835,0.24031 m -0.179226,-8.20102 9.353382,8.04081 m -3.338094,-2.86385 7.751546,-5.40727 m -11.23526,-3.91525 -0.6721,-1.15155 m 0,0 -2.005097,-1.72231 m 0,0 13.755634,-0.24033 m -13.923659,-7.37991 -0.134419,-6.43865 m 0,0 5.309585,3.4246 m 0,0 -0.0336,-1.76237 m 0,0 0.627293,-1.18158 m 0,0 0.638494,-0.60082 m 0,0 1.96029,-0.62083 m 0,0 1.310593,-0.02 m 0,0 1.971493,0.55074 m 0,0 1.344198,1.15155 m 0,0 0.694503,1.74234 m 0,0 0.0336,1.76237 m 0,0 -0.61609,1.76236 m 0,0 -0.638495,0.60081 m 0,0 -1.299392,0.61082 m -9.543811,-16.83261 11.795344,-0.20027 m -5.791256,5.37722 -0.224034,-10.54417 m -3.539723,-12.24645 1.971492,0.55074 m 0,0 1.344199,1.15155 m 0,0 0.6833,1.74234 m 0,0 0.02241,0.59079 m 0,0 -0.616091,1.76237 m 0,0 -1.28819,1.20162 m 0,0 -1.96029,0.61082 m 0,0 -0.649696,0.02 m 0,0 -1.982693,-0.56076 m 0,0 -1.332998,-1.14153 m 0,0 -0.694501,-1.75236 m 0,0 -0.01117,-0.58077 m 0,0 0.616092,-1.77239 m 0,0 1.28819,-1.1916 m 0,0 2.609985,-0.63085 m 0,0 3.270885,-0.0601 m 0,0 3.293286,0.53071 m 0,0 1.993895,1.14153 m 0,0 0.683301,1.74235 m 0,0 0.0336,1.17157 m 0,0 -0.61609,1.77238 m 0,0 -1.299392,0.60081 m -12.164999,-16.77253 9.297374,5.69765 m 0,0 -0.190427,-8.79181 m -9.106947,3.09416 13.755634,-0.24033 m -13.912457,-6.78911 -0.13442,-6.44867 m 0,0 5.320787,3.42461 m 0,0 -0.04481,-1.75236 m 0,0 0.627292,-1.18159 m 0,0 0.649696,-0.60081 m 0,0 1.949087,-0.62083 m 0,0 1.310595,-0.02 m 0,0 1.982693,0.55074 m 0,0 1.332997,1.15154 m 0,0 0.694502,1.74235 m 0,0 0.0336,1.75235 m 0,0 -0.616091,1.77238 m 0,0 -0.638495,0.60081 m 0,0 -1.299391,0.60081"
     id="path4405"
     inkscape:connector-curvature="0"
     style="fill:none;stroke:#000000;stroke-width:0.52954519" />
  <path
     d="m 31.459339,306.14028 0.369655,69.27307"
     id="path4407"
     inkscape:connector-curvature="0"
     style="fill:none;stroke:#000000;stroke-width:0.52954519" />
  <path
     d="m 277.21247,312.99949 -0.21283,59.09941"
     id="path4409"
     inkscape:connector-curvature="0"
     style="fill:none;stroke:#000000;stroke-width:0.52954519" />
  <path
     d="m 786.42855,306.14028 -0.54888,64.09611"
     id="path4411"
     inkscape:connector-curvature="0"
     style="fill:none;stroke:#000000;stroke-width:0.52954519" />
  <path
     d="m 776.6047,384.18513 -13.75563,0.24033 m -0.17924,-8.20102 9.35339,8.0408 m -3.3381,-2.87386 7.74035,-5.40727 m -11.22405,-3.90524 -0.68331,-1.16157 m 0,0 -2.00509,-1.72231 m 0,0 13.76683,-0.24033 m -14.02448,-12.05619 9.29738,5.69765 m 0,0 -0.19043,-8.7918 m -9.10695,3.09415 13.75564,-0.24032 m -12.03058,-10.92468 11.78414,-0.20027 m -5.78005,5.36721 -0.22403,-10.54417 m -4.7047,-5.18696 -0.64969,0.01 m 0,0 -1.333,-0.56076 m 0,0 -0.6609,-0.58078 m 0,0 -0.6833,-1.15154 m 0,0 -0.056,-2.34315 m 0,0 0.63849,-1.18159 m 0,0 0.63849,-0.60081 m 0,0 1.29939,-0.61082 m 0,0 1.3106,-0.02 m 0,0 1.32179,0.56075 m 0,0 1.9939,1.14153 m 0,0 6.67619,5.73771 m 0,0 -0.17922,-8.20102 m -11.21287,-3.31445 -0.6833,-1.16156 m 0,0 -2.0051,-1.72231 m 0,0 13.76684,-0.24032 m -9.4878,-13.89868 1.98269,0.55074 m 0,0 1.333,1.15154 m 0,0 0.6945,1.74235 m 0,0 0.0114,0.5908 m 0,0 -0.6161,1.76236 m 0,0 -1.27698,1.1916 m 0,0 -1.9603,0.62083 m 0,0 -0.64969,0.02 m 0,0 -1.98269,-0.56076 m 0,0 -1.333,-1.14153 m 0,0 -0.6945,-1.75235 m 0,0 -0.0114,-0.58078 m 0,0 0.61609,-1.77238 m 0,0 1.28819,-1.1916 m 0,0 2.59879,-0.63085 m 0,0 3.28209,-0.0601 m 0,0 3.29327,0.53071 m 0,0 1.98271,1.14154 m 0,0 0.6945,1.74233 m 0,0 0.0225,1.17158 m 0,0 -0.6161,1.77238 m 0,0 -1.28819,0.60081"
     id="path4413"
     inkscape:connector-curvature="0"
     style="fill:none;stroke:#000000;stroke-width:0.52954519" />
  <path
     d="m 161.0737,382.80327 -13.75563,0.24033 m -0.17922,-8.20102 9.35337,8.0408 m -3.33809,-2.87386 7.75155,-5.40726 m -11.23526,-3.90525 -0.6833,-1.16156 m 0,0 -1.9939,-1.72232 m 0,0 13.75563,-0.24032 m -14.02448,-12.05619 9.29738,5.69764 m 0,0 -0.19043,-8.78179 m -9.10695,3.08415 13.75564,-0.24033 m -12.03058,-10.92468 11.79535,-0.20026 m -5.79126,5.3672 -0.22403,-10.53415 m -8.04279,-8.07084 0.6945,1.75235 m 0,0 1.9939,1.13152 m 0,0 3.28208,0.53071 m 0,0 1.97149,-0.03 m 0,0 3.25969,-0.65088 m 0,0 1.93788,-1.20161 m 0,0 0.61609,-1.77238 m 0,0 -0.0223,-1.17157 m 0,0 -0.69451,-1.74235 m 0,0 -1.99389,-1.13151 m 0,0 -3.28209,-0.53072 m 0,0 -1.97148,0.0301 m 0,0 -3.25969,0.64085 m 0,0 -1.93789,1.21163 m 0,0 -0.61608,1.76237 m 0,0 0.0225,1.17157 m 2.44196,-8.24107 -0.6833,-1.16156 m 0,0 -2.0051,-1.72232 m 0,0 13.76685,-0.24032 m -13.97967,-9.71304 0.6945,1.74233 m 0,0 1.99389,1.13153 m 0,0 3.28209,0.5307 m 0,0 1.97149,-0.03 m 0,0 3.25969,-0.64086 m 0,0 1.93788,-1.21163 m 0,0 0.61608,-1.76237 m 0,0 -0.0223,-1.17157 m 0,0 -0.6945,-1.75236 m 0,0 -1.98269,-1.13151 m 0,0 -3.29329,-0.53072 m 0,0 -1.97149,0.0301 m 0,0 -3.25969,0.65086 m 0,0 -1.93788,1.20162 m 0,0 -0.61608,1.77238 m 0,0 0.0224,1.17158"
     id="path4415"
     inkscape:connector-curvature="0"
     style="fill:none;stroke:#000000;stroke-width:0.52954519" />
  <path
     d="M 51.207858,266.65723 21.422656,326.18721"
     id="path4875"
     inkscape:connector-curvature="0"
     style="fill:none;stroke:#000000;stroke-width:0.52954519" />
  <path
     d="M 71.460452,390.62378 57.70482,390.8641 m -0.179228,-8.20102 9.353384,8.04081 m -3.338094,-2.87387 7.751546,-5.40725 m -11.235261,-3.90525 -0.6833,-1.16156 m 0,0 -1.993896,-1.72232 m 0,0 13.755634,-0.24032 m -13.923659,-7.37991 -0.145621,-6.43866 m 0,0 5.320787,3.4246 m 0,0 -0.0336,-1.76236 m 0,0 0.627293,-1.18159 m 0,0 0.638494,-0.5908 m 0,0 1.96029,-0.62083 m 0,0 1.310593,-0.02 m 0,0 1.971493,0.55074 m 0,0 1.332996,1.14153 m 0,0 0.694503,1.75236 m 0,0 0.04481,1.75235 m 0,0 -0.61609,1.77238 m 0,0 -0.649697,0.5908 m 0,0 -1.299392,0.61081 m -9.532609,-16.82259 11.784142,-0.21029 m -5.780054,5.37722 -0.224034,-10.54416 m -3.550924,-12.24645 1.982693,0.55073 m 0,0 1.332997,1.15155 m 0,0 0.694503,1.75236 m 0,0 0.01117,0.58078 m 0,0 -0.616091,1.77238 m 0,0 -1.276989,1.1916 m 0,0 -1.96029,0.62084 m 0,0 -0.649695,0.01 m 0,0 -1.982693,-0.55074 m 0,0 -1.332998,-1.15154 m 0,0 -0.694503,-1.74235 m 0,0 -0.01117,-0.59079 m 0,0 0.616091,-1.76237 m 0,0 1.288191,-1.20161 m 0,0 2.598784,-0.63085 m 0,0 3.282084,-0.0501 m 0,0 3.293288,0.53072 m 0,0 1.982693,1.13152 m 0,0 0.694503,1.74234 m 0,0 0.02241,1.17157 m 0,0 -0.616092,1.77239 m 0,0 -1.299392,0.61082 m -10.21591,-17.98417 -1.299392,0.60081 m 0,0 -0.616091,1.77238 m 0,0 0.02241,1.17158 m 0,0 0.694503,1.74233 m 0,0 1.993895,1.14154 m 0,0 3.282084,0.53071 m 0,0 3.282085,-0.0601 m 0,0 2.609987,-0.63085 m 0,0 1.276988,-1.1916 m 0,0 0.627294,-1.77238 m 0,0 -0.02241,-0.58078 m 0,0 -0.683301,-1.75235 m 0,0 -1.344199,-1.14153 m 0,0 -1.971491,-0.56076 m 0,0 -0.660897,0.02 m 0,0 -1.949089,0.61082 m 0,0 -1.28819,1.20161 m 0,0 -0.616092,1.76237 m 0,0 0.01117,0.59079 m 0,0 0.694503,1.74235 m 0,0 1.332997,1.15154 m 0,0 1.982693,0.55074 m -9.555012,-17.41339 9.297374,5.69765 m 0,0 -0.190428,-8.7818 m -9.106946,3.08415 13.755633,-0.24033"
     id="path4885"
     inkscape:connector-curvature="0"
     style="fill:none;stroke:#000000;stroke-width:0.52954519" />
  <path
     d="m 80.108131,266.65723 0.358454,108.75612"
     id="path4887"
     inkscape:connector-curvature="0"
     style="fill:none;stroke:#000000;stroke-width:0.52954519" />
  <path
     d="m 51.207858,266.65723 9.431796,-18.84532"
     id="path4889"
     inkscape:connector-curvature="0"
     style="fill:none;stroke:#000000;stroke-width:0.52954519" />
  <path
     d="m 127.59195,266.65723 0,-42.37694"
     id="path4891"
     inkscape:connector-curvature="0"
     style="fill:none;stroke:#000000;stroke-width:0.52954519" />
  <path
     d="m 786.42855,266.65723 0,-68.14155"
     id="path4893"
     inkscape:connector-curvature="0"
     style="fill:none;stroke:#000000;stroke-width:0.52954519" />
  <path
     d="m 127.59195,266.65723 0,-42.37694 m 0,0 0,42.37694"
     id="path4895"
     inkscape:connector-curvature="0"
     style="fill:none;stroke:#000000;stroke-width:0.52954519" />
  <path
     d="m 186.01979,224.28029 0,-41.00509"
     id="path4897"
     inkscape:connector-curvature="0"
     style="fill:none;stroke:#000000;stroke-width:0.52954519" />
  <path
     d="M 60.639654,247.81191 127.59195,224.28029"
     id="path4899"
     inkscape:connector-curvature="0"
     style="fill:none;stroke:#000000;stroke-width:0.52954519" />
  <path
     d="M 127.59195,224.28029 186.01979,183.2752"
     id="path4901"
     inkscape:connector-curvature="0"
     style="fill:none;stroke:#000000;stroke-width:0.52954519" />
  <path
     d="M 186.01979,183.2752 411.32989,30.720243"
     id="path4903"
     inkscape:connector-curvature="0"
     style="fill:none;stroke:#000000;stroke-width:0.52954519" />
  <path
     d="M 411.32989,30.720243 472.23331,8.5003906"
     id="path4905"
     inkscape:connector-curvature="0"
     style="fill:none;stroke:#000000;stroke-width:0.52954519" />
  <path
     d="M 786.42855,198.51568 760.44071,183.2752"
     id="path4907"
     inkscape:connector-curvature="0"
     style="fill:none;stroke:#000000;stroke-width:0.52954519" />
  <path
     d="M 760.44071,183.2752 719.08419,157.47053"
     id="path4909"
     inkscape:connector-curvature="0"
     style="fill:none;stroke:#000000;stroke-width:0.52954519" />
  <path
     d="M 719.08419,157.47053 577.84251,25.493221"
     id="path4911"
     inkscape:connector-curvature="0"
     style="fill:none;stroke:#000000;stroke-width:0.52954519" />
  <path
     d="m 128.30886,307.47207 -0.21283,59.0994"
     id="path4915"
     inkscape:connector-curvature="0"
     style="fill:none;stroke:#000000;stroke-width:0.52954519" />
  <path
     d="m 121.50945,390.85409 -13.76683,0.24032 m -0.17923,-8.20102 9.35338,8.04081 m -3.33809,-2.86385 7.75155,-5.40727 m -11.22406,-3.91525 -0.6833,-1.15155 m 0,0 -2.0051,-1.73233 m 0,0 13.75563,-0.23031 m -13.92366,-7.37991 -0.13442,-6.43865 m 0,0 5.30959,3.42459 m 0,0 -0.0336,-1.76236 m 0,0 0.6273,-1.18159 m 0,0 0.64969,-0.60081 m 0,0 1.94909,-0.62083 m 0,0 1.31059,-0.02 m 0,0 1.9715,0.55074 m 0,0 1.34419,1.15155 m 0,0 0.6945,1.74234 m 0,0 0.0336,1.76237 m 0,0 -0.6161,1.76236 m 0,0 -0.63849,0.60081 m 0,0 -1.29939,0.61082 m -9.54382,-16.83261 11.79535,-0.20027 m -5.78006,5.37722 -0.23524,-10.54417 m -3.53971,-12.24645 1.97148,0.55074 m 0,0 1.3442,1.15155 m 0,0 0.69451,1.74234 m 0,0 0.0114,0.59079 m 0,0 -0.61609,1.76237 m 0,0 -1.28819,1.20162 m 0,0 -1.94909,0.61082 m 0,0 -0.66089,0.02 m 0,0 -1.9827,-0.56076 m 0,0 -1.33299,-1.14153 m 0,0 -0.69451,-1.75236 m 0,0 -0.0112,-0.58077 m 0,0 0.61609,-1.77239 m 0,0 1.28819,-1.1916 m 0,0 2.60999,-0.63085 m 0,0 3.27088,-0.0601 m 0,0 3.29329,0.53072 m 0,0 1.9939,1.14153 m 0,0 0.6945,1.74235 m 0,0 0.0223,1.17157 m 0,0 -0.61608,1.77238 m 0,0 -1.29939,0.60081 m -7.61713,-18.61501 1.9827,0.55074 m 0,0 1.33299,1.15154 m 0,0 0.6945,1.74235 m 0,0 0.0114,0.59079 m 0,0 -0.61609,1.76237 m 0,0 -1.28819,1.20161 m 0,0 -1.9491,0.62084 m 0,0 -0.66089,0.01 m 0,0 -1.97149,-0.55074 m 0,0 -1.3442,-1.15155 m 0,0 -0.6833,-1.74234 m 0,0 -0.0224,-0.59079 m 0,0 0.62729,-1.77238 m 0,0 1.27699,-1.1916 m 0,0 2.60998,-0.63085 m 0,0 3.28209,-0.0601 m 0,0 3.28209,0.53071 m 0,0 1.99388,1.14154 m 0,0 0.6945,1.74234 m 0,0 0.0225,1.17157 m 0,0 -0.6161,1.77238 m 0,0 -1.29939,0.61083 m -8.77089,-11.57556 -0.6609,0.02 m 0,0 -1.32179,-0.57077 m 0,0 -0.6609,-0.57077 m 0,0 -0.6833,-1.16156 m 0,0 -0.056,-2.34314 m 0,0 0.63849,-1.1816 m 0,0 0.6385,-0.6008 m 0,0 1.29939,-0.60081 m 0,0 1.31059,-0.03 m 0,0 1.3218,0.57077 m 0,0 1.99389,1.13152 m 0,0 6.67619,5.74772 m 0,0 -0.17923,-8.20102"
     id="path4917"
     inkscape:connector-curvature="0"
     style="fill:none;stroke:#000000;stroke-width:0.52954519" />
  <path
     d="m 582.27836,312.99949 -0.22403,59.09941"
     id="path4919"
     inkscape:connector-curvature="0"
     style="fill:none;stroke:#000000;stroke-width:0.52954519" />
  <path
     d="m 660.66755,382.80327 -13.75563,0.24033 m -0.17922,-8.20102 9.35339,8.0408 m -3.3381,-2.87386 7.75154,-5.40726 m -11.23526,-3.90525 -0.6833,-1.16156 m 0,0 -1.99389,-1.72232 m 0,0 13.75562,-0.24032 m -14.02446,-12.05619 9.29737,5.69764 m 0,0 -0.19043,-8.78179 m -9.10694,3.08415 13.75563,-0.24033 m -12.03057,-10.92468 11.78414,-0.20026 m -5.78006,5.3672 -0.22404,-10.53415 m -5.34319,-4.59617 -0.68329,-1.16157 m 0,0 -2.0051,-1.72231 m 0,0 13.75564,-0.24032 m -13.89006,-6.20834 -0.17923,-8.20102 m 0,0 13.87886,5.62756 m -14.03569,-12.64699 0.69451,1.74234 m 0,0 1.99389,1.13152 m 0,0 3.28209,0.53071 m 0,0 1.9715,-0.03 m 0,0 3.25967,-0.64086 m 0,0 1.93789,-1.21163 m 0,0 0.61609,-1.76237 m 0,0 -0.0224,-1.17158 m 0,0 -0.6945,-1.75235 m 0,0 -1.9939,-1.13152 m 0,0 -3.28208,-0.53071 m 0,0 -1.97149,0.0301 m 0,0 -3.25968,0.65087 m 0,0 -1.93788,1.20162 m 0,0 -0.6161,1.77238 m 0,0 0.0223,1.17158"
     id="path4921"
     inkscape:connector-curvature="0"
     style="fill:none;stroke:#000000;stroke-width:0.52954519" />
  <path
     d="m 353.1709,385.19649 -13.75564,0.24032 m -0.17922,-8.20102 9.35338,8.04081 m -3.3493,-2.87386 7.75156,-5.40727 m -11.22407,-3.90525 -0.6833,-1.16155 m 0,0 -2.00509,-1.72232 m 0,0 13.76683,-0.24032 m -14.03568,-12.0562 9.30858,5.69766 m 0,0 -0.19043,-8.79182 m -9.11815,3.09416 13.76684,-0.24033 m -12.04178,-10.92467 11.79535,-0.21029 m -5.78006,5.37723 -0.23523,-10.54417 m -8.03159,-8.06083 0.6945,1.74235 m 0,0 1.9827,1.14153 m 0,0 3.29329,0.53071 m 0,0 1.96028,-0.0401 m 0,0 3.27088,-0.64087 m 0,0 1.93789,-1.20161 m 0,0 0.61609,-1.77238 m 0,0 -0.0224,-1.17158 m 0,0 -0.69451,-1.74233 m 0,0 -1.99389,-1.14154 m 0,0 -3.29329,-0.53071 m 0,0 -1.9603,0.0401 m 0,0 -3.25967,0.64086 m 0,0 -1.94909,1.20162 m 0,0 -0.6161,1.77238 m 0,0 0.0336,1.17157 m 1.63543,-15.2605 -1.29939,0.61082 m 0,0 -0.61609,1.76237 m 0,0 0.0225,1.17157 m 0,0 0.6945,1.74235 m 0,0 1.9939,1.14153 m 0,0 3.28208,0.53071 m 0,0 3.28209,-0.0601 m 0,0 2.59878,-0.63085 m 0,0 1.28819,-1.19159 m 0,0 0.6161,-1.77238 m 0,0 -0.0114,-0.58079 m 0,0 -0.6945,-1.75236 m 0,0 -1.333,-1.14153 m 0,0 -1.98269,-0.55073 m 0,0 -0.6497,0.01 m 0,0 -1.94909,0.62083 m 0,0 -1.28819,1.1916 m 0,0 -0.61609,1.77238 m 0,0 0.0114,0.58078 m 0,0 0.6945,1.74235 m 0,0 1.333,1.15155 m 0,0 1.98269,0.55073 m -9.58861,-18.58497 0.13442,5.85787 m 0,0 5.90327,0.49067 m 0,0 -0.66091,-0.58078 m 0,0 -0.6945,-1.74235 m 0,0 -0.0448,-1.76236 m 0,0 0.61609,-1.76237 m 0,0 1.28819,-1.20162 m 0,0 1.94909,-0.61082 m 0,0 1.3106,-0.03 m 0,0 1.98269,0.55073 m 0,0 1.333,1.15155 m 0,0 0.6945,1.74234 m 0,0 0.0448,1.76237 m 0,0 -0.61609,1.77238 m 0,0 -0.6497,0.5908 m 0,0 -1.29939,0.61081"
     id="path5037"
     inkscape:connector-curvature="0"
     style="fill:none;stroke:#000000;stroke-width:0.52954519" />
  <path
     d="m 361.67296,306.14028 0.36965,69.27307"
     id="path5039"
     inkscape:connector-curvature="0"
     style="fill:none;stroke:#000000;stroke-width:0.52954519" />
  <path
     d="m 540.73142,385.19649 -13.76683,0.24032 m -0.16802,-8.20102 9.34218,8.04081 m -3.3381,-2.87386 7.75155,-5.40727 m -11.22406,-3.90525 -0.6833,-1.16155 m 0,0 -2.0051,-1.72232 m 0,0 13.75564,-0.24032 m -14.02448,-12.0562 9.29738,5.69766 m 0,0 -0.19043,-8.79182 m -9.10695,3.09416 13.75564,-0.24033 m -12.03058,-10.92467 11.79535,-0.21029 m -5.78006,5.37723 -0.23523,-10.54417 m -5.3432,-4.59617 -0.6833,-1.15154 m 0,0 -2.00509,-1.73233 m 0,0 13.76683,-0.23031 m -10.64157,-6.84921 -0.6497,0.01 m 0,0 -1.32179,-0.56075 m 0,0 -0.6721,-0.58078 m 0,0 -0.6833,-1.15155 m 0,0 -0.0448,-2.34314 m 0,0 0.62729,-1.18159 m 0,0 0.63849,-0.60081 m 0,0 1.2994,-0.61082 m 0,0 1.31059,-0.02 m 0,0 1.32179,0.56076 m 0,0 1.9939,1.14153 m 0,0 6.67619,5.73771 m 0,0 -0.17922,-8.20102 m -13.91246,-6.78913 0.6945,1.75236 m 0,0 1.9939,1.13152 m 0,0 3.29328,0.53072 m 0,0 1.96029,-0.0301 m 0,0 3.27088,-0.65087 m 0,0 1.93789,-1.20161 m 0,0 0.61609,-1.77238 m 0,0 -0.0225,-1.17158 m 0,0 -0.6945,-1.74234 m 0,0 -1.99389,-1.14154 m 0,0 -3.29329,-0.5207 m 0,0 -1.96029,0.03 m 0,0 -3.27088,0.64086 m 0,0 -1.93789,1.21162 m 0,0 -0.61609,1.76238 m 0,0 0.0224,1.17156"
     id="path5041"
     inkscape:connector-curvature="0"
     style="fill:none;stroke:#000000;stroke-width:0.52954519" />
  <path
     d="m 549.23348,306.14028 0.36965,69.27307"
     id="path5043"
     inkscape:connector-curvature="0"
     style="fill:none;stroke:#000000;stroke-width:0.52954519" />
  <path
     d="m 449.69557,385.19649 -13.75563,0.24032 m -0.17923,-8.20102 9.34219,8.04081 m -3.3381,-2.87386 7.75154,-5.40727 m -11.22406,-3.90525 -0.68329,-1.16155 m 0,0 -2.00511,-1.72232 m 0,0 13.75563,-0.24032 m -14.02446,-12.0562 9.29737,5.69766 m 0,0 -0.19043,-8.79182 m -9.10694,3.09416 13.76683,-0.24033 m -12.04177,-10.92467 11.79533,-0.21029 m -5.78005,5.37723 -0.23524,-10.54417 m -8.04278,-8.06083 0.69449,1.74235 m 0,0 1.9939,1.14153 m 0,0 3.29329,0.53071 m 0,0 1.96029,-0.0401 m 0,0 3.25968,-0.64087 m 0,0 1.94909,-1.20161 m 0,0 0.6161,-1.77238 m 0,0 -0.0225,-1.17158 m 0,0 -0.6945,-1.74233 m 0,0 -1.9939,-1.14154 m 0,0 -3.29328,-0.53071 m 0,0 -1.96029,0.0401 m 0,0 -3.27088,0.64086 m 0,0 -1.93789,1.20162 m 0,0 -0.61609,1.77238 m 0,0 0.0224,1.17157 m 4.24543,-15.89135 1.98269,0.55075 m 0,0 1.333,1.15154 m 0,0 0.6945,1.74234 m 0,0 0.0114,0.58078 m 0,0 -0.6161,1.77238 m 0,0 -1.28819,1.1916 m 0,0 -1.94909,0.62084 m 0,0 -0.6609,0.01 m 0,0 -1.97149,-0.55075 m 0,0 -1.33299,-1.15154 m 0,0 -0.6945,-1.74234 m 0,0 -0.0114,-0.58078 m 0,0 0.61609,-1.77238 m 0,0 1.27699,-1.1916 m 0,0 2.60999,-0.63085 m 0,0 3.28208,-0.0601 m 0,0 3.28209,0.53071 m 0,0 1.99388,1.13152 m 0,0 0.69451,1.75235 m 0,0 0.0224,1.17158 m 0,0 -0.61609,1.76237 m 0,0 -1.2994,0.61081 m -8.77089,-11.56553 -0.6497,0.01 m 0,0 -1.32179,-0.56075 m 0,0 -0.6721,-0.57076 m 0,0 -0.6833,-1.16157 m 0,0 -0.0448,-2.34314 m 0,0 0.6273,-1.18159 m 0,0 0.63849,-0.60081 m 0,0 1.2994,-0.61082 m 0,0 1.31058,-0.02 m 0,0 1.32181,0.56076 m 0,0 1.99389,1.14153 m 0,0 6.67618,5.73771 m 0,0 -0.17922,-8.20102"
     id="path5045"
     inkscape:connector-curvature="0"
     style="fill:none;stroke:#000000;stroke-width:0.52954519" />
  <path
     d="m 458.19762,306.14028 0.36966,69.27307"
     id="path5047"
     inkscape:connector-curvature="0"
     style="fill:none;stroke:#000000;stroke-width:0.52954519" />
  <path
     d="m 760.44071,224.28029 0,-41.00509"
     id="path5049"
     inkscape:connector-curvature="0"
     style="fill:none;stroke:#000000;stroke-width:0.52954519" />
  <text
     xml:space="preserve"
     style="font-size:14.82726765px;font-style:normal;font-weight:normal;line-height:125%;letter-spacing:0px;word-spacing:0px;fill:#000000;fill-opacity:1;stroke:none;font-family:Sans"
     x="527.45795"
     y="99.215973"
     id="text5585"
     sodipodi:linespacing="125%"
     transform="scale(1.0576675,0.9454767)"><tspan
       sodipodi:role="line"
       id="tspan5587"
       x="527.45795"
       y="99.215973">第四级平台</tspan></text>
  <text
     xml:space="preserve"
     style="font-size:14.82726765px;font-style:normal;font-weight:normal;line-height:125%;letter-spacing:0px;word-spacing:0px;fill:#000000;fill-opacity:1;stroke:none;font-family:Sans"
     x="616.94391"
     y="186.79803"
     id="text5589"
     sodipodi:linespacing="125%"
     transform="scale(1.0576675,0.9454767)"><tspan
       sodipodi:role="line"
       id="tspan5591"
       x="616.94391"
       y="186.79803">第三级平台</tspan></text>
  <text
     xml:space="preserve"
     style="font-size:14.82726765px;font-style:normal;font-weight:normal;line-height:125%;letter-spacing:0px;word-spacing:0px;fill:#000000;fill-opacity:1;stroke:none;font-family:Sans"
     x="667.39886"
     y="230.58907"
     id="text5593"
     sodipodi:linespacing="125%"
     transform="scale(1.0576675,0.9454767)"><tspan
       sodipodi:role="line"
       id="tspan5595"
       x="667.39886"
       y="230.58907">第二级平台</tspan></text>
  <text
     xml:space="preserve"
     style="font-size:14.82726765px;font-style:normal;font-weight:normal;line-height:125%;letter-spacing:0px;word-spacing:0px;fill:#000000;fill-opacity:1;stroke:none;font-family:Sans"
     x="666.44678"
     y="275.33209"
     id="text5597"
     sodipodi:linespacing="125%"
     transform="scale(1.0576675,0.9454767)"><tspan
       sodipodi:role="line"
       id="tspan5599"
       x="666.44678"
       y="275.33209">第一级平台</tspan></text>
  <path
     d="m 284.26462,312.8254 0,-88.32596"
     id="path5939-7-3-4"
     inkscape:connector-curvature="0"
     style="fill:none;stroke:#000000;stroke-width:0.74697298" />
  <path
     d="m 270.57315,313.07372 0,-88.85596"
     id="path5939-7-3-1-4"
     inkscape:connector-curvature="0"
     style="fill:none;stroke:#000000;stroke-width:0.73752058" />
  <path
     style="fill:none;stroke:#000000;stroke-width:0.51475918px;stroke-linecap:butt;stroke-linejoin:miter;stroke-opacity:1"
     d="m 270.31489,312.86877 c 13.97721,0.0451 14.28984,0.0271 14.28984,0.0271"
     id="path8189-1-8"
     inkscape:connector-curvature="0" />
  <path
     d="m 589.85183,312.60036 0,-88.32595"
     id="path5939-7-3-4-1"
     inkscape:connector-curvature="0"
     style="fill:none;stroke:#000000;stroke-width:0.74697298" />
  <path
     d="m 576.16036,312.84869 0,-88.85596"
     id="path5939-7-3-1-4-7"
     inkscape:connector-curvature="0"
     style="fill:none;stroke:#000000;stroke-width:0.73752058" />
  <path
     style="fill:none;stroke:#000000;stroke-width:0.51475918px;stroke-linecap:butt;stroke-linejoin:miter;stroke-opacity:1"
     d="m 575.9021,312.64374 c 13.97721,0.0451 14.28984,0.0271 14.28984,0.0271"
     id="path8189-1-8-4"
     inkscape:connector-curvature="0" />
</svg>
