<?xml version="1.0" encoding="UTF-8" standalone="no"?>
<svg
   xmlns:dc="http://purl.org/dc/elements/1.1/"
   xmlns:cc="http://creativecommons.org/ns#"
   xmlns:rdf="http://www.w3.org/1999/02/22-rdf-syntax-ns#"
   xmlns:svg="http://www.w3.org/2000/svg"
   xmlns="http://www.w3.org/2000/svg"
   xmlns:sodipodi="http://sodipodi.sourceforge.net/DTD/sodipodi-0.dtd"
   xmlns:inkscape="http://www.inkscape.org/namespaces/inkscape"
   width="800.000"
   height="600.000"
   viewBox="0.0 0.0 800.000 600.000"
   id="svg21627"
   version="1.1"
   inkscape:version="0.48.4 r9939"
   sodipodi:docname="17标K84+639涵洞图-Model.svg">
  <metadata
     id="metadata23567">
    <rdf:RDF>
      <cc:Work
         rdf:about="">
        <dc:format>image/svg+xml</dc:format>
        <dc:type
           rdf:resource="http://purl.org/dc/dcmitype/StillImage" />
      </cc:Work>
    </rdf:RDF>
  </metadata>
  <defs
     id="defs23565" />
  <sodipodi:namedview
     pagecolor="#ffffff"
     bordercolor="#666666"
     borderopacity="1"
     objecttolerance="10"
     gridtolerance="10"
     guidetolerance="10"
     inkscape:pageopacity="0"
     inkscape:pageshadow="2"
     inkscape:window-width="1920"
     inkscape:window-height="1018"
     id="namedview23563"
     showgrid="false"
     inkscape:zoom="1.1125147"
     inkscape:cx="435.98006"
     inkscape:cy="361.58091"
     inkscape:window-x="1432"
     inkscape:window-y="-8"
     inkscape:window-maximized="1"
     inkscape:current-layer="svg21627" />
  <title
     id="title21629">Produce by DWG to SVG Converter MX</title>
  <desc
     id="desc21631">Produce by DWG to SVG Converter MX</desc>
  <path
     d="M87.89 252.01L87.89 451.84"
     fill="none"
     stroke="black"
     stroke-width="0.5"
     id="path21657" />
  <path
     d="M2.7 222.36L2.7 466.02"
     fill="none"
     stroke="black"
     stroke-width="0.5"
     id="path21659" />
  <path
     d="M2.7 466.02L87.89 451.84"
     fill="none"
     stroke="black"
     stroke-width="0.5"
     id="path21661" />
  <path
     d="M87.89 252.01L87.89 237.83"
     fill="none"
     stroke="black"
     stroke-width="0.5"
     id="path21663" />
  <path
     d="M87.89 237.83L2.7 222.36"
     fill="none"
     stroke="black"
     stroke-width="0.5"
     id="path21665" />
  <path
     d="M87.54 255.58L1.99 241.34"
     fill="none"
     stroke="black"
     stroke-width="0.5"
     id="path21667" />
  <path
     d="M87.54 266.98L607.97 266.98"
     fill="none"
     stroke="black"
     stroke-width="0.5"
     id="path21669" />
  <path
     d="M88.12 432.25L2.55 447.59"
     fill="none"
     stroke="black"
     stroke-width="0.5"
     id="path21671" />
  <path
     d="M88.42 424.17L607.56 424.17"
     fill="none"
     stroke="black"
     stroke-width="0.5"
     id="path21673" />
  <path
     d="M363.06 218.44L363.06 479.37"
     fill="none"
     stroke="black"
     stroke-width="0.5"
     id="path21675" />
  <path
     d="M88.42 347.23L607.56 347.23"
     id="path21677"
     stroke-width="0.5"
     stroke="black"
     fill="none" />
  <path
     d="M88.42 310.43L153.78 310.43M209.03 310.43L319.53 310.43M374.78 310.43L485.28 310.43M540.53 310.43L605.89 310.43"
     fill="none"
     stroke="black"
     stroke-width="0.5"
     id="path21679" />
  <path
     d="M351.85 179.65L351.85 202.62"
     fill="none"
     stroke="black"
     stroke-width="0.5"
     id="path21685" />
  <path
     d="M351.85 202.62L375.61 202.62"
     fill="none"
     stroke="black"
     stroke-width="0.5"
     id="path21687" />
  <path
     d="M375.61 202.62L375.61 179.52"
     fill="none"
     stroke="black"
     stroke-width="0.5"
     id="path21689" />
  <path
     d="M375.58 179.32L377.04 179.32"
     fill="none"
     stroke="black"
     stroke-width="0.5"
     id="path21691" />
  <path
     d="M351.82 179.7L349.97 179.7"
     fill="none"
     stroke="black"
     stroke-width="0.5"
     id="path21693" />
  <path
     d="M349.9 179.72L363.02 169.35"
     fill="none"
     stroke="black"
     stroke-width="0.5"
     id="path21695" />
  <path
     d="M363.02 169.35L376.99 179.38"
     fill="none"
     stroke="black"
     stroke-width="0.5"
     id="path21697" />
  <path
     d="M353.27 513.73L353.27 490.77"
     fill="none"
     stroke="black"
     stroke-width="0.5"
     id="path21699" />
  <path
     d="M353.27 490.77L377.03 490.77"
     fill="none"
     stroke="black"
     stroke-width="0.5"
     id="path21701" />
  <path
     d="M377.03 490.77L377.03 513.86"
     fill="none"
     stroke="black"
     stroke-width="0.5"
     id="path21703" />
  <path
     d="M377 514.06L378.46 514.06"
     fill="none"
     stroke="black"
     stroke-width="0.5"
     id="path21705" />
  <path
     d="M353.25 513.68L351.39 513.68"
     fill="none"
     stroke="black"
     stroke-width="0.5"
     id="path21707" />
  <path
     d="M351.33 513.66L364.45 524.04"
     fill="none"
     stroke="black"
     stroke-width="0.5"
     id="path21709" />
  <path
     d="M364.45 524.04L378.41 514"
     fill="none"
     stroke="black"
     stroke-width="0.5"
     id="path21711" />
  <path
     d="M1.47 258.12L88.17 292.76"
     fill="none"
     stroke="black"
     stroke-width="0.5"
     id="path21717" />
  <path
     d="M3.2 292.76L88.17 322.2"
     fill="none"
     stroke="black"
     stroke-width="0.5"
     id="path21719" />
  <path
     d="M3.2 431.32L88.17 405.34"
     fill="none"
     stroke="black"
     stroke-width="0.5"
     id="path21721" />
  <path
     d="M88.17 377.63L3.2 398.41"
     fill="none"
     stroke="black"
     stroke-width="0.5"
     id="path21723" />
  <path
     d="M87.81 347.38L2.47 347.38"
     fill="none"
     stroke="black"
     stroke-width="0.5"
     id="path21725" />
  <path
     d="M637.99 256.64L634.62 456.44"
     fill="none"
     stroke="black"
     stroke-width="0.5"
     id="path21727" />
  <path
     d="M723.66 228.43L719.56 472.05"
     fill="none"
     stroke="black"
     stroke-width="0.5"
     id="path21729" />
  <path
     d="M719.56 472.05L634.62 456.44"
     fill="none"
     stroke="black"
     stroke-width="0.5"
     id="path21731" />
  <path
     d="M637.99 256.64L638.22 242.46"
     fill="none"
     stroke="black"
     stroke-width="0.5"
     id="path21733" />
  <path
     d="M638.22 242.46L723.66 228.43"
     fill="none"
     stroke="black"
     stroke-width="0.5"
     id="path21735" />
  <path
     d="M638.27 260.22L724.05 247.42"
     fill="none"
     stroke="black"
     stroke-width="0.5"
     id="path21737" />
  <path
     d="M634.72 436.85L720.03 453.63"
     fill="none"
     stroke="black"
     stroke-width="0.5"
     id="path21739" />
  <path
     d="M724.29 264.2L637.02 297.38"
     fill="none"
     stroke="black"
     stroke-width="0.5"
     id="path21741" />
  <path
     d="M721.98 298.81L636.52 326.82"
     fill="none"
     stroke="black"
     stroke-width="0.5"
     id="path21743" />
  <path
     d="M719.65 437.35L635.12 409.94"
     fill="none"
     stroke="black"
     stroke-width="0.5"
     id="path21745" />
  <path
     d="M635.59 382.24L720.2 404.45"
     fill="none"
     stroke="black"
     stroke-width="0.5"
     id="path21747" />
  <path
     d="M636.46 351.99L721.79 353.43"
     fill="none"
     stroke="black"
     stroke-width="0.5"
     id="path21749" />
  <path
     d="M607.97 266.98L637.81 266.98"
     fill="none"
     stroke="black"
     stroke-width="0.5"
     id="path21751" />
  <path
     d="M607.56 347.23L636.35 347.23"
     fill="none"
     stroke="black"
     stroke-width="0.5"
     id="path21753" />
  <path
     d="M607.56 424.17L635.04 424.17"
     fill="none"
     stroke="black"
     stroke-width="0.5"
     id="path21755" />
  <path
     d="M605.89 310.43L636.94 310.43"
     fill="none"
     stroke="black"
     stroke-width="0.5"
     id="path21757" />
  <path
     d="M88.3 382.81L153.66 383.02M208.91 383.2L319.41 383.56M374.66 383.74L485.16 384.1M540.41 384.28L605.77 384.49"
     fill="none"
     stroke="black"
     stroke-width="0.5"
     id="path21825" />
  <path
     d="M605.77 384.49L636.82 384.59"
     fill="none"
     stroke="black"
     stroke-width="0.5"
     id="path21827" />
  <path
     d="M220.72 286.98L219.73 255.34"
     fill="none"
     stroke="black"
     stroke-width="0.5"
     id="path21919" />
  <path
     d="M197.6 252.59L207.46 252.59M207.46 252.59L210.75 249.3M210.75 249.3L210.75 246.01M210.75 246.01L207.46 242.73M207.46 242.73L200.89 242.73M207.46 242.73L210.75 239.44M210.75 239.44L210.75 236.15M210.75 236.15L207.46 232.86M207.46 232.86L197.6 232.86M200.89 232.86L200.89 252.59M217.33 252.59L217.33 232.86M217.33 232.86L223.91 246.01M223.91 246.01L230.48 232.86M230.48 232.86L230.48 252.59M237.06 236.15L240.35 232.86M240.35 232.86L246.93 232.86M246.93 232.86L250.22 236.15M250.22 236.15L250.22 239.44M250.22 239.44L246.93 242.73M246.93 242.73L243.64 242.73M246.93 242.73L250.22 246.01M250.22 246.01L250.22 249.3M250.22 249.3L246.93 252.59M246.93 252.59L240.35 252.59M240.35 252.59L237.06 249.3"
     fill="none"
     stroke="black"
     stroke-width="0.5"
     id="path21921" />
  <path
     d="M375.29 292.75L374.3 261.11"
     fill="none"
     stroke="black"
     stroke-width="0.5"
     id="path21923" />
  <path
     d="M352.17 258.36L362.03 258.36M362.03 258.36L365.32 255.08M365.32 255.08L365.32 251.79M365.32 251.79L362.03 248.5M362.03 248.5L355.46 248.5M362.03 248.5L365.32 245.21M365.32 245.21L365.32 241.92M365.32 241.92L362.03 238.63M362.03 238.63L352.17 238.63M355.46 238.63L355.46 258.36M371.9 258.36L371.9 238.63M371.9 238.63L378.48 251.79M378.48 251.79L385.05 238.63M385.05 238.63L385.05 258.36M391.63 241.92L394.92 238.63M394.92 238.63L401.5 238.63M401.5 238.63L404.79 241.92M404.79 241.92L404.79 245.21M404.79 245.21L401.5 248.5M401.5 248.5L394.92 248.5M394.92 248.5L391.63 251.79M391.63 251.79L391.63 258.36M391.63 258.36L404.79 258.36"
     fill="none"
     stroke="black"
     stroke-width="0.5"
     id="path21925" />
  <path
     d="M499.53 284.1L498.54 252.45"
     fill="none"
     stroke="black"
     stroke-width="0.5"
     id="path21927" />
  <path
     d="M476.4 249.71L486.27 249.71M486.27 249.71L489.55 246.42M489.55 246.42L489.55 243.13M489.55 243.13L486.27 239.84M486.27 239.84L479.69 239.84M486.27 239.84L489.55 236.55M489.55 236.55L489.55 233.26M489.55 233.26L486.27 229.97M486.27 229.97L476.4 229.97M479.69 229.97L479.69 249.71M496.13 249.71L496.13 229.97M496.13 229.97L502.71 243.13M502.71 243.13L509.29 229.97M509.29 229.97L509.29 249.71M515.86 233.26L519.15 229.97M519.15 229.97L519.15 249.71M515.86 249.71L522.44 249.71"
     fill="none"
     stroke="black"
     stroke-width="0.5"
     id="path21929" />
  <path
     d="M221.97 405.36L220.98 437.01"
     fill="none"
     stroke="black"
     stroke-width="0.5"
     id="path21931" />
  <path
     d="M198.84 462.78L208.71 462.78M208.71 462.78L212 459.49M212 459.49L212 456.2M212 456.2L208.71 452.91M208.71 452.91L202.13 452.91M208.71 452.91L212 449.62M212 449.62L212 446.33M212 446.33L208.71 443.04M208.71 443.04L198.84 443.04M202.13 443.04L202.13 462.78M218.58 462.78L218.58 443.04M218.58 443.04L225.15 456.2M225.15 456.2L231.73 443.04M231.73 443.04L231.73 462.78M238.31 452.91L248.17 452.91M248.17 452.91L251.46 456.2M251.46 456.2L251.46 459.49M251.46 459.49L248.17 462.78M248.17 462.78L241.6 462.78M241.6 462.78L238.31 459.49M238.31 459.49L238.31 449.62M238.31 449.62L244.88 443.04M244.88 443.04L248.17 443.04"
     fill="none"
     stroke="black"
     stroke-width="0.5"
     id="path21933" />
  <path
     d="M373.65 409.69L372.66 441.34"
     fill="none"
     stroke="black"
     stroke-width="0.5"
     id="path21935" />
  <path
     d="M350.52 467.1L360.39 467.1M360.39 467.1L363.68 463.82M363.68 463.82L363.68 460.53M363.68 460.53L360.39 457.24M360.39 457.24L353.81 457.24M360.39 457.24L363.68 453.95M363.68 453.95L363.68 450.66M363.68 450.66L360.39 447.37M360.39 447.37L350.52 447.37M353.81 447.37L353.81 467.1M370.26 467.1L370.26 447.37M370.26 447.37L376.83 460.53M376.83 460.53L383.41 447.37M383.41 447.37L383.41 467.1M389.99 463.82L393.28 467.1M393.28 467.1L399.85 467.1M399.85 467.1L403.14 463.82M403.14 463.82L403.14 457.24M403.14 457.24L399.85 453.95M399.85 453.95L389.99 453.95M389.99 453.95L389.99 447.37M389.99 447.37L403.14 447.37"
     fill="none"
     stroke="black"
     stroke-width="0.5"
     id="path21937" />
  <path
     d="M500.77 409.69L499.78 441.34"
     fill="none"
     stroke="black"
     stroke-width="0.5"
     id="path21939" />
  <path
     d="M477.65 467.1L487.51 467.1M487.51 467.1L490.8 463.82M490.8 463.82L490.8 460.53M490.8 460.53L487.51 457.24M487.51 457.24L480.93 457.24M487.51 457.24L490.8 453.95M490.8 453.95L490.8 450.66M490.8 450.66L487.51 447.37M487.51 447.37L477.65 447.37M480.93 447.37L480.93 467.1M497.38 467.1L497.38 447.37M497.38 447.37L503.96 460.53M503.96 460.53L510.53 447.37M510.53 447.37L510.53 467.1M530.26 460.53L517.11 460.53M517.11 460.53L526.98 447.37M526.98 447.37L526.98 467.1"
     fill="none"
     stroke="black"
     stroke-width="0.5"
     id="path21941" />
</svg>
