<?xml version="1.0" encoding="UTF-8" standalone="no"?>
<svg
   xmlns:dc="http://purl.org/dc/elements/1.1/"
   xmlns:cc="http://creativecommons.org/ns#"
   xmlns:rdf="http://www.w3.org/1999/02/22-rdf-syntax-ns#"
   xmlns:svg="http://www.w3.org/2000/svg"
   xmlns="http://www.w3.org/2000/svg"
   xmlns:sodipodi="http://sodipodi.sourceforge.net/DTD/sodipodi-0.dtd"
   xmlns:inkscape="http://www.inkscape.org/namespaces/inkscape"
   width="800.000"
   height="600.000"
   viewBox="0.0 0.0 800.000 600.000"
   id="svg13391"
   version="1.1"
   inkscape:version="0.48.4 r9939"
   sodipodi:docname="16标K77+690涵洞图-Model.svg">
  <metadata
     id="metadata15519">
    <rdf:RDF>
      <cc:Work
         rdf:about="">
        <dc:format>image/svg+xml</dc:format>
        <dc:type
           rdf:resource="http://purl.org/dc/dcmitype/StillImage" />
      </cc:Work>
    </rdf:RDF>
  </metadata>
  <defs
     id="defs15517" />
  <sodipodi:namedview
     pagecolor="#ffffff"
     bordercolor="#666666"
     borderopacity="1"
     objecttolerance="10"
     gridtolerance="10"
     guidetolerance="10"
     inkscape:pageopacity="0"
     inkscape:pageshadow="2"
     inkscape:window-width="1920"
     inkscape:window-height="1018"
     id="namedview15515"
     showgrid="false"
     inkscape:zoom="1.1125147"
     inkscape:cx="375.54043"
     inkscape:cy="334.98542"
     inkscape:window-x="1432"
     inkscape:window-y="-8"
     inkscape:window-maximized="1"
     inkscape:current-layer="svg13391" />
  <title
     id="title13393">Produce by DWG to SVG Converter MX</title>
  <desc
     id="desc13395">Produce by DWG to SVG Converter MX</desc>
  <path
     d="M87.89 252.01L87.89 451.84"
     fill="none"
     stroke="black"
     stroke-width="0.5"
     id="path13421" />
  <path
     d="M2.7 222.36L2.7 466.02"
     fill="none"
     stroke="black"
     stroke-width="0.5"
     id="path13423" />
  <path
     d="M2.7 466.02L87.89 451.84"
     fill="none"
     stroke="black"
     stroke-width="0.5"
     id="path13425" />
  <path
     d="M87.89 252.01L87.89 237.83"
     fill="none"
     stroke="black"
     stroke-width="0.5"
     id="path13427" />
  <path
     d="M87.89 237.83L2.7 222.36"
     fill="none"
     stroke="black"
     stroke-width="0.5"
     id="path13429" />
  <path
     d="M87.54 255.58L1.99 241.34"
     fill="none"
     stroke="black"
     stroke-width="0.5"
     id="path13431" />
  <path
     d="M87.54 266.98L607.97 266.98"
     fill="none"
     stroke="black"
     stroke-width="0.5"
     id="path13433" />
  <path
     d="M88.12 432.25L2.55 447.59"
     fill="none"
     stroke="black"
     stroke-width="0.5"
     id="path13435" />
  <path
     d="M88.42 424.17L607.56 424.17"
     fill="none"
     stroke="black"
     stroke-width="0.5"
     id="path13437" />
  <path
     d="M363.06 218.44L363.06 479.37"
     id="path13439"
     stroke-width="0.5"
     stroke="black"
     fill="none" />
  <path
     d="M88.42 310.43L153.78 310.43M209.03 310.43L319.53 310.43M374.78 310.43L485.28 310.43M540.53 310.43L605.89 310.43"
     fill="none"
     stroke="black"
     stroke-width="0.5"
     id="path13441" />
  <path
     d="M351.85 179.65L351.85 202.62"
     fill="none"
     stroke="black"
     stroke-width="0.5"
     id="path13447" />
  <path
     d="M351.85 202.62L375.61 202.62"
     fill="none"
     stroke="black"
     stroke-width="0.5"
     id="path13449" />
  <path
     d="M375.61 202.62L375.61 179.52"
     fill="none"
     stroke="black"
     stroke-width="0.5"
     id="path13451" />
  <path
     d="M375.58 179.32L377.04 179.32"
     fill="none"
     stroke="black"
     stroke-width="0.5"
     id="path13453" />
  <path
     d="M351.82 179.7L349.97 179.7"
     fill="none"
     stroke="black"
     stroke-width="0.5"
     id="path13455" />
  <path
     d="M349.9 179.72L363.02 169.35"
     fill="none"
     stroke="black"
     stroke-width="0.5"
     id="path13457" />
  <path
     d="M363.02 169.35L376.99 179.38"
     fill="none"
     stroke="black"
     stroke-width="0.5"
     id="path13459" />
  <path
     d="M353.27 513.73L353.27 490.77"
     fill="none"
     stroke="black"
     stroke-width="0.5"
     id="path13461" />
  <path
     d="M353.27 490.77L377.03 490.77"
     fill="none"
     stroke="black"
     stroke-width="0.5"
     id="path13463" />
  <path
     d="M377.03 490.77L377.03 513.86"
     fill="none"
     stroke="black"
     stroke-width="0.5"
     id="path13465" />
  <path
     d="M377 514.06L378.46 514.06"
     fill="none"
     stroke="black"
     stroke-width="0.5"
     id="path13467" />
  <path
     d="M353.25 513.68L351.39 513.68"
     fill="none"
     stroke="black"
     stroke-width="0.5"
     id="path13469" />
  <path
     d="M351.33 513.66L364.45 524.04"
     fill="none"
     stroke="black"
     stroke-width="0.5"
     id="path13471" />
  <path
     d="M364.45 524.04L378.41 514"
     fill="none"
     stroke="black"
     stroke-width="0.5"
     id="path13473" />
  <path
     d="M1.47 258.12L88.17 292.76"
     fill="none"
     stroke="black"
     stroke-width="0.5"
     id="path13479" />
  <path
     d="M3.2 292.76L88.17 322.2"
     fill="none"
     stroke="black"
     stroke-width="0.5"
     id="path13481" />
  <path
     d="M3.2 431.32L88.17 405.34"
     fill="none"
     stroke="black"
     stroke-width="0.5"
     id="path13483" />
  <path
     d="M88.17 377.63L3.2 398.41"
     fill="none"
     stroke="black"
     stroke-width="0.5"
     id="path13485" />
  <path
     d="M87.81 347.38L2.47 347.38"
     fill="none"
     stroke="black"
     stroke-width="0.5"
     id="path13487" />
  <path
     d="M637.99 256.64L634.62 456.44"
     fill="none"
     stroke="black"
     stroke-width="0.5"
     id="path13489" />
  <path
     d="M723.66 228.43L719.56 472.05"
     fill="none"
     stroke="black"
     stroke-width="0.5"
     id="path13491" />
  <path
     d="M719.56 472.05L634.62 456.44"
     fill="none"
     stroke="black"
     stroke-width="0.5"
     id="path13493" />
  <path
     d="M637.99 256.64L638.22 242.46"
     fill="none"
     stroke="black"
     stroke-width="0.5"
     id="path13495" />
  <path
     d="M638.22 242.46L723.66 228.43"
     fill="none"
     stroke="black"
     stroke-width="0.5"
     id="path13497" />
  <path
     d="M638.27 260.22L724.05 247.42"
     fill="none"
     stroke="black"
     stroke-width="0.5"
     id="path13499" />
  <path
     d="M634.72 436.85L720.03 453.63"
     fill="none"
     stroke="black"
     stroke-width="0.5"
     id="path13501" />
  <path
     d="M724.29 264.2L637.02 297.38"
     fill="none"
     stroke="black"
     stroke-width="0.5"
     id="path13503" />
  <path
     d="M721.98 298.81L636.52 326.82"
     fill="none"
     stroke="black"
     stroke-width="0.5"
     id="path13505" />
  <path
     d="M719.65 437.35L635.12 409.94"
     fill="none"
     stroke="black"
     stroke-width="0.5"
     id="path13507" />
  <path
     d="M635.59 382.24L720.2 404.45"
     fill="none"
     stroke="black"
     stroke-width="0.5"
     id="path13509" />
  <path
     d="M607.97 266.98L637.81 266.98"
     fill="none"
     stroke="black"
     stroke-width="0.5"
     id="path13511" />
  <path
     d="M607.56 424.17L635.04 424.17"
     fill="none"
     stroke="black"
     stroke-width="0.5"
     id="path13513" />
  <path
     d="M605.89 310.43L636.94 310.43"
     fill="none"
     stroke="black"
     stroke-width="0.5"
     id="path13515" />
  <path
     d="M88.42 384.03L153.78 384.03M209.03 384.03L319.53 384.03M374.78 384.03L485.28 384.03M540.53 384.03L605.89 384.03"
     fill="none"
     stroke="black"
     stroke-width="0.5"
     id="path15253" />
  <path
     d="M605.89 384.03L636.94 384.03"
     fill="none"
     stroke="black"
     stroke-width="0.5"
     id="path15255" />
  <path
     d="M721.66 347.38L636.46 347.38"
     fill="none"
     stroke="black"
     stroke-width="0.5"
     id="path15377" />
  <path
     d="M636.46 347.38L87.89 347.38"
     fill="none"
     stroke="black"
     stroke-width="0.5"
     id="path15379" />
  <path
     d="M87.89 347.38L2.47 347.38"
     fill="none"
     stroke="black"
     stroke-width="0.5"
     id="path15381" />
  <path
     d="M144.89 255.85L154.76 255.85M154.76 255.85L158.05 252.56M158.05 252.56L158.05 249.28M158.05 249.28L154.76 245.99M154.76 245.99L148.18 245.99M154.76 245.99L158.05 242.7M158.05 242.7L158.05 239.41M158.05 239.41L154.76 236.12M154.76 236.12L144.89 236.12M148.18 236.12L148.18 255.85M164.62 255.85L164.62 236.12M164.62 236.12L171.2 249.28M171.2 249.28L177.78 236.12M177.78 236.12L177.78 255.85M184.36 245.99L194.22 245.99M194.22 245.99L197.51 249.28M197.51 249.28L197.51 252.56M197.51 252.56L194.22 255.85M194.22 255.85L187.64 255.85M187.64 255.85L184.36 252.56M184.36 252.56L184.36 242.7M184.36 242.7L190.93 236.12M190.93 236.12L194.22 236.12"
     fill="none"
     stroke="black"
     stroke-width="0.5"
     id="path15445" />
  <path
     d="M215.93 258.22L225.8 258.22M225.8 258.22L229.08 254.93M229.08 254.93L229.08 251.64M229.08 251.64L225.8 248.35M225.8 248.35L219.22 248.35M225.8 248.35L229.08 245.06M229.08 245.06L229.08 241.77M229.08 241.77L225.8 238.49M225.8 238.49L215.93 238.49M219.22 238.49L219.22 258.22M235.66 258.22L235.66 238.49M235.66 238.49L242.24 251.64M242.24 251.64L248.82 238.49M248.82 238.49L248.82 258.22M255.39 254.93L258.68 258.22M258.68 258.22L265.26 258.22M265.26 258.22L268.55 254.93M268.55 254.93L268.55 248.35M268.55 248.35L265.26 245.06M265.26 245.06L255.39 245.06M255.39 245.06L255.39 238.49M255.39 238.49L268.55 238.49"
     fill="none"
     stroke="black"
     stroke-width="0.5"
     id="path15449" />
  <path
     d="M282.23 255.85L292.1 255.85M292.1 255.85L295.39 252.56M295.39 252.56L295.39 249.28M295.39 249.28L292.1 245.99M292.1 245.99L285.52 245.99M292.1 245.99L295.39 242.7M295.39 242.7L295.39 239.41M295.39 239.41L292.1 236.12M292.1 236.12L282.23 236.12M285.52 236.12L285.52 255.85M301.97 255.85L301.97 236.12M301.97 236.12L308.54 249.28M308.54 249.28L315.12 236.12M315.12 236.12L315.12 255.85M334.85 249.28L321.7 249.28M321.7 249.28L331.56 236.12M331.56 236.12L331.56 255.85"
     fill="none"
     stroke="black"
     stroke-width="0.5"
     id="path15453" />
  <path
     d="M367.48 253.49L377.35 253.49M377.35 253.49L380.64 250.2M380.64 250.2L380.64 246.91M380.64 246.91L377.35 243.62M377.35 243.62L370.77 243.62M377.35 243.62L380.64 240.33M380.64 240.33L380.64 237.04M380.64 237.04L377.35 233.76M377.35 233.76L367.48 233.76M370.77 233.76L370.77 253.49M387.21 253.49L387.21 233.76M387.21 233.76L393.79 246.91M393.79 246.91L400.37 233.76M400.37 233.76L400.37 253.49M406.95 237.04L410.23 233.76M410.23 233.76L416.81 233.76M416.81 233.76L420.1 237.04M420.1 237.04L420.1 240.33M420.1 240.33L416.81 243.62M416.81 243.62L413.52 243.62M416.81 243.62L420.1 246.91M420.1 246.91L420.1 250.2M420.1 250.2L416.81 253.49M416.81 253.49L410.23 253.49M410.23 253.49L406.95 250.2"
     fill="none"
     stroke="black"
     stroke-width="0.5"
     id="path15457" />
  <path
     d="M439.7 255.85L449.57 255.85M449.57 255.85L452.86 252.56M452.86 252.56L452.86 249.28M452.86 249.28L449.57 245.99M449.57 245.99L442.99 245.99M449.57 245.99L452.86 242.7M452.86 242.7L452.86 239.41M452.86 239.41L449.57 236.12M449.57 236.12L439.7 236.12M442.99 236.12L442.99 255.85M459.44 255.85L459.44 236.12M459.44 236.12L466.01 249.28M466.01 249.28L472.59 236.12M472.59 236.12L472.59 255.85M479.17 239.41L482.46 236.12M482.46 236.12L489.03 236.12M489.03 236.12L492.32 239.41M492.32 239.41L492.32 242.7M492.32 242.7L489.03 245.99M489.03 245.99L482.46 245.99M482.46 245.99L479.17 249.28M479.17 249.28L479.17 255.85M479.17 255.85L492.32 255.85"
     fill="none"
     stroke="black"
     stroke-width="0.5"
     id="path15461" />
  <path
     d="M508.38 254.67L518.24 254.67M518.24 254.67L521.53 251.38M521.53 251.38L521.53 248.09M521.53 248.09L518.24 244.8M518.24 244.8L511.66 244.8M518.24 244.8L521.53 241.52M521.53 241.52L521.53 238.23M521.53 238.23L518.24 234.94M518.24 234.94L508.38 234.94M511.66 234.94L511.66 254.67M528.11 254.67L528.11 234.94M528.11 234.94L534.68 248.09M534.68 248.09L541.26 234.94M541.26 234.94L541.26 254.67M547.84 238.23L551.13 234.94M551.13 234.94L551.13 254.67M547.84 254.67L554.42 254.67"
     fill="none"
     stroke="black"
     stroke-width="0.5"
     id="path15465" />
  <path
     d="M145.24 463.88L149.19 463.88M149.19 463.88L150.5 462.56M150.5 462.56L150.5 461.25M150.5 461.25L149.19 459.93M149.19 459.93L146.56 459.93M149.19 459.93L150.5 458.61M150.5 458.61L150.5 457.3M150.5 457.3L149.19 455.98M149.19 455.98L145.24 455.98M146.56 455.98L146.56 463.88M153.14 463.88L153.14 455.98M153.14 455.98L155.77 461.25M155.77 461.25L158.4 455.98M158.4 455.98L158.4 463.88M161.03 447.43L164.32 444.14M164.32 444.14L164.32 463.88M161.03 463.88L167.61 463.88M174.18 447.43L177.47 444.14M177.47 444.14L184.05 444.14M184.05 444.14L187.34 447.43M187.34 447.43L187.34 450.72M187.34 450.72L184.05 454.01M184.05 454.01L177.47 454.01M177.47 454.01L174.18 457.3M174.18 457.3L174.18 463.88M174.18 463.88L187.34 463.88"
     fill="none"
     stroke="black"
     stroke-width="0.5"
     id="path15469" />
  <path
     d="M215.1 463.88L219.04 463.88M219.04 463.88L220.36 462.56M220.36 462.56L220.36 461.25M220.36 461.25L219.04 459.93M219.04 459.93L216.41 459.93M219.04 459.93L220.36 458.61M220.36 458.61L220.36 457.3M220.36 457.3L219.04 455.98M219.04 455.98L215.1 455.98M216.41 455.98L216.41 463.88M222.99 463.88L222.99 455.98M222.99 455.98L225.62 461.25M225.62 461.25L228.25 455.98M228.25 455.98L228.25 463.88M230.88 447.43L234.17 444.14M234.17 444.14L234.17 463.88M230.88 463.88L237.46 463.88M244.04 447.43L247.33 444.14M247.33 444.14L247.33 463.88M244.04 463.88L250.62 463.88"
     fill="none"
     stroke="black"
     stroke-width="0.5"
     id="path15473" />
  <path
     d="M281.4 468.61L291.27 468.61M291.27 468.61L294.56 465.32M294.56 465.32L294.56 462.03M294.56 462.03L291.27 458.74M291.27 458.74L284.69 458.74M291.27 458.74L294.56 455.45M294.56 455.45L294.56 452.16M294.56 452.16L291.27 448.88M291.27 448.88L281.4 448.88M284.69 448.88L284.69 468.61M301.13 468.61L301.13 448.88M301.13 448.88L307.71 462.03M307.71 462.03L314.29 448.88M314.29 448.88L314.29 468.61M320.87 452.16L324.15 448.88M324.15 448.88L324.15 468.61M320.87 468.61L327.44 468.61M337.31 468.61L334.02 465.32M334.02 465.32L334.02 452.16M334.02 452.16L337.31 448.88M337.31 448.88L340.6 448.88M340.6 448.88L343.89 452.16M343.89 452.16L343.89 465.32M343.89 465.32L340.6 468.61M340.6 468.61L337.31 468.61"
     fill="none"
     stroke="black"
     stroke-width="0.5"
     id="path15477" />
  <path
     d="M370.2 467.42L380.07 467.42M380.07 467.42L383.35 464.14M383.35 464.14L383.35 460.85M383.35 460.85L380.07 457.56M380.07 457.56L373.49 457.56M380.07 457.56L383.35 454.27M383.35 454.27L383.35 450.98M383.35 450.98L380.07 447.69M380.07 447.69L370.2 447.69M373.49 447.69L373.49 467.42M389.93 467.42L389.93 447.69M389.93 447.69L396.51 460.85M396.51 460.85L403.09 447.69M403.09 447.69L403.09 467.42M412.95 467.42L416.24 467.42M416.24 467.42L422.82 460.85M422.82 460.85L422.82 450.98M422.82 450.98L419.53 447.69M419.53 447.69L412.95 447.69M412.95 447.69L409.66 450.98M409.66 450.98L409.66 454.27M409.66 454.27L412.95 457.56M412.95 457.56L422.82 457.56"
     fill="none"
     stroke="black"
     stroke-width="0.5"
     id="path15481" />
  <path
     d="M443.61 467.42L453.47 467.42M453.47 467.42L456.76 464.14M456.76 464.14L456.76 460.85M456.76 460.85L453.47 457.56M453.47 457.56L446.9 457.56M453.47 457.56L456.76 454.27M456.76 454.27L456.76 450.98M456.76 450.98L453.47 447.69M453.47 447.69L443.61 447.69M446.9 447.69L446.9 467.42M463.34 467.42L463.34 447.69M463.34 447.69L469.92 460.85M469.92 460.85L476.49 447.69M476.49 447.69L476.49 467.42M486.36 467.42L483.07 464.14M483.07 464.14L483.07 460.85M483.07 460.85L486.36 457.56M486.36 457.56L492.94 457.56M492.94 457.56L496.23 454.27M496.23 454.27L496.23 450.98M496.23 450.98L492.94 447.69M492.94 447.69L486.36 447.69M486.36 447.69L483.07 450.98M483.07 450.98L483.07 454.27M483.07 454.27L486.36 457.56M492.94 457.56L496.23 460.85M496.23 460.85L496.23 464.14M496.23 464.14L492.94 467.42M492.94 467.42L486.36 467.42"
     fill="none"
     stroke="black"
     stroke-width="0.5"
     id="path15485" />
  <path
     d="M509.91 467.42L519.78 467.42M519.78 467.42L523.07 464.14M523.07 464.14L523.07 460.85M523.07 460.85L519.78 457.56M519.78 457.56L513.2 457.56M519.78 457.56L523.07 454.27M523.07 454.27L523.07 450.98M523.07 450.98L519.78 447.69M519.78 447.69L509.91 447.69M513.2 447.69L513.2 467.42M529.64 467.42L529.64 447.69M529.64 447.69L536.22 460.85M536.22 460.85L542.8 447.69M542.8 447.69L542.8 467.42M549.38 447.69L562.53 447.69M562.53 447.69L552.66 467.42"
     fill="none"
     stroke="black"
     stroke-width="0.5"
     id="path15489" />
</svg>
