<?xml version="1.0" encoding="UTF-8" standalone="no"?>
<svg
   xmlns:dc="http://purl.org/dc/elements/1.1/"
   xmlns:cc="http://creativecommons.org/ns#"
   xmlns:rdf="http://www.w3.org/1999/02/22-rdf-syntax-ns#"
   xmlns:svg="http://www.w3.org/2000/svg"
   xmlns="http://www.w3.org/2000/svg"
   xmlns:sodipodi="http://sodipodi.sourceforge.net/DTD/sodipodi-0.dtd"
   xmlns:inkscape="http://www.inkscape.org/namespaces/inkscape"
   width="800.000"
   height="400.000"
   viewBox="0.0 0.0 800.000 400.000"
   id="svg4217"
   onload="init(evt)"
   ondrop="drop(evt)"
   ondragover="allowDrop(evt)"
   version="1.1"
   inkscape:version="0.48.4 r9939"
   sodipodi:docname="8ACAD安装图-Model.svg">
  <script
     href="init.js"
     id="script3184"
     language="JavaScript" />
  <script
     href="jquery-2.0.3.min.js"
     id="script3186"
     language="JavaScript" />
  <script
     href="cookie.js"
     id="script3188"
     language="JavaScript" />
  <metadata
     id="metadata5447">
    <rdf:RDF>
      <cc:Work
         rdf:about="">
        <dc:format>image/svg+xml</dc:format>
        <dc:type
           rdf:resource="http://purl.org/dc/dcmitype/StillImage" />
      </cc:Work>
    </rdf:RDF>
  </metadata>
  <defs
     id="defs5445" />
  <sodipodi:namedview
     pagecolor="#ffffff"
     bordercolor="#666666"
     borderopacity="1"
     objecttolerance="10"
     gridtolerance="10"
     guidetolerance="10"
     inkscape:pageopacity="0"
     inkscape:pageshadow="2"
     inkscape:window-width="1920"
     inkscape:window-height="1018"
     id="namedview5443"
     showgrid="false"
     inkscape:zoom="1.1125147"
     inkscape:cx="504.78014"
     inkscape:cy="117.16377"
     inkscape:window-x="-8"
     inkscape:window-y="-8"
     inkscape:window-maximized="1"
     inkscape:current-layer="svg4217" />
  <title
     id="title4219">Produce by DWG to SVG Converter MX</title>
  <desc
     id="desc4221">Produce by DWG to SVG Converter MX</desc>
  <path
     d="M 32.20116,251.48833 78.526439,229.3657"
     id="path4247"
     inkscape:connector-curvature="0"
     style="fill:none;stroke:#000000;stroke-width:0.11829813" />
  <path
     d="M 78.526439,229.3657 101.29713,200.90117"
     id="path4249"
     inkscape:connector-curvature="0"
     style="fill:none;stroke:#000000;stroke-width:0.11829813" />
  <path
     d="M 101.29713,200.90117 198.54717,123.7313"
     id="path4251"
     inkscape:connector-curvature="0"
     style="fill:none;stroke:#000000;stroke-width:0.11829813" />
  <path
     d="M 198.54717,123.7313 292.1705,75.6335"
     id="path4253"
     inkscape:connector-curvature="0"
     style="fill:none;stroke:#000000;stroke-width:0.11829813" />
  <path
     d="M 292.1705,75.6335 372.28821,62.030977"
     id="path4255"
     inkscape:connector-curvature="0"
     style="fill:none;stroke:#000000;stroke-width:0.11829813" />
  <path
     d="m 372.28821,62.030977 22.4968,6.638269"
     id="path4257"
     inkscape:connector-curvature="0"
     style="fill:none;stroke:#000000;stroke-width:0.11829813" />
  <path
     d="m 394.78501,68.669246 25.50961,13.217266"
     id="path4259"
     inkscape:connector-curvature="0"
     style="fill:none;stroke:#000000;stroke-width:0.11829813" />
  <path
     d="m 420.29462,81.886512 6.4978,3.748842"
     id="path4261"
     inkscape:connector-curvature="0"
     style="fill:none;stroke:#000000;stroke-width:0.11829813" />
  <path
     d="m 426.79242,85.635354 68.2743,-1.303945"
     id="path4263"
     inkscape:connector-curvature="0"
     style="fill:none;stroke:#000000;stroke-width:0.11829813" />
  <path
     d="M 495.06672,84.331409 601.32681,20.200998"
     id="path4265"
     inkscape:connector-curvature="0"
     style="fill:none;stroke:#000000;stroke-width:0.11829813" />
  <path
     d="m 601.32681,20.200998 68.92597,-3.571032"
     id="path4267"
     inkscape:connector-curvature="0"
     style="fill:none;stroke:#000000;stroke-width:0.11829813" />
  <path
     d="m 670.25278,16.629966 30.08074,42.659762"
     id="path4269"
     inkscape:connector-curvature="0"
     style="fill:none;stroke:#000000;stroke-width:0.11829813" />
  <path
     d="M 700.33352,59.289728 739.83986,163.81282"
     id="path4271"
     inkscape:connector-curvature="0"
     style="fill:none;stroke:#000000;stroke-width:0.11829813" />
  <path
     d="M 739.83986,163.81282 773.3773,251.2957"
     id="path4273"
     inkscape:connector-curvature="0"
     style="fill:none;stroke:#000000;stroke-width:0.11829813" />
  <path
     d="M 773.3773,251.2957 31.880047,251.94768"
     id="path4275"
     inkscape:connector-curvature="0"
     style="fill:none;stroke:#000000;stroke-width:0.11829813" />
  <path
     d="m 741.52099,168.184 -599.65973,0.51861"
     id="path4277"
     inkscape:connector-curvature="0"
     style="fill:none;stroke:#000000;stroke-width:0.11829813" />
  <path
     d="M 706.55743,75.781675 508.95014,75.944669"
     id="path4279"
     inkscape:connector-curvature="0"
     style="fill:none;stroke:#000000;stroke-width:0.11829813" />
  <path
     d="m 32.210604,297.74877 0.04723,2.1189 -0.255002,0.0148 0,-0.14818 -0.0094,-0.14817 -0.085,-0.17782 -0.085,-0.0148 -0.085,-0.0148 -0.226669,0.0742 -0.141666,0.10373 -3.031685,1.82256 0.982227,0.74088 2.38946,-0.10372 0.085,0 0.122778,-0.0742 0.03778,-0.0593 0.03778,-0.0593 0.04723,-0.16299 -0.0094,-0.10372 0,-0.29636 0.245557,-0.0148 0.04723,2.26709 -0.255002,0.0148 0,-0.29635 -0.0094,-0.11854 -0.03778,-0.17781 -0.04723,-0.0444 -0.03777,-0.0445 -0.132222,-0.0444 -0.085,0 -5.997257,0.28154 -0.085,0 -0.122778,0.0593 -0.03778,0.0445 -0.04723,0.0593 -0.03778,0.17781 0.0094,0.11853 0,0.29637 -0.245557,0.0148 -0.04723,-2.26709 0.255,-0.0148 0,0.29634 0.0094,0.089 0.03778,0.163 0.04723,0.0593 0.03777,0.0593 0.132224,0.0593 0.085,0 3.06002,-0.14818 -2.85224,-2.19299 -0.151113,-0.10373 -0.217222,-0.0742 -0.07556,0.0593 -0.07556,0.0444 -0.06612,0.23709 0,0.16299 0.0094,0.20745 -0.255001,0 -0.03777,-2.11892 0.245557,-0.0148 0.0094,0.10373 0,0.11854 0.06611,0.25189 0.06611,0.11854 0.06611,0.11855 0.18889,0.23708 0.132223,0.11854 1.870011,1.49657 3.825023,-2.29672 0.122779,-0.0889 0.17,-0.163 0.05666,-0.0889 0.04723,-0.0889 0.04723,-0.13337 0,-0.0593 0,-0.23708 0.245556,-0.0148 z"
     id="path4281"
     inkscape:connector-curvature="0"
     style="fill:#ff0000;fill-rule:evenodd" />
  <path
     d="m 31.332266,292.99232 0.141669,0 0.207778,-0.11854 0.06611,-0.0889 0.05666,-0.10372 0.05666,-0.28154 0,-0.16299 -0.0094,-0.44452 0.255003,-0.0148 0.05666,3.25985 -0.255001,0 -0.0094,-0.53343 0,-0.20744 -0.06612,-0.28153 -0.06611,-0.0742 -0.06611,-0.0889 -0.20778,-0.0742 -0.151112,0.0148 -1.378897,0.0593 0.05666,3.30433 -0.207779,0.0148 -4.930029,-3.3784 -0.0094,-0.5038 4.816695,-0.22226 -0.01889,-1.33358 0.245558,0 0.02834,1.33358 1.388342,-0.0742 z m -5.402254,1.0965 3.834466,2.63753 -0.05666,-2.85979 -3.7778,0.16299 0,0.0594 z"
     id="path4283"
     inkscape:connector-curvature="0"
     style="fill:#ff0000;fill-rule:evenodd" />
  <path
     d="m 31.209487,286.68004 0.151113,-0.0148 0.207778,-0.10373 0.05666,-0.10371 0.05666,-0.10373 0.06611,-0.26671 -0.0094,-0.17781 -0.0094,-0.44453 0.255,0 0.05666,3.24504 -0.245556,0.0148 -0.0094,-0.54826 -0.0094,-0.19262 -0.06612,-0.28153 -0.06611,-0.0742 -0.06611,-0.0889 -0.207778,-0.0742 -0.141667,0 -1.388342,0.0742 0.06611,3.30431 -0.217224,0 -4.93003,-3.3784 -0.0094,-0.48899 4.82614,-0.22225 -0.02834,-1.33359 0.255001,-0.0148 0.0189,1.33356 1.388342,-0.0593 z m -5.39281,1.08168 3.825023,2.63753 -0.05666,-2.85979 -3.768357,0.17781 0,0.0445 z"
     id="path4285"
     inkscape:connector-curvature="0"
     style="fill:#ff0000;fill-rule:evenodd" />
  <path
     d="m 27.970023,282.04214 -2.389459,0.10373 -0.0094,-0.44453 2.398903,-0.10373 -0.04723,-2.47453 0.377779,-0.0148 0.04723,2.47453 2.389459,-0.11854 0.0094,0.44453 -2.398903,0.11854 0.04723,2.45971 -0.377779,0.0148 -0.04723,-2.45972 z"
     id="path4287"
     inkscape:connector-curvature="0"
     style="fill:#ff0000;fill-rule:evenodd" />
  <path
     d="m 29.943925,273.06271 0.396668,-0.0297 0.680004,0.32599 0.283336,0.32598 0.27389,0.32599 0.29278,0.90388 0.0094,0.57787 0.0094,0.51862 -0.255001,0.88907 -0.264445,0.38524 -0.264448,0.38526 -0.623337,0.40007 -0.358891,0.0148 -0.35889,0.0148 -0.604449,-0.17781 -0.255001,-0.20745 -0.264447,-0.19262 -0.443891,-0.57787 -0.198335,-0.38527 -0.141666,0.34081 -0.358892,0.54824 -0.217223,0.20744 -0.217224,0.19264 -0.48167,0.20744 -0.273889,0.0148 -0.358892,0.0148 -0.613893,-0.29636 -0.255001,-0.31117 -0.264447,-0.31117 -0.264444,-0.87423 -0.0094,-0.56307 -0.0094,-0.51861 0.236113,-0.85942 0.245557,-0.32599 0.245557,-0.32599 0.604448,-0.35561 0.349445,-0.0148 0.255003,-0.0148 0.472225,0.16299 0.226668,0.17781 0.226667,0.17781 0.39667,0.56307 0.170001,0.38526 0.207779,-0.4297 0.443891,-0.63716 0.255003,-0.20745 0.245556,-0.20744 0.538338,-0.22227 0.292779,-0.0148 0,0 z m 0.170001,4.32671 0.330557,-0.0148 0.547781,-0.28154 0.198334,-0.2667 0.20778,-0.26672 0.198335,-0.66679 -0.0094,-0.40008 -0.0094,-0.45933 -0.217223,-0.6668 -0.217223,-0.20745 -0.217224,-0.19262 -0.528893,-0.19264 -0.311667,0.0148 -0.273891,0.0148 -0.519447,0.32597 -0.245558,0.29636 -0.245557,0.31118 -0.443891,0.91867 -0.198335,0.59271 0.170002,0.29635 0.434446,0.42971 0.255002,0.14818 0.255001,0.14817 0.54778,0.13336 0.292781,-0.0148 0,0 z m -3.843912,-3.3784 -0.29278,0.0148 -0.510004,0.22226 -0.217223,0.20744 -0.217224,0.20745 -0.207779,0.63715 0.0094,0.4149 0.0094,0.45935 0.217223,0.66678 0.217224,0.17781 0.217224,0.19263 0.443892,0.17781 0.226668,-0.0148 0.226667,0 0.453337,-0.31116 0.207778,-0.29636 0.217224,-0.29634 0.37778,-0.81498 0.151112,-0.51862 -0.132224,-0.29634 -0.321111,-0.4297 -0.188891,-0.13337 -0.18889,-0.14818 -0.443891,-0.11853 -0.255002,0 0,0 z"
     id="path4289"
     inkscape:connector-curvature="0"
     style="fill:#ff0000;fill-rule:evenodd" />
  <path
     d="m 24.749449,266.97269 0.727226,0.48898 1.40723,0.75568 0.68945,0.28154 0.689449,0.28154 1.190006,0.25189 0.50056,-0.0297 0.085,0 0.245559,-0.0296 0.151112,-0.0148 0.160557,-0.0148 0.368335,-0.0297 0.207778,-0.0148 0.17,0 0.226669,0.0444 0.06612,0.0593 0.06611,0.0593 0.06611,0.20744 0,0.14819 0,0.11852 -0.06611,0.22227 -0.07556,0.0889 -0.06612,0.0889 -0.264446,0.0889 -0.18889,0.0148 -0.396668,0.0148 -0.991673,-0.16299 -0.585559,-0.17781 -0.595003,-0.19263 -2.01168,-1.02241 -1.426119,-0.8446 0.04723,2.45972 0.0094,0.28152 0.151112,0.4149 0.151112,0.163 0.151112,0.14816 0.443892,0.20745 0.292778,0.0594 -0.03777,0.31116 -1.766121,-0.26671 -0.085,-4.44528 0.292781,-0.0148 z"
     id="path4291"
     inkscape:connector-curvature="0"
     style="fill:#ff0000;fill-rule:evenodd" />
  <path
     d="m 29.707812,260.42332 0.396669,-0.0148 0.680004,0.31117 0.283335,0.32599 0.273889,0.3408 0.292781,0.90387 0.0094,0.56307 0.0094,0.51862 -0.255,0.90387 -0.264447,0.38524 -0.264446,0.37045 -0.623337,0.40007 -0.35889,0.0148 -0.358892,0.0297 -0.604448,-0.19263 -0.264446,-0.19262 -0.255002,-0.19264 -0.443891,-0.5927 -0.198335,-0.38524 -0.141667,0.35561 -0.358891,0.54825 -0.217223,0.19263 -0.217224,0.19262 -0.491114,0.20746 -0.264446,0.0148 -0.358892,0.0148 -0.613892,-0.29634 -0.255002,-0.29636 -0.264445,-0.31118 -0.264446,-0.87423 -0.0094,-0.57787 -0.0094,-0.51863 0.236113,-0.8446 0.245557,-0.3408 0.245557,-0.32599 0.595004,-0.35562 0.358891,-0.0148 0.255001,0 0.472226,0.163 0.226668,0.16298 0.217223,0.17782 0.406114,0.56306 0.170001,0.38526 0.207778,-0.4297 0.443892,-0.63717 0.255001,-0.20744 0.245557,-0.20745 0.538338,-0.22226 0.292779,-0.0148 0,0 z m 0.170001,4.34155 0.330557,-0.0148 0.538337,-0.28152 0.20778,-0.28154 0.207779,-0.26671 0.198334,-0.65198 -0.0094,-0.40008 -0.0094,-0.47416 -0.226668,-0.66679 -0.207779,-0.19262 -0.217223,-0.20744 -0.528892,-0.17782 -0.311668,0.0148 -0.273891,0 -0.519448,0.32598 -0.245557,0.31117 -0.245556,0.31117 -0.443892,0.90387 -0.198335,0.60753 0.170002,0.28153 0.434447,0.44452 0.255001,0.14818 0.255001,0.14818 0.54778,0.13335 0.292781,-0.0148 0,0 z m -3.843912,-3.37841 -0.29278,0.0148 -0.510003,0.22227 -0.217223,0.20745 -0.217224,0.20744 -0.207779,0.62233 0.0094,0.41489 0.0094,0.47417 0.217223,0.65197 0.217224,0.19263 0.207779,0.19263 0.443891,0.17781 0.236113,-0.0148 0.226669,-0.0148 0.443891,-0.29636 0.217223,-0.29635 0.217224,-0.29636 0.368335,-0.81496 0.160557,-0.53343 -0.132224,-0.29636 -0.321113,-0.4297 -0.188889,-0.13336 -0.18889,-0.13335 -0.443892,-0.13336 -0.255001,0.0148 0,0 z"
     id="path4293"
     inkscape:connector-curvature="0"
     style="fill:#ff0000;fill-rule:evenodd" />
  <path
     d="m 259.75697,304.44631 0.0377,2.13372 -0.25501,0 0,-0.14817 0,-0.14819 -0.0849,-0.16299 -0.085,-0.0148 -0.085,-0.0296 -0.23612,0.089 -0.14166,0.10372 -3.03169,1.82256 0.98223,0.74087 2.38946,-0.10372 0.085,-0.0148 0.12276,-0.0593 0.0378,-0.0593 0.0473,-0.0742 0.0378,-0.16299 0,-0.0889 -0.0101,-0.29636 0.25501,-0.0148 0.0378,2.26709 -0.24556,0.0148 -0.0101,-0.29635 0,-0.11855 -0.0473,-0.1778 -0.0473,-0.0444 -0.0378,-0.0445 -0.13223,-0.0444 -0.0756,0 -5.99727,0.28154 -0.085,0 -0.12277,0.0593 -0.0473,0.0444 -0.0378,0.0593 -0.0377,0.16298 0,0.13336 0.0101,0.29636 -0.25501,0 -0.0473,-2.2671 0.255,-0.0148 0.0101,0.29635 0,0.10372 0.0473,0.163 0.0377,0.0593 0.0473,0.0593 0.12277,0.0593 0.085,-0.0148 3.06002,-0.13335 -2.85223,-2.19301 -0.15112,-0.11855 -0.21721,-0.0592 -0.0756,0.0444 -0.0756,0.0593 -0.0661,0.22228 0.0101,0.1778 0,0.19263 -0.255,0.0148 -0.0377,-2.1189 0.255,-0.0148 0,0.10372 0,0.11854 0.0661,0.23708 0.0661,0.13336 0.0661,0.11854 0.19834,0.23708 0.12277,0.11855 1.87946,1.48175 3.81558,-2.29673 0.12278,-0.0742 0.17944,-0.17781 0.0473,-0.0888 0.0473,-0.089 0.0567,-0.13336 0,-0.0444 -0.0101,-0.2519 0.255,-0.0148 z"
     id="path4295"
     inkscape:connector-curvature="0"
     style="fill:#ff0000;fill-rule:evenodd" />
  <path
     d="m 258.8692,299.70467 0.14167,-0.0148 0.20777,-0.10373 0.0661,-0.10371 0.0567,-0.10373 0.0567,-0.26671 0,-0.1778 -0.0101,-0.44454 0.25501,-0.0148 0.0567,3.25986 -0.24556,0.0148 -0.0101,-0.54826 -0.0101,-0.19263 -0.0661,-0.28152 -0.0661,-0.089 -0.066,-0.0742 -0.20777,-0.0742 -0.15112,0 -1.3789,0.0593 0.0567,3.31913 -0.20779,0 -4.93002,-3.3784 -0.0101,-0.48898 4.82614,-0.22226 -0.0283,-1.33359 0.255,-0.0148 0.0189,1.33357 1.38834,-0.0593 z m -5.39282,1.0817 3.82503,2.63751 -0.0567,-2.85978 -3.76835,0.17781 0,0.0445 z"
     id="path4297"
     inkscape:connector-curvature="0"
     style="fill:#ff0000;fill-rule:evenodd" />
  <path
     d="m 258.74641,293.39239 0.15111,-0.0148 0.20779,-0.10374 0.0567,-0.10371 0.0661,-0.10373 0.0567,-0.26672 0,-0.17781 -0.0101,-0.44453 0.24556,-0.0148 0.0661,3.25987 -0.25499,0.0148 -0.0101,-0.54825 0,-0.19262 -0.0755,-0.28154 -0.0567,-0.0889 -0.0661,-0.0742 -0.21722,-0.0889 -0.14167,0.0148 -1.38833,0.0593 0.0661,3.30432 -0.20776,0.0148 -4.93948,-3.37841 0,-0.48897 4.81669,-0.22225 -0.0189,-1.33359 0.24555,-0.0148 0.0283,1.33358 1.3789,-0.0593 z m -5.39281,1.0817 3.82502,2.63752 -0.0473,-2.85979 -3.7778,0.17781 0,0.0444 z"
     id="path4299"
     inkscape:connector-curvature="0"
     style="fill:#ff0000;fill-rule:evenodd" />
  <path
     d="m 255.51639,288.73968 -2.38945,0.11854 -0.0101,-0.44453 2.38945,-0.11854 -0.0473,-2.45972 0.37778,-0.0148 0.0473,2.45971 2.38946,-0.10373 0.0101,0.44452 -2.38946,0.10374 0.0473,2.47453 -0.37779,0.0148 -0.0473,-2.47453 z"
     id="path4301"
     inkscape:connector-curvature="0"
     style="fill:#ff0000;fill-rule:evenodd" />
  <path
     d="m 256.65918,282.66449 0.0101,0.48897 -0.24556,0.81496 -0.25499,0.29637 -0.25501,0.31116 -0.85001,0.34081 -0.58557,0.0296 -0.50054,0.0148 -0.85002,-0.28154 -0.33999,-0.29635 -0.34001,-0.31118 -0.34943,-0.90386 -0.0189,-0.59271 -0.0101,-0.60751 0.40612,-0.99279 0.40612,-0.35561 0.41555,-0.37045 1.2089,-0.40006 0.80279,-0.0297 0.87834,-0.0445 1.46389,0.34081 0.58556,0.38526 0.58556,0.37043 0.59501,1.0965 0.0101,0.71125 0.0101,0.32598 -0.11335,0.56307 -0.12278,0.23708 -0.12278,0.23708 -0.33055,0.2519 -0.20777,0.0148 -0.0849,0 -0.17001,-0.0444 -0.085,-0.0593 -0.0849,-0.0593 -0.085,-0.20744 0,-0.14818 -0.0101,-0.14818 0.0944,-0.20745 0.0943,-0.0445 0.0944,-0.0593 0.21723,-0.0593 0.12276,0 0.0851,-0.0148 0.13221,-0.0297 0.0567,-0.0296 0.0473,-0.0148 0.0756,-0.0593 0.0189,-0.0297 0.0189,-0.0148 0.0377,-0.089 0.0101,-0.0742 0.0101,-0.0593 0,-0.13336 0,-0.0742 -0.0101,-0.44452 -0.42499,-0.69643 -0.425,-0.25189 -0.42501,-0.25191 -1.41668,-0.2519 -0.98222,0 0.255,0.10372 0.42499,0.35563 0.17,0.23707 0.17001,0.23708 0.17945,0.60753 0.0101,0.37044 0,0 z m -2.23835,1.43729 0.46278,-0.0148 0.69889,-0.25191 0.23612,-0.22225 0.2361,-0.22227 0.22667,-0.53343 0,-0.32598 -0.0101,-0.37045 -0.30222,-0.62233 -0.30223,-0.2519 -0.30223,-0.26672 -0.54777,-0.23708 -0.24556,0 -0.51,0.0296 -0.80279,0.23708 -0.30223,0.20745 -0.29277,0.20744 -0.29278,0.65198 0.0101,0.44452 0,0.42972 0.30223,0.6075 0.28333,0.17783 0.28334,0.1778 0.72722,0.163 0.44389,-0.0148 0,0 z"
     id="path4303"
     inkscape:connector-curvature="0"
     style="fill:#ff0000;fill-rule:evenodd" />
  <path
     d="m 253.77861,274.60372 -0.37778,0.0148 -0.56667,0.22225 -0.19833,0.20744 -0.19835,0.20745 -0.1889,0.60752 0.0101,0.38526 0.0101,0.29635 0.14167,0.50379 0.14167,0.20745 0.14167,0.19263 0.34944,0.19263 0.20778,0 0.12279,-0.0148 0.20777,-0.0889 0.085,-0.0889 0.085,-0.0889 0.16055,-0.10371 0.0849,0 0.10389,0 0.16056,0.0444 0.0567,0.0593 0.0473,0.0593 0.0567,0.19264 0.0101,0.11853 0,0.14818 -0.066,0.23708 -0.0756,0.0889 -0.0755,0.0889 -0.23611,0.10371 -0.17,0 -0.43446,0.0297 -0.68,-0.34079 -0.23611,-0.35564 -0.23612,-0.37044 -0.24555,-0.77051 -0.0101,-0.42971 -0.0101,-0.5927 0.22667,-0.87423 0.255,-0.29636 0.24557,-0.29635 0.62332,-0.31117 0.37779,-0.0296 0.24555,0 0.51,0.10371 0.25501,0.13337 0.255,0.11854 0.49111,0.4149 0.23613,0.28151 0.59499,0.68162 0.97278,1.05204 0.37778,0.37045 0.37778,0.37043 0.50056,0.42972 0.12278,0.0742 -0.0567,-2.91906 0,-0.22226 -0.15111,-0.35562 -0.15112,-0.14818 -0.15109,-0.13336 -0.4439,-0.17781 -0.29278,-0.0444 -0.0101,-0.29635 1.81335,0.22227 0.085,4.57863 -0.54779,0.0296 -0.18888,-0.11853 -0.49111,-0.38527 -0.30222,-0.26671 -0.29278,-0.26672 -0.70835,-0.72606 -0.40611,-0.44452 -0.36833,-0.40007 -0.68001,-0.5927 -0.32111,-0.17781 -0.31167,-0.19264 -0.595,-0.16299 -0.27389,0.0148 0,0 z"
     id="path4305"
     inkscape:connector-curvature="0"
     style="fill:#ff0000;fill-rule:evenodd" />
  <path
     d="m 256.42306,270.03992 0.0101,0.48898 -0.24555,0.80015 -0.25501,0.31117 -0.26444,0.31115 -0.84056,0.32599 -0.58556,0.0297 -0.50056,0.0296 -0.85,-0.28153 -0.34,-0.31118 -0.34001,-0.31116 -0.34945,-0.88906 -0.0189,-0.59271 -0.0101,-0.62233 0.40611,-0.97796 0.40611,-0.37045 0.41556,-0.3556 1.2089,-0.40008 0.80279,-0.0444 0.87833,-0.0445 1.4639,0.34081 0.58555,0.38524 0.58557,0.38526 0.595,1.09651 0.0101,0.71123 0.0101,0.32599 -0.11332,0.54825 -0.12278,0.2519 -0.12279,0.23708 -0.33055,0.2519 -0.20778,0 -0.085,0.0148 -0.17,-0.0593 -0.085,-0.0592 -0.085,-0.0593 -0.085,-0.20744 -0.0101,-0.14818 0,-0.14818 0.0944,-0.19264 0.0944,-0.0593 0.085,-0.0593 0.22667,-0.0593 0.12278,0 0.085,0 0.13223,-0.0297 0.0567,-0.0296 0.0473,-0.0296 0.0755,-0.0593 0.0189,-0.0148 0.0189,-0.0296 0.0283,-0.0889 0.0101,-0.0593 0.0101,-0.0593 0.0101,-0.14819 0,-0.0742 -0.0101,-0.42972 -0.43444,-0.69642 -0.42501,-0.2519 -0.41555,-0.25189 -1.41668,-0.26673 -0.98223,0 0.255,0.11855 0.42501,0.34079 0.17,0.23708 0.17,0.23709 0.17945,0.62233 0.0101,0.37044 0,0 z m -2.23834,1.43731 0.46278,-0.0296 0.6989,-0.23707 0.2361,-0.22227 0.23612,-0.22227 0.22667,-0.54825 0,-0.31117 -0.0101,-0.37043 -0.30222,-0.63716 -0.30222,-0.25189 -0.30222,-0.25191 -0.54779,-0.25189 -0.255,0.0148 -0.50055,0.0148 -0.80278,0.23709 -0.30223,0.20744 -0.30223,0.22227 -0.28333,0.65196 0,0.44454 0.0101,0.41488 0.29277,0.60752 0.29278,0.17782 0.28334,0.19263 0.72723,0.16298 0.44389,-0.0148 0,0 z"
     id="path4307"
     inkscape:connector-curvature="0"
     style="fill:#ff0000;fill-rule:evenodd" />
  <path
     d="m 292.02883,372.69599 0.0378,2.1189 -0.25501,0.0148 0,-0.14818 0,-0.14819 -0.085,-0.1778 -0.0849,-0.0148 -0.085,-0.0297 -0.23611,0.0889 -0.14168,0.10372 -3.03168,1.82256 0.98223,0.74088 2.38945,-0.10372 0.0849,0 0.12279,-0.0742 0.0473,-0.0593 0.0378,-0.0742 0.0378,-0.16299 0,-0.0888 -0.0101,-0.29636 0.255,-0.0148 0.0377,2.26707 -0.24557,0.0148 -0.0101,-0.29636 0,-0.11853 -0.0473,-0.17782 -0.0378,-0.0444 -0.0473,-0.0445 -0.12276,-0.0444 -0.085,0 -5.99726,0.28153 -0.0849,0 -0.12277,0.0593 -0.0473,0.0445 -0.0377,0.0593 -0.0378,0.16298 0,0.13336 0.0101,0.29635 -0.25501,0.0148 -0.0378,-2.28191 0.24556,0 0.0101,0.29634 0,0.0888 0.0473,0.16301 0.0377,0.0593 0.0473,0.0593 0.12277,0.0593 0.085,-0.0148 3.06002,-0.13335 -2.85225,-2.193 -0.1511,-0.11854 -0.21723,-0.0593 -0.0755,0.0593 -0.0661,0.0445 -0.0756,0.22226 0.0101,0.17781 0,0.19263 -0.25501,0.0148 -0.0377,-2.11892 0.255,-0.0148 0,0.10373 0,0.11855 0.0661,0.25189 0.066,0.11854 0.0661,0.11855 0.19833,0.23708 0.12279,0.11854 1.87945,1.49657 3.81558,-2.31154 0.12278,-0.0742 0.17944,-0.163 0.0473,-0.0889 0.0567,-0.089 0.0473,-0.14817 0,-0.0444 -0.0101,-0.2519 0.255,0 z"
     id="path4309"
     inkscape:connector-curvature="0"
     style="fill:#ff0000;fill-rule:evenodd" />
  <path
     d="m 291.14106,367.93955 0.1511,0 0.20779,-0.11854 0.0567,-0.10371 0.0567,-0.10374 0.0661,-0.26671 -0.0101,-0.17781 -0.0101,-0.44452 0.255,0 0.0567,3.24504 -0.24555,0.0148 -0.0101,-0.53343 -0.0101,-0.20744 -0.0661,-0.28154 -0.0661,-0.0742 -0.0661,-0.0889 -0.20778,-0.0742 -0.14167,0 -1.38834,0.0742 0.0661,3.30433 -0.21721,0 -4.93004,-3.37841 -0.0101,-0.48898 4.82614,-0.22226 -0.0283,-1.33359 0.255,-0.0148 0.0189,1.33357 1.38834,-0.0593 z m -5.39282,1.08168 3.82503,2.65234 -0.0567,-2.8746 -3.76836,0.17781 0,0.0445 z"
     id="path4311"
     inkscape:connector-curvature="0"
     style="fill:#ff0000;fill-rule:evenodd" />
  <path
     d="m 291.01828,361.62728 0.15111,-0.0148 0.20777,-0.10372 0.0567,-0.10372 0.0661,-0.10372 0.0567,-0.26672 0,-0.17781 -0.0101,-0.44453 0.24554,-0.0148 0.0661,3.25986 -0.25501,0.0148 -0.0101,-0.54826 0,-0.19263 -0.066,-0.28153 -0.0661,-0.0889 -0.066,-0.0742 -0.2078,-0.0742 -0.1511,0 -1.38835,0.0593 0.066,3.30432 -0.20778,0.0148 -4.93003,-3.37839 -0.0101,-0.48899 4.81669,-0.22227 -0.0189,-1.33357 0.24554,-0.0148 0.0283,1.33359 1.3789,-0.0594 z m -5.39281,1.08167 3.83446,2.63754 -0.0567,-2.85979 -3.77779,0.1778 0,0.0444 z"
     id="path4313"
     inkscape:connector-curvature="0"
     style="fill:#ff0000;fill-rule:evenodd" />
  <path
     d="m 287.78826,356.97456 -2.38946,0.11854 -0.0101,-0.44453 2.38946,-0.11854 -0.0473,-2.45971 0.37778,-0.0148 0.0473,2.45972 2.38945,-0.10374 0.0101,0.44454 -2.38947,0.10371 0.0473,2.47455 -0.37779,0.0148 -0.0473,-2.47453 z"
     id="path4315"
     inkscape:connector-curvature="0"
     style="fill:#ff0000;fill-rule:evenodd" />
  <path
     d="m 288.93104,350.89935 0.0101,0.5038 -0.24556,0.80016 -0.255,0.29633 -0.25501,0.31118 -0.85,0.3408 -0.58555,0.0297 -0.50057,0.0148 -0.84999,-0.28154 -0.34001,-0.29634 -0.33999,-0.31116 -0.34945,-0.90389 -0.0101,-0.57788 -0.0189,-0.62233 0.40611,-0.97796 0.41555,-0.37045 0.40613,-0.37043 1.20889,-0.40008 0.80277,-0.0297 0.87834,-0.0445 1.46391,0.34082 0.58556,0.38525 0.58555,0.37044 0.595,1.0965 0.0189,0.72606 0,0.31116 -0.11333,0.56308 -0.12277,0.23707 -0.12279,0.25191 -0.33055,0.23708 -0.20778,0.0148 -0.085,0 -0.16999,-0.0445 -0.085,-0.0592 -0.0849,-0.0593 -0.085,-0.20745 0,-0.14817 -0.0101,-0.14818 0.0944,-0.20744 0.0944,-0.0444 0.0944,-0.0593 0.21723,-0.0593 0.12278,0 0.085,-0.0148 0.13223,-0.0296 0.0567,-0.0148 0.0473,-0.0296 0.0756,-0.0593 0.0189,-0.0297 0.0189,-0.0148 0.0378,-0.0889 0.0101,-0.0593 0.0101,-0.0742 0,-0.13337 0,-0.0742 -0.0101,-0.44452 -0.425,-0.69643 -0.42502,-0.2519 -0.42499,-0.2519 -1.41667,-0.2519 -0.98224,0 0.25501,0.10373 0.425,0.35561 0.17,0.23709 0.17001,0.23708 0.17944,0.60752 0.0101,0.37044 0,0 z m -2.23835,1.43731 0.46279,-0.0148 0.69889,-0.2519 0.2361,-0.20745 0.23612,-0.22227 0.23612,-0.54825 -0.0101,-0.32599 -0.0101,-0.37042 -0.30222,-0.62235 -0.30223,-0.2519 -0.29277,-0.26671 -0.55723,-0.23708 -0.24556,0 -0.51,0.0296 -0.80277,0.23708 -0.30224,0.20744 -0.29277,0.20745 -0.29277,0.66678 0.0101,0.44453 0,0.41489 0.30223,0.60753 0.28333,0.1778 0.28334,0.19264 0.72723,0.16299 0.44389,-0.0296 0,0 z"
     id="path4317"
     inkscape:connector-curvature="0"
     style="fill:#ff0000;fill-rule:evenodd" />
  <path
     d="m 289.5166,341.7421 0.39667,-0.0148 0.70833,0.31116 0.31167,0.32599 0.31168,0.32599 0.3211,0.94832 0.0101,0.62234 0.0101,0.44453 -0.19833,0.77051 -0.19835,0.34081 -0.20776,0.32599 -0.47222,0.34079 -0.2739,0.0148 -0.12278,0 -0.22667,-0.0889 -0.0944,-0.0888 -0.0944,-0.0889 -0.10389,-0.19264 0,-0.10371 0,-0.14817 0.0944,-0.22227 0.085,-0.0593 0.0944,-0.0594 0.16057,-0.0742 0.0567,0 0.11333,-0.0148 0.17944,0.0445 0.0661,0.0444 0.0755,0.0444 0.14168,0.0444 0.0567,0 0.13222,0 0.20778,-0.20744 0.0755,-0.17781 0.085,-0.19262 0.0755,-0.4149 -0.0101,-0.22226 -0.0101,-0.44453 -0.22666,-0.65197 -0.22667,-0.20744 -0.22667,-0.22227 -0.68001,-0.17782 -0.46278,0.0148 -0.37779,0.0148 -0.60444,0.26672 -0.22667,0.23708 -0.22667,0.2519 -0.21722,0.88905 0.0189,0.63716 -0.29277,0.0148 -0.0101,-0.48898 -0.21723,-0.72606 -0.20778,-0.22227 -0.19833,-0.22225 -0.55722,-0.20745 -0.35889,0.0148 -0.29279,0.0148 -0.51,0.20744 -0.21723,0.19263 -0.21722,0.19264 -0.20778,0.59269 0,0.40007 0.0101,0.163 0.0755,0.37044 0.0755,0.19262 0.085,0.19264 0.24554,0.19261 0.16057,-0.0148 0.17,0 0.20778,-0.0593 0.0473,-0.0593 0.0378,-0.0445 0.10389,-0.0593 0.0661,0 0.10389,0 0.16999,0.0297 0.0567,0.0593 0.0661,0.0445 0.0661,0.16298 0,0.13336 0,0.0888 -0.0567,0.19263 -0.0567,0.0889 -0.066,0.0889 -0.22667,0.0889 -0.17001,0.0148 -0.31167,0.0148 -0.51944,-0.29635 -0.20778,-0.31117 -0.20777,-0.31116 -0.20779,-0.72606 -0.0101,-0.42972 -0.0101,-0.48898 0.24557,-0.80014 0.255,-0.31118 0.26444,-0.31115 0.54778,-0.31118 0.29278,-0.0148 0.31168,-0.0148 0.53832,0.14818 0.22667,0.17781 0.22667,0.17782 0.33057,0.56306 0.11333,0.38527 0.16056,-0.54825 0.42499,-0.75571 0.26445,-0.20744 0.2739,-0.20745 0.53833,-0.22226 0.27389,-0.0148 0,0 z"
     id="path4319"
     inkscape:connector-curvature="0"
     style="fill:#ff0000;fill-rule:evenodd" />
  <path
     d="m 290.54605,336.36332 0.15112,-0.0148 0.20777,-0.10372 0.0567,-0.10372 0.0661,-0.10374 0.0567,-0.2667 -0.0101,-0.1778 0,-0.44454 0.24557,-0.0148 0.0661,3.25986 -0.255,0.0148 -0.0101,-0.54825 0,-0.19263 -0.0756,-0.28153 -0.0567,-0.0889 -0.0661,-0.0742 -0.21723,-0.0889 -0.14166,0.0148 -1.38834,0.0593 0.0661,3.30432 -0.20778,0.0148 -4.93948,-3.3784 -0.0101,-0.48898 4.82614,-0.22226 -0.0283,-1.33358 0.255,-0.0148 0.0283,1.33357 1.3789,-0.0593 z m -5.39281,1.0817 3.82502,2.63751 -0.0473,-2.85979 -3.7778,0.17782 0,0.0445 z"
     id="path4321"
     inkscape:connector-curvature="0"
     style="fill:#ff0000;fill-rule:evenodd" />
  <path
     d="m 340.52636,306.3874 0.0378,2.11891 -0.25501,0.0148 0,-0.14817 0,-0.14816 -0.0849,-0.16301 -0.085,-0.0296 -0.085,-0.0148 -0.23611,0.0889 -0.14167,0.10373 -3.03168,1.82256 0.98223,0.74088 2.38947,-0.11855 0.0849,0 0.12277,-0.0593 0.0378,-0.0742 0.0473,-0.0593 0.0377,-0.16299 0,-0.10373 -0.0101,-0.29634 0.255,0 0.0378,2.26708 -0.24555,0.0148 -0.0101,-0.29636 0,-0.13336 -0.0473,-0.16299 -0.0473,-0.0444 -0.0378,-0.0593 -0.12278,-0.0445 -0.085,0.0148 -5.99727,0.26671 -0.0849,0.0148 -0.12278,0.0445 -0.0473,0.0593 -0.0378,0.0444 -0.0378,0.17781 0,0.11855 0.0101,0.29635 -0.25501,0.0148 -0.0473,-2.26708 0.25501,-0.0148 0.0101,0.29636 0,0.10371 0.0473,0.163 0.0378,0.0593 0.0473,0.0593 0.12278,0.0444 0.085,0 3.06002,-0.13335 -2.85223,-2.19301 -0.15113,-0.11854 -0.21721,-0.0593 -0.0756,0.0445 -0.0661,0.0593 -0.0755,0.22225 0.0101,0.17781 0,0.19263 -0.255,0.0148 -0.0378,-2.1189 0.25501,-0.0148 0,0.0888 0,0.13336 0.0661,0.23707 0.0661,0.11855 0.0661,0.11854 0.19834,0.23709 0.12277,0.11853 1.87947,1.49658 3.81557,-2.29673 0.12278,-0.0742 0.17945,-0.17781 0.0473,-0.0889 0.0473,-0.0889 0.0567,-0.13336 0,-0.0444 -0.0101,-0.25189 0.255,-0.0148 z"
     id="path4323"
     inkscape:connector-curvature="0"
     style="fill:#ff0000;fill-rule:evenodd" />
  <path
     d="m 339.63857,301.64578 0.14165,-0.0148 0.2078,-0.10372 0.066,-0.10372 0.0567,-0.10373 0.0661,-0.26672 -0.0101,-0.1778 -0.0101,-0.44453 0.255,-0.0148 0.0567,3.25987 -0.24556,0.0148 -0.0101,-0.54825 -0.0101,-0.19263 -0.066,-0.28152 -0.0661,-0.0889 -0.0661,-0.0742 -0.20777,-0.0889 -0.15111,0.0148 -1.3789,0.0593 0.0661,3.3043 -0.21722,0.0148 -4.93003,-3.37841 -0.0101,-0.48899 4.82614,-0.22226 -0.0283,-1.33358 0.25499,-0.0148 0.0189,1.33357 1.38834,-0.0593 z m -5.39282,1.08168 3.82504,2.63753 -0.0567,-2.85979 -3.76837,0.1778 0,0.0445 z"
     id="path4325"
     inkscape:connector-curvature="0"
     style="fill:#ff0000;fill-rule:evenodd" />
  <path
     d="m 339.51579,295.31868 0.15112,0 0.20777,-0.10372 0.0567,-0.10372 0.0661,-0.10372 0.0567,-0.28154 0,-0.16299 -0.0101,-0.44454 0.24557,-0.0148 0.066,3.25986 -0.255,0.0148 -0.0101,-0.54825 0,-0.19263 -0.0661,-0.28153 -0.0661,-0.0889 -0.0661,-0.0889 -0.21723,-0.0741 -0.14167,0.0148 -1.38833,0.0593 0.0661,3.30433 -0.20777,0.0148 -4.93004,-3.37839 -0.0101,-0.50381 4.81668,-0.22226 -0.0189,-1.31876 0.24555,-0.0148 0.0283,1.33359 1.3789,-0.0742 z m -5.39281,1.0965 3.82502,2.63753 -0.0473,-2.85979 -3.7778,0.16299 0,0.0593 z"
     id="path4327"
     inkscape:connector-curvature="0"
     style="fill:#ff0000;fill-rule:evenodd" />
  <path
     d="m 336.28577,290.68078 -2.38946,0.11854 -0.0101,-0.44452 2.38947,-0.11854 -0.0473,-2.45971 0.37778,-0.0297 0.0473,2.47453 2.38945,-0.10372 0.0101,0.42971 -2.38946,0.11854 0.0473,2.45972 -0.37779,0.0296 -0.0473,-2.47454 z"
     id="path4329"
     inkscape:connector-curvature="0"
     style="fill:#ff0000;fill-rule:evenodd" />
  <path
     d="m 337.42855,284.60558 0.0101,0.48898 -0.24554,0.80015 -0.255,0.31117 -0.25501,0.31117 -0.85,0.3408 -0.58556,0.0148 -0.50056,0.0296 -0.85,-0.28154 -0.34001,-0.31116 -0.34,-0.29636 -0.34945,-0.90387 -0.0189,-0.5927 -0.0101,-0.60751 0.40611,-0.99279 0.40612,-0.35561 0.41555,-0.37045 1.2089,-0.40007 0.80279,-0.0445 0.87832,-0.0296 1.46391,0.34081 0.58555,0.37044 0.58556,0.38526 0.595,1.0965 0.0101,0.71123 0.0101,0.32599 -0.11332,0.56306 -0.12278,0.23709 -0.12279,0.23708 -0.33055,0.25191 -0.20777,0.0148 -0.085,0 -0.17001,-0.0593 -0.0849,-0.0594 -0.0849,-0.0444 -0.0849,-0.20745 0,-0.14816 -0.0101,-0.14818 0.0944,-0.20745 0.0944,-0.0593 0.0944,-0.0444 0.2172,-0.0593 0.12279,-0.0148 0.085,0 0.13223,-0.0296 0.0567,-0.0296 0.0473,-0.0297 0.0756,-0.0445 0.0189,-0.0296 0.0189,-0.0296 0.0377,-0.089 0.0101,-0.0593 0.0101,-0.0593 0,-0.13336 0,-0.0742 -0.0101,-0.44452 -0.42499,-0.69643 -0.425,-0.2519 -0.42501,-0.2519 -1.41667,-0.25189 -0.98223,-0.0148 0.255,0.11854 0.425,0.35561 0.17,0.23709 0.17,0.23708 0.17945,0.60753 0.0101,0.37043 0,0 z m -2.23834,1.43731 0.46278,-0.0296 0.69889,-0.23708 0.23612,-0.22226 0.23611,-0.22227 0.22667,-0.53343 0,-0.32599 -0.0101,-0.37044 -0.30223,-0.62233 -0.30222,-0.26672 -0.30223,-0.2519 -0.54778,-0.2519 -0.24555,0.0148 -0.51001,0.0296 -0.80278,0.22226 -0.30223,0.22227 -0.29278,0.20745 -0.29277,0.65197 0.0101,0.44453 0,0.4297 0.30223,0.59271 0.28334,0.19262 0.28334,0.17782 0.72721,0.16299 0.4439,-0.0148 0,0 z"
     id="path4331"
     inkscape:connector-curvature="0"
     style="fill:#ff0000;fill-rule:evenodd" />
  <path
     d="m 339.16634,276.38184 0.14167,-0.0148 0.20778,-0.10371 0.0661,-0.10373 0.0567,-0.10372 0.0567,-0.26672 0,-0.17781 -0.0101,-0.44452 0.25501,-0.0148 0.0567,3.25986 -0.24555,0.0148 -0.0189,-0.54826 0,-0.19262 -0.0661,-0.28154 -0.0661,-0.0889 -0.0661,-0.0742 -0.20777,-0.0889 -0.15111,0.0148 -1.37891,0.0593 0.0567,3.30433 -0.20779,0.0148 -4.93002,-3.37841 -0.0101,-0.48898 4.82613,-0.22227 -0.0283,-1.33357 0.255,-0.0148 0.0189,1.33358 1.38832,-0.0594 z m -5.3928,1.08167 3.82502,2.63753 -0.0567,-2.85979 -3.77779,0.17781 0.0101,0.0444 z"
     id="path4333"
     inkscape:connector-curvature="0"
     style="fill:#ff0000;fill-rule:evenodd" />
  <path
     d="m 339.04356,270.05474 0.15112,0 0.20778,-0.11855 0.0567,-0.0889 0.066,-0.10373 0.0567,-0.28152 -0.0101,-0.16299 0,-0.44453 0.24556,-0.0148 0.0661,3.25987 -0.255,0 -0.0101,-0.53343 0,-0.20745 -0.0755,-0.26672 -0.066,-0.0889 -0.0567,-0.0889 -0.21722,-0.0742 -0.14167,0.0148 -1.38834,0.0593 0.066,3.30431 -0.20778,0.0148 -4.93947,-3.3784 -0.0101,-0.5038 4.82614,-0.22227 -0.0283,-1.33357 0.255,0 0.0283,1.33357 1.3789,-0.0742 z m -5.3928,1.0965 3.82503,2.63752 -0.0473,-2.85979 -3.7778,0.16299 0,0.0594 z"
     id="path4335"
     inkscape:connector-curvature="0"
     style="fill:#ff0000;fill-rule:evenodd" />
  <path
     d="m 413.32457,305.40943 0.0378,2.11892 -0.255,0.0148 0,-0.14818 0,-0.14818 -0.0944,-0.17781 -0.0756,-0.0148 -0.085,-0.0148 -0.23611,0.0742 -0.14167,0.10372 -3.03168,1.82257 0.98221,0.74087 2.38946,-0.10372 0.085,0 0.12278,-0.0742 0.0378,-0.0593 0.0473,-0.0593 0.0378,-0.16299 0,-0.10373 -0.0101,-0.29635 0.25499,-0.0148 0.0377,2.26709 -0.24556,0.0148 -0.0101,-0.29636 0,-0.11853 -0.0473,-0.17781 -0.0473,-0.0445 -0.0378,-0.0444 -0.13222,-0.0445 -0.0756,0 -5.99724,0.28153 -0.085,0 -0.13224,0.0593 -0.0378,0.0444 -0.0377,0.0593 -0.0378,0.17781 0,0.11853 0,0.29636 -0.24555,0.0148 -0.0473,-2.2819 0.25501,0 0.0101,0.29635 0,0.0889 0.0473,0.16299 0.0378,0.0593 0.0473,0.0593 0.12278,0.0593 0.085,0 3.06003,-0.14818 -2.85225,-2.19301 -0.15112,-0.11853 -0.21722,-0.0593 -0.0755,0.0593 -0.0756,0.0445 -0.0661,0.22226 0,0.17781 0.0101,0.19264 -0.255,0.0148 -0.0378,-2.11891 0.25501,-0.0148 0,0.10372 0,0.11853 0.0661,0.25192 0.0661,0.11853 0.0661,0.11853 0.18888,0.23708 0.13223,0.11855 1.87946,1.49657 3.81557,-2.29671 0.12279,-0.089 0.17944,-0.16299 0.0473,-0.0889 0.0473,-0.0888 0.0567,-0.14819 0,-0.0444 -0.0101,-0.25189 0.25501,0 z"
     id="path4337"
     inkscape:connector-curvature="0"
     style="fill:#ff0000;fill-rule:evenodd" />
  <path
     d="m 412.43679,300.65301 0.14166,0 0.20778,-0.11854 0.0661,-0.0889 0.0567,-0.10372 0.0567,-0.28154 0,-0.17781 -0.0101,-0.42971 0.255,-0.0148 0.0567,3.25987 -0.24554,0 -0.0101,-0.53343 -0.0101,-0.20745 -0.0661,-0.28154 -0.066,-0.0742 -0.0661,-0.0889 -0.20779,-0.0742 -0.15111,0 -1.37889,0.0742 0.0567,3.3043 -0.20778,0.0148 -4.93003,-3.37841 -0.0101,-0.50379 4.82615,-0.22227 -0.0283,-1.33357 0.25501,0 0.0189,1.31876 1.38835,-0.0593 z m -5.39281,1.0965 3.82502,2.63752 -0.0567,-2.85979 -3.76835,0.16299 0,0.0593 z"
     id="path4339"
     inkscape:connector-curvature="0"
     style="fill:#ff0000;fill-rule:evenodd" />
  <path
     d="m 412.31401,294.34073 0.15112,-0.0148 0.20776,-0.10372 0.0567,-0.10373 0.0661,-0.10372 0.0567,-0.26671 0,-0.17782 -0.0101,-0.44452 0.24555,-0.0148 0.0661,3.25986 -0.25501,0.0148 -0.0101,-0.54824 0,-0.19264 -0.0756,-0.28153 -0.0567,-0.0889 -0.0661,-0.0742 -0.21723,-0.0742 -0.14167,0 -1.38834,0.0593 0.0661,3.31913 -0.20778,0 -4.93947,-3.37841 -0.0101,-0.48897 4.82614,-0.22226 -0.0283,-1.33358 0.25501,-0.0148 0.0283,1.33359 1.3789,-0.0593 z m -5.39281,1.08168 3.82503,2.63752 -0.0473,-2.85979 -3.7778,0.17782 0,0.0444 z"
     id="path4341"
     inkscape:connector-curvature="0"
     style="fill:#ff0000;fill-rule:evenodd" />
  <path
     d="m 409.08398,289.70283 -2.38945,0.10371 -0.0101,-0.44452 2.38945,-0.10372 -0.0473,-2.47453 0.37778,-0.0148 0.0473,2.45972 2.38945,-0.10372 0.0101,0.44453 -2.38946,0.10372 0.0473,2.47453 -0.37778,0.0148 -0.0473,-2.45971 z"
     id="path4343"
     inkscape:connector-curvature="0"
     style="fill:#ff0000;fill-rule:evenodd" />
  <path
     d="m 410.22676,283.61281 0.0101,0.5038 -0.24556,0.80015 -0.255,0.31116 -0.26444,0.29636 -0.84056,0.3408 -0.58556,0.0297 -0.50056,0.0148 -0.85001,-0.28154 -0.34,-0.29636 -0.33999,-0.31116 -0.34946,-0.88906 -0.0189,-0.5927 -0.0101,-0.62234 0.40611,-0.97795 0.40611,-0.37044 0.41556,-0.35563 1.20889,-0.41489 0.80277,-0.0296 0.87835,-0.0444 1.4639,0.34079 0.58556,0.38527 0.58555,0.38525 0.595,1.08168 0.0101,0.72608 0.0101,0.31116 -0.11333,0.56306 -0.12277,0.23709 -0.12278,0.2519 -0.33056,0.2519 -0.20778,0 -0.0851,0 -0.16999,-0.0445 -0.085,-0.0593 -0.085,-0.0593 -0.085,-0.20745 -0.0101,-0.14818 0,-0.14816 0.0944,-0.19263 0.0944,-0.0593 0.085,-0.0593 0.22667,-0.0593 0.12279,0 0.0849,0 0.13222,-0.0296 0.0567,-0.0297 0.0473,-0.0296 0.0756,-0.0593 0.0189,-0.0148 0.0189,-0.0296 0.0283,-0.0889 0.0101,-0.0593 0.0101,-0.0593 0.0101,-0.14817 0,-0.0742 -0.0101,-0.44453 -0.43446,-0.69642 -0.42499,-0.25189 -0.41556,-0.25191 -1.41667,-0.25188 -0.98223,0 0.25499,0.10371 0.42501,0.35562 0.17,0.23709 0.17,0.23709 0.17944,0.6075 0.0101,0.37044 0,0 z m -2.23834,1.43731 0.46279,-0.0148 0.69889,-0.23708 0.23611,-0.22227 0.23612,-0.22225 0.22666,-0.54826 0,-0.31116 -0.0101,-0.37045 -0.30222,-0.63715 -0.30223,-0.2519 -0.30222,-0.26671 -0.54778,-0.23709 -0.255,0.0148 -0.50056,0.0148 -0.80279,0.23709 -0.30221,0.20744 -0.30223,0.22226 -0.28333,0.65198 0,0.44453 0.0101,0.41489 0.29277,0.60752 0.29278,0.17781 0.28334,0.19263 0.72722,0.16299 0.44389,-0.0297 0,0 z"
     id="path4345"
     inkscape:connector-curvature="0"
     style="fill:#ff0000;fill-rule:evenodd" />
  <path
     d="m 408.16787,276.70783 -0.0101,-0.47417 0.29278,-0.78534 0.29279,-0.31117 0.30221,-0.31115 0.80279,-0.32599 0.50055,-0.0297 0.56668,-0.0148 0.90667,0.26671 0.34,0.28154 0.34001,0.29634 0.35888,0.93351 0.0101,0.65198 0.0101,0.42971 -0.20778,0.80015 -0.21723,0.35562 -0.20777,0.35562 -0.52889,0.37044 -0.31167,0.0148 -0.13222,0.0148 -0.21724,-0.0742 -0.0944,-0.089 -0.10389,-0.0742 -0.0944,-0.23709 0,-0.14818 -0.0101,-0.14817 0.085,-0.19262 0.085,-0.0593 0.0755,-0.0593 0.15112,-0.0445 0.0661,-0.0148 0.12278,0 0.19834,0.0593 0.0755,0.0742 0.0756,0.0742 0.16055,0.0593 0.0851,0 0.16054,0 0.255,-0.25191 0.0756,-0.23708 0.0755,-0.23708 0.0755,-0.51861 0,-0.26672 -0.0101,-0.40007 -0.28333,-0.57789 -0.2739,-0.20744 -0.28333,-0.19263 -0.77446,-0.17781 -0.51,0.0296 -0.41555,0.0148 -0.68,0.22226 -0.25501,0.19263 -0.26445,0.19264 -0.24555,0.57788 0.0101,0.37044 0,0.26671 0.0944,0.45935 0.085,0.19263 0.0849,0.19262 0.36833,0.35563 0.27389,0.16299 -0.0283,0.44453 -3.82503,-0.0742 -0.0756,-4.0452 0.63278,0.11854 0.0661,3.55621 2.76723,0.0742 -0.29279,-0.23707 -0.36833,-0.45935 -0.0661,-0.23709 -0.0661,-0.23708 -0.0755,-0.47415 0,-0.23708 0,0 z"
     id="path4347"
     inkscape:connector-curvature="0"
     style="fill:#ff0000;fill-rule:evenodd" />
  <path
     d="m 409.99066,270.98824 0.0101,0.48899 -0.24556,0.80013 -0.26445,0.31118 -0.255,0.31117 -0.84057,0.32599 -0.58555,0.0296 -0.50055,0.0297 -0.85001,-0.28153 -0.34,-0.31117 -0.34001,-0.29636 -0.35888,-0.90387 -0.0101,-0.5927 -0.0101,-0.62234 0.40612,-0.97795 0.40611,-0.35562 0.41557,-0.37045 1.20889,-0.40007 0.79334,-0.0445 0.88779,-0.0297 1.46388,0.3408 0.58557,0.37045 0.58555,0.38526 0.59501,1.0965 0.0101,0.71124 0.0101,0.32599 -0.11334,0.56306 -0.12278,0.23708 -0.12278,0.23708 -0.33056,0.25191 -0.20777,0.0148 -0.0849,0 -0.17,-0.0593 -0.085,-0.0593 -0.085,-0.0593 -0.085,-0.19263 -0.0101,-0.14817 0,-0.14817 0.0944,-0.20746 0.0944,-0.0593 0.0849,-0.0445 0.22666,-0.0593 0.12279,-0.0148 0.085,0 0.13221,-0.0297 0.0567,-0.0296 0.0473,-0.0296 0.0755,-0.0444 0.0189,-0.0296 0.0189,-0.0297 0.0283,-0.0889 0.0101,-0.0593 0.0101,-0.0593 0.0101,-0.13336 0,-0.0742 -0.0101,-0.44454 -0.43445,-0.69642 -0.425,-0.2519 -0.425,-0.25189 -1.40724,-0.2519 -0.98222,-0.0148 0.255,0.11854 0.425,0.35562 0.17001,0.23708 0.16999,0.23709 0.17945,0.60751 0.0101,0.37044 0,0 z m -2.23835,1.43731 0.46278,-0.0297 0.69889,-0.23707 0.23612,-0.22226 0.23611,-0.22227 0.22667,-0.53343 0,-0.32598 -0.0101,-0.37045 -0.30224,-0.62234 -0.30222,-0.2667 -0.30222,-0.2519 -0.54778,-0.25191 -0.255,0.0148 -0.50056,0.0297 -0.80279,0.22226 -0.30222,0.22226 -0.30223,0.20746 -0.29277,0.65196 0.0101,0.44453 0.0101,0.42971 0.29277,0.5927 0.29279,0.19263 0.28332,0.1778 0.72724,0.16301 0.44389,-0.0148 0,0 z"
     id="path4349"
     inkscape:connector-curvature="0"
     style="fill:#ff0000;fill-rule:evenodd" />
  <path
     d="m 498.77842,306.17996 0.0378,2.11891 -0.24557,0.0148 -0.0101,-0.14817 0,-0.14818 -0.085,-0.17781 -0.085,-0.0148 -0.085,-0.0296 -0.22667,0.0888 -0.15112,0.10373 -3.03168,1.82256 0.98223,0.74087 2.38947,-0.10372 0.0849,0 0.12278,-0.0742 0.0473,-0.0593 0.0378,-0.0742 0.0378,-0.16298 0,-0.0889 -0.0101,-0.29636 0.25501,-0.0148 0.0378,2.26709 -0.24556,0.0148 -0.0101,-0.29635 0,-0.11854 -0.0473,-0.17781 -0.0378,-0.0445 -0.0473,-0.0444 -0.12279,-0.0445 -0.085,0 -5.99726,0.28154 -0.085,0 -0.12277,0.0593 -0.0473,0.0444 -0.0378,0.0593 -0.0378,0.163 0,0.13336 0.0101,0.29635 -0.25501,0.0148 -0.0378,-2.2819 0.24557,0 0.0101,0.29636 0,0.0888 0.0473,0.16298 0.0377,0.0593 0.0473,0.0593 0.12277,0.0593 0.085,-0.0148 3.06003,-0.13336 -2.85224,-2.193 -0.14167,-0.11854 -0.22667,-0.0593 -0.0756,0.0593 -0.0661,0.0445 -0.0755,0.22226 0.0101,0.17781 0,0.19263 -0.24556,0.0148 -0.0473,-2.11891 0.255,-0.0148 0,0.10373 0,0.11853 0.0756,0.2519 0.0567,0.11854 0.0661,0.11855 0.19835,0.23707 0.12278,0.11855 1.87945,1.49657 3.81557,-2.31153 0.12278,-0.0742 0.17944,-0.16299 0.0473,-0.0889 0.0567,-0.0889 0.0473,-0.14818 0,-0.0444 -0.0101,-0.2519 0.25501,0 z"
     id="path4351"
     inkscape:connector-curvature="0"
     style="fill:#ff0000;fill-rule:evenodd" />
  <path
     d="m 497.89063,301.42352 0.15112,0 0.20778,-0.11854 0.0567,-0.10373 0.0661,-0.10372 0.0567,-0.26672 -0.0101,-0.1778 0,-0.44453 0.24555,0 0.0661,3.24504 -0.25501,0.0148 -0.0101,-0.53343 0,-0.20745 -0.0755,-0.28152 -0.0661,-0.0742 -0.0567,-0.0888 -0.21724,-0.0742 -0.14167,0 -1.38833,0.0742 0.0661,3.3043 -0.20778,0 -4.93947,-3.37839 -0.0101,-0.48899 4.82614,-0.22227 -0.0283,-1.33356 0.255,-0.0148 0.0283,1.33359 1.37891,-0.0593 z m -5.39281,1.08168 3.82503,2.65234 -0.0473,-2.8746 -3.77781,0.17781 0,0.0444 z"
     id="path4353"
     inkscape:connector-curvature="0"
     style="fill:#ff0000;fill-rule:evenodd" />
  <path
     d="m 497.7773,295.11124 0.14167,-0.0148 0.20777,-0.10373 0.0661,-0.10371 0.0567,-0.10373 0.0567,-0.26671 0,-0.17782 -0.0101,-0.44453 0.25501,-0.0148 0.0567,3.25987 -0.255,0.0148 -0.0101,-0.54825 0,-0.19263 -0.0661,-0.28154 -0.0661,-0.0889 -0.0661,-0.0742 -0.20778,-0.0742 -0.15112,0 -1.37889,0.0593 0.0567,3.30431 -0.20779,0.0148 -4.93002,-3.37841 -0.0101,-0.48897 4.8167,-0.22227 -0.0189,-1.33359 0.24554,-0.0148 0.0283,1.33358 1.38833,-0.0593 z m -5.40226,1.08168 3.83446,2.63752 -0.0567,-2.85979 -3.7778,0.17781 0,0.0445 z"
     id="path4355"
     inkscape:connector-curvature="0"
     style="fill:#ff0000;fill-rule:evenodd" />
  <path
     d="m 494.53784,290.45852 -2.38946,0.11854 -0.0101,-0.44453 2.38946,-0.11854 -0.0473,-2.45971 0.37778,-0.0148 0.0473,2.45971 2.38946,-0.10373 0.0101,0.44453 -2.38946,0.10373 0.0473,2.47453 -0.37779,0.0148 -0.0473,-2.47453 z"
     id="path4357"
     inkscape:connector-curvature="0"
     style="fill:#ff0000;fill-rule:evenodd" />
  <path
     d="m 495.68062,284.38333 0.0101,0.50378 -0.24556,0.80016 -0.25501,0.29635 -0.255,0.31115 -0.84999,0.34083 -0.58556,0.0296 -0.50057,0.0148 -0.84056,-0.28154 -0.34944,-0.29635 -0.34,-0.31117 -0.34945,-0.90387 -0.0101,-0.57788 -0.0189,-0.62233 0.40611,-0.97797 0.41556,-0.37044 0.40611,-0.37043 1.21833,-0.40008 0.79334,-0.0296 0.87834,-0.0444 1.4639,0.34079 0.58556,0.38527 0.58556,0.37044 0.595,1.0965 0.0189,0.72606 0,0.31116 -0.11333,0.56307 -0.12277,0.23708 -0.12279,0.2519 -0.33055,0.23708 -0.20778,0.0148 -0.085,0 -0.17,-0.0445 -0.085,-0.0593 -0.085,-0.0593 -0.0849,-0.20745 0,-0.14818 -0.0101,-0.14818 0.0944,-0.20745 0.0944,-0.0444 0.0944,-0.0593 0.21724,-0.0594 0.12277,0 0.0849,-0.0148 0.14167,-0.0296 0.0473,-0.0148 0.0567,-0.0297 0.0661,-0.0593 0.0189,-0.0296 0.0283,-0.0148 0.0283,-0.089 0.0101,-0.0594 0.0101,-0.0742 0.0101,-0.13336 -0.0101,-0.0742 0,-0.44453 -0.43445,-0.69642 -0.425,-0.2519 -0.425,-0.25189 -1.40724,-0.2519 -0.99167,0 0.255,0.10372 0.42501,0.35562 0.17,0.23709 0.17945,0.23707 0.17944,0.60752 0,0.37044 0,0 z m -2.23835,1.4373 0.46278,-0.0148 0.6989,-0.25189 0.23611,-0.20745 0.23612,-0.22226 0.2361,-0.54826 -0.0101,-0.32599 -0.0101,-0.37043 -0.30221,-0.62234 -0.30222,-0.2519 -0.29279,-0.26672 -0.55723,-0.23706 -0.24555,0 -0.50055,0.0296 -0.81222,0.23707 -0.29279,0.20745 -0.30222,0.20745 -0.29278,0.6668 0.0101,0.44451 0.0101,0.4149 0.29279,0.60752 0.28333,0.17781 0.29277,0.19263 0.72723,0.163 0.43445,-0.0297 0,0 z"
     id="path4359"
     inkscape:connector-curvature="0"
     style="fill:#ff0000;fill-rule:evenodd" />
  <path
     d="m 491.31726,275.40387 0.72722,0.48899 1.40724,0.75569 0.68944,0.28153 0.68001,0.26672 1.19001,0.26671 0.51,-0.0296 0.085,0 0.2361,-0.0297 0.16058,-0.0148 0.1511,-0.0148 0.36833,-0.0297 0.20779,-0.0148 0.17,-0.0148 0.23611,0.0593 0.0567,0.0593 0.066,0.0593 0.0661,0.20744 0.0101,0.14819 0,0.11853 -0.0661,0.20746 -0.0755,0.0888 -0.0756,0.10371 -0.255,0.0889 -0.1889,0.0148 -0.39667,0.0148 -0.99166,-0.16299 -0.59501,-0.17781 -0.58556,-0.19264 -2.02113,-1.0224 -1.41665,-0.85942 0.0473,2.47453 0,0.26672 0.16056,0.42971 0.15111,0.14818 0.14167,0.16299 0.45334,0.20746 0.29278,0.0593 -0.0378,0.29635 -1.76611,-0.2519 -0.0849,-4.44528 0.29279,-0.0148 z"
     id="path4361"
     inkscape:connector-curvature="0"
     style="fill:#ff0000;fill-rule:evenodd" />
  <path
     d="m 497.29562,269.84729 0.15112,-0.0148 0.20778,-0.10372 0.0567,-0.10372 0.0661,-0.10372 0.0567,-0.26673 0,-0.17781 -0.0101,-0.44453 0.24556,-0.0148 0.0661,3.25987 -0.25501,0.0148 -0.0101,-0.54824 0,-0.19263 -0.0661,-0.28154 -0.0661,-0.0889 -0.0661,-0.0742 -0.20778,-0.0889 -0.15112,0.0148 -1.38834,0.0593 0.0661,3.30431 -0.20778,0.0148 -4.93003,-3.37841 -0.0101,-0.48898 4.8167,-0.22226 -0.0189,-1.33358 0.24557,-0.0148 0.0283,1.33359 1.37889,-0.0593 z m -5.3928,1.08168 3.82502,2.63753 -0.0473,-2.85978 -3.7778,0.1778 0,0.0444 z"
     id="path4363"
     inkscape:connector-curvature="0"
     style="fill:#ff0000;fill-rule:evenodd" />
  <path
     d="m 523.73079,304.44631 0.0378,2.1189 -0.255,0.0148 0,-0.14817 0,-0.14819 -0.0944,-0.1778 -0.0849,-0.0148 -0.0755,-0.0296 -0.23613,0.0888 -0.14166,0.10373 -3.03169,1.82256 0.98223,0.74087 2.38945,-0.10371 0.0851,0 0.12277,-0.0742 0.0378,-0.0593 0.0473,-0.0742 0.0378,-0.16298 0,-0.0889 -0.0101,-0.29637 0.255,-0.0148 0.0377,2.26708 -0.255,0.0148 0,-0.29634 0,-0.11854 -0.0473,-0.17782 -0.0473,-0.0445 -0.0377,-0.0444 -0.13223,-0.0444 -0.0849,0 -5.99725,0.28153 -0.0755,0 -0.13223,0.0593 -0.0378,0.0444 -0.0377,0.0593 -0.0377,0.163 0,0.13335 0,0.29635 -0.24557,0.0148 -0.0473,-2.2819 0.255,0 0.0101,0.29634 0,0.0889 0.0378,0.16299 0.0473,0.0593 0.0473,0.0593 0.12277,0.0593 0.0849,-0.0148 3.06004,-0.13337 -2.85225,-2.19299 -0.15111,-0.11853 -0.21722,-0.0593 -0.0755,0.0593 -0.0755,0.0444 -0.0661,0.22226 0,0.17782 0.0101,0.19262 -0.255,0.0148 -0.0377,-2.11891 0.255,-0.0148 0,0.10373 0,0.11854 0.0661,0.2519 0.0661,0.11854 0.0661,0.11854 0.18891,0.23708 0.13221,0.11855 1.87946,1.49656 3.81557,-2.31153 0.12278,-0.0742 0.17944,-0.16299 0.0473,-0.0889 0.0473,-0.089 0.0567,-0.14818 -0.0101,-0.0444 0,-0.2519 0.25501,0 z"
     id="path4365"
     inkscape:connector-curvature="0"
     style="fill:#ff0000;fill-rule:evenodd" />
  <path
     d="m 522.84301,299.68986 0.14166,0 0.20777,-0.11854 0.0661,-0.10372 0.0567,-0.089 0.0567,-0.28153 0,-0.17781 -0.0101,-0.44453 0.255,0 0.0567,3.24505 -0.24554,0.0148 -0.0101,-0.53343 -0.0101,-0.20745 -0.0661,-0.28152 -0.0661,-0.0742 -0.0661,-0.0888 -0.20778,-0.0742 -0.15111,0 -1.37889,0.0742 0.0567,3.30431 -0.20778,0 -4.93002,-3.3784 -0.0101,-0.48898 4.82614,-0.22227 -0.0283,-1.33357 0.25499,-0.0148 0.0189,1.33359 1.38834,-0.0593 z m -5.39282,1.08168 3.82503,2.65234 -0.0567,-2.8746 -3.76837,0.17782 0,0.0444 z"
     id="path4367"
     inkscape:connector-curvature="0"
     style="fill:#ff0000;fill-rule:evenodd" />
  <path
     d="m 522.72023,293.37759 0.15111,-0.0148 0.20778,-0.10372 0.0567,-0.10372 0.0661,-0.10372 0.0567,-0.26672 -0.0101,-0.17781 0,-0.44453 0.24555,-0.0148 0.0661,3.25986 -0.25501,0.0148 -0.0101,-0.54826 0,-0.19263 -0.0756,-0.28153 -0.0567,-0.0889 -0.0661,-0.0742 -0.21722,-0.0742 -0.14166,0 -1.38835,0.0593 0.066,3.30431 -0.20778,0.0148 -4.93947,-3.37841 -0.0101,-0.48898 4.82613,-0.22227 -0.0283,-1.33358 0.255,-0.0148 0.0283,1.33358 1.37891,-0.0593 z m -5.39281,1.08167 3.82502,2.63753 -0.0473,-2.85979 -3.77779,0.17781 0,0.0445 z"
     id="path4369"
     inkscape:connector-curvature="0"
     style="fill:#ff0000;fill-rule:evenodd" />
  <path
     d="m 519.49022,288.72487 -2.38947,0.11854 -0.0101,-0.44453 2.38945,-0.10373 -0.0473,-2.47452 0.37778,-0.0148 0.0473,2.45972 2.38945,-0.10373 0.0101,0.44453 -2.38947,0.10372 0.0473,2.47454 -0.37777,0.0148 -0.0473,-2.47453 z"
     id="path4371"
     inkscape:connector-curvature="0"
     style="fill:#ff0000;fill-rule:evenodd" />
  <path
     d="m 520.633,282.64966 0.0101,0.5038 -0.24557,0.80015 -0.255,0.29635 -0.26444,0.31116 -0.84057,0.34081 -0.58555,0.0297 -0.50057,0.0148 -0.84999,-0.28152 -0.34001,-0.29635 -0.34,-0.31117 -0.35889,-0.90388 -0.0101,-0.57788 -0.0101,-0.62234 0.40611,-0.97796 0.40611,-0.37044 0.41556,-0.37044 1.20889,-0.40007 0.79334,-0.0296 0.88778,-0.0444 1.46391,0.34079 0.58555,0.38526 0.58557,0.37043 0.59499,1.09651 0.0101,0.72606 0.0101,0.31117 -0.11334,0.56306 -0.12277,0.23708 -0.12278,0.2519 -0.33055,0.23709 -0.20779,0.0148 -0.085,0 -0.17,-0.0445 -0.0849,-0.0594 -0.085,-0.0593 -0.0849,-0.20745 -0.0101,-0.14816 0,-0.14819 0.0944,-0.20745 0.0944,-0.0444 0.0849,-0.0593 0.22667,-0.0593 0.12278,0 0.0849,-0.0148 0.13221,-0.0297 0.0567,-0.0148 0.0473,-0.0296 0.0754,-0.0593 0.0189,-0.0296 0.0189,-0.0148 0.0283,-0.0888 0.0101,-0.0594 0.0101,-0.0742 0.0101,-0.13337 0,-0.0742 -0.0101,-0.44454 -0.43446,-0.69641 -0.425,-0.25191 -0.42502,-0.2519 -1.40722,-0.2519 -0.98222,0 0.255,0.10373 0.42501,0.35561 0.16998,0.23709 0.17,0.23708 0.17946,0.60752 0.0101,0.37043 0,0 z m -2.23836,1.43731 0.46279,-0.0148 0.69889,-0.25189 0.2361,-0.20745 0.23612,-0.22227 0.22667,-0.54825 0,-0.32599 -0.0101,-0.37043 -0.30221,-0.62234 -0.30223,-0.2519 -0.30222,-0.26672 -0.54779,-0.23708 -0.25499,0 -0.50056,0.0296 -0.80277,0.23708 -0.30224,0.20744 -0.30223,0.20746 -0.28333,0.66679 0,0.44452 0.0101,0.41489 0.29279,0.60753 0.29277,0.1778 0.28333,0.19263 0.72723,0.163 0.44389,-0.0297 0,0 z"
     id="path4373"
     inkscape:connector-curvature="0"
     style="fill:#ff0000;fill-rule:evenodd" />
  <path
     d="m 516.26964,273.67022 0.71777,0.48898 1.40723,0.7557 0.68946,0.28153 0.68944,0.26671 1.19001,0.26672 0.50056,-0.0296 0.085,0 0.24554,-0.0297 0.15112,-0.0148 0.16055,-0.0148 0.36834,-0.0296 0.20777,-0.0148 0.17001,-0.0148 0.22667,0.0593 0.0661,0.0594 0.0661,0.0593 0.0661,0.20744 0,0.14818 0,0.11853 -0.0661,0.20745 -0.0661,0.089 -0.0755,0.1037 -0.26445,0.0889 -0.18889,0.0148 -0.39667,0.0148 -0.99168,-0.16299 -0.58555,-0.17781 -0.59501,-0.19263 -2.01168,-1.02241 -1.41667,-0.85942 0.0378,2.47454 0.0101,0.26671 0.15112,0.42971 0.15111,0.14817 0.15111,0.16299 0.4439,0.20745 0.29277,0.0593 -0.0283,0.29634 -1.77557,-0.25189 -0.0755,-4.44528 0.29278,-0.0148 z"
     id="path4375"
     inkscape:connector-curvature="0"
     style="fill:#ff0000;fill-rule:evenodd" />
  <path
     d="m 520.39688,270.0251 0.0101,0.48898 -0.24556,0.80015 -0.26444,0.31116 -0.255,0.31118 -0.84057,0.32598 -0.58556,0.0297 -0.51,0.0296 -0.84057,-0.28154 -0.33999,-0.31116 -0.34001,-0.31117 -0.35889,-0.88905 -0.0101,-0.59271 -0.0101,-0.62234 0.39667,-0.97795 0.41556,-0.37044 0.41556,-0.35562 1.20889,-0.40008 0.79335,-0.0445 0.88778,-0.0296 1.46389,0.32599 0.58557,0.38524 0.57611,0.38526 0.60445,1.09651 0.0101,0.71123 0.0101,0.32599 -0.11335,0.56307 -0.12278,0.23707 -0.12277,0.23709 -0.33056,0.2519 -0.20777,0.0148 -0.085,0 -0.17001,-0.0593 -0.0849,-0.0593 -0.085,-0.0593 -0.0849,-0.20745 -0.0101,-0.14818 0,-0.14817 0.0944,-0.19262 0.0849,-0.0593 0.0944,-0.0445 0.22667,-0.0594 0.12276,-0.0148 0.085,0 0.13221,-0.0296 0.0567,-0.0297 0.0473,-0.0296 0.0755,-0.0445 0.0189,-0.0296 0.0189,-0.0297 0.0283,-0.0889 0.0101,-0.0593 0.0101,-0.0594 0.0101,-0.13336 0,-0.0742 -0.0101,-0.44452 -0.43445,-0.69643 -0.425,-0.25191 -0.42501,-0.25189 -1.40723,-0.26671 -0.98222,0 0.24555,0.11853 0.43444,0.34082 0.17001,0.23707 0.17,0.2519 0.17946,0.60753 0.0101,0.37043 0,0 z m -2.23835,1.4373 0.46278,-0.0296 0.68945,-0.23708 0.24556,-0.22226 0.2361,-0.22227 0.22667,-0.53344 0,-0.32599 -0.0101,-0.37042 -0.31167,-0.62235 -0.29278,-0.26672 -0.30223,-0.25189 -0.54777,-0.2519 -0.25501,0.0148 -0.50056,0.0148 -0.80278,0.23707 -0.30222,0.22227 -0.30222,0.20745 -0.29278,0.65198 0.0101,0.44452 0.0101,0.41489 0.29277,0.60752 0.29279,0.19263 0.28333,0.17781 0.72723,0.163 0.44389,-0.0148 0,0 z"
     id="path4377"
     inkscape:connector-curvature="0"
     style="fill:#ff0000;fill-rule:evenodd" />
  <path
     d="m 603.57461,371.28832 0.0377,2.11891 -0.25499,0.0148 0,-0.14818 0,-0.14818 -0.0944,-0.16299 -0.0849,-0.0296 -0.0755,-0.0148 -0.2361,0.0742 -0.14168,0.11854 -3.03167,1.80775 0.98222,0.75568 2.38946,-0.11854 0.085,0 0.12278,-0.0742 0.0378,-0.0593 0.0473,-0.0593 0.0378,-0.16299 0,-0.10373 -0.0101,-0.29634 0.25501,-0.0148 0.0378,2.28192 -0.25501,0 0,-0.29636 0,-0.11854 -0.0473,-0.163 -0.0473,-0.0593 -0.0377,-0.0444 -0.13223,-0.0444 -0.0849,0 -5.98781,0.28153 -0.085,0 -0.13223,0.0593 -0.0378,0.0593 -0.0378,0.0444 -0.0378,0.17781 0,0.11854 0,0.29636 -0.24556,0.0148 -0.0473,-2.26709 0.255,-0.0148 0.0101,0.29635 0,0.10373 0.0377,0.14818 0.0473,0.0593 0.0473,0.0593 0.12279,0.0593 0.0849,0 3.06002,-0.14817 -2.85224,-2.17819 -0.15111,-0.11852 -0.21723,-0.0742 -0.0756,0.0593 -0.0755,0.0444 -0.0661,0.23709 0,0.16298 0.0101,0.20745 -0.25499,0 -0.0378,-2.11891 0.255,-0.0148 0,0.10372 0,0.11855 0.0661,0.2519 0.0661,0.11853 0.0661,0.11855 0.1889,0.23707 0.13222,0.11854 1.87945,1.49659 3.81558,-2.29673 0.12277,-0.0888 0.17945,-0.163 0.0473,-0.0889 0.0473,-0.0889 0.0567,-0.13335 0,-0.0593 -0.0101,-0.23708 0.255,-0.0148 z"
     id="path4379"
     inkscape:connector-curvature="0"
     style="fill:#ff0000;fill-rule:evenodd" />
  <path
     d="m 602.68683,366.53189 0.14166,0 0.20779,-0.10373 0.0661,-0.10371 0.0567,-0.10373 0.0567,-0.28154 0,-0.16299 -0.0101,-0.44452 0.255,-0.0148 0.0567,3.25986 -0.24556,0.0148 -0.0101,-0.54825 -0.0101,-0.19263 -0.0661,-0.28154 -0.066,-0.0889 -0.0661,-0.0889 -0.20777,-0.0742 -0.15111,0.0148 -1.37891,0.0593 0.0567,3.30432 -0.20777,0.0148 -4.93003,-3.3784 -0.0101,-0.5038 4.82614,-0.22226 -0.0283,-1.31877 0.255,-0.0148 0.0189,1.33358 1.38835,-0.0742 z m -5.39283,1.09649 3.82503,2.63753 -0.0567,-2.85979 -3.76837,0.17781 0,0.0445 z"
     id="path4381"
     inkscape:connector-curvature="0"
     style="fill:#ff0000;fill-rule:evenodd" />
  <path
     d="m 602.56404,360.21961 0.15112,0 0.20777,-0.11855 0.0567,-0.10372 0.0661,-0.089 0.0567,-0.28152 -0.0101,-0.17782 0,-0.44454 0.24555,0 0.0661,3.24506 -0.255,0.0148 -0.0101,-0.53343 0,-0.20745 -0.0755,-0.28154 -0.0567,-0.0742 -0.0661,-0.0889 -0.21723,-0.0742 -0.14166,0 -1.38834,0.0742 0.0661,3.30431 -0.20778,0 -4.93948,-3.36358 -0.0101,-0.5038 4.82616,-0.22227 -0.0283,-1.33358 0.25502,-0.0148 0.0283,1.33357 1.3789,-0.0593 z m -5.39281,1.0965 3.82502,2.63753 -0.0473,-2.87461 -3.7778,0.17781 0,0.0593 z"
     id="path4383"
     inkscape:connector-curvature="0"
     style="fill:#ff0000;fill-rule:evenodd" />
  <path
     d="m 599.33403,355.58172 -2.38947,0.1037 -0.0101,-0.44452 2.38946,-0.10372 -0.0473,-2.47453 0.37777,-0.0148 0.0473,2.47454 2.38946,-0.11854 0.0101,0.44453 -2.38946,0.11853 0.0473,2.45971 -0.37777,0.0148 -0.0473,-2.45971 z"
     id="path4385"
     inkscape:connector-curvature="0"
     style="fill:#ff0000;fill-rule:evenodd" />
  <path
     d="m 600.47681,349.5065 0.0101,0.48899 -0.24555,0.80015 -0.255,0.31116 -0.26445,0.31117 -0.84055,0.32599 -0.58557,0.0296 -0.50055,0.0296 -0.85001,-0.28153 -0.34001,-0.31116 -0.34,-0.31118 -0.34944,-0.88906 -0.0189,-0.59269 -0.0101,-0.62233 0.40611,-0.97797 0.40613,-0.37044 0.41554,-0.35562 1.20891,-0.40008 0.80278,-0.0444 0.87833,-0.0444 1.4639,0.3408 0.58556,0.38526 0.58556,0.38525 0.595,1.09651 0.0101,0.71124 0.0101,0.32599 -0.11333,0.54825 -0.12278,0.25189 -0.12279,0.23709 -0.33054,0.2519 -0.20778,0 -0.0849,0.0148 -0.16999,-0.0593 -0.0851,-0.0593 -0.0849,-0.0593 -0.0849,-0.20745 -0.0101,-0.14816 0,-0.14818 0.0944,-0.19263 0.0944,-0.0593 0.085,-0.0444 0.22667,-0.0593 0.12279,-0.0148 0.085,0 0.13222,-0.0296 0.0567,-0.0297 0.0473,-0.0296 0.0755,-0.0444 0.0189,-0.0296 0.0189,-0.0296 0.0283,-0.089 0.0101,-0.0593 0.0101,-0.0593 0.0101,-0.13337 0,-0.0742 -0.0101,-0.44452 -0.43445,-0.69644 -0.425,-0.25189 -0.41556,-0.2519 -1.41668,-0.26671 -0.98223,0 0.255,0.11855 0.42501,0.34079 0.17001,0.23708 0.16998,0.2519 0.17945,0.60752 0.0101,0.37044 0,0 z m -2.23834,1.4373 0.46278,-0.0297 0.69887,-0.23707 0.23614,-0.22227 0.2361,-0.22225 0.22667,-0.54826 0,-0.31116 -0.0101,-0.37045 -0.30222,-0.63715 -0.30224,-0.25189 -0.30221,-0.25191 -0.54778,-0.25189 -0.25501,0.0148 -0.50056,0.0148 -0.80278,0.23709 -0.30223,0.20744 -0.30221,0.22226 -0.28334,0.65198 0,0.44452 0.0101,0.4149 0.29278,0.60751 0.29277,0.17782 0.28334,0.19263 0.72723,0.16299 0.4439,-0.0148 0,0 z"
     id="path4387"
     inkscape:connector-curvature="0"
     style="fill:#ff0000;fill-rule:evenodd" />
  <path
     d="m 600.35403,343.17941 0.0101,0.5038 -0.24555,0.80014 -0.255,0.31118 -0.25501,0.29635 -0.84056,0.3408 -0.595,0.0297 -0.50055,0.0148 -0.84057,-0.28152 -0.34944,-0.29637 -0.34001,-0.31115 -0.34944,-0.88906 -0.0101,-0.59271 -0.0101,-0.62234 0.39667,-0.97796 0.41556,-0.37043 0.41557,-0.37044 1.20889,-0.40008 0.79335,-0.0296 0.87832,-0.0444 1.46391,0.3408 0.58555,0.38526 0.58556,0.37044 0.59502,1.09649 0.0189,0.72607 0,0.31118 -0.11334,0.56305 -0.12277,0.23709 -0.12278,0.25189 -0.33055,0.2519 -0.20778,0 -0.0849,0 -0.17001,-0.0444 -0.085,-0.0593 -0.085,-0.0593 -0.0849,-0.20744 0,-0.14817 0,-0.14817 0.0849,-0.20745 0.0944,-0.0444 0.0944,-0.0593 0.21721,-0.0593 0.12278,0 0.0849,0 0.14167,-0.0445 0.0473,-0.0148 0.0567,-0.0296 0.0661,-0.0593 0.0283,-0.0148 0.0189,-0.0297 0.0283,-0.0889 0.0101,-0.0593 0.0101,-0.0742 0.0101,-0.13336 0,-0.0742 -0.0101,-0.44453 -0.43445,-0.69642 -0.42499,-0.25191 -0.42501,-0.2519 -1.40723,-0.25188 -0.99168,0 0.25501,0.10372 0.425,0.35561 0.17001,0.23709 0.17944,0.23708 0.17945,0.60752 0,0.37044 0,0 z m -2.23835,1.4373 0.46278,-0.0148 0.69889,-0.23708 0.23612,-0.22226 0.23611,-0.22227 0.23611,-0.54824 -0.0101,-0.31117 -0.0101,-0.37045 -0.30222,-0.63714 -0.30223,-0.25191 -0.29279,-0.26672 -0.54777,-0.23708 -0.255,0.0148 -0.50056,0.0148 -0.80279,0.23707 -0.30222,0.20745 -0.30222,0.20744 -0.29278,0.6668 0.0101,0.44453 0.0101,0.41488 0.29278,0.60753 0.28333,0.17781 0.29279,0.19262 0.72722,0.163 0.43445,-0.0297 0,0 z"
     id="path4389"
     inkscape:connector-curvature="0"
     style="fill:#ff0000;fill-rule:evenodd" />
  <path
     d="m 600.93958,334.02215 0.39668,-0.0148 0.70833,0.31116 0.31168,0.32598 0.31167,0.32599 0.32111,0.94834 0.0189,0.62233 0,0.44453 -0.18889,0.77051 -0.20778,0.3408 -0.19833,0.32598 -0.48168,0.34081 -0.27388,0.0148 -0.12279,0 -0.22667,-0.089 -0.0944,-0.0889 -0.0944,-0.0888 -0.0944,-0.19262 0,-0.10372 -0.0101,-0.14819 0.0943,-0.20744 0.0944,-0.0742 0.0944,-0.0593 0.15111,-0.0742 0.0661,0 0.10389,-0.0148 0.17943,0.0445 0.0755,0.0444 0.0756,0.0444 0.13221,0.0445 0.0661,0 0.12277,0 0.20779,-0.19263 0.0754,-0.19264 0.085,-0.19262 0.0756,-0.41488 0,-0.22228 -0.0101,-0.44453 -0.23612,-0.65197 -0.22666,-0.20744 -0.21722,-0.20744 -0.68945,-0.19264 -0.46279,0.0148 -0.37778,0.0148 -0.60443,0.26672 -0.22667,0.25191 -0.22667,0.23708 -0.20779,0.88904 0.0101,0.63716 -0.29278,0.0148 -0.0101,-0.48899 -0.21721,-0.72606 -0.19835,-0.22226 -0.20777,-0.22225 -0.55723,-0.20745 -0.3589,0.0148 -0.29277,0.0148 -0.51,0.20745 -0.21724,0.19262 -0.21721,0.19263 -0.20777,0.5927 0.0101,0.40008 0,0.16299 0.0849,0.37045 0.0756,0.19262 0.0756,0.19263 0.24556,0.19263 0.17,-0.0148 0.16056,0 0.20777,-0.0593 0.0473,-0.0593 0.0378,-0.0444 0.10389,-0.0593 0.066,0 0.10389,0 0.17001,0.0444 0.0661,0.0445 0.0567,0.0444 0.0661,0.163 0.0101,0.13336 0,0.0889 -0.0661,0.19263 -0.0567,0.0889 -0.0661,0.0889 -0.22667,0.10372 -0.17,0 -0.31167,0.0148 -0.51944,-0.29635 -0.20778,-0.31118 -0.19833,-0.31116 -0.21724,-0.72606 -0.0101,-0.42971 -0.0101,-0.48898 0.24555,-0.80015 0.26445,-0.31116 0.255,-0.31118 0.54778,-0.31117 0.29277,-0.0148 0.31167,-0.0148 0.53834,0.16298 0.22667,0.16301 0.22666,0.17781 0.33056,0.56308 0.11334,0.40006 0.16056,-0.56307 0.425,-0.75569 0.2739,-0.20745 0.26444,-0.20744 0.53834,-0.22227 0.27388,-0.0148 0,0 z"
     id="path4391"
     inkscape:connector-curvature="0"
     style="fill:#ff0000;fill-rule:evenodd" />
  <path
     d="m 676.98672,304.65375 0.0473,2.11891 -0.25501,0.0148 0,-0.14818 -0.0101,-0.14815 -0.085,-0.17782 -0.0849,-0.0148 -0.0849,-0.0148 -0.22666,0.0742 -0.14167,0.10373 -3.03169,1.82255 0.98224,0.74088 2.38946,-0.10372 0.0849,0 0.12278,-0.0742 0.0377,-0.0593 0.0378,-0.0593 0.0473,-0.163 -0.0101,-0.10372 0,-0.29635 0.24555,-0.0148 0.0473,2.26709 -0.255,0.0148 0,-0.29633 -0.0101,-0.11855 -0.0377,-0.17782 -0.0473,-0.0445 -0.0377,-0.0444 -0.13222,-0.0444 -0.0851,0 -5.99725,0.28154 -0.0849,0 -0.12278,0.0593 -0.0378,0.0444 -0.0378,0.0593 -0.0473,0.17781 0.0101,0.11855 0,0.29635 -0.24555,0.0148 -0.0473,-2.2671 0.255,-0.0148 0,0.29636 0.0101,0.089 0.0378,0.16298 0.0473,0.0593 0.0378,0.0593 0.13223,0.0593 0.085,0 3.06002,-0.14818 -2.85224,-2.19298 -0.1511,-0.10374 -0.21724,-0.0742 -0.0755,0.0593 -0.0756,0.0444 -0.066,0.23708 0,0.163 0.0101,0.20745 -0.255,0 -0.0377,-2.11892 0.24556,-0.0148 0.0101,0.10372 0,0.11854 0.0661,0.25189 0.0661,0.11854 0.066,0.11854 0.1889,0.23709 0.13223,0.11854 1.87001,1.49656 3.82501,-2.29671 0.12279,-0.0889 0.17001,-0.16299 0.0567,-0.0889 0.0473,-0.0889 0.0473,-0.13337 0,-0.0593 0,-0.23709 0.24556,-0.0148 z"
     id="path4393"
     inkscape:connector-curvature="0"
     style="fill:#ff0000;fill-rule:evenodd" />
  <path
     d="m 676.10837,299.89731 0.14167,0 0.20778,-0.11855 0.0661,-0.0888 0.0567,-0.10372 0.0567,-0.28153 0,-0.16299 -0.0101,-0.44453 0.255,-0.0148 0.0567,3.25986 -0.255,0 -0.0101,-0.53344 0,-0.20744 -0.0661,-0.28153 -0.0661,-0.0742 -0.0661,-0.0889 -0.20778,-0.0742 -0.1511,0.0148 -1.37891,0.0593 0.0567,3.30431 -0.20778,0.0148 -4.93003,-3.3784 -0.0101,-0.50381 4.8167,-0.22226 -0.0189,-1.33358 0.24556,0 0.0283,1.33358 1.38834,-0.0742 z m -5.40226,1.09649 3.83448,2.63754 -0.0567,-2.8598 -3.77781,0.16301 0,0.0593 z"
     id="path4395"
     inkscape:connector-curvature="0"
     style="fill:#ff0000;fill-rule:evenodd" />
  <path
     d="m 672.18891,294.88898 -0.0101,-0.45935 0.29279,-0.78534 0.30222,-0.31116 0.29277,-0.31116 0.8028,-0.32599 0.50055,-0.0296 0.56667,-0.0148 0.90668,0.26671 0.34,0.28154 0.34944,0.29635 0.34944,0.9335 0.0101,0.63716 0.0101,0.44453 -0.20778,0.80014 -0.20778,0.35562 -0.21722,0.35563 -0.52889,0.37044 -0.31167,0.0148 -0.12278,0.0148 -0.22667,-0.0742 -0.0944,-0.0889 -0.0944,-0.0742 -0.10389,-0.23709 0,-0.14818 0,-0.14816 0.0756,-0.20745 0.0849,-0.0444 0.085,-0.0593 0.14166,-0.0593 0.0661,0 0.12278,0 0.20778,0.0593 0.0661,0.0742 0.0754,0.0742 0.16056,0.0593 0.085,0 0.17001,-0.0148 0.24555,-0.23708 0.0755,-0.23708 0.0851,-0.23709 0.0755,-0.51861 -0.0101,-0.26672 -0.0101,-0.40007 -0.28333,-0.5927 -0.27389,-0.19263 -0.27389,-0.19261 -0.7839,-0.17783 -0.50055,0.0296 -0.425,0.0148 -0.67058,0.22227 -0.26444,0.19261 -0.25499,0.19264 -0.25501,0.56308 0.0101,0.37043 0.0101,0.28154 0.085,0.45933 0.0944,0.19263 0.0849,0.19264 0.35889,0.35562 0.28333,0.16298 -0.0377,0.44454 -3.82502,-0.0742 -0.0755,-4.0452 0.63278,0.11855 0.0661,3.5562 2.77669,0.0742 -0.30224,-0.23708 -0.35888,-0.45935 -0.0755,-0.23709 -0.0661,-0.23707 -0.0661,-0.47416 -0.0101,-0.25189 0,0 z"
     id="path4397"
     inkscape:connector-curvature="0"
     style="fill:#ff0000;fill-rule:evenodd" />
  <path
     d="m 672.74613,288.94712 -2.38947,0.10374 -0.0101,-0.44454 2.39891,-0.10372 -0.0473,-2.47453 0.3778,-0.0148 0.0473,2.47453 2.38946,-0.11854 0.0101,0.44453 -2.39891,0.11854 0.0473,2.45971 -0.37777,0.0148 -0.0473,-2.45972 z"
     id="path4399"
     inkscape:connector-curvature="0"
     style="fill:#ff0000;fill-rule:evenodd" />
  <path
     d="m 676.65615,282.29405 0.0101,0.54824 -0.46278,0.93351 -0.48166,0.38525 -0.47223,0.40007 -1.35057,0.42972 -0.88778,0.0444 -0.81222,0.0296 -1.33169,-0.29635 -0.51,-0.32599 -0.51,-0.3408 -0.51945,-0.90387 -0.0101,-0.56306 -0.0101,-0.54825 0.46278,-0.91869 0.47222,-0.38526 0.48167,-0.37045 1.33167,-0.4297 0.85945,-0.0296 0.85945,-0.0444 1.36002,0.29636 0.50054,0.32599 0.50057,0.3408 0.51,0.87423 0.0101,0.54826 0,0 z m -7.00782,0.32597 0.0101,0.34081 0.46279,0.56308 0.45334,0.20745 0.45332,0.22225 1.2089,0.17781 0.75555,-0.0444 0.8028,-0.0296 1.22778,-0.29635 0.43445,-0.25191 0.44389,-0.25189 0.425,-0.60753 -0.0101,-0.34079 0,-0.37044 -0.45334,-0.56307 -0.44388,-0.19263 -0.4439,-0.17782 -1.24668,-0.16298 -0.79333,0.0444 -0.75556,0.0297 -1.19945,0.25191 -0.45334,0.22226 -0.44388,0.22227 -0.43446,0.60752 0,0.40006 0,0 z"
     id="path4401"
     inkscape:connector-curvature="0"
     style="fill:#ff0000;fill-rule:evenodd" />
  <path
     d="m 676.53338,275.98176 0.0101,0.53343 -0.46279,0.93351 -0.47223,0.40008 -0.47221,0.38525 -1.36001,0.44454 -0.87835,0.0296 -0.82167,0.0444 -1.32222,-0.29635 -0.51,-0.3408 -0.51001,-0.32599 -0.52889,-0.90387 -0.0101,-0.57788 -0.0101,-0.53344 0.46278,-0.91869 0.48166,-0.38525 0.47223,-0.38526 1.34113,-0.4149 0.85944,-0.0445 0.85945,-0.0296 1.36001,0.29636 0.49111,0.32597 0.50056,0.34081 0.51001,0.87425 0.0101,0.54824 0,0 z m -6.99839,0.31118 0,0.35561 0.46279,0.54825 0.46278,0.22226 0.45334,0.20745 1.20889,0.17782 0.75557,-0.0297 0.79332,-0.0296 1.23725,-0.29634 0.43444,-0.2519 0.43444,-0.26672 0.43445,-0.5927 -0.0101,-0.34081 -0.0101,-0.37044 -0.45334,-0.56305 -0.44388,-0.19264 -0.4439,-0.19263 -1.23722,-0.14816 -0.80278,0.0444 -0.74613,0.0296 -1.20889,0.25191 -0.44388,0.22227 -0.4439,0.20744 -0.4439,0.62233 0.0101,0.38527 0,0 z"
     id="path4403"
     inkscape:connector-curvature="0"
     style="fill:#ff0000;fill-rule:evenodd" />
  <path
     d="m 671.75445,269.58057 -0.0101,-0.5927 0.32111,-0.87422 0.33057,-0.26673 0.33055,-0.28153 0.74611,-0.28154 0.42501,-0.0296 0.62332,-0.0296 0.94447,0.31116 0.31165,0.35562 0.31167,0.34081 0.32112,0.81496 0.0101,0.45936 0.0101,0.66678 -0.41556,1.03724 -0.41555,0.37042 -0.42501,0.35564 -1.24667,0.40007 -0.81223,0.0445 -0.96334,0.0444 -1.49223,-0.35562 -0.51945,-0.38526 -0.51945,-0.40007 -0.53833,-1.11132 -0.0101,-0.71124 -0.0101,-0.35562 0.16056,-0.56308 0.16055,-0.20744 0.16056,-0.22225 0.29278,-0.22228 0.12278,-0.0148 0.13222,0 0.18889,0.0593 0.0661,0.0593 0.0567,0.0593 0.0661,0.20744 0.0101,0.14818 0,0.11854 -0.0473,0.17782 -0.0567,0.0742 -0.0473,0.0593 -0.16056,0.0742 -0.10388,0 -0.0378,0 -0.085,0 -0.0473,-0.0148 -0.0378,-0.0148 -0.085,0 -0.0377,0 -0.0849,0 -0.14167,0.0889 -0.0473,0.0742 -0.0473,0.0742 -0.0473,0.26671 0,0.20744 0.0101,0.41489 0.34001,0.69643 0.33056,0.28153 0.33055,0.28154 1.41668,0.23708 1.09557,-0.0593 -0.28334,-0.13336 -0.41555,-0.38525 -0.14168,-0.2519 -0.14167,-0.25191 -0.14166,-0.54824 -0.0101,-0.29635 0,0 z m 1.75669,1.83738 0.63278,-0.0296 0.97278,-0.29637 0.34,-0.28153 0.34,-0.26672 0.33057,-0.65198 -0.0101,-0.37042 0,-0.37044 -0.24555,-0.54825 -0.23613,-0.19263 -0.22666,-0.19264 -0.86889,-0.14817 -0.63278,0.0297 -0.41556,0.0148 -0.64221,0.23706 -0.22667,0.22227 -0.22667,0.22227 -0.22667,0.51861 0.0101,0.29635 0,0.26672 0.15111,0.5038 0.14167,0.22225 0.14166,0.23709 0.51947,0.40008 0.37777,0.17781 0,0 z"
     id="path4405"
     inkscape:connector-curvature="0"
     style="fill:#ff0000;fill-rule:evenodd" />
  <path
     d="m 773.4434,306.98011 0.0377,2.1189 -0.25501,0.0148 0,-0.14818 0,-0.14817 -0.0944,-0.163 -0.0849,-0.0296 -0.0851,-0.0148 -0.22667,0.089 -0.14166,0.10373 -3.0317,1.80773 0.98224,0.75571 2.38946,-0.11854 0.085,0 0.12277,-0.0742 0.0378,-0.0593 0.0473,-0.0593 0.0378,-0.16299 -0.0101,-0.10372 0,-0.29636 0.24556,0 0.0473,2.26709 -0.255,0 0,-0.28153 0,-0.13336 -0.0473,-0.16298 -0.0473,-0.0593 -0.0378,-0.0445 -0.13223,-0.0444 -0.085,0.0148 -5.99725,0.26672 -0.0849,0.0148 -0.12278,0.0444 -0.0378,0.0593 -0.0377,0.0445 -0.0473,0.17781 0.0101,0.11855 0,0.29634 -0.24556,0.0148 -0.0473,-2.26709 0.25501,-0.0148 0,0.29636 0.0101,0.10371 0.0378,0.14817 0.0473,0.0593 0.0378,0.0593 0.13222,0.0593 0.085,0 3.06003,-0.14818 -2.85224,-2.17818 -0.15112,-0.11854 -0.21722,-0.0593 -0.0755,0.0445 -0.0756,0.0593 -0.0661,0.22227 0,0.16299 0.0101,0.20745 -0.255,0.0148 -0.0378,-2.13373 0.24556,0 0.0101,0.0889 0,0.13335 0.0661,0.23708 0.0661,0.11855 0.0661,0.11854 0.18888,0.23708 0.13222,0.11854 1.87001,1.49657 3.82503,-2.29672 0.12278,-0.0742 0.17,-0.1778 0.0567,-0.0889 0.0473,-0.089 0.0473,-0.13336 0,-0.0593 0,-0.23708 0.25499,-0.0148 z"
     id="path4407"
     inkscape:connector-curvature="0"
     style="fill:#ff0000;fill-rule:evenodd" />
  <path
     d="m 772.55562,302.23848 0.14167,-0.0148 0.20778,-0.10371 0.0661,-0.10373 0.0567,-0.10372 0.0567,-0.26672 0,-0.17781 -0.0101,-0.44453 0.25501,-0.0148 0.0567,3.25987 -0.25501,0.0148 -0.0101,-0.54826 0,-0.19263 -0.0661,-0.28152 -0.0661,-0.089 -0.0661,-0.0742 -0.20778,-0.0889 -0.15112,0.0148 -1.37889,0.0593 0.0567,3.30432 -0.20778,0.0148 -4.93003,-3.37841 -0.0101,-0.48898 4.81669,-0.22227 -0.0189,-1.33357 0.24555,-0.0148 0.0283,1.33358 1.38835,-0.0593 z m -5.39282,1.08168 3.82504,2.63752 -0.0567,-2.85978 -3.77781,0.17781 0.0101,0.0444 z"
     id="path4409"
     inkscape:connector-curvature="0"
     style="fill:#ff0000;fill-rule:evenodd" />
  <path
     d="m 768.63615,297.23015 -0.0101,-0.47416 0.29278,-0.77053 0.30223,-0.31116 0.29278,-0.31117 0.80277,-0.34079 0.50057,-0.0148 0.56667,-0.0297 0.90667,0.26671 0.34946,0.29635 0.33999,0.28153 0.34945,0.9335 0.0101,0.65197 0.0101,0.44453 -0.19833,0.80016 -0.21722,0.35561 -0.21723,0.35563 -0.52889,0.37043 -0.31168,0.0148 -0.12276,0 -0.22667,-0.0742 -0.0944,-0.0888 -0.0944,-0.0742 -0.10389,-0.23709 0,-0.14818 0,-0.14816 0.0755,-0.19263 0.0849,-0.0593 0.0851,-0.0445 0.14167,-0.0593 0.0661,0 0.12278,-0.0148 0.20776,0.0742 0.0661,0.0593 0.0755,0.0742 0.16056,0.0742 0.0849,-0.0148 0.17,0 0.24555,-0.25191 0.0756,-0.23707 0.0849,-0.23709 0.0756,-0.50379 -0.0101,-0.28154 -0.0101,-0.38525 -0.28333,-0.5927 -0.27389,-0.20746 -0.2739,-0.19262 -0.78387,-0.17781 -0.50057,0.0297 -0.41556,0.0148 -0.68,0.22227 -0.26444,0.19262 -0.25501,0.19264 -0.255,0.57788 0.0101,0.37043 0.0101,0.26672 0.0849,0.45935 0.0944,0.19263 0.085,0.20744 0.35889,0.34081 0.28334,0.16299 -0.0378,0.44454 -3.81557,-0.0593 -0.0851,-4.06002 0.63279,0.13335 0.0661,3.5414 2.77667,0.0742 -0.30221,-0.23708 -0.35889,-0.45935 -0.066,-0.23709 -0.0756,-0.22225 -0.0661,-0.48899 -0.0101,-0.23707 0,0 z"
     id="path4411"
     inkscape:connector-curvature="0"
     style="fill:#ff0000;fill-rule:evenodd" />
  <path
     d="m 769.20282,291.27348 -2.3989,0.10374 0,-0.44454 2.38946,-0.10372 -0.0473,-2.45971 0.37778,-0.0297 0.0473,2.47454 2.38945,-0.11854 0.0101,0.44453 -2.38945,0.11854 0.0377,2.45971 -0.37776,0.0296 -0.0377,-2.47455 z"
     id="path4413"
     inkscape:connector-curvature="0"
     style="fill:#ff0000;fill-rule:evenodd" />
  <path
     d="m 773.10341,284.62039 0.0101,0.54826 -0.46278,0.93351 -0.48166,0.38525 -0.47224,0.40007 -1.35056,0.42972 -0.88778,0.0444 -0.81223,0.0297 -1.33167,-0.29635 -0.51,-0.32599 -0.51,-0.3408 -0.51946,-0.90387 -0.0101,-0.56306 -0.0101,-0.54825 0.4628,-0.91869 0.47222,-0.38527 0.48167,-0.37044 1.33168,-0.41489 0.85944,-0.0444 0.85945,-0.0444 1.36002,0.29635 0.50055,0.34081 0.50056,0.32599 0.51001,0.88905 0.0101,0.53342 0,0 z m -7.00782,0.32599 0.0101,0.34081 0.46277,0.56308 0.45334,0.20744 0.45334,0.22226 1.21835,0.17781 0.7461,-0.0296 0.80279,-0.0445 1.22778,-0.29635 0.4439,-0.2519 0.43445,-0.25189 0.425,-0.59271 -0.0101,-0.35561 0,-0.37044 -0.45334,-0.56307 -0.44389,-0.17781 -0.44389,-0.19264 -1.24668,-0.14817 -0.79334,0.0297 -0.75555,0.0296 -1.19945,0.26671 -0.4439,0.20745 -0.45334,0.22228 -0.43443,0.60752 0,0.40006 0,0 z"
     id="path4415"
     inkscape:connector-curvature="0"
     style="fill:#ff0000;fill-rule:evenodd" />
  <path
     d="m 772.07395,276.95972 0.15111,0 0.20778,-0.10372 0.0567,-0.10372 0.066,-0.10373 0.0567,-0.28154 0,-0.16299 -0.0101,-0.44451 0.24556,-0.0148 0.0661,3.25986 -0.255,0.0148 -0.0101,-0.54824 0,-0.19264 -0.0661,-0.28154 -0.0661,-0.0889 -0.0661,-0.0889 -0.20778,-0.0742 -0.1511,0.0148 -1.38835,0.0593 0.0661,3.30432 -0.20777,0.0148 -4.93004,-3.37839 -0.0101,-0.48899 4.8167,-0.23707 -0.0189,-1.31878 0.24556,-0.0148 0.0283,1.33359 1.3789,-0.0742 z m -5.3928,1.0965 3.83446,2.63752 -0.0567,-2.85979 -3.77779,0.17782 0,0.0445 z"
     id="path4417"
     inkscape:connector-curvature="0"
     style="fill:#ff0000;fill-rule:evenodd" />
  <path
     d="m 770.10949,272.55891 0.0101,0.5038 -0.24555,0.80013 -0.26445,0.29636 -0.255,0.31117 -0.84056,0.34079 -0.58556,0.0297 -0.51,0.0148 -0.84056,-0.28153 -0.34,-0.29636 -0.34001,-0.31116 -0.35889,-0.90386 -0.0101,-0.59271 -0.0101,-0.60753 0.39668,-0.97795 0.41554,-0.37045 0.41556,-0.37043 1.2089,-0.40008 0.79334,-0.0296 0.88778,-0.0445 1.46391,0.3408 0.57611,0.38525 0.58555,0.37044 0.60446,1.0965 0.0101,0.72607 0.0101,0.31116 -0.12278,0.56307 -0.11334,0.23708 -0.12278,0.25189 -0.33056,0.23709 -0.20778,0.0148 -0.085,0 -0.17,-0.0445 -0.0849,-0.0593 -0.085,-0.0593 -0.0944,-0.20744 0,-0.14817 0,-0.14819 0.085,-0.20743 0.0944,-0.0445 0.0944,-0.0593 0.21724,-0.0593 0.13221,0 0.085,-0.0148 0.13223,-0.0296 0.0567,-0.0148 0.0473,-0.0296 0.0756,-0.0593 0.0189,-0.0296 0.0189,-0.0148 0.0283,-0.0888 0.0101,-0.0594 0.0101,-0.0742 0.0101,-0.13337 0,-0.0742 -0.0101,-0.44453 -0.43444,-0.69643 -0.42501,-0.25188 -0.42501,-0.25192 -1.40722,-0.25189 -0.99167,0 0.25499,0.10372 0.42501,0.35562 0.17945,0.23708 0.16999,0.23708 0.17944,0.60752 0.0101,0.37045 0,0 z m -2.23834,1.43729 0.45333,-0.0148 0.6989,-0.2519 0.23611,-0.20744 0.24556,-0.22227 0.22666,-0.54825 -0.0101,-0.32599 0,-0.37043 -0.31168,-0.62234 -0.29277,-0.25189 -0.30222,-0.26672 -0.54779,-0.23709 -0.25501,0 -0.50055,0.0297 -0.80277,0.23707 -0.30223,0.20745 -0.30224,0.20745 -0.29276,0.66679 0.0101,0.44452 0.0101,0.4149 0.29278,0.60751 0.29278,0.1778 0.28333,0.19263 0.72722,0.16301 0.44391,-0.0297 0,0 z"
     id="path4419"
     inkscape:connector-curvature="0"
     style="fill:#ff0000;fill-rule:evenodd" />
  <path
     d="m 32.20116,251.48833 0,53.13578"
     id="path4421"
     inkscape:connector-curvature="0"
     style="fill:none;stroke:#ff0000;stroke-width:0.11829813" />
  <path
     d="m 259.87032,251.16235 0,53.1506"
     id="path4423"
     inkscape:connector-curvature="0"
     style="fill:none;stroke:#ff0000;stroke-width:0.11829813" />
  <path
     d="m 291.99105,315.20385 0,53.15059"
     id="path4425"
     inkscape:connector-curvature="0"
     style="fill:none;stroke:#ff0000;stroke-width:0.11829813" />
  <path
     d="m 340.32802,251.16235 0,53.13578"
     id="path4427"
     inkscape:connector-curvature="0"
     style="fill:none;stroke:#ff0000;stroke-width:0.11829813" />
  <path
     d="m 413.12623,253.37016 0,53.13578"
     id="path4429"
     inkscape:connector-curvature="0"
     style="fill:none;stroke:#ff0000;stroke-width:0.11829813" />
  <path
     d="m 498.41008,251.48833 0,53.13578"
     id="path4431"
     inkscape:connector-curvature="0"
     style="fill:none;stroke:#ff0000;stroke-width:0.11829813" />
  <path
     d="m 523.52301,251.48833 0,53.13578"
     id="path4433"
     inkscape:connector-curvature="0"
     style="fill:none;stroke:#ff0000;stroke-width:0.11829813" />
  <path
     d="m 603.36682,315.44093 0,53.13578"
     id="path4435"
     inkscape:connector-curvature="0"
     style="fill:none;stroke:#ff0000;stroke-width:0.11829813" />
  <path
     d="m 676.78838,251.48833 0,53.13578"
     id="path4437"
     inkscape:connector-curvature="0"
     style="fill:none;stroke:#ff0000;stroke-width:0.11829813" />
  <path
     d="m 773.3773,250.83636 0,53.13578"
     id="path4439"
     inkscape:connector-curvature="0"
     style="fill:none;stroke:#ff0000;stroke-width:0.11829813" />
  <path
     d="m 597.61513,313.57392 0,-145.84927"
     id="path4489"
     inkscape:connector-curvature="0"
     style="fill:none;stroke:#000000;stroke-width:0.11829813" />
  <path
     d="m 607.59796,313.57392 0,-145.84927"
     id="path4491"
     inkscape:connector-curvature="0"
     style="fill:none;stroke:#000000;stroke-width:0.11829813" />
  <path
     d="m 597.61513,313.57392 9.98283,0"
     id="path4701"
     inkscape:connector-curvature="0"
     style="fill:none;stroke:#000000;stroke-width:0.11829813" />
  <path
     d="m 286.13547,313.57392 0,-145.84927"
     id="path4703"
     inkscape:connector-curvature="0"
     style="fill:none;stroke:#000000;stroke-width:0.11829813" />
  <path
     d="m 296.11832,313.57392 0,-145.84927"
     id="path4705"
     inkscape:connector-curvature="0"
     style="fill:none;stroke:#000000;stroke-width:0.11829813" />
  <path
     d="m 286.13547,313.57392 9.98285,0"
     id="path4915"
     inkscape:connector-curvature="0"
     style="fill:none;stroke:#000000;stroke-width:0.11829813" />
  <path
     d="m 582.20169,305.58725 0.0378,2.13374 -0.24555,0 -0.0101,-0.14818 0,-0.14818 -0.0849,-0.163 -0.0849,-0.0148 -0.085,-0.0297 -0.22667,0.089 -0.1511,0.10372 -3.02225,1.82256 0.97279,0.74088 2.38946,-0.10372 0.085,-0.0148 0.12278,-0.0593 0.0473,-0.0593 0.0377,-0.0742 0.0377,-0.163 0,-0.0889 -0.0101,-0.29635 0.25501,-0.0148 0.0473,2.2671 -0.255,0.0148 -0.0101,-0.29635 0,-0.11855 -0.0473,-0.1778 -0.0377,-0.0444 -0.0473,-0.0445 -0.12278,-0.0444 -0.085,0 -5.99727,0.28154 -0.0849,0 -0.12279,0.0593 -0.0473,0.0445 -0.0378,0.0593 -0.0377,0.16298 0,0.13337 0.0101,0.29635 -0.25499,0 -0.0378,-2.26709 0.24556,-0.0148 0.0101,0.29635 0,0.10373 0.0473,0.16299 0.0378,0.0593 0.0473,0.0593 0.12279,0.0593 0.0851,-0.0148 3.06,-0.13336 -2.85223,-2.193 -0.14167,-0.11855 -0.22667,-0.0593 -0.0756,0.0444 -0.0661,0.0593 -0.0756,0.22229 0.0101,0.1778 0,0.19262 -0.24556,0.0148 -0.0473,-2.11891 0.25501,-0.0148 0,0.10373 0,0.11854 0.0755,0.23707 0.0567,0.13336 0.0661,0.11854 0.19833,0.23709 0.12278,0.11854 1.87945,1.48175 3.81559,-2.29672 0.12277,-0.0742 0.17945,-0.17781 0.0473,-0.0888 0.0567,-0.0889 0.0473,-0.13335 0,-0.0444 -0.0101,-0.2519 0.25499,-0.0148 z"
     id="path4983"
     inkscape:connector-curvature="0"
     style="fill:#ff0000;fill-rule:evenodd" />
  <path
     d="m 581.31392,300.84563 0.1511,-0.0148 0.20779,-0.10371 0.0567,-0.10373 0.0661,-0.10373 0.0567,-0.26671 -0.0101,-0.1778 0,-0.44454 0.24556,-0.0148 0.0661,3.25986 -0.25499,0.0148 -0.0101,-0.54824 0,-0.19264 -0.0755,-0.28153 -0.0661,-0.0889 -0.0567,-0.0742 -0.21722,-0.0742 -0.14167,0 -1.38833,0.0593 0.0661,3.31913 -0.20778,0 -4.93948,-3.3784 -0.0101,-0.48898 4.82616,-0.22226 -0.0283,-1.33358 0.255,-0.0148 0.0283,1.33358 1.3789,-0.0593 z m -5.39283,1.08169 3.82503,2.63752 -0.0473,-2.8598 -3.7778,0.17782 0,0.0445 z"
     id="path4985"
     inkscape:connector-curvature="0"
     style="fill:#ff0000;fill-rule:evenodd" />
  <path
     d="m 581.20057,294.53334 0.14167,-0.0148 0.20778,-0.10373 0.0661,-0.10372 0.0567,-0.10374 0.0567,-0.26672 0,-0.1778 -0.0101,-0.44452 0.25499,-0.0148 0.0567,3.25987 -0.255,0.0148 -0.0101,-0.54825 0,-0.19262 -0.0661,-0.28154 -0.0661,-0.0889 -0.0661,-0.0742 -0.20779,-0.0889 -0.1511,0.0148 -1.37891,0.0593 0.0567,3.3043 -0.20779,0.0148 -4.93004,-3.37841 -0.0101,-0.48899 4.8167,-0.22225 -0.0189,-1.33359 0.24556,-0.0148 0.0283,1.33357 1.38834,-0.0593 z m -5.40224,1.08169 3.83446,2.63753 -0.0567,-2.8598 -3.77779,0.17782 0,0.0444 z"
     id="path4987"
     inkscape:connector-curvature="0"
     style="fill:#ff0000;fill-rule:evenodd" />
  <path
     d="m 577.96112,289.88063 -2.38946,0.11854 -0.0101,-0.44452 2.38945,-0.11854 -0.0473,-2.45972 0.37776,-0.0148 0.0473,2.45971 2.38945,-0.10372 0.0101,0.44452 -2.38946,0.10373 0.0473,2.47452 -0.37779,0.0148 -0.0473,-2.47454 z"
     id="path4989"
     inkscape:connector-curvature="0"
     style="fill:#ff0000;fill-rule:evenodd" />
  <path
     d="m 579.10391,283.80543 0.0101,0.48898 -0.24556,0.81497 -0.25501,0.29636 -0.255,0.31116 -0.84999,0.34081 -0.58557,0.0296 -0.50056,0.0148 -0.84055,-0.28152 -0.34945,-0.29636 -0.34,-0.31117 -0.34945,-0.90387 -0.0101,-0.59271 -0.0101,-0.60752 0.39667,-0.99277 0.41556,-0.35563 0.40611,-0.37044 1.21835,-0.40006 0.79334,-0.0297 0.87833,-0.0445 1.4639,0.34081 0.58556,0.38526 0.58556,0.37043 0.595,1.0965 0.0189,0.71126 0,0.32598 -0.11333,0.56306 -0.12278,0.23708 -0.12278,0.23708 -0.33055,0.2519 -0.20777,0.0148 -0.085,0 -0.17,-0.0444 -0.085,-0.0593 -0.0849,-0.0593 -0.0849,-0.20744 0,-0.14818 -0.0101,-0.14818 0.0944,-0.20744 0.0944,-0.0445 0.0944,-0.0593 0.2172,-0.0594 0.12279,0 0.0849,-0.0148 0.14167,-0.0296 0.0473,-0.0297 0.0567,-0.0148 0.0661,-0.0593 0.0283,-0.0296 0.0189,-0.0148 0.0283,-0.0889 0.0101,-0.0742 0.0101,-0.0593 0.0101,-0.13337 0,-0.0742 -0.0101,-0.44453 -0.43444,-0.69643 -0.42502,-0.25189 -0.42498,-0.2519 -1.40724,-0.2519 -0.99168,0 0.25501,0.10372 0.425,0.35563 0.17001,0.23707 0.17945,0.23708 0.17944,0.60753 0,0.37043 0,0 z m -2.23836,1.43731 0.46278,-0.0148 0.69889,-0.25191 0.23612,-0.22225 0.2361,-0.22227 0.23613,-0.53342 -0.0101,-0.32599 -0.0101,-0.37045 -0.30222,-0.62233 -0.30224,-0.2519 -0.29277,-0.26672 -0.55723,-0.23709 -0.24555,0 -0.50057,0.0296 -0.81222,0.23708 -0.29278,0.20745 -0.30223,0.20744 -0.29277,0.65198 0.0101,0.44453 0.0101,0.4297 0.29278,0.60751 0.28333,0.17782 0.29279,0.17782 0.72723,0.16299 0.43444,-0.0148 0,0 z"
     id="path4991"
     inkscape:connector-curvature="0"
     style="fill:#ff0000;fill-rule:evenodd" />
  <path
     d="m 578.99056,277.49316 0.0101,0.48897 -0.24556,0.80015 -0.26444,0.31116 -0.25501,0.31119 -0.84056,0.32598 -0.58556,0.0296 -0.51,0.0296 -0.84056,-0.28154 -0.34,-0.31116 -0.34001,-0.29635 -0.35889,-0.90388 -0.0101,-0.5927 -0.0101,-0.62233 0.39666,-0.97796 0.41556,-0.35563 0.41556,-0.37043 1.2089,-0.40008 0.79333,-0.0445 0.88778,-0.0296 1.4639,0.34081 0.58555,0.37044 0.57612,0.38526 0.60446,1.0965 0.0101,0.71123 0.0101,0.32599 -0.11333,0.56307 -0.12278,0.23708 -0.12277,0.23708 -0.33056,0.2519 -0.20779,0.0148 -0.0849,0 -0.17,-0.0593 -0.085,-0.0593 -0.0849,-0.0593 -0.0851,-0.19263 -0.0101,-0.14817 0,-0.14817 0.0944,-0.20745 0.0849,-0.0593 0.0944,-0.0445 0.22667,-0.0593 0.12277,-0.0148 0.085,0 0.13223,-0.0296 0.0567,-0.0297 0.0473,-0.0296 0.0756,-0.0445 0.0189,-0.0297 0.0189,-0.0296 0.0283,-0.0888 0.0101,-0.0593 0.0101,-0.0593 0.0101,-0.13335 0,-0.0742 -0.0101,-0.44453 -0.43444,-0.69642 -0.425,-0.2519 -0.425,-0.2519 -1.40724,-0.2519 -0.98223,-0.0148 0.24556,0.11853 0.43445,0.34082 0.17,0.25189 0.17001,0.23708 0.17944,0.60752 0.0101,0.37044 0,0 z m -2.23834,1.43729 0.46277,-0.0297 0.68946,-0.23708 0.24555,-0.22226 0.23613,-0.22226 0.22665,-0.53344 0,-0.32599 -0.0101,-0.37043 -0.31167,-0.62235 -0.29277,-0.26671 -0.30222,-0.25189 -0.54779,-0.25191 -0.255,0.0148 -0.50056,0.0296 -0.80278,0.22226 -0.30222,0.22227 -0.30223,0.20745 -0.29278,0.65198 0.0101,0.44451 0.0101,0.4149 0.29277,0.60752 0.29278,0.19262 0.28334,0.17781 0.72722,0.163 0.44389,-0.0148 0,0 z"
     id="path4993"
     inkscape:connector-curvature="0"
     style="fill:#ff0000;fill-rule:evenodd" />
  <path
     d="m 574.23997,270.49927 6.37505,-0.29635 0.17,0 0.24555,-0.14818 0.085,-0.11855 0.0755,-0.13336 0.085,-0.34079 -0.0101,-0.22226 -0.0101,-0.5038 0.25499,0 0.0661,3.60066 -0.255,0.0148 -0.0101,-0.44453 0,-0.2519 -0.0944,-0.35561 -0.085,-0.10373 -0.0849,-0.10372 -0.255,-0.10373 -0.16056,0 -5.08114,0.23709 -0.0849,0 -0.13223,0.0742 -0.0473,0.0593 -0.0567,0.0742 -0.0473,0.17781 0,0.13335 0.0189,0.88905 -0.255,0 0,-0.44453 -0.0101,-0.29634 -0.0944,-0.47416 -0.0849,-0.17781 -0.085,-0.17781 -0.26444,-0.28154 -0.17,-0.0889 0,-0.19263 z"
     id="path4995"
     inkscape:connector-curvature="0"
     style="fill:#ff0000;fill-rule:evenodd" />
  <path
     d="m 582.00336,252.6441 0,53.13578"
     id="path4997"
     inkscape:connector-curvature="0"
     style="fill:none;stroke:#ff0000;stroke-width:0.11829813" />
</svg>
